<?xml version="1.0" encoding="utf-8"?>
<!-- Generator: Adobe Illustrator 26.3.1, SVG Export Plug-In . SVG Version: 6.00 Build 0)  -->
<svg version="1.1" id="圖層_1" xmlns="http://www.w3.org/2000/svg" xmlns:xlink="http://www.w3.org/1999/xlink" x="0px" y="0px"
	 viewBox="0 0 260.8 73.5" style="enable-background:new 0 0 260.8 73.5;" xml:space="preserve">
<style type="text/css">
	.st0{fill:none;stroke:#A27DD7;stroke-width:0.12;stroke-miterlimit:10;}
	.st1{fill:#BF6DBF;}
	.st2{opacity:0.47;fill:#BF6DBF;enable-background:new    ;}
	.st3{fill:none;stroke:#FFFFFF;stroke-width:0.5;stroke-miterlimit:10;}
	.st4{enable-background:new    ;}
	.st5{fill:#FFFFFF;}
	.st6{fill:#49494B;}
	.st7{fill:#4B4949;}
</style>
<g id="圖層_2_00000008107931648819068800000000135469097191528328_">
	<g id="圖層_1-2">
		<rect x="0.1" y="9.8" class="st0" width="260.2" height="61.6"/>
		<line class="st0" x1="225.8" y1="25.1" x2="225.9" y2="71.4"/>
		<line class="st0" x1="0.1" y1="53.6" x2="260" y2="53.6"/>
		<rect x="0.1" y="9.8" class="st1" width="54.2" height="26"/>
		<line class="st0" x1="123.1" y1="20.5" x2="123.1" y2="71.4"/>
		<line class="st0" x1="54.3" y1="25.1" x2="54.4" y2="71.4"/>
		<line class="st0" x1="88.6" y1="25.1" x2="88.6" y2="71.4"/>
		<line class="st0" x1="157.4" y1="25.1" x2="157.4" y2="71.4"/>
		<line class="st0" x1="191.6" y1="20.5" x2="191.6" y2="71.4"/>
		<rect x="54.3" y="23.9" class="st2" width="68.6" height="12"/>
		<line class="st3" x1="88.6" y1="24.1" x2="88.6" y2="35.9"/>
		<g class="st4">
			<path class="st5" d="M73.7,30.4c0,0,0,0.2,0,0.2c-0.1,1.4-0.3,1.9-0.5,2.1C73,32.9,72.9,33,72.6,33c-0.2,0-0.7,0-1.1,0
				c0-0.1-0.1-0.3-0.2-0.4c0.5,0,1,0.1,1.1,0.1c0.2,0,0.2,0,0.3-0.1c0.2-0.1,0.3-0.6,0.4-1.6h-2.3c-0.4,1-1.1,1.8-2.9,2.2
				c0-0.1-0.2-0.3-0.3-0.4c1.6-0.3,2.3-0.9,2.6-1.7h-2.4v-0.4h2.6c0.1-0.2,0.1-0.5,0.1-0.7h-2.1v-2.9h5v2.9h-2.4
				c0,0.3-0.1,0.5-0.1,0.7H73.7z M69,28.1h1.7v-0.8H69V28.1z M69,29.3h1.7v-0.8H69V29.3z M73,27.2h-1.8v0.8H73V27.2z M73,28.4h-1.8
				v0.8H73V28.4z"/>
		</g>
		<g class="st4">
			<path class="st5" d="M107.3,28.7c-0.3,1-0.7,1.9-1.3,2.6c0.9,0.5,1.8,0.9,2.4,1.4L108,33c-0.6-0.4-1.4-0.9-2.4-1.4
				c-0.7,0.7-1.7,1.1-3.1,1.4c-0.1-0.1-0.2-0.3-0.3-0.5c1.2-0.2,2.2-0.6,2.8-1.2c-0.6-0.3-1.3-0.6-2-0.9c0.3-0.5,0.6-1.1,0.9-1.8
				h-1.8v-0.5h2c0.3-0.6,0.5-1.3,0.6-1.8l0.5,0.1c-0.1,0.5-0.4,1.2-0.6,1.8h2.1c0.1-0.2,0.1-0.4,0.1-0.7l0.5,0.1
				c0,0.2-0.1,0.4-0.1,0.6h1.2v0.5H107.3z M104.6,28.7c-0.2,0.6-0.5,1.2-0.7,1.6c0.6,0.2,1.1,0.5,1.7,0.7c0.6-0.6,1-1.4,1.2-2.3
				H104.6z"/>
		</g>
		<rect x="123.2" y="23.9" class="st2" width="68.6" height="12"/>
		<line class="st3" x1="157.5" y1="24.1" x2="157.5" y2="35.9"/>
		<g class="st4">
			<path class="st5" d="M142.6,30.4c0,0,0,0.2,0,0.2c-0.1,1.4-0.3,1.9-0.5,2.1c-0.2,0.1-0.3,0.2-0.5,0.2c-0.2,0-0.7,0-1.1,0
				c0-0.1-0.1-0.3-0.2-0.4c0.5,0,1,0.1,1.1,0.1c0.2,0,0.2,0,0.3-0.1c0.2-0.1,0.3-0.6,0.4-1.6h-2.3c-0.4,1-1.1,1.8-2.9,2.2
				c0-0.1-0.2-0.3-0.3-0.4c1.6-0.3,2.3-0.9,2.6-1.7h-2.4v-0.4h2.6c0.1-0.2,0.1-0.5,0.1-0.7h-2.1v-2.9h5v2.9H140
				c0,0.3-0.1,0.5-0.1,0.7H142.6z M137.9,28.1h1.7v-0.8h-1.7V28.1z M137.9,29.3h1.7v-0.8h-1.7V29.3z M141.9,27.2h-1.8v0.8h1.8V27.2z
				 M141.9,28.4h-1.8v0.8h1.8V28.4z"/>
		</g>
		<g class="st4">
			<path class="st5" d="M176.2,28.7c-0.3,1-0.7,1.9-1.3,2.6c0.9,0.5,1.8,0.9,2.4,1.4L177,33c-0.6-0.4-1.4-0.9-2.4-1.4
				c-0.7,0.7-1.7,1.1-3.1,1.4c-0.1-0.1-0.2-0.3-0.3-0.5c1.2-0.2,2.2-0.6,2.8-1.2c-0.6-0.3-1.3-0.6-2-0.9c0.3-0.5,0.6-1.1,0.9-1.8
				h-1.8v-0.5h2c0.3-0.6,0.5-1.3,0.6-1.8l0.5,0.1c-0.1,0.5-0.4,1.2-0.6,1.8h2.1c0.1-0.2,0.1-0.4,0.1-0.7l0.5,0.1
				c0,0.2-0.1,0.4-0.1,0.6h1.2v0.5H176.2z M173.5,28.7c-0.2,0.6-0.5,1.2-0.7,1.6c0.6,0.2,1.1,0.5,1.7,0.7c0.6-0.6,1-1.4,1.2-2.3
				H173.5z"/>
		</g>
		<rect x="191.8" y="23.9" class="st2" width="68.6" height="12"/>
		<line class="st3" x1="226" y1="24.1" x2="226" y2="35.9"/>
		<g class="st4">
			<path class="st5" d="M211.1,30.4c0,0,0,0.2,0,0.2c-0.1,1.4-0.3,1.9-0.5,2.1c-0.2,0.1-0.3,0.2-0.5,0.2c-0.2,0-0.7,0-1.1,0
				c0-0.1-0.1-0.3-0.2-0.4c0.5,0,1,0.1,1.1,0.1c0.2,0,0.2,0,0.3-0.1c0.2-0.1,0.3-0.6,0.4-1.6h-2.3c-0.4,1-1.1,1.8-2.9,2.2
				c0-0.1-0.2-0.3-0.3-0.4c1.6-0.3,2.3-0.9,2.6-1.7h-2.4v-0.4h2.6c0.1-0.2,0.1-0.5,0.1-0.7h-2.1v-2.9h5v2.9h-2.4
				c0,0.3-0.1,0.5-0.1,0.7H211.1z M206.4,28.1h1.7v-0.8h-1.7V28.1z M206.4,29.3h1.7v-0.8h-1.7V29.3z M210.4,27.2h-1.8v0.8h1.8V27.2z
				 M210.4,28.4h-1.8v0.8h1.8V28.4z"/>
		</g>
		<g class="st4">
			<path class="st5" d="M244.8,28.7c-0.3,1-0.7,1.9-1.3,2.6c0.9,0.5,1.8,0.9,2.4,1.4l-0.4,0.4c-0.6-0.4-1.4-0.9-2.4-1.4
				c-0.7,0.7-1.7,1.1-3.1,1.4c-0.1-0.1-0.2-0.3-0.3-0.5c1.2-0.2,2.2-0.6,2.8-1.2c-0.6-0.3-1.3-0.6-2-0.9c0.3-0.5,0.6-1.1,0.9-1.8
				h-1.8v-0.5h2c0.3-0.6,0.5-1.3,0.6-1.8l0.5,0.1c-0.1,0.5-0.4,1.2-0.6,1.8h2.1c0.1-0.2,0.1-0.4,0.1-0.7l0.5,0.1
				c0,0.2-0.1,0.4-0.1,0.6h1.2v0.5H244.8z M242,28.7c-0.2,0.6-0.5,1.2-0.7,1.6c0.6,0.2,1.1,0.5,1.7,0.7c0.6-0.6,1-1.4,1.2-2.3H242z"
				/>
		</g>
		<rect x="54.3" y="9.9" class="st1" width="206" height="14.2"/>
		<line class="st3" x1="54.4" y1="9.8" x2="54.4" y2="35.9"/>
		<g class="st4">
			<path class="st6" d="M16.5,46.6c-0.1,0.6-0.2,1.3-0.4,1.8c-0.1,0-0.3-0.1-0.4-0.2c0.2-0.4,0.3-1.1,0.4-1.7L16.5,46.6z M17.9,46.3
				c0-0.1-0.1-0.3-0.1-0.4c-1.6,0.2-1.8,0.3-1.9,0.4c0-0.1-0.1-0.3-0.2-0.4c0.1,0,0.3-0.2,0.5-0.5c0.1-0.1,0.4-0.5,0.6-0.9
				c-0.8,0.1-0.9,0.1-1,0.2c0-0.1-0.1-0.3-0.1-0.4c0.1,0,0.2-0.2,0.4-0.4c0.2-0.2,0.7-1,1-1.8l0.4,0.2c-0.3,0.7-0.7,1.4-1.1,2
				l0.8-0.1c0.2-0.3,0.4-0.6,0.5-1l0.4,0.2c-0.5,0.8-1,1.7-1.6,2.4l1.2-0.2c-0.1-0.3-0.2-0.5-0.3-0.7l0.4-0.1
				c0.2,0.5,0.4,1.1,0.5,1.5L17.9,46.3z M17.2,46.6c0.1,0.5,0.2,1.1,0.2,1.5L17,48.2c0-0.4-0.1-1-0.2-1.5L17.2,46.6z M17.9,46.4
				c0.2,0.4,0.3,0.9,0.4,1.2l-0.4,0.1c-0.1-0.3-0.2-0.9-0.4-1.2L17.9,46.4z M22.3,47.9v0.4h-4.1v-0.4h1.9v-1.4h-1.5v-0.4H22v0.4
				h-1.5v1.4H22.3z M19.3,45.8c-0.2-0.4-0.5-0.9-0.9-1.4c0.3-0.4,0.6-1,0.8-1.3l0.4,0.1c-0.2,0.4-0.5,0.8-0.7,1.2
				c0.3,0.4,0.6,0.9,0.8,1.3L19.3,45.8z M22.3,42.8h-3.8v-0.4h3.8V42.8z M20.8,43.1c-0.2,0.4-0.5,0.8-0.7,1.2
				c0.3,0.4,0.7,0.9,0.8,1.3l-0.4,0.2c-0.2-0.4-0.5-0.9-0.9-1.4c0.3-0.4,0.6-1,0.8-1.3L20.8,43.1z M21.8,45.8
				c-0.2-0.4-0.6-0.9-1-1.4c0.3-0.4,0.6-1,0.8-1.3l0.4,0.1c-0.2,0.4-0.5,0.8-0.8,1.2c0.3,0.4,0.7,0.9,0.9,1.2L21.8,45.8z"/>
			<path class="st6" d="M25.9,47c-0.8,0.3-1.6,0.5-2.2,0.7l-0.1-0.5c0.3-0.1,0.6-0.2,1-0.3v-2h-0.8v-0.4h0.8v-1.6h-0.9v-0.5h2.2v0.5
				H25v1.6h0.7V45H25v1.9c0.3-0.1,0.5-0.2,0.8-0.3L25.9,47z M30.2,47.9v0.4h-4.7v-0.4h2.2v-1h-1.7v-0.4h1.7v-0.9h-1.6v-3.2h3.7v3.2
				h-1.6v0.9H30v0.4h-1.7v1H30.2z M26.7,43.7h1.2v-1h-1.2V43.7z M26.7,45.1h1.2v-1h-1.2V45.1z M29.4,42.7h-1.2v1h1.2V42.7z
				 M29.4,44.1h-1.2v1h1.2V44.1z"/>
			<path class="st6" d="M35,42c0,0.3,0,0.6-0.1,1c0.1,0.8,0.5,3.9,3.1,5.1c-0.1,0.1-0.3,0.3-0.3,0.4c-1.9-0.9-2.6-2.7-3-4.1
				c-0.3,1.5-1.1,3.2-2.9,4.1c-0.1-0.1-0.2-0.3-0.4-0.4c3-1.5,3-5.1,3-6.2H35z"/>
		</g>
		<g class="st4">
			<path class="st6" d="M14.1,59.9h0.5v3.4c0,1-0.3,2.5-2,3.3c-0.1-0.1-0.2-0.3-0.3-0.4c0.9-0.4,1.4-1,1.6-1.7
				c-0.7,0.1-1.3,0.3-1.8,0.4L12,64.4c0.5-0.1,1.3-0.2,2.1-0.3c0.1-0.3,0.1-0.6,0.1-0.8V63h-1.9v-0.4h1.9v-1.2h-2V61h2V59.9z
				 M18.4,64.7h-2.2v1.8h-0.5v-6.6h0.5V61h2.1v0.5h-2.1v1.2h2V63h-2v1.2h2.2V64.7z"/>
			<path class="st6" d="M20.4,64.5c-0.1,0.6-0.2,1.3-0.4,1.8c-0.1,0-0.3-0.1-0.4-0.2c0.2-0.4,0.3-1.1,0.4-1.7L20.4,64.5z M21.8,64.2
				c0-0.1-0.1-0.3-0.1-0.4c-1.6,0.2-1.8,0.3-1.9,0.4c0-0.1-0.1-0.3-0.2-0.4c0.1,0,0.3-0.2,0.5-0.5c0.1-0.1,0.4-0.5,0.6-0.9
				c-0.8,0.1-0.9,0.1-1,0.2c0-0.1-0.1-0.3-0.1-0.4c0.1,0,0.2-0.2,0.4-0.4c0.2-0.2,0.7-1,1-1.8l0.4,0.2c-0.3,0.7-0.7,1.4-1.1,2
				l0.8-0.1c0.2-0.3,0.4-0.6,0.5-1l0.4,0.2c-0.5,0.8-1,1.7-1.6,2.4l1.2-0.2c-0.1-0.3-0.2-0.5-0.3-0.7l0.4-0.1
				c0.2,0.5,0.4,1.1,0.5,1.5L21.8,64.2z M21.1,64.4c0.1,0.5,0.2,1.1,0.2,1.5L20.9,66c0-0.4-0.1-1-0.2-1.5L21.1,64.4z M21.8,64.3
				c0.2,0.4,0.3,0.9,0.4,1.2l-0.4,0.1c-0.1-0.3-0.2-0.9-0.4-1.2L21.8,64.3z M26.2,65.8v0.4h-4.1v-0.4H24v-1.4h-1.5v-0.4h3.4v0.4
				h-1.5v1.4H26.2z M23.2,63.7c-0.2-0.4-0.5-0.9-0.9-1.4c0.3-0.4,0.6-1,0.8-1.3l0.4,0.1c-0.2,0.4-0.5,0.8-0.7,1.2
				c0.3,0.4,0.6,0.9,0.8,1.3L23.2,63.7z M26.2,60.6h-3.8v-0.4h3.8V60.6z M24.7,61c-0.2,0.4-0.5,0.8-0.7,1.2c0.3,0.4,0.7,0.9,0.8,1.3
				l-0.4,0.2c-0.2-0.4-0.5-0.9-0.9-1.4c0.3-0.4,0.6-1,0.8-1.3L24.7,61z M25.7,63.7c-0.2-0.4-0.6-0.9-1-1.4c0.3-0.4,0.6-1,0.8-1.3
				L26,61c-0.2,0.4-0.5,0.8-0.8,1.2c0.3,0.4,0.7,0.9,0.9,1.2L25.7,63.7z"/>
			<path class="st6" d="M29.8,64.9c-0.8,0.3-1.6,0.5-2.2,0.7l-0.1-0.5c0.3-0.1,0.6-0.2,1-0.3v-2h-0.8v-0.4h0.8v-1.6h-0.9v-0.5h2.2
				v0.5h-0.8v1.6h0.7v0.4h-0.7v1.9c0.3-0.1,0.5-0.2,0.8-0.3L29.8,64.9z M34.1,65.7v0.4h-4.7v-0.4h2.2v-1H30v-0.4h1.7v-0.9h-1.6v-3.2
				h3.7v3.2h-1.6v0.9h1.7v0.4h-1.7v1H34.1z M30.6,61.6h1.2v-1h-1.2V61.6z M30.6,63h1.2v-1h-1.2V63z M33.3,60.6h-1.2v1h1.2V60.6z
				 M33.3,62h-1.2v1h1.2V62z"/>
			<path class="st6" d="M38.9,59.9c0,0.3,0,0.6-0.1,1c0.1,0.8,0.5,3.9,3.1,5.1c-0.1,0.1-0.3,0.3-0.3,0.4c-1.9-0.9-2.6-2.7-3-4.1
				c-0.3,1.5-1.1,3.2-2.9,4.1c-0.1-0.1-0.2-0.3-0.4-0.4c3-1.5,3-5.1,3-6.2H38.9z"/>
		</g>
		<g class="st4">
			<path class="st6" d="M130.6,65.9v-4.8c-0.3,0.2-0.9,0.5-1.2,0.6v-0.4c0.3-0.1,0.9-0.4,1.3-0.8h0.3v5.3H130.6z"/>
		</g>
		<g class="st4">
			<path class="st6" d="M135.1,65.9v-1.5h-2.5V64l2.5-3.4h0.4V64h0.7l-0.1,0.4h-0.7v1.5H135.1z M135.1,62.4c0-0.3,0-1,0-1.3
				c-0.2,0.4-1.5,2.1-2.1,2.9h2.1V62.4z"/>
		</g>
		<g class="st4">
			<path class="st6" d="M136.9,66.8c0.4-0.8,0.5-1.5,0.6-1.9h0.4c-0.1,0.7-0.3,1.5-0.6,1.9H136.9z"/>
		</g>
		<g class="st4">
			<path class="st6" d="M141.9,61.7c-0.1-0.5-0.4-0.8-1-0.8c-1,0-1.4,0.9-1.4,2.3c0.2-0.4,0.6-0.9,1.4-0.9c1.1,0,1.6,0.8,1.6,1.8
				c0,1-0.5,1.9-1.7,1.9c-1.4,0-1.8-1.2-1.8-2.7c0-1.5,0.5-2.8,1.8-2.8c1,0,1.4,0.7,1.4,1.2H141.9z M142,64.1c0-0.7-0.3-1.4-1.2-1.4
				c-0.7,0-1.3,0.5-1.3,1.4c0,0.4,0.2,1.5,1.3,1.5C141.7,65.6,142,64.9,142,64.1z"/>
		</g>
		<g class="st4">
			<path class="st6" d="M146.9,61h-2.3c-0.1,0.5-0.2,1.5-0.3,1.8c0.2-0.3,0.6-0.5,1.2-0.5c0.9,0,1.6,0.6,1.6,1.8
				c0,1-0.5,1.9-1.7,1.9c-0.9,0-1.5-0.5-1.7-1.4h0.4c0.1,0.6,0.5,1,1.3,1c0.8,0,1.3-0.6,1.3-1.5c0-0.8-0.3-1.4-1.2-1.4
				c-0.7,0-1,0.3-1.3,0.8l-0.4-0.1c0.2-0.7,0.4-2.2,0.4-2.8h2.7L146.9,61z"/>
		</g>
		<g class="st4">
			<path class="st6" d="M151.2,61.7c-0.1-0.5-0.4-0.8-1-0.8c-1,0-1.4,0.9-1.4,2.3c0.2-0.4,0.6-0.9,1.4-0.9c1.1,0,1.6,0.8,1.6,1.8
				c0,1-0.5,1.9-1.7,1.9c-1.4,0-1.8-1.2-1.8-2.7c0-1.5,0.5-2.8,1.8-2.8c1,0,1.4,0.7,1.4,1.2H151.2z M151.4,64.1
				c0-0.7-0.3-1.4-1.2-1.4c-0.7,0-1.3,0.5-1.3,1.4c0,0.4,0.2,1.5,1.3,1.5C151.1,65.6,151.4,64.9,151.4,64.1z"/>
		</g>
		<g class="st4">
			<path class="st6" d="M133.7,48v-4.8c-0.3,0.2-0.9,0.5-1.2,0.6v-0.4c0.3-0.1,0.9-0.4,1.3-0.8h0.3V48H133.7z"/>
		</g>
		<g class="st4">
			<path class="st6" d="M135.3,48.9c0.4-0.8,0.5-1.5,0.6-1.9h0.4c-0.1,0.7-0.3,1.5-0.6,1.9H135.3z"/>
		</g>
		<g class="st4">
			<path class="st6" d="M140.3,43.8c-0.1-0.5-0.4-0.8-1-0.8c-1,0-1.4,0.9-1.4,2.3c0.2-0.4,0.6-0.9,1.4-0.9c1.1,0,1.6,0.8,1.6,1.8
				c0,1-0.5,1.9-1.7,1.9c-1.4,0-1.8-1.2-1.8-2.7c0-1.5,0.5-2.8,1.8-2.8c1,0,1.4,0.7,1.4,1.2H140.3z M140.4,46.2
				c0-0.7-0.3-1.4-1.2-1.4c-0.7,0-1.3,0.5-1.3,1.4c0,0.4,0.2,1.5,1.3,1.5C140.1,47.7,140.4,47,140.4,46.2z"/>
		</g>
		<g class="st4">
			<path class="st6" d="M144.7,48v-1.5h-2.5v-0.4l2.5-3.4h0.4v3.4h0.7l-0.1,0.4h-0.7V48H144.7z M144.7,44.5c0-0.3,0-1,0-1.3
				c-0.2,0.4-1.5,2.1-2.1,2.9h2.1V44.5z"/>
		</g>
		<g class="st4">
			<path class="st6" d="M147.8,48v-4.8c-0.3,0.2-0.9,0.5-1.2,0.6v-0.4c0.3-0.1,0.9-0.4,1.3-0.8h0.3V48H147.8z"/>
		</g>
		<g class="st4">
			<path class="st6" d="M67.9,61h-2.3c-0.1,0.5-0.2,1.5-0.3,1.8c0.2-0.3,0.6-0.5,1.2-0.5c0.9,0,1.6,0.6,1.6,1.8c0,1-0.5,1.9-1.7,1.9
				c-0.9,0-1.5-0.5-1.7-1.4h0.4c0.1,0.6,0.5,1,1.3,1c0.8,0,1.3-0.6,1.3-1.5c0-0.8-0.3-1.4-1.2-1.4c-0.7,0-1,0.3-1.3,0.8l-0.4-0.1
				c0.2-0.7,0.4-2.2,0.4-2.8H68L67.9,61z"/>
		</g>
		<g class="st4">
			<path class="st6" d="M69.9,64.8c0.2,0.5,0.5,0.8,1.1,0.8c1.2,0,1.3-1.7,1.3-2.4c-0.3,0.5-0.8,0.8-1.4,0.8c-0.9,0-1.6-0.7-1.6-1.7
				c0-0.9,0.6-1.7,1.7-1.7c1.2,0,1.7,1,1.7,2.4c0,1.3-0.2,3-1.8,3c-0.9,0-1.4-0.5-1.5-1.1H69.9z M69.8,62.2c0,0.8,0.4,1.3,1.1,1.3
				c0.9,0,1.3-0.5,1.3-1.3c0-0.3-0.1-1.4-1.2-1.4C70.1,60.9,69.8,61.5,69.8,62.2z"/>
		</g>
		<g class="st4">
			<path class="st6" d="M73.9,65.9L73.9,65.9c0-0.7,0.6-1.5,1.6-2.3c0.9-0.7,1.1-0.9,1.1-1.6c0-0.6-0.3-1.1-1.1-1.1
				c-0.7,0-1.1,0.3-1.2,1.1H74c0.1-0.9,0.7-1.5,1.6-1.5c1.1,0,1.5,0.7,1.5,1.4c0,0.8-0.3,1.1-1.3,1.9c-0.8,0.6-1.3,1.1-1.4,1.7h3
				l-0.1,0.4H73.9z"/>
		</g>
		<g class="st4">
			<path class="st6" d="M69.8,43.8c-0.1-0.5-0.4-0.8-1-0.8c-1,0-1.4,0.9-1.4,2.3c0.2-0.4,0.6-0.9,1.4-0.9c1.1,0,1.6,0.8,1.6,1.8
				c0,1-0.5,1.9-1.7,1.9c-1.4,0-1.8-1.2-1.8-2.7c0-1.5,0.5-2.8,1.8-2.8c1,0,1.4,0.7,1.4,1.2H69.8z M70,46.2c0-0.7-0.3-1.4-1.2-1.4
				c-0.7,0-1.3,0.5-1.3,1.4c0,0.4,0.2,1.5,1.3,1.5C69.7,47.7,70,47,70,46.2z"/>
		</g>
		<g class="st4">
			<path class="st6" d="M74.7,42.7v0.4c-1,1.3-1.9,3.3-2.2,4.9h-0.4c0.3-1.5,1.2-3.6,2.1-4.9h-2.9v-0.4H74.7z"/>
		</g>
		<g class="st4">
			<path class="st6" d="M103.6,61h-2.3c-0.1,0.5-0.2,1.5-0.3,1.8c0.2-0.3,0.6-0.5,1.2-0.5c0.9,0,1.6,0.6,1.6,1.8
				c0,1-0.5,1.9-1.7,1.9c-0.9,0-1.5-0.5-1.7-1.4h0.4c0.1,0.6,0.5,1,1.3,1c0.8,0,1.3-0.6,1.3-1.5c0-0.8-0.3-1.4-1.2-1.4
				c-0.7,0-1,0.3-1.3,0.8l-0.4-0.1c0.2-0.7,0.4-2.2,0.4-2.8h2.7L103.6,61z"/>
		</g>
		<g class="st4">
			<path class="st6" d="M105.1,64.4c0-0.8,0.5-1.2,1-1.4c-0.5-0.2-0.8-0.6-0.8-1.1c0-0.8,0.5-1.4,1.5-1.4c0.9,0,1.5,0.6,1.5,1.4
				c0,0.5-0.3,1-0.8,1.1c0.6,0.2,1,0.7,1,1.4c0,1-0.7,1.6-1.8,1.6C105.8,66,105.1,65.3,105.1,64.4z M108.1,64.4
				c0-0.8-0.5-1.2-1.3-1.2c-0.9,0-1.3,0.5-1.3,1.2c0,0.7,0.5,1.2,1.3,1.2C107.6,65.6,108.1,65.2,108.1,64.4z M105.8,61.8
				c0,0.5,0.3,1,1.1,1c0.7,0,1-0.4,1-0.9c0-0.5-0.3-1-1.1-1C106,60.9,105.8,61.3,105.8,61.8z"/>
		</g>
		<g class="st4">
			<path class="st6" d="M110.3,64.8c0.2,0.5,0.5,0.8,1.1,0.8c1.2,0,1.3-1.7,1.3-2.4c-0.3,0.5-0.8,0.8-1.4,0.8
				c-0.9,0-1.6-0.7-1.6-1.7c0-0.9,0.6-1.7,1.7-1.7c1.2,0,1.7,1,1.7,2.4c0,1.3-0.2,3-1.8,3c-0.9,0-1.4-0.5-1.5-1.1H110.3z
				 M110.2,62.2c0,0.8,0.4,1.3,1.1,1.3c0.9,0,1.3-0.5,1.3-1.3c0-0.3-0.1-1.4-1.2-1.4C110.5,60.9,110.2,61.5,110.2,62.2z"/>
		</g>
		<g class="st4">
			<path class="st6" d="M105,46.5c0-0.8,0.5-1.2,1-1.4c-0.5-0.2-0.8-0.6-0.8-1.1c0-0.8,0.5-1.4,1.5-1.4c0.9,0,1.5,0.6,1.5,1.4
				c0,0.5-0.3,1-0.8,1.1c0.6,0.2,1,0.7,1,1.4c0,1-0.7,1.6-1.8,1.6C105.7,48.1,105,47.5,105,46.5z M108,46.5c0-0.8-0.5-1.2-1.3-1.2
				c-0.9,0-1.3,0.5-1.3,1.2c0,0.7,0.5,1.2,1.3,1.2C107.5,47.7,108,47.3,108,46.5z M105.7,43.9c0,0.5,0.3,1,1.1,1c0.7,0,1-0.4,1-0.9
				c0-0.5-0.3-1-1.1-1C106,43,105.7,43.4,105.7,43.9z"/>
		</g>
		<g class="st4">
			<path class="st6" d="M164.7,65.9v-4.8c-0.3,0.2-0.9,0.5-1.2,0.6v-0.4c0.3-0.1,0.9-0.4,1.3-0.8h0.3v5.3H164.7z"/>
		</g>
		<g class="st4">
			<path class="st6" d="M169.7,61.7c-0.1-0.5-0.4-0.8-1-0.8c-1,0-1.4,0.9-1.4,2.3c0.2-0.4,0.6-0.9,1.4-0.9c1.1,0,1.6,0.8,1.6,1.8
				c0,1-0.5,1.9-1.7,1.9c-1.4,0-1.8-1.2-1.8-2.7c0-1.5,0.5-2.8,1.8-2.8c1,0,1.4,0.7,1.4,1.2H169.7z M169.8,64.1
				c0-0.7-0.3-1.4-1.2-1.4c-0.7,0-1.3,0.5-1.3,1.4c0,0.4,0.2,1.5,1.3,1.5C169.5,65.6,169.8,64.9,169.8,64.1z"/>
		</g>
		<g class="st4">
			<path class="st6" d="M171,66.8c0.4-0.8,0.5-1.5,0.6-1.9h0.4c-0.1,0.7-0.3,1.5-0.6,1.9H171z"/>
		</g>
		<g class="st4">
			<path class="st6" d="M175.6,65.9v-1.5h-2.5V64l2.5-3.4h0.4V64h0.7l-0.1,0.4H176v1.5H175.6z M175.6,62.4c0-0.3,0-1,0-1.3
				c-0.2,0.4-1.5,2.1-2.1,2.9h2.1V62.4z"/>
		</g>
		<g class="st4">
			<path class="st6" d="M181,61h-2.3c-0.1,0.5-0.2,1.5-0.3,1.8c0.2-0.3,0.6-0.5,1.2-0.5c0.9,0,1.6,0.6,1.6,1.8c0,1-0.5,1.9-1.7,1.9
				c-0.9,0-1.5-0.5-1.7-1.4h0.4c0.1,0.6,0.5,1,1.3,1c0.8,0,1.3-0.6,1.3-1.5c0-0.8-0.3-1.4-1.2-1.4c-0.7,0-1,0.3-1.3,0.8l-0.4-0.1
				c0.2-0.7,0.4-2.2,0.4-2.8h2.7L181,61z"/>
		</g>
		<g class="st4">
			<path class="st6" d="M185.6,60.6V61c-1,1.3-1.9,3.3-2.2,4.9H183c0.3-1.5,1.2-3.6,2.1-4.9h-2.9v-0.4H185.6z"/>
		</g>
		<g class="st4">
			<path class="st6" d="M170,48v-4.8c-0.3,0.2-0.9,0.5-1.2,0.6v-0.4c0.3-0.1,0.9-0.4,1.3-0.8h0.3V48H170z"/>
		</g>
		<g class="st4">
			<path class="st6" d="M172.6,46.9c0.2,0.5,0.5,0.8,1.1,0.8c1.2,0,1.3-1.7,1.3-2.4c-0.3,0.5-0.8,0.8-1.4,0.8
				c-0.9,0-1.6-0.7-1.6-1.7c0-0.9,0.6-1.7,1.7-1.7c1.2,0,1.7,1,1.7,2.4c0,1.3-0.2,3-1.8,3c-0.9,0-1.4-0.5-1.5-1.1H172.6z
				 M172.5,44.3c0,0.8,0.4,1.3,1.1,1.3c0.9,0,1.3-0.5,1.3-1.3c0-0.3-0.1-1.4-1.2-1.4C172.8,43,172.5,43.6,172.5,44.3z"/>
			<path class="st6" d="M179.4,43.8c-0.1-0.5-0.4-0.8-1-0.8c-1,0-1.4,0.9-1.4,2.3c0.2-0.4,0.6-0.9,1.4-0.9c1.1,0,1.6,0.8,1.6,1.8
				c0,1-0.5,1.9-1.7,1.9c-1.4,0-1.8-1.2-1.8-2.7c0-1.5,0.5-2.8,1.8-2.8c1,0,1.4,0.7,1.4,1.2H179.4z M179.6,46.2
				c0-0.7-0.3-1.4-1.2-1.4c-0.7,0-1.3,0.5-1.3,1.4c0,0.4,0.2,1.5,1.3,1.5C179.3,47.7,179.6,47,179.6,46.2z"/>
		</g>
		<g class="st4">
			<path class="st6" d="M204.7,65.9L204.7,65.9c0-0.7,0.6-1.5,1.6-2.3c0.9-0.7,1.2-0.9,1.2-1.6c0-0.6-0.3-1.1-1.1-1.1
				c-0.7,0-1.1,0.3-1.2,1.1h-0.4c0.1-0.9,0.7-1.5,1.6-1.5c1.1,0,1.5,0.7,1.5,1.4c0,0.8-0.3,1.1-1.3,1.9c-0.8,0.6-1.3,1.1-1.4,1.7h3
				l-0.1,0.4H204.7z"/>
		</g>
		<g class="st4">
			<path class="st6" d="M212.4,61h-2.3c-0.1,0.5-0.2,1.5-0.3,1.8c0.2-0.3,0.6-0.5,1.2-0.5c0.9,0,1.6,0.6,1.6,1.8
				c0,1-0.5,1.9-1.7,1.9c-0.9,0-1.5-0.5-1.7-1.4h0.4c0.1,0.6,0.5,1,1.3,1c0.8,0,1.3-0.6,1.3-1.5c0-0.8-0.3-1.4-1.2-1.4
				c-0.7,0-1,0.3-1.3,0.8l-0.4-0.1c0.2-0.7,0.4-2.2,0.4-2.8h2.7L212.4,61z"/>
		</g>
		<g class="st4">
			<path class="st6" d="M204.6,48L204.6,48c0-0.7,0.6-1.5,1.6-2.3c0.9-0.7,1.1-0.9,1.1-1.6c0-0.6-0.3-1.1-1.1-1.1
				c-0.7,0-1.1,0.3-1.2,1.1h-0.4c0.1-0.9,0.7-1.5,1.6-1.5c1.1,0,1.5,0.7,1.5,1.4c0,0.8-0.3,1.1-1.3,1.9c-0.8,0.6-1.3,1.1-1.4,1.7h3
				l-0.1,0.4H204.6z"/>
		</g>
		<g class="st4">
			<path class="st6" d="M212.2,43.1H210c-0.1,0.5-0.2,1.5-0.3,1.8c0.2-0.3,0.6-0.5,1.2-0.5c0.9,0,1.6,0.6,1.6,1.8
				c0,1-0.5,1.9-1.7,1.9c-0.9,0-1.5-0.5-1.7-1.4h0.4c0.1,0.6,0.5,1,1.3,1c0.8,0,1.3-0.6,1.3-1.5c0-0.8-0.3-1.4-1.2-1.4
				c-0.7,0-1,0.3-1.3,0.8l-0.4-0.1c0.2-0.7,0.4-2.2,0.4-2.8h2.7L212.2,43.1z"/>
		</g>
		<g class="st4">
			<path class="st6" d="M238.9,65.9L238.9,65.9c0-0.7,0.6-1.5,1.6-2.3c0.9-0.7,1.2-0.9,1.2-1.6c0-0.6-0.3-1.1-1.1-1.1
				c-0.7,0-1.1,0.3-1.2,1.1h-0.4c0.1-0.9,0.7-1.5,1.6-1.5c1.1,0,1.5,0.7,1.5,1.4c0,0.8-0.3,1.1-1.3,1.9c-0.8,0.6-1.3,1.1-1.4,1.7h3
				l-0.1,0.4H238.9z"/>
		</g>
		<g class="st4">
			<path class="st6" d="M243.4,64.4c0-0.8,0.5-1.2,1-1.4c-0.5-0.2-0.8-0.6-0.8-1.1c0-0.8,0.5-1.4,1.5-1.4c0.9,0,1.5,0.6,1.5,1.4
				c0,0.5-0.3,1-0.8,1.1c0.6,0.2,1,0.7,1,1.4c0,1-0.7,1.6-1.8,1.6C244.1,66,243.4,65.3,243.4,64.4z M246.4,64.4
				c0-0.8-0.5-1.2-1.3-1.2c-0.9,0-1.3,0.5-1.3,1.2c0,0.7,0.5,1.2,1.3,1.2C245.9,65.6,246.4,65.2,246.4,64.4z M244.1,61.8
				c0,0.5,0.3,1,1.1,1c0.7,0,1-0.4,1-0.9c0-0.5-0.3-1-1.1-1C244.4,60.9,244.1,61.3,244.1,61.8z"/>
		</g>
		<g class="st4">
			<path class="st6" d="M238.9,48L238.9,48c0-0.7,0.6-1.5,1.6-2.3c0.9-0.7,1.1-0.9,1.1-1.6c0-0.6-0.3-1.1-1.1-1.1
				c-0.7,0-1.1,0.3-1.2,1.1h-0.4c0.1-0.9,0.7-1.5,1.6-1.5c1.1,0,1.5,0.7,1.5,1.4c0,0.8-0.3,1.1-1.3,1.9c-0.8,0.6-1.3,1.1-1.4,1.7h3
				l-0.1,0.4H238.9z"/>
		</g>
		<g class="st4">
			<path class="st6" d="M246.5,43.1h-2.3c-0.1,0.5-0.2,1.5-0.3,1.8c0.2-0.3,0.6-0.5,1.2-0.5c0.9,0,1.6,0.6,1.6,1.8
				c0,1-0.5,1.9-1.7,1.9c-0.9,0-1.5-0.5-1.7-1.4h0.4c0.1,0.6,0.5,1,1.3,1c0.8,0,1.3-0.6,1.3-1.5c0-0.8-0.3-1.4-1.2-1.4
				c-0.7,0-1,0.3-1.3,0.8l-0.4-0.1c0.2-0.7,0.4-2.2,0.4-2.8h2.7L246.5,43.1z"/>
		</g>
		<line class="st3" x1="123.1" y1="9.8" x2="123.1" y2="35.9"/>
		<line class="st3" x1="191.4" y1="9.8" x2="191.6" y2="35.9"/>
		<g class="st4">
			<path class="st5" d="M75.9,15.8h-2.6v-0.4h2.6V15.8z M75.6,16.7h-2.1v-0.4h2.1V16.7z M73.6,17.3h2.1v0.4h-2.1V17.3z M74,20.3v0.3
				h-0.4v-2.4h2.1v2.1H74z M74,18.6v1.3h1.3v-1.3H74z M74.6,15.3c-0.1-0.3-0.3-0.7-0.5-1l0.4-0.2c0.2,0.3,0.4,0.7,0.6,0.9L74.6,15.3
				z M76.6,14.3H77v2.5c0,1.4-0.1,2.8-1,3.9c-0.1-0.1-0.3-0.2-0.4-0.3c0.8-1.1,0.9-2.3,0.9-3.7V14.3z M77.8,14.6h0.4V20h-0.4V14.6z
				 M79.6,14.3v6.5h-0.5v-6.5H79.6z"/>
			<path class="st5" d="M81.8,18.8c-0.1,0.7-0.2,1.4-0.4,1.8c-0.1,0-0.3-0.1-0.4-0.1c0.2-0.5,0.3-1.1,0.4-1.8L81.8,18.8z M83.3,18.5
				c0-0.1-0.1-0.3-0.1-0.5c-1.6,0.2-1.8,0.3-1.9,0.4c0-0.1-0.1-0.3-0.2-0.4c0.1,0,0.3-0.2,0.5-0.5c0.1-0.1,0.4-0.5,0.6-0.9
				c-0.8,0.1-1,0.1-1.1,0.2c0-0.1-0.1-0.3-0.1-0.4c0.1,0,0.2-0.2,0.4-0.4c0.2-0.2,0.7-1,1-1.8l0.4,0.2c-0.3,0.7-0.7,1.4-1.1,2
				l0.8-0.1c0.2-0.3,0.4-0.6,0.5-1l0.4,0.2c-0.5,0.8-1,1.7-1.6,2.4l1.2-0.2C83,17.5,83,17.2,82.9,17l0.4-0.1
				c0.2,0.5,0.4,1.2,0.4,1.5L83.3,18.5z M82.5,18.7c0.1,0.5,0.2,1.2,0.2,1.6l-0.4,0.1c0-0.5-0.1-1.1-0.2-1.6L82.5,18.7z M83.2,18.6
				c0.2,0.4,0.3,1,0.4,1.4L83.2,20c-0.1-0.4-0.2-0.9-0.4-1.4L83.2,18.6z M86.2,18.3c0.4,0.6,1,1.3,1.5,1.7c-0.1,0.1-0.2,0.2-0.3,0.3
				c-0.5-0.4-1.1-1.1-1.5-1.8v2.3h-0.5v-2.1c-0.4,0.7-1,1.4-1.5,1.8c-0.1-0.1-0.2-0.3-0.3-0.4c0.6-0.3,1.2-1,1.5-1.7h-1.2V16h1.5
				v-0.6h-1.7v-0.4h1.7v-0.8h0.5v0.8h1.7v0.4h-1.7V16h1.5v2.3H86.2z M84.3,17.9h1.1v-1.5h-1.1V17.9z M84.9,16.6
				c0.2,0.3,0.3,0.7,0.4,1l-0.3,0.1c0-0.3-0.2-0.7-0.4-1L84.9,16.6z M87,16.4h-1.1v1.5H87V16.4z M86.1,17.6c0.1-0.3,0.3-0.8,0.4-1
				l0.3,0.1c-0.1,0.4-0.3,0.8-0.5,1L86.1,17.6z"/>
			<path class="st5" d="M92.5,14.2c0,0.3,0,0.6-0.1,1c0.1,0.8,0.5,3.9,3.1,5.1c-0.1,0.1-0.3,0.3-0.3,0.4c-1.9-0.9-2.6-2.7-3-4.1
				c-0.3,1.5-1.1,3.2-2.9,4.1c-0.1-0.1-0.2-0.3-0.4-0.4c3-1.5,3-5.1,3-6.2H92.5z"/>
			<path class="st5" d="M99.9,18.9c-0.1,0.3-0.2,0.7-0.6,1c0.3,0.1,0.6,0.3,0.8,0.4l-0.3,0.3c-0.2-0.2-0.5-0.3-0.9-0.5
				c-0.5,0.2-1.1,0.5-2,0.6c0-0.1-0.1-0.2-0.2-0.3c0.8-0.1,1.4-0.3,1.8-0.5c-0.4-0.2-0.8-0.3-1.1-0.4c0.1-0.1,0.2-0.3,0.4-0.5
				l-0.9,0.1l-0.1-0.4c0.3,0,0.7,0,1.2-0.1c0.1-0.2,0.2-0.4,0.3-0.6h-1.2v-1.2h1.4v-0.3h-1.2v-0.8h-0.5v-0.4h0.5v-0.7h1.2v-0.5h0.4
				v0.5h1.2v0.7h0.5v0.4h-0.5v0.8h-1.2v0.3h1.4V18h-1.5c-0.1,0.2-0.2,0.4-0.3,0.6l1.1-0.1c0,0,0-0.1,0-0.1v-0.3h0.4v0.3v0.1l0.4,0
				l0,0.3L99.9,18.9z M97.5,17.7h1v-0.5h-1V17.7z M97.7,15v0.4h0.8V15H97.7z M98.4,16.2v-0.5h-0.8v0.5H98.4z M98.2,19
				c-0.1,0.1-0.2,0.2-0.2,0.3c0.3,0.1,0.6,0.2,0.9,0.4c0.4-0.2,0.5-0.5,0.6-0.8L98.2,19z M98.8,15v0.4h0.8V15H98.8z M99.6,16.2v-0.5
				h-0.8v0.5H99.6z M98.8,17.2v0.5h1v-0.5H98.8z M102.8,16c-0.1,1.1-0.3,2-0.7,2.8c0.3,0.7,0.7,1.2,1.2,1.5
				c-0.1,0.1-0.2,0.2-0.3,0.3c-0.5-0.3-0.9-0.8-1.2-1.4c-0.3,0.6-0.7,1.1-1.3,1.5c0-0.1-0.2-0.3-0.3-0.4c0.6-0.4,1-1,1.4-1.7
				c-0.2-0.6-0.4-1.3-0.5-2c-0.1,0.3-0.3,0.6-0.4,0.9c-0.1-0.1-0.2-0.2-0.3-0.3c0.5-0.8,0.8-1.9,0.9-3.1l0.4,0.1
				c-0.1,0.4-0.1,0.9-0.2,1.3h1.8V16H102.8z M101.4,16c0.1,0.8,0.3,1.6,0.5,2.2c0.2-0.6,0.4-1.4,0.4-2.2H101.4z"/>
		</g>
		<g class="st4">
			<path class="st5" d="M22.4,23.8c-0.9,0.3-1.9,0.7-2.6,0.9l-0.2-0.5c0.3-0.1,0.7-0.2,1.1-0.4v-3.1h-1v-0.4h2.4v0.4h-1v2.9
				c0.4-0.1,0.7-0.2,1.1-0.4L22.4,23.8z M23.8,25.1c-0.5,0.4-1.2,0.7-1.8,0.9c-0.1-0.1-0.2-0.2-0.3-0.3c0.6-0.2,1.4-0.5,1.7-0.9
				L23.8,25.1z M23.8,21c0.1-0.2,0.1-0.5,0.2-0.8h-1.7v-0.4h4.1v0.4h-1.8c-0.1,0.3-0.2,0.5-0.2,0.8H26v3.7h-3.4V21H23.8z M25.5,21.4
				H23v0.7h2.5V21.4z M25.5,22.5H23v0.7h2.5V22.5z M25.5,23.6H23v0.8h2.5V23.6z M24.9,24.9c0.5,0.2,1.1,0.6,1.5,0.9L26,26.1
				c-0.3-0.3-0.9-0.7-1.4-0.9L24.9,24.9z"/>
			<path class="st5" d="M33.2,19.9V26h-0.5v-0.5h-3.9V26h-0.5v-6.1H33.2z M28.8,20.4v1.2h3.9v-1.2H28.8z M28.8,22.1v1.3h3.9v-1.3
				H28.8z M32.7,25.1v-1.3h-3.9v1.3H32.7z"/>
		</g>
		<g class="st4">
			<path class="st5" d="M144.7,15.8h-2.6v-0.4h2.6V15.8z M144.4,16.7h-2.1v-0.4h2.1V16.7z M142.4,17.3h2.1v0.4h-2.1V17.3z
				 M142.8,20.3v0.3h-0.4v-2.4h2.1v2.1H142.8z M142.8,18.6v1.3h1.3v-1.3H142.8z M143.4,15.3c-0.1-0.3-0.3-0.7-0.5-1l0.4-0.2
				c0.2,0.3,0.4,0.7,0.6,0.9L143.4,15.3z M145.4,14.3h0.5v2.5c0,1.4-0.1,2.8-1,3.9c-0.1-0.1-0.3-0.2-0.4-0.3
				c0.8-1.1,0.9-2.3,0.9-3.7V14.3z M146.6,14.6h0.4V20h-0.4V14.6z M148.4,14.3v6.5h-0.5v-6.5H148.4z"/>
			<path class="st5" d="M150.6,18.8c-0.1,0.7-0.2,1.4-0.4,1.8c-0.1,0-0.3-0.1-0.4-0.1c0.2-0.5,0.3-1.1,0.4-1.8L150.6,18.8z
				 M152.1,18.5c0-0.1-0.1-0.3-0.1-0.5c-1.6,0.2-1.8,0.3-1.9,0.4c0-0.1-0.1-0.3-0.2-0.4c0.1,0,0.3-0.2,0.5-0.5
				c0.1-0.1,0.4-0.5,0.6-0.9c-0.8,0.1-1,0.1-1.1,0.2c0-0.1-0.1-0.3-0.1-0.4c0.1,0,0.2-0.2,0.4-0.4c0.2-0.2,0.7-1,1-1.8l0.4,0.2
				c-0.3,0.7-0.7,1.4-1.1,2l0.8-0.1c0.2-0.3,0.4-0.6,0.5-1l0.4,0.2c-0.5,0.8-1,1.7-1.6,2.4l1.2-0.2c-0.1-0.3-0.1-0.5-0.2-0.7
				l0.4-0.1c0.2,0.5,0.4,1.2,0.4,1.5L152.1,18.5z M151.3,18.7c0.1,0.5,0.2,1.2,0.2,1.6l-0.4,0.1c0-0.5-0.1-1.1-0.2-1.6L151.3,18.7z
				 M152,18.6c0.2,0.4,0.3,1,0.4,1.4L152,20c-0.1-0.4-0.2-0.9-0.4-1.4L152,18.6z M154.9,18.3c0.4,0.6,1,1.3,1.5,1.7
				c-0.1,0.1-0.2,0.2-0.3,0.3c-0.5-0.4-1.1-1.1-1.5-1.8v2.3h-0.5v-2.1c-0.4,0.7-1,1.4-1.5,1.8c-0.1-0.1-0.2-0.3-0.3-0.4
				c0.6-0.3,1.2-1,1.5-1.7h-1.2V16h1.5v-0.6h-1.7v-0.4h1.7v-0.8h0.5v0.8h1.7v0.4h-1.7V16h1.5v2.3H154.9z M153.1,17.9h1.2v-1.5h-1.2
				V17.9z M153.6,16.6c0.2,0.3,0.3,0.7,0.4,1l-0.3,0.1c0-0.3-0.2-0.7-0.4-1L153.6,16.6z M155.8,16.4h-1.1v1.5h1.1V16.4z M154.9,17.6
				c0.1-0.3,0.3-0.8,0.4-1l0.3,0.1c-0.1,0.4-0.3,0.8-0.5,1L154.9,17.6z"/>
			<path class="st5" d="M160,19.3h-1.6v0.6h-0.5v-5.3h2V19.3z M158.4,15.1v1.7h1.1v-1.7H158.4z M159.5,18.9v-1.7h-1.1v1.7H159.5z
				 M162.4,15.5v1h1.6v0.4h-0.7v0.8h0.9v0.4h-0.9v2c0,0.3-0.1,0.4-0.3,0.5c-0.2,0.1-0.6,0.1-1.2,0.1c0-0.1-0.1-0.3-0.2-0.5
				c0.5,0,0.9,0,1,0c0.1,0,0.2,0,0.2-0.1v-2h-2.8v-0.4h2.8v-0.8h-2.5v-0.4h1.5v-1h-1.8V15h1.8v-0.9h0.5V15h1.8v0.4H162.4z M161,18.4
				c0.4,0.4,0.8,0.9,0.9,1.2l-0.4,0.3c-0.2-0.3-0.6-0.9-0.9-1.3L161,18.4z"/>
			<path class="st5" d="M168.7,18.9c-0.1,0.3-0.2,0.7-0.6,1c0.3,0.1,0.6,0.3,0.8,0.4l-0.3,0.3c-0.2-0.2-0.5-0.3-0.9-0.5
				c-0.5,0.2-1.1,0.5-2,0.6c0-0.1-0.1-0.2-0.2-0.3c0.8-0.1,1.4-0.3,1.8-0.5c-0.4-0.2-0.8-0.3-1.1-0.4c0.1-0.1,0.2-0.3,0.4-0.5
				l-0.9,0.1l-0.1-0.4c0.3,0,0.7,0,1.2-0.1c0.1-0.2,0.2-0.4,0.3-0.6h-1.2v-1.2h1.4v-0.3H166v-0.8h-0.5v-0.4h0.5v-0.7h1.2v-0.5h0.4
				v0.5h1.2v0.7h0.5v0.4h-0.5v0.8h-1.2v0.3h1.4V18h-1.5c-0.1,0.2-0.2,0.4-0.3,0.6l1.1-0.1c0,0,0-0.1,0-0.1v-0.3h0.4v0.3v0.1l0.4,0
				l0,0.3L168.7,18.9z M166.3,17.7h1v-0.5h-1V17.7z M166.5,15v0.4h0.8V15H166.5z M167.2,16.2v-0.5h-0.8v0.5H167.2z M166.9,19
				c-0.1,0.1-0.2,0.2-0.2,0.3c0.3,0.1,0.6,0.2,0.9,0.4c0.4-0.2,0.5-0.5,0.6-0.8L166.9,19z M167.6,15v0.4h0.8V15H167.6z M168.4,16.2
				v-0.5h-0.8v0.5H168.4z M167.6,17.2v0.5h1v-0.5H167.6z M171.5,16c-0.1,1.1-0.3,2-0.7,2.8c0.3,0.7,0.7,1.2,1.2,1.5
				c-0.1,0.1-0.2,0.2-0.3,0.3c-0.5-0.3-0.9-0.8-1.2-1.4c-0.3,0.6-0.7,1.1-1.3,1.5c0-0.1-0.2-0.3-0.3-0.4c0.6-0.4,1-1,1.4-1.7
				c-0.2-0.6-0.4-1.3-0.5-2c-0.1,0.3-0.3,0.6-0.4,0.9c-0.1-0.1-0.2-0.2-0.3-0.3c0.5-0.8,0.8-1.9,0.9-3.1l0.4,0.1
				c-0.1,0.4-0.1,0.9-0.2,1.3h1.8V16H171.5z M170.1,16c0.1,0.8,0.3,1.6,0.5,2.2c0.2-0.6,0.4-1.4,0.4-2.2H170.1z"/>
		</g>
		<g class="st4">
			<path class="st5" d="M209.2,18.2h-3v2.6h-0.5v-2.6h-3v-0.5h3v-2.6h-2.6v-0.5h5.7v0.5h-2.6v2.6h3V18.2z M204.1,15.5
				c0.3,0.5,0.6,1.2,0.7,1.7l-0.5,0.2c-0.1-0.4-0.4-1.1-0.7-1.7L204.1,15.5z M207.1,17.2c0.3-0.5,0.6-1.2,0.8-1.7l0.5,0.2
				c-0.3,0.6-0.6,1.3-0.9,1.7L207.1,17.2z"/>
			<path class="st5" d="M212.8,18.1l0.1,0.4c-0.8,0.4-1.6,0.7-2.2,1l-0.2-0.5c0.3-0.1,0.6-0.2,1-0.4v-2.3h-0.9v-0.5h0.9v-1.7h0.4
				v1.7h0.8v0.5h-0.8v2.1L212.8,18.1z M217,15.3c0,0,0,0.2,0,0.3c-0.1,3.4-0.2,4.5-0.5,4.9c-0.2,0.2-0.3,0.3-0.6,0.3
				c-0.2,0-0.7,0-1,0c0-0.1-0.1-0.3-0.2-0.5c0.5,0,0.9,0,1,0c0.1,0,0.2,0,0.3-0.1c0.2-0.2,0.3-1.4,0.4-4.4H214
				c-0.2,0.5-0.5,0.9-0.7,1.2c-0.1-0.1-0.3-0.2-0.4-0.3c0.5-0.6,1-1.6,1.2-2.6l0.4,0.1c-0.1,0.4-0.2,0.7-0.4,1.1H217z M213.7,18.5
				h2.3v0.4h-2.3V18.5z M215.9,16.9v0.4H214v-0.4H215.9z"/>
			<path class="st5" d="M220.9,15.8h-2.6v-0.4h2.6V15.8z M220.7,16.7h-2.1v-0.4h2.1V16.7z M218.6,17.3h2.1v0.4h-2.1V17.3z M219,20.3
				v0.3h-0.4v-2.4h2.1v2.1H219z M219,18.6v1.3h1.3v-1.3H219z M219.7,15.3c-0.1-0.3-0.3-0.7-0.5-1l0.4-0.2c0.2,0.3,0.4,0.7,0.6,0.9
				L219.7,15.3z M221.6,14.3h0.5v2.5c0,1.4-0.1,2.8-1,3.9c-0.1-0.1-0.3-0.2-0.4-0.3c0.8-1.1,0.9-2.3,0.9-3.7V14.3z M222.9,14.6h0.4
				V20h-0.4V14.6z M224.7,14.3v6.5h-0.5v-6.5H224.7z"/>
			<path class="st5" d="M226.9,18.8c-0.1,0.7-0.2,1.4-0.4,1.8c-0.1,0-0.3-0.1-0.4-0.1c0.2-0.5,0.3-1.1,0.4-1.8L226.9,18.8z
				 M228.3,18.5c0-0.1-0.1-0.3-0.1-0.5c-1.6,0.2-1.8,0.3-1.9,0.4c0-0.1-0.1-0.3-0.2-0.4c0.1,0,0.3-0.2,0.5-0.5
				c0.1-0.1,0.4-0.5,0.6-0.9c-0.8,0.1-1,0.1-1.1,0.2c0-0.1-0.1-0.3-0.1-0.4c0.1,0,0.2-0.2,0.4-0.4c0.2-0.2,0.7-1,1-1.8l0.4,0.2
				c-0.3,0.7-0.7,1.4-1.1,2l0.8-0.1c0.2-0.3,0.4-0.6,0.5-1l0.4,0.2c-0.5,0.8-1,1.7-1.6,2.4l1.2-0.2c-0.1-0.3-0.1-0.5-0.2-0.7
				l0.4-0.1c0.2,0.5,0.4,1.2,0.4,1.5L228.3,18.5z M227.6,18.7c0.1,0.5,0.2,1.2,0.2,1.6l-0.4,0.1c0-0.5-0.1-1.1-0.2-1.6L227.6,18.7z
				 M228.2,18.6c0.2,0.4,0.3,1,0.4,1.4l-0.4,0.1c-0.1-0.4-0.2-0.9-0.4-1.4L228.2,18.6z M231.2,18.3c0.4,0.6,1,1.3,1.5,1.7
				c-0.1,0.1-0.2,0.2-0.3,0.3c-0.5-0.4-1.1-1.1-1.5-1.8v2.3h-0.5v-2.1c-0.4,0.7-1,1.4-1.5,1.8c-0.1-0.1-0.2-0.3-0.3-0.4
				c0.6-0.3,1.2-1,1.5-1.7H229V16h1.5v-0.6h-1.7v-0.4h1.7v-0.8h0.5v0.8h1.7v0.4h-1.7V16h1.5v2.3H231.2z M229.3,17.9h1.1v-1.5h-1.1
				V17.9z M229.9,16.6c0.2,0.3,0.3,0.7,0.4,1l-0.3,0.1c0-0.3-0.2-0.7-0.4-1L229.9,16.6z M232,16.4h-1.1v1.5h1.1V16.4z M231.2,17.6
				c0.1-0.3,0.3-0.8,0.4-1l0.3,0.1c-0.1,0.4-0.3,0.8-0.5,1L231.2,17.6z"/>
			<path class="st5" d="M236.2,19.3h-1.6v0.6h-0.5v-5.3h2V19.3z M234.7,15.1v1.7h1.1v-1.7H234.7z M235.8,18.9v-1.7h-1.1v1.7H235.8z
				 M238.7,15.5v1h1.6v0.4h-0.7v0.8h0.9v0.4h-0.9v2c0,0.3-0.1,0.4-0.3,0.5c-0.2,0.1-0.6,0.1-1.2,0.1c0-0.1-0.1-0.3-0.2-0.5
				c0.5,0,0.9,0,1,0c0.1,0,0.2,0,0.2-0.1v-2h-2.8v-0.4h2.8v-0.8h-2.5v-0.4h1.5v-1h-1.8V15h1.8v-0.9h0.5V15h1.8v0.4H238.7z
				 M237.3,18.4c0.4,0.4,0.8,0.9,0.9,1.2l-0.4,0.3c-0.2-0.3-0.6-0.9-0.9-1.3L237.3,18.4z"/>
			<path class="st5" d="M245,18.9c-0.1,0.3-0.2,0.7-0.6,1c0.3,0.1,0.6,0.3,0.8,0.4l-0.3,0.3c-0.2-0.2-0.5-0.3-0.9-0.5
				c-0.5,0.2-1.1,0.5-2,0.6c0-0.1-0.1-0.2-0.2-0.3c0.8-0.1,1.4-0.3,1.8-0.5c-0.4-0.2-0.8-0.3-1.2-0.4c0.1-0.1,0.2-0.3,0.4-0.5
				l-0.9,0.1l-0.1-0.4c0.3,0,0.7,0,1.2-0.1c0.1-0.2,0.2-0.4,0.3-0.6h-1.2v-1.2h1.4v-0.3h-1.2v-0.8h-0.5v-0.4h0.5v-0.7h1.2v-0.5h0.4
				v0.5h1.2v0.7h0.5v0.4h-0.5v0.8h-1.2v0.3h1.4V18h-1.5c-0.1,0.2-0.2,0.4-0.3,0.6l1.1-0.1c0,0,0-0.1,0-0.1v-0.3h0.4v0.3v0.1l0.4,0
				l0,0.3L245,18.9z M242.5,17.7h1v-0.5h-1V17.7z M242.7,15v0.4h0.8V15H242.7z M243.5,16.2v-0.5h-0.8v0.5H243.5z M243.2,19
				c-0.1,0.1-0.2,0.2-0.2,0.3c0.3,0.1,0.6,0.2,0.9,0.4c0.4-0.2,0.5-0.5,0.6-0.8L243.2,19z M243.9,15v0.4h0.8V15H243.9z M244.7,16.2
				v-0.5h-0.8v0.5H244.7z M243.9,17.2v0.5h1v-0.5H243.9z M247.8,16c-0.1,1.1-0.3,2-0.7,2.8c0.3,0.7,0.7,1.2,1.2,1.5
				c-0.1,0.1-0.2,0.2-0.3,0.3c-0.5-0.3-0.9-0.8-1.2-1.4c-0.3,0.6-0.7,1.1-1.3,1.5c0-0.1-0.2-0.3-0.3-0.4c0.6-0.4,1-1,1.4-1.7
				c-0.2-0.6-0.4-1.3-0.5-2c-0.1,0.3-0.3,0.6-0.4,0.9c-0.1-0.1-0.2-0.2-0.3-0.3c0.5-0.8,0.8-1.9,0.9-3.1l0.4,0.1
				c-0.1,0.4-0.1,0.9-0.2,1.3h1.8V16H247.8z M246.4,16c0.1,0.8,0.3,1.6,0.5,2.2c0.2-0.6,0.4-1.4,0.4-2.2H246.4z"/>
		</g>
		<line class="st3" x1="54.3" y1="23.9" x2="260.3" y2="24.1"/>
		<g class="st4">
			<path class="st7" d="M226.7,5h-2.5v0.9h-0.4V5h-2.5V4.7h2.5V4.2h-1.9V2h4.2v2.1h-2v0.5h2.5V5z M223.7,1.7h-2V0.5h2V1.7z
				 M223.3,0.8h-1.2v0.6h1.2V0.8z M222.3,2.9h1.5V2.4h-1.5V2.9z M223.7,3.8V3.3h-1.5v0.6H223.7z M225.7,2.4h-1.5v0.6h1.5V2.4z
				 M225.7,3.3h-1.5v0.6h1.5V3.3z M226.3,1.7h-2V0.5h2V1.7z M225.9,0.8h-1.3v0.6h1.3V0.8z"/>
		</g>
		<g class="st4">
			<path class="st7" d="M229.7,0.4c-0.2,0.5-0.4,0.9-0.6,1.3v4.2h-0.4V2.4c-0.2,0.3-0.4,0.6-0.7,0.8c0-0.1-0.2-0.3-0.2-0.4
				c0.6-0.6,1.2-1.5,1.6-2.5L229.7,0.4z M233.4,5.3v0.4h-3.9V5.3h2.2c0.2-0.8,0.5-2.2,0.6-3.1l0.4,0.1c-0.2,1-0.4,2.2-0.7,3H233.4z
				 M233.2,1.8h-3.3V1.4h3.3V1.8z M230.7,5c-0.1-0.7-0.2-1.8-0.4-2.7l0.4-0.1c0.2,0.9,0.4,2,0.5,2.6L230.7,5z M231.4,1.3
				c-0.1-0.3-0.2-0.7-0.3-1l0.4-0.1c0.1,0.3,0.3,0.7,0.3,1L231.4,1.3z"/>
			<path class="st7" d="M233.8,1.6c0-0.3,0.2-0.4,0.4-0.4s0.4,0.2,0.4,0.4c0,0.3-0.2,0.4-0.4,0.4S233.8,1.9,233.8,1.6z M233.8,4.7
				c0-0.3,0.2-0.4,0.4-0.4s0.4,0.2,0.4,0.4s-0.2,0.4-0.4,0.4S233.8,4.9,233.8,4.7z"/>
		</g>
		<g class="st4">
			<path class="st7" d="M241.2,0.3c0,0.2,0,0.5,0,0.9c0.1,0.7,0.5,3.4,2.7,4.3c-0.1,0.1-0.2,0.2-0.3,0.3c-1.6-0.7-2.2-2.3-2.5-3.5
				c-0.3,1.3-0.9,2.7-2.5,3.5c-0.1-0.1-0.2-0.2-0.3-0.3c2.6-1.3,2.6-4.3,2.6-5.3H241.2z"/>
			<path class="st7" d="M246.5,0.5h0.4l-1.9,6h-0.4L246.5,0.5z"/>
			<path class="st7" d="M249.2,1.9c-0.2,0.9-0.6,2-1.1,2.7c-0.1-0.1-0.3-0.2-0.4-0.2c0.6-0.7,0.9-1.7,1.1-2.5L249.2,1.9z M250.8,0.4
				v5c0,0.3-0.1,0.4-0.3,0.5c-0.2,0.1-0.6,0.1-1.2,0.1c0-0.1-0.1-0.3-0.2-0.4c0.5,0,0.9,0,1,0c0.1,0,0.2,0,0.2-0.2v-5H250.8z
				 M252.2,1.8c0.6,0.9,1.1,2,1.2,2.7L253,4.7c-0.2-0.7-0.7-1.9-1.2-2.8L252.2,1.8z"/>
			<path class="st7" d="M256.4,4.7H255v0.5h-0.4V0.7h1.7V4.7z M255,1.1v1.4h1V1.1H255z M256,4.3V2.9h-1v1.5H256z M258.4,1.4v0.8h1.4
				v0.4h-0.6v0.7h0.7v0.4h-0.7v1.7c0,0.2-0.1,0.4-0.2,0.4c-0.2,0.1-0.5,0.1-1,0.1c0-0.1-0.1-0.3-0.1-0.4c0.4,0,0.7,0,0.8,0
				c0.1,0,0.1,0,0.1-0.1V3.7h-2.4V3.3h2.4V2.6h-2.1V2.2h1.3V1.4h-1.6V1h1.6V0.3h0.4V1h1.6v0.4H258.4z M257.2,3.9
				c0.3,0.3,0.7,0.8,0.8,1.1l-0.4,0.2c-0.1-0.3-0.5-0.8-0.8-1.1L257.2,3.9z"/>
		</g>
	</g>
</g>
</svg>
