<svg xmlns="http://www.w3.org/2000/svg" xmlns:xlink="http://www.w3.org/1999/xlink" viewBox="0 0 595.25 402.79"><defs><style>.cls-1,.cls-10,.cls-12,.cls-14,.cls-4,.cls-6,.cls-7,.cls-8,.cls-9{fill:none;}.cls-2{clip-path:url(#clip-path);}.cls-3{fill:#6bd3c0;}.cls-3,.cls-4{stroke:#6bd3c0;}.cls-11,.cls-12,.cls-14,.cls-22,.cls-3,.cls-4,.cls-5,.cls-6,.cls-7{stroke-miterlimit:10;}.cls-3,.cls-4,.cls-6{stroke-width:0.96px;}.cls-5{fill:#6bd076;}.cls-5,.cls-6{stroke:#6bd076;}.cls-7{stroke:#6b9ed0;stroke-width:1.19px;}.cls-10,.cls-11,.cls-8,.cls-9{stroke:#bcbcbc;}.cls-10,.cls-8,.cls-9{stroke-linecap:round;stroke-linejoin:round;}.cls-8{stroke-width:0.5px;}.cls-9{stroke-width:0.46px;}.cls-10{stroke-width:0.43px;}.cls-11,.cls-20{fill:#fff;}.cls-11{stroke-width:0.46px;}.cls-12{stroke:#e0646f;}.cls-12,.cls-14{stroke-width:2px;}.cls-13,.cls-17,.cls-19{font-size:11.43px;letter-spacing:0.08em;}.cls-13{fill:#cc5159;}.cls-13,.cls-17,.cls-18{font-family:NotoSansCJKtc-Medium-B5pc-H, Noto Sans CJK TC;}.cls-14{stroke:#009edf;}.cls-15{font-size:13.22px;letter-spacing:0.08em;}.cls-15,.cls-16{fill:#009edf;}.cls-15,.cls-16,.cls-23{font-family:NotoSansCJKtc-Bold-B5pc-H, Noto Sans CJK TC;}.cls-16,.cls-18,.cls-21,.cls-23{font-size:9px;}.cls-16{letter-spacing:0.08em;}.cls-17,.cls-18{fill:#6b9ed0;}.cls-18,.cls-21,.cls-23{letter-spacing:0.08em;}.cls-19,.cls-21,.cls-24{fill:#4b4949;}.cls-19,.cls-21{font-family:NotoSansCJKtc-Regular-B5pc-H, Noto Sans CJK TC;}.cls-20{font-size:9.88px;font-family:MYingHeiHK-W7, M Ying Hei HK;letter-spacing:0.16em;}.cls-22{fill:#fdf3d6;stroke:#f5c844;}.cls-23{fill:#e08c00;}.cls-24{font-size:7px;font-family:NotoSansCJKtc-DemiLight-B5pc-H, Noto Sans CJK TC;letter-spacing:0.08em;}.cls-25{fill:#49494b;font-size:8px;font-family:AcuminConcept-Light, Acumin Variable Concept;font-weight:300;letter-spacing:0.04em;}.cls-26{letter-spacing:-0.17em;}.cls-27{letter-spacing:-0.17em;}</style><clipPath id="clip-path"><rect class="cls-1" width="595.25" height="402.79"/></clipPath></defs><g id="圖層_2" data-name="圖層 2"><g id="圖層_1-2" data-name="圖層 1"><g class="cls-2"><rect class="cls-3" x="181.91" y="318.96" width="74.91" height="19.62"/><rect class="cls-4" x="181.91" y="332.34" width="74.91" height="32.17"/><rect class="cls-5" x="260.8" y="318.96" width="74.91" height="19.62"/><rect class="cls-6" x="260.8" y="332.34" width="74.91" height="32.17"/><rect class="cls-5" x="341.18" y="318.96" width="74.91" height="19.62"/><rect class="cls-6" x="341.18" y="332.34" width="74.91" height="32.17"/><rect class="cls-7" x="428.43" y="318.96" width="63.44" height="45.56"/><rect class="cls-7" x="508.25" y="318.96" width="63.44" height="45.56"/><rect class="cls-3" x="99.41" y="318.96" width="74.91" height="19.62"/><rect class="cls-4" x="99.41" y="332.34" width="74.91" height="32.17"/><rect class="cls-3" x="16.91" y="318.96" width="74.91" height="19.62"/><rect class="cls-4" x="16.91" y="332.34" width="74.91" height="32.17"/><line class="cls-8" x1="217.47" y1="133.28" x2="217.47" y2="160.24"/><line class="cls-8" x1="217.47" y1="51.13" x2="217.47" y2="82.18"/><polyline class="cls-8" points="55.22 314.84 55.22 299.1 135.51 299.1 539.97 299.1 539.97 314.84"/><line class="cls-8" x1="217.47" y1="287.99" x2="217.47" y2="314.84"/><line class="cls-9" x1="217.47" y1="211.39" x2="217.47" y2="238.01"/><line class="cls-10" x1="162.18" y1="109.5" x2="181.4" y2="109.5"/><line class="cls-10" x1="162.18" y1="265.28" x2="181.4" y2="265.28"/><line class="cls-8" x1="252.28" y1="265.28" x2="271.32" y2="265.28"/><line class="cls-8" x1="253.7" y1="109.5" x2="460.15" y2="109.5"/><line class="cls-8" x1="460.15" y1="101.76" x2="460.15" y2="117.24"/><line class="cls-8" x1="378.63" y1="101.76" x2="378.63" y2="117.24"/><line class="cls-8" x1="296.9" y1="101.76" x2="296.9" y2="117.24"/><line class="cls-8" x1="135.51" y1="314.84" x2="135.51" y2="299.1"/><line class="cls-8" x1="296.9" y1="314.84" x2="296.9" y2="299.1"/><line class="cls-8" x1="378.63" y1="314.84" x2="378.63" y2="299.1"/><line class="cls-8" x1="460.15" y1="314.84" x2="460.15" y2="299.1"/><path class="cls-11" d="M458.8,109.5a1.35,1.35,0,1,0,1.35-1.35A1.34,1.34,0,0,0,458.8,109.5Z"/><path class="cls-11" d="M377.28,109.5a1.35,1.35,0,1,0,1.35-1.35A1.34,1.34,0,0,0,377.28,109.5Z"/><path class="cls-11" d="M295.55,109.5a1.36,1.36,0,1,0,1.35-1.35A1.35,1.35,0,0,0,295.55,109.5Z"/><path class="cls-11" d="M160.83,109.5a1.35,1.35,0,1,0,1.35-1.35A1.34,1.34,0,0,0,160.83,109.5Z"/><path class="cls-11" d="M160.83,265.28a1.35,1.35,0,1,0,1.35-1.35A1.34,1.34,0,0,0,160.83,265.28Z"/><path class="cls-11" d="M134.16,299.1a1.35,1.35,0,1,0,1.35-1.35A1.35,1.35,0,0,0,134.16,299.1Z"/><path class="cls-11" d="M216.11,299.1a1.36,1.36,0,1,0,1.36-1.35A1.36,1.36,0,0,0,216.11,299.1Z"/><path class="cls-11" d="M295.55,299.1a1.36,1.36,0,1,0,1.35-1.35A1.36,1.36,0,0,0,295.55,299.1Z"/><path class="cls-11" d="M377.28,299.1a1.35,1.35,0,1,0,1.35-1.35A1.35,1.35,0,0,0,377.28,299.1Z"/><path class="cls-11" d="M458.8,299.1a1.35,1.35,0,1,0,1.35-1.35A1.36,1.36,0,0,0,458.8,299.1Z"/><path class="cls-11" d="M538.62,299.1a1.35,1.35,0,1,0,1.35-1.35A1.36,1.36,0,0,0,538.62,299.1Z"/><path class="cls-11" d="M270,265.28a1.35,1.35,0,1,0,1.35-1.35A1.34,1.34,0,0,0,270,265.28Z"/><rect class="cls-12" x="190.72" y="10.2" width="54.69" height="38.76" rx="3.74"/><text class="cls-13" transform="translate(199.55 33.69)">股東會</text><rect class="cls-14" x="186.74" y="84.9" width="63.44" height="44.84" rx="4.77"/><text class="cls-15" transform="translate(196.98 112.09)">董事會</text><rect class="cls-14" x="186.74" y="163.01" width="63.44" height="44.84" rx="4.77"/><text class="cls-15" transform="translate(196.98 190.21)">董事長</text><rect class="cls-14" x="186.74" y="240.69" width="63.44" height="44.84" rx="4.77"/><text class="cls-15" transform="translate(196.98 267.88)">總經理</text><rect class="cls-14" x="91.39" y="240.71" width="63.44" height="44.84" rx="4.77"/><text class="cls-16" transform="translate(99.58 261.34)">總機構法令<tspan x="4.86" y="12">遵循主管</tspan></text><text class="cls-17" transform="translate(521.91 346.11)">管理處</text><text class="cls-18" transform="translate(436.28 341.18)">數位暨資訊<tspan x="9.72" y="10.27">科技處</tspan></text><text class="cls-19" transform="translate(29.57 355.47)">銷售本部</text><text class="cls-20" transform="translate(102.91 332.43)">副總經理管轄</text><text class="cls-19" transform="translate(112.28 355.47)">理賠本部</text><text class="cls-20" transform="translate(186.01 332.43)">副總經理管轄</text><text class="cls-20" transform="translate(345.03 332.43)">副總經理管轄</text><text class="cls-19" transform="translate(195.59 355.47)">後勤本部</text><text class="cls-20" transform="translate(270.39 332.43)">本部長管轄</text><text class="cls-21" transform="translate(269.42 355.68)">個人保險本部</text><text class="cls-21" transform="translate(350.18 355.68)">商業保險本部</text><rect class="cls-14" x="278.09" y="240.71" width="63.44" height="44.84" rx="4.77"/><text class="cls-15" transform="translate(289.33 267.9)">風控長</text><rect class="cls-14" x="89.57" y="84.94" width="63.44" height="44.84" rx="4.77"/><text class="cls-15" transform="translate(99.82 112.13)">總稽核</text><rect class="cls-22" x="269.56" y="56.36" width="54.69" height="38.76" rx="4.12"/><text class="cls-23" transform="translate(277.37 72.77)">經營管理<tspan x="4.86" y="12.27">委員會</tspan></text><rect class="cls-22" x="351.29" y="56.36" width="54.69" height="38.76" rx="4.12"/><text class="cls-23" transform="translate(359.09 72.77)">風險管理<tspan x="4.86" y="12.27">委員會</tspan></text><rect class="cls-22" x="432.8" y="56.36" width="54.69" height="38.76" rx="4.12"/><text class="cls-23" transform="translate(450.33 72.77)">審計<tspan x="-4.86" y="12.27">委員會</tspan></text><rect class="cls-22" x="269.56" y="121.09" width="54.69" height="38.76" rx="4.12"/><text class="cls-23" transform="translate(287.09 137.5)">投資<tspan x="-4.86" y="12.27">委員會</tspan></text><rect class="cls-22" x="351.29" y="121.09" width="54.69" height="38.76" rx="4.12"/><text class="cls-23" transform="translate(368.81 137.5)">資訊<tspan x="-4.86" y="12.27">委員會</tspan></text><rect class="cls-22" x="432.8" y="121.09" width="54.69" height="38.76" rx="4.12"/><text class="cls-23" transform="translate(450.33 137.5)">永續<tspan x="-4.86" y="12.27">委員會</tspan></text><text class="cls-20" transform="translate(20.43 332.43)">副總經理管轄</text><text class="cls-24" transform="translate(325.33 384.1)">註<tspan class="cls-25" x="7.56" y="0">1</tspan><tspan class="cls-26" x="8.95" y="0">：</tspan><tspan x="14.76" y="0">商業保險本部之主管2022年時為本部</tspan><tspan class="cls-27" x="138.21" y="0">長，</tspan><tspan x="149.83" y="0">後於2023年時已升格為副總經理</tspan></text></g></g></g></svg>