<svg xmlns="http://www.w3.org/2000/svg" viewBox="0 0 260.81 73.46"><defs><style>.cls-1,.cls-4{fill:none;stroke-miterlimit:10;}.cls-1{stroke:#a27dd7;stroke-width:0.12px;}.cls-2,.cls-3{fill:#bf6dbf;}.cls-3{opacity:0.47;}.cls-4{stroke:#fff;stroke-width:0.5px;}.cls-5,.cls-6{font-size:7.24px;letter-spacing:0.08em;}.cls-5{fill:#fff;}.cls-31,.cls-5,.cls-6{font-family:NotoSansCJKtc-DemiLight-B5pc-H, Noto Sans CJK TC;}.cls-12,.cls-17,.cls-19,.cls-21,.cls-23,.cls-24,.cls-29,.cls-30,.cls-6,.cls-7{fill:#49494b;}.cls-12,.cls-17,.cls-19,.cls-21,.cls-23,.cls-24,.cls-29,.cls-30,.cls-7{font-size:8.04px;font-family:AcuminConcept-Light, Acumin Variable Concept;font-weight:300;}.cls-7{letter-spacing:0.04em;}.cls-23,.cls-8{letter-spacing:0.04em;}.cls-9{letter-spacing:0.03em;}.cls-10{letter-spacing:0.04em;}.cls-11{letter-spacing:0.05em;}.cls-12{letter-spacing:0.02em;}.cls-13{letter-spacing:0.03em;}.cls-14{letter-spacing:0.06em;}.cls-15{letter-spacing:0.03em;}.cls-16{letter-spacing:0.04em;}.cls-17,.cls-20{letter-spacing:0.04em;}.cls-18{letter-spacing:0.04em;}.cls-19{letter-spacing:0.03em;}.cls-21{letter-spacing:0.05em;}.cls-22{letter-spacing:0.04em;}.cls-24{letter-spacing:0.05em;}.cls-25{letter-spacing:0.04em;}.cls-26{letter-spacing:0.03em;}.cls-27{letter-spacing:0.05em;}.cls-28{letter-spacing:0.05em;}.cls-29{letter-spacing:0.05em;}.cls-30{letter-spacing:0.03em;}.cls-31{font-size:6.19px;fill:#4b4949;letter-spacing:0.08em;}.cls-32{letter-spacing:-0.17em;}</style></defs><g id="圖層_2" data-name="圖層 2"><g id="圖層_1-2" data-name="圖層 1"><rect class="cls-1" x="0.06" y="9.82" width="260.24" height="61.56"/><line class="cls-1" x1="225.81" y1="25.08" x2="225.87" y2="71.38"/><line class="cls-1" x1="0.08" y1="53.63" x2="259.97" y2="53.63"/><rect class="cls-2" x="0.06" y="9.82" width="54.25" height="26.05"/><line class="cls-1" x1="123.14" y1="20.47" x2="123.14" y2="71.38"/><line class="cls-1" x1="54.31" y1="25.08" x2="54.37" y2="71.38"/><line class="cls-1" x1="88.57" y1="25.08" x2="88.63" y2="71.38"/><line class="cls-1" x1="157.35" y1="25.08" x2="157.41" y2="71.38"/><line class="cls-1" x1="191.61" y1="20.47" x2="191.61" y2="71.38"/><rect class="cls-3" x="54.31" y="23.86" width="68.59" height="12.02"/><line class="cls-4" x1="88.6" y1="24.11" x2="88.6" y2="35.87"/><text class="cls-5" transform="translate(67.35 32.47)">男</text><text class="cls-5" transform="translate(101.82 32.47)">女</text><rect class="cls-3" x="123.21" y="23.86" width="68.59" height="12.02"/><line class="cls-4" x1="157.51" y1="24.11" x2="157.51" y2="35.87"/><text class="cls-5" transform="translate(136.25 32.47)">男</text><text class="cls-5" transform="translate(170.73 32.47)">女</text><rect class="cls-3" x="191.75" y="23.86" width="68.59" height="12.02"/><line class="cls-4" x1="226.04" y1="24.11" x2="226.04" y2="35.87"/><text class="cls-5" transform="translate(204.79 32.47)">男</text><text class="cls-5" transform="translate(239.26 32.47)">女</text><rect class="cls-2" x="54.31" y="9.87" width="206" height="14.24"/><line class="cls-4" x1="54.37" y1="9.82" x2="54.37" y2="35.87"/><text class="cls-6" transform="translate(15.46 48)">經理人</text><text class="cls-6" transform="translate(11.55 65.88)">非經理人</text><text class="cls-7" transform="translate(129.09 65.88)">1<tspan class="cls-8" x="3.18" y="0">4</tspan><tspan class="cls-9" x="7.76" y="0">,</tspan><tspan class="cls-10" x="9.5" y="0">6</tspan><tspan class="cls-11" x="14.17" y="0">5</tspan><tspan class="cls-8" x="18.87" y="0">6</tspan></text><text class="cls-12" transform="translate(132.25 48)">1<tspan class="cls-13" x="3.01" y="0">,</tspan><tspan class="cls-14" x="4.75" y="0">6</tspan><tspan class="cls-15" x="9.55" y="0">4</tspan><tspan class="cls-16" x="14.05" y="0">1</tspan></text><text class="cls-17" transform="translate(64.33 65.88)">5<tspan class="cls-18" x="4.63" y="0">9</tspan><tspan x="9.21" y="0">2</tspan></text><text class="cls-19" transform="translate(66.56 48)">6<tspan class="cls-20" x="4.59" y="0">7</tspan></text><text class="cls-21" transform="translate(99.95 65.88)">5<tspan class="cls-22" x="4.74" y="0">8</tspan><tspan class="cls-18" x="9.4" y="0">9</tspan></text><text class="cls-23" transform="translate(104.61 48)">8</text><text class="cls-24" transform="translate(163.16 65.88)">1<tspan class="cls-25" x="3.23" y="0">6</tspan><tspan class="cls-26" x="7.86" y="0">,</tspan><tspan class="cls-27" x="9.59" y="0">4</tspan><tspan class="cls-28" x="14.25" y="0">5</tspan><tspan class="cls-20" x="18.96" y="0">7</tspan></text><text class="cls-29" transform="translate(168.46 48)">1<tspan class="cls-8" x="3.2" y="0">96</tspan></text><text class="cls-30" transform="translate(204.34 65.88)">2<tspan class="cls-20" x="4.41" y="0">5</tspan></text><text class="cls-30" transform="translate(204.2 48)">2<tspan class="cls-20" x="4.41" y="0">5</tspan></text><text class="cls-7" transform="translate(238.52 65.88)">2<tspan class="cls-8" x="4.49" y="0">8</tspan></text><text class="cls-30" transform="translate(238.48 48)">2<tspan class="cls-20" x="4.41" y="0">5</tspan></text><line class="cls-4" x1="123.14" y1="9.82" x2="123.08" y2="35.87"/><line class="cls-4" x1="191.42" y1="9.82" x2="191.55" y2="35.87"/><text class="cls-5" transform="translate(72.96 20.2)">訓練人數</text><text class="cls-5" transform="translate(19.36 25.52)">項目</text><text class="cls-5" transform="translate(141.74 20.2)">訓練時數</text><text class="cls-5" transform="translate(202.39 20.2)">平均訓練時數</text><line class="cls-4" x1="54.31" y1="23.86" x2="260.3" y2="24.11"/><text class="cls-31" transform="translate(220.87 5.45)">單<tspan class="cls-32" x="6.68" y="0">位：</tspan><tspan x="16.96" y="0">人/小時</tspan></text></g></g></svg>