<svg id="圖層_1" data-name="圖層 1" xmlns="http://www.w3.org/2000/svg" viewBox="0 0 257.5 143.6"><defs><style>.cls-1,.cls-2,.cls-3,.cls-5,.cls-6{fill:none;stroke-miterlimit:10;}.cls-1,.cls-2,.cls-3,.cls-5{stroke:#a97adc;}.cls-1{stroke-width:0.13px;}.cls-2{stroke-width:0.11px;}.cls-3{stroke-width:0.12px;}.cls-4{fill:#cd66c3;}.cls-5{stroke-width:0.07px;}.cls-6{stroke:#fff;stroke-width:0.5px;}.cls-7{fill:#49494b;}.cls-8{fill:#fff;}.cls-9{fill:#4c4949;}</style></defs><rect class="cls-1" y="0.03" width="257.12" height="128.07"/><line class="cls-2" x1="64.26" y1="44.21" x2="257.12" y2="44.21"/><line class="cls-3" x1="0.02" y1="70.5" x2="257.12" y2="70.5"/><line class="cls-2" x1="64.26" y1="96.78" x2="257.12" y2="96.78"/><rect class="cls-4" width="64.17" height="14.28"/><line class="cls-5" x1="64.2" y1="10.94" x2="64.2" y2="128.11"/><line class="cls-5" x1="205.72" y1="8.16" x2="205.72" y2="128.11"/><rect class="cls-4" x="64.17" y="0.05" width="192.95" height="14.24"/><line class="cls-6" x1="64.23" x2="64.23" y2="14.28"/><path class="cls-7" d="M10.64,21.82a13.73,13.73,0,0,1-.54,1.52v4.89H9.68v-4a7.29,7.29,0,0,1-.59.92,2.2,2.2,0,0,0-.26-.47,8.94,8.94,0,0,0,1.4-3Zm1.94,1.53h-2V23h2Zm-1.85,2.54h1.78v2.16H12.1v-.32h-1v.44h-.4Zm1.71-1.58H10.82v-.39h1.62Zm-1.62.57h1.62v.39H10.82Zm.8-2.08a3.89,3.89,0,0,0-.5-.83l.3-.19a3.32,3.32,0,0,1,.51.8Zm-.49,3.48v1.07h1V26.28Zm3.15-1.94a9.05,9.05,0,0,1-.61.75H15.3v3.09h-.44v-.27h-1.2v.32h-.42V25.52a6.17,6.17,0,0,1-.57.44,3,3,0,0,0-.3-.34,6,6,0,0,0,1.39-1.28H12.61v-.42h.89v-1h-.75v-.41h.75v-.83h.42v.83h.68v.41h-.68v1h.15a8.6,8.6,0,0,0,1-2l.41.09a9.28,9.28,0,0,1-.91,1.93h1v.42Zm.58,1.15h-1.2v.8h1.2Zm0,2v-.81h-1.2v.81Z"/><path class="cls-7" d="M18.62,21.78a13.38,13.38,0,0,1-.56,1.49v5h-.47v-4a7.82,7.82,0,0,1-.6.9,2.33,2.33,0,0,0-.27-.48,9,9,0,0,0,1.46-3Zm1.55,2.28a4.26,4.26,0,0,1-.46.59H22.9v3.08c0,.22,0,.33-.2.4a1.57,1.57,0,0,1-.69.08,1.43,1.43,0,0,0-.15-.39h.5c.06,0,.08,0,.08-.09v-.59H21.25v.92h-.44v-.92H19.5A2.55,2.55,0,0,1,19,28.26a1.76,1.76,0,0,0-.37-.29A3.24,3.24,0,0,0,19.13,26V25.2a4.13,4.13,0,0,1-.67.45,1.85,1.85,0,0,0-.28-.38,4.42,4.42,0,0,0,1.47-1.21H18.57v-.45h1.3v-.75H18.76v-.44h1.11v-.74h.46v.74H21.6v-.74h.46v.74h1v.44h-1v.75h1.18v.45Zm.64,2.71v-.68H19.59a5.31,5.31,0,0,1,0,.68Zm-1.22-1.05h1.22v-.65H19.59Zm.74-2.11H21.6v-.75H20.33Zm2.11,1.46H21.25v.65h1.19Zm0,1.7v-.68H21.25v.68Z"/><path class="cls-7" d="M29.76,21.67c-.06.16-.14.31-.21.47A6.1,6.1,0,0,0,31.27,24a1.67,1.67,0,0,0-.31.34,7.15,7.15,0,0,1-1.6-1.78,5.68,5.68,0,0,1-1.58,1.79,2.06,2.06,0,0,0-.27-.33v1.91H26.46v.6h1.33v.45H26.46v1.3H26v-1.3H24.6v-.45H26v-.6H24.93V23.51H26v-.59H24.68v-.43H26v-.83h.47v.83h1.27v.43H26.46v.59h1.05v.4a5.42,5.42,0,0,0,1.85-2.37Zm-2.7,2.23h-1.7v.61h1.7Zm0,1h-1.7v.61h1.7Zm2.58,1H31v.44H29.64v1.89h-.48V26.35H27.79v-.44h1.37V24.68H28.09v-.45h2.58v.45h-1Z"/><path class="cls-7" d="M35.75,23.12c-.17.44-.38.94-.56,1.33h1.05v.44H32.49v-.44h2.23A10.13,10.13,0,0,0,35.27,23Zm.33-.16H32.71v-.45h1.52a8.2,8.2,0,0,0-.32-.76l.43-.13a8.76,8.76,0,0,1,.38.89h1.36Zm-3.16,2.62h3v2.55h-.47v-.29h-2v.34h-.46Zm.7-1.17a5.37,5.37,0,0,0-.47-1.27l.42-.11a5.16,5.16,0,0,1,.49,1.26ZM33.38,26V27.4h2V26Zm5.52-3.78c-.26.66-.6,1.48-.91,2.15a2.48,2.48,0,0,1,.82,1.75,1.06,1.06,0,0,1-.32.91.85.85,0,0,1-.44.14,2.56,2.56,0,0,1-.62,0,1.14,1.14,0,0,0-.15-.45,4.15,4.15,0,0,0,.6,0,.66.66,0,0,0,.29-.08.64.64,0,0,0,.19-.58,2.39,2.39,0,0,0-.84-1.65c.28-.63.57-1.4.77-2H37.07v5.75h-.44V22h1.86l.07,0Z"/><path class="cls-7" d="M41.56,26.27q.44-.15.87-.33l.09.45-2.17.88-.15-.5c.26-.08.58-.19.93-.33V23.87h-.88v-.46h.88V21.73h.43v1.68h.84v.46h-.84Zm5.25-1.77v.44H42.37V24.5h2.7A12,12,0,0,0,45.61,23l.45.12c-.16.46-.37,1-.55,1.4Zm-.22-1.59h-4v-.43h1.79a6.68,6.68,0,0,0-.2-.8l.42-.06a4.55,4.55,0,0,1,.25.86h1.69ZM43,25.6h3.22v2.61h-.46v-.3H43.45v.32H43Zm.55-1.21a5.58,5.58,0,0,0-.4-1.27l.38-.11A4.65,4.65,0,0,1,44,24.26ZM43.45,26v1.44h2.31V26Z"/><path class="cls-7" d="M50.63,23.28H48v-.4h2.59Zm-.24.93H48.33v-.39h2.06Zm-2.06.55h2.06v.39H48.33Zm.42,3v.35h-.42V25.72h2.12v2.07Zm0-1.67v1.27H50V26.12Zm.63-3.35a4.38,4.38,0,0,0-.53-.95l.37-.19a6.88,6.88,0,0,1,.56.92Zm2-.93h.45v2.52a6.19,6.19,0,0,1-1,3.92,2.85,2.85,0,0,0-.41-.26,5.63,5.63,0,0,0,.92-3.66Zm1.27.29h.44v5.39h-.44Zm1.79-.35v6.46h-.47V21.78Z"/><path class="cls-7" d="M15.51,99.05H13.76v1.09c0,.26,0,.4-.27.46a4.63,4.63,0,0,1-1.16.07,1.94,1.94,0,0,0-.15-.42h1c.11,0,.15,0,.15-.12V99.05H9v-.4H13.3v-.47c-1.5,0-3,.07-4,.08l0-.39c.73,0,1.69,0,2.73,0v-.42H9.76V95.49H12v-.44H9.2v-.39H12V94.1h.46v.56h2.75v.39H12.46v.44h2.31v1.94h-.93a6.61,6.61,0,0,1,1.39.72l-.29.29a2.54,2.54,0,0,0-.42-.3l-1.19,0h.43v.47h1.75Zm-5,0a6.13,6.13,0,0,1,1.22.9l-.34.32a7,7,0,0,0-1.21-.94Zm-.26-2.78H12v-.47H10.21Zm1.79.79v-.47H10.21v.47Zm.46-1.26v.47H14.3v-.47Zm1.84.79H12.46v.47H14.3Zm-1.84,1.23,1.46,0a5.63,5.63,0,0,0-.6-.23l.18-.16h-1Z"/><path class="cls-7" d="M19.43,99.51a6.68,6.68,0,0,1-2.24.92,1.64,1.64,0,0,0-.29-.36,6.59,6.59,0,0,0,2.17-.74Zm3.79-1V99H20.29v1.73h-.47V99H16.94v-.41h2.88V98h-2.2v-.38h2.2V97H17.25v-.39h1.6a2.84,2.84,0,0,0-.38-.73l.38-.1H17v-.41h1.2a5.69,5.69,0,0,0-.6-1.08l.41-.14a4.56,4.56,0,0,1,.63,1.08l-.37.14h.92v-1.3h.45v1.3h.93v-1.3H21v1.3h.92l-.28-.09a7,7,0,0,0,.58-1.12l.48.14A12.09,12.09,0,0,1,22,95.39h1.15v.41H21.31l.44.12c-.18.25-.35.51-.52.71h1.7V97H20.29v.56h2.28V98H20.29v.58ZM18.93,95.8a3.25,3.25,0,0,1,.4.75l-.28.08h2l-.26-.08a4.51,4.51,0,0,0,.45-.75Zm2.14,3.5c.7.22,1.63.57,2.14.8l-.29.32c-.48-.23-1.42-.6-2.13-.85Z"/><path class="cls-7" d="M28.16,94.11c0,.26,0,.62-.05,1,.1.84.55,3.92,3.1,5.07a1.46,1.46,0,0,0-.35.4,5.87,5.87,0,0,1-3-4.1,5.77,5.77,0,0,1-2.9,4.12,1.92,1.92,0,0,0-.38-.37c3-1.5,3-5.07,3-6.16Z"/><path class="cls-7" d="M38.84,96.05h-2v3.84c0,.36-.1.51-.34.59a4.82,4.82,0,0,1-1.36.09,1.78,1.78,0,0,0-.18-.5c.52,0,1,0,1.16,0s.2,0,.2-.2V96.22a10.9,10.9,0,0,1-3.61,3.57,1.83,1.83,0,0,0-.36-.43,9.56,9.56,0,0,0,3.5-3.31H32.6v-.49h3.74V94.08h.52v1.48h2Z"/><path class="cls-7" d="M44.94,96.69a4.25,4.25,0,0,0,1.92,1.2,1.74,1.74,0,0,0-.31.37,4.52,4.52,0,0,1-2.11-1.57h-1.8a4.69,4.69,0,0,1-1,1h3.68v1.66H42.1v.74l1.24-.3c0,.11,0,.28,0,.37a7.93,7.93,0,0,0-1.83.56,1.5,1.5,0,0,0-.21-.42.44.44,0,0,0,.26-.44V97.71a6.46,6.46,0,0,1-1.09.66,2.72,2.72,0,0,0-.34-.34,5.35,5.35,0,0,0,1.93-1.34H40.34v-.36h2.93v-.41H41.16v-.33h2.11V95.2H40.76v-.35h1.38a6.41,6.41,0,0,0-.4-.61l.42-.15a7.1,7.1,0,0,1,.53.76h1.69a5,5,0,0,0,.44-.77l.5.13c-.15.22-.3.46-.44.64h1.39v.35H43.76v.39h2.11v.33H43.76v.41H46.7v.36ZM42.1,98v.37h2.77V98Zm2.77,1v-.38H42.1V99Zm-2.39-1.69V97h2.07v.3Zm3.88,2a9.66,9.66,0,0,1-1.21.57c.47.16.89.32,1.2.45l-.2.35c-.64-.28-1.9-.74-2.83-1l.19-.3c.38.11.8.24,1.22.39a12.38,12.38,0,0,0,1.32-.68Z"/><path class="cls-7" d="M54.11,96.53A8,8,0,0,1,52.85,99c.27.74.62,1.17,1,1.17.21,0,.3-.38.35-1.34a1.06,1.06,0,0,0,.41.25c-.09,1.21-.27,1.57-.8,1.57s-1-.46-1.33-1.22a6.93,6.93,0,0,1-1.55,1.24,2.52,2.52,0,0,0-.35-.39,6.16,6.16,0,0,0,1.72-1.36,12.61,12.61,0,0,1-.55-3.08H49.18v1H51V97c0,1.63-.08,2.23-.23,2.41a.5.5,0,0,1-.41.2,6.34,6.34,0,0,1-.88,0,1,1,0,0,0-.14-.45c.35,0,.67,0,.8,0a.26.26,0,0,0,.22-.07,5.47,5.47,0,0,0,.17-1.9H49.18v.13a6.15,6.15,0,0,1-.77,3.36,2,2,0,0,0-.39-.32,5.56,5.56,0,0,0,.67-3.05v-2h3c0-.4,0-.82,0-1.24h.5c0,.42,0,.84,0,1.24h2.34v.47H52.25a14,14,0,0,0,.42,2.61,7.81,7.81,0,0,0,1-2Zm-.23-1.23a7.14,7.14,0,0,0-1.3-.86l.28-.3a7.53,7.53,0,0,1,1.32.83Z"/><path class="cls-7" d="M176,57.56a1.49,1.49,0,0,1,1.61-1.32,1.36,1.36,0,0,1,1.53,1.35,1.1,1.1,0,0,1-.72,1.1v0a1.32,1.32,0,0,1,1,1.36,1.61,1.61,0,0,1-1.79,1.66,1.63,1.63,0,0,1-1.75-1.44h.54a1.21,1.21,0,0,0,1.25,1,1.08,1.08,0,0,0,1.17-1.17c0-.78-.5-1.11-1.25-1.11h-.34V58.5h.28c.76,0,1.09-.3,1.09-.9a.87.87,0,0,0-1-.88,1,1,0,0,0-1.06.84Z"/><path class="cls-7" d="M183.87,56.83h-2.25c-.05.48-.2,1.39-.26,1.7a1.44,1.44,0,0,1,1.17-.48,1.55,1.55,0,0,1,1.58,1.75,1.72,1.72,0,0,1-1.76,1.93,1.62,1.62,0,0,1-1.71-1.4h.56a1.14,1.14,0,0,0,1.17.92c.78,0,1.17-.55,1.17-1.41s-.31-1.3-1.09-1.3a1.15,1.15,0,0,0-1.2.75l-.51-.11c.16-.71.35-2.2.43-2.84H184Z"/><path class="cls-7" d="M177.71,31.17V26.53a3.38,3.38,0,0,1-1.15.55v-.46a3.8,3.8,0,0,0,1.27-.78h.44v5.33Z"/><path class="cls-7" d="M180.46,30.06a1,1,0,0,0,1,.72c1.13,0,1.21-1.57,1.24-2.27a1.37,1.37,0,0,1-1.33.7,1.56,1.56,0,0,1-1.58-1.68,1.66,1.66,0,0,1,1.72-1.75c1.25,0,1.74,1,1.74,2.43s-.26,3-1.82,3a1.47,1.47,0,0,1-1.57-1.19Zm-.07-2.54a1.07,1.07,0,0,0,1.09,1.21,1,1,0,0,0,1.16-1.18,1.16,1.16,0,0,0-1.13-1.29C180.72,26.26,180.39,26.82,180.39,27.52Z"/><path class="cls-7" d="M176,114.65v0a3.32,3.32,0,0,1,1.6-2.33c.89-.69,1.12-.9,1.12-1.53a.92.92,0,0,0-1-1c-.68,0-1,.34-1.15,1.05H176a1.59,1.59,0,0,1,1.69-1.53,1.43,1.43,0,0,1,1.58,1.47c0,.81-.34,1.1-1.32,1.88a3.72,3.72,0,0,0-1.34,1.54h2.88l-.09.5Z"/><path class="cls-7" d="M180.54,110.58a1.5,1.5,0,0,1,1.61-1.32,1.36,1.36,0,0,1,1.53,1.35,1.09,1.09,0,0,1-.72,1.1v0a1.31,1.31,0,0,1,1,1.35,1.6,1.6,0,0,1-1.78,1.66,1.63,1.63,0,0,1-1.76-1.43h.55a1.19,1.19,0,0,0,1.24,1,1.09,1.09,0,0,0,1.18-1.18c0-.78-.5-1.11-1.25-1.11h-.35v-.46H182c.76,0,1.09-.31,1.09-.9a.87.87,0,0,0-1-.88,1,1,0,0,0-1.06.84Z"/><path class="cls-7" d="M176,86.83v0a3.32,3.32,0,0,1,1.6-2.34c.89-.68,1.12-.89,1.12-1.53a.93.93,0,0,0-1-1c-.69,0-1,.35-1.15,1.06H176a1.6,1.6,0,0,1,1.69-1.54,1.43,1.43,0,0,1,1.58,1.47c0,.82-.34,1.11-1.32,1.89a3.66,3.66,0,0,0-1.34,1.54h2.88l-.09.49Z"/><path class="cls-7" d="M183.26,82.64a.92.92,0,0,0-1-.73c-1,0-1.29.9-1.32,2.17a1.48,1.48,0,0,1,1.4-.83A1.58,1.58,0,0,1,184,85a1.73,1.73,0,0,1-1.73,1.91c-1.43,0-1.82-1.18-1.82-2.67s.47-2.82,1.88-2.82a1.39,1.39,0,0,1,1.5,1.2Zm.15,2.42c0-.63-.24-1.33-1.12-1.33a1.19,1.19,0,0,0-1.23,1.33c0,.44.23,1.39,1.19,1.39S183.41,85.77,183.41,85.06Z"/><path class="cls-7" d="M67.84,22.55h.57v5.11h3l-.09.51H67.84Z"/><path class="cls-7" d="M72.75,26.23c0,.94.48,1.56,1.21,1.56a1,1,0,0,0,1.08-.7h.55A1.59,1.59,0,0,1,74,28.26c-1.25,0-1.75-1-1.75-2.08S72.79,24,74,24a1.7,1.7,0,0,1,1.69,1.87c0,.12,0,.23,0,.34Zm2.37-.42c0-.74-.39-1.33-1.14-1.33s-1.13.55-1.21,1.33Z"/><path class="cls-7" d="M79.83,27.35a4.63,4.63,0,0,0,.06.82h-.52a2.44,2.44,0,0,1-.07-.58,1.31,1.31,0,0,1-1.29.67A1.21,1.21,0,0,1,76.66,27c0-.9.7-1.31,1.9-1.31h.74v-.38c0-.38-.12-.87-1-.87s-.87.38-1,.71h-.53c.05-.5.36-1.17,1.5-1.17,1,0,1.48.4,1.48,1.3Zm-.53-1.21h-.73c-.85,0-1.35.23-1.35.87a.78.78,0,0,0,.86.8c1.08,0,1.22-.72,1.22-1.53Z"/><path class="cls-7" d="M84.66,22.25V27c0,.39,0,.76,0,1.16h-.52a5.53,5.53,0,0,1,0-.63,1.29,1.29,0,0,1-1.32.72c-1,0-1.68-.85-1.68-2.07S81.81,24,82.92,24c.77,0,1.09.33,1.2.57V22.25Zm-3,3.92c0,1,.52,1.62,1.19,1.62,1,0,1.26-.72,1.26-1.73s-.22-1.56-1.2-1.56C82.18,24.5,81.69,25.11,81.69,26.17Z"/><path class="cls-7" d="M86.48,26.23c0,.94.49,1.56,1.22,1.56a1,1,0,0,0,1.08-.7h.55a1.6,1.6,0,0,1-1.65,1.17c-1.25,0-1.74-1-1.74-2.08S86.53,24,87.73,24a1.7,1.7,0,0,1,1.68,1.87v.34Zm2.38-.42c0-.74-.4-1.33-1.14-1.33s-1.13.55-1.21,1.33Z"/><path class="cls-7" d="M90.69,25.22c0-.63,0-.93,0-1.1h.52c0,.12,0,.41,0,.87a1.5,1.5,0,0,1,1.39-1v.56a1.38,1.38,0,0,0-1.39,1.55v2h-.53Z"/><path class="cls-7" d="M93.9,27a1,1,0,0,0,1.07.78c.67,0,.93-.3.93-.71s-.19-.63-1-.83c-1.1-.27-1.35-.6-1.35-1.14S93.94,24,94.91,24a1.32,1.32,0,0,1,1.47,1.15h-.53a.89.89,0,0,0-1-.7c-.64,0-.83.32-.83.62s.18.51,1,.69c1.18.28,1.44.67,1.44,1.28s-.58,1.2-1.5,1.2A1.44,1.44,0,0,1,93.35,27Z"/><path class="cls-7" d="M98.21,22.25v2.51A1.39,1.39,0,0,1,99.52,24c.6,0,1.36.33,1.36,1.57v2.58h-.54V25.69c0-.75-.33-1.17-1-1.17s-1.17.48-1.17,1.41v2.24h-.53V22.25Z"/><path class="cls-7" d="M102.47,22.25H103v.83h-.54Zm0,1.87H103v4.05h-.54Z"/><path class="cls-7" d="M105.14,27.61v2.16h-.54V25.11c0-.33,0-.68,0-1h.53c0,.15,0,.39,0,.69a1.44,1.44,0,0,1,1.38-.79c.94,0,1.61.8,1.61,2,0,1.45-.78,2.22-1.76,2.22A1.26,1.26,0,0,1,105.14,27.61Zm2.43-1.55c0-.9-.42-1.55-1.17-1.55-.92,0-1.29.57-1.29,1.62s.29,1.66,1.23,1.66S107.57,27.12,107.57,26.06Z"/><path class="cls-7" d="M111.94,22.55H114a1.58,1.58,0,0,1,1.78,1.6A1.61,1.61,0,0,1,114,25.78h-1.43v2.39h-.58Zm.58,2.73H114c.85,0,1.23-.43,1.23-1.11a1.06,1.06,0,0,0-1.2-1.11h-1.46Z"/><path class="cls-7" d="M117,25.22c0-.63,0-.93,0-1.1h.53c0,.12,0,.41,0,.87a1.48,1.48,0,0,1,1.38-1v.56a1.38,1.38,0,0,0-1.38,1.55v2H117Z"/><path class="cls-7" d="M123.28,26.14a1.9,1.9,0,0,1-1.86,2.12,1.87,1.87,0,0,1-1.81-2.11A1.9,1.9,0,0,1,121.46,24,1.87,1.87,0,0,1,123.28,26.14Zm-3.11,0c0,.93.48,1.65,1.28,1.65s1.27-.67,1.27-1.64-.45-1.65-1.29-1.65S120.17,25.19,120.17,26.14Z"/><path class="cls-7" d="M127.82,27.85c0,1.3-.55,2-1.8,2a1.42,1.42,0,0,1-1.62-1.22H125a1,1,0,0,0,1.1.76c1,0,1.25-.63,1.25-1.62v-.38a1.25,1.25,0,0,1-1.31.77,1.78,1.78,0,0,1-1.68-2c0-1.34.78-2.13,1.74-2.13.8,0,1.15.38,1.25.68,0-.21,0-.49,0-.58h.51c0,.19,0,.78,0,1.17Zm-2.94-1.73c0,.92.48,1.56,1.2,1.56,1,0,1.23-.63,1.23-1.62S127,24.5,126.1,24.5,124.88,25.22,124.88,26.12Z"/><path class="cls-7" d="M129.41,25.22c0-.63,0-.93,0-1.1h.53c0,.12,0,.41,0,.87a1.5,1.5,0,0,1,1.39-1v.56a1.39,1.39,0,0,0-1.39,1.55v2h-.53Z"/><path class="cls-7" d="M135.19,27.35a6.34,6.34,0,0,0,.05.82h-.51a2,2,0,0,1-.07-.58,1.31,1.31,0,0,1-1.3.67A1.21,1.21,0,0,1,132,27c0-.9.7-1.31,1.91-1.31h.73v-.38c0-.38-.12-.87-1-.87s-.87.38-1,.71h-.52c0-.5.35-1.17,1.49-1.17,1,0,1.49.4,1.49,1.3Zm-.53-1.21h-.73c-.86,0-1.36.23-1.36.87a.79.79,0,0,0,.87.8c1.07,0,1.22-.72,1.22-1.53Z"/><path class="cls-7" d="M136.78,25.16c0-.34,0-.72,0-1h.53c0,.13,0,.46,0,.68a1.25,1.25,0,0,1,1.2-.78,1.12,1.12,0,0,1,1.14.77A1.4,1.4,0,0,1,141,24c.64,0,1.27.37,1.27,1.49v2.66h-.53v-2.6c0-.51-.18-1.05-.88-1.05s-1.05.57-1.05,1.32v2.33h-.53V25.59c0-.56-.16-1.07-.86-1.07s-1.07.61-1.07,1.41v2.24h-.54Z"/><path class="cls-7" d="M68.78,34.42A4.83,4.83,0,0,1,70.22,31l.39.21a4.5,4.5,0,0,0,0,6.45l-.39.21A4.79,4.79,0,0,1,68.78,34.42Z"/><path class="cls-7" d="M73.28,31.29a11.43,11.43,0,0,1-.54,1.52V37.7h-.42v-4a6.44,6.44,0,0,1-.59.93,2.2,2.2,0,0,0-.26-.47,8.9,8.9,0,0,0,1.4-3Zm2,1.54h-2v-.39h2Zm-1.86,2.54h1.78v2.16h-.41V37.2h-1v.44h-.4Zm1.71-1.59H73.46v-.39h1.62Zm-1.62.57h1.62v.39H73.46Zm.8-2.08a3.84,3.84,0,0,0-.5-.82l.3-.19a3.69,3.69,0,0,1,.52.79Zm-.49,3.49v1.06h1V35.76Zm3.15-1.95a7.65,7.65,0,0,1-.61.75H78v3.09H77.5v-.27H76.3v.33h-.42V35c-.18.16-.37.3-.57.45a1.88,1.88,0,0,0-.3-.34,6.06,6.06,0,0,0,1.39-1.29H75.25V33.4h.9v-1h-.76V32h.76v-.84h.41V32h.68v.4h-.68v1h.15a8.49,8.49,0,0,0,1-2l.41.1a9,9,0,0,1-.91,1.93h1v.41ZM77.5,35H76.3v.79h1.2Zm0,2v-.82H76.3V37Z"/><path class="cls-7" d="M81.26,31.25a14.32,14.32,0,0,1-.56,1.5v5h-.47v-4a7,7,0,0,1-.6.9,2.62,2.62,0,0,0-.27-.48,8.77,8.77,0,0,0,1.46-3Zm1.55,2.28a4.35,4.35,0,0,1-.46.6h3.19V37.2c0,.23,0,.34-.2.41a1.78,1.78,0,0,1-.69.07,1.56,1.56,0,0,0-.15-.39H85c.06,0,.08,0,.08-.09v-.58H83.89v.92h-.44v-.92H82.14a2.65,2.65,0,0,1-.47,1.12,1.52,1.52,0,0,0-.37-.3,3.24,3.24,0,0,0,.47-1.93v-.84a3.57,3.57,0,0,1-.66.46,2.46,2.46,0,0,0-.29-.39,4.3,4.3,0,0,0,1.47-1.21H81.21v-.45h1.3v-.74H81.4v-.45h1.11v-.73H83v.73h1.27v-.73h.46v.73h1v.45h-1v.74h1.18v.45Zm.64,2.71v-.67H82.23a5.16,5.16,0,0,1,0,.67Zm-1.22-1.05h1.22v-.65H82.23ZM83,33.08h1.27v-.74H83Zm2.11,1.46H83.89v.65h1.19Zm0,1.7v-.67H83.89v.67Z"/><path class="cls-7" d="M92.4,31.14a4.84,4.84,0,0,1-.21.47,6,6,0,0,0,1.73,1.82,1.44,1.44,0,0,0-.32.33A6.82,6.82,0,0,1,92,32a5.47,5.47,0,0,1-1.58,1.79,2,2,0,0,0-.27-.32v1.91H89.1V36h1.34v.44H89.1v1.31h-.47V36.4H87.24V36h1.39v-.6H87.57V33h1.06v-.6H87.32V32h1.31v-.83h.47V32h1.27v.42H89.1V33h1.05v.4A5.45,5.45,0,0,0,92,31Zm-2.7,2.24H88V34H89.7Zm0,1H88V35H89.7Zm2.58,1h1.35v.45H92.28v1.89H91.8V35.83H90.43v-.45H91.8V34.15H90.73V33.7h2.58v.45h-1Z"/><path class="cls-7" d="M98.39,32.6c-.17.43-.37.94-.55,1.33h1v.44H95.13v-.44h2.23a10.13,10.13,0,0,0,.55-1.44Zm.33-.17H95.35V32h1.52a7.35,7.35,0,0,0-.32-.77L97,31.1a5.05,5.05,0,0,1,.38.89h1.36Zm-3.16,2.63h3V37.6h-.47v-.29H96v.35h-.46Zm.7-1.18a5.71,5.71,0,0,0-.47-1.27l.42-.1a5,5,0,0,1,.49,1.25ZM96,35.49v1.39h2V35.49Zm5.52-3.78c-.26.66-.6,1.49-.91,2.16a2.46,2.46,0,0,1,.82,1.75,1.05,1.05,0,0,1-.32.9,1,1,0,0,1-.44.15,4.23,4.23,0,0,1-.62,0,1.21,1.21,0,0,0-.14-.46,4,4,0,0,0,.59,0,.47.47,0,0,0,.29-.08.62.62,0,0,0,.19-.57,2.39,2.39,0,0,0-.84-1.66c.28-.62.57-1.4.77-2H99.71v5.75h-.44V31.52h1.86l.08,0Z"/><path class="cls-7" d="M104.21,35.75l.86-.33.09.45-2.17.87-.15-.49.93-.33V33.34h-.88v-.45h.88V31.21h.44v1.68h.84v.45h-.84ZM109.45,34v.43H105V34h2.7a12.67,12.67,0,0,0,.54-1.53l.45.12c-.16.46-.36,1-.54,1.41Zm-.22-1.59h-4V32h1.79a6.1,6.1,0,0,0-.2-.79l.43-.07a5.65,5.65,0,0,1,.24.86h1.69Zm-3.58,2.69h3.21v2.61h-.46v-.31h-2.31v.33h-.44Zm.55-1.21a5.34,5.34,0,0,0-.41-1.27l.38-.12a4.33,4.33,0,0,1,.43,1.25Zm-.11,1.64V37h2.31V35.51Z"/><path class="cls-7" d="M113.28,32.76h-2.59v-.4h2.59Zm-.25.92h-2V33.3h2Zm-2,.55h2v.39h-2Zm.41,3v.35H111V35.19h2.11v2.08Zm0-1.67v1.26h1.27V35.6Zm.63-3.35a4.82,4.82,0,0,0-.52-1l.36-.18a5.92,5.92,0,0,1,.56.91Zm2-.93h.45v2.51a6.17,6.17,0,0,1-1,3.92,2.39,2.39,0,0,0-.41-.26,5.61,5.61,0,0,0,.92-3.66Zm1.27.29h.44V37h-.44Zm1.79-.35v6.46h-.47V31.26Z"/><path class="cls-7" d="M120.08,34.42a4.79,4.79,0,0,1-1.44,3.43l-.39-.21a4.5,4.5,0,0,0,0-6.45l.39-.21A4.83,4.83,0,0,1,120.08,34.42Z"/><path class="cls-7" d="M70.07,56.4a10.42,10.42,0,0,1-2.22.79,3.91,3.91,0,0,0-.35-.36,8.93,8.93,0,0,0,2.13-.63ZM73.88,53H67.51v-.36h2.93v-.47H68.26v-.33h2.18v-.41H67.93v-.36h2.51v-.47h.48v.47h2.59v.36H70.92v.41h2.29v.33H70.92v.47h3ZM68.4,56.15V53.38h4.67v2.77Zm.47-2h3.72v-.48H68.87Zm0,.81h3.72v-.49H68.87Zm0,.82h3.72v-.5H68.87Zm2.83.4a21.08,21.08,0,0,1,2.19.71l-.54.24a20.17,20.17,0,0,0-2-.71Z"/><path class="cls-7" d="M77.53,50.78a10,10,0,0,1-.78,1.53v4.86h-.48V53a8,8,0,0,1-.9,1,2.54,2.54,0,0,0-.31-.47,8.29,8.29,0,0,0,2-3Zm2.24,3.38v2.27h1.9v.47H77.41v-.47h1.88V54.16H77.18V53.7h2.11v-2H77.67v-.45h3.85v.45H79.77v2h2.06v.46Z"/><path class="cls-7" d="M85.21,51.05c-.21.58-.47,1.29-.7,1.87a2.34,2.34,0,0,1,.63,1.58,1,1,0,0,1-.26.82.75.75,0,0,1-.36.13,2.44,2.44,0,0,1-.47,0,1,1,0,0,0-.12-.43,2,2,0,0,0,.42,0,.36.36,0,0,0,.22-.07.66.66,0,0,0,.15-.51A2.19,2.19,0,0,0,84.08,53c.21-.54.43-1.16.57-1.65h-.93v5.84H83.3V50.88h1.53l.08,0Zm1.28,4.11a2.89,2.89,0,0,1-.21.54,5.22,5.22,0,0,1,.83.66l-.25.33a4.91,4.91,0,0,0-.77-.65A3.67,3.67,0,0,1,85,57.19a2,2,0,0,0-.33-.31,3.05,3.05,0,0,0,1.4-1.81Zm1.09-4.47c0,.08-.1.16-.16.24a7.31,7.31,0,0,0,2.22,1.29,1.58,1.58,0,0,0-.23.42,8.51,8.51,0,0,1-2.22-1.4,6.53,6.53,0,0,1-1.81,1.47,1.57,1.57,0,0,0-.32-.31,5.44,5.44,0,0,0,2.06-1.86Zm-2.14,2.48H87v1.72H85.44Zm.37,1.36h.83v-1h-.83Zm2.53-1.92H86.17v-.39h2.17Zm.18,2.52a3.87,3.87,0,0,1-.19.63,7.91,7.91,0,0,1,1.26,1l-.29.33a7.65,7.65,0,0,0-1.15-.94,2.91,2.91,0,0,1-.89,1,2.46,2.46,0,0,0-.33-.31,2.73,2.73,0,0,0,1.14-1.8Zm.61-.24H87.5V53.17h1.63Zm-.4-1.36h-.85v1h.85Z"/><path class="cls-7" d="M93.23,52.29a8.4,8.4,0,0,1-.81,1.1v3.8h-.48V53.92a10.29,10.29,0,0,1-.86.79,3.14,3.14,0,0,0-.34-.4,8.07,8.07,0,0,0,2-2.19Zm-.29-1.52a9.36,9.36,0,0,1-1.84,1.77c-.07-.11-.2-.29-.28-.39a6.75,6.75,0,0,0,1.66-1.57Zm4.46,2.7H96.3v3.07c0,.31-.08.46-.31.54a5.9,5.9,0,0,1-1.35.07,1.49,1.49,0,0,0-.16-.46c.54,0,1,0,1.15,0s.18,0,.18-.16V53.47H93.35V53H97.4Zm-.2-2H93.66V51H97.2Z"/><path class="cls-7" d="M101.3,56.35l-2.53.56-.12-.43c.32-.06.74-.13,1.21-.23V54.09H98.73v-.43h1.13v-.83h-.7v-.29c-.11.1-.21.21-.32.3a2.46,2.46,0,0,0-.24-.45,5.12,5.12,0,0,0,1.39-1.8l.43.15-.14.26c.43.36.93.81,1.2,1.08l-.28.36c-.25-.27-.71-.71-1.13-1.08a6.09,6.09,0,0,1-.78,1H101v.42h-.71v.83h1v.43h-1v2.08l1-.2Zm-2.14-1.86a12,12,0,0,1,.31,1.34l-.37.1a13.19,13.19,0,0,0-.29-1.35Zm1.37,1.26a9.94,9.94,0,0,0,.37-1.35l.39.13c-.14.44-.31,1-.45,1.32Zm4.4.79c0,.29-.06.43-.26.51a3.74,3.74,0,0,1-1.1.08,2.06,2.06,0,0,0-.15-.46c.42,0,.8,0,.91,0s.14,0,.14-.14V55.21c-.75.2-1.52.38-2.12.52l-.17-.42c.58-.12,1.45-.31,2.29-.51V53.08h-2.31V54.6a5.49,5.49,0,0,1-.5,2.6,1.8,1.8,0,0,0-.37-.3,4.87,4.87,0,0,0,.42-2.31v-2h1.37v-2h.46v2h1.39Zm-2.67-4.17a5.21,5.21,0,0,0-.73-1.36l.4-.18a5.11,5.11,0,0,1,.74,1.33Zm.24,1.24a8.44,8.44,0,0,1,1.73.53l-.19.36a8.32,8.32,0,0,0-1.73-.58ZM105.15,51a11.09,11.09,0,0,1-.82,1.36l-.39-.17a8.7,8.7,0,0,0,.76-1.37Z"/><path class="cls-7" d="M111.66,50.61l-.21.47a6,6,0,0,0,1.72,1.81,2,2,0,0,0-.32.33,7,7,0,0,1-1.6-1.78,5.48,5.48,0,0,1-1.57,1.8,2.13,2.13,0,0,0-.28-.33v1.91h-1.05v.6h1.34v.44h-1.34v1.31h-.47V55.86H106.5v-.44h1.38v-.6h-1V52.45h1v-.59h-1.31v-.43h1.31V50.6h.47v.83h1.28v.43h-1.28v.59h1.05v.4a5.25,5.25,0,0,0,1.85-2.38ZM109,52.84h-1.69v.61H109Zm0,1h-1.69v.61H109Zm2.59,1h1.34v.45h-1.34v1.89h-.48V55.29h-1.37v-.45h1.37V53.61H110v-.44h2.58v.44h-1Z"/><path class="cls-7" d="M116.9,52.22h-2.59v-.4h2.59Zm-.25.92H114.6v-.38h2.05Zm-2.05.55h2.05v.39H114.6Zm.41,3v.35h-.41V54.66h2.11v2.07Zm0-1.67v1.27h1.27V55.06Zm.63-3.35a4.76,4.76,0,0,0-.52-1l.36-.19a5.53,5.53,0,0,1,.56.92Zm2-.93h.45V53.3a6.19,6.19,0,0,1-1,3.92,1.91,1.91,0,0,0-.41-.26,5.64,5.64,0,0,0,.92-3.66Zm1.27.29h.44v5.39h-.44Zm1.79-.35v6.46h-.47V50.72Z"/><path class="cls-7" d="M124.35,56l-2.16.56-.09-.46.94-.21v-2h-.77v-.44H123V51.57h-.87v-.44h2.23v.44h-.92v1.86h.76v.44h-.76v1.91l.82-.21Zm1.43-2.35c0,1.45-.18,2.68-1.55,3.54a2.43,2.43,0,0,0-.3-.34,3.19,3.19,0,0,0,1.41-3.12l-.27.13a9.24,9.24,0,0,0-.75-1.46l.37-.14a9.77,9.77,0,0,1,.65,1.17V50.59h.44Zm2.91,2.82v.45h-3v-.45H127V54.18h-.86v-.44H127v-2.2h-1V51.1h2.53v.44h-1.07v2.2h.94v.44h-.94v2.29Z"/><path class="cls-7" d="M68.78,62.88a4.79,4.79,0,0,1,1.44-3.43l.39.21a4.5,4.5,0,0,0,0,6.45l-.39.21A4.83,4.83,0,0,1,68.78,62.88Z"/><path class="cls-7" d="M74.26,65.4a10,10,0,0,1-2.22.79,3.75,3.75,0,0,0-.34-.36,9.08,9.08,0,0,0,2.13-.63ZM78.08,62H71.71v-.36h2.93v-.47H72.46v-.33h2.18v-.41H72.12v-.36h2.52v-.47h.48v.47h2.59v.36H75.12v.41h2.29v.33H75.12v.47h3ZM72.6,65.15V62.38h4.67v2.77Zm.47-2h3.72v-.48H73.07Zm0,.81h3.72v-.49H73.07Zm0,.82h3.72v-.5H73.07Zm2.83.4a21.08,21.08,0,0,1,2.19.71l-.54.24a20.17,20.17,0,0,0-2-.71Z"/><path class="cls-7" d="M81.73,59.78A11,11,0,0,1,81,61.31v4.86h-.48V62a8,8,0,0,1-.9,1,2.54,2.54,0,0,0-.31-.47,8.29,8.29,0,0,0,2-3ZM84,63.16v2.27h1.9v.47H81.6v-.47h1.89V63.16H81.38V62.7h2.11v-2H81.87v-.45h3.85v.45H84v2h2v.46Z"/><path class="cls-7" d="M89.41,60.05c-.21.58-.47,1.29-.7,1.87a2.39,2.39,0,0,1,.63,1.58,1,1,0,0,1-.26.82.75.75,0,0,1-.36.13,2.44,2.44,0,0,1-.47,0,1.16,1.16,0,0,0-.12-.43,2,2,0,0,0,.42,0,.36.36,0,0,0,.22-.07.66.66,0,0,0,.15-.51A2.24,2.24,0,0,0,88.28,62c.21-.54.43-1.16.57-1.65h-.93v5.84H87.5V59.88H89l.07,0Zm1.28,4.11a2.89,2.89,0,0,1-.21.54,5.72,5.72,0,0,1,.83.66l-.25.33a4.91,4.91,0,0,0-.77-.65,3.67,3.67,0,0,1-1.1,1.15,2,2,0,0,0-.33-.31,3.13,3.13,0,0,0,1.4-1.81Zm1.09-4.47c0,.08-.1.16-.16.24a7.19,7.19,0,0,0,2.22,1.29,1.58,1.58,0,0,0-.23.42,8.74,8.74,0,0,1-2.23-1.4,6.34,6.34,0,0,1-1.8,1.47,1.57,1.57,0,0,0-.32-.31,5.52,5.52,0,0,0,2.06-1.86Zm-2.15,2.48h1.6v1.72h-1.6ZM90,63.53h.83v-1H90Zm2.52-1.92H90.36v-.39h2.17Zm.18,2.52a3.07,3.07,0,0,1-.18.63,8.39,8.39,0,0,1,1.26,1l-.29.33a7.65,7.65,0,0,0-1.15-.94,3,3,0,0,1-.89,1,2.46,2.46,0,0,0-.33-.31,2.73,2.73,0,0,0,1.14-1.8Zm.62-.24H91.7V62.17h1.63Zm-.4-1.36h-.85v1h.85Z"/><path class="cls-7" d="M101.49,60.38v.42h-6.3v-.42h3a5.34,5.34,0,0,0-.27-.7l.45-.12c.11.25.24.58.32.82Zm-.4,5.23c0,.27-.07.39-.28.45a4.64,4.64,0,0,1-1.18.07,1.44,1.44,0,0,0-.15-.37h1c.12,0,.16,0,.16-.15V62.28H99.12v.52c0,.17,0,.22.14.22h.7a2.47,2.47,0,0,0,.39,0c0,.12,0,.25,0,.36a2.29,2.29,0,0,1-.41,0h-.81c-.41,0-.49-.18-.49-.59v-.51h-.87c-.11.78-.46,1.17-1.46,1.39a1.07,1.07,0,0,0-.24-.33c.87-.16,1.17-.47,1.26-1.06H96.08v3.89h-.46V61.88H99a6.36,6.36,0,0,0,.56-1L100,61c-.19.3-.4.63-.58.89h1.66Zm-3.94-4.77a7,7,0,0,1,.46.8l-.41.18c-.1-.21-.3-.57-.46-.84Zm.29,4.41v.34H97v-2h2.61v1.62Zm0-1.25v.88h1.78V64Z"/><path class="cls-7" d="M103.18,63.05h2.52v3.06h-.47v-.33h-1.59v.4h-.46Zm.46.46v1.81h1.59V63.51Zm4.49-1.25h-3.89V59.89h3.89Zm-.49-1.9h-2.93V61.8h2.93Zm1.56,2.69v3.08h-.48v-.35H107v.4h-.46V63.05Zm-.48,2.27V63.51H107v1.81Z"/><path class="cls-7" d="M116.58,61.25a14.36,14.36,0,0,1-4,3.74l.23.16a3.52,3.52,0,0,0,1.86.34c.86,0,1.92-.06,2.61-.13a1.89,1.89,0,0,0-.13.52c-.55,0-1.81.08-2.5.08a3.34,3.34,0,0,1-1.94-.4c-.29-.18-.52-.41-.68-.41s-.57.41-.92.89l-.36-.44c.47-.51.93-.9,1.29-.9h.11a13.22,13.22,0,0,0,3.61-3.21h-4.64V61h5l.1,0ZM114.16,61a8.69,8.69,0,0,0-.76-1.21l.42-.22a8,8,0,0,1,.77,1.18Z"/><path class="cls-7" d="M120.89,61.29a9.51,9.51,0,0,1-.82,1.1v3.8h-.47V62.92c-.29.29-.58.56-.86.79-.08-.1-.25-.31-.34-.4a8,8,0,0,0,2-2.19Zm-.29-1.52a9.15,9.15,0,0,1-1.85,1.77,2.55,2.55,0,0,0-.28-.39,6.75,6.75,0,0,0,1.66-1.57Zm4.46,2.7H124v3.07c0,.31-.08.46-.3.54a6,6,0,0,1-1.35.07,2.3,2.3,0,0,0-.16-.46c.53,0,1,0,1.15,0s.18,0,.18-.16V62.47H121V62h4.06Zm-.21-2h-3.54V60h3.54Z"/><path class="cls-7" d="M129,65.35l-2.53.56-.13-.43c.33-.06.75-.13,1.21-.23V63.09h-1.13v-.43h1.13v-.83h-.69v-.29c-.11.1-.21.21-.32.3a3.37,3.37,0,0,0-.25-.45,5.26,5.26,0,0,0,1.4-1.8l.42.15-.13.26c.42.36.92.81,1.19,1.08l-.28.36c-.25-.27-.71-.71-1.12-1.08a5.66,5.66,0,0,1-.79,1h1.71v.42h-.71v.83h.94v.43h-.94v2.08l1-.2Zm-2.15-1.86a12,12,0,0,1,.31,1.34l-.37.1a9.39,9.39,0,0,0-.29-1.35Zm1.37,1.26a9.94,9.94,0,0,0,.37-1.35l.39.13a12.64,12.64,0,0,1-.45,1.32Zm4.4.79c0,.29-.06.43-.26.51a3.7,3.7,0,0,1-1.1.08,1.65,1.65,0,0,0-.15-.46c.43,0,.8,0,.91,0s.14,0,.14-.14V64.21c-.75.2-1.51.38-2.12.52l-.17-.42c.59-.12,1.45-.31,2.29-.51V62.08h-2.31V63.6a5.49,5.49,0,0,1-.5,2.6,1.8,1.8,0,0,0-.37-.3,4.75,4.75,0,0,0,.42-2.31v-2h1.37v-2h.46v2h1.39Zm-2.67-4.17a5.15,5.15,0,0,0-.72-1.36l.39-.18a4.83,4.83,0,0,1,.74,1.33Zm.24,1.24a8.25,8.25,0,0,1,1.73.53l-.19.36a8.32,8.32,0,0,0-1.73-.58ZM132.8,60a10,10,0,0,1-.82,1.36l-.39-.17a9.64,9.64,0,0,0,.77-1.37Z"/><path class="cls-7" d="M135.72,62.88a4.83,4.83,0,0,1-1.44,3.44l-.39-.21a4.5,4.5,0,0,0,0-6.45l.39-.21A4.79,4.79,0,0,1,135.72,62.88Z"/><path class="cls-7" d="M73.84,77.11v.42h-6.3v-.42h3a7.26,7.26,0,0,0-.27-.7l.44-.13a8.93,8.93,0,0,1,.33.83Zm-.4,5.23c0,.27-.08.39-.28.45a4.69,4.69,0,0,1-1.19.07,1.15,1.15,0,0,0-.15-.37c.47,0,.89,0,1,0s.17,0,.17-.15V79H71.46v.51c0,.18,0,.23.15.23h.7a2.47,2.47,0,0,0,.39,0c0,.11,0,.25,0,.35a1.53,1.53,0,0,1-.41,0h-.8c-.41,0-.49-.18-.49-.59V79h-.87c-.12.77-.46,1.17-1.47,1.39a.9.9,0,0,0-.23-.33c.87-.16,1.16-.47,1.26-1.06H68.43v3.88H68V78.6H71.3a6.73,6.73,0,0,0,.57-1l.48.12a10.32,10.32,0,0,1-.58.88h1.67Zm-4-4.78c.16.26.37.6.47.81l-.42.18a9,9,0,0,0-.45-.84ZM69.78,82v.35h-.42v-2H72V82Zm0-1.25v.89h1.79v-.89Z"/><path class="cls-7" d="M77.88,81.74a6.73,6.73,0,0,1-2.25.92,1.39,1.39,0,0,0-.29-.36,6.59,6.59,0,0,0,2.17-.74Zm3.78-1v.41H78.74v1.73h-.48V81.18H75.38v-.41h2.88v-.58h-2.2v-.38h2.2v-.56H75.69v-.39H77.3a3.19,3.19,0,0,0-.38-.73l.38-.1H75.4v-.41h1.2a4.94,4.94,0,0,0-.6-1.08l.41-.14A4.56,4.56,0,0,1,77,77.48l-.37.14h.92v-1.3H78v1.3H79v-1.3h.45v1.3h.92l-.28-.09a7.44,7.44,0,0,0,.58-1.12l.48.14a10.08,10.08,0,0,1-.64,1.07h1.15V78H79.75l.44.12c-.17.25-.35.51-.51.71h1.69v.39H78.74v.56H81v.38H78.74v.58ZM77.37,78a3.32,3.32,0,0,1,.41.75l-.29.08h2l-.26-.08a5,5,0,0,0,.45-.75Zm2.14,3.5a21.85,21.85,0,0,1,2.14.8l-.29.32c-.48-.23-1.42-.6-2.13-.86Z"/><path class="cls-7" d="M85.21,76.77c-.21.59-.47,1.3-.7,1.88a2.33,2.33,0,0,1,.63,1.57,1,1,0,0,1-.26.83.75.75,0,0,1-.36.13,2.44,2.44,0,0,1-.47,0,1,1,0,0,0-.12-.43h.42a.36.36,0,0,0,.22-.07.66.66,0,0,0,.15-.51,2.16,2.16,0,0,0-.64-1.49c.21-.54.43-1.17.57-1.65h-.93v5.84H83.3V76.61h1.53l.08,0Zm1.28,4.12a2.89,2.89,0,0,1-.21.54,5.72,5.72,0,0,1,.83.66l-.25.33a4.43,4.43,0,0,0-.77-.65A3.67,3.67,0,0,1,85,82.92a2,2,0,0,0-.33-.31,3.08,3.08,0,0,0,1.4-1.81Zm1.09-4.47c0,.07-.1.16-.16.24A7.31,7.31,0,0,0,89.64,78a1.58,1.58,0,0,0-.23.42A8.74,8.74,0,0,1,87.18,77a6.34,6.34,0,0,1-1.8,1.47,1.57,1.57,0,0,0-.32-.31,5.6,5.6,0,0,0,2.06-1.86Zm-2.15,2.47H87v1.73h-1.6Zm.38,1.36h.83v-1h-.83Zm2.52-1.91H86.17V78h2.16Zm.19,2.51a3.7,3.7,0,0,1-.19.64,7.91,7.91,0,0,1,1.26,1l-.29.33a7.65,7.65,0,0,0-1.15-.94,2.91,2.91,0,0,1-.89,1,2.46,2.46,0,0,0-.33-.31,2.73,2.73,0,0,0,1.14-1.8Zm.61-.23H87.5V78.89h1.63Zm-.4-1.36h-.85v1h.85Z"/><path class="cls-7" d="M91.26,77.06h1.47c1.2,0,2,.4,2,1.54s-.77,1.62-1.94,1.62h-.9v2.14h-.6Zm1.41,2.67c1,0,1.44-.34,1.44-1.13s-.5-1-1.46-1h-.79v2.18Z"/><path class="cls-7" d="M96.32,78.45h.48l.06.72h0A1.37,1.37,0,0,1,98,78.35a.8.8,0,0,1,.41.09l-.12.51a1,1,0,0,0-.36-.06c-.34,0-.74.24-1,.92v2.55h-.59Z"/><path class="cls-7" d="M99.26,80.41a1.81,1.81,0,1,1,1.8,2A1.86,1.86,0,0,1,99.26,80.41Zm3,0c0-.93-.49-1.56-1.19-1.56s-1.19.63-1.19,1.56.49,1.55,1.19,1.55S102.25,81.34,102.25,80.41Z"/><path class="cls-7" d="M109.31,76.33a4.84,4.84,0,0,1-.21.47,6,6,0,0,0,1.73,1.82,1.44,1.44,0,0,0-.32.33,6.82,6.82,0,0,1-1.6-1.78,5.61,5.61,0,0,1-1.58,1.8,2.06,2.06,0,0,0-.27-.33v1.91h-1v.6h1.34v.44H106V82.9h-.47V81.59h-1.39v-.44h1.39v-.6h-1.06V78.18h1.06v-.59h-1.31v-.43h1.31v-.83H106v.83h1.27v.43H106v.59h1v.4a5.45,5.45,0,0,0,1.85-2.38Zm-2.7,2.24h-1.69v.61h1.69Zm0,1h-1.69v.61h1.69Zm2.58,1h1.35V81h-1.35v1.89h-.48V81h-1.37v-.45h1.37V79.34h-1.07v-.45h2.59v.45h-1Z"/><path class="cls-7" d="M114.55,78H112v-.4h2.59Zm-.25.92h-2v-.38h2Zm-2,.55h2v.39h-2Zm.41,3v.35h-.41V80.38h2.11v2.08Zm0-1.67v1.27h1.27V80.79Zm.64-3.35a5.09,5.09,0,0,0-.53-1l.36-.19a6.43,6.43,0,0,1,.57.92Zm2-.93h.46V79a6.17,6.17,0,0,1-1,3.92,2.48,2.48,0,0,0-.42-.26,5.61,5.61,0,0,0,.92-3.66Zm1.27.29H117v5.38h-.44Zm1.79-.35v6.46h-.47V76.45Z"/><path class="cls-7" d="M122,81.73l-2.17.56-.09-.46.94-.22v-2h-.77v-.44h.77V77.3h-.87v-.45h2.24v.45h-.92v1.86h.76v.44h-.76v1.91l.82-.21Zm1.43-2.35c0,1.45-.19,2.68-1.56,3.54a1.92,1.92,0,0,0-.3-.34A3.2,3.2,0,0,0,123,79.46l-.28.13a9.13,9.13,0,0,0-.74-1.46l.36-.14a9.87,9.87,0,0,1,.66,1.17V76.32h.44Zm2.91,2.82v.45h-3.06V82.2h1.36V79.91h-.86v-.44h.86v-2.2h-1v-.44h2.53v.44h-1.07v2.2h.94v.44h-.94V82.2Z"/><path class="cls-7" d="M68.78,88.61a4.79,4.79,0,0,1,1.44-3.43l.39.2a4.52,4.52,0,0,0,0,6.46l-.39.21A4.83,4.83,0,0,1,68.78,88.61Z"/><path class="cls-7" d="M78,86.11v.42h-6.3v-.42h3c-.08-.23-.18-.49-.27-.7l.44-.13c.11.26.24.59.32.83Zm-.41,5.23c0,.27-.07.39-.27.45a4.73,4.73,0,0,1-1.19.07,1.15,1.15,0,0,0-.15-.37c.46,0,.89,0,1,0s.17,0,.17-.15V88H75.66v.51c0,.18,0,.23.14.23h.71a2.66,2.66,0,0,0,.39,0c0,.11,0,.25,0,.35a1.53,1.53,0,0,1-.41,0h-.8c-.41,0-.49-.18-.49-.59V88h-.87c-.12.77-.47,1.17-1.47,1.39a1,1,0,0,0-.23-.33c.87-.16,1.16-.47,1.26-1.06H72.63v3.88h-.46V87.6H75.5a5.87,5.87,0,0,0,.56-1l.49.12a10.32,10.32,0,0,1-.58.88h1.66Zm-3.94-4.78c.16.26.37.6.47.81l-.42.18a9,9,0,0,0-.45-.84ZM74,91v.35h-.42v-2h2.61V91Zm0-1.25v.89h1.79v-.89Z"/><path class="cls-7" d="M82.08,90.74a6.82,6.82,0,0,1-2.25.92,1.39,1.39,0,0,0-.29-.36,6.59,6.59,0,0,0,2.17-.74Zm3.78-1v.41H82.94v1.73h-.48V90.18H79.58v-.41h2.88v-.58h-2.2v-.38h2.2v-.56H79.89v-.39H81.5a3.25,3.25,0,0,0-.39-.73l.39-.1H79.6v-.41h1.2a5.4,5.4,0,0,0-.6-1.08l.41-.14a4.56,4.56,0,0,1,.63,1.08l-.37.14h.92v-1.3h.45v1.3h.93v-1.3h.45v1.3h.92l-.28-.09a7.44,7.44,0,0,0,.58-1.12l.48.14a12.09,12.09,0,0,1-.64,1.07h1.15V87H84l.44.12c-.17.25-.35.51-.51.71h1.69v.39H82.94v.56h2.27v.38H82.94v.58ZM81.57,87a2.91,2.91,0,0,1,.4.75l-.28.08h2l-.26-.08a5,5,0,0,0,.45-.75Zm2.14,3.5c.7.22,1.63.57,2.14.8l-.29.32c-.48-.23-1.42-.6-2.13-.86Z"/><path class="cls-7" d="M89.41,85.77c-.21.59-.47,1.3-.7,1.88a2.39,2.39,0,0,1,.63,1.57,1.06,1.06,0,0,1-.26.83.75.75,0,0,1-.36.13,2.44,2.44,0,0,1-.47,0,1.16,1.16,0,0,0-.12-.43h.42a.35.35,0,0,0,.21-.07.63.63,0,0,0,.16-.51,2.2,2.2,0,0,0-.64-1.49c.21-.54.43-1.17.57-1.65h-.93v5.84H87.5V85.61H89l.07,0Zm1.28,4.12a2.89,2.89,0,0,1-.21.54,5.72,5.72,0,0,1,.83.66l-.25.33a4.43,4.43,0,0,0-.77-.65,3.67,3.67,0,0,1-1.1,1.15,2,2,0,0,0-.33-.31,3.11,3.11,0,0,0,1.39-1.81Zm1.09-4.47c0,.07-.1.16-.16.24A7.26,7.26,0,0,0,93.83,87a1.88,1.88,0,0,0-.22.42A8.74,8.74,0,0,1,91.38,86a6.34,6.34,0,0,1-1.8,1.47,1.57,1.57,0,0,0-.32-.31,5.6,5.6,0,0,0,2.06-1.86Zm-2.15,2.47h1.6v1.73h-1.6ZM90,89.25h.83v-1H90Zm2.52-1.91H90.36V87h2.17Zm.18,2.51a3,3,0,0,1-.18.64,8.39,8.39,0,0,1,1.26,1l-.29.33a7.65,7.65,0,0,0-1.15-.94,3,3,0,0,1-.89,1,2.46,2.46,0,0,0-.33-.31,2.73,2.73,0,0,0,1.14-1.8Zm.62-.23H91.7V87.89h1.63Zm-.4-1.36h-.85v1h.85Z"/><path class="cls-7" d="M101.49,86.11v.42h-6.3v-.42h3a5.34,5.34,0,0,0-.27-.7l.44-.13a8.93,8.93,0,0,1,.33.83Zm-.4,5.23c0,.27-.07.39-.28.45a4.64,4.64,0,0,1-1.18.07,1.44,1.44,0,0,0-.15-.37c.46,0,.89,0,1,0s.17,0,.17-.15V88H99.12v.51c0,.18,0,.23.14.23h.7a2.47,2.47,0,0,0,.39,0c0,.11,0,.25,0,.35a1.58,1.58,0,0,1-.41,0h-.81c-.41,0-.49-.18-.49-.59V88h-.87c-.11.77-.46,1.17-1.47,1.39a.9.9,0,0,0-.23-.33c.87-.16,1.17-.47,1.26-1.06H96.08v3.88h-.46V87.6H99a5.87,5.87,0,0,0,.56-1l.48.12c-.18.3-.39.63-.57.88h1.66Zm-3.94-4.78a8,8,0,0,1,.46.81l-.41.18c-.1-.21-.3-.57-.46-.84ZM97.44,91v.35H97v-2h2.61V91Zm0-1.25v.89h1.78v-.89Z"/><path class="cls-7" d="M103.18,88.78h2.52v3.06h-.47v-.33h-1.6v.4h-.45Zm.45.46v1.81h1.6V89.24Zm4.5-1.25h-3.89V85.62h3.89Zm-.49-1.9h-2.93v1.44h2.93Zm1.56,2.69v3.08h-.48v-.35H107v.4h-.46V88.78Zm-.48,2.27V89.24H107v1.81Z"/><path class="cls-7" d="M116.58,87a14.36,14.36,0,0,1-4,3.74l.23.15a3.42,3.42,0,0,0,1.86.34c.86,0,1.92,0,2.61-.12a1.82,1.82,0,0,0-.13.51c-.55,0-1.81.08-2.5.08a3.43,3.43,0,0,1-1.94-.39c-.29-.18-.52-.42-.68-.42s-.57.42-.92.89l-.36-.43c.47-.51.93-.9,1.29-.9h.11a13.22,13.22,0,0,0,3.61-3.21h-4.64v-.47h5l.1,0Zm-2.42-.26a8.14,8.14,0,0,0-.76-1.21l.42-.22a8,8,0,0,1,.77,1.18Z"/><path class="cls-7" d="M120.88,87a10,10,0,0,1-.81,1.1v3.8h-.47V88.65a10,10,0,0,1-.86.78c-.08-.09-.25-.3-.34-.39a8.19,8.19,0,0,0,2-2.19Zm-.28-1.53a9.46,9.46,0,0,1-1.85,1.78,2.55,2.55,0,0,0-.28-.39,6.94,6.94,0,0,0,1.66-1.57Zm4.46,2.71H124v3.07c0,.31-.08.46-.3.54a6.06,6.06,0,0,1-1.36.07,1.65,1.65,0,0,0-.15-.46,10.32,10.32,0,0,0,1.15,0c.13,0,.18,0,.18-.15V88.2H121v-.47h4.06Zm-.21-2h-3.54v-.45h3.54Z"/><path class="cls-7" d="M129,91.08l-2.54.56-.12-.43c.33-.06.75-.13,1.21-.23V88.82h-1.13v-.43h1.13v-.83h-.69v-.29l-.32.3a4.23,4.23,0,0,0-.25-.46,5.22,5.22,0,0,0,1.4-1.79l.42.14c0,.09-.08.18-.13.27.42.36.92.8,1.19,1.08l-.28.36c-.25-.27-.71-.71-1.12-1.08a5.66,5.66,0,0,1-.79,1h1.71v.42h-.71v.83h.94v.43h-.94V90.9l1-.2Zm-2.15-1.86a12,12,0,0,1,.31,1.34l-.37.1a9.39,9.39,0,0,0-.29-1.35Zm1.37,1.26a10.35,10.35,0,0,0,.37-1.35l.39.12c-.14.45-.3,1-.45,1.33Zm4.4.79c0,.28-.06.43-.26.51a3.7,3.7,0,0,1-1.1.08,1.65,1.65,0,0,0-.15-.46c.43,0,.8,0,.91,0s.14,0,.14-.14V89.93c-.75.21-1.51.39-2.12.53l-.17-.42c.59-.12,1.45-.31,2.29-.51V87.81h-2.31v1.52a5.49,5.49,0,0,1-.5,2.6,1.8,1.8,0,0,0-.37-.3,4.75,4.75,0,0,0,.42-2.31V87.37h1.37V85.32h.46v2.05h1.39Zm-2.67-4.17a5.47,5.47,0,0,0-.72-1.36l.39-.18a4.83,4.83,0,0,1,.74,1.33Zm.24,1.24a7.7,7.7,0,0,1,1.73.53l-.19.36a8.32,8.32,0,0,0-1.73-.58Zm2.65-2.64a10,10,0,0,1-.82,1.36l-.39-.17a9.64,9.64,0,0,0,.77-1.37Z"/><path class="cls-7" d="M135.72,88.61a4.83,4.83,0,0,1-1.44,3.44l-.39-.21a4.52,4.52,0,0,0,0-6.46l.39-.2A4.79,4.79,0,0,1,135.72,88.61Z"/><path class="cls-7" d="M67.5,107c0-1.7,1-2.74,2.32-2.74a1.92,1.92,0,0,1,1.44.65l-.33.38a1.46,1.46,0,0,0-1.1-.5c-1,0-1.72.84-1.72,2.2s.65,2.23,1.7,2.23a1.61,1.61,0,0,0,1.25-.61l.33.37a2,2,0,0,1-1.61.76C68.47,109.76,67.5,108.74,67.5,107Z"/><path class="cls-7" d="M72.4,109l.36-.41a2.06,2.06,0,0,0,1.48.68c.73,0,1.17-.37,1.17-.92s-.4-.75-.91-1l-.76-.34a1.39,1.39,0,0,1,.55-2.73,2.11,2.11,0,0,1,1.54.65l-.31.38a1.72,1.72,0,0,0-1.23-.5c-.61,0-1,.31-1,.81s.47.74.88.92l.77.32a1.5,1.5,0,0,1,1.1,1.42,1.58,1.58,0,0,1-1.78,1.48A2.44,2.44,0,0,1,72.4,109Z"/><path class="cls-7" d="M76.93,104.38h.63l.89,2.92c.19.63.31,1.13.52,1.75h0c.2-.62.33-1.12.53-1.75l.87-2.92H81l-1.69,5.29h-.69Z"/><path class="cls-7" d="M84.41,106.62a5.23,5.23,0,0,1-2.15,3.14,2.22,2.22,0,0,0-.38-.37A4.43,4.43,0,0,0,83.8,107H82v-.46h2l.08,0Zm3.87-.69a16.05,16.05,0,0,1-1.94,1.59,4.56,4.56,0,0,0,2.2,1.8,2.25,2.25,0,0,0-.34.41,5.21,5.21,0,0,1-2.72-2.88v2.73c0,.31-.08.45-.29.54a4.4,4.4,0,0,1-1.2.08,2.58,2.58,0,0,0-.18-.48c.46,0,.88,0,1,0s.18,0,.18-.16v-4H83v-.47h2.53v.51a7.43,7.43,0,0,0,.65,1.55,13,13,0,0,0,1.71-1.55Zm-2-.91a13.16,13.16,0,0,0-2.67-1l.24-.39a12.39,12.39,0,0,1,2.67.94Z"/><path class="cls-7" d="M90.46,108.3a11.17,11.17,0,0,1-.39,1.86,2.8,2.8,0,0,0-.38-.13,8.16,8.16,0,0,0,.37-1.8Zm1.29-.29c0-.13,0-.28-.08-.45a7.2,7.2,0,0,0-1.75.34,3.32,3.32,0,0,0-.16-.43c.14,0,.29-.21.5-.48a8.11,8.11,0,0,0,.6-.87,4,4,0,0,0-1,.16c0-.09-.1-.3-.15-.41.12,0,.23-.19.37-.4a9.28,9.28,0,0,0,.9-1.85l.42.18a14,14,0,0,1-1,2l.75-.07c.18-.31.35-.65.51-1l.39.22a13.71,13.71,0,0,1-1.54,2.4l1.12-.14c-.07-.27-.15-.52-.23-.75l.35-.08a10,10,0,0,1,.42,1.53Zm-.65.19c.08.53.17,1.2.19,1.66l-.37.07a15.27,15.27,0,0,0-.19-1.67Zm.6-.17a9.81,9.81,0,0,1,.39,1.35l-.34.11a9.42,9.42,0,0,0-.38-1.36Zm2.15,1.47c-.55.26-1.23.54-1.72.73a3,3,0,0,0-.2-.34,14.07,14.07,0,0,0,1.56-.69Zm.1-5.12H92.08V104H94v-.41h.47V104h1.8v.34h-1.8v.41h1.49v.34H92.39v-.34H94Zm-1.82,1.07h4v1.3h-4Zm2.65,3.74c.54.2,1.14.47,1.52.65l-.21.35c-.39-.19-1-.46-1.51-.69l.17-.31H92.36v-2.11h3.55v2.11Zm-2.24-2.78h.88v-.62h-.88Zm.26,1.3h2.66v-.33H92.8Zm0,.59h2.66V108H92.8Zm0,.59h2.66v-.35H92.8Zm1.8-2.48v-.62h-.8v.62Zm1.12-.62H95v.62h.73Z"/><path class="cls-7" d="M100.24,108.18s0,.14,0,.19c-.09,1-.18,1.44-.36,1.6a.6.6,0,0,1-.45.17c-.18,0-.57,0-1,0a1,1,0,0,0-.14-.42c.39,0,.79,0,.93,0a.4.4,0,0,0,.27-.06c.11-.1.19-.41.26-1.13H98.08c.08-.42.18-1,.25-1.56h1.46v-.8H98.56v-.09a5.48,5.48,0,0,1-.83.36,2.33,2.33,0,0,0-.27-.37,4.94,4.94,0,0,0,1.45-.69,5.16,5.16,0,0,0-.83-.67l.28-.26a4.53,4.53,0,0,1,.89.68,3.5,3.5,0,0,0,.73-.82H98.26v-.4h2l.08,0,.29.15a4.17,4.17,0,0,1-1.54,1.74h1.15v1.57H98.68c0,.28-.08.55-.12.8Zm3.72-3.53a8.24,8.24,0,0,1-1,.82,4.94,4.94,0,0,0,1.27.53,2.55,2.55,0,0,0-.29.38,4.87,4.87,0,0,1-1.07-.46v1c0,.16,0,.2.12.2h.57a1.94,1.94,0,0,0,.34,0c0,.1,0,.25,0,.34a1.24,1.24,0,0,1-.36,0h-.63c-.4,0-.48-.16-.48-.56v-.75h-1v.18a1.45,1.45,0,0,1-.79,1.35,1.47,1.47,0,0,0-.31-.3,1.1,1.1,0,0,0,.69-1v-.57h1.65a4.91,4.91,0,0,1-1.78-2l.39-.12a3.68,3.68,0,0,0,.58.89,8.26,8.26,0,0,0,1-.85l.36.25a13.62,13.62,0,0,1-1.07.87,4.89,4.89,0,0,0,.55.45,7.41,7.41,0,0,0,1-.85Zm-.53,3.31a3.16,3.16,0,0,1-1,1.3c.39.25.75.47,1,.66l-.25.32c-.26-.2-.65-.46-1.07-.73a5.67,5.67,0,0,1-1.67.72,1.13,1.13,0,0,0-.22-.36,5.22,5.22,0,0,0,1.51-.59c-.4-.25-.8-.49-1.16-.69l.24-.26c.38.21.83.46,1.25.72a2.82,2.82,0,0,0,.75-.83h-2.26v-.35h2.49l.08,0Z"/><path class="cls-7" d="M106.58,105.61v.47a8.15,8.15,0,0,1-.85,4.14,2.8,2.8,0,0,0-.41-.25,7.5,7.5,0,0,0,.78-3.89V104h5.36v1.63Zm0-1.21v.78H111v-.78Zm4.91,3.95a8.2,8.2,0,0,1-1.19.75,4.23,4.23,0,0,0,1.68.73,1.68,1.68,0,0,0-.3.4A3.9,3.9,0,0,1,109,108h-1v1.54l1.61-.37a2.74,2.74,0,0,0,0,.4,12,12,0,0,0-2.21.62,1.2,1.2,0,0,0-.2-.41.61.61,0,0,0,.35-.54V108h-.82v-.43H108v-.8h-1.12v-.42H108v-.67h.44v.67h1.52v-.67h.44v.67h1.25v.42h-1.25v.8h1.54V108h-2.5a3.2,3.2,0,0,0,.6.82,10.56,10.56,0,0,0,1.13-.76Zm-3.09-.75h1.52v-.8H108.4Z"/><path class="cls-7" d="M118.37,103.64l-.21.47a6.14,6.14,0,0,0,1.72,1.82,1.68,1.68,0,0,0-.32.33,7.19,7.19,0,0,1-1.6-1.78,5.48,5.48,0,0,1-1.57,1.8,2.13,2.13,0,0,0-.28-.33v1.91h-1v.6h1.34v.44h-1.34v1.31h-.47V108.9h-1.38v-.44h1.38v-.6h-1v-2.37h1v-.59h-1.3v-.43h1.3v-.83h.47v.83h1.28v.43h-1.28v.59h1v.4a5.31,5.31,0,0,0,1.85-2.38Zm-2.7,2.24H114v.61h1.7Zm0,1H114v.61h1.7Zm2.58,1h1.34v.45h-1.34v1.89h-.48v-1.89H116.4v-.45h1.37v-1.23H116.7v-.45h2.58v.45h-1Z"/><path class="cls-7" d="M123.61,105.26H121v-.4h2.59Zm-.25.92h-2v-.38h2Zm-2,.55h2v.39h-2Zm.41,3v.35h-.41v-2.43h2.11v2.08Zm0-1.67v1.27H123V108.1Zm.63-3.35a4.76,4.76,0,0,0-.52-1l.36-.19a5.53,5.53,0,0,1,.56.92Zm2-.93h.45v2.52a6.19,6.19,0,0,1-1,3.92,2.42,2.42,0,0,0-.41-.27,5.6,5.6,0,0,0,.92-3.65Zm1.27.29H126v5.39h-.44Zm1.79-.35v6.46h-.47v-6.46Z"/><path class="cls-7" d="M131.06,109l-2.16.56-.09-.46.94-.22v-2H129v-.44h.77v-1.86h-.87v-.44h2.23v.44h-.91v1.86H131v.44h-.75v1.91l.81-.21Zm1.44-2.35c0,1.45-.19,2.68-1.56,3.54a1.92,1.92,0,0,0-.3-.34,3.19,3.19,0,0,0,1.41-3.12l-.27.13a9.24,9.24,0,0,0-.75-1.46l.37-.14a9.77,9.77,0,0,1,.65,1.17v-2.84h.45Zm2.9,2.82V110h-3.05v-.45h1.36v-2.29h-.86v-.44h.86v-2.2h-1v-.44h2.53v.44h-1.07v2.2h.94v.44h-.94v2.29Z"/><path class="cls-7" d="M68.78,115.92a4.79,4.79,0,0,1,1.44-3.43l.39.2a4.52,4.52,0,0,0,0,6.46l-.39.21A4.83,4.83,0,0,1,68.78,115.92Z"/><path class="cls-7" d="M72,113.38h3v.5H72.61v1.74h2v.51h-2v2H75.1v.51H72Z"/><path class="cls-7" d="M76.42,118l.37-.41a2,2,0,0,0,1.48.68c.72,0,1.16-.37,1.16-.92s-.39-.75-.9-1l-.77-.34a1.39,1.39,0,0,1,.56-2.73,2.11,2.11,0,0,1,1.54.65l-.32.38a1.68,1.68,0,0,0-1.22-.5c-.62,0-1,.31-1,.81s.48.74.88.92l.77.32a1.49,1.49,0,0,1,1.1,1.42,1.58,1.58,0,0,1-1.78,1.48A2.47,2.47,0,0,1,76.42,118Z"/><path class="cls-7" d="M81.37,116a2.44,2.44,0,0,1,2.4-2.74,2,2,0,0,1,1.51.65l-.33.38a1.53,1.53,0,0,0-1.17-.5c-1.1,0-1.8.84-1.8,2.2s.65,2.23,1.8,2.23a1.52,1.52,0,0,0,1-.34v-1.44H83.64V116h1.71v2.2a2.26,2.26,0,0,1-1.62.6C82.34,118.76,81.37,117.74,81.37,116Z"/><path class="cls-7" d="M88.82,115.28v.26H90.2V116H88.79a4.67,4.67,0,0,1-.08.52c.34.33,1.24,1.33,1.45,1.59l-.32.41c-.24-.34-.84-1.06-1.24-1.51a3.86,3.86,0,0,1-1.52,2.19,1.39,1.39,0,0,0-.33-.36A3.73,3.73,0,0,0,88.32,116H86.83v-.46h1.51v-1.49h-.59a5.13,5.13,0,0,1-.61,1.17,2.28,2.28,0,0,0-.39-.28,6.13,6.13,0,0,0,.92-2.32l.46.09c-.07.31-.15.61-.24.89H90v.45H88.82Zm4.18-2v5.69h-.48v-.51H90.91V119h-.47v-5.76ZM92.52,118v-4.26H90.91V118Z"/><path class="cls-7" d="M94.7,113.86h2v.4h-2Zm1.82,4.93H95.3v.35h-.37v-2.42h1.59Zm-1.59-4h1.59v.39H94.93Zm0,1h1.59v.39H94.93Zm.8-2a6.13,6.13,0,0,0-.53-.93l.34-.15a5.44,5.44,0,0,1,.54.92Zm-.43,3.4v1.28h.84v-1.28Zm5.69-1.27a8.26,8.26,0,0,1-.9,1.81c.13.61.3,1,.5,1s.2-.35.25-1a1.51,1.51,0,0,0,.33.25c-.14,1-.36,1.25-.59,1.24s-.63-.41-.82-1.1a6.39,6.39,0,0,1-1.09,1.06,1.07,1.07,0,0,0-.29-.26,5.78,5.78,0,0,0,1.26-1.3,23.09,23.09,0,0,1-.26-2.34H96.74v-.42h.62a6.11,6.11,0,0,0-.18-.89l.36,0a6.2,6.2,0,0,1,.21.94h.47a8.81,8.81,0,0,0,.24-1l.4.07c-.09.3-.19.63-.27.88h.77c0-.69-.06-1.43-.07-2.19h.43c0,.76,0,1.51.06,2.19h1.32v.42H99.81c0,.68.1,1.31.18,1.81a6.23,6.23,0,0,0,.61-1.39Zm-1.91-2h-2.2v-.39h1a3.5,3.5,0,0,0-.29-.62l.38-.12a4.19,4.19,0,0,1,.36.74h.75Zm-1.62,4.37v.5h-.41v-3H99v2.69h-.41v-.19Zm0-2.14v.7h1.08V116Zm1.08,1.78v-.73H97.46v.73Zm2-3.38a5.78,5.78,0,0,0-.57-1.23l.38-.15a6,6,0,0,1,.58,1.21Z"/><path class="cls-7" d="M103.84,116l.77-.25.07.44-.84.28v2.1c0,.29-.07.42-.24.51a2.26,2.26,0,0,1-.9.08,2.45,2.45,0,0,0-.15-.46c.33,0,.61,0,.69,0s.13,0,.13-.13v-1.94l-.87.29-.13-.47,1-.3v-1.66h-.94v-.45h.94v-1.45h.47v1.45h.83v.45h-.83Zm5.13,2.67h-3.28v.51h-.46v-4.3a7.8,7.8,0,0,1-.62.87,2.94,2.94,0,0,0-.36-.34,7.52,7.52,0,0,0,1.49-2.78l.45.12c-.13.38-.28.77-.44,1.14h1.5a5,5,0,0,0-.51-1.08l.41-.16a4.78,4.78,0,0,1,.54,1l-.4.19h1.54v.44h-1.41v1h1.29v.43h-1.29v1h1.28v.43h-1.28v1H109Zm-2-4.34h-1.27v1H107Zm0,1.42h-1.27v1H107Zm-1.27,2.47H107v-1h-1.27Z"/><path class="cls-7" d="M111.34,115.29a7.88,7.88,0,0,1-.76,3.86,1.73,1.73,0,0,0-.39-.25,7.34,7.34,0,0,0,.7-3.61v-2h2.8c-.06-.18-.14-.38-.2-.55l.48-.11c.09.2.18.46.25.66h2.53v.42h-5.41Zm2.21,3.13c-.61.29-1.42.6-2,.81a1.66,1.66,0,0,0-.25-.34,18,18,0,0,0,1.86-.76Zm3.26-3v.32h-5.26v-.32Zm-4.15-.23v-.63h-.92v-.32h.92v-.44h.46v.44h2v-.44h.47v.44h.93v.32h-.93v.63Zm3.62,2.88H112v-2h4.33Zm-3.89-1.19h1.49v-.54h-1.49Zm0,.87h1.49v-.55h-1.49Zm.73-3.19v.36h2v-.36Zm2.69,1.78h-1.48v.54h1.48Zm0,.86h-1.48v.55h1.48Zm-1,.93c.7.25,1.44.54,1.91.77l-.23.34c-.46-.22-1.19-.54-1.88-.79Z"/><path class="cls-7" d="M124.62,117.07v.45h-6.51v-.45h.74l-.14-3.85a10.71,10.71,0,0,0,1.33-.55l.25.39c-.33.15-.75.29-1.13.42l0,.88h1v.41h-1l0,.94h1v.41h-1l0,.95h4.17c0-.27,0-.59.05-.92h-1v-.41h1c0-.3,0-.62,0-.94h-1v-.41h1c0-.33,0-.66,0-1H122.5V113H124c0,1.27,0,3-.1,4.07Zm-4,.88a10.61,10.61,0,0,1-2.15,1.25,4,4,0,0,0-.28-.36,8.39,8.39,0,0,0,2-1.18Zm.58-2.55a3.81,3.81,0,0,1-.46,1.37,2.8,2.8,0,0,0-.34-.21,2.9,2.9,0,0,0,.42-1.22Zm.53-.4h-1.17v-2.33H121v.71h1.21v.41H121v.81h1.17v1.93c0,.21,0,.29-.2.36a2.41,2.41,0,0,1-.75.06,1.09,1.09,0,0,0-.13-.34,3.81,3.81,0,0,0,.57,0c.07,0,.09,0,.09-.09Zm.58,2.64a17.72,17.72,0,0,1,2.11,1.18l-.31.36a17.9,17.9,0,0,0-2.06-1.21Z"/><path class="cls-7" d="M132.44,114.64V115h-1.2l-.05.64H127l.09-.64H126v-.38h1.2l.08-.62h4.1l-.05.62Zm-3.72,3.86a9.38,9.38,0,0,1-2.35.73,1.7,1.7,0,0,0-.26-.34,8.41,8.41,0,0,0,2.19-.65Zm-2.09-4.11h-.44v-1.12H129a4.1,4.1,0,0,0-.36-.56l.42-.14a4.79,4.79,0,0,1,.44.7h2.69v1.12h-.46v-.73h-5.11Zm4.86,3.83h-4.57V116h4.57Zm-.48-1.94h-3.62v.34H131Zm0,.63h-3.62v.36H131Zm0,.65h-3.62v.36H131Zm-3.52-2.2h1.43c0-.13,0-.24,0-.38h-1.42Zm.13-1,0,.36H129c0-.13,0-.24,0-.36Zm3.15,1,0-.38h-1.42c0,.14,0,.26,0,.38Zm.08-1h-1.43l0,.36h1.42Zm-.93,3.92c.84.21,1.71.48,2.28.68l-.32.31c-.52-.2-1.37-.47-2.22-.71Z"/><path class="cls-7" d="M136,112.8a13.79,13.79,0,0,1-.75,1.55v4.85h-.48v-4.1a8,8,0,0,1-.77.92,2.91,2.91,0,0,0-.28-.47,8.1,8.1,0,0,0,1.81-2.9Zm2.07,1.5v1.09h2.11v.44H138V117h2.21v.45H138v1.78h-.48V114.3H137a7.87,7.87,0,0,1-1,1.53,3.22,3.22,0,0,0-.38-.33,7.48,7.48,0,0,0,1.6-2.78l.47.12c-.13.34-.27.67-.42,1h3.06v.46Z"/><path class="cls-7" d="M143.1,115.92a4.83,4.83,0,0,1-1.44,3.44l-.39-.21a4.52,4.52,0,0,0,0-6.46l.39-.2A4.79,4.79,0,0,1,143.1,115.92Z"/><path class="cls-7" d="M224,61.63V57a3.5,3.5,0,0,1-1.14.54v-.46a3.83,3.83,0,0,0,1.27-.78h.43v5.33Z"/><path class="cls-7" d="M226.17,57.56a1.49,1.49,0,0,1,1.61-1.32,1.36,1.36,0,0,1,1.53,1.35,1.1,1.1,0,0,1-.72,1.1v0a1.32,1.32,0,0,1,1,1.36,1.61,1.61,0,0,1-1.78,1.66A1.63,1.63,0,0,1,226,60.29h.55a1.19,1.19,0,0,0,1.24,1A1.09,1.09,0,0,0,229,60.08c0-.78-.5-1.11-1.25-1.11h-.35V58.5h.28c.76,0,1.09-.3,1.09-.9a.87.87,0,0,0-1-.88,1,1,0,0,0-1.06.84Z"/><path class="cls-7" d="M230.76,57.56a1.48,1.48,0,0,1,1.61-1.32,1.36,1.36,0,0,1,1.53,1.35,1.09,1.09,0,0,1-.73,1.1v0a1.31,1.31,0,0,1,1,1.36,1.6,1.6,0,0,1-1.78,1.66,1.63,1.63,0,0,1-1.76-1.44h.55a1.2,1.2,0,0,0,1.24,1,1.09,1.09,0,0,0,1.18-1.17c0-.78-.5-1.11-1.25-1.11H232V58.5h.28c.75,0,1.09-.3,1.09-.9a.87.87,0,0,0-1-.88,1,1,0,0,0-1.06.84Z"/><path class="cls-7" d="M238.85,59c0,1.25-.34,2.78-1.78,2.78s-1.78-1.41-1.78-2.75.4-2.74,1.8-2.74S238.85,57.65,238.85,59Zm-3,0c0,1,.19,2.25,1.19,2.25s1.2-1.18,1.2-2.29-.19-2.23-1.17-2.23S235.88,57.82,235.88,59Z"/><path class="cls-7" d="M227.85,26.37h-2.24c-.06.48-.2,1.39-.26,1.7a1.41,1.41,0,0,1,1.16-.48,1.55,1.55,0,0,1,1.58,1.75,1.71,1.71,0,0,1-1.76,1.92,1.61,1.61,0,0,1-1.71-1.4h.56a1.14,1.14,0,0,0,1.17.93c.79,0,1.18-.56,1.18-1.41s-.32-1.31-1.1-1.31a1.13,1.13,0,0,0-1.19.76l-.52-.12c.16-.7.36-2.19.43-2.83h2.78Z"/><path class="cls-7" d="M229.4,27.1a1.48,1.48,0,0,1,1.6-1.32,1.37,1.37,0,0,1,1.54,1.35,1.1,1.1,0,0,1-.73,1.1v0a1.31,1.31,0,0,1,1,1.35A1.6,1.6,0,0,1,231,31.26a1.63,1.63,0,0,1-1.76-1.43h.55a1.2,1.2,0,0,0,1.24,1,1.09,1.09,0,0,0,1.18-1.18c0-.78-.5-1.11-1.25-1.11h-.35V28h.28c.76,0,1.09-.31,1.09-.9a.87.87,0,0,0-1-.88,1,1,0,0,0-1.06.84Z"/><path class="cls-7" d="M233.84,31.17v0a3.34,3.34,0,0,1,1.61-2.33c.88-.69,1.11-.9,1.11-1.53a.92.92,0,0,0-1-1c-.68,0-1,.34-1.15,1h-.54a1.59,1.59,0,0,1,1.69-1.53,1.44,1.44,0,0,1,1.59,1.47c0,.81-.35,1.1-1.33,1.88a3.86,3.86,0,0,0-1.34,1.54h2.88l-.09.5Z"/><path class="cls-7" d="M227.94,109.85h-2.25c-.05.48-.2,1.39-.26,1.7a1.44,1.44,0,0,1,1.17-.48,1.55,1.55,0,0,1,1.58,1.75,1.72,1.72,0,0,1-1.76,1.92,1.61,1.61,0,0,1-1.71-1.4h.56a1.14,1.14,0,0,0,1.17.93c.78,0,1.17-.56,1.17-1.41s-.31-1.31-1.09-1.31a1.15,1.15,0,0,0-1.2.76l-.51-.12c.16-.7.35-2.19.43-2.83H228Z"/><path class="cls-7" d="M229.17,114.65v0a3.34,3.34,0,0,1,1.61-2.33c.88-.69,1.12-.9,1.12-1.53a.93.93,0,0,0-1-1c-.69,0-1,.34-1.16,1.05h-.54a1.6,1.6,0,0,1,1.7-1.53,1.43,1.43,0,0,1,1.58,1.47c0,.81-.35,1.1-1.32,1.88a3.76,3.76,0,0,0-1.35,1.54h2.88l-.08.5Z"/><path class="cls-7" d="M234.29,113.54a1,1,0,0,0,1,.72c1.13,0,1.22-1.58,1.24-2.27a1.36,1.36,0,0,1-1.33.7,1.56,1.56,0,0,1-1.58-1.68,1.66,1.66,0,0,1,1.72-1.75c1.25,0,1.74,1,1.74,2.43s-.26,3-1.81,3a1.46,1.46,0,0,1-1.57-1.19Zm-.08-2.54a1.07,1.07,0,0,0,1.09,1.21,1,1,0,0,0,1.17-1.18,1.17,1.17,0,0,0-1.14-1.29C234.55,109.74,234.21,110.3,234.21,111Z"/><path class="cls-7" d="M224,86.83V82.2a3.53,3.53,0,0,1-1.14.55v-.47a3.79,3.79,0,0,0,1.27-.77h.43v5.32Z"/><path class="cls-7" d="M229.74,84.15c0,1.26-.34,2.78-1.79,2.78s-1.78-1.41-1.78-2.74.4-2.74,1.81-2.74S229.74,82.85,229.74,84.15Zm-3,0c0,1,.2,2.26,1.19,2.26s1.21-1.18,1.21-2.3-.2-2.22-1.18-2.22S226.76,83,226.76,84.19Z"/><path class="cls-7" d="M231.52,85.73a1,1,0,0,0,1,.71c1.13,0,1.21-1.57,1.24-2.26a1.37,1.37,0,0,1-1.33.7,1.56,1.56,0,0,1-1.58-1.68,1.66,1.66,0,0,1,1.72-1.75c1.25,0,1.74,1,1.74,2.43s-.26,3-1.82,3A1.45,1.45,0,0,1,231,85.73Zm-.08-2.55a1.07,1.07,0,0,0,1.09,1.21,1,1,0,0,0,1.17-1.18,1.17,1.17,0,0,0-1.14-1.28C231.78,81.93,231.44,82.48,231.44,83.18Z"/><path class="cls-7" d="M235.45,86.83v0c0-.71.54-1.51,1.61-2.34.88-.68,1.11-.89,1.11-1.52a.93.93,0,0,0-1-1c-.68,0-1,.35-1.15,1.06h-.54a1.59,1.59,0,0,1,1.69-1.53,1.43,1.43,0,0,1,1.59,1.46c0,.82-.35,1.11-1.33,1.89a3.73,3.73,0,0,0-1.34,1.54H239l-.09.49Z"/><line class="cls-5" x1="154.65" y1="8.16" x2="154.65" y2="128.11"/><line class="cls-6" x1="154.68" x2="154.62" y2="10.94"/><line class="cls-6" x1="205.53" x2="205.66" y2="14.28"/><path class="cls-8" d="M19.39,6H16.77V5.57h2.62Zm2.44,2.53a5.39,5.39,0,0,0,1.6,1.68,1.86,1.86,0,0,0-.33.36A6.35,6.35,0,0,1,21.57,8.8v2.12H21.1V8.86a5.19,5.19,0,0,1-1.61,1.73,2.21,2.21,0,0,0-.29-.33v.22H17.49v.34h-.42V8.4H19.2v1.8a4.63,4.63,0,0,0,1.66-1.71H19.39V8.06H21.1V7.42H19.67V4.64H23V7.42H21.57v.64h1.69v.43Zm-2.68-1.6H17.07V6.51h2.08Zm-2.08.55h2.08v.39H17.07Zm1.71,1.37H17.49v1.26h1.29Zm-.65-3.35a6.23,6.23,0,0,0-.53-1L18,4.31a6.31,6.31,0,0,1,.56.92Zm2,.37h1V5h-1Zm0,1.2h1V6.22h-1Zm2.48-2h-1v.79h1Zm0,1.18h-1V7h1Z"/><path class="cls-8" d="M26.79,8.61c-.1-.22-.37-.67-.58-1v3.34h-.46V7.6a8.42,8.42,0,0,1-1,2,3.47,3.47,0,0,0-.25-.46,7.79,7.79,0,0,0,1.15-2.33h-1V6.4h1.13V5.18c-.31.07-.61.12-.89.17A1.37,1.37,0,0,0,24.71,5a8.55,8.55,0,0,0,2-.58l.29.39a4.78,4.78,0,0,1-.81.28V6.4h.95v.45h-.95v.21a14.26,14.26,0,0,1,.86,1.15Zm4.37,1.69v.44H27V10.3h1.87v-1H27.41V8.86h1.47V8c-.43,0-.85.08-1.24.1a1.82,1.82,0,0,0-.13-.37,15.32,15.32,0,0,0,2.85-.42l.33.36a9.12,9.12,0,0,1-1.33.27v1h1.49v.42H29.36v1ZM30.75,7H27.49V4.71h3.26Zm-.47-1.84H27.94V6.54h2.34Z"/><path class="cls-8" d="M34.69,9.08a7.66,7.66,0,0,1-1.61,1.56,2.73,2.73,0,0,0-.42-.32,6.18,6.18,0,0,0,1.56-1.4ZM37.6,4.73A23.16,23.16,0,0,1,32.89,6a1.32,1.32,0,0,0-.15-.39,21.76,21.76,0,0,0,4.5-1.27ZM36,8.49v1.83c0,.28-.07.41-.28.5a4.4,4.4,0,0,1-1.11.08,1.6,1.6,0,0,0-.19-.47h.94c.12,0,.15,0,.15-.12V8.53A11.77,11.77,0,0,0,33,8.8a2.24,2.24,0,0,0-.15-.46,3.82,3.82,0,0,0,1-.35,18.46,18.46,0,0,0,1.69-.88,12.26,12.26,0,0,0-2.12.18,3.94,3.94,0,0,0-.15-.45,1.76,1.76,0,0,0,.58-.23,9.63,9.63,0,0,0,1.7-1.14l.42.26a12.44,12.44,0,0,1-1.6,1l1.9-.1c.28-.18.56-.37.82-.56l.38.31a19.91,19.91,0,0,1-3.15,1.76L37.65,8c-.25-.26-.5-.52-.75-.74l.4-.2A11.56,11.56,0,0,1,38.78,8.6l-.4.25a6.21,6.21,0,0,0-.4-.5Zm1.07.37a14.81,14.81,0,0,1,1.66,1.43l-.4.29A14.79,14.79,0,0,0,36.71,9.1Z"/><path class="cls-8" d="M40.38,4.73H44V5.2h-2c-.09.39-.2.77-.32,1.14h1.68l.08,0,.29.09c-.36,2.49-1.49,3.87-3,4.55a1.85,1.85,0,0,0-.29-.4A4.06,4.06,0,0,0,42.39,9,12.86,12.86,0,0,0,41,7.93c-.12.17-.24.35-.37.5a1.62,1.62,0,0,0-.32-.38A6.86,6.86,0,0,0,41.58,5.2h-1.2Zm1.19,2.06a6.21,6.21,0,0,1-.34.74A13.46,13.46,0,0,1,42.65,8.6a6.53,6.53,0,0,0,.63-1.81ZM45,9.19h-.47v-4H45Zm1.49-4.83v5.91c0,.32-.08.46-.28.54a3.38,3.38,0,0,1-1.07.09,2.9,2.9,0,0,0-.16-.47h.88c.11,0,.16,0,.16-.16V4.36Z"/><path class="cls-8" d="M96.57,6.24H94v-.4h2.62ZM99,8.77a5.61,5.61,0,0,0,1.6,1.68,1.61,1.61,0,0,0-.33.36,6.25,6.25,0,0,1-1.53-1.74v2.12h-.47V9.13a5.13,5.13,0,0,1-1.61,1.74,1.81,1.81,0,0,0-.29-.33v.21H94.67v.35h-.42V8.68h2.13v1.8A4.7,4.7,0,0,0,98,8.77H96.57V8.34h1.71V7.7H96.85V4.92h3.37V7.7H98.75v.64h1.69v.43ZM96.32,7.16H94.25V6.78h2.07Zm-2.07.55h2.07V8.1H94.25ZM96,9.08H94.67v1.27H96Zm-.65-3.35a6.73,6.73,0,0,0-.53-1l.37-.19a7.4,7.4,0,0,1,.56.93Zm2,.38h1v-.8h-1Zm0,1.19h1V6.5h-1Zm2.48-2h-1v.8h1Zm0,1.19h-1v.8h1Z"/><path class="cls-8" d="M104,8.89a11,11,0,0,0-.58-1V11.2h-.46V7.87a8.7,8.7,0,0,1-1,2.05,2.55,2.55,0,0,0-.25-.46,7.92,7.92,0,0,0,1.15-2.33h-1V6.67h1.13V5.45c-.31.07-.61.12-.89.17a1.66,1.66,0,0,0-.15-.38,9.08,9.08,0,0,0,2-.57l.29.39a4,4,0,0,1-.81.27V6.67h1v.46h-1v.2a14.32,14.32,0,0,1,.86,1.16Zm4.37,1.69V11h-4.15v-.43h1.87v-1h-1.47V9.13h1.47V8.22c-.43,0-.85.09-1.25.11a1.29,1.29,0,0,0-.12-.38,14.53,14.53,0,0,0,2.85-.42l.33.36a8,8,0,0,1-1.33.27v1H108v.43h-1.49v1Zm-.41-3.34h-3.26V5h3.26Zm-.47-1.84h-2.34V6.82h2.34Z"/><path class="cls-8" d="M115.37,11.19h-.48V10.8h-3.3v.39h-.48V8.78a11.25,11.25,0,0,1-1.22.36,1.36,1.36,0,0,0-.24-.44,10.55,10.55,0,0,0,2.77-1A15.82,15.82,0,0,0,111,6.51a6.25,6.25,0,0,1-.84.51,1.88,1.88,0,0,0-.33-.36,5.94,5.94,0,0,0,2.42-2.07l.54.11a5.53,5.53,0,0,1-.48.63h2.63l.09,0,.32.2a6.73,6.73,0,0,1-2.94,2.71h3Zm-3.48-5.41c-.16.15-.34.31-.53.46a14,14,0,0,1,1.5,1.18,6,6,0,0,0,1.77-1.64Zm3,4.58V8.66h-3.3v1.7Z"/><path class="cls-8" d="M119.62,8.87c-.12-.19-.41-.58-.65-.88v3.23h-.46V8a7.65,7.65,0,0,1-.9,1.92,1.94,1.94,0,0,0-.25-.42,8,8,0,0,0,1.07-2.35h-1V6.69h1.07V5.52c-.32.07-.65.13-1,.17a1.48,1.48,0,0,0-.14-.36,9.2,9.2,0,0,0,2.09-.56l.37.33a5.9,5.9,0,0,1-.9.31V6.69h1v.45h-1v.38c.19.18.8.83.94,1Zm4.46.9h-.42v.9c0,.25-.06.37-.23.44a2.59,2.59,0,0,1-.92.09,2.56,2.56,0,0,0-.17-.43c.34,0,.66,0,.74,0s.13,0,.13-.12V9.77h-2.54v1.42h-.44V9.77h-.54V9.36h.54V7.13h1.45V6.74h.44v.39h1.54V9.36h.42Zm-.37-4.71a18,18,0,0,1-3.6.56,1.24,1.24,0,0,0-.11-.36,17.74,17.74,0,0,0,3.41-.55Zm-2.95,1.75a4.67,4.67,0,0,0-.6-1l.38-.16a4.37,4.37,0,0,1,.63,1Zm-.09.72v.72h1V7.53Zm0,1.83h1V8.63h-1Zm1.21-2.69a4.06,4.06,0,0,0-.45-1l.37-.13a3.14,3.14,0,0,1,.48.92Zm.24.86v.72h1.09V7.53Zm1.09,1.83V8.63h-1.09v.73Zm.46-3.84a5.62,5.62,0,0,1-.86,1.25,3.13,3.13,0,0,0-.41-.21,4.54,4.54,0,0,0,.84-1.15Z"/><path class="cls-8" d="M163,8.62c0-.12-.06-.26-.1-.42a7.94,7.94,0,0,0-1.87.42c0-.1-.1-.31-.15-.43.14,0,.3-.22.51-.48s.35-.47.63-.91a3.88,3.88,0,0,0-1,.2c0-.1-.1-.32-.15-.44.11,0,.23-.18.36-.4A8.76,8.76,0,0,0,162,4.32l.44.18a10.23,10.23,0,0,1-1,2l.81-.08c.18-.31.36-.65.52-1l.41.2a14,14,0,0,1-1.61,2.43l1.2-.21c-.07-.21-.16-.44-.23-.63l.35-.1a9.82,9.82,0,0,1,.47,1.38ZM161.63,9a9.75,9.75,0,0,1-.42,1.73,2.2,2.2,0,0,0-.36-.13,6.7,6.7,0,0,0,.4-1.67Zm.64-.08c.08.49.16,1.12.19,1.54l-.37.08A11.37,11.37,0,0,0,161.91,9Zm.63-.15a9.1,9.1,0,0,1,.34,1.25l-.35.1a13,13,0,0,0-.32-1.26Zm.31,1.57a5.91,5.91,0,0,0,.49-1.47l.35.13a6.93,6.93,0,0,1-.49,1.52Zm3.85-2h-3.35V5h1c.09-.22.21-.52.27-.73l.48.1c-.1.22-.22.45-.32.63h1.95Zm-.44-2.91h-2.48V7.94h2.48ZM166,10.37c.24,0,.29-.1.31-.78a1,1,0,0,0,.37.16c0,.8-.17,1-.63,1h-1.09c-.57,0-.71-.12-.71-.56V8.88h.41v1.29c0,.16,0,.2.33.2Zm.21-2.71a6.33,6.33,0,0,0-.47-.6,4.62,4.62,0,0,1-.91.78,1,1,0,0,0-.23-.23,4.47,4.47,0,0,0,.93-.78l-.34-.35a3.52,3.52,0,0,1-.64.56,1.7,1.7,0,0,0-.24-.22,3.93,3.93,0,0,0,.65-.55,5.92,5.92,0,0,0-.47-.42l.28-.18.4.34a2.7,2.7,0,0,0,.31-.47l.35,0a4.37,4.37,0,0,1-.42.64l.35.34a4.63,4.63,0,0,0,.42-.64l.35.05a4.43,4.43,0,0,1-.56.82c.21.24.4.47.53.65Zm-.43,2.13a12.45,12.45,0,0,0-.69-1.16l.33-.15c.24.35.55.83.7,1.11Zm1.07-.94a13.49,13.49,0,0,1,.64,1.38l-.37.17A11.72,11.72,0,0,0,166.46,9Z"/><path class="cls-8" d="M174.13,7.89a4.52,4.52,0,0,1-1.69,1.83,8.75,8.75,0,0,0,2.72.74,2.08,2.08,0,0,0-.3.45A8.32,8.32,0,0,1,172,10a9.78,9.78,0,0,1-2.95.92,2.54,2.54,0,0,0-.27-.43,9.35,9.35,0,0,0,2.75-.76A5.07,5.07,0,0,1,170,8.17l0,0h-.3V7.71h4l.1,0Zm-4.78,0h-.46V6.41h4.36A9.86,9.86,0,0,0,174,5.15l.47.16a12.05,12.05,0,0,1-.69,1.1H175V7.87h-.47v-1h-5.2Zm5.23-3.17a38.45,38.45,0,0,1-5.5.56,1.59,1.59,0,0,0-.12-.41,37,37,0,0,0,5.29-.54ZM170,5.3a4.09,4.09,0,0,1,.53,1l-.43.14a4.3,4.3,0,0,0-.51-1Zm.54,2.85A4.44,4.44,0,0,0,172,9.47a4,4,0,0,0,1.44-1.32Zm1.33-1.8a4.13,4.13,0,0,0-.37-1.09l.43-.09a4.18,4.18,0,0,1,.4,1.07Z"/><path class="cls-8" d="M179.07,6h-2.59V5.57h2.59Zm-.25.93h-2V6.51h2Zm-2,.55h2v.39h-2Zm.41,3v.34h-.41V8.4h2.11v2.08Zm0-1.67v1.26h1.27V8.81Zm.64-3.35a5.49,5.49,0,0,0-.53-1l.36-.19a7,7,0,0,1,.57.92Zm2-.94h.46V7a6.19,6.19,0,0,1-1,3.92,2.39,2.39,0,0,0-.41-.26A5.63,5.63,0,0,0,179.77,7Zm1.27.29h.44V10.2H181Zm1.79-.34v6.46h-.47V4.47Z"/><path class="cls-8" d="M187.86,4.36c0,.25,0,.61-.05,1,.11.84.55,3.92,3.11,5.06a1.5,1.5,0,0,0-.35.41,5.93,5.93,0,0,1-3-4.1,5.75,5.75,0,0,1-2.9,4.12,1.85,1.85,0,0,0-.37-.37c3-1.5,3-5.08,3-6.16Z"/><path class="cls-8" d="M194.45,8.94h-2.27V8.46h2.27Zm-.23-3h-1.88V5.49h1.88Zm2.11,1c0,.11,0,.23,0,.36a3.93,3.93,0,0,0,2.41,3.17,2.22,2.22,0,0,0-.32.42,3.9,3.9,0,0,1-2.24-2.56,4,4,0,0,1-2.25,2.63,2.58,2.58,0,0,0-.36-.38,3.67,3.67,0,0,0,2.26-3.65V6.38h.51Zm-1.15-.86a6.73,6.73,0,0,1-.76,1.52,3,3,0,0,0-.47-.27,7.36,7.36,0,0,0,1.16-3l.52.09c-.09.4-.19.79-.3,1.16H198l.09,0,.35.19a10.37,10.37,0,0,1-.75,1.93l-.41-.21a7.53,7.53,0,0,0,.56-1.41Z"/><path class="cls-8" d="M214.35,8.62c0-.12-.06-.26-.1-.42a8.41,8.41,0,0,0-1.88.42c0-.1-.1-.31-.15-.43.15,0,.31-.22.52-.48s.35-.47.63-.91a4.18,4.18,0,0,0-1.05.2l-.14-.44c.11,0,.23-.18.36-.4a8.76,8.76,0,0,0,.86-1.84l.43.18a10.8,10.8,0,0,1-1,2l.81-.08c.18-.31.36-.65.52-1l.4.2a13.45,13.45,0,0,1-1.6,2.43l1.2-.21c-.07-.21-.16-.44-.23-.63l.35-.1a8.55,8.55,0,0,1,.46,1.38ZM213,9a9.71,9.71,0,0,1-.43,1.73,1.81,1.81,0,0,0-.35-.13,7.17,7.17,0,0,0,.4-1.67Zm.63-.08c.09.49.17,1.12.2,1.54l-.37.08A11.37,11.37,0,0,0,213.27,9Zm.64-.15a9,9,0,0,1,.33,1.25l-.34.1c-.06-.34-.21-.86-.32-1.26Zm.31,1.57a6.35,6.35,0,0,0,.49-1.47l.34.13a6.42,6.42,0,0,1-.48,1.52Zm3.85-2h-3.35V5h1c.1-.22.21-.52.28-.73l.48.1c-.11.22-.22.45-.32.63h1.95ZM218,5.43H215.5V7.94H218Zm-.66,4.94c.24,0,.28-.1.31-.78a1,1,0,0,0,.37.16c-.05.8-.17,1-.64,1h-1.09c-.56,0-.71-.12-.71-.56V8.88H216v1.29c0,.16.05.2.33.2Zm.2-2.71a4.84,4.84,0,0,0-.46-.6,4.62,4.62,0,0,1-.91.78,1,1,0,0,0-.23-.23,4.17,4.17,0,0,0,.92-.78l-.33-.35a3.89,3.89,0,0,1-.64.56,1.7,1.7,0,0,0-.24-.22,3.93,3.93,0,0,0,.65-.55,5.92,5.92,0,0,0-.47-.42l.27-.18c.14.11.28.22.41.34a2.7,2.7,0,0,0,.31-.47l.35,0a5.38,5.38,0,0,1-.42.64l.35.34a4.63,4.63,0,0,0,.42-.64l.35.05a5,5,0,0,1-.56.82,7,7,0,0,1,.52.65Zm-.42,2.13c-.15-.28-.44-.79-.69-1.16l.33-.15c.24.35.55.83.7,1.11Zm1.07-.94a13.25,13.25,0,0,1,.63,1.38l-.36.17A13.56,13.56,0,0,0,217.82,9Z"/><path class="cls-8" d="M225.49,7.89a4.47,4.47,0,0,1-1.7,1.83,8.82,8.82,0,0,0,2.72.74,2.45,2.45,0,0,0-.29.45,8.38,8.38,0,0,1-2.9-.92,9.63,9.63,0,0,1-2.94.92,2.54,2.54,0,0,0-.27-.43,9.44,9.44,0,0,0,2.75-.76,5.07,5.07,0,0,1-1.51-1.55l0,0h-.3V7.71h4l.1,0Zm-4.78,0h-.46V6.41h4.36a8.71,8.71,0,0,0,.7-1.26l.48.16a12.05,12.05,0,0,1-.69,1.1h1.28V7.87h-.47v-1h-5.2Zm5.23-3.17a38.45,38.45,0,0,1-5.5.56,1.59,1.59,0,0,0-.12-.41,36.72,36.72,0,0,0,5.28-.54Zm-4.61.6a4.48,4.48,0,0,1,.53,1l-.43.14a5.26,5.26,0,0,0-.51-1Zm.54,2.85a4.25,4.25,0,0,0,1.46,1.32,4.08,4.08,0,0,0,1.44-1.32Zm1.33-1.8a4.13,4.13,0,0,0-.37-1.09l.43-.09a4.18,4.18,0,0,1,.4,1.07Z"/><path class="cls-8" d="M230.43,6h-2.59V5.57h2.59Zm-.25.93h-2.05V6.51h2.05Zm-2.05.55h2.05v.39h-2.05Zm.41,3v.34h-.41V8.4h2.11v2.08Zm0-1.67v1.26h1.27V8.81Zm.63-3.35a4.82,4.82,0,0,0-.52-1l.36-.19a6,6,0,0,1,.56.92Zm2-.94h.45V7a6.19,6.19,0,0,1-1,3.92,2.39,2.39,0,0,0-.41-.26A5.63,5.63,0,0,0,231.13,7Zm1.27.29h.44V10.2h-.44Zm1.79-.34v6.46h-.47V4.47Z"/><path class="cls-8" d="M237.93,9.51h-1.57v.57h-.45V4.81h2Zm-1.57-4.26V6.91h1.12V5.25Zm1.12,3.82V7.35h-1.12V9.07Zm2.89-3.42v1H242v.43h-.65v.83h.86v.43h-.86v2c0,.29-.08.43-.29.5a3.92,3.92,0,0,1-1.16.09,1.8,1.8,0,0,0-.16-.46c.46,0,.87,0,1,0s.16,0,.16-.15v-2H238.1V7.89h2.76V7.06H238.4V6.63h1.5v-1h-1.84V5.22h1.84V4.33h.47v.89h1.85v.43ZM239,8.6a5.82,5.82,0,0,1,1,1.25l-.41.26a6.4,6.4,0,0,0-.93-1.28Z"/><path class="cls-8" d="M246.65,9.06a1.62,1.62,0,0,1-.64,1,8.44,8.44,0,0,1,.85.42l-.33.29a8.88,8.88,0,0,0-.89-.47,7.24,7.24,0,0,1-2,.64,1.32,1.32,0,0,0-.2-.32,7.61,7.61,0,0,0,1.79-.51A10.11,10.11,0,0,0,244,9.67a4.83,4.83,0,0,0,.37-.49l-.87.05,0-.37,1.18,0c.12-.2.24-.39.34-.59h-1.2V7.07h1.38V6.75H244V6h-.48V5.59H244V4.85h1.17V4.33h.39v.52h1.24v.74h.49V6h-.49v.79h-1.24v.32H247V8.22h-1.54a5.45,5.45,0,0,1-.32.57l1.15-.06V8.37h.4v.34l.39,0V9Zm-2.42-1.17h1V7.4h-1Zm.2-2.7V5.6h.76V5.19Zm.76,1.21V5.94h-.76V6.4Zm-.28,2.76-.25.33c.31.1.64.23,1,.36a1.43,1.43,0,0,0,.61-.77Zm.67-4V5.6h.81V5.19Zm.81,1.21V5.94h-.81V6.4Zm-.81,1v.49h1V7.4Zm3.93-1.24A10.51,10.51,0,0,1,248.86,9a3.53,3.53,0,0,0,1.23,1.55,1.41,1.41,0,0,0-.3.34,3.72,3.72,0,0,1-1.15-1.42A4.26,4.26,0,0,1,247.32,11a1.1,1.1,0,0,0-.27-.36,3.9,3.9,0,0,0,1.37-1.68,10.54,10.54,0,0,1-.55-2,5.85,5.85,0,0,1-.4.87,3.31,3.31,0,0,0-.34-.3,8.72,8.72,0,0,0,.94-3.1l.41.07a12.76,12.76,0,0,1-.25,1.26H250v.44Zm-1.39,0a12,12,0,0,0,.51,2.22,10.36,10.36,0,0,0,.45-2.22Z"/><path class="cls-9" d="M223.31,136.64h-2.54v.89h-.41v-.89h-2.5v-.36h2.5v-.51h-1.87v-2.13h4.25v2.13h-2v.51h2.54Zm-3-3.32h-2v-1.19h2Zm-.39-.9h-1.23V133h1.23Zm-1.05,2.13h1.47V134h-1.47Zm1.47.89v-.57h-1.47v.57Zm1.95-1.46h-1.54v.57h1.54Zm0,.89h-1.54v.57h1.54Zm.56-1.55h-2v-1.19h2Zm-.38-.9h-1.26V133h1.26Z"/><path class="cls-9" d="M226.37,132a10.84,10.84,0,0,1-.64,1.33v4.17h-.41V134a5.86,5.86,0,0,1-.66.8,2.73,2.73,0,0,0-.23-.4,7.23,7.23,0,0,0,1.55-2.48Zm3.69,4.86v.39h-3.87v-.39h2.18a26.76,26.76,0,0,0,.6-3.11l.43.08a31,31,0,0,1-.65,3Zm-.26-3.46h-3.33V133h3.33Zm-2.49,3.15a21.54,21.54,0,0,0-.44-2.66l.38-.08a22.1,22.1,0,0,1,.47,2.63Zm.7-3.63a7.53,7.53,0,0,0-.29-1l.38-.11c.12.31.25.71.32,1Z"/><path class="cls-9" d="M232,133.22a.45.45,0,1,1,.44.44A.43.43,0,0,1,232,133.22Zm0,3a.45.45,0,0,1,.89,0,.45.45,0,1,1-.89,0Z"/><path class="cls-9" d="M237.77,131.91c0,.21,0,.52,0,.89.09.72.47,3.36,2.66,4.34a1.36,1.36,0,0,0-.3.34,5.07,5.07,0,0,1-2.54-3.51,5,5,0,0,1-2.48,3.53,1.41,1.41,0,0,0-.33-.31c2.58-1.29,2.56-4.35,2.58-5.28Z"/><path class="cls-9" d="M243.1,132.16h.38l-1.92,6h-.37Z"/><path class="cls-9" d="M245.79,133.51a6.9,6.9,0,0,1-1.13,2.68,2.88,2.88,0,0,0-.38-.22,5.84,5.84,0,0,0,1.06-2.54Zm1.6-1.53v5c0,.31-.09.44-.3.52a5.24,5.24,0,0,1-1.16.07,1.85,1.85,0,0,0-.17-.42h1c.13,0,.18,0,.18-.17v-5Zm1.43,1.4a9.79,9.79,0,0,1,1.24,2.73l-.43.18a10.68,10.68,0,0,0-1.19-2.76Z"/><path class="cls-9" d="M253,136.32h-1.34v.49h-.39V132.3H253Zm-1.34-3.64v1.42h.95v-1.42Zm.95,3.26v-1.47h-.95v1.47Zm2.48-2.92v.83h1.37v.37h-.55v.72h.74v.36h-.74V137c0,.25-.07.37-.25.43a3.27,3.27,0,0,1-1,.08,1.53,1.53,0,0,0-.14-.39c.39,0,.74,0,.84,0s.13,0,.13-.12V135.3H253.1v-.36h2.36v-.72h-2.1v-.37h1.29V133h-1.58v-.38h1.58v-.76h.4v.76h1.58V133Zm-1.22,2.52a5.57,5.57,0,0,1,.82,1.07l-.36.22a6.16,6.16,0,0,0-.79-1.09Z"/></svg>