<?xml version="1.0" encoding="utf-8"?>
<!-- Generator: Adobe Illustrator 26.3.1, SVG Export Plug-In . SVG Version: 6.00 Build 0)  -->
<svg version="1.1" id="圖層_1" xmlns="http://www.w3.org/2000/svg" xmlns:xlink="http://www.w3.org/1999/xlink" x="0px" y="0px"
	 viewBox="0 0 257.5 143.6" style="enable-background:new 0 0 257.5 143.6;" xml:space="preserve">
<style type="text/css">
	.st0{fill:none;stroke:#A27DD7;stroke-width:0.13;stroke-miterlimit:10;}
	.st1{fill:none;stroke:#A27DD7;stroke-width:0.11;stroke-miterlimit:10;}
	.st2{fill:none;stroke:#A27DD7;stroke-width:0.12;stroke-miterlimit:10;}
	.st3{fill:#BF6DBF;}
	.st4{fill:none;stroke:#A27DD7;stroke-width:7.000000e-02;stroke-miterlimit:10;}
	.st5{fill:none;stroke:#FFFFFF;stroke-width:0.5;stroke-miterlimit:10;}
	.st6{enable-background:new    ;}
	.st7{fill:#49494B;}
	.st8{fill:#FFFFFF;}
	.st9{fill:#4B4949;}
</style>
<g id="圖層_2_00000090288979418276612780000018374911948704434328_">
	<g id="圖層_1-2">
		<rect x="0.1" y="0.1" class="st0" width="257.1" height="128.1"/>
		<line class="st1" x1="64.3" y1="44.2" x2="257.2" y2="44.2"/>
		<line class="st2" x1="0.1" y1="70.5" x2="257.2" y2="70.5"/>
		<line class="st1" x1="64.3" y1="96.8" x2="257.2" y2="96.8"/>
		<rect x="0.1" y="0" class="st3" width="64.2" height="14.3"/>
		<line class="st4" x1="64.3" y1="11" x2="64.3" y2="128.1"/>
		<line class="st4" x1="205.8" y1="8.2" x2="205.8" y2="128.1"/>
		<rect x="64.2" y="0.1" class="st3" width="192.9" height="14.2"/>
		<line class="st5" x1="64.3" y1="0" x2="64.3" y2="14.3"/>
		<g class="st6">
			<path class="st7" d="M10.7,21.8c-0.1,0.5-0.3,1-0.5,1.5v4.9H9.7v-4c-0.2,0.3-0.4,0.7-0.6,0.9c0-0.1-0.2-0.4-0.3-0.5
				c0.6-0.7,1.1-1.9,1.4-3L10.7,21.8z M12.6,23.4h-2V23h2V23.4z M10.8,25.9h1.8v2.2h-0.4v-0.3h-1v0.4h-0.4V25.9z M12.5,24.3h-1.6
				v-0.4h1.6V24.3z M10.9,24.9h1.6v0.4h-1.6V24.9z M11.7,22.8c-0.1-0.2-0.3-0.6-0.5-0.8l0.3-0.2c0.2,0.2,0.4,0.6,0.5,0.8L11.7,22.8z
				 M11.2,26.3v1.1h1v-1.1H11.2z M14.3,24.4c-0.2,0.3-0.4,0.5-0.6,0.8h1.6v3.1h-0.4v-0.3h-1.2v0.3h-0.4v-2.7
				c-0.2,0.2-0.4,0.3-0.6,0.4c-0.1-0.1-0.2-0.3-0.3-0.3c0.5-0.3,1-0.8,1.4-1.3h-1.1V24h0.9v-1h-0.8v-0.4h0.8v-0.8H14v0.8h0.7V23H14
				v1h0.2c0.4-0.6,0.7-1.3,1-2l0.4,0.1c-0.2,0.7-0.5,1.4-0.9,1.9h1v0.4H14.3z M14.9,25.5h-1.2v0.8h1.2V25.5z M14.9,27.5v-0.8h-1.2
				v0.8H14.9z"/>
			<path class="st7" d="M18.7,21.8c-0.2,0.5-0.3,1-0.6,1.5v5h-0.5v-4c-0.2,0.3-0.4,0.6-0.6,0.9c0-0.1-0.2-0.4-0.3-0.5
				c0.6-0.7,1.1-1.8,1.5-3L18.7,21.8z M20.2,24.1c-0.1,0.2-0.3,0.4-0.5,0.6H23v3.1c0,0.2,0,0.3-0.2,0.4c-0.1,0.1-0.4,0.1-0.7,0.1
				c0-0.1-0.1-0.3-0.2-0.4c0.2,0,0.4,0,0.5,0c0.1,0,0.1,0,0.1-0.1v-0.6h-1.2v0.9h-0.4v-0.9h-1.3c-0.1,0.4-0.2,0.8-0.5,1.1
				C19,28.2,18.8,28,18.7,28c0.4-0.6,0.5-1.3,0.5-1.9v-0.8c-0.2,0.2-0.4,0.3-0.7,0.5c0-0.1-0.2-0.3-0.3-0.4c0.5-0.3,1.1-0.7,1.5-1.2
				h-1.1v-0.4h1.3v-0.7h-1.1v-0.4h1.1v-0.7h0.5v0.7h1.3v-0.7h0.5v0.7h1v0.4h-1v0.7h1.2v0.4H20.2z M20.9,26.8v-0.7h-1.2
				c0,0.2,0,0.4,0,0.7H20.9z M19.6,25.7h1.2v-0.7h-1.2V25.7z M20.4,23.6h1.3v-0.7h-1.3V23.6z M22.5,25.1h-1.2v0.7h1.2V25.1z
				 M22.5,26.8v-0.7h-1.2v0.7H22.5z"/>
			<path class="st7" d="M29.8,21.7c-0.1,0.2-0.1,0.3-0.2,0.5c0.4,0.7,1.1,1.4,1.7,1.8c-0.1,0.1-0.2,0.2-0.3,0.3
				c-0.5-0.4-1.2-1.1-1.6-1.8c-0.4,0.7-1,1.4-1.6,1.8c-0.1-0.1-0.2-0.2-0.3-0.3v1.9h-1v0.6h1.3V27h-1.3v1.3H26V27h-1.4v-0.4H26v-0.6
				H25v-2.4H26v-0.6h-1.3v-0.4H26v-0.8h0.5v0.8h1.3v0.4h-1.3v0.6h1v0.4c0.7-0.5,1.5-1.4,1.9-2.4L29.8,21.7z M27.1,23.9h-1.7v0.6h1.7
				V23.9z M27.1,24.9h-1.7v0.6h1.7V24.9z M29.7,25.9H31v0.4h-1.3v1.9h-0.5v-1.9h-1.4v-0.4h1.4v-1.2h-1.1v-0.4h2.6v0.4h-1V25.9z"/>
			<path class="st7" d="M35.8,23.1c-0.2,0.4-0.4,0.9-0.6,1.3h1v0.4h-3.8v-0.4h2.2c0.2-0.4,0.4-1,0.5-1.4L35.8,23.1z M36.1,23h-3.4
				v-0.4h1.5c-0.1-0.2-0.2-0.5-0.3-0.8l0.4-0.1c0.1,0.3,0.3,0.6,0.4,0.9h1.4V23z M33,25.6h3v2.5h-0.5v-0.3h-2v0.3H33V25.6z
				 M33.7,24.4c-0.1-0.3-0.3-0.9-0.5-1.3l0.4-0.1c0.2,0.4,0.4,0.9,0.5,1.3L33.7,24.4z M33.4,26v1.4h2V26H33.4z M38.9,22.3
				c-0.3,0.7-0.6,1.5-0.9,2.2c0.7,0.7,0.8,1.2,0.8,1.8c0,0.4-0.1,0.8-0.3,0.9c-0.1,0.1-0.3,0.1-0.4,0.1c-0.2,0-0.4,0-0.6,0
				c0-0.1-0.1-0.3-0.1-0.5c0.2,0,0.4,0,0.6,0c0.1,0,0.2,0,0.3-0.1c0.1-0.1,0.2-0.3,0.2-0.6c0-0.5-0.2-1-0.8-1.7
				c0.3-0.6,0.6-1.4,0.8-2h-1.2v5.7h-0.4v-6.2h1.9l0.1,0L38.9,22.3z"/>
			<path class="st7" d="M41.6,26.3c0.3-0.1,0.6-0.2,0.9-0.3l0.1,0.4c-0.8,0.3-1.6,0.6-2.2,0.9l-0.2-0.5c0.3-0.1,0.6-0.2,0.9-0.3
				v-2.6h-0.9v-0.5h0.9v-1.7h0.4v1.7h0.8v0.5h-0.8V26.3z M46.8,24.5V25h-4.4v-0.4h2.7c0.2-0.4,0.4-1.1,0.5-1.5l0.4,0.1
				c-0.2,0.5-0.4,1-0.5,1.4H46.8z M46.6,22.9h-3.9v-0.4h1.8c0-0.2-0.1-0.5-0.2-0.8l0.4-0.1c0.1,0.3,0.2,0.6,0.2,0.9h1.7V22.9z
				 M43,25.6h3.2v2.6h-0.5v-0.3h-2.3v0.3H43V25.6z M43.6,24.4c-0.1-0.3-0.2-0.9-0.4-1.3l0.4-0.1c0.2,0.4,0.4,0.9,0.4,1.3L43.6,24.4z
				 M43.5,26.1v1.4h2.3v-1.4H43.5z"/>
			<path class="st7" d="M50.7,23.3h-2.6v-0.4h2.6V23.3z M50.4,24.2h-2.1v-0.4h2.1V24.2z M48.4,24.8h2.1v0.4h-2.1V24.8z M48.8,27.8
				v0.3h-0.4v-2.4h2.1v2.1H48.8z M48.8,26.2v1.3H50v-1.3H48.8z M49.4,22.8c-0.1-0.3-0.3-0.7-0.5-1l0.4-0.2c0.2,0.3,0.4,0.7,0.6,0.9
				L49.4,22.8z M51.4,21.9h0.5v2.5c0,1.4-0.1,2.8-1,3.9c-0.1-0.1-0.3-0.2-0.4-0.3c0.8-1.1,0.9-2.3,0.9-3.7V21.9z M52.6,22.2h0.4v5.4
				h-0.4V22.2z M54.4,21.8v6.5H54v-6.5H54.4z"/>
		</g>
		<g class="st6">
			<path class="st7" d="M15.6,99.1h-1.7v1.1c0,0.3-0.1,0.4-0.3,0.5c-0.2,0.1-0.6,0.1-1.2,0.1c0-0.1-0.1-0.3-0.2-0.4c0.5,0,0.9,0,1,0
				c0.1,0,0.2,0,0.2-0.1v-1.1H9.1v-0.4h4.3v-0.5c-1.5,0-3,0.1-4,0.1l0-0.4c0.7,0,1.7,0,2.7,0v-0.4H9.8v-1.9h2.2v-0.4H9.3v-0.4h2.8
				v-0.6h0.5v0.6h2.7v0.4h-2.7v0.4h2.3v1.9h-0.9c0.5,0.2,1.1,0.5,1.4,0.7L15,98.5c-0.1-0.1-0.3-0.2-0.4-0.3l-1.2,0h0.4v0.5h1.7V99.1
				z M10.5,99.1c0.4,0.2,1,0.6,1.2,0.9l-0.3,0.3c-0.3-0.3-0.8-0.7-1.2-0.9L10.5,99.1z M10.3,96.3h1.8v-0.5h-1.8V96.3z M12.1,97.1
				v-0.5h-1.8v0.5H12.1z M12.5,95.9v0.5h1.8v-0.5H12.5z M14.4,96.6h-1.8v0.5h1.8V96.6z M12.5,97.9c0.5,0,1,0,1.5,0
				c-0.2-0.1-0.4-0.2-0.6-0.2l0.2-0.2h-1V97.9z"/>
			<path class="st7" d="M19.5,99.5c-0.5,0.4-1.5,0.8-2.2,0.9c-0.1-0.1-0.2-0.3-0.3-0.4c0.8-0.1,1.7-0.4,2.2-0.7L19.5,99.5z
				 M23.3,98.6V99h-2.9v1.7h-0.5V99H17v-0.4h2.9V98h-2.2v-0.4h2.2v-0.6h-2.6v-0.4h1.6c-0.1-0.2-0.2-0.5-0.4-0.7l0.4-0.1H17v-0.4h1.2
				c-0.1-0.3-0.4-0.7-0.6-1.1l0.4-0.1c0.3,0.3,0.5,0.8,0.6,1.1l-0.4,0.1h0.9v-1.3h0.4v1.3h0.9v-1.3H21v1.3H22l-0.3-0.1
				c0.2-0.3,0.4-0.8,0.6-1.1l0.5,0.1c-0.2,0.4-0.4,0.8-0.6,1.1h1.1v0.4h-1.9l0.4,0.1c-0.2,0.3-0.3,0.5-0.5,0.7H23v0.4h-2.6v0.6h2.3
				V98h-2.3v0.6H23.3z M19,95.8c0.2,0.2,0.3,0.6,0.4,0.8l-0.3,0.1h2l-0.3-0.1c0.2-0.2,0.3-0.5,0.4-0.8H19z M21.1,99.3
				c0.7,0.2,1.6,0.6,2.1,0.8l-0.3,0.3c-0.5-0.2-1.4-0.6-2.1-0.9L21.1,99.3z"/>
			<path class="st7" d="M28.2,94.1c0,0.3,0,0.6-0.1,1c0.1,0.8,0.5,3.9,3.1,5.1c-0.1,0.1-0.3,0.3-0.3,0.4c-1.9-0.9-2.6-2.7-3-4.1
				c-0.3,1.5-1.1,3.2-2.9,4.1c-0.1-0.1-0.2-0.3-0.4-0.4c3-1.5,3-5.1,3-6.2H28.2z"/>
			<path class="st7" d="M38.9,96.1h-2v3.8c0,0.4-0.1,0.5-0.3,0.6c-0.2,0.1-0.7,0.1-1.4,0.1c0-0.1-0.1-0.4-0.2-0.5c0.5,0,1,0,1.2,0
				c0.1,0,0.2-0.1,0.2-0.2v-3.7c-0.8,1.4-2.3,2.8-3.6,3.6c-0.1-0.1-0.2-0.3-0.4-0.4c1.3-0.7,2.7-2,3.5-3.3h-3.3v-0.5h3.7v-1.5h0.5
				v1.5h2V96.1z"/>
			<path class="st7" d="M45,96.7c0.5,0.5,1.2,1,1.9,1.2c-0.1,0.1-0.2,0.3-0.3,0.4c-0.8-0.3-1.6-0.9-2.1-1.6h-1.8
				c-0.3,0.4-0.6,0.7-1,1h3.7v1.7h-3.2v0.7l1.2-0.3c0,0.1,0,0.3,0,0.4c-1.5,0.4-1.7,0.5-1.8,0.6c0-0.1-0.1-0.3-0.2-0.4
				c0.1-0.1,0.3-0.2,0.3-0.4v-2.1c-0.3,0.3-0.7,0.5-1.1,0.7c-0.1-0.1-0.2-0.3-0.3-0.3c0.7-0.3,1.4-0.8,1.9-1.3h-1.7v-0.4h2.9V96
				h-2.1v-0.3h2.1v-0.4h-2.5v-0.4h1.4c-0.1-0.2-0.3-0.4-0.4-0.6l0.4-0.2c0.2,0.2,0.4,0.6,0.5,0.8h1.7c0.2-0.2,0.3-0.5,0.4-0.8
				l0.5,0.1c-0.1,0.2-0.3,0.5-0.4,0.6h1.4v0.4h-2.5v0.4h2.1V96h-2.1v0.4h2.9v0.4H45z M42.1,98v0.4h2.8V98H42.1z M44.9,99v-0.4h-2.8
				V99H44.9z M42.5,97.3v-0.3h2.1v0.3H42.5z M46.4,99.4c-0.4,0.2-0.8,0.4-1.2,0.6c0.5,0.2,0.9,0.3,1.2,0.4l-0.2,0.4
				c-0.6-0.3-1.9-0.7-2.8-1l0.2-0.3c0.4,0.1,0.8,0.2,1.2,0.4c0.4-0.2,1-0.5,1.3-0.7L46.4,99.4z"/>
			<path class="st7" d="M54.1,96.6c-0.3,0.9-0.7,1.8-1.3,2.4c0.3,0.7,0.6,1.2,1,1.2c0.2,0,0.3-0.4,0.3-1.3c0.1,0.1,0.3,0.2,0.4,0.3
				c-0.1,1.2-0.3,1.6-0.8,1.6c-0.6,0-1-0.5-1.3-1.2c-0.4,0.5-1,0.9-1.5,1.2c-0.1-0.1-0.2-0.3-0.3-0.4c0.7-0.3,1.2-0.8,1.7-1.4
				c-0.3-0.8-0.5-1.9-0.5-3.1h-2.6v1h1.9V97c0,1.6-0.1,2.2-0.2,2.4c-0.1,0.1-0.2,0.2-0.4,0.2c-0.2,0-0.5,0-0.9,0
				c0-0.1-0.1-0.3-0.1-0.4c0.3,0,0.7,0,0.8,0c0.1,0,0.2,0,0.2-0.1c0.1-0.1,0.1-0.6,0.2-1.9h-1.4v0.1c0,1-0.1,2.4-0.8,3.4
				c-0.1-0.1-0.3-0.3-0.4-0.3c0.6-0.9,0.7-2.1,0.7-3v-2h3c0-0.4,0-0.8,0-1.2h0.5c0,0.4,0,0.8,0,1.2h2.3v0.5h-2.3
				c0.1,1,0.2,1.9,0.4,2.6c0.4-0.6,0.7-1.3,1-2L54.1,96.6z M53.9,95.3c-0.3-0.3-0.8-0.6-1.3-0.9l0.3-0.3c0.5,0.2,1,0.6,1.3,0.8
				L53.9,95.3z"/>
		</g>
		<g class="st6">
			<path class="st7" d="M176.1,57.6c0.1-0.7,0.6-1.3,1.6-1.3c1,0,1.5,0.7,1.5,1.3c0,0.7-0.4,1-0.7,1.1v0c0.6,0.2,1,0.6,1,1.4
				c0,0.9-0.6,1.7-1.7,1.7c-1.1,0-1.6-0.7-1.7-1.4h0.4c0.1,0.5,0.6,1,1.3,1c0.9,0,1.3-0.6,1.3-1.3c0-0.8-0.6-1.2-1.3-1.2h-0.3v-0.4
				h0.2c0.8,0,1.2-0.3,1.2-1c0-0.6-0.4-0.9-1.1-0.9c-0.7,0-1,0.4-1.1,0.9H176.1z"/>
		</g>
		<g class="st6">
			<path class="st7" d="M183.9,56.8h-2.3c-0.1,0.5-0.2,1.5-0.3,1.8c0.2-0.3,0.6-0.5,1.2-0.5c0.9,0,1.6,0.6,1.6,1.8
				c0,1-0.5,1.9-1.7,1.9c-0.9,0-1.5-0.5-1.7-1.4h0.4c0.1,0.6,0.5,1,1.3,1c0.8,0,1.3-0.6,1.3-1.5c0-0.8-0.3-1.4-1.2-1.4
				c-0.7,0-1,0.3-1.3,0.8l-0.4-0.1c0.2-0.7,0.4-2.2,0.4-2.8h2.7L183.9,56.8z"/>
		</g>
		<g class="st6">
			<path class="st7" d="M177.8,31.2v-4.8c-0.3,0.2-0.9,0.5-1.2,0.6v-0.4c0.3-0.1,0.9-0.4,1.3-0.8h0.3v5.3H177.8z"/>
		</g>
		<g class="st6">
			<path class="st7" d="M180.4,30.1c0.2,0.5,0.5,0.8,1.1,0.8c1.2,0,1.3-1.7,1.3-2.4c-0.3,0.5-0.8,0.8-1.4,0.8
				c-0.9,0-1.6-0.7-1.6-1.7c0-0.9,0.6-1.7,1.7-1.7c1.2,0,1.7,1,1.7,2.4c0,1.3-0.2,3-1.8,3c-0.9,0-1.4-0.5-1.5-1.1H180.4z
				 M180.3,27.5c0,0.8,0.4,1.3,1.2,1.3c0.9,0,1.3-0.5,1.3-1.3c0-0.3-0.1-1.4-1.2-1.4C180.7,26.2,180.3,26.8,180.3,27.5z"/>
		</g>
		<g class="st6">
			<path class="st7" d="M176,114.7L176,114.7c0-0.7,0.6-1.5,1.6-2.3c0.9-0.7,1.1-0.9,1.1-1.6c0-0.6-0.3-1.1-1.1-1.1
				c-0.7,0-1.1,0.3-1.2,1.1h-0.4c0.1-0.9,0.7-1.5,1.6-1.5c1.1,0,1.5,0.7,1.5,1.4c0,0.8-0.3,1.1-1.3,1.9c-0.8,0.6-1.3,1.1-1.4,1.7h3
				l-0.1,0.4H176z"/>
		</g>
		<g class="st6">
			<path class="st7" d="M180.7,110.6c0.1-0.7,0.6-1.3,1.6-1.3c1,0,1.5,0.7,1.5,1.3c0,0.7-0.4,1-0.7,1.1v0c0.6,0.2,1,0.6,1,1.4
				c0,0.9-0.6,1.7-1.7,1.7c-1.1,0-1.6-0.7-1.7-1.4h0.4c0.1,0.5,0.6,1,1.3,1c0.9,0,1.3-0.6,1.3-1.3c0-0.8-0.6-1.2-1.3-1.2h-0.3v-0.4
				h0.2c0.8,0,1.2-0.3,1.2-1c0-0.6-0.4-0.9-1.1-0.9c-0.7,0-1,0.4-1.1,0.9H180.7z"/>
		</g>
		<g class="st6">
			<path class="st7" d="M176,86.9L176,86.9c0-0.7,0.6-1.5,1.6-2.3c0.9-0.7,1.2-0.9,1.2-1.6c0-0.6-0.3-1.1-1.1-1.1
				c-0.7,0-1.1,0.3-1.2,1.1h-0.4c0.1-0.9,0.7-1.5,1.6-1.5c1.1,0,1.5,0.7,1.5,1.4c0,0.8-0.3,1.1-1.3,1.9c-0.8,0.6-1.3,1.1-1.4,1.7h3
				l-0.1,0.4H176z"/>
		</g>
		<g class="st6">
			<path class="st7" d="M183.4,82.6c-0.1-0.5-0.4-0.8-1-0.8c-1,0-1.4,0.9-1.4,2.3c0.2-0.4,0.6-0.9,1.4-0.9c1.1,0,1.6,0.8,1.6,1.8
				c0,1-0.5,1.9-1.7,1.9c-1.4,0-1.8-1.2-1.8-2.7c0-1.5,0.5-2.8,1.8-2.8c1,0,1.4,0.7,1.4,1.2H183.4z M183.5,85.1
				c0-0.7-0.3-1.4-1.2-1.4c-0.7,0-1.3,0.5-1.3,1.4c0,0.4,0.2,1.5,1.3,1.5C183.2,86.6,183.5,85.8,183.5,85.1z"/>
		</g>
		<g class="st6">
			<path class="st7" d="M67.9,22.6h0.4v5.2h3l-0.1,0.4h-3.4V22.6z"/>
		</g>
		<g class="st6">
			<path class="st7" d="M72.7,26.2c0,1,0.5,1.7,1.3,1.7c0.8,0,1-0.4,1.2-0.8h0.4c-0.2,0.5-0.6,1.1-1.6,1.1c-1.2,0-1.7-1.1-1.7-2.1
				c0-1.1,0.6-2.1,1.7-2.1c1.2,0,1.6,1.1,1.6,1.8c0,0.1,0,0.2,0,0.3H72.7z M75.2,25.9c0-0.8-0.4-1.4-1.2-1.4c-0.8,0-1.2,0.6-1.3,1.4
				H75.2z"/>
			<path class="st7" d="M79.7,27.4c0,0.4,0,0.6,0.1,0.8h-0.4c0-0.1-0.1-0.3-0.1-0.6c-0.1,0.3-0.5,0.7-1.3,0.7
				c-0.9,0-1.3-0.6-1.3-1.2c0-0.9,0.7-1.3,1.9-1.3c0.3,0,0.6,0,0.8,0v-0.4c0-0.4-0.1-0.9-1-0.9c-0.8,0-0.9,0.4-1,0.8h-0.4
				c0-0.4,0.3-1.1,1.4-1.1c0.9,0,1.4,0.4,1.4,1.3V27.4z M79.3,26.1c-0.2,0-0.5,0-0.8,0c-0.9,0-1.4,0.2-1.4,0.9
				c0,0.5,0.4,0.9,0.9,0.9c1.1,0,1.3-0.8,1.3-1.6V26.1z"/>
			<path class="st7" d="M84.5,22.3V27c0,0.4,0,0.8,0,1.2h-0.4c0-0.1,0-0.5,0-0.7c-0.2,0.5-0.7,0.8-1.4,0.8c-1,0-1.7-0.9-1.7-2.1
				c0-1.2,0.7-2.2,1.8-2.2c0.8,0,1.1,0.3,1.2,0.6v-2.4H84.5z M81.5,26.2c0,1.1,0.6,1.7,1.3,1.7c1.1,0,1.4-0.7,1.4-1.8
				c0-1-0.2-1.6-1.3-1.6C82,24.5,81.5,25.1,81.5,26.2z"/>
			<path class="st7" d="M86.2,26.2c0,1,0.5,1.7,1.3,1.7c0.8,0,1-0.4,1.2-0.8H89c-0.2,0.5-0.6,1.1-1.6,1.1c-1.2,0-1.7-1.1-1.7-2.1
				c0-1.1,0.6-2.1,1.7-2.1c1.2,0,1.6,1.1,1.6,1.8c0,0.1,0,0.2,0,0.3H86.2z M88.7,25.9c0-0.8-0.4-1.4-1.2-1.4c-0.8,0-1.2,0.6-1.3,1.4
				H88.7z"/>
		</g>
		<g class="st6">
			<path class="st7" d="M90.8,25.3c0-0.7,0-1,0-1.1h0.4c0,0.1,0,0.4,0,0.9c0.2-0.6,0.7-1,1.4-1v0.4c-0.8,0.1-1.4,0.6-1.4,1.6v2.1
				h-0.4V25.3z"/>
		</g>
		<g class="st6">
			<path class="st7" d="M93.8,27.1c0.1,0.5,0.5,0.8,1.1,0.8c0.7,0,1-0.3,1-0.8c0-0.5-0.2-0.7-1.1-0.9c-1-0.2-1.3-0.6-1.3-1.1
				c0-0.6,0.4-1.1,1.3-1.1s1.3,0.6,1.4,1.1h-0.4c-0.1-0.3-0.3-0.8-1-0.8c-0.7,0-0.9,0.3-0.9,0.7c0,0.4,0.2,0.6,1,0.7
				c1.1,0.3,1.4,0.6,1.4,1.2c0,0.7-0.6,1.2-1.4,1.2c-0.9,0-1.4-0.5-1.5-1.2H93.8z"/>
		</g>
		<g class="st6">
			<path class="st7" d="M98.2,22.3v2.6c0.2-0.4,0.6-0.8,1.3-0.8c0.6,0,1.4,0.3,1.4,1.6v2.6h-0.4v-2.5c0-0.8-0.4-1.2-1-1.2
				c-0.8,0-1.3,0.5-1.3,1.5v2.2h-0.4v-5.9H98.2z"/>
			<path class="st7" d="M102.5,22.3h0.4v0.8h-0.4V22.3z M102.5,24.2h0.4v4h-0.4V24.2z"/>
			<path class="st7" d="M104.9,27.6v2.2h-0.4v-4.6c0-0.3,0-0.7,0-1h0.4c0,0.2,0,0.4,0,0.7c0.2-0.5,0.7-0.8,1.4-0.8
				c0.9,0,1.6,0.8,1.6,2c0,1.4-0.8,2.2-1.7,2.2C105.5,28.3,105.1,28,104.9,27.6z M107.5,26.1c0-0.9-0.5-1.6-1.2-1.6
				c-1,0-1.4,0.6-1.4,1.7c0,1.1,0.3,1.7,1.3,1.7C107.1,27.9,107.5,27.2,107.5,26.1z"/>
		</g>
		<g class="st6">
			<path class="st7" d="M112,22.6h2c1,0,1.7,0.6,1.7,1.6c0,1-0.7,1.6-1.8,1.6h-1.5v2.5H112V22.6z M112.5,25.3h1.6
				c0.9,0,1.3-0.5,1.3-1.2c0-0.8-0.5-1.2-1.3-1.2h-1.6V25.3z"/>
		</g>
		<g class="st6">
			<path class="st7" d="M117,25.3c0-0.7,0-1,0-1.1h0.4c0,0.1,0,0.4,0,0.9c0.2-0.6,0.7-1,1.4-1v0.4c-0.8,0.1-1.4,0.6-1.4,1.6v2.1H117
				V25.3z"/>
		</g>
		<g class="st6">
			<path class="st7" d="M123.3,26.2c0,1.1-0.6,2.1-1.8,2.1c-1.1,0-1.8-0.9-1.8-2.1c0-1.1,0.6-2.1,1.8-2.1
				C122.6,24.1,123.3,24.9,123.3,26.2z M120.1,26.2c0,1,0.5,1.7,1.4,1.7c0.9,0,1.4-0.7,1.4-1.7c0-0.9-0.5-1.7-1.4-1.7
				C120.5,24.5,120.1,25.2,120.1,26.2z"/>
		</g>
		<g class="st6">
			<path class="st7" d="M127.8,27.9c0,1.3-0.6,2-1.7,2c-1,0-1.5-0.6-1.6-1.2h0.4c0.1,0.6,0.6,0.8,1.2,0.8c1,0,1.3-0.7,1.3-1.7v-0.4
				c-0.2,0.5-0.6,0.8-1.3,0.8c-0.9,0-1.7-0.8-1.7-2c0-1.4,0.8-2.1,1.7-2.1c0.8,0,1.2,0.4,1.3,0.7c0-0.2,0-0.5,0-0.6h0.4
				c0,0.1,0,0.8,0,1.2V27.9z M124.8,26.2c0,1,0.5,1.6,1.3,1.6c1,0,1.3-0.7,1.3-1.7c0-1.1-0.3-1.6-1.3-1.6
				C125.2,24.5,124.8,25.3,124.8,26.2z"/>
		</g>
		<g class="st6">
			<path class="st7" d="M129.5,25.3c0-0.7,0-1,0-1.1h0.4c0,0.1,0,0.4,0,0.9c0.2-0.6,0.7-1,1.4-1v0.4c-0.8,0.1-1.4,0.6-1.4,1.6v2.1
				h-0.4V25.3z"/>
		</g>
		<g class="st6">
			<path class="st7" d="M135.2,27.4c0,0.4,0,0.6,0.1,0.8h-0.4c0-0.1-0.1-0.3-0.1-0.6c-0.1,0.3-0.5,0.7-1.3,0.7
				c-0.9,0-1.3-0.6-1.3-1.2c0-0.9,0.7-1.3,1.9-1.3c0.3,0,0.6,0,0.8,0v-0.4c0-0.4-0.1-0.9-1-0.9c-0.8,0-0.9,0.4-1,0.8h-0.4
				c0-0.4,0.3-1.1,1.4-1.1c0.9,0,1.4,0.4,1.4,1.3V27.4z M134.8,26.1c-0.2,0-0.5,0-0.8,0c-0.9,0-1.4,0.2-1.4,0.9
				c0,0.5,0.4,0.9,0.9,0.9c1.1,0,1.3-0.8,1.3-1.6V26.1z"/>
			<path class="st7" d="M136.8,25.2c0-0.3,0-0.7,0-1h0.4c0,0.1,0,0.5,0,0.7c0.2-0.4,0.5-0.8,1.2-0.8c0.6,0,1,0.3,1.2,0.8
				c0.2-0.4,0.6-0.8,1.3-0.8c0.6,0,1.3,0.4,1.3,1.5v2.6h-0.4v-2.6c0-0.5-0.2-1.1-0.9-1.1c-0.8,0-1.1,0.6-1.1,1.4v2.3h-0.4v-2.6
				c0-0.6-0.2-1.1-0.9-1.1c-0.8,0-1.2,0.7-1.2,1.5v2.2h-0.4V25.2z"/>
		</g>
		<g class="st6">
			<path class="st7" d="M65.5,34.8c0-1.4,0.6-2.5,1.4-3.4l0.4,0.2c-0.9,0.9-1.4,2-1.4,3.2c0,1.3,0.5,2.4,1.4,3.2l-0.4,0.2
				C66,37.3,65.5,36.2,65.5,34.8z"/>
		</g>
		<g class="st6">
			<path class="st7" d="M73.4,31.7c-0.1,0.5-0.3,1-0.5,1.5v4.9h-0.4v-4c-0.2,0.3-0.4,0.7-0.6,0.9c0-0.1-0.2-0.4-0.3-0.5
				c0.6-0.7,1.1-1.9,1.4-3L73.4,31.7z M75.3,33.2h-2v-0.4h2V33.2z M73.4,35.7h1.8v2.2h-0.4v-0.3h-1V38h-0.4V35.7z M75.2,34.1h-1.6
				v-0.4h1.6V34.1z M73.5,34.7h1.6v0.4h-1.6V34.7z M74.3,32.6c-0.1-0.2-0.3-0.6-0.5-0.8l0.3-0.2c0.2,0.2,0.4,0.6,0.5,0.8L74.3,32.6z
				 M73.8,36.1v1.1h1v-1.1H73.8z M77,34.2c-0.2,0.3-0.4,0.5-0.6,0.8H78V38h-0.4v-0.3h-1.2v0.3h-0.4v-2.7c-0.2,0.2-0.4,0.3-0.6,0.4
				c-0.1-0.1-0.2-0.3-0.3-0.3c0.5-0.3,1-0.8,1.4-1.3h-1.1v-0.4h0.9v-1h-0.8v-0.4h0.8v-0.8h0.4v0.8h0.7v0.4h-0.7v1h0.2
				c0.4-0.6,0.7-1.3,1-2l0.4,0.1c-0.2,0.7-0.5,1.4-0.9,1.9h1v0.4H77z M77.6,35.3h-1.2v0.8h1.2V35.3z M77.6,37.3v-0.8h-1.2v0.8H77.6z
				"/>
			<path class="st7" d="M81.3,31.6c-0.2,0.5-0.3,1-0.6,1.5v5h-0.5v-4c-0.2,0.3-0.4,0.6-0.6,0.9c0-0.1-0.2-0.4-0.3-0.5
				c0.6-0.7,1.1-1.8,1.5-3L81.3,31.6z M82.9,33.9c-0.1,0.2-0.3,0.4-0.5,0.6h3.2v3.1c0,0.2,0,0.3-0.2,0.4C85.3,38,85,38,84.7,38
				c0-0.1-0.1-0.3-0.2-0.4c0.2,0,0.4,0,0.5,0c0.1,0,0.1,0,0.1-0.1V37H84v0.9h-0.4V37h-1.3c-0.1,0.4-0.2,0.8-0.5,1.1
				c-0.1-0.1-0.3-0.2-0.4-0.3c0.4-0.6,0.5-1.3,0.5-1.9V35c-0.2,0.2-0.4,0.3-0.7,0.5c0-0.1-0.2-0.3-0.3-0.4c0.5-0.3,1.1-0.7,1.5-1.2
				h-1.1v-0.4h1.3v-0.7h-1.1v-0.4h1.1v-0.7H83v0.7h1.3v-0.7h0.5v0.7h1v0.4h-1v0.7h1.2v0.4H82.9z M83.5,36.6v-0.7h-1.2
				c0,0.2,0,0.4,0,0.7H83.5z M82.3,35.6h1.2v-0.7h-1.2V35.6z M83,33.4h1.3v-0.7H83V33.4z M85.1,34.9H84v0.7h1.2V34.9z M85.1,36.6
				v-0.7H84v0.7H85.1z"/>
			<path class="st7" d="M92.5,31.5c-0.1,0.2-0.1,0.3-0.2,0.5c0.4,0.7,1.1,1.4,1.7,1.8c-0.1,0.1-0.2,0.2-0.3,0.3
				c-0.5-0.4-1.2-1.1-1.6-1.8c-0.4,0.7-1,1.4-1.6,1.8c-0.1-0.1-0.2-0.2-0.3-0.3v1.9h-1v0.6h1.3v0.4h-1.3v1.3h-0.5v-1.3h-1.4v-0.4
				h1.4v-0.6h-1.1v-2.4h1.1v-0.6h-1.3v-0.4h1.3v-0.8h0.5v0.8h1.3v0.4h-1.3v0.6h1v0.4c0.7-0.5,1.5-1.4,1.9-2.4L92.5,31.5z M89.8,33.7
				h-1.7v0.6h1.7V33.7z M89.8,34.7h-1.7v0.6h1.7V34.7z M92.3,35.7h1.3v0.4h-1.3v1.9h-0.5v-1.9h-1.4v-0.4h1.4v-1.2h-1.1v-0.4h2.6v0.4
				h-1V35.7z"/>
			<path class="st7" d="M98.4,33c-0.2,0.4-0.4,0.9-0.6,1.3h1v0.4h-3.8v-0.4h2.2c0.2-0.4,0.4-1,0.5-1.4L98.4,33z M98.8,32.8h-3.4
				v-0.4h1.5c-0.1-0.2-0.2-0.5-0.3-0.8l0.4-0.1c0.1,0.3,0.3,0.6,0.4,0.9h1.4V32.8z M95.6,35.4h3V38h-0.5v-0.3h-2V38h-0.5V35.4z
				 M96.3,34.2c-0.1-0.3-0.3-0.9-0.5-1.3l0.4-0.1c0.2,0.4,0.4,0.9,0.5,1.3L96.3,34.2z M96.1,35.9v1.4h2v-1.4H96.1z M101.6,32.1
				c-0.3,0.7-0.6,1.5-0.9,2.2c0.7,0.7,0.8,1.2,0.8,1.8c0,0.4-0.1,0.8-0.3,0.9c-0.1,0.1-0.3,0.1-0.4,0.1c-0.2,0-0.4,0-0.6,0
				c0-0.1-0.1-0.3-0.1-0.5c0.2,0,0.4,0,0.6,0c0.1,0,0.2,0,0.3-0.1c0.1-0.1,0.2-0.3,0.2-0.6c0-0.5-0.2-1-0.8-1.7
				c0.3-0.6,0.6-1.4,0.8-2h-1.2v5.7h-0.4v-6.2h1.9l0.1,0L101.6,32.1z"/>
			<path class="st7" d="M104.3,36.1c0.3-0.1,0.6-0.2,0.9-0.3l0.1,0.4c-0.8,0.3-1.6,0.6-2.2,0.9l-0.2-0.5c0.3-0.1,0.6-0.2,0.9-0.3
				v-2.6h-0.9v-0.5h0.9v-1.7h0.4v1.7h0.8v0.5h-0.8V36.1z M109.5,34.3v0.4h-4.4v-0.4h2.7c0.2-0.4,0.4-1.1,0.5-1.5l0.4,0.1
				c-0.2,0.5-0.4,1-0.5,1.4H109.5z M109.3,32.7h-3.9v-0.4h1.8c0-0.2-0.1-0.5-0.2-0.8l0.4-0.1c0.1,0.3,0.2,0.6,0.2,0.9h1.7V32.7z
				 M105.7,35.4h3.2V38h-0.5v-0.3h-2.3v0.3h-0.4V35.4z M106.2,34.2c-0.1-0.3-0.2-0.9-0.4-1.3l0.4-0.1c0.2,0.4,0.4,0.9,0.4,1.3
				L106.2,34.2z M106.1,35.9v1.4h2.3v-1.4H106.1z"/>
		</g>
		<g class="st6">
			<path class="st7" d="M113.3,33.1h-2.6v-0.4h2.6V33.1z M113.1,34H111v-0.4h2.1V34z M111,34.6h2.1V35H111V34.6z M111.5,37.6V38H111
				v-2.4h2.1v2.1H111.5z M111.5,36v1.3h1.3V36H111.5z M112.1,32.6c-0.1-0.3-0.3-0.7-0.5-1l0.4-0.2c0.2,0.3,0.4,0.7,0.6,0.9
				L112.1,32.6z M114,31.7h0.5v2.5c0,1.4-0.1,2.8-1,3.9c-0.1-0.1-0.3-0.2-0.4-0.3c0.8-1.1,0.9-2.3,0.9-3.7V31.7z M115.3,32h0.4v5.4
				h-0.4V32z M117.1,31.6v6.5h-0.5v-6.5H117.1z"/>
		</g>
		<g class="st6">
			<path class="st7" d="M119.9,34.8c0,1.4-0.6,2.5-1.4,3.4l-0.4-0.2c0.9-0.9,1.4-2,1.4-3.2c0-1.3-0.5-2.4-1.4-3.2l0.4-0.2
				C119.3,32.2,119.9,33.4,119.9,34.8z"/>
		</g>
		<g class="st6">
			<path class="st7" d="M70.1,56.4c-0.6,0.3-1.5,0.6-2.2,0.8c-0.1-0.1-0.2-0.3-0.3-0.4c0.7-0.1,1.6-0.4,2.1-0.6L70.1,56.4z M73.9,53
				h-6.4v-0.4h2.9v-0.5h-2.2v-0.3h2.2v-0.4H68v-0.4h2.5v-0.5H71v0.5h2.6v0.4H71v0.4h2.3v0.3H71v0.5h3V53z M68.5,56.2v-2.8h4.7v2.8
				H68.5z M68.9,54.2h3.7v-0.5h-3.7V54.2z M68.9,55h3.7v-0.5h-3.7V55z M68.9,55.8h3.7v-0.5h-3.7V55.8z M71.8,56.2
				c0.8,0.2,1.7,0.5,2.2,0.7l-0.5,0.2c-0.5-0.2-1.2-0.5-2-0.7L71.8,56.2z"/>
			<path class="st7" d="M77.6,50.8c-0.2,0.5-0.5,1.1-0.8,1.5v4.9h-0.5v-4.1c-0.3,0.4-0.6,0.8-0.9,1c-0.1-0.1-0.2-0.4-0.3-0.5
				c0.8-0.7,1.5-1.8,2-3L77.6,50.8z M79.8,54.2v2.3h1.9v0.5h-4.3v-0.5h1.9v-2.3h-2.1v-0.5h2.1v-2h-1.6v-0.5h3.8v0.5h-1.8v2h2.1v0.5
				H79.8z"/>
			<path class="st7" d="M85.3,51.1c-0.2,0.6-0.5,1.3-0.7,1.9c0.5,0.6,0.6,1.1,0.6,1.6c0,0.4-0.1,0.7-0.3,0.8
				c-0.1,0.1-0.2,0.1-0.4,0.1c-0.1,0-0.3,0-0.5,0c0-0.1-0.1-0.3-0.1-0.4c0.2,0,0.3,0,0.4,0c0.1,0,0.2,0,0.2-0.1
				c0.1-0.1,0.2-0.3,0.2-0.5c0-0.4-0.1-0.9-0.6-1.5c0.2-0.5,0.4-1.2,0.6-1.6h-0.9v5.8h-0.4v-6.3h1.5l0.1,0L85.3,51.1z M86.5,55.2
				c-0.1,0.2-0.1,0.4-0.2,0.5c0.3,0.2,0.7,0.5,0.8,0.7l-0.3,0.3c-0.2-0.2-0.5-0.4-0.8-0.6c-0.3,0.5-0.7,0.9-1.1,1.2
				c-0.1-0.1-0.2-0.2-0.3-0.3c0.7-0.4,1.2-1,1.4-1.8L86.5,55.2z M87.6,50.7c-0.1,0.1-0.1,0.2-0.2,0.2c0.5,0.5,1.5,1,2.2,1.3
				c-0.1,0.1-0.2,0.3-0.2,0.4c-0.7-0.3-1.6-0.9-2.2-1.4c-0.5,0.6-1.1,1.1-1.8,1.5c-0.1-0.1-0.2-0.2-0.3-0.3c0.9-0.5,1.7-1.2,2.1-1.9
				L87.6,50.7z M85.5,53.2h1.6v1.7h-1.6V53.2z M85.9,54.6h0.8v-1h-0.8V54.6z M88.4,52.6h-2.2v-0.4h2.2V52.6z M88.6,55.2
				c0,0.2-0.1,0.4-0.2,0.6c0.5,0.3,1,0.7,1.3,1l-0.3,0.3c-0.2-0.3-0.7-0.6-1.1-0.9c-0.2,0.4-0.5,0.8-0.9,1c-0.1-0.1-0.2-0.2-0.3-0.3
				c0.6-0.4,1-1,1.1-1.8L88.6,55.2z M89.2,54.9h-1.6v-1.7h1.6V54.9z M88.8,53.6h-0.9v1h0.9V53.6z"/>
			<path class="st7" d="M93.3,52.3c-0.2,0.4-0.5,0.7-0.8,1.1v3.8H92v-3.3c-0.3,0.3-0.6,0.6-0.9,0.8c-0.1-0.1-0.2-0.3-0.3-0.4
				c0.7-0.5,1.5-1.4,2-2.2L93.3,52.3z M93,50.8c-0.5,0.6-1.2,1.3-1.8,1.8c-0.1-0.1-0.2-0.3-0.3-0.4c0.6-0.4,1.3-1,1.7-1.6L93,50.8z
				 M97.5,53.5h-1.1v3.1c0,0.3-0.1,0.5-0.3,0.5c-0.2,0.1-0.6,0.1-1.4,0.1c0-0.1-0.1-0.3-0.2-0.5c0.5,0,1,0,1.2,0
				c0.1,0,0.2,0,0.2-0.2v-3.1h-2.5V53h4.1V53.5z M97.2,51.5h-3.5v-0.4h3.5V51.5z"/>
			<path class="st7" d="M101.3,56.4c-0.9,0.2-1.8,0.4-2.5,0.6l-0.1-0.4c0.3-0.1,0.7-0.1,1.2-0.2v-2.2h-1.1v-0.4h1.1v-0.8h-0.7v-0.3
				c-0.1,0.1-0.2,0.2-0.3,0.3c0-0.1-0.2-0.3-0.2-0.5c0.5-0.4,1.1-1.1,1.4-1.8l0.4,0.1c0,0.1-0.1,0.2-0.1,0.3
				c0.4,0.4,0.9,0.8,1.2,1.1l-0.3,0.4c-0.3-0.3-0.7-0.7-1.1-1.1c-0.2,0.4-0.5,0.7-0.8,1h1.7v0.4h-0.7v0.8h0.9v0.4h-0.9v2.1l1-0.2
				L101.3,56.4z M99.2,54.5c0.1,0.4,0.3,1,0.3,1.3L99.1,56c0-0.4-0.2-0.9-0.3-1.4L99.2,54.5z M100.6,55.8c0.1-0.4,0.3-1,0.4-1.3
				l0.4,0.1c-0.1,0.4-0.3,1-0.4,1.3L100.6,55.8z M105,56.6c0,0.3-0.1,0.4-0.3,0.5c-0.2,0.1-0.6,0.1-1.1,0.1c0-0.1-0.1-0.3-0.2-0.5
				c0.4,0,0.8,0,0.9,0c0.1,0,0.1,0,0.1-0.1v-1.3c-0.8,0.2-1.5,0.4-2.1,0.5l-0.2-0.4c0.6-0.1,1.4-0.3,2.3-0.5v-1.7h-2.3v1.5
				c0,0.8-0.1,1.9-0.5,2.6c-0.1-0.1-0.3-0.2-0.4-0.3c0.4-0.7,0.4-1.6,0.4-2.3v-1.9h1.4v-2.1h0.5v2.1h1.4V56.6z M102.3,52.4
				c-0.1-0.4-0.4-0.9-0.7-1.4l0.4-0.2c0.3,0.4,0.6,1,0.7,1.3L102.3,52.4z M102.5,53.6c0.6,0.1,1.3,0.3,1.7,0.5l-0.2,0.4
				c-0.4-0.2-1.1-0.5-1.7-0.6L102.5,53.6z M105.2,51c-0.2,0.5-0.6,1-0.8,1.4l-0.4-0.2c0.3-0.4,0.6-0.9,0.8-1.4L105.2,51z"/>
			<path class="st7" d="M111.7,50.6c-0.1,0.2-0.1,0.3-0.2,0.5c0.4,0.7,1.1,1.4,1.7,1.8c-0.1,0.1-0.2,0.2-0.3,0.3
				c-0.5-0.4-1.2-1.1-1.6-1.8c-0.4,0.7-1,1.4-1.6,1.8c-0.1-0.1-0.2-0.2-0.3-0.3v1.9h-1v0.6h1.3v0.4h-1.3v1.3h-0.5v-1.3h-1.4v-0.4
				h1.4v-0.6h-1.1v-2.4h1.1v-0.6h-1.3v-0.4h1.3v-0.8h0.5v0.8h1.3v0.4h-1.3v0.6h1v0.4c0.7-0.5,1.5-1.4,1.9-2.4L111.7,50.6z M109,52.9
				h-1.7v0.6h1.7V52.9z M109,53.8h-1.7v0.6h1.7V53.8z M111.6,54.9h1.3v0.4h-1.3v1.9h-0.5v-1.9h-1.4v-0.4h1.4v-1.2H110v-0.4h2.6v0.4
				h-1V54.9z"/>
			<path class="st7" d="M116.9,52.2h-2.6v-0.4h2.6V52.2z M116.7,53.2h-2.1v-0.4h2.1V53.2z M114.6,53.7h2.1v0.4h-2.1V53.7z M115,56.8
				v0.3h-0.4v-2.4h2.1v2.1H115z M115,55.1v1.3h1.3v-1.3H115z M115.7,51.7c-0.1-0.3-0.3-0.7-0.5-1l0.4-0.2c0.2,0.3,0.4,0.7,0.6,0.9
				L115.7,51.7z M117.6,50.8h0.5v2.5c0,1.4-0.1,2.8-1,3.9c-0.1-0.1-0.3-0.2-0.4-0.3c0.8-1.1,0.9-2.3,0.9-3.7V50.8z M118.9,51.1h0.4
				v5.4h-0.4V51.1z M120.7,50.8v6.5h-0.5v-6.5H120.7z"/>
			<path class="st7" d="M124.4,56c-0.8,0.2-1.6,0.4-2.2,0.6l-0.1-0.5c0.3-0.1,0.6-0.1,0.9-0.2v-2h-0.8v-0.4h0.8v-1.9h-0.9v-0.4h2.2
				v0.4h-0.9v1.9h0.8v0.4h-0.8v1.9l0.8-0.2L124.4,56z M125.8,53.7c0,1.5-0.2,2.7-1.6,3.5c-0.1-0.1-0.2-0.3-0.3-0.3
				c1.2-0.8,1.4-1.8,1.4-3.1l-0.3,0.1c-0.1-0.4-0.5-1-0.7-1.5l0.4-0.1c0.2,0.4,0.5,0.8,0.7,1.2v-2.8h0.4V53.7z M128.7,56.5v0.4h-3.1
				v-0.4h1.4v-2.3h-0.9v-0.4h0.9v-2.2h-1v-0.4h2.5v0.4h-1.1v2.2h0.9v0.4h-0.9v2.3H128.7z"/>
		</g>
		<g class="st6">
			<path class="st7" d="M65.5,62.9c0-1.4,0.6-2.5,1.4-3.4l0.4,0.2c-0.9,0.9-1.4,2-1.4,3.2c0,1.3,0.5,2.4,1.4,3.2l-0.4,0.2
				C66,65.4,65.5,64.3,65.5,62.9z"/>
		</g>
		<g class="st6">
			<path class="st7" d="M74.3,65.4c-0.6,0.3-1.5,0.6-2.2,0.8c-0.1-0.1-0.2-0.3-0.3-0.4c0.7-0.1,1.6-0.4,2.1-0.6L74.3,65.4z M78.1,62
				h-6.4v-0.4h2.9v-0.5h-2.2v-0.3h2.2v-0.4h-2.5v-0.4h2.5v-0.5h0.5v0.5h2.6v0.4h-2.6v0.4h2.3v0.3h-2.3v0.5h3V62z M72.7,65.2v-2.8
				h4.7v2.8H72.7z M73.1,63.2h3.7v-0.5h-3.7V63.2z M73.1,64h3.7v-0.5h-3.7V64z M73.1,64.8h3.7v-0.5h-3.7V64.8z M76,65.2
				c0.8,0.2,1.7,0.5,2.2,0.7l-0.5,0.2c-0.5-0.2-1.2-0.5-2-0.7L76,65.2z"/>
			<path class="st7" d="M81.8,59.8c-0.2,0.5-0.5,1.1-0.8,1.5v4.9h-0.5v-4.1c-0.3,0.4-0.6,0.8-0.9,1c-0.1-0.1-0.2-0.4-0.3-0.5
				c0.8-0.7,1.5-1.8,2-3L81.8,59.8z M84,63.2v2.3h1.9v0.5h-4.3v-0.5h1.9v-2.3h-2.1v-0.5h2.1v-2h-1.6v-0.5h3.8v0.5H84v2h2.1v0.5H84z"
				/>
			<path class="st7" d="M89.5,60.1c-0.2,0.6-0.5,1.3-0.7,1.9c0.5,0.6,0.6,1.1,0.6,1.6c0,0.4-0.1,0.7-0.3,0.8
				c-0.1,0.1-0.2,0.1-0.4,0.1c-0.1,0-0.3,0-0.5,0c0-0.1-0.1-0.3-0.1-0.4c0.2,0,0.3,0,0.4,0c0.1,0,0.2,0,0.2-0.1
				c0.1-0.1,0.2-0.3,0.2-0.5c0-0.4-0.1-0.9-0.6-1.5c0.2-0.5,0.4-1.2,0.6-1.6H88v5.8h-0.4v-6.3h1.5l0.1,0L89.5,60.1z M90.7,64.2
				c-0.1,0.2-0.1,0.4-0.2,0.5c0.3,0.2,0.7,0.5,0.8,0.7l-0.3,0.3c-0.2-0.2-0.5-0.4-0.8-0.6c-0.3,0.5-0.7,0.9-1.1,1.2
				c-0.1-0.1-0.2-0.2-0.3-0.3c0.7-0.4,1.2-1,1.4-1.8L90.7,64.2z M91.8,59.7c-0.1,0.1-0.1,0.2-0.2,0.2c0.5,0.5,1.5,1,2.2,1.3
				c-0.1,0.1-0.2,0.3-0.2,0.4c-0.7-0.3-1.6-0.9-2.2-1.4c-0.5,0.6-1.1,1.1-1.8,1.5c-0.1-0.1-0.2-0.2-0.3-0.3c0.9-0.5,1.7-1.2,2.1-1.9
				L91.8,59.7z M89.7,62.2h1.6v1.7h-1.6V62.2z M90.1,63.6h0.8v-1h-0.8V63.6z M92.6,61.6h-2.2v-0.4h2.2V61.6z M92.8,64.2
				c0,0.2-0.1,0.4-0.2,0.6c0.5,0.3,1,0.7,1.3,1l-0.3,0.3c-0.2-0.3-0.7-0.6-1.1-0.9c-0.2,0.4-0.5,0.8-0.9,1c-0.1-0.1-0.2-0.2-0.3-0.3
				c0.6-0.4,1-1,1.1-1.8L92.8,64.2z M93.4,63.9h-1.6v-1.7h1.6V63.9z M93,62.6h-0.9v1H93V62.6z"/>
			<path class="st7" d="M101.5,60.4v0.4h-6.3v-0.4h3c-0.1-0.2-0.2-0.5-0.3-0.7l0.4-0.1c0.1,0.3,0.2,0.6,0.3,0.8H101.5z M101.1,65.6
				c0,0.3-0.1,0.4-0.3,0.5c-0.2,0.1-0.6,0.1-1.2,0.1c0-0.1-0.1-0.3-0.2-0.4c0.5,0,0.9,0,1,0c0.1,0,0.2,0,0.2-0.2v-3.3h-1.5v0.5
				c0,0.2,0,0.2,0.1,0.2h0.7c0.1,0,0.3,0,0.4,0c0,0.1,0,0.2,0,0.4c-0.1,0-0.3,0-0.4,0h-0.8c-0.4,0-0.5-0.2-0.5-0.6v-0.5h-0.9
				c-0.1,0.8-0.5,1.2-1.5,1.4c0-0.1-0.1-0.3-0.2-0.3c0.9-0.2,1.2-0.5,1.3-1.1h-1.3v3.9h-0.5v-4.3H99c0.2-0.3,0.4-0.7,0.6-1l0.5,0.1
				c-0.2,0.3-0.4,0.6-0.6,0.9h1.7V65.6z M97.2,60.9c0.2,0.3,0.4,0.6,0.5,0.8l-0.4,0.2c-0.1-0.2-0.3-0.6-0.5-0.8L97.2,60.9z
				 M97.5,65.3v0.3h-0.4v-2h2.6v1.6H97.5z M97.5,64v0.9h1.8V64H97.5z"/>
			<path class="st7" d="M103.2,63.1h2.5v3.1h-0.5v-0.3h-1.6v0.4h-0.5V63.1z M103.7,63.5v1.8h1.6v-1.8H103.7z M108.2,62.3h-3.9v-2.4
				h3.9V62.3z M107.7,60.4h-2.9v1.4h2.9V60.4z M109.2,63.1v3.1h-0.5v-0.3H107v0.4h-0.5v-3.1H109.2z M108.8,65.3v-1.8H107v1.8H108.8z
				"/>
			<path class="st7" d="M116.6,61.3c-0.9,1.3-2.5,2.8-4,3.7c0.1,0.1,0.2,0.1,0.2,0.2c0.5,0.3,1,0.3,1.9,0.3c0.9,0,1.9-0.1,2.6-0.1
				c-0.1,0.1-0.1,0.4-0.1,0.5c-0.5,0-1.8,0.1-2.5,0.1c-0.9,0-1.5-0.1-1.9-0.4c-0.3-0.2-0.5-0.4-0.7-0.4c-0.2,0-0.6,0.4-0.9,0.9
				l-0.4-0.4c0.5-0.5,0.9-0.9,1.3-0.9c0,0,0.1,0,0.1,0c1.3-0.8,2.8-2.1,3.6-3.2h-4.6v-0.5h5l0.1,0L116.6,61.3z M114.2,61
				c-0.2-0.3-0.5-0.8-0.8-1.2l0.4-0.2c0.3,0.4,0.6,0.9,0.8,1.2L114.2,61z"/>
			<path class="st7" d="M120.9,61.3c-0.2,0.4-0.5,0.7-0.8,1.1v3.8h-0.5v-3.3c-0.3,0.3-0.6,0.6-0.9,0.8c-0.1-0.1-0.2-0.3-0.3-0.4
				c0.7-0.5,1.5-1.4,2-2.2L120.9,61.3z M120.6,59.8c-0.5,0.6-1.2,1.3-1.8,1.8c-0.1-0.1-0.2-0.3-0.3-0.4c0.6-0.4,1.3-1,1.7-1.6
				L120.6,59.8z M125.1,62.5H124v3.1c0,0.3-0.1,0.5-0.3,0.5c-0.2,0.1-0.6,0.1-1.4,0.1c0-0.1-0.1-0.3-0.2-0.5c0.5,0,1,0,1.2,0
				c0.1,0,0.2,0,0.2-0.2v-3.1H121V62h4.1V62.5z M124.9,60.5h-3.5v-0.4h3.5V60.5z"/>
		</g>
		<g class="st6">
			<path class="st7" d="M129,65.4c-0.9,0.2-1.8,0.4-2.5,0.6l-0.1-0.4c0.3-0.1,0.7-0.1,1.2-0.2v-2.2h-1.1v-0.4h1.1v-0.8h-0.7v-0.3
				c-0.1,0.1-0.2,0.2-0.3,0.3c0-0.1-0.2-0.3-0.2-0.5c0.5-0.4,1.1-1.1,1.4-1.8l0.4,0.1c0,0.1-0.1,0.2-0.1,0.3
				c0.4,0.4,0.9,0.8,1.2,1.1l-0.3,0.4c-0.3-0.3-0.7-0.7-1.1-1.1c-0.2,0.4-0.5,0.7-0.8,1h1.7v0.4H128v0.8h0.9v0.4H128v2.1l1-0.2
				L129,65.4z M126.9,63.5c0.1,0.4,0.3,1,0.3,1.3l-0.4,0.1c0-0.4-0.2-0.9-0.3-1.4L126.9,63.5z M128.3,64.8c0.1-0.4,0.3-1,0.4-1.3
				l0.4,0.1c-0.1,0.4-0.3,1-0.4,1.3L128.3,64.8z M132.7,65.6c0,0.3-0.1,0.4-0.3,0.5c-0.2,0.1-0.6,0.1-1.1,0.1c0-0.1-0.1-0.3-0.2-0.5
				c0.4,0,0.8,0,0.9,0c0.1,0,0.1,0,0.1-0.1v-1.3c-0.8,0.2-1.5,0.4-2.1,0.5l-0.2-0.4c0.6-0.1,1.4-0.3,2.3-0.5v-1.7h-2.3v1.5
				c0,0.8-0.1,1.9-0.5,2.6c-0.1-0.1-0.3-0.2-0.4-0.3c0.4-0.7,0.4-1.6,0.4-2.3v-1.9h1.4v-2.1h0.5v2.1h1.4V65.6z M130,61.4
				c-0.1-0.4-0.4-0.9-0.7-1.4l0.4-0.2c0.3,0.4,0.6,1,0.7,1.3L130,61.4z M130.2,62.6c0.6,0.1,1.3,0.3,1.7,0.5l-0.2,0.4
				c-0.4-0.2-1.1-0.5-1.7-0.6L130.2,62.6z M132.9,60c-0.2,0.5-0.6,1-0.8,1.4l-0.4-0.2c0.3-0.4,0.6-0.9,0.8-1.4L132.9,60z"/>
		</g>
		<g class="st6">
			<path class="st7" d="M135.5,62.9c0,1.4-0.6,2.5-1.4,3.4l-0.4-0.2c0.9-0.9,1.4-2,1.4-3.2c0-1.3-0.5-2.4-1.4-3.2l0.4-0.2
				C135,60.4,135.5,61.5,135.5,62.9z"/>
		</g>
		<g class="st6">
			<path class="st7" d="M73.9,77.1v0.4h-6.3v-0.4h3c-0.1-0.2-0.2-0.5-0.3-0.7l0.4-0.1c0.1,0.3,0.2,0.6,0.3,0.8H73.9z M73.5,82.4
				c0,0.3-0.1,0.4-0.3,0.5c-0.2,0.1-0.6,0.1-1.2,0.1c0-0.1-0.1-0.3-0.2-0.4c0.5,0,0.9,0,1,0c0.1,0,0.2,0,0.2-0.2V79h-1.5v0.5
				c0,0.2,0,0.2,0.1,0.2h0.7c0.1,0,0.3,0,0.4,0c0,0.1,0,0.2,0,0.4c-0.1,0-0.3,0-0.4,0h-0.8c-0.4,0-0.5-0.2-0.5-0.6V79h-0.9
				c-0.1,0.8-0.5,1.2-1.5,1.4c0-0.1-0.1-0.3-0.2-0.3c0.9-0.2,1.2-0.5,1.3-1.1h-1.3v3.9H68v-4.3h3.3c0.2-0.3,0.4-0.7,0.6-1l0.5,0.1
				c-0.2,0.3-0.4,0.6-0.6,0.9h1.7V82.4z M69.6,77.6c0.2,0.3,0.4,0.6,0.5,0.8l-0.4,0.2c-0.1-0.2-0.3-0.6-0.5-0.8L69.6,77.6z M69.9,82
				v0.3h-0.4v-2H72V82H69.9z M69.9,80.8v0.9h1.8v-0.9H69.9z"/>
			<path class="st7" d="M77.9,81.8c-0.5,0.4-1.5,0.8-2.2,0.9c-0.1-0.1-0.2-0.3-0.3-0.4c0.8-0.1,1.7-0.4,2.2-0.7L77.9,81.8z
				 M81.7,80.8v0.4h-2.9v1.7h-0.5v-1.7h-2.9v-0.4h2.9v-0.6h-2.2v-0.4h2.2v-0.6h-2.6v-0.4h1.6c-0.1-0.2-0.2-0.5-0.4-0.7l0.4-0.1h-1.9
				v-0.4h1.2c-0.1-0.3-0.4-0.7-0.6-1.1l0.4-0.1c0.3,0.3,0.5,0.8,0.6,1.1l-0.4,0.1h0.9v-1.3h0.4v1.3H79v-1.3h0.5v1.3h0.9l-0.3-0.1
				c0.2-0.3,0.4-0.8,0.6-1.1l0.5,0.1c-0.2,0.4-0.4,0.8-0.6,1.1h1.1v0.4h-1.9l0.4,0.1c-0.2,0.3-0.3,0.5-0.5,0.7h1.7v0.4h-2.6v0.6h2.3
				v0.4h-2.3v0.6H81.7z M77.4,78.1c0.2,0.2,0.3,0.5,0.4,0.8l-0.3,0.1h2l-0.3-0.1c0.2-0.2,0.3-0.5,0.4-0.8H77.4z M79.6,81.6
				c0.7,0.2,1.6,0.6,2.1,0.8l-0.3,0.3c-0.5-0.2-1.4-0.6-2.1-0.9L79.6,81.6z"/>
			<path class="st7" d="M85.3,76.8c-0.2,0.6-0.5,1.3-0.7,1.9c0.5,0.6,0.6,1.1,0.6,1.6c0,0.4-0.1,0.7-0.3,0.8
				c-0.1,0.1-0.2,0.1-0.4,0.1c-0.1,0-0.3,0-0.5,0c0-0.1-0.1-0.3-0.1-0.4c0.2,0,0.3,0,0.4,0c0.1,0,0.2,0,0.2-0.1
				c0.1-0.1,0.2-0.3,0.2-0.5c0-0.4-0.1-0.9-0.6-1.5c0.2-0.5,0.4-1.2,0.6-1.6h-0.9v5.8h-0.4v-6.3h1.5l0.1,0L85.3,76.8z M86.5,80.9
				c-0.1,0.2-0.1,0.4-0.2,0.5c0.3,0.2,0.7,0.5,0.8,0.7l-0.3,0.3c-0.2-0.2-0.5-0.4-0.8-0.6c-0.3,0.5-0.7,0.9-1.1,1.2
				c-0.1-0.1-0.2-0.2-0.3-0.3c0.7-0.4,1.2-1,1.4-1.8L86.5,80.9z M87.6,76.5c-0.1,0.1-0.1,0.2-0.2,0.2c0.5,0.5,1.5,1,2.2,1.3
				c-0.1,0.1-0.2,0.3-0.2,0.4c-0.7-0.3-1.6-0.9-2.2-1.4c-0.5,0.6-1.1,1.1-1.8,1.5c-0.1-0.1-0.2-0.2-0.3-0.3c0.9-0.5,1.7-1.2,2.1-1.9
				L87.6,76.5z M85.5,78.9h1.6v1.7h-1.6V78.9z M85.9,80.3h0.8v-1h-0.8V80.3z M88.4,78.4h-2.2V78h2.2V78.4z M88.6,80.9
				c0,0.2-0.1,0.4-0.2,0.6c0.5,0.3,1,0.7,1.3,1l-0.3,0.3c-0.2-0.3-0.7-0.6-1.1-0.9c-0.2,0.4-0.5,0.8-0.9,1c-0.1-0.1-0.2-0.2-0.3-0.3
				c0.6-0.4,1-1,1.1-1.8L88.6,80.9z M89.2,80.6h-1.6v-1.7h1.6V80.6z M88.8,79.3h-0.9v1h0.9V79.3z"/>
			<path class="st7" d="M91.3,77.1h1.5c1.2,0,2,0.4,2,1.5c0,1.1-0.8,1.6-1.9,1.6h-0.9v2.1h-0.6V77.1z M92.7,79.8
				c1,0,1.4-0.3,1.4-1.1c0-0.8-0.5-1-1.5-1h-0.8v2.2H92.7z"/>
		</g>
		<g class="st6">
			<path class="st7" d="M96.4,78.5h0.5l0.1,0.7h0c0.3-0.5,0.7-0.8,1.1-0.8c0.2,0,0.3,0,0.4,0.1L98.4,79c-0.1,0-0.2-0.1-0.4-0.1
				c-0.3,0-0.7,0.2-1,0.9v2.5h-0.6V78.5z"/>
		</g>
		<g class="st6">
			<path class="st7" d="M99.3,80.4c0-1.3,0.8-2.1,1.8-2.1c1,0,1.8,0.8,1.8,2.1c0,1.3-0.8,2-1.8,2C100.2,82.5,99.3,81.7,99.3,80.4z
				 M102.3,80.4c0-0.9-0.5-1.6-1.2-1.6c-0.7,0-1.2,0.6-1.2,1.6c0,0.9,0.5,1.5,1.2,1.5C101.8,82,102.3,81.4,102.3,80.4z"/>
			<path class="st7" d="M109.4,76.4c-0.1,0.2-0.1,0.3-0.2,0.5c0.4,0.7,1.1,1.4,1.7,1.8c-0.1,0.1-0.2,0.2-0.3,0.3
				c-0.5-0.4-1.2-1.1-1.6-1.8c-0.4,0.7-1,1.4-1.6,1.8c-0.1-0.1-0.2-0.2-0.3-0.3v1.9h-1v0.6h1.3v0.4h-1.3v1.3h-0.5v-1.3h-1.4v-0.4
				h1.4v-0.6h-1.1v-2.4h1.1v-0.6h-1.3v-0.4h1.3v-0.8h0.5v0.8h1.3v0.4h-1.3v0.6h1v0.4c0.7-0.5,1.5-1.4,1.9-2.4L109.4,76.4z
				 M106.7,78.6H105v0.6h1.7V78.6z M106.7,79.6H105v0.6h1.7V79.6z M109.3,80.6h1.3v0.4h-1.3v1.9h-0.5v-1.9h-1.4v-0.4h1.4v-1.2h-1.1
				v-0.4h2.6v0.4h-1V80.6z"/>
			<path class="st7" d="M114.6,78H112v-0.4h2.6V78z M114.4,78.9h-2.1v-0.4h2.1V78.9z M112.3,79.5h2.1v0.4h-2.1V79.5z M112.7,82.5
				v0.3h-0.4v-2.4h2.1v2.1H112.7z M112.7,80.8v1.3h1.3v-1.3H112.7z M113.4,77.5c-0.1-0.3-0.3-0.7-0.5-1l0.4-0.2
				c0.2,0.3,0.4,0.7,0.6,0.9L113.4,77.5z M115.3,76.5h0.5v2.5c0,1.4-0.1,2.8-1,3.9c-0.1-0.1-0.3-0.2-0.4-0.3
				c0.8-1.1,0.9-2.3,0.9-3.7V76.5z M116.6,76.8h0.4v5.4h-0.4V76.8z M118.4,76.5v6.5h-0.5v-6.5H118.4z"/>
			<path class="st7" d="M122.1,81.8c-0.8,0.2-1.6,0.4-2.2,0.6l-0.1-0.5c0.3-0.1,0.6-0.1,0.9-0.2v-2H120v-0.4h0.8v-1.9h-0.9v-0.4h2.2
				v0.4h-0.9v1.9h0.8v0.4h-0.8v1.9l0.8-0.2L122.1,81.8z M123.5,79.4c0,1.5-0.2,2.7-1.6,3.5c-0.1-0.1-0.2-0.3-0.3-0.3
				c1.2-0.8,1.4-1.8,1.4-3.1l-0.3,0.1c-0.1-0.4-0.5-1-0.7-1.5l0.4-0.1c0.2,0.4,0.5,0.8,0.7,1.2v-2.8h0.4V79.4z M126.4,82.2v0.4h-3.1
				v-0.4h1.4v-2.3h-0.9v-0.4h0.9v-2.2h-1v-0.4h2.5v0.4h-1.1v2.2h0.9v0.4h-0.9v2.3H126.4z"/>
		</g>
		<g class="st6">
			<path class="st7" d="M65.5,88.6c0-1.4,0.6-2.5,1.4-3.4l0.4,0.2c-0.9,0.9-1.4,2-1.4,3.2c0,1.3,0.5,2.4,1.4,3.2l-0.4,0.2
				C66,91.2,65.5,90,65.5,88.6z"/>
		</g>
		<g class="st6">
			<path class="st7" d="M78.1,86.1v0.4h-6.3v-0.4h3c-0.1-0.2-0.2-0.5-0.3-0.7l0.4-0.1c0.1,0.3,0.2,0.6,0.3,0.8H78.1z M77.7,91.4
				c0,0.3-0.1,0.4-0.3,0.5c-0.2,0.1-0.6,0.1-1.2,0.1c0-0.1-0.1-0.3-0.2-0.4c0.5,0,0.9,0,1,0c0.1,0,0.2,0,0.2-0.2V88h-1.5v0.5
				c0,0.2,0,0.2,0.1,0.2h0.7c0.1,0,0.3,0,0.4,0c0,0.1,0,0.2,0,0.4c-0.1,0-0.3,0-0.4,0h-0.8c-0.4,0-0.5-0.2-0.5-0.6V88h-0.9
				c-0.1,0.8-0.5,1.2-1.5,1.4c0-0.1-0.1-0.3-0.2-0.3c0.9-0.2,1.2-0.5,1.3-1.1h-1.3v3.9h-0.5v-4.3h3.3c0.2-0.3,0.4-0.7,0.6-1l0.5,0.1
				c-0.2,0.3-0.4,0.6-0.6,0.9h1.7V91.4z M73.8,86.6c0.2,0.3,0.4,0.6,0.5,0.8l-0.4,0.2c-0.1-0.2-0.3-0.6-0.5-0.8L73.8,86.6z M74.1,91
				v0.3h-0.4v-2h2.6V91H74.1z M74.1,89.8v0.9h1.8v-0.9H74.1z"/>
			<path class="st7" d="M82.1,90.8c-0.5,0.4-1.5,0.8-2.2,0.9c-0.1-0.1-0.2-0.3-0.3-0.4c0.8-0.1,1.7-0.4,2.2-0.7L82.1,90.8z
				 M85.9,89.8v0.4H83v1.7h-0.5v-1.7h-2.9v-0.4h2.9v-0.6h-2.2v-0.4h2.2v-0.6H80v-0.4h1.6c-0.1-0.2-0.2-0.5-0.4-0.7l0.4-0.1h-1.9
				v-0.4h1.2c-0.1-0.3-0.4-0.7-0.6-1.1l0.4-0.1c0.3,0.3,0.5,0.8,0.6,1.1l-0.4,0.1h0.9v-1.3h0.4v1.3h0.9v-1.3h0.5v1.3h0.9l-0.3-0.1
				c0.2-0.3,0.4-0.8,0.6-1.1l0.5,0.1c-0.2,0.4-0.4,0.8-0.6,1.1h1.1v0.4H84l0.4,0.1c-0.2,0.3-0.3,0.5-0.5,0.7h1.7v0.4H83v0.6h2.3v0.4
				H83v0.6H85.9z M81.6,87.1c0.2,0.2,0.3,0.5,0.4,0.8l-0.3,0.1h2l-0.3-0.1c0.2-0.2,0.3-0.5,0.4-0.8H81.6z M83.8,90.6
				c0.7,0.2,1.6,0.6,2.1,0.8l-0.3,0.3c-0.5-0.2-1.4-0.6-2.1-0.9L83.8,90.6z"/>
			<path class="st7" d="M89.5,85.8c-0.2,0.6-0.5,1.3-0.7,1.9c0.5,0.6,0.6,1.1,0.6,1.6c0,0.4-0.1,0.7-0.3,0.8
				c-0.1,0.1-0.2,0.1-0.4,0.1c-0.1,0-0.3,0-0.5,0c0-0.1-0.1-0.3-0.1-0.4c0.2,0,0.3,0,0.4,0c0.1,0,0.2,0,0.2-0.1
				c0.1-0.1,0.2-0.3,0.2-0.5c0-0.4-0.1-0.9-0.6-1.5c0.2-0.5,0.4-1.2,0.6-1.6H88v5.8h-0.4v-6.3h1.5l0.1,0L89.5,85.8z M90.7,89.9
				c-0.1,0.2-0.1,0.4-0.2,0.5c0.3,0.2,0.7,0.5,0.8,0.7l-0.3,0.3c-0.2-0.2-0.5-0.4-0.8-0.6c-0.3,0.5-0.7,0.9-1.1,1.2
				c-0.1-0.1-0.2-0.2-0.3-0.3c0.7-0.4,1.2-1,1.4-1.8L90.7,89.9z M91.8,85.5c-0.1,0.1-0.1,0.2-0.2,0.2c0.5,0.5,1.5,1,2.2,1.3
				c-0.1,0.1-0.2,0.3-0.2,0.4c-0.7-0.3-1.6-0.9-2.2-1.4c-0.5,0.6-1.1,1.1-1.8,1.5c-0.1-0.1-0.2-0.2-0.3-0.3c0.9-0.5,1.7-1.2,2.1-1.9
				L91.8,85.5z M89.7,87.9h1.6v1.7h-1.6V87.9z M90.1,89.3h0.8v-1h-0.8V89.3z M92.6,87.4h-2.2V87h2.2V87.4z M92.8,89.9
				c0,0.2-0.1,0.4-0.2,0.6c0.5,0.3,1,0.7,1.3,1l-0.3,0.3c-0.2-0.3-0.7-0.6-1.1-0.9c-0.2,0.4-0.5,0.8-0.9,1c-0.1-0.1-0.2-0.2-0.3-0.3
				c0.6-0.4,1-1,1.1-1.8L92.8,89.9z M93.4,89.6h-1.6v-1.7h1.6V89.6z M93,88.3h-0.9v1H93V88.3z"/>
			<path class="st7" d="M101.5,86.1v0.4h-6.3v-0.4h3c-0.1-0.2-0.2-0.5-0.3-0.7l0.4-0.1c0.1,0.3,0.2,0.6,0.3,0.8H101.5z M101.1,91.4
				c0,0.3-0.1,0.4-0.3,0.5c-0.2,0.1-0.6,0.1-1.2,0.1c0-0.1-0.1-0.3-0.2-0.4c0.5,0,0.9,0,1,0c0.1,0,0.2,0,0.2-0.2V88h-1.5v0.5
				c0,0.2,0,0.2,0.1,0.2h0.7c0.1,0,0.3,0,0.4,0c0,0.1,0,0.2,0,0.4c-0.1,0-0.3,0-0.4,0h-0.8c-0.4,0-0.5-0.2-0.5-0.6V88h-0.9
				c-0.1,0.8-0.5,1.2-1.5,1.4c0-0.1-0.1-0.3-0.2-0.3c0.9-0.2,1.2-0.5,1.3-1.1h-1.3v3.9h-0.5v-4.3H99c0.2-0.3,0.4-0.7,0.6-1l0.5,0.1
				c-0.2,0.3-0.4,0.6-0.6,0.9h1.7V91.4z M97.2,86.6c0.2,0.3,0.4,0.6,0.5,0.8l-0.4,0.2c-0.1-0.2-0.3-0.6-0.5-0.8L97.2,86.6z M97.5,91
				v0.3h-0.4v-2h2.6V91H97.5z M97.5,89.8v0.9h1.8v-0.9H97.5z"/>
			<path class="st7" d="M103.2,88.8h2.5v3.1h-0.5v-0.3h-1.6v0.4h-0.5V88.8z M103.7,89.3v1.8h1.6v-1.8H103.7z M108.2,88h-3.9v-2.4
				h3.9V88z M107.7,86.1h-2.9v1.4h2.9V86.1z M109.2,88.8v3.1h-0.5v-0.3H107v0.4h-0.5v-3.1H109.2z M108.8,91.1v-1.8H107v1.8H108.8z"
				/>
			<path class="st7" d="M116.6,87c-0.9,1.3-2.5,2.8-4,3.7c0.1,0.1,0.2,0.1,0.2,0.2c0.5,0.3,1,0.3,1.9,0.3c0.9,0,1.9-0.1,2.6-0.1
				c-0.1,0.1-0.1,0.4-0.1,0.5c-0.5,0-1.8,0.1-2.5,0.1c-0.9,0-1.5-0.1-1.9-0.4c-0.3-0.2-0.5-0.4-0.7-0.4c-0.2,0-0.6,0.4-0.9,0.9
				l-0.4-0.4c0.5-0.5,0.9-0.9,1.3-0.9c0,0,0.1,0,0.1,0c1.3-0.8,2.8-2.1,3.6-3.2h-4.6v-0.5h5l0.1,0L116.6,87z M114.2,86.7
				c-0.2-0.3-0.5-0.8-0.8-1.2l0.4-0.2c0.3,0.4,0.6,0.9,0.8,1.2L114.2,86.7z"/>
			<path class="st7" d="M120.9,87.1c-0.2,0.4-0.5,0.7-0.8,1.1V92h-0.5v-3.3c-0.3,0.3-0.6,0.6-0.9,0.8c-0.1-0.1-0.2-0.3-0.3-0.4
				c0.7-0.5,1.5-1.4,2-2.2L120.9,87.1z M120.6,85.5c-0.5,0.6-1.2,1.3-1.8,1.8c-0.1-0.1-0.2-0.3-0.3-0.4c0.6-0.4,1.3-1,1.7-1.6
				L120.6,85.5z M125.1,88.2H124v3.1c0,0.3-0.1,0.5-0.3,0.5c-0.2,0.1-0.6,0.1-1.4,0.1c0-0.1-0.1-0.3-0.2-0.5c0.5,0,1,0,1.2,0
				c0.1,0,0.2,0,0.2-0.2v-3.1H121v-0.5h4.1V88.2z M124.9,86.2h-3.5v-0.4h3.5V86.2z"/>
		</g>
		<g class="st6">
			<path class="st7" d="M129,91.1c-0.9,0.2-1.8,0.4-2.5,0.6l-0.1-0.4c0.3-0.1,0.7-0.1,1.2-0.2v-2.2h-1.1v-0.4h1.1v-0.8h-0.7v-0.3
				c-0.1,0.1-0.2,0.2-0.3,0.3c0-0.1-0.2-0.3-0.2-0.5c0.5-0.4,1.1-1.1,1.4-1.8l0.4,0.1c0,0.1-0.1,0.2-0.1,0.3
				c0.4,0.4,0.9,0.8,1.2,1.1l-0.3,0.4c-0.3-0.3-0.7-0.7-1.1-1.1c-0.2,0.4-0.5,0.7-0.8,1h1.7v0.4H128v0.8h0.9v0.4H128v2.1l1-0.2
				L129,91.1z M126.9,89.2c0.1,0.4,0.3,1,0.3,1.3l-0.4,0.1c0-0.4-0.2-0.9-0.3-1.4L126.9,89.2z M128.3,90.5c0.1-0.4,0.3-1,0.4-1.3
				l0.4,0.1c-0.1,0.4-0.3,1-0.4,1.3L128.3,90.5z M132.7,91.3c0,0.3-0.1,0.4-0.3,0.5c-0.2,0.1-0.6,0.1-1.1,0.1c0-0.1-0.1-0.3-0.2-0.5
				c0.4,0,0.8,0,0.9,0c0.1,0,0.1,0,0.1-0.1V90c-0.8,0.2-1.5,0.4-2.1,0.5l-0.2-0.4c0.6-0.1,1.4-0.3,2.3-0.5v-1.7h-2.3v1.5
				c0,0.8-0.1,1.9-0.5,2.6c-0.1-0.1-0.3-0.2-0.4-0.3c0.4-0.7,0.4-1.6,0.4-2.3v-1.9h1.4v-2.1h0.5v2.1h1.4V91.3z M130,87.1
				c-0.1-0.4-0.4-0.9-0.7-1.4l0.4-0.2c0.3,0.4,0.6,1,0.7,1.3L130,87.1z M130.2,88.4c0.6,0.1,1.3,0.3,1.7,0.5l-0.2,0.4
				c-0.4-0.2-1.1-0.5-1.7-0.6L130.2,88.4z M132.9,85.7c-0.2,0.5-0.6,1-0.8,1.4l-0.4-0.2c0.3-0.4,0.6-0.9,0.8-1.4L132.9,85.7z"/>
		</g>
		<g class="st6">
			<path class="st7" d="M135.5,88.6c0,1.4-0.6,2.5-1.4,3.4l-0.4-0.2c0.9-0.9,1.4-2,1.4-3.2c0-1.3-0.5-2.4-1.4-3.2l0.4-0.2
				C135,86.1,135.5,87.3,135.5,88.6z"/>
		</g>
		<g class="st6">
			<path class="st7" d="M67.6,107.1c0-1.7,1-2.7,2.3-2.7c0.6,0,1.1,0.3,1.4,0.6l-0.3,0.4c-0.3-0.3-0.6-0.5-1.1-0.5
				c-1,0-1.7,0.8-1.7,2.2c0,1.4,0.7,2.2,1.7,2.2c0.5,0,0.9-0.2,1.3-0.6l0.3,0.4c-0.4,0.5-0.9,0.8-1.6,0.8
				C68.5,109.8,67.6,108.8,67.6,107.1z"/>
		</g>
		<g class="st6">
			<path class="st7" d="M72.5,109l0.4-0.4c0.4,0.4,0.9,0.7,1.5,0.7c0.7,0,1.2-0.4,1.2-0.9c0-0.6-0.4-0.8-0.9-1l-0.8-0.3
				c-0.5-0.2-1.1-0.6-1.1-1.3c0-0.8,0.7-1.4,1.6-1.4c0.6,0,1.2,0.3,1.5,0.7l-0.3,0.4c-0.3-0.3-0.7-0.5-1.2-0.5c-0.6,0-1,0.3-1,0.8
				c0,0.5,0.5,0.7,0.9,0.9l0.8,0.3c0.6,0.3,1.1,0.6,1.1,1.4c0,0.8-0.7,1.5-1.8,1.5C73.6,109.8,72.9,109.5,72.5,109z"/>
			<path class="st7" d="M77,104.4h0.6l0.9,2.9c0.2,0.6,0.3,1.1,0.5,1.8h0c0.2-0.6,0.3-1.1,0.5-1.8l0.9-2.9h0.6l-1.7,5.3h-0.7
				L77,104.4z"/>
			<path class="st7" d="M84.5,106.7c-0.4,1.5-1.2,2.5-2.2,3.1c-0.1-0.1-0.3-0.3-0.4-0.4c0.8-0.5,1.5-1.3,1.9-2.4h-1.8v-0.5h2l0.1,0
				L84.5,106.7z M88.3,106c-0.6,0.5-1.3,1.2-1.9,1.6c0.5,0.8,1.3,1.5,2.2,1.8c-0.1,0.1-0.3,0.3-0.3,0.4c-1.3-0.5-2.1-1.6-2.7-2.9
				v2.7c0,0.3-0.1,0.5-0.3,0.5c-0.2,0.1-0.6,0.1-1.2,0.1c0-0.1-0.1-0.3-0.2-0.5c0.5,0,0.9,0,1,0c0.1,0,0.2,0,0.2-0.2v-4h-2v-0.5h2.5
				v0.5c0.2,0.6,0.4,1.1,0.6,1.5c0.6-0.4,1.3-1.1,1.7-1.5L88.3,106z M86.3,105c-0.6-0.3-1.8-0.8-2.7-1l0.2-0.4
				c0.9,0.2,2.1,0.6,2.7,0.9L86.3,105z"/>
			<path class="st7" d="M90.5,108.3c-0.1,0.7-0.2,1.4-0.4,1.9c-0.1,0-0.3-0.1-0.4-0.1c0.2-0.5,0.3-1.2,0.4-1.8L90.5,108.3z
				 M91.8,108c0-0.1,0-0.3-0.1-0.4c-1.4,0.2-1.6,0.3-1.8,0.3c0-0.1-0.1-0.3-0.2-0.4c0.1,0,0.3-0.2,0.5-0.5c0.1-0.1,0.3-0.5,0.6-0.9
				c-0.7,0.1-0.9,0.1-1,0.2c0-0.1-0.1-0.3-0.1-0.4c0.1,0,0.2-0.2,0.4-0.4c0.2-0.2,0.6-1.1,0.9-1.8l0.4,0.2c-0.3,0.7-0.7,1.4-1,2
				l0.8-0.1c0.2-0.3,0.4-0.7,0.5-1l0.4,0.2c-0.4,0.9-1,1.7-1.5,2.4l1.1-0.1c-0.1-0.3-0.2-0.5-0.2-0.7l0.3-0.1
				c0.2,0.5,0.4,1.1,0.4,1.5L91.8,108z M91.1,108.2c0.1,0.5,0.2,1.2,0.2,1.7L91,110c0-0.5-0.1-1.1-0.2-1.7L91.1,108.2z M91.7,108.1
				c0.2,0.4,0.3,1,0.4,1.3l-0.3,0.1c-0.1-0.4-0.2-0.9-0.4-1.4L91.7,108.1z M93.9,109.5c-0.5,0.3-1.2,0.5-1.7,0.7
				c0-0.1-0.1-0.2-0.2-0.3c0.5-0.2,1.2-0.5,1.6-0.7L93.9,109.5z M94,104.4h-1.9v-0.3H94v-0.4h0.5v0.4h1.8v0.3h-1.8v0.4H96v0.3h-3.5
				v-0.3H94V104.4z M92.2,105.5h4v1.3h-4V105.5z M94.8,109.2c0.5,0.2,1.1,0.5,1.5,0.7l-0.2,0.3c-0.4-0.2-1-0.5-1.5-0.7L94.8,109.2
				h-2.4v-2.1H96v2.1H94.8z M92.6,106.4h0.9v-0.6h-0.9V106.4z M92.8,107.7h2.7v-0.3h-2.7V107.7z M92.8,108.3h2.7V108h-2.7V108.3z
				 M92.8,108.9h2.7v-0.3h-2.7V108.9z M94.7,106.4v-0.6h-0.8v0.6H94.7z M95.8,105.8H95v0.6h0.7V105.8z"/>
			<path class="st7" d="M100.3,108.2c0,0,0,0.1,0,0.2c-0.1,1-0.2,1.4-0.4,1.6c-0.1,0.1-0.3,0.2-0.5,0.2c-0.2,0-0.6,0-1,0
				c0-0.1-0.1-0.3-0.1-0.4c0.4,0,0.8,0,0.9,0c0.1,0,0.2,0,0.3-0.1c0.1-0.1,0.2-0.4,0.3-1.1h-1.7c0.1-0.4,0.2-1,0.2-1.6h1.5v-0.8
				h-1.2v-0.1c-0.3,0.1-0.5,0.3-0.8,0.4c-0.1-0.1-0.2-0.3-0.3-0.4c0.5-0.1,1-0.4,1.5-0.7c-0.2-0.2-0.5-0.5-0.8-0.7l0.3-0.3
				c0.3,0.2,0.7,0.5,0.9,0.7c0.3-0.2,0.5-0.5,0.7-0.8h-1.7V104h2l0.1,0l0.3,0.2c-0.3,0.7-0.9,1.3-1.5,1.7h1.2v1.6h-1.5
				c0,0.3-0.1,0.5-0.1,0.8H100.3z M104,104.7c-0.3,0.3-0.7,0.6-1,0.8c0.4,0.2,0.8,0.4,1.3,0.5c-0.1,0.1-0.2,0.3-0.3,0.4
				c-0.4-0.1-0.7-0.3-1.1-0.5v1c0,0.2,0,0.2,0.1,0.2h0.6c0.1,0,0.2,0,0.3,0c0,0.1,0,0.2,0,0.3c-0.1,0-0.2,0-0.4,0h-0.6
				c-0.4,0-0.5-0.2-0.5-0.6v-0.8h-1v0.2c0,0.5-0.1,1-0.8,1.3c-0.1-0.1-0.2-0.2-0.3-0.3c0.6-0.3,0.7-0.7,0.7-1v-0.6h1.7
				c-0.8-0.5-1.4-1.2-1.8-2l0.4-0.1c0.2,0.3,0.3,0.6,0.6,0.9c0.3-0.3,0.7-0.6,1-0.9l0.4,0.2c-0.3,0.3-0.7,0.6-1.1,0.9
				c0.2,0.2,0.4,0.3,0.5,0.4c0.3-0.2,0.8-0.6,1-0.8L104,104.7z M103.5,108c-0.2,0.5-0.5,1-1,1.3c0.4,0.2,0.8,0.5,1,0.7l-0.2,0.3
				c-0.3-0.2-0.7-0.5-1.1-0.7c-0.5,0.3-1.1,0.6-1.7,0.7c0-0.1-0.1-0.3-0.2-0.4c0.5-0.1,1.1-0.3,1.5-0.6c-0.4-0.2-0.8-0.5-1.2-0.7
				l0.2-0.3c0.4,0.2,0.8,0.5,1.3,0.7c0.3-0.2,0.6-0.5,0.7-0.8h-2.3v-0.4h2.5l0.1,0L103.5,108z"/>
			<path class="st7" d="M106.6,105.6v0.5c0,1.2-0.1,3-0.8,4.1c-0.1-0.1-0.3-0.2-0.4-0.2c0.7-1.1,0.8-2.7,0.8-3.9V104h5.4v1.6H106.6z
				 M106.6,104.4v0.8h4.4v-0.8H106.6z M111.5,108.4c-0.3,0.3-0.8,0.6-1.2,0.8c0.5,0.3,1,0.6,1.7,0.7c-0.1,0.1-0.2,0.3-0.3,0.4
				c-1.3-0.3-2.2-1.1-2.7-2.2h-1v1.5l1.6-0.4c0,0.1,0,0.3,0,0.4c-1.9,0.5-2.1,0.5-2.2,0.6c0-0.1-0.1-0.3-0.2-0.4
				c0.1-0.1,0.3-0.2,0.3-0.5v-1.2h-0.8v-0.4h1.3v-0.8h-1.1v-0.4h1.1v-0.7h0.4v0.7h1.5v-0.7h0.4v0.7h1.3v0.4h-1.3v0.8h1.5v0.4h-2.5
				c0.2,0.3,0.4,0.6,0.6,0.8c0.4-0.2,0.8-0.5,1.1-0.8L111.5,108.4z M108.4,107.6h1.5v-0.8h-1.5V107.6z"/>
			<path class="st7" d="M118.4,103.7c-0.1,0.2-0.1,0.3-0.2,0.5c0.4,0.7,1.1,1.4,1.7,1.8c-0.1,0.1-0.2,0.2-0.3,0.3
				c-0.5-0.4-1.2-1.1-1.6-1.8c-0.4,0.7-1,1.4-1.6,1.8c-0.1-0.1-0.2-0.2-0.3-0.3v1.9h-1v0.6h1.3v0.4h-1.3v1.3h-0.5v-1.3h-1.4v-0.4
				h1.4v-0.6h-1.1v-2.4h1.1v-0.6h-1.3v-0.4h1.3v-0.8h0.5v0.8h1.3v0.4h-1.3v0.6h1v0.4c0.7-0.5,1.5-1.4,1.9-2.4L118.4,103.7z
				 M115.7,105.9H114v0.6h1.7V105.9z M115.7,106.9H114v0.6h1.7V106.9z M118.3,107.9h1.3v0.4h-1.3v1.9h-0.5v-1.9h-1.4v-0.4h1.4v-1.2
				h-1.1v-0.4h2.6v0.4h-1V107.9z"/>
			<path class="st7" d="M123.6,105.3H121v-0.4h2.6V105.3z M123.4,106.2h-2.1v-0.4h2.1V106.2z M121.3,106.8h2.1v0.4h-2.1V106.8z
				 M121.7,109.8v0.3h-0.4v-2.4h2.1v2.1H121.7z M121.7,108.1v1.3h1.3v-1.3H121.7z M122.4,104.8c-0.1-0.3-0.3-0.7-0.5-1l0.4-0.2
				c0.2,0.3,0.4,0.7,0.6,0.9L122.4,104.8z M124.3,103.8h0.5v2.5c0,1.4-0.1,2.8-1,3.9c-0.1-0.1-0.3-0.2-0.4-0.3
				c0.8-1.1,0.9-2.3,0.9-3.7V103.8z M125.6,104.1h0.4v5.4h-0.4V104.1z M127.4,103.8v6.5h-0.5v-6.5H127.4z"/>
			<path class="st7" d="M131.1,109.1c-0.8,0.2-1.6,0.4-2.2,0.6l-0.1-0.5c0.3-0.1,0.6-0.1,0.9-0.2v-2H129v-0.4h0.8v-1.9h-0.9v-0.4
				h2.2v0.4h-0.9v1.9h0.8v0.4h-0.8v1.9l0.8-0.2L131.1,109.1z M132.5,106.7c0,1.5-0.2,2.7-1.6,3.5c-0.1-0.1-0.2-0.3-0.3-0.3
				c1.2-0.8,1.4-1.8,1.4-3.1l-0.3,0.1c-0.1-0.4-0.5-1-0.7-1.5l0.4-0.1c0.2,0.4,0.5,0.8,0.7,1.2v-2.8h0.4V106.7z M135.4,109.5v0.4
				h-3.1v-0.4h1.4v-2.3h-0.9v-0.4h0.9v-2.2h-1v-0.4h2.5v0.4h-1.1v2.2h0.9v0.4h-0.9v2.3H135.4z"/>
		</g>
		<g class="st6">
			<path class="st7" d="M65.5,116c0-1.4,0.6-2.5,1.4-3.4l0.4,0.2c-0.9,0.9-1.4,2-1.4,3.2c0,1.3,0.5,2.4,1.4,3.2l-0.4,0.2
				C66,118.5,65.5,117.3,65.5,116z"/>
		</g>
		<g class="st6">
			<path class="st7" d="M72.1,113.4h3v0.5h-2.4v1.7h2v0.5h-2v2h2.5v0.5h-3.1V113.4z"/>
			<path class="st7" d="M76.5,118l0.4-0.4c0.4,0.4,0.9,0.7,1.5,0.7c0.7,0,1.2-0.4,1.2-0.9c0-0.6-0.4-0.8-0.9-1l-0.8-0.3
				c-0.5-0.2-1.1-0.6-1.1-1.3c0-0.8,0.7-1.4,1.6-1.4c0.6,0,1.2,0.3,1.5,0.7l-0.3,0.4c-0.3-0.3-0.7-0.5-1.2-0.5c-0.6,0-1,0.3-1,0.8
				c0,0.5,0.5,0.7,0.9,0.9l0.8,0.3c0.6,0.3,1.1,0.6,1.1,1.4c0,0.8-0.7,1.5-1.8,1.5C77.6,118.8,76.9,118.5,76.5,118z"/>
			<path class="st7" d="M81.4,116.1c0-1.7,1-2.7,2.4-2.7c0.7,0,1.2,0.3,1.5,0.6l-0.3,0.4c-0.3-0.3-0.6-0.5-1.2-0.5
				c-1.1,0-1.8,0.8-1.8,2.2c0,1.4,0.7,2.2,1.8,2.2c0.4,0,0.8-0.1,1-0.3v-1.4h-1.1V116h1.7v2.2c-0.3,0.4-0.9,0.6-1.6,0.6
				C82.4,118.8,81.4,117.8,81.4,116.1z"/>
			<path class="st7" d="M88.9,115.3c0,0.1,0,0.2,0,0.3h1.4v0.5h-1.4c0,0.2,0,0.3-0.1,0.5c0.3,0.3,1.2,1.3,1.4,1.6l-0.3,0.4
				c-0.2-0.3-0.8-1.1-1.2-1.5c-0.2,0.8-0.7,1.6-1.5,2.2c-0.1-0.1-0.2-0.3-0.3-0.4c1.1-0.8,1.5-1.9,1.6-2.8h-1.5v-0.5h1.5
				c0-0.1,0-0.2,0-0.3v-1.2h-0.6c-0.2,0.4-0.4,0.9-0.6,1.2c-0.1-0.1-0.3-0.2-0.4-0.3c0.4-0.6,0.7-1.4,0.9-2.3l0.5,0.1
				c-0.1,0.3-0.1,0.6-0.2,0.9H90v0.4h-1.2V115.3z M93.1,113.3v5.7h-0.5v-0.5H91v0.6h-0.5v-5.8H93.1z M92.6,118v-4.3H91v4.3H92.6z"/>
			<path class="st7" d="M94.7,113.9h2v0.4h-2V113.9z M96.6,118.8h-1.2v0.3H95v-2.4h1.6V118.8z M95,114.8h1.6v0.4H95V114.8z
				 M95,115.8h1.6v0.4H95V115.8z M95.8,113.8c-0.1-0.2-0.3-0.6-0.5-0.9l0.3-0.1c0.2,0.3,0.4,0.7,0.5,0.9L95.8,113.8z M95.3,117.2
				v1.3h0.8v-1.3H95.3z M101,115.9c-0.2,0.7-0.5,1.3-0.9,1.8c0.1,0.6,0.3,1,0.5,1c0.1,0,0.2-0.3,0.2-0.9c0.1,0.1,0.2,0.2,0.3,0.2
				c-0.1,1-0.4,1.3-0.6,1.2c-0.4,0-0.6-0.4-0.8-1.1c-0.3,0.4-0.7,0.8-1.1,1.1c-0.1-0.1-0.2-0.2-0.3-0.3c0.5-0.3,0.9-0.8,1.3-1.3
				c-0.1-0.6-0.2-1.4-0.3-2.3h-2.6v-0.4h0.6c0-0.3-0.1-0.6-0.2-0.9l0.4-0.1c0.1,0.3,0.2,0.7,0.2,0.9h0.5c0.1-0.3,0.2-0.7,0.2-0.9
				l0.4,0.1c-0.1,0.3-0.2,0.6-0.3,0.9h0.8c0-0.7-0.1-1.4-0.1-2.2h0.4c0,0.8,0,1.5,0.1,2.2h1.3v0.4h-1.3c0,0.7,0.1,1.3,0.2,1.8
				c0.2-0.4,0.5-0.9,0.6-1.4L101,115.9z M99.1,113.8h-2.2v-0.4h1c-0.1-0.2-0.2-0.4-0.3-0.6l0.4-0.1c0.1,0.2,0.3,0.5,0.4,0.7h0.8
				V113.8z M97.5,118.2v0.5h-0.4v-3H99v2.7h-0.4v-0.2H97.5z M97.5,116.1v0.7h1.1v-0.7H97.5z M98.6,117.8v-0.7h-1.1v0.7H98.6z
				 M100.6,114.5c-0.1-0.3-0.3-0.8-0.6-1.2l0.4-0.2c0.2,0.4,0.5,0.9,0.6,1.2L100.6,114.5z"/>
			<path class="st7" d="M103.9,116.1l0.8-0.2l0.1,0.4c-0.3,0.1-0.6,0.2-0.8,0.3v2.1c0,0.3-0.1,0.4-0.2,0.5c-0.2,0.1-0.4,0.1-0.9,0.1
				c0-0.1-0.1-0.3-0.2-0.5c0.3,0,0.6,0,0.7,0c0.1,0,0.1,0,0.1-0.1v-1.9l-0.9,0.3l-0.1-0.5c0.3-0.1,0.6-0.2,1-0.3v-1.7h-0.9v-0.4h0.9
				v-1.5h0.5v1.5h0.8v0.4h-0.8V116.1z M109,118.7h-3.3v0.5h-0.5V115c-0.2,0.3-0.4,0.6-0.6,0.9c-0.1-0.1-0.3-0.3-0.4-0.3
				c0.6-0.7,1.2-1.7,1.5-2.8l0.4,0.1c-0.1,0.4-0.3,0.8-0.4,1.1h1.5c-0.1-0.3-0.3-0.7-0.5-1.1l0.4-0.2c0.2,0.3,0.4,0.8,0.5,1.1
				l-0.4,0.2h1.5v0.4h-1.4v1h1.3v0.4h-1.3v1h1.3v0.4h-1.3v1h1.6V118.7z M107,114.4h-1.3v1h1.3V114.4z M107,115.8h-1.3v1h1.3V115.8z
				 M105.7,118.3h1.3v-1h-1.3V118.3z"/>
			<path class="st7" d="M111.4,115.3c0,1.1-0.1,2.8-0.8,3.9c-0.1-0.1-0.3-0.2-0.4-0.2c0.6-1,0.7-2.5,0.7-3.6v-2h2.8
				c-0.1-0.2-0.1-0.4-0.2-0.5l0.5-0.1c0.1,0.2,0.2,0.5,0.2,0.7h2.5v0.4h-5.4V115.3z M113.6,118.5c-0.6,0.3-1.4,0.6-2,0.8
				c-0.1-0.1-0.2-0.3-0.3-0.3c0.6-0.2,1.4-0.5,1.9-0.8L113.6,118.5z M116.8,115.4v0.3h-5.3v-0.3H116.8z M112.7,115.2v-0.6h-0.9v-0.3
				h0.9v-0.4h0.5v0.4h2v-0.4h0.5v0.4h0.9v0.3h-0.9v0.6H112.7z M116.3,118.1H112V116h4.3V118.1z M112.4,116.9h1.5v-0.5h-1.5V116.9z
				 M112.4,117.8h1.5v-0.5h-1.5V117.8z M113.2,114.6v0.4h2v-0.4H113.2z M115.8,116.4h-1.5v0.5h1.5V116.4z M115.8,117.2h-1.5v0.5h1.5
				V117.2z M114.9,118.1c0.7,0.2,1.4,0.5,1.9,0.8l-0.2,0.3c-0.5-0.2-1.2-0.5-1.9-0.8L114.9,118.1z"/>
			<path class="st7" d="M124.6,117.1v0.4h-6.5v-0.4h0.7l-0.1-3.8c0.4-0.2,1-0.4,1.3-0.6l0.2,0.4c-0.3,0.1-0.8,0.3-1.1,0.4l0,0.9h1
				v0.4h-1l0,0.9h1v0.4h-1l0,0.9h4.2c0-0.3,0-0.6,0.1-0.9h-1v-0.4h1c0-0.3,0-0.6,0-0.9h-1v-0.4h1c0-0.3,0-0.7,0-1h-1.1V113h1.5
				c0,1.3,0,3-0.1,4.1H124.6z M120.7,118c-0.6,0.5-1.4,0.9-2.1,1.3c-0.1-0.1-0.2-0.3-0.3-0.4c0.7-0.3,1.6-0.8,2-1.2L120.7,118z
				 M121.3,115.4c-0.1,0.5-0.2,1-0.5,1.4c-0.1-0.1-0.2-0.2-0.3-0.2c0.2-0.3,0.4-0.8,0.4-1.2L121.3,115.4z M121.8,115h-1.2v-2.3h0.4
				v0.7h1.2v0.4H121v0.8h1v0h0.2v1.9c0,0.2,0,0.3-0.2,0.4c-0.2,0.1-0.4,0.1-0.8,0.1c0-0.1-0.1-0.2-0.1-0.3c0.3,0,0.5,0,0.6,0
				c0.1,0,0.1,0,0.1-0.1V115z M122.4,117.7c0.8,0.4,1.6,0.8,2.1,1.2l-0.3,0.4c-0.5-0.4-1.3-0.8-2.1-1.2L122.4,117.7z"/>
			<path class="st7" d="M132.5,114.7v0.4h-1.2l-0.1,0.6H127l0.1-0.6H126v-0.4h1.2l0.1-0.6h4.1l-0.1,0.6H132.5z M128.7,118.5
				c-0.6,0.3-1.6,0.6-2.3,0.7c-0.1-0.1-0.2-0.3-0.3-0.3c0.8-0.1,1.8-0.4,2.2-0.7L128.7,118.5z M126.6,114.4h-0.4v-1.1h2.8
				c-0.1-0.2-0.2-0.4-0.4-0.6l0.4-0.1c0.2,0.2,0.3,0.5,0.4,0.7h2.7v1.1h-0.5v-0.7h-5.1V114.4z M131.5,118.3h-4.6V116h4.6V118.3z
				 M131,116.3h-3.6v0.3h3.6V116.3z M131,116.9h-3.6v0.4h3.6V116.9z M131,117.6h-3.6v0.4h3.6V117.6z M127.5,115.4h1.4
				c0-0.1,0-0.2,0-0.4h-1.4L127.5,115.4z M127.6,114.4l0,0.4h1.4c0-0.1,0-0.2,0-0.4H127.6z M130.8,115.4l0-0.4h-1.4
				c0,0.1,0,0.3,0,0.4H130.8z M130.9,114.4h-1.4l0,0.4h1.4L130.9,114.4z M129.9,118.3c0.8,0.2,1.7,0.5,2.3,0.7l-0.3,0.3
				c-0.5-0.2-1.4-0.5-2.2-0.7L129.9,118.3z"/>
		</g>
		<g class="st6">
			<path class="st7" d="M136,112.8c-0.2,0.5-0.5,1.1-0.7,1.6v4.9h-0.5v-4.1c-0.2,0.3-0.5,0.7-0.8,0.9c-0.1-0.1-0.2-0.4-0.3-0.5
				c0.7-0.7,1.4-1.8,1.8-2.9L136,112.8z M138.1,114.3v1.1h2.1v0.4h-2.1v1.1h2.2v0.5h-2.2v1.8h-0.5v-4.9h-0.5c-0.3,0.6-0.7,1.1-1,1.5
				c-0.1-0.1-0.3-0.2-0.4-0.3c0.7-0.7,1.2-1.7,1.6-2.8l0.5,0.1c-0.1,0.3-0.3,0.7-0.4,1h3.1v0.5H138.1z"/>
		</g>
		<g class="st6">
			<path class="st7" d="M142.9,116c0,1.4-0.6,2.5-1.4,3.4l-0.4-0.2c0.9-0.9,1.4-2,1.4-3.2c0-1.3-0.5-2.4-1.4-3.2l0.4-0.2
				C142.4,113.4,142.9,114.6,142.9,116z"/>
		</g>
		<g class="st6">
			<path class="st7" d="M224.1,61.7v-4.8c-0.3,0.2-0.9,0.5-1.2,0.6v-0.4c0.3-0.1,0.9-0.4,1.3-0.8h0.3v5.3H224.1z"/>
		</g>
		<g class="st6">
			<path class="st7" d="M226.3,57.6c0.1-0.7,0.6-1.3,1.6-1.3c1,0,1.5,0.7,1.5,1.3c0,0.7-0.4,1-0.7,1.1v0c0.6,0.2,1,0.6,1,1.4
				c0,0.9-0.6,1.7-1.7,1.7c-1.1,0-1.6-0.7-1.7-1.4h0.4c0.1,0.5,0.6,1,1.3,1c0.9,0,1.3-0.6,1.3-1.3c0-0.8-0.6-1.2-1.3-1.2h-0.3v-0.4
				h0.2c0.8,0,1.2-0.3,1.2-1c0-0.6-0.4-0.9-1.1-0.9c-0.7,0-1,0.4-1.1,0.9H226.3z"/>
		</g>
		<g class="st6">
			<path class="st7" d="M230.9,57.6c0.1-0.7,0.6-1.3,1.6-1.3c1,0,1.5,0.7,1.5,1.3c0,0.7-0.4,1-0.7,1.1v0c0.6,0.2,1,0.6,1,1.4
				c0,0.9-0.6,1.7-1.7,1.7c-1.1,0-1.6-0.7-1.7-1.4h0.4c0.1,0.5,0.6,1,1.3,1c0.9,0,1.3-0.6,1.3-1.3c0-0.8-0.6-1.2-1.3-1.2h-0.3v-0.4
				h0.2c0.8,0,1.2-0.3,1.2-1c0-0.6-0.4-0.9-1.1-0.9c-0.7,0-1,0.4-1.1,0.9H230.9z"/>
		</g>
		<g class="st6">
			<path class="st7" d="M238.8,59c0,1.2-0.3,2.8-1.7,2.8c-1.4,0-1.7-1.4-1.7-2.7c0-1.3,0.4-2.7,1.7-2.7
				C238.5,56.3,238.8,57.7,238.8,59z M235.8,59c0,1,0.2,2.3,1.3,2.3c1.1,0,1.3-1.3,1.3-2.4c0-1-0.2-2.3-1.3-2.3
				C236,56.7,235.8,57.8,235.8,59z"/>
		</g>
		<g class="st6">
			<path class="st7" d="M227.9,26.3h-2.3c-0.1,0.5-0.2,1.5-0.3,1.8c0.2-0.3,0.6-0.5,1.2-0.5c0.9,0,1.6,0.6,1.6,1.8
				c0,1-0.5,1.9-1.7,1.9c-0.9,0-1.5-0.5-1.7-1.4h0.4c0.1,0.6,0.5,1,1.3,1c0.8,0,1.3-0.6,1.3-1.5c0-0.8-0.3-1.4-1.2-1.4
				c-0.7,0-1,0.3-1.3,0.8l-0.4-0.1c0.2-0.7,0.4-2.2,0.4-2.8h2.7L227.9,26.3z"/>
		</g>
		<g class="st6">
			<path class="st7" d="M229.5,27.1c0.1-0.7,0.6-1.3,1.6-1.3c1,0,1.5,0.7,1.5,1.3c0,0.7-0.4,1-0.7,1.1v0c0.6,0.2,1,0.6,1,1.4
				c0,0.9-0.6,1.7-1.7,1.7c-1.1,0-1.6-0.7-1.7-1.4h0.4c0.1,0.5,0.6,1,1.3,1c0.9,0,1.3-0.6,1.3-1.3c0-0.8-0.6-1.2-1.3-1.2h-0.3v-0.4
				h0.2c0.8,0,1.2-0.3,1.2-1c0-0.6-0.4-0.9-1.1-0.9c-0.7,0-1,0.4-1.1,0.9H229.5z"/>
		</g>
		<g class="st6">
			<path class="st7" d="M233.9,31.2L233.9,31.2c0-0.7,0.6-1.5,1.6-2.3c0.9-0.7,1.1-0.9,1.1-1.6c0-0.6-0.3-1.1-1.1-1.1
				c-0.7,0-1.1,0.3-1.2,1.1H234c0.1-0.9,0.7-1.5,1.6-1.5c1.1,0,1.5,0.7,1.5,1.4c0,0.8-0.3,1.1-1.3,1.9c-0.8,0.6-1.3,1.1-1.4,1.7h3
				l-0.1,0.4H233.9z"/>
		</g>
		<g class="st6">
			<path class="st7" d="M227.9,109.8h-2.3c-0.1,0.5-0.2,1.5-0.3,1.8c0.2-0.3,0.6-0.5,1.2-0.5c0.9,0,1.6,0.6,1.6,1.8
				c0,1-0.5,1.9-1.7,1.9c-0.9,0-1.5-0.5-1.7-1.4h0.4c0.1,0.6,0.5,1,1.3,1c0.8,0,1.3-0.6,1.3-1.5c0-0.8-0.3-1.4-1.2-1.4
				c-0.7,0-1,0.3-1.3,0.8l-0.4-0.1c0.2-0.7,0.4-2.2,0.4-2.8h2.7L227.9,109.8z"/>
		</g>
		<g class="st6">
			<path class="st7" d="M229.2,114.7L229.2,114.7c0-0.7,0.6-1.5,1.6-2.3c0.9-0.7,1.1-0.9,1.1-1.6c0-0.6-0.3-1.1-1.1-1.1
				c-0.7,0-1.1,0.3-1.2,1.1h-0.4c0.1-0.9,0.7-1.5,1.6-1.5c1.1,0,1.5,0.7,1.5,1.4c0,0.8-0.3,1.1-1.3,1.9c-0.8,0.6-1.3,1.1-1.4,1.7h3
				l-0.1,0.4H229.2z"/>
		</g>
		<g class="st6">
			<path class="st7" d="M234.2,113.6c0.2,0.5,0.5,0.8,1.1,0.8c1.2,0,1.3-1.7,1.3-2.4c-0.3,0.5-0.8,0.8-1.4,0.8
				c-0.9,0-1.6-0.7-1.6-1.7c0-0.9,0.6-1.7,1.7-1.7c1.2,0,1.7,1,1.7,2.4c0,1.3-0.2,3-1.8,3c-0.9,0-1.4-0.5-1.5-1.1H234.2z M234.2,111
				c0,0.8,0.4,1.3,1.2,1.3c0.9,0,1.3-0.5,1.3-1.3c0-0.3-0.1-1.4-1.2-1.4C234.5,109.7,234.2,110.3,234.2,111z"/>
		</g>
		<g class="st6">
			<path class="st7" d="M224.1,86.9v-4.8c-0.3,0.2-0.9,0.5-1.2,0.6v-0.4c0.3-0.1,0.9-0.4,1.3-0.8h0.3v5.3H224.1z"/>
		</g>
		<g class="st6">
			<path class="st7" d="M229.7,84.2c0,1.2-0.3,2.8-1.7,2.8c-1.4,0-1.7-1.4-1.7-2.7c0-1.3,0.4-2.7,1.7-2.7
				C229.4,81.5,229.7,82.9,229.7,84.2z M226.7,84.2c0,1,0.2,2.3,1.3,2.3c1.1,0,1.3-1.3,1.3-2.4c0-1-0.2-2.3-1.3-2.3
				C226.9,81.9,226.7,83,226.7,84.2z"/>
		</g>
		<g class="st6">
			<path class="st7" d="M231.5,85.8c0.2,0.5,0.5,0.8,1.1,0.8c1.2,0,1.3-1.7,1.3-2.4c-0.3,0.5-0.8,0.8-1.4,0.8
				c-0.9,0-1.6-0.7-1.6-1.7c0-0.9,0.6-1.7,1.7-1.7c1.2,0,1.7,1,1.7,2.4c0,1.3-0.2,3-1.8,3c-0.9,0-1.4-0.5-1.5-1.1H231.5z
				 M231.4,83.2c0,0.8,0.4,1.3,1.1,1.3c0.9,0,1.3-0.5,1.3-1.3c0-0.3-0.1-1.4-1.2-1.4C231.7,81.9,231.4,82.5,231.4,83.2z"/>
		</g>
		<g class="st6">
			<path class="st7" d="M235.5,86.9L235.5,86.9c0-0.7,0.6-1.5,1.6-2.3c0.9-0.7,1.1-0.9,1.1-1.6c0-0.6-0.3-1.1-1.1-1.1
				c-0.7,0-1.1,0.3-1.2,1.1h-0.4c0.1-0.9,0.7-1.5,1.6-1.5c1.1,0,1.5,0.7,1.5,1.4c0,0.8-0.3,1.1-1.3,1.9c-0.8,0.6-1.3,1.1-1.4,1.7h3
				l-0.1,0.4H235.5z"/>
		</g>
		<line class="st4" x1="154.7" y1="8.2" x2="154.7" y2="128.1"/>
		<line class="st5" x1="154.7" y1="0" x2="154.7" y2="11"/>
		<line class="st5" x1="205.6" y1="0" x2="205.7" y2="14.3"/>
		<g class="st6">
			<path class="st8" d="M19.5,6h-2.6V5.6h2.6V6z M21.9,8.5c0.4,0.7,1,1.3,1.6,1.7c-0.1,0.1-0.3,0.2-0.3,0.4
				c-0.5-0.4-1.1-1.1-1.5-1.7v2.1h-0.5V8.9c-0.4,0.7-1,1.4-1.6,1.7c-0.1-0.1-0.2-0.2-0.3-0.3v0.2h-1.7v0.3h-0.4V8.4h2.1v1.8
				c0.6-0.3,1.3-1,1.7-1.7h-1.5V8.1h1.7V7.4h-1.4V4.7h3.4v2.8h-1.5v0.6h1.7v0.4H21.9z M19.2,6.9h-2.1V6.5h2.1V6.9z M17.1,7.5h2.1
				v0.4h-2.1V7.5z M18.8,8.8h-1.3v1.3h1.3V8.8z M18.2,5.5c-0.1-0.3-0.3-0.7-0.5-1L18,4.3c0.2,0.3,0.4,0.7,0.6,0.9L18.2,5.5z
				 M20.2,5.9h1V5.1h-1V5.9z M20.2,7.1h1V6.2h-1V7.1z M22.7,5.1h-1v0.8h1V5.1z M22.7,6.2h-1v0.8h1V6.2z"/>
			<path class="st8" d="M26.8,8.6c-0.1-0.2-0.4-0.7-0.6-1v3.3h-0.5V7.6c-0.3,0.8-0.6,1.6-1,2c-0.1-0.1-0.2-0.3-0.2-0.5
				c0.4-0.5,0.9-1.5,1.1-2.3h-1V6.4h1.1V5.2c-0.3,0.1-0.6,0.1-0.9,0.2c0-0.1-0.1-0.3-0.1-0.4c0.7-0.1,1.5-0.3,2-0.6l0.3,0.4
				c-0.2,0.1-0.5,0.2-0.8,0.3v1.3h0.9v0.5h-0.9v0.2c0.2,0.2,0.7,1,0.9,1.2L26.8,8.6z M31.2,10.3v0.4h-4.1v-0.4h1.9v-1h-1.5V8.9h1.5
				V8c-0.4,0-0.8,0.1-1.2,0.1c0-0.1-0.1-0.3-0.1-0.4c1-0.1,2.2-0.2,2.9-0.4l0.3,0.4c-0.4,0.1-0.8,0.2-1.3,0.3v1h1.5v0.4h-1.5v1H31.2
				z M30.8,7h-3.3V4.7h3.3V7z M30.3,5.1H28v1.4h2.3V5.1z"/>
			<path class="st8" d="M34.7,9.1c-0.4,0.6-1.1,1.2-1.6,1.6c-0.1-0.1-0.3-0.2-0.4-0.3c0.6-0.4,1.2-0.9,1.6-1.4L34.7,9.1z M37.6,4.8
				c-1.2,0.5-3.1,1-4.7,1.3c0-0.1-0.1-0.3-0.1-0.4c1.6-0.3,3.5-0.8,4.5-1.3L37.6,4.8z M36.1,8.5v1.8c0,0.3-0.1,0.4-0.3,0.5
				c-0.2,0.1-0.6,0.1-1.1,0.1c0-0.1-0.1-0.3-0.2-0.5c0.4,0,0.8,0,0.9,0c0.1,0,0.1,0,0.1-0.1V8.6c-2,0.2-2.3,0.2-2.5,0.3
				c0-0.1-0.1-0.3-0.1-0.5c0.2,0,0.6-0.1,1-0.3c0.3-0.1,0.9-0.4,1.7-0.9c-1.7,0.1-2,0.1-2.1,0.2c0-0.1-0.1-0.3-0.1-0.5
				c0.2,0,0.3-0.1,0.6-0.2C34.2,6.5,35,6,35.6,5.5L36,5.8c-0.5,0.4-1.1,0.8-1.6,1l1.9-0.1c0.3-0.2,0.6-0.4,0.8-0.6l0.4,0.3
				c-1,0.7-2.1,1.3-3.1,1.8L37.7,8c-0.2-0.3-0.5-0.5-0.7-0.7L37.3,7c0.5,0.5,1.2,1.2,1.5,1.6l-0.4,0.2c-0.1-0.1-0.2-0.3-0.4-0.5
				L36.1,8.5z M37.1,8.9c0.6,0.4,1.3,1,1.7,1.4l-0.4,0.3c-0.3-0.4-1.1-1-1.6-1.5L37.1,8.9z"/>
			<path class="st8" d="M40.4,4.8h3.6v0.5h-2C42,5.6,41.9,6,41.8,6.4h1.7l0.1,0l0.3,0.1c-0.4,2.5-1.5,3.9-3,4.5
				c-0.1-0.1-0.2-0.3-0.3-0.4c0.7-0.3,1.4-0.8,1.9-1.5c-0.3-0.3-0.9-0.8-1.4-1.1c-0.1,0.2-0.2,0.3-0.4,0.5c-0.1-0.1-0.2-0.3-0.3-0.4
				c0.6-0.7,1-1.7,1.3-2.8h-1.2V4.8z M41.6,6.8c-0.1,0.3-0.2,0.5-0.3,0.7c0.5,0.3,1.1,0.7,1.4,1.1c0.3-0.5,0.5-1.1,0.6-1.8H41.6z
				 M45.1,9.2h-0.5v-4h0.5V9.2z M46.6,4.4v5.9c0,0.3-0.1,0.5-0.3,0.5c-0.2,0.1-0.5,0.1-1.1,0.1c0-0.1-0.1-0.3-0.2-0.5
				c0.4,0,0.8,0,0.9,0c0.1,0,0.2,0,0.2-0.2V4.4H46.6z"/>
		</g>
		<g class="st6">
			<path class="st8" d="M96.6,6.3H94V5.9h2.6V6.3z M99.1,8.8c0.4,0.7,1,1.3,1.6,1.7c-0.1,0.1-0.3,0.2-0.3,0.4
				c-0.5-0.4-1.1-1.1-1.5-1.7v2.1h-0.5V9.2c-0.4,0.7-1,1.4-1.6,1.7c-0.1-0.1-0.2-0.2-0.3-0.3v0.2h-1.7v0.3h-0.4V8.7h2.1v1.8
				c0.6-0.3,1.3-1,1.7-1.7h-1.5V8.4h1.7V7.7h-1.4V4.9h3.4v2.8h-1.5v0.6h1.7v0.4H99.1z M96.4,7.2h-2.1V6.8h2.1V7.2z M94.3,7.7h2.1
				v0.4h-2.1V7.7z M96,9.1h-1.3v1.3H96V9.1z M95.4,5.8c-0.1-0.3-0.3-0.7-0.5-1l0.4-0.2c0.2,0.3,0.4,0.7,0.6,0.9L95.4,5.8z M97.3,6.1
				h1V5.3h-1V6.1z M97.3,7.3h1V6.5h-1V7.3z M99.8,5.3h-1v0.8h1V5.3z M99.8,6.5h-1v0.8h1V6.5z"/>
			<path class="st8" d="M104,8.9c-0.1-0.2-0.4-0.7-0.6-1v3.3H103V7.9c-0.3,0.8-0.6,1.6-1,2c-0.1-0.1-0.2-0.3-0.2-0.5
				c0.4-0.5,0.9-1.5,1.1-2.3h-1V6.7h1.1V5.5c-0.3,0.1-0.6,0.1-0.9,0.2c0-0.1-0.1-0.3-0.1-0.4c0.7-0.1,1.5-0.3,2-0.6l0.3,0.4
				c-0.2,0.1-0.5,0.2-0.8,0.3v1.3h0.9v0.5h-0.9v0.2c0.2,0.2,0.7,1,0.9,1.2L104,8.9z M108.4,10.6V11h-4.1v-0.4h1.9v-1h-1.5V9.2h1.5
				V8.3c-0.4,0-0.8,0.1-1.2,0.1c0-0.1-0.1-0.3-0.1-0.4c1-0.1,2.2-0.2,2.9-0.4l0.3,0.4c-0.4,0.1-0.8,0.2-1.3,0.3v1h1.5v0.4h-1.5v1
				H108.4z M108,7.3h-3.3V5h3.3V7.3z M107.5,5.4h-2.3v1.4h2.3V5.4z"/>
			<path class="st8" d="M115.4,11.2h-0.5v-0.4h-3.3v0.4h-0.5V8.8c-0.4,0.1-0.8,0.3-1.2,0.4c0-0.1-0.2-0.3-0.2-0.4
				c0.9-0.2,1.9-0.5,2.8-1c-0.3-0.3-0.9-0.8-1.4-1.2c-0.3,0.2-0.5,0.4-0.8,0.5c-0.1-0.1-0.2-0.3-0.3-0.4c1.2-0.6,2-1.4,2.4-2.1
				l0.5,0.1c-0.1,0.2-0.3,0.4-0.5,0.6h2.6l0.1,0l0.3,0.2c-0.6,1.2-1.7,2.1-2.9,2.7h3V11.2z M111.9,5.8c-0.2,0.2-0.3,0.3-0.5,0.5
				c0.5,0.4,1.1,0.8,1.5,1.2c0.7-0.4,1.3-1,1.8-1.6H111.9z M114.9,10.4V8.7h-3.3v1.7H114.9z"/>
			<path class="st8" d="M119.7,8.9c-0.1-0.2-0.4-0.6-0.7-0.9v3.2h-0.5V8c-0.3,0.7-0.6,1.5-0.9,1.9c-0.1-0.1-0.2-0.3-0.3-0.4
				c0.4-0.5,0.8-1.5,1.1-2.4h-1V6.7h1.1V5.5c-0.3,0.1-0.7,0.1-1,0.2c0-0.1-0.1-0.3-0.1-0.4c0.8-0.1,1.6-0.3,2.1-0.6l0.4,0.3
				c-0.3,0.1-0.6,0.2-0.9,0.3v1.3h0.9v0.4H119v0.4c0.2,0.2,0.8,0.8,0.9,1L119.7,8.9z M124.1,9.8h-0.4v0.9c0,0.3-0.1,0.4-0.2,0.4
				c-0.2,0.1-0.5,0.1-0.9,0.1c0-0.1-0.1-0.3-0.2-0.4c0.3,0,0.7,0,0.7,0c0.1,0,0.1,0,0.1-0.1V9.8h-2.5v1.4h-0.4V9.8h-0.5V9.4h0.5V7.2
				h1.5V6.8h0.4v0.4h1.5v2.2h0.4V9.8z M123.8,5.1c-0.9,0.3-2.4,0.5-3.6,0.6c0-0.1-0.1-0.3-0.1-0.4c1.2-0.1,2.6-0.3,3.4-0.5
				L123.8,5.1z M120.8,6.8c-0.1-0.3-0.4-0.7-0.6-1l0.4-0.2c0.3,0.3,0.5,0.7,0.6,1L120.8,6.8z M120.7,7.6v0.7h1V7.6H120.7z
				 M120.7,9.4h1V8.7h-1V9.4z M121.9,6.7c-0.1-0.3-0.3-0.7-0.4-0.9l0.4-0.1c0.2,0.3,0.4,0.7,0.5,0.9L121.9,6.7z M122.2,7.6v0.7h1.1
				V7.6H122.2z M123.3,9.4V8.7h-1.1v0.7H123.3z M123.7,5.5c-0.2,0.5-0.6,0.9-0.9,1.3c-0.1-0.1-0.3-0.2-0.4-0.2
				c0.3-0.3,0.6-0.8,0.8-1.2L123.7,5.5z"/>
		</g>
		<g class="st6">
			<path class="st8" d="M163.1,8.6c0-0.1-0.1-0.3-0.1-0.4c-1.5,0.3-1.8,0.3-1.9,0.4c0-0.1-0.1-0.3-0.2-0.4c0.1,0,0.3-0.2,0.5-0.5
				c0.1-0.1,0.4-0.5,0.6-0.9c-0.8,0.1-0.9,0.1-1,0.2c0-0.1-0.1-0.3-0.1-0.4c0.1,0,0.2-0.2,0.4-0.4c0.1-0.2,0.6-1.1,0.9-1.8l0.4,0.2
				c-0.3,0.7-0.7,1.4-1,2l0.8-0.1c0.2-0.3,0.4-0.7,0.5-1l0.4,0.2c-0.5,0.9-1,1.8-1.6,2.4l1.2-0.2c-0.1-0.2-0.2-0.4-0.2-0.6l0.4-0.1
				c0.2,0.4,0.4,1,0.5,1.4L163.1,8.6z M161.7,9c-0.1,0.6-0.3,1.3-0.4,1.7c-0.1,0-0.3-0.1-0.4-0.1c0.2-0.4,0.3-1.1,0.4-1.7L161.7,9z
				 M162.3,9c0.1,0.5,0.2,1.1,0.2,1.5l-0.4,0.1c0-0.4-0.1-1.1-0.2-1.5L162.3,9z M163,8.8c0.1,0.4,0.3,0.9,0.3,1.3l-0.3,0.1
				c-0.1-0.3-0.2-0.9-0.3-1.3L163,8.8z M163.3,10.4c0.2-0.4,0.4-1,0.5-1.5l0.3,0.1c-0.1,0.5-0.3,1.1-0.5,1.5L163.3,10.4z M167.1,8.4
				h-3.3V5h1c0.1-0.2,0.2-0.5,0.3-0.7l0.5,0.1c-0.1,0.2-0.2,0.4-0.3,0.6h2V8.4z M166.7,5.5h-2.5V8h2.5V5.5z M166,10.4
				c0.2,0,0.3-0.1,0.3-0.8c0.1,0.1,0.3,0.1,0.4,0.2c-0.1,0.8-0.2,1-0.6,1H165c-0.6,0-0.7-0.1-0.7-0.6V8.9h0.4v1.3
				c0,0.2,0.1,0.2,0.3,0.2H166z M166.2,7.7c-0.1-0.2-0.3-0.4-0.5-0.6c-0.3,0.3-0.6,0.5-0.9,0.8c-0.1-0.1-0.2-0.2-0.2-0.2
				c0.4-0.2,0.7-0.5,0.9-0.8c-0.1-0.1-0.2-0.2-0.3-0.3c-0.2,0.2-0.4,0.4-0.6,0.6c-0.1-0.1-0.2-0.2-0.2-0.2c0.2-0.2,0.5-0.4,0.7-0.5
				c-0.2-0.2-0.3-0.3-0.5-0.4l0.3-0.2c0.1,0.1,0.3,0.2,0.4,0.3c0.1-0.2,0.2-0.3,0.3-0.5l0.3,0.1c-0.1,0.2-0.3,0.4-0.4,0.6
				c0.1,0.1,0.2,0.2,0.3,0.3c0.2-0.2,0.3-0.4,0.4-0.6l0.3,0.1c-0.1,0.3-0.3,0.5-0.6,0.8c0.2,0.2,0.4,0.5,0.5,0.6L166.2,7.7z
				 M165.8,9.8c-0.1-0.3-0.4-0.8-0.7-1.2l0.3-0.2c0.2,0.4,0.5,0.8,0.7,1.1L165.8,9.8z M166.9,8.9c0.2,0.4,0.5,1,0.6,1.4l-0.4,0.2
				c-0.1-0.4-0.4-1-0.6-1.4L166.9,8.9z"/>
			<path class="st8" d="M174.2,7.9c-0.4,0.8-1,1.4-1.7,1.8c0.8,0.4,1.7,0.6,2.7,0.7c-0.1,0.1-0.2,0.3-0.3,0.4
				c-1.1-0.2-2.1-0.5-2.9-0.9c-0.9,0.5-1.9,0.7-2.9,0.9c-0.1-0.1-0.2-0.3-0.3-0.4c1-0.1,1.9-0.4,2.8-0.8c-0.6-0.4-1.1-0.9-1.5-1.5
				l0,0h-0.3V7.7h4l0.1,0L174.2,7.9z M169.4,7.9h-0.5V6.4h4.4c0.2-0.4,0.5-0.9,0.7-1.3l0.5,0.2c-0.2,0.4-0.5,0.8-0.7,1.1h1.3v1.5
				h-0.5v-1h-5.2V7.9z M174.6,4.7c-1.4,0.3-3.6,0.5-5.5,0.6c0-0.1-0.1-0.3-0.1-0.4c1.8-0.1,4.1-0.3,5.3-0.5L174.6,4.7z M170,5.3
				c0.2,0.3,0.4,0.7,0.5,1l-0.4,0.1c-0.1-0.3-0.3-0.7-0.5-1L170,5.3z M170.6,8.2c0.4,0.5,0.9,1,1.5,1.3c0.6-0.3,1.1-0.8,1.4-1.3
				H170.6z M171.9,6.4c0-0.3-0.2-0.7-0.4-1.1l0.4-0.1c0.2,0.3,0.3,0.8,0.4,1.1L171.9,6.4z"/>
			<path class="st8" d="M179.1,6h-2.6V5.6h2.6V6z M178.9,6.9h-2.1V6.5h2.1V6.9z M176.8,7.5h2.1v0.4h-2.1V7.5z M177.2,10.5v0.3h-0.4
				V8.4h2.1v2.1H177.2z M177.2,8.8v1.3h1.3V8.8H177.2z M177.9,5.5c-0.1-0.3-0.3-0.7-0.5-1l0.4-0.2c0.2,0.3,0.4,0.7,0.6,0.9
				L177.9,5.5z M179.8,4.5h0.5v2.5c0,1.4-0.1,2.8-1,3.9c-0.1-0.1-0.3-0.2-0.4-0.3c0.8-1.1,0.9-2.3,0.9-3.7V4.5z M181.1,4.8h0.4v5.4
				h-0.4V4.8z M182.9,4.5v6.5h-0.5V4.5H182.9z"/>
			<path class="st8" d="M187.9,4.4c0,0.3,0,0.6-0.1,1c0.1,0.8,0.5,3.9,3.1,5.1c-0.1,0.1-0.3,0.3-0.3,0.4c-1.9-0.9-2.6-2.7-3-4.1
				c-0.3,1.5-1.1,3.2-2.9,4.1c-0.1-0.1-0.2-0.3-0.4-0.4c3-1.5,3-5.1,3-6.2H187.9z"/>
			<path class="st8" d="M194.5,9h-2.3V8.5h2.3V9z M194.3,6h-1.9V5.5h1.9V6z M196.4,6.9c0,0.1,0,0.2,0,0.4c0.3,1.5,1.1,2.7,2.4,3.2
				c-0.1,0.1-0.2,0.3-0.3,0.4c-1.1-0.4-1.8-1.3-2.2-2.6c-0.2,0.9-0.8,1.9-2.3,2.6c-0.1-0.1-0.2-0.3-0.4-0.4c2.1-1.1,2.3-2.6,2.3-3.7
				V6.4h0.5V6.9z M195.2,6.1c-0.2,0.6-0.5,1.1-0.8,1.5c-0.1-0.1-0.3-0.2-0.5-0.3c0.5-0.7,0.9-1.8,1.2-3l0.5,0.1
				c-0.1,0.4-0.2,0.8-0.3,1.2h2.7l0.1,0l0.3,0.2c-0.2,0.7-0.5,1.4-0.8,1.9c-0.1-0.1-0.3-0.2-0.4-0.2c0.2-0.4,0.4-0.9,0.6-1.4H195.2z
				"/>
		</g>
		<g class="st6">
			<path class="st8" d="M214.4,8.6c0-0.1-0.1-0.3-0.1-0.4c-1.5,0.3-1.8,0.3-1.9,0.4c0-0.1-0.1-0.3-0.2-0.4c0.1,0,0.3-0.2,0.5-0.5
				c0.1-0.1,0.4-0.5,0.6-0.9c-0.8,0.1-0.9,0.1-1,0.2c0-0.1-0.1-0.3-0.1-0.4c0.1,0,0.2-0.2,0.4-0.4c0.1-0.2,0.6-1.1,0.9-1.8l0.4,0.2
				c-0.3,0.7-0.7,1.4-1,2l0.8-0.1c0.2-0.3,0.4-0.7,0.5-1l0.4,0.2c-0.5,0.9-1,1.8-1.6,2.4l1.2-0.2c-0.1-0.2-0.2-0.4-0.2-0.6l0.4-0.1
				c0.2,0.4,0.4,1,0.5,1.4L214.4,8.6z M213.1,9c-0.1,0.6-0.3,1.3-0.4,1.7c-0.1,0-0.3-0.1-0.4-0.1c0.2-0.4,0.3-1.1,0.4-1.7L213.1,9z
				 M213.7,9c0.1,0.5,0.2,1.1,0.2,1.5l-0.4,0.1c0-0.4-0.1-1.1-0.2-1.5L213.7,9z M214.3,8.8c0.1,0.4,0.3,0.9,0.3,1.3l-0.3,0.1
				c-0.1-0.3-0.2-0.9-0.3-1.3L214.3,8.8z M214.6,10.4c0.2-0.4,0.4-1,0.5-1.5l0.3,0.1c-0.1,0.5-0.3,1.1-0.5,1.5L214.6,10.4z
				 M218.5,8.4h-3.3V5h1c0.1-0.2,0.2-0.5,0.3-0.7l0.5,0.1c-0.1,0.2-0.2,0.4-0.3,0.6h2V8.4z M218,5.5h-2.5V8h2.5V5.5z M217.4,10.4
				c0.2,0,0.3-0.1,0.3-0.8c0.1,0.1,0.3,0.1,0.4,0.2c-0.1,0.8-0.2,1-0.6,1h-1.1c-0.6,0-0.7-0.1-0.7-0.6V8.9h0.4v1.3
				c0,0.2,0.1,0.2,0.3,0.2H217.4z M217.6,7.7c-0.1-0.2-0.3-0.4-0.5-0.6c-0.3,0.3-0.6,0.5-0.9,0.8c-0.1-0.1-0.2-0.2-0.2-0.2
				c0.4-0.2,0.7-0.5,0.9-0.8c-0.1-0.1-0.2-0.2-0.3-0.3c-0.2,0.2-0.4,0.4-0.6,0.6c-0.1-0.1-0.2-0.2-0.2-0.2c0.2-0.2,0.5-0.4,0.7-0.5
				c-0.2-0.2-0.3-0.3-0.5-0.4l0.3-0.2c0.1,0.1,0.3,0.2,0.4,0.3c0.1-0.2,0.2-0.3,0.3-0.5l0.3,0.1c-0.1,0.2-0.3,0.4-0.4,0.6
				c0.1,0.1,0.2,0.2,0.3,0.3c0.2-0.2,0.3-0.4,0.4-0.6l0.3,0.1c-0.1,0.3-0.3,0.5-0.6,0.8c0.2,0.2,0.4,0.5,0.5,0.6L217.6,7.7z
				 M217.2,9.8c-0.1-0.3-0.4-0.8-0.7-1.2l0.3-0.2c0.2,0.4,0.5,0.8,0.7,1.1L217.2,9.8z M218.2,8.9c0.2,0.4,0.5,1,0.6,1.4l-0.4,0.2
				c-0.1-0.4-0.4-1-0.6-1.4L218.2,8.9z"/>
			<path class="st8" d="M225.5,7.9c-0.4,0.8-1,1.4-1.7,1.8c0.8,0.4,1.7,0.6,2.7,0.7c-0.1,0.1-0.2,0.3-0.3,0.4
				c-1.1-0.2-2.1-0.5-2.9-0.9c-0.9,0.5-1.9,0.7-2.9,0.9c-0.1-0.1-0.2-0.3-0.3-0.4c1-0.1,1.9-0.4,2.8-0.8c-0.6-0.4-1.1-0.9-1.5-1.5
				l0,0h-0.3V7.7h4l0.1,0L225.5,7.9z M220.8,7.9h-0.5V6.4h4.4c0.2-0.4,0.5-0.9,0.7-1.3l0.5,0.2c-0.2,0.4-0.5,0.8-0.7,1.1h1.3v1.5
				H226v-1h-5.2V7.9z M226,4.7c-1.4,0.3-3.6,0.5-5.5,0.6c0-0.1-0.1-0.3-0.1-0.4c1.8-0.1,4.1-0.3,5.3-0.5L226,4.7z M221.4,5.3
				c0.2,0.3,0.4,0.7,0.5,1l-0.4,0.1c-0.1-0.3-0.3-0.7-0.5-1L221.4,5.3z M221.9,8.2c0.4,0.5,0.9,1,1.5,1.3c0.6-0.3,1.1-0.8,1.4-1.3
				H221.9z M223.3,6.4c0-0.3-0.2-0.7-0.4-1.1l0.4-0.1c0.2,0.3,0.3,0.8,0.4,1.1L223.3,6.4z"/>
			<path class="st8" d="M230.5,6h-2.6V5.6h2.6V6z M230.2,6.9h-2.1V6.5h2.1V6.9z M228.2,7.5h2.1v0.4h-2.1V7.5z M228.6,10.5v0.3h-0.4
				V8.4h2.1v2.1H228.6z M228.6,8.8v1.3h1.3V8.8H228.6z M229.2,5.5c-0.1-0.3-0.3-0.7-0.5-1l0.4-0.2c0.2,0.3,0.4,0.7,0.6,0.9
				L229.2,5.5z M231.2,4.5h0.5v2.5c0,1.4-0.1,2.8-1,3.9c-0.1-0.1-0.3-0.2-0.4-0.3c0.8-1.1,0.9-2.3,0.9-3.7V4.5z M232.5,4.8h0.4v5.4
				h-0.4V4.8z M234.2,4.5v6.5h-0.5V4.5H234.2z"/>
			<path class="st8" d="M238,9.5h-1.6v0.6H236V4.8h2V9.5z M236.4,5.3v1.7h1.1V5.3H236.4z M237.5,9.1V7.4h-1.1v1.7H237.5z M240.4,5.7
				v1h1.6v0.4h-0.7v0.8h0.9v0.4h-0.9v2c0,0.3-0.1,0.4-0.3,0.5c-0.2,0.1-0.6,0.1-1.2,0.1c0-0.1-0.1-0.3-0.2-0.5c0.5,0,0.9,0,1,0
				c0.1,0,0.2,0,0.2-0.1v-2h-2.8V7.9h2.8V7.1h-2.5V6.7h1.5v-1h-1.8V5.2h1.8V4.4h0.5v0.9h1.8v0.4H240.4z M239,8.6
				c0.4,0.4,0.8,0.9,0.9,1.2l-0.4,0.3c-0.2-0.3-0.6-0.9-0.9-1.3L239,8.6z"/>
			<path class="st8" d="M246.7,9.1c-0.1,0.3-0.2,0.7-0.6,1c0.3,0.1,0.6,0.3,0.8,0.4l-0.3,0.3c-0.2-0.2-0.5-0.3-0.9-0.5
				c-0.5,0.2-1.1,0.5-2,0.6c0-0.1-0.1-0.2-0.2-0.3c0.8-0.1,1.4-0.3,1.8-0.5c-0.4-0.2-0.8-0.3-1.2-0.4c0.1-0.1,0.2-0.3,0.4-0.5
				l-0.9,0.1l-0.1-0.4c0.3,0,0.7,0,1.2-0.1c0.1-0.2,0.2-0.4,0.3-0.6h-1.2V7.1h1.4V6.8h-1.2V6h-0.5V5.6h0.5V4.9h1.2V4.4h0.4v0.5h1.2
				v0.7h0.5V6h-0.5v0.8h-1.2v0.3h1.4v1.2h-1.5c-0.1,0.2-0.2,0.4-0.3,0.6l1.1-0.1c0,0,0-0.1,0-0.1V8.4h0.4v0.3v0.1l0.4,0l0,0.3
				L246.7,9.1z M244.3,7.9h1V7.4h-1V7.9z M244.5,5.2v0.4h0.8V5.2H244.5z M245.2,6.4V6h-0.8v0.5H245.2z M244.9,9.2
				c-0.1,0.1-0.2,0.2-0.2,0.3c0.3,0.1,0.6,0.2,0.9,0.4c0.4-0.2,0.5-0.5,0.6-0.8L244.9,9.2z M245.6,5.2v0.4h0.8V5.2H245.6z
				 M246.4,6.4V6h-0.8v0.5H246.4z M245.6,7.4v0.5h1V7.4H245.6z M249.6,6.2c-0.1,1.1-0.3,2-0.7,2.8c0.3,0.7,0.7,1.2,1.2,1.5
				c-0.1,0.1-0.2,0.2-0.3,0.3c-0.5-0.3-0.9-0.8-1.2-1.4c-0.3,0.6-0.7,1.1-1.3,1.5c0-0.1-0.2-0.3-0.3-0.4c0.6-0.4,1-1,1.4-1.7
				c-0.2-0.6-0.4-1.3-0.5-2c-0.1,0.3-0.3,0.6-0.4,0.9c-0.1-0.1-0.2-0.2-0.3-0.3c0.5-0.8,0.8-1.9,0.9-3.1l0.4,0.1
				c-0.1,0.4-0.1,0.9-0.2,1.3h1.8v0.4H249.6z M248.2,6.2c0.1,0.8,0.3,1.6,0.5,2.2c0.2-0.6,0.4-1.4,0.4-2.2H248.2z"/>
		</g>
		<g class="st6">
			<path class="st9" d="M223.4,136.7h-2.5v0.9h-0.4v-0.9h-2.5v-0.4h2.5v-0.5h-1.9v-2.1h4.2v2.1h-2v0.5h2.5V136.7z M220.4,133.3h-2
				v-1.2h2V133.3z M220,132.4h-1.2v0.6h1.2V132.4z M219,134.6h1.5V134H219V134.6z M220.4,135.5v-0.6H219v0.6H220.4z M222.4,134h-1.5
				v0.6h1.5V134z M222.4,134.9h-1.5v0.6h1.5V134.9z M222.9,133.3h-2v-1.2h2V133.3z M222.6,132.4h-1.3v0.6h1.3V132.4z"/>
		</g>
		<g class="st6">
			<path class="st9" d="M226.4,132c-0.2,0.5-0.4,0.9-0.6,1.3v4.2h-0.4V134c-0.2,0.3-0.4,0.6-0.7,0.8c0-0.1-0.2-0.3-0.2-0.4
				c0.6-0.6,1.2-1.5,1.6-2.5L226.4,132z M230.1,136.9v0.4h-3.9v-0.4h2.2c0.2-0.8,0.5-2.2,0.6-3.1l0.4,0.1c-0.2,1-0.4,2.2-0.7,3
				H230.1z M229.9,133.4h-3.3v-0.4h3.3V133.4z M227.4,136.6c-0.1-0.7-0.2-1.8-0.4-2.7l0.4-0.1c0.2,0.9,0.4,2,0.5,2.6L227.4,136.6z
				 M228.1,133c-0.1-0.3-0.2-0.7-0.3-1l0.4-0.1c0.1,0.3,0.3,0.7,0.3,1L228.1,133z"/>
			<path class="st9" d="M230.5,133.2c0-0.3,0.2-0.4,0.4-0.4s0.4,0.2,0.4,0.4c0,0.3-0.2,0.4-0.4,0.4S230.5,133.5,230.5,133.2z
				 M230.5,136.3c0-0.3,0.2-0.4,0.4-0.4s0.4,0.2,0.4,0.4s-0.2,0.4-0.4,0.4S230.5,136.6,230.5,136.3z"/>
		</g>
		<g class="st6">
			<path class="st9" d="M237.8,131.9c0,0.2,0,0.5,0,0.9c0.1,0.7,0.5,3.4,2.7,4.3c-0.1,0.1-0.2,0.2-0.3,0.3c-1.6-0.7-2.2-2.3-2.5-3.5
				c-0.3,1.3-0.9,2.7-2.5,3.5c-0.1-0.1-0.2-0.2-0.3-0.3c2.6-1.3,2.6-4.3,2.6-5.3H237.8z"/>
			<path class="st9" d="M243.2,132.2h0.4l-1.9,6h-0.4L243.2,132.2z"/>
			<path class="st9" d="M245.9,133.5c-0.2,0.9-0.6,2-1.1,2.7c-0.1-0.1-0.3-0.2-0.4-0.2c0.6-0.7,0.9-1.7,1.1-2.5L245.9,133.5z
				 M247.5,132v5c0,0.3-0.1,0.4-0.3,0.5c-0.2,0.1-0.6,0.1-1.2,0.1c0-0.1-0.1-0.3-0.2-0.4c0.5,0,0.9,0,1,0c0.1,0,0.2,0,0.2-0.2v-5
				H247.5z M248.9,133.4c0.6,0.9,1.1,2,1.2,2.7l-0.4,0.2c-0.2-0.7-0.7-1.9-1.2-2.8L248.9,133.4z"/>
			<path class="st9" d="M253,136.3h-1.3v0.5h-0.4v-4.5h1.7V136.3z M251.7,132.7v1.4h1v-1.4H251.7z M252.6,136v-1.5h-1v1.5H252.6z
				 M255.1,133v0.8h1.4v0.4h-0.6v0.7h0.7v0.4h-0.7v1.7c0,0.2-0.1,0.4-0.2,0.4c-0.2,0.1-0.5,0.1-1,0.1c0-0.1-0.1-0.3-0.1-0.4
				c0.4,0,0.7,0,0.8,0c0.1,0,0.1,0,0.1-0.1v-1.7h-2.4V135h2.4v-0.7h-2.1v-0.4h1.3V133h-1.6v-0.4h1.6v-0.8h0.4v0.8h1.6v0.4H255.1z
				 M253.9,135.6c0.3,0.3,0.7,0.8,0.8,1.1l-0.4,0.2c-0.1-0.3-0.5-0.8-0.8-1.1L253.9,135.6z"/>
		</g>
	</g>
</g>
</svg>
