<svg xmlns="http://www.w3.org/2000/svg" viewBox="0 0 257.25 167.31"><defs><style>.cls-1,.cls-2,.cls-3,.cls-5,.cls-6{fill:none;stroke-miterlimit:10;}.cls-1,.cls-2,.cls-3,.cls-5{stroke:#a37ed8;}.cls-1{stroke-width:0.13px;}.cls-2{stroke-width:0.12px;}.cls-3{stroke-width:0.11px;}.cls-4{fill:#a37ed8;}.cls-5{stroke-width:0.07px;}.cls-6{stroke:#fff;stroke-width:0.5px;}.cls-7{fill:#49494b;}.cls-8{fill:#fff;}</style></defs><g id="圖層_2" data-name="圖層 2"><g id="圖層_5" data-name="圖層 5"><rect class="cls-1" x="0.06" y="0.06" width="257.12" height="167.18"/><line class="cls-2" x1="0.08" y1="29.65" x2="257.18" y2="29.65"/><line class="cls-3" x1="64.32" y1="44.94" x2="257.18" y2="44.94"/><line class="cls-3" x1="64.32" y1="60.23" x2="257.18" y2="60.23"/><line class="cls-2" x1="0.08" y1="75.51" x2="257.18" y2="75.51"/><line class="cls-3" x1="64.32" y1="90.8" x2="257.18" y2="90.8"/><line class="cls-3" x1="64.32" y1="106.09" x2="257.18" y2="106.09"/><line class="cls-3" x1="64.32" y1="121.38" x2="257.18" y2="121.38"/><line class="cls-3" x1="64.32" y1="136.67" x2="257.18" y2="136.67"/><line class="cls-3" x1="64.32" y1="151.96" x2="257.18" y2="151.96"/><rect class="cls-4" x="0.06" y="0.02" width="64.17" height="14.28"/><line class="cls-5" x1="64.26" y1="14.3" x2="64.26" y2="167.24"/><line class="cls-5" x1="205.79" y1="10.67" x2="205.79" y2="167.24"/><rect class="cls-4" x="64.23" y="0.06" width="192.95" height="14.24"/><line class="cls-6" x1="64.29" y1="0.02" x2="64.29" y2="14.3"/><path class="cls-7" d="M5.85,22.67a9.6,9.6,0,0,1-.39,1.76l-.39-.15a7.17,7.17,0,0,0,.36-1.69Zm1.42-.36c0-.11,0-.25-.09-.4a9.6,9.6,0,0,0-1.9.35c0-.09-.1-.32-.16-.45.15,0,.32-.22.52-.47a8.19,8.19,0,0,0,.63-.87,3.64,3.64,0,0,0-1,.18l-.14-.44c.11,0,.24-.18.39-.4a9.44,9.44,0,0,0,1-1.84l.43.19a11.46,11.46,0,0,1-1.13,1.95l.79-.06a10.18,10.18,0,0,0,.54-1l.41.24A14.12,14.12,0,0,1,5.87,21.7l1.2-.16C7,21.28,6.9,21,6.82,20.8l.37-.1a9.41,9.41,0,0,1,.48,1.49Zm-.73.27c.09.48.17,1.11.2,1.52l-.39.08a13.17,13.17,0,0,0-.19-1.54Zm.66-.18a6.76,6.76,0,0,1,.37,1.23l-.36.12a9.24,9.24,0,0,0-.36-1.24ZM11.65,24v.44H7.52V24H9.4V22.52H7.93v-.44h3.43v.44H9.87V24ZM8.58,21.81a7.5,7.5,0,0,0-.88-1.43,12.56,12.56,0,0,0,.77-1.33l.43.12c-.2.36-.48.83-.72,1.2A7.8,7.8,0,0,1,9,21.64Zm3-3H7.78v-.44h3.8Zm-1.42.38c-.21.36-.5.83-.74,1.2a11.4,11.4,0,0,1,.84,1.25l-.4.18a8.1,8.1,0,0,0-.93-1.43,10.63,10.63,0,0,0,.79-1.32Zm1,2.64a7.23,7.23,0,0,0-1-1.43A12.54,12.54,0,0,0,11,19.05l.44.12c-.21.36-.52.83-.76,1.2a8.12,8.12,0,0,1,.88,1.25Z"/><path class="cls-7" d="M15.23,23.06c-.77.26-1.59.55-2.22.75l-.12-.49c.28-.07.62-.18,1-.3V21H13v-.45h.84V18.94H13v-.45h2.21v.45h-.84v1.63h.74V21h-.74v1.86l.81-.27Zm4.34.83v.44H14.89v-.44h2.24v-1H15.46v-.44h1.67v-.89H15.55v-3.2h3.67v3.2H17.61v.89h1.72v.44H17.61v1ZM16,19.71h1.17v-1H16Zm0,1.39h1.17v-1H16Zm2.77-2.35H17.58v1h1.18Zm0,1.36H17.58v1h1.18Z"/><path class="cls-7" d="M24.31,18c0,.25,0,.61,0,1,.11.84.55,3.92,3.1,5.06a1.46,1.46,0,0,0-.34.41,5.93,5.93,0,0,1-3-4.1,5.81,5.81,0,0,1-2.9,4.12,1.68,1.68,0,0,0-.38-.37c3-1.5,3-5.08,3-6.16Z"/><path class="cls-7" d="M29.67,18.91a4.18,4.18,0,0,1-.75.93c-.07-.07-.24-.23-.34-.31a4.42,4.42,0,0,0,1.11-1.59l.44.11c-.07.16-.14.31-.22.47h1.92v.39H30.41a8,8,0,0,1,.65.67l-.32.26a8.44,8.44,0,0,0-.68-.73l.28-.2Zm2.21.54a2.71,2.71,0,0,1,.29.56h2.65v1.17h-.49v-.79H29.49v.79H29V20h2.65a2.92,2.92,0,0,0-.23-.47Zm-1.6,3.36h4v1.74h-.47v-.23H30.28v.25H29.8V20.86h4.14v1.42H30.28Zm0-1.57v.66h3.19v-.66Zm0,2v.75h3.56v-.75Zm4.84-4.67v.39H32.64a3.11,3.11,0,0,1-.53.6,3.78,3.78,0,0,0-.36-.29,3,3,0,0,0,.9-1.28l.45.1a4.23,4.23,0,0,1-.23.48ZM34,19.9a6.12,6.12,0,0,0-.77-.73l.31-.26a6.23,6.23,0,0,1,.78.7Z"/><path class="cls-7" d="M38.68,23.06c-.77.26-1.59.55-2.22.75l-.11-.49c.27-.07.61-.18,1-.3V21h-.84v-.45h.84V18.94h-.9v-.45h2.21v.45h-.85v1.63h.75V21h-.75v1.86l.81-.27Zm4.34.83v.44H38.35v-.44h2.23v-1H38.91v-.44h1.67v-.89H39v-3.2h3.66v3.2h-1.6v.89h1.71v.44H41.07v1Zm-3.57-4.18h1.16v-1H39.45Zm0,1.39h1.16v-1H39.45Zm2.76-2.35H41v1h1.18Zm0,1.36H41v1h1.18Z"/><path class="cls-7" d="M46.82,19.61H44.2v-.39h2.62Zm2.44,2.53a5.28,5.28,0,0,0,1.6,1.68,1.86,1.86,0,0,0-.33.36A6.35,6.35,0,0,1,49,22.45v2.12h-.47V22.51a5.19,5.19,0,0,1-1.61,1.73,2.21,2.21,0,0,0-.29-.33v.22H44.92v.34H44.5V22.05h2.13v1.8a4.63,4.63,0,0,0,1.66-1.71H46.82v-.43h1.71v-.64H47.1V18.29h3.37v2.78H49v.64h1.69v.43Zm-2.69-1.6H44.5v-.38h2.07Zm-2.07.55h2.07v.39H44.5Zm1.7,1.37H44.92v1.26H46.2Zm-.64-3.35a6.23,6.23,0,0,0-.53-1l.36-.19a6.43,6.43,0,0,1,.57.92Zm2,.37h1v-.79h-1Zm0,1.2h1v-.81h-1Zm2.49-2H49v.79H50Zm0,1.18H49v.81H50Z"/><path class="cls-7" d="M54.22,22.26c-.1-.22-.37-.67-.58-1v3.34h-.46V21.25a8.42,8.42,0,0,1-1,2,3.47,3.47,0,0,0-.25-.46,8,8,0,0,0,1.14-2.33h-1v-.45h1.13V18.83c-.31.07-.61.12-.89.17a1.77,1.77,0,0,0-.15-.38,8.55,8.55,0,0,0,2-.58l.29.39a4.78,4.78,0,0,1-.81.28v1.34h1v.45h-1v.21c.19.23.74,1,.86,1.15ZM58.59,24v.44H54.44V24h1.87v-1H54.84v-.42h1.47v-.92c-.43.06-.85.09-1.25.11a1.09,1.09,0,0,0-.13-.37,15.31,15.31,0,0,0,2.86-.42l.33.36a9.57,9.57,0,0,1-1.34.27v1h1.5v.42h-1.5v1Zm-.42-3.34H54.92V18.35h3.25Zm-.47-1.84H55.37v1.42H57.7Z"/><path class="cls-7" d="M10.7,48.84a12,12,0,0,1-.54,1.52v4.89H9.74v-4a6.91,6.91,0,0,1-.59.92,2.2,2.2,0,0,0-.26-.47,8.94,8.94,0,0,0,1.4-3Zm2,1.53h-2V50h2ZM10.8,52.91h1.77v2.16h-.41v-.32h-1v.44H10.8Zm1.7-1.58H10.88v-.39H12.5Zm-1.62.57H12.5v.39H10.88Zm.8-2.09a3.69,3.69,0,0,0-.5-.82l.3-.19a3.39,3.39,0,0,1,.52.8Zm-.49,3.49v1.06h1V53.3Zm3.15-1.94a9.05,9.05,0,0,1-.61.75h1.64V55.2h-.44v-.27h-1.2v.32H13.3V52.53a6.26,6.26,0,0,1-.57.45,1.83,1.83,0,0,0-.3-.34,6,6,0,0,0,1.39-1.28H12.67v-.42h.9v-1h-.75v-.4h.75v-.83H14v.83h.68v.4H14v1h.15a8.23,8.23,0,0,0,1-2l.42.09a10.1,10.1,0,0,1-.91,1.93h1v.42Zm.59,1.15h-1.2v.8h1.2Zm0,2v-.81h-1.2v.81Z"/><path class="cls-7" d="M18.68,48.8a14.16,14.16,0,0,1-.56,1.49v5h-.47v-4a6,6,0,0,1-.6.89,2.55,2.55,0,0,0-.27-.47,8.93,8.93,0,0,0,1.47-3Zm1.55,2.27a2.9,2.9,0,0,1-.46.6H23v3.08c0,.22,0,.33-.19.4a1.65,1.65,0,0,1-.7.08,1.31,1.31,0,0,0-.15-.4,3.93,3.93,0,0,0,.5,0c.06,0,.09,0,.09-.08v-.59h-1.2v.92h-.44v-.92H19.56a2.49,2.49,0,0,1-.47,1.12,1.76,1.76,0,0,0-.37-.29,3.26,3.26,0,0,0,.47-1.93v-.84a4.05,4.05,0,0,1-.66.45,3.08,3.08,0,0,0-.28-.38,4.21,4.21,0,0,0,1.46-1.22H18.63v-.45h1.3v-.74H18.82v-.44h1.11V48.7h.46v.74h1.27V48.7h.46v.74h1v.44h-1v.74H23.3v.45Zm.64,2.72v-.68H19.66a5.49,5.49,0,0,1,0,.68Zm-1.21-1h1.21v-.65H19.66Zm.73-2.12h1.27v-.74H20.39Zm2.12,1.47h-1.2v.65h1.2Zm0,1.7v-.68h-1.2v.68Z"/><path class="cls-7" d="M29.83,48.69l-.21.47A5.86,5.86,0,0,0,31.34,51a1.74,1.74,0,0,0-.32.34,7.15,7.15,0,0,1-1.6-1.78,5.68,5.68,0,0,1-1.58,1.79,2.06,2.06,0,0,0-.27-.33V52.9H26.52v.6h1.34v.44H26.52v1.31h-.47V53.94H24.66V53.5h1.39v-.6H25V50.53h1.06v-.59H24.74v-.43h1.31v-.83h.47v.83h1.27v.43H26.52v.59h1.05v.4a5.42,5.42,0,0,0,1.85-2.37Zm-2.71,2.23H25.43v.61h1.69Zm0,1H25.43v.61h1.69Zm2.58,1h1.35v.44H29.7v1.89h-.47V53.37H27.85v-.44h1.38V51.7H28.15v-.45h2.59v.45h-1Z"/><path class="cls-7" d="M35.81,50.14c-.17.43-.37.94-.55,1.33h1.05v.44H32.55v-.44h2.24A11.43,11.43,0,0,0,35.33,50Zm.33-.17H32.77v-.44H34.3a7.27,7.27,0,0,0-.33-.76l.43-.13a7.13,7.13,0,0,1,.39.89h1.35ZM33,52.6h3v2.55h-.47v-.29H33.44v.34H33Zm.7-1.17a5.6,5.6,0,0,0-.47-1.28l.42-.1a5,5,0,0,1,.49,1.26ZM33.44,53v1.39h2.05V53ZM39,49.26c-.26.66-.6,1.48-.91,2.15a2.44,2.44,0,0,1,.82,1.75,1.09,1.09,0,0,1-.31.91.92.92,0,0,1-.45.14,4.23,4.23,0,0,1-.62,0,1.21,1.21,0,0,0-.14-.46,3.07,3.07,0,0,0,.59,0,.74.74,0,0,0,.3-.08.7.7,0,0,0,.19-.58,2.38,2.38,0,0,0-.85-1.66c.28-.62.57-1.39.77-2H37.13v5.75H36.7V49.06h1.86l.07,0Z"/><path class="cls-7" d="M41.63,53.29,42.5,53l.08.45-2.17.87-.15-.49c.26-.08.58-.19.93-.33V50.89h-.88v-.46h.88V48.75h.44v1.68h.84v.46h-.84Zm5.24-1.77V52H42.43v-.44h2.71A12.46,12.46,0,0,0,45.67,50l.45.12c-.16.45-.36,1-.54,1.4Zm-.21-1.59H42.71V49.5h1.78a6.24,6.24,0,0,0-.2-.8l.43-.06a5.35,5.35,0,0,1,.24.86h1.7Zm-3.59,2.69h3.22v2.61h-.47v-.3h-2.3v.32h-.45Zm.55-1.21a5.64,5.64,0,0,0-.41-1.27L43.6,50A4.77,4.77,0,0,1,44,51.28Zm-.1,1.65v1.43h2.3V53.06Z"/><path class="cls-7" d="M50.7,50.3H48.11v-.4H50.7Zm-.25.93H48.4v-.39h2.05Zm-2.05.54h2.05v.4H48.4Zm.41,3v.35H48.4V52.74h2.11v2.07Zm0-1.67v1.27h1.27V53.14Zm.64-3.35a5.42,5.42,0,0,0-.53-.95l.36-.19a7,7,0,0,1,.57.92Zm1.95-.93h.46v2.52a6.19,6.19,0,0,1-1,3.92,2.39,2.39,0,0,0-.41-.26,5.64,5.64,0,0,0,.92-3.66Zm1.27.29h.44v5.39h-.44Zm1.79-.35v6.46H54V48.8Z"/><path class="cls-7" d="M15.57,122.07H13.83v1.09c0,.26-.06.39-.28.46a4.54,4.54,0,0,1-1.15.07,2.07,2.07,0,0,0-.16-.43c.46,0,.86,0,1,0s.15,0,.15-.12v-1.09H9.05v-.4h4.31v-.47c-1.49,0-2.95.07-4,.08l0-.39,2.72,0v-.42H9.82v-2h2.24v-.43H9.26v-.39h2.8v-.56h.47v.56h2.74v.39H12.53v.43h2.3v2h-.92a6.87,6.87,0,0,1,1.39.72l-.29.29a3.05,3.05,0,0,0-.42-.3l-1.2,0h.44v.47h1.74Zm-5,0a6.13,6.13,0,0,1,1.22.9l-.34.32a6.61,6.61,0,0,0-1.21-.94Zm-.25-2.78h1.78v-.48H10.28Zm1.78.79v-.48H10.28v.48Zm.47-1.27v.48h1.83v-.48Zm1.83.79H12.53v.48h1.83Zm-1.83,1.23,1.45,0c-.2-.09-.41-.17-.59-.23l.17-.16h-1Z"/><path class="cls-7" d="M19.5,122.53a6.76,6.76,0,0,1-2.24.92,1.69,1.69,0,0,0-.3-.36,6.73,6.73,0,0,0,2.18-.74Zm3.78-1V122H20.36v1.73h-.48V122H17v-.41h2.88V121h-2.2v-.38h2.2V120H17.31v-.39h1.61a3.19,3.19,0,0,0-.38-.73l.38-.1H17v-.41h1.2a4.94,4.94,0,0,0-.6-1.08l.41-.14a5,5,0,0,1,.64,1.08l-.38.14h.93v-1.3h.44v1.3h.93v-1.3h.46v1.3H22l-.28-.09a7.44,7.44,0,0,0,.58-1.12l.48.14a10.08,10.08,0,0,1-.64,1.07h1.15v.41H21.37l.44.12c-.17.25-.35.51-.51.71H23V120H20.36v.56h2.28V121H20.36v.58ZM19,118.82a3.32,3.32,0,0,1,.41.75l-.29.08h2l-.26-.08a5,5,0,0,0,.45-.75Zm2.14,3.5a21.85,21.85,0,0,1,2.14.8l-.29.32c-.48-.23-1.42-.6-2.13-.86Z"/><path class="cls-7" d="M28.22,117.13c0,.25,0,.62,0,1,.11.84.55,3.92,3.1,5.07a1.48,1.48,0,0,0-.35.4,6,6,0,0,1-3-4.1,5.81,5.81,0,0,1-2.9,4.12,1.68,1.68,0,0,0-.38-.37c3-1.5,3-5.07,3-6.16Z"/><path class="cls-7" d="M38.9,119.07h-2v3.84c0,.36-.1.51-.34.59a4.82,4.82,0,0,1-1.36.09,2.11,2.11,0,0,0-.17-.5c.52,0,1,0,1.15,0s.21-.06.21-.2v-3.67a11.09,11.09,0,0,1-3.61,3.57,2.11,2.11,0,0,0-.36-.43,9.72,9.72,0,0,0,3.5-3.31H32.66v-.49h3.75V117.1h.51v1.48h2Z"/><path class="cls-7" d="M45,119.71a4.34,4.34,0,0,0,1.92,1.2,2.17,2.17,0,0,0-.31.37,4.57,4.57,0,0,1-2.11-1.57H42.71a5,5,0,0,1-1,1h3.68v1.66H42.16v.74l1.25-.3c0,.11,0,.28,0,.37a7.55,7.55,0,0,0-1.84.56,1.48,1.48,0,0,0-.2-.42.46.46,0,0,0,.26-.45v-2.11a7.36,7.36,0,0,1-1.09.66c-.08-.09-.24-.26-.34-.35a5.17,5.17,0,0,0,1.92-1.33H40.41v-.37h2.92v-.4H41.22v-.33h2.11v-.39h-2.5v-.35h1.38c-.12-.2-.28-.43-.41-.61l.42-.15a7.1,7.1,0,0,1,.53.76h1.69a5.12,5.12,0,0,0,.44-.78l.5.14a6.51,6.51,0,0,1-.44.64h1.39v.35H43.82v.39h2.11v.33H43.82v.4h2.94v.37ZM42.16,121v.37h2.77V121Zm2.77,1v-.39H42.16V122Zm-2.39-1.69V120h2.08v.3Zm3.88,2a10.22,10.22,0,0,1-1.2.57c.46.16.89.32,1.19.45l-.2.35c-.64-.28-1.9-.75-2.83-1l.19-.3c.38.11.8.24,1.22.39a14.56,14.56,0,0,0,1.32-.68Z"/><path class="cls-7" d="M54.18,119.55A8,8,0,0,1,52.91,122c.28.74.62,1.17,1,1.17.21,0,.31-.38.35-1.34a1.19,1.19,0,0,0,.41.25c-.08,1.21-.26,1.57-.79,1.57s-1-.46-1.34-1.22A6.67,6.67,0,0,1,51,123.65a3.08,3.08,0,0,0-.35-.39,5.82,5.82,0,0,0,1.72-1.36,12.46,12.46,0,0,1-.54-3.07H49.24v1H51.1V120c0,1.64-.08,2.24-.23,2.42a.5.5,0,0,1-.41.2,5.27,5.27,0,0,1-.88,0,.87.87,0,0,0-.13-.44c.34,0,.66,0,.79,0a.25.25,0,0,0,.23-.08,5.51,5.51,0,0,0,.16-1.89H49.24v.13a6.16,6.16,0,0,1-.76,3.36,1.57,1.57,0,0,0-.4-.32,5.49,5.49,0,0,0,.67-3v-2h3c0-.4,0-.82,0-1.24h.5c0,.42,0,.84,0,1.24h2.35v.47H52.32a13.78,13.78,0,0,0,.41,2.6,7.52,7.52,0,0,0,1-2ZM54,118.32a7.08,7.08,0,0,0-1.31-.86l.29-.3a6.89,6.89,0,0,1,1.31.83Z"/><path class="cls-7" d="M179.3,35.68h-2.24c-.06.48-.2,1.39-.26,1.7A1.41,1.41,0,0,1,178,36.9a1.55,1.55,0,0,1,1.58,1.75,1.71,1.71,0,0,1-1.76,1.93,1.62,1.62,0,0,1-1.71-1.41h.56a1.14,1.14,0,0,0,1.17.93c.79,0,1.18-.55,1.18-1.41s-.32-1.3-1.1-1.3a1.14,1.14,0,0,0-1.19.75l-.52-.12c.17-.7.36-2.19.43-2.83h2.78Z"/><path class="cls-7" d="M180.54,40.48v0a3.32,3.32,0,0,1,1.6-2.34c.89-.69,1.12-.9,1.12-1.53a.92.92,0,0,0-1-1c-.68,0-1,.34-1.15,1.06h-.54a1.6,1.6,0,0,1,1.69-1.54,1.43,1.43,0,0,1,1.58,1.47c0,.81-.34,1.1-1.32,1.88A3.78,3.78,0,0,0,181.17,40h2.88l-.09.5Z"/><path class="cls-7" d="M179.29,18.73v.48A13,13,0,0,0,177.17,24h-.56a13.16,13.16,0,0,1,2.1-4.8h-2.82v-.5Z"/><path class="cls-7" d="M183.79,21.34c0,1.26-.34,2.78-1.79,2.78s-1.77-1.41-1.77-2.74.4-2.74,1.8-2.74S183.79,20,183.79,21.34Zm-3,0c0,1,.2,2.26,1.2,2.26s1.2-1.18,1.2-2.3S183,19.12,182,19.12,180.81,20.22,180.81,21.38Z"/><path class="cls-7" d="M176.17,70.65v0a3.32,3.32,0,0,1,1.6-2.34c.89-.69,1.12-.9,1.12-1.53a.92.92,0,0,0-1-1c-.69,0-1,.34-1.15,1.06h-.54a1.6,1.6,0,0,1,1.69-1.54,1.43,1.43,0,0,1,1.58,1.47c0,.81-.34,1.1-1.32,1.88a3.78,3.78,0,0,0-1.34,1.54h2.88l-.09.5Z"/><path class="cls-7" d="M183.94,65.36v.48a12.93,12.93,0,0,0-2.12,4.81h-.56a13,13,0,0,1,2.1-4.8h-2.82v-.49Z"/><path class="cls-7" d="M178.72,51a.91.91,0,0,0-1-.73c-1,0-1.29.89-1.32,2.16a1.48,1.48,0,0,1,1.4-.83,1.59,1.59,0,0,1,1.61,1.77,1.73,1.73,0,0,1-1.73,1.91c-1.43,0-1.82-1.18-1.82-2.67s.47-2.81,1.88-2.81a1.39,1.39,0,0,1,1.5,1.2Zm.15,2.41c0-.63-.25-1.33-1.12-1.33a1.19,1.19,0,0,0-1.23,1.33c0,.44.23,1.4,1.19,1.4S178.87,54.12,178.87,53.41Z"/><path class="cls-7" d="M183.83,50.39h-2.25c-.05.48-.2,1.38-.26,1.69a1.43,1.43,0,0,1,1.17-.48,1.56,1.56,0,0,1,1.58,1.76,1.72,1.72,0,0,1-1.77,1.92,1.61,1.61,0,0,1-1.7-1.4h.55a1.16,1.16,0,0,0,1.18.93c.78,0,1.17-.56,1.17-1.41s-.31-1.31-1.09-1.31a1.14,1.14,0,0,0-1.2.76l-.52-.12c.17-.7.36-2.19.44-2.84h2.77Z"/><path class="cls-7" d="M176,102v0a3.34,3.34,0,0,1,1.61-2.33c.89-.69,1.12-.9,1.12-1.53a.93.93,0,0,0-1-1c-.69,0-1,.34-1.16,1.05h-.53a1.59,1.59,0,0,1,1.69-1.53,1.43,1.43,0,0,1,1.58,1.47c0,.81-.34,1.1-1.32,1.88a3.64,3.64,0,0,0-1.34,1.54h2.87l-.08.5Z"/><path class="cls-7" d="M182.84,102v-1.43h-2.52v-.51l2.48-3.36h.57v3.38h.7l-.06.49h-.64V102Zm0-3.4c0-.34,0-.94,0-1.29-.22.39-1.38,2-2,2.77h2Z"/><path class="cls-7" d="M177.69,86.85V82.22a3.53,3.53,0,0,1-1.14.55V82.3a4,4,0,0,0,1.27-.77h.43v5.32Z"/><path class="cls-7" d="M183.07,82.05h-2.25c0,.48-.2,1.39-.26,1.7a1.43,1.43,0,0,1,1.17-.48A1.55,1.55,0,0,1,183.31,85,1.72,1.72,0,0,1,181.54,87a1.61,1.61,0,0,1-1.7-1.4h.55a1.16,1.16,0,0,0,1.18.92c.78,0,1.17-.55,1.17-1.41s-.31-1.3-1.09-1.3a1.15,1.15,0,0,0-1.2.75l-.52-.11c.17-.71.36-2.19.44-2.84h2.77Z"/><path class="cls-7" d="M179.15,127.51H176.9c-.05.48-.2,1.39-.26,1.7a1.43,1.43,0,0,1,1.17-.48,1.56,1.56,0,0,1,1.58,1.76,1.72,1.72,0,0,1-1.77,1.92,1.61,1.61,0,0,1-1.7-1.4h.55a1.16,1.16,0,0,0,1.18.92c.78,0,1.17-.55,1.17-1.41s-.31-1.3-1.09-1.3a1.14,1.14,0,0,0-1.2.75l-.52-.11c.17-.7.36-2.19.44-2.84h2.77Z"/><path class="cls-7" d="M183.84,127.51h-2.25c-.05.48-.2,1.39-.26,1.7a1.43,1.43,0,0,1,1.17-.48,1.56,1.56,0,0,1,1.58,1.76,1.72,1.72,0,0,1-1.77,1.92,1.61,1.61,0,0,1-1.7-1.4h.55a1.15,1.15,0,0,0,1.18.92c.78,0,1.17-.55,1.17-1.41s-.31-1.3-1.09-1.3a1.14,1.14,0,0,0-1.2.75l-.52-.11c.17-.7.36-2.19.44-2.84h2.77Z"/><path class="cls-7" d="M177.89,117.25v-4.64a3.38,3.38,0,0,1-1.15.55v-.46a3.94,3.94,0,0,0,1.28-.78h.43v5.33Z"/><path class="cls-7" d="M183.3,112v.48a12.75,12.75,0,0,0-2.11,4.81h-.57a13.16,13.16,0,0,1,2.1-4.8H179.9V112Z"/><path class="cls-7" d="M176.64,162.43v0a3.34,3.34,0,0,1,1.61-2.34c.89-.68,1.12-.9,1.12-1.53a.93.93,0,0,0-1-1c-.69,0-1,.34-1.16,1.06h-.53a1.6,1.6,0,0,1,1.69-1.54,1.43,1.43,0,0,1,1.58,1.47c0,.81-.34,1.1-1.32,1.89a3.63,3.63,0,0,0-1.34,1.53h2.87l-.08.5Z"/><path class="cls-7" d="M182.3,162.43V157.8a3.63,3.63,0,0,1-1.14.55v-.47a4,4,0,0,0,1.27-.77h.43v5.32Z"/><path class="cls-7" d="M179.62,142.21v.47a12.89,12.89,0,0,0-2.12,4.82h-.56a13,13,0,0,1,2.09-4.8h-2.82v-.49Z"/><path class="cls-7" d="M182.45,147.5v-1.43h-2.52v-.5l2.48-3.36H183v3.38h.71l-.07.48H183v1.43Zm0-3.39c0-.35,0-1,0-1.3-.21.4-1.37,1.95-2,2.78h1.94Z"/><path class="cls-7" d="M71.3,37.78H68.47V40h3.1l-.08.51H67.9V34.87h3.54v.5h-3v1.9H71.3Z"/><path class="cls-7" d="M72.74,40.48V34.56h.54v5.92Z"/><path class="cls-7" d="M74.87,34.56h.54v.83h-.54Zm0,1.87h.54v4h-.54Z"/><path class="cls-7" d="M76.48,36.43h.73V35.2h.54v1.23h.93v.47h-.93v2.51c0,.43.1.66.48.66a1.69,1.69,0,0,0,.38,0v.43a1.57,1.57,0,0,1-.54.08c-.57,0-.86-.29-.86-.95V36.9h-.73Z"/><path class="cls-7" d="M80,38.54c0,.94.49,1.56,1.22,1.56a1,1,0,0,0,1.08-.7h.55a1.61,1.61,0,0,1-1.65,1.18c-1.25,0-1.74-1-1.74-2.09s.59-2.15,1.79-2.15a1.69,1.69,0,0,1,1.68,1.87c0,.12,0,.22,0,.33Zm2.38-.42c0-.74-.4-1.32-1.14-1.32s-1.13.54-1.21,1.32Z"/><path class="cls-7" d="M86.69,34.87h2.06a1.57,1.57,0,0,1,1.78,1.59A1.62,1.62,0,0,1,88.7,38.1H87.27v2.38h-.58Zm.58,2.72h1.44c.84,0,1.22-.43,1.22-1.11a1.06,1.06,0,0,0-1.19-1.11H87.27Z"/><path class="cls-7" d="M91.7,37.53c0-.62,0-.93,0-1.1h.53c0,.13,0,.41,0,.87a1.46,1.46,0,0,1,1.38-1v.55a1.38,1.38,0,0,0-1.38,1.55v2H91.7Z"/><path class="cls-7" d="M98,38.45a1.92,1.92,0,0,1-1.87,2.13,1.88,1.88,0,0,1-1.81-2.12,1.89,1.89,0,0,1,1.85-2.12A1.87,1.87,0,0,1,98,38.45Zm-3.12,0c0,.93.48,1.64,1.28,1.64s1.27-.67,1.27-1.64-.45-1.65-1.28-1.65S94.92,37.51,94.92,38.46Z"/><path class="cls-7" d="M102.57,40.16c0,1.3-.55,2-1.79,2A1.43,1.43,0,0,1,99.15,41h.55a1,1,0,0,0,1.1.75c1,0,1.25-.63,1.25-1.62v-.37a1.26,1.26,0,0,1-1.31.76c-1,0-1.67-.79-1.67-2s.77-2.12,1.73-2.12,1.15.37,1.25.67c0-.21,0-.49,0-.58h.51c0,.19,0,.79,0,1.18Zm-2.94-1.72c0,.91.48,1.55,1.2,1.55,1,0,1.24-.63,1.24-1.61s-.29-1.57-1.21-1.57S99.63,37.54,99.63,38.44Z"/><path class="cls-7" d="M104.16,37.53c0-.62,0-.93,0-1.1h.53c0,.13,0,.41,0,.87a1.46,1.46,0,0,1,1.38-1v.55a1.38,1.38,0,0,0-1.38,1.55v2h-.54Z"/><path class="cls-7" d="M109.94,39.66a6.21,6.21,0,0,0,0,.82h-.51a2.36,2.36,0,0,1-.07-.58,1.29,1.29,0,0,1-1.29.68,1.22,1.22,0,0,1-1.36-1.23c0-.89.7-1.3,1.91-1.3h.73v-.38c0-.39-.11-.88-1-.88s-.87.39-1,.71H107c.05-.5.36-1.16,1.49-1.16,1,0,1.49.39,1.49,1.3Zm-.53-1.2h-.73c-.86,0-1.36.23-1.36.87a.78.78,0,0,0,.87.79c1.07,0,1.22-.71,1.22-1.52Z"/><path class="cls-7" d="M111.53,37.48v-1h.52c0,.13,0,.46,0,.68a1.25,1.25,0,0,1,1.2-.77,1.13,1.13,0,0,1,1.15.76,1.36,1.36,0,0,1,1.3-.76c.64,0,1.27.37,1.27,1.48v2.66h-.53v-2.6c0-.51-.18-1.05-.88-1.05s-1,.57-1,1.32v2.33H114V37.9c0-.56-.16-1.07-.86-1.07s-1.07.62-1.07,1.42v2.23h-.54Z"/><path class="cls-7" d="M67.9,49.57h.57v5.11h3l-.09.51H67.9Z"/><path class="cls-7" d="M72.81,53.25c0,.94.48,1.56,1.22,1.56a1.06,1.06,0,0,0,1.08-.7h.54A1.58,1.58,0,0,1,74,55.28c-1.25,0-1.75-1.05-1.75-2.08,0-1.18.59-2.16,1.8-2.16a1.7,1.7,0,0,1,1.68,1.87c0,.12,0,.23,0,.34Zm2.38-.42c0-.74-.4-1.33-1.15-1.33s-1.13.54-1.21,1.33Z"/><path class="cls-7" d="M79.9,54.37a6.34,6.34,0,0,0,0,.82h-.51a2.28,2.28,0,0,1-.08-.58,1.3,1.3,0,0,1-1.29.67,1.21,1.21,0,0,1-1.35-1.22c0-.9.7-1.31,1.91-1.31h.73v-.38c0-.38-.12-.87-1-.87s-.87.38-1,.71h-.53c.06-.5.36-1.17,1.5-1.17,1,0,1.49.4,1.49,1.3Zm-.53-1.21h-.73c-.86,0-1.36.23-1.36.87a.79.79,0,0,0,.87.8c1.07,0,1.22-.72,1.22-1.53Z"/><path class="cls-7" d="M84.72,49.27V54c0,.39,0,.76,0,1.16h-.52c0-.11,0-.45,0-.64a1.32,1.32,0,0,1-1.33.73c-1,0-1.68-.85-1.68-2.07S81.87,51,83,51c.77,0,1.09.32,1.21.57V49.27Zm-3,3.92c0,1.05.52,1.61,1.19,1.61,1,0,1.27-.71,1.27-1.72S84,51.52,83,51.52C82.24,51.52,81.75,52.13,81.75,53.19Z"/><path class="cls-7" d="M86.55,53.25c0,.94.48,1.56,1.22,1.56a1,1,0,0,0,1.07-.7h.55a1.59,1.59,0,0,1-1.64,1.17C86.5,55.28,86,54.23,86,53.2,86,52,86.59,51,87.79,51a1.7,1.7,0,0,1,1.69,1.87c0,.12,0,.23,0,.34Zm2.38-.42c0-.74-.4-1.33-1.15-1.33s-1.13.54-1.21,1.33Z"/><path class="cls-7" d="M90.75,52.24c0-.63,0-.93,0-1.1h.53c0,.12,0,.41,0,.87a1.48,1.48,0,0,1,1.38-1v.56a1.37,1.37,0,0,0-1.38,1.55v2h-.54Z"/><path class="cls-7" d="M94,54.05a1,1,0,0,0,1.08.78c.66,0,.93-.3.93-.71s-.19-.63-1-.83c-1.1-.27-1.35-.6-1.35-1.14S94,51,95,51a1.31,1.31,0,0,1,1.46,1.15h-.53a.88.88,0,0,0-1-.7c-.64,0-.83.32-.83.61s.19.51,1,.7c1.18.28,1.45.67,1.45,1.28s-.59,1.2-1.51,1.2a1.42,1.42,0,0,1-1.6-1.23Z"/><path class="cls-7" d="M98.28,49.27v2.51a1.38,1.38,0,0,1,1.3-.74c.61,0,1.36.32,1.36,1.57v2.58h-.53V52.71c0-.75-.33-1.18-1-1.18S98.28,52,98.28,53v2.24h-.54V49.27Z"/><path class="cls-7" d="M102.53,49.27h.54v.82h-.54Zm0,1.87h.54v4h-.54Z"/><path class="cls-7" d="M105.2,54.63v2.16h-.54V52.13c0-.33,0-.68,0-1h.53a6.26,6.26,0,0,1,0,.69,1.46,1.46,0,0,1,1.38-.79c.94,0,1.61.8,1.61,2,0,1.45-.77,2.22-1.75,2.22A1.27,1.27,0,0,1,105.2,54.63Zm2.43-1.55c0-.9-.42-1.55-1.17-1.55-.92,0-1.29.57-1.29,1.62s.3,1.66,1.23,1.66S107.63,54.14,107.63,53.08Z"/><path class="cls-7" d="M112,49.57h2.06a1.58,1.58,0,0,1,1.78,1.6A1.61,1.61,0,0,1,114,52.8h-1.43v2.39H112Zm.58,2.73H114c.84,0,1.22-.43,1.22-1.12a1.06,1.06,0,0,0-1.19-1.1h-1.47Z"/><path class="cls-7" d="M117,52.24c0-.63,0-.93,0-1.1h.53c0,.12,0,.41,0,.87a1.49,1.49,0,0,1,1.39-1v.56a1.38,1.38,0,0,0-1.39,1.55v2H117Z"/><path class="cls-7" d="M123.35,53.15a1.91,1.91,0,0,1-1.87,2.13,1.88,1.88,0,0,1-1.81-2.11A1.9,1.9,0,0,1,121.53,51,1.87,1.87,0,0,1,123.35,53.15Zm-3.12,0c0,.93.49,1.65,1.28,1.65s1.28-.67,1.28-1.65-.46-1.64-1.29-1.64S120.23,52.21,120.23,53.16Z"/><path class="cls-7" d="M127.89,54.87c0,1.3-.56,2-1.8,2a1.44,1.44,0,0,1-1.63-1.22H125a1,1,0,0,0,1.1.76c1,0,1.25-.64,1.25-1.62v-.38a1.25,1.25,0,0,1-1.31.77c-1,0-1.67-.79-1.67-2s.77-2.13,1.74-2.13c.8,0,1.14.38,1.24.68,0-.21,0-.49,0-.58h.51c0,.19,0,.78,0,1.17Zm-3-1.73c0,.92.48,1.56,1.21,1.56.94,0,1.23-.63,1.23-1.62s-.29-1.56-1.21-1.56S124.94,52.24,124.94,53.14Z"/><path class="cls-7" d="M129.47,52.24c0-.63,0-.93,0-1.1H130c0,.12,0,.41,0,.87a1.48,1.48,0,0,1,1.39-1v.56A1.38,1.38,0,0,0,130,53.15v2h-.54Z"/><path class="cls-7" d="M135.25,54.37a4.63,4.63,0,0,0,.06.82h-.52a2.44,2.44,0,0,1-.07-.58,1.31,1.31,0,0,1-1.29.67,1.21,1.21,0,0,1-1.35-1.22c0-.9.69-1.31,1.9-1.31h.74v-.38c0-.38-.12-.87-1-.87s-.87.38-.95.71h-.53c0-.5.36-1.17,1.5-1.17.95,0,1.48.4,1.48,1.3Zm-.53-1.21H134c-.85,0-1.35.23-1.35.87a.78.78,0,0,0,.86.8c1.07,0,1.22-.72,1.22-1.53Z"/><path class="cls-7" d="M136.85,52.18c0-.34,0-.72,0-1h.52a6.54,6.54,0,0,1,0,.67,1.27,1.27,0,0,1,1.2-.77,1.13,1.13,0,0,1,1.15.77A1.38,1.38,0,0,1,141,51c.64,0,1.28.37,1.28,1.48v2.67h-.54v-2.6c0-.51-.18-1.06-.88-1.06s-1,.57-1,1.33v2.33h-.53V52.6c0-.56-.16-1.07-.86-1.07s-1.07.62-1.07,1.42v2.24h-.53Z"/><path class="cls-7" d="M69,65.54H67.19V65h4.29v.5H69.62v5.11H69Z"/><path class="cls-7" d="M71.89,68.71c0,.94.48,1.56,1.22,1.56a1,1,0,0,0,1.08-.7h.54a1.58,1.58,0,0,1-1.64,1.18c-1.25,0-1.74-1-1.74-2.09s.58-2.15,1.79-2.15a1.69,1.69,0,0,1,1.68,1.87c0,.11,0,.22,0,.33Zm2.38-.42c0-.74-.4-1.32-1.15-1.32s-1.12.54-1.2,1.32Z"/><path class="cls-7" d="M79,69.83a6.21,6.21,0,0,0,0,.82h-.51a2.36,2.36,0,0,1-.07-.58,1.31,1.31,0,0,1-1.29.68,1.21,1.21,0,0,1-1.35-1.23c0-.9.69-1.3,1.9-1.3h.73v-.39c0-.38-.11-.87-1-.87s-.87.38-1,.71H76c0-.5.36-1.17,1.49-1.16,1,0,1.49.39,1.49,1.3Zm-.53-1.2h-.73c-.85,0-1.36.23-1.36.86a.79.79,0,0,0,.87.8c1.07,0,1.22-.71,1.22-1.52Z"/><path class="cls-7" d="M80.57,67.65V66.6h.52c0,.13,0,.46,0,.68a1.25,1.25,0,0,1,1.2-.77,1.13,1.13,0,0,1,1.15.76,1.36,1.36,0,0,1,1.3-.76c.64,0,1.27.37,1.27,1.48v2.66H85.5v-2.6c0-.51-.18-1-.88-1s-1.05.57-1.05,1.32v2.33H83V68.07c0-.56-.16-1.07-.86-1.07s-1.07.62-1.07,1.42v2.23h-.54Z"/><path class="cls-7" d="M90.15,65h.57v5.1h3l-.09.51H90.15Z"/><path class="cls-7" d="M95.06,68.71c0,.94.48,1.56,1.22,1.56a1,1,0,0,0,1.08-.7h.54a1.59,1.59,0,0,1-1.64,1.18c-1.25,0-1.75-1-1.75-2.09s.59-2.15,1.79-2.15A1.69,1.69,0,0,1,98,68.38c0,.11,0,.22,0,.33Zm2.38-.42c0-.74-.4-1.32-1.15-1.32s-1.13.54-1.21,1.32Z"/><path class="cls-7" d="M102.14,69.83a5.74,5.74,0,0,0,.06.82h-.52a3,3,0,0,1-.07-.58,1.31,1.31,0,0,1-1.29.68A1.22,1.22,0,0,1,99,69.52c0-.9.7-1.3,1.91-1.3h.73v-.39c0-.38-.12-.87-1-.87s-.87.38-1,.71h-.53c0-.5.36-1.17,1.5-1.16,1,0,1.48.39,1.48,1.3Zm-.52-1.2h-.73c-.86,0-1.36.23-1.36.86a.78.78,0,0,0,.86.8c1.08,0,1.23-.71,1.23-1.52Z"/><path class="cls-7" d="M107,64.73v4.76c0,.39,0,.76,0,1.16h-.52c0-.1,0-.45,0-.63a1.3,1.3,0,0,1-1.32.73c-1,0-1.68-.86-1.68-2.08s.69-2.16,1.8-2.16c.77,0,1.09.32,1.2.56V64.73Zm-3,3.92c0,1,.52,1.62,1.19,1.62,1,0,1.27-.72,1.27-1.72S106.23,67,105.25,67C104.49,67,104,67.59,104,68.65Z"/><path class="cls-7" d="M108.8,68.71c0,.94.48,1.56,1.21,1.56a1,1,0,0,0,1.08-.7h.55A1.61,1.61,0,0,1,110,70.75c-1.25,0-1.74-1-1.74-2.09s.59-2.15,1.79-2.15a1.7,1.7,0,0,1,1.69,1.87c0,.11,0,.22,0,.33Zm2.37-.42c0-.74-.39-1.32-1.14-1.32s-1.13.54-1.21,1.32Z"/><path class="cls-7" d="M113,67.7c0-.63,0-.93,0-1.1h.53c0,.13,0,.41,0,.87a1.46,1.46,0,0,1,1.38-1v.55a1.38,1.38,0,0,0-1.38,1.55v2H113Z"/><path class="cls-7" d="M118.55,65h2.06a1.57,1.57,0,0,1,1.78,1.59,1.62,1.62,0,0,1-1.83,1.64h-1.43v2.38h-.58Zm.58,2.72h1.44c.84,0,1.22-.43,1.22-1.11a1.06,1.06,0,0,0-1.19-1.11h-1.47Z"/><path class="cls-7" d="M123.56,67.7c0-.63,0-.93,0-1.1h.53c0,.13,0,.41,0,.87a1.46,1.46,0,0,1,1.38-1v.55a1.38,1.38,0,0,0-1.38,1.55v2h-.54Z"/><path class="cls-7" d="M129.9,68.62A1.92,1.92,0,0,1,128,70.75a2.14,2.14,0,1,1,1.87-2.13Zm-3.12,0c0,.92.48,1.64,1.28,1.64s1.27-.67,1.27-1.64S128.88,67,128.05,67,126.78,67.68,126.78,68.63Z"/><path class="cls-7" d="M134.43,70.33c0,1.3-.55,2-1.79,2A1.43,1.43,0,0,1,131,71.11h.55a1,1,0,0,0,1.1.76c1,0,1.25-.63,1.25-1.62v-.37a1.26,1.26,0,0,1-1.31.76,1.78,1.78,0,0,1-1.68-2c0-1.34.78-2.12,1.74-2.12.8,0,1.15.37,1.25.67,0-.21,0-.49,0-.58h.51c0,.19,0,.79,0,1.17Zm-2.94-1.72c0,.91.48,1.55,1.2,1.55.95,0,1.23-.63,1.23-1.61s-.28-1.57-1.2-1.57S131.49,67.7,131.49,68.61Z"/><path class="cls-7" d="M136,67.7c0-.63,0-.93,0-1.1h.53c0,.13,0,.41,0,.87a1.46,1.46,0,0,1,1.38-1v.55a1.38,1.38,0,0,0-1.38,1.55v2H136Z"/><path class="cls-7" d="M141.8,69.83a6.21,6.21,0,0,0,0,.82h-.51a2.36,2.36,0,0,1-.07-.58,1.31,1.31,0,0,1-1.29.68,1.22,1.22,0,0,1-1.36-1.23c0-.9.7-1.3,1.91-1.3h.73v-.39c0-.38-.11-.87-1-.87s-.87.38-1,.71h-.53c.05-.5.35-1.17,1.49-1.16,1,0,1.49.39,1.49,1.3Zm-.53-1.2h-.73c-.86,0-1.36.23-1.36.86a.79.79,0,0,0,.87.8c1.07,0,1.22-.71,1.22-1.52Z"/><path class="cls-7" d="M143.39,67.65c0-.35,0-.73,0-1.05h.53c0,.13,0,.46,0,.68a1.25,1.25,0,0,1,1.2-.77,1.14,1.14,0,0,1,1.15.76,1.36,1.36,0,0,1,1.3-.76c.64,0,1.27.37,1.27,1.48v2.66h-.53v-2.6c0-.51-.18-1-.88-1s-1.05.57-1.05,1.32v2.33h-.53V68.07c0-.56-.16-1.07-.86-1.07s-1.07.62-1.07,1.42v2.23h-.54Z"/><path class="cls-7" d="M68.2,22.67a10.34,10.34,0,0,1-.38,1.76,3.71,3.71,0,0,0-.4-.15,7.69,7.69,0,0,0,.37-1.69Zm1.42-.36-.08-.4a10.79,10.79,0,0,0-1.91.35,4.72,4.72,0,0,0-.15-.45c.14,0,.31-.21.52-.47s.36-.46.63-.87a3.9,3.9,0,0,0-1,.18c0-.1-.1-.32-.14-.44.12,0,.25-.18.39-.4a9.44,9.44,0,0,0,1-1.84l.43.19a10.49,10.49,0,0,1-1.13,1.95l.79-.06a10.18,10.18,0,0,0,.54-1l.42.24a14.16,14.16,0,0,1-1.63,2.37l1.2-.16c-.08-.26-.17-.52-.25-.74l.37-.1A9.41,9.41,0,0,1,70,22.19Zm-.73.27a12.87,12.87,0,0,1,.2,1.53l-.39.07c0-.42-.1-1.05-.18-1.54Zm.66-.18a8.08,8.08,0,0,1,.38,1.23l-.36.12a9.37,9.37,0,0,0-.37-1.24ZM74,24v.44H69.88V24h1.87V22.52H70.28v-.44h3.43v.44H72.23V24Zm-3.07-2.15a7.93,7.93,0,0,0-.87-1.43,12.31,12.31,0,0,0,.76-1.33l.43.12c-.19.36-.48.83-.72,1.2a8.7,8.7,0,0,1,.81,1.27Zm3-3h-3.8v-.44h3.8Zm-1.42.38c-.2.36-.49.83-.74,1.2a9.11,9.11,0,0,1,.84,1.25l-.4.18a8,8,0,0,0-.92-1.43,10.44,10.44,0,0,0,.78-1.32Zm1,2.64a7.81,7.81,0,0,0-1-1.43,14.76,14.76,0,0,0,.82-1.33l.43.12c-.21.36-.51.83-.76,1.2a8.12,8.12,0,0,1,.88,1.25Z"/><path class="cls-7" d="M77.58,23.06c-.77.26-1.59.55-2.22.75l-.12-.49c.28-.07.62-.18,1-.3V21h-.84v-.45h.84V18.94h-.91v-.45h2.22v.45h-.85v1.63h.74V21h-.74v1.86l.81-.27Zm4.34.83v.44H77.25v-.44h2.23v-1H77.81v-.44h1.67v-.89H77.9v-3.2h3.67v3.2H80v.89h1.71v.44H80v1Zm-3.57-4.18h1.16v-1H78.35Zm0,1.39h1.16v-1H78.35Zm2.76-2.35H79.93v1h1.18Zm0,1.36H79.93v1h1.18Z"/><path class="cls-7" d="M86.66,18c0,.25,0,.61,0,1,.11.84.55,3.92,3.11,5.06a1.5,1.5,0,0,0-.35.41,5.93,5.93,0,0,1-3-4.1,5.81,5.81,0,0,1-2.9,4.12,1.85,1.85,0,0,0-.37-.37c3-1.5,3-5.08,3-6.16Z"/><path class="cls-7" d="M94.75,21.33H91.92v2.19H95L95,24H91.36V18.41h3.53v.51h-3v1.9h2.83Z"/><path class="cls-7" d="M101.25,21.53c0-1.07,0-2.13,0-2.7h0c-.23.82-1.26,3.43-2,5.2h-.53c-.51-1.4-1.59-4.31-1.84-5.21h0c0,.64.06,1.92.06,2.88V24h-.56V18.41h.86c.71,1.84,1.6,4.24,1.8,4.91h0c.13-.47,1.16-3.12,1.89-4.91h.84V24h-.56Z"/><path class="cls-7" d="M103.73,18.41h2c1.13,0,1.69.6,1.69,1.39a1.23,1.23,0,0,1-.84,1.23,1.41,1.41,0,0,1,1,1.37A1.64,1.64,0,0,1,105.81,24h-2.08Zm1.9,2.38c.9,0,1.24-.34,1.24-.95s-.37-.93-1.1-.93h-1.48v1.88Zm-1.34,2.74h1.49c.72,0,1.29-.35,1.29-1.12s-.43-1.12-1.48-1.12h-1.3Z"/><path class="cls-7" d="M109.86,22.2,109.19,24h-.57l2-5.62h.7L113.47,24h-.62l-.68-1.83Zm2.14-.51c-.58-1.58-.89-2.37-1-2.77h0c-.13.45-.48,1.42-1,2.77Z"/><path class="cls-7" d="M116.53,23.4c-.76.2-1.56.39-2.17.56l-.09-.46.94-.22v-2h-.77v-.44h.77V19h-.87v-.44h2.24V19h-.92v1.87h.76v.44h-.76v1.9l.82-.21ZM118,21.05c0,1.45-.19,2.67-1.56,3.53a2.36,2.36,0,0,0-.3-.34,3.18,3.18,0,0,0,1.42-3.11l-.28.13a9.2,9.2,0,0,0-.74-1.47l.36-.13a9.87,9.87,0,0,1,.66,1.17V18H118Zm2.9,2.82v.44h-3v-.44h1.36v-2.3h-.86v-.44h.86v-2.2h-1v-.44h2.54v.44h-1.07v2.2h.94v.44h-.94v2.3Z"/><path class="cls-7" d="M68.44,83.75A6.71,6.71,0,0,1,67.6,86a3,3,0,0,0-.24-.47,5.71,5.71,0,0,0,.75-1.92ZM69,83.2v3.73h-.43V83.2H67.48v-.45h1.08v-2.4H69v2.41h.92v.44Zm-1.07-.77a12.31,12.31,0,0,0-.39-1.53l.35-.08a11.32,11.32,0,0,1,.42,1.51Zm1.47,1.23c.13.19.62,1.12.72,1.34l-.33.36a15.21,15.21,0,0,0-.66-1.51Zm.69-2.7c-.19.5-.43,1.14-.62,1.52l-.31-.12a10.28,10.28,0,0,0,.5-1.54Zm3.54,5.44c0,.25-.05.37-.23.44a3,3,0,0,1-.92.07,1.87,1.87,0,0,0-.13-.4h.71c.1,0,.12,0,.12-.11v-.68h-2.3A2.78,2.78,0,0,1,70.35,87,1.43,1.43,0,0,0,70,86.7a3,3,0,0,0,.48-1.87V83.5h3.13Zm.43-3.73V83H70v-.37h1.74v-.53H70.3v-.36h1.48v-.47H70.12v-.37h1.66v-.6h.47v.6H74v.37H72.25v.47h1.6v.36h-1.6v.53Zm-.88,2.71v-.57H70.93v0a5.15,5.15,0,0,1,0,.54Zm-2.24-1.5v.57h2.24v-.57Z"/><path class="cls-7" d="M76.42,81.23a5.59,5.59,0,0,1-.84,1,3.47,3.47,0,0,0-.3-.4,4.51,4.51,0,0,0,1.13-1.55l.44.13c-.06.14-.13.27-.21.42h2v.37Zm5.42,0H80.57a2.72,2.72,0,0,1,.45.55l-.39.19a2.71,2.71,0,0,0-.43-.58l.34-.16H79.47a3.48,3.48,0,0,1-.62.74H81v2.66h-.9v.66h1.67v.41H80.11v1.21h-.48V85.7h-2c-.17.45-.61.91-1.65,1.26a1.93,1.93,0,0,0-.3-.35,2.25,2.25,0,0,0,1.42-.91H75.38v-.41h1.86a1.34,1.34,0,0,0,0-.19v-.47h-1V82h2.58a2.44,2.44,0,0,0-.41-.24,3.48,3.48,0,0,0,1-1.42l.45.1a3.3,3.3,0,0,1-.19.43h2.14ZM80.52,82.3H76.74v.44h3.78Zm0,.76H76.74v.45h3.78Zm0,.77H76.74v.46h3.78ZM77.36,82a2.24,2.24,0,0,0-.32-.55l.41-.14a2.77,2.77,0,0,1,.32.53Zm2.27,2.67H77.74v.47a1.21,1.21,0,0,1,0,.19h1.9Z"/><path class="cls-7" d="M86.66,80.36c0,.25,0,.62,0,1,.11.84.55,3.92,3.11,5.06a1.5,1.5,0,0,0-.35.41,5.93,5.93,0,0,1-3-4.1,5.81,5.81,0,0,1-2.9,4.12,1.85,1.85,0,0,0-.37-.37c3-1.5,3-5.08,3-6.16Z"/><path class="cls-7" d="M92.21,85.4a4.85,4.85,0,0,1-.95,1.53,2.06,2.06,0,0,0-.4-.29,3.58,3.58,0,0,0,.89-1.35Zm1.53-.3h-2.5V80.61h2.5ZM93.27,81H91.7v1h1.57Zm0,1.34H91.7v1h1.57Zm0,1.36H91.7v1h1.57Zm-.1,1.56A6.93,6.93,0,0,1,94,86.44l-.42.21a6.73,6.73,0,0,0-.75-1.18Zm4.34-2.78h-1v3.8c0,.3-.08.45-.28.53a3.26,3.26,0,0,1-1.08.1,2.18,2.18,0,0,0-.16-.47c.41,0,.77,0,.89,0s.16,0,.16-.16V83.09a7.4,7.4,0,0,1-1.93,2.69,2.31,2.31,0,0,0-.33-.36,7,7,0,0,0,2.08-2.92H94v-.45h2.11V80.36h.47v1.69h1Z"/><path class="cls-7" d="M100.07,85l.87-.33.09.45L98.86,86l-.15-.49.93-.33V82.55h-.88V82.1h.88V80.42h.43V82.1h.84v.45h-.84Zm5.25-1.77v.43h-4.44v-.43h2.7a12.67,12.67,0,0,0,.54-1.53l.44.12c-.16.46-.36,1-.54,1.41Zm-.22-1.59h-3.95v-.44h1.79c0-.24-.13-.54-.21-.79l.43-.07a7.25,7.25,0,0,1,.25.86h1.69Zm-3.59,2.69h3.22V86.9h-.46v-.31H102v.33h-.45Zm.55-1.21a5.29,5.29,0,0,0-.4-1.27l.38-.12a4.65,4.65,0,0,1,.43,1.25Zm-.1,1.64v1.44h2.31V84.72Z"/><path class="cls-7" d="M109.14,82h-2.59v-.4h2.59Zm-.24.92h-2.06v-.38h2.06Zm-2.06.55h2.06v.39h-2.06Zm.41,3v.35h-.41V84.4H109v2.08Zm0-1.67v1.26h1.28V84.81Zm.64-3.35a4.43,4.43,0,0,0-.53-1l.36-.18a7,7,0,0,1,.57.91Zm2-.93h.46V83a6.17,6.17,0,0,1-1,3.92,2.85,2.85,0,0,0-.41-.26,5.61,5.61,0,0,0,.91-3.66Zm1.28.29h.44V86.2h-.44Zm1.78-.35v6.46h-.47V80.47Z"/><path class="cls-7" d="M69.91,100.24c-.13-.24-.46-.76-.72-1.14v3.43h-.46v-3.3a7.85,7.85,0,0,1-1.1,2,2,2,0,0,0-.25-.42,7.73,7.73,0,0,0,1.27-2.34H67.48V98h1.25V96.84c-.35.07-.7.14-1,.18a1.82,1.82,0,0,0-.13-.37,10.73,10.73,0,0,0,2.29-.58l.3.37a6.38,6.38,0,0,1-1,.31V98h1.09v.45H69.19v.14c.22.24.86,1.08,1,1.29Zm3.23.4v1.89h-.47v-1.82l-2.4.39-.08-.45,2.48-.39V96h.47v4.22L74,100l.07.44Zm-1.33-1a6.61,6.61,0,0,0-1.3-1.06l.3-.27a6.26,6.26,0,0,1,1.32,1ZM72,97.77a5.2,5.2,0,0,0-1.17-1l.31-.29a5.46,5.46,0,0,1,1.18,1Z"/><path class="cls-7" d="M76.76,99.85V102c0,.28-.08.42-.25.49a2.72,2.72,0,0,1-1,.09,2.86,2.86,0,0,0-.15-.44c.34,0,.66,0,.75,0s.13,0,.13-.14v-2l-.88.26-.15-.47,1-.27V97.88h-.94v-.44h.94V96h.48v1.47h.82v.44h-.82v1.5l.83-.24,0,.44Zm4.7-1A5.26,5.26,0,0,1,80,101.18a4.88,4.88,0,0,0,1.9,1,2.17,2.17,0,0,0-.31.42,5.25,5.25,0,0,1-1.95-1.06,7.06,7.06,0,0,1-2.08,1.06,1.65,1.65,0,0,0-.28-.44,6,6,0,0,0,2-1,5.94,5.94,0,0,1-1.21-2h-.22v-.44H79.4V97.57H77.67v-.45H79.4V96h.47v1.16h1.76v.45H79.87v1.12h1.2l.09,0Zm-2.93.33a4.92,4.92,0,0,0,1.1,1.73,4.6,4.6,0,0,0,1.23-1.73Z"/><path class="cls-7" d="M88.24,98.42l-1.41,2.14c-.68,1-1.16,1.53-2.12,1.53a1.46,1.46,0,0,1-1.52-1.45c0-.71.36-1.22,1.51-1.84.78-.47,1.13-.71,1.13-1.22a.79.79,0,1,0-1.57,0c0,.35.25.68.71,1.11L88.31,102h-.76l-3-3a1.94,1.94,0,0,1-.8-1.41,1.27,1.27,0,0,1,1.34-1.31,1.24,1.24,0,0,1,1.28,1.26c0,.58-.34,1-1.33,1.54s-1.26,1-1.26,1.47a1,1,0,0,0,1,1c.64,0,1-.24,1.76-1.36l1.16-1.81Z"/><path class="cls-7" d="M91.4,97.93H89.35v-.39H91.4Zm.55,3.74a10,10,0,0,1-2.2.87c-.08-.09-.26-.27-.36-.36a9.51,9.51,0,0,0,2.13-.7Zm-.73-4.88H89.51v-.38h1.71ZM95,101.41H90.3v-2.9H95Zm-.48-2.56H90.77v.52h3.71Zm0,.84H90.77v.52h3.71Zm0,.85H90.77v.54h3.71Zm-.68-3.61c0,.08,0,.17,0,.27A3.19,3.19,0,0,0,95.9,98a1.75,1.75,0,0,0-.28.39,3.49,3.49,0,0,1-2-.87c-.23.37-.79.71-2.08.91a1.58,1.58,0,0,0-.26-.36c1.89-.27,2.06-.79,2.06-1.18v-.07h-.8a4,4,0,0,1-.55.75,2.31,2.31,0,0,0-.36-.25A3.47,3.47,0,0,0,92.47,96l.43.1c-.05.14-.1.28-.16.42h2.5l.08,0,.32.11a6.52,6.52,0,0,1-.61,1l-.37-.14a5.92,5.92,0,0,0,.36-.6H93.8Zm-.18,4.55a19.64,19.64,0,0,1,2.14.76l-.42.29a15.92,15.92,0,0,0-2-.79Z"/><path class="cls-7" d="M98.15,99.39a6.8,6.8,0,0,1-.82,2.33,3.11,3.11,0,0,0-.25-.52,6,6,0,0,0,.72-1.92Zm.64-.56v3.72h-.45V98.83H97.17v-.45h1.17V96h.45v2.41H100v.45Zm-1.15-.72a7,7,0,0,0-.41-1.59l.36-.08A6.39,6.39,0,0,1,98,98Zm1.49,1.18c.14.21.65,1.2.76,1.46l-.35.35a17.55,17.55,0,0,0-.68-1.62Zm.83-2.77a15.4,15.4,0,0,1-.59,1.61L99.05,98a12.63,12.63,0,0,0,.5-1.61Zm2.83,4v2h-.45v-2l-2.29.41-.08-.45,2.37-.42V96h.45v4.08l.88-.16.06.45Zm-1.43-1a5.38,5.38,0,0,0-1.2-.86l.23-.34a6,6,0,0,1,1.21.81Zm.32-1.75a5.5,5.5,0,0,0-1.13-.93l.23-.33a6,6,0,0,1,1.15.89Z"/><path class="cls-7" d="M107.29,96.32a6.11,6.11,0,0,1-2,2.92,3.4,3.4,0,0,0-.4-.34,5.2,5.2,0,0,0,1.88-2.69Zm3.16,2.37v.24c-.11,2.24-.22,3.07-.47,3.34a.69.69,0,0,1-.55.24,9.22,9.22,0,0,1-1.14,0,1.14,1.14,0,0,0-.16-.48,11.1,11.1,0,0,0,1.12,0c.15,0,.23,0,.3-.09s.3-.92.39-2.81h-2a3.64,3.64,0,0,1-2.48,3.42,2.94,2.94,0,0,0-.31-.41,3.18,3.18,0,0,0,2.29-3H106v-.47Zm-.91-2.59a4.9,4.9,0,0,0,2.06,2.71,2.52,2.52,0,0,0-.35.43,5.68,5.68,0,0,1-2.06-2.69h-1.3V96.1Z"/><path class="cls-7" d="M115.15,100.09c-.12-.25-.44-.73-.69-1.11v3.56H114V99a7.77,7.77,0,0,1-1,2.18,2.34,2.34,0,0,0-.26-.43A8.21,8.21,0,0,0,113.94,98h-1v-.46H114V96h.46v1.56h1.06V98h-1.06v.38c.25.3.86,1.14,1,1.35Zm4.16-1.2h-1.07v3.67h-.48V98.89h-1.38V99a6.72,6.72,0,0,1-.78,3.55,1.67,1.67,0,0,0-.4-.25,6,6,0,0,0,.72-3.3V96.76a13.39,13.39,0,0,0,2.56-.71l.41.37a13.41,13.41,0,0,1-2.51.68v1.33h2.93Z"/><path class="cls-7" d="M124.14,96c0,.25,0,.61,0,1,.11.84.55,3.92,3.1,5.06a1.69,1.69,0,0,0-.35.41,5.89,5.89,0,0,1-3-4.1,5.81,5.81,0,0,1-2.9,4.12,1.68,1.68,0,0,0-.38-.37c3-1.5,3-5.08,3-6.16Z"/><path class="cls-7" d="M129.69,101a4.7,4.7,0,0,1-1,1.53,2,2,0,0,0-.39-.29,3.52,3.52,0,0,0,.88-1.36Zm1.52-.3h-2.49V96.24h2.49Zm-.46-4.08h-1.58v1h1.58Zm0,1.34h-1.58v1h1.58Zm0,1.36h-1.58v1h1.58Zm-.11,1.56a6.69,6.69,0,0,1,.78,1.15l-.41.22a6.83,6.83,0,0,0-.76-1.18ZM135,98.13h-1v3.8c0,.3-.07.45-.27.53a3.26,3.26,0,0,1-1.08.1,1.78,1.78,0,0,0-.17-.47h.89c.12,0,.17,0,.17-.16V98.72a7.41,7.41,0,0,1-1.94,2.69,2.27,2.27,0,0,0-.32-.36,6.85,6.85,0,0,0,2.07-2.92h-1.93v-.45h2.12V96H134v1.69h1Z"/><path class="cls-7" d="M137.55,100.59l.86-.33.09.44c-.76.32-1.56.63-2.17.88l-.15-.49.93-.33V98.18h-.88v-.45h.88V96.05h.44v1.68h.84v.45h-.84Zm5.24-1.77v.43h-4.44v-.43h2.7a12.67,12.67,0,0,0,.54-1.53l.45.12c-.16.46-.36,1-.54,1.41Zm-.22-1.59h-3.95v-.44h1.79a6.1,6.1,0,0,0-.2-.79l.43-.07a5.65,5.65,0,0,1,.24.86h1.69ZM139,99.92h3.21v2.61h-.46v-.31h-2.31v.33H139Zm.55-1.21a5.83,5.83,0,0,0-.41-1.27l.38-.12a4.33,4.33,0,0,1,.43,1.25Zm-.11,1.64v1.44h2.31v-1.44Z"/><path class="cls-7" d="M146.62,97.59H144V97.2h2.59Zm-.25.93h-2.05v-.38h2.05Zm-2.05.55h2.05v.39h-2.05Zm.41,3v.34h-.41V100h2.11v2.08Zm0-1.67v1.26H146v-1.26Zm.63-3.35a4.82,4.82,0,0,0-.52-1l.36-.18a5.48,5.48,0,0,1,.56.91Zm2-.94h.45v2.52a6.19,6.19,0,0,1-1,3.92,2.39,2.39,0,0,0-.41-.26,5.61,5.61,0,0,0,.92-3.66Zm1.27.29H149v5.39h-.44Zm1.79-.34v6.46h-.47V96.1Z"/><path class="cls-7" d="M68.48,114.69v2.56H67.9v-5.62H70c1.13,0,1.73.61,1.73,1.49a1.27,1.27,0,0,1-1,1.32c.53.13.92.49.92,1.45v.23a3.88,3.88,0,0,0,.07,1.13h-.57a4,4,0,0,1-.08-1.19v-.13c0-.87-.26-1.24-1.3-1.24Zm0-.5h1.29c.93,0,1.35-.35,1.35-1s-.42-1-1.25-1H68.48Z"/><path class="cls-7" d="M73.36,111.63h2.06a1.58,1.58,0,0,1,1.78,1.6,1.61,1.61,0,0,1-1.83,1.64H73.94v2.38h-.58Zm.58,2.73h1.44c.84,0,1.22-.43,1.22-1.11a1.06,1.06,0,0,0-1.19-1.11H73.94Z"/><path class="cls-7" d="M78.74,115.42l-.67,1.83H77.5l2-5.62h.7l2.12,5.62h-.62l-.68-1.83Zm2.14-.5c-.58-1.59-.89-2.38-1-2.78h0c-.13.45-.48,1.42-1,2.78Z"/><path class="cls-7" d="M89.7,116.75v.48H83.26v-.48h2.93v-4.22H83.63V112h5.72v.5H86.72v4.22Z"/><path class="cls-7" d="M93.25,111.38a13.79,13.79,0,0,1-.75,1.55v4.85H92v-4.11a7.32,7.32,0,0,1-.77.93,2.91,2.91,0,0,0-.28-.47,8.19,8.19,0,0,0,1.81-2.9Zm2.07,1.5V114h2.11v.45H95.32v1.15h2.21V116H95.32v1.78h-.48v-4.91H94.3a7.87,7.87,0,0,1-1,1.53,3.22,3.22,0,0,0-.38-.33,7.48,7.48,0,0,0,1.6-2.78l.46.12c-.12.34-.26.67-.41,1h3.06v.46Z"/><path class="cls-7" d="M101.37,115.77l-2.46,1-.13-.5,1.06-.37v-2.37H98.9V113h.94V111.3h.47V113h.89v.46h-.89v2.2l1-.35Zm1.5-1.83v.18H105s0,.17,0,.24c-.09,2.13-.18,2.89-.4,3.15a.58.58,0,0,1-.5.22,6.94,6.94,0,0,1-1,0,1.08,1.08,0,0,0-.15-.47c.43,0,.82,0,1,0s.21,0,.28-.08.25-.84.33-2.64h-1.66A4.07,4.07,0,0,1,101,117.8a2.41,2.41,0,0,0-.37-.33,3.89,3.89,0,0,0,1.73-3.53v-1h-1.22v-.46h4.23v.46h-2.53Zm.39-1.56c-.07-.27-.22-.74-.35-1.1l.45-.09c.13.34.29.79.36,1.06Z"/><path class="cls-7" d="M74.66,126.71v.46h-7v-.46H71a6.62,6.62,0,0,0-.3-.78l.49-.14c.13.29.28.65.37.92Zm-.45,5.81c0,.31-.08.44-.3.51a5.84,5.84,0,0,1-1.32.07,1.78,1.78,0,0,0-.17-.41c.51,0,1,0,1.11,0s.18,0,.18-.17v-3.7H72v.57c0,.2,0,.25.16.25H73a3,3,0,0,0,.43,0c0,.13,0,.27,0,.39a1.5,1.5,0,0,1-.46,0h-.89c-.46,0-.55-.2-.55-.66v-.56h-1c-.13.86-.52,1.3-1.63,1.55a1,1,0,0,0-.26-.37c1-.18,1.29-.52,1.4-1.18H68.65v4.32h-.52v-4.77h3.71a7,7,0,0,0,.63-1.12l.54.13c-.21.34-.44.7-.65,1h1.85Zm-4.38-5.31a8.88,8.88,0,0,1,.51.9l-.45.2c-.11-.24-.33-.64-.51-.94Zm.32,4.91v.38h-.47v-2.18h2.91v1.8Zm0-1.39v1h2v-1Z"/><path class="cls-7" d="M78.82,131.85a7.38,7.38,0,0,1-2.49,1,1.8,1.8,0,0,0-.33-.4,7.48,7.48,0,0,0,2.42-.82ZM83,130.78v.45H79.78v1.93h-.53v-1.93h-3.2v-.45h3.2v-.65H76.8v-.42h2.45v-.62H76.39v-.44h1.79a3.36,3.36,0,0,0-.43-.81l.43-.11H76.07v-.45h1.34a6.7,6.7,0,0,0-.67-1.2l.45-.16a5.52,5.52,0,0,1,.71,1.2l-.42.16h1v-1.45H79v1.45h1v-1.45h.51v1.45h1l-.31-.11a7.27,7.27,0,0,0,.64-1.24l.54.16c-.22.42-.5.87-.71,1.19H83v.45H80.9l.49.14a7.53,7.53,0,0,1-.57.78H82.7v.44H79.78v.62h2.53v.42H79.78v.65Zm-4.77-3a3.82,3.82,0,0,1,.45.83l-.32.09h2.24l-.29-.09a4.82,4.82,0,0,0,.5-.83Zm2.38,3.89c.78.25,1.82.64,2.38.89l-.32.36c-.54-.26-1.59-.67-2.38-1Z"/><path class="cls-7" d="M86.65,126.34c-.24.65-.53,1.44-.78,2.08a2.63,2.63,0,0,1,.7,1.75,1.13,1.13,0,0,1-.29.92.77.77,0,0,1-.4.14,1.81,1.81,0,0,1-.52,0,1.21,1.21,0,0,0-.14-.47h.47a.4.4,0,0,0,.24-.08.71.71,0,0,0,.17-.57,2.44,2.44,0,0,0-.71-1.65c.24-.6.48-1.3.64-1.84H85v6.49h-.47v-7h1.71l.08,0Zm1.42,4.57a4,4,0,0,1-.23.61,5.37,5.37,0,0,1,.92.73l-.28.36a5.48,5.48,0,0,0-.85-.72,4,4,0,0,1-1.22,1.28,3.11,3.11,0,0,0-.37-.34,3.51,3.51,0,0,0,1.55-2Zm1.21-5-.17.27a8.11,8.11,0,0,0,2.46,1.43,1.79,1.79,0,0,0-.25.47,9.63,9.63,0,0,1-2.48-1.56,7.29,7.29,0,0,1-2,1.64,1.7,1.7,0,0,0-.36-.35,6,6,0,0,0,2.29-2.07Zm-2.38,2.75h1.77v1.92H86.9Zm.42,1.52h.92v-1.12h-.92Zm2.8-2.14H87.71v-.43h2.41Zm.2,2.8a3.91,3.91,0,0,1-.21.71,8.88,8.88,0,0,1,1.41,1.09l-.32.37a9.61,9.61,0,0,0-1.28-1,3.41,3.41,0,0,1-1,1.16,2.4,2.4,0,0,0-.36-.35,3,3,0,0,0,1.27-2Zm.69-.26H89.2v-1.92H91Zm-.45-1.52h-1v1.12h1Z"/><path class="cls-7" d="M98.34,125.85c-.07.17-.15.34-.23.52a6.62,6.62,0,0,0,1.91,2,2.06,2.06,0,0,0-.35.37,7.85,7.85,0,0,1-1.78-2,6.13,6.13,0,0,1-1.75,2,2,2,0,0,0-.31-.36v2.12H94.67v.67h1.48v.49H94.67v1.46h-.53v-1.46H92.6v-.49h1.54v-.67H93V127.9h1.17v-.66H92.69v-.48h1.45v-.92h.53v.92h1.41v.48H94.67v.66h1.16v.44a5.93,5.93,0,0,0,2.06-2.64Zm-3,2.48H93.45V129h1.88Zm0,1.09H93.45v.68h1.88Zm2.87,1.14h1.5v.5H98.2v2.1h-.53v-2.1H96.15v-.5h1.52v-1.37H96.48v-.5h2.87v.5H98.2Z"/><path class="cls-7" d="M104.67,127.46c-.19.49-.42,1-.62,1.48h1.17v.49H101v-.49h2.49a11.1,11.1,0,0,0,.6-1.6Zm.36-.18h-3.74v-.49H103a7.12,7.12,0,0,0-.36-.86l.48-.13a7.43,7.43,0,0,1,.43,1H105Zm-3.51,2.92h3.31V133h-.52v-.32H102v.38h-.51Zm.78-1.31a6,6,0,0,0-.52-1.41l.46-.11a5.34,5.34,0,0,1,.55,1.39Zm-.27,1.79v1.54h2.28v-1.54Zm6.14-4.2c-.29.73-.67,1.65-1,2.4a2.69,2.69,0,0,1,.91,1.94,1.21,1.21,0,0,1-.35,1,1.09,1.09,0,0,1-.49.16,5.24,5.24,0,0,1-.69,0,1.44,1.44,0,0,0-.16-.51,3.84,3.84,0,0,0,.66,0,.66.66,0,0,0,.32-.09.71.71,0,0,0,.21-.64,2.65,2.65,0,0,0-.94-1.85c.32-.69.64-1.55.86-2.18h-1.36v6.4h-.48v-6.89h2.07l.08,0Z"/><path class="cls-7" d="M110.81,131l1-.37.1.5-2.41,1-.17-.55c.29-.09.64-.21,1-.37v-2.86h-1v-.51h1v-1.86h.48v1.86h.93v.51h-.93Zm5.83-2v.48H111.7V129h3a13.16,13.16,0,0,0,.59-1.7l.5.14c-.18.51-.4,1.1-.6,1.56Zm-.24-1.77H112v-.48h2a7.7,7.7,0,0,0-.22-.89l.47-.07a7.18,7.18,0,0,1,.28,1h1.88Zm-4,3H116v2.9h-.52v-.33h-2.56v.36h-.5Zm.61-1.34a6.42,6.42,0,0,0-.45-1.42l.43-.13a5.49,5.49,0,0,1,.47,1.4Zm-.11,1.82v1.6h2.56v-1.6Z"/><path class="cls-7" d="M120.56,127.64h-2.87v-.44h2.87Zm-.27,1H118v-.43h2.28Zm-2.28.61h2.28v.43H118Zm.46,3.38V133H118v-2.69h2.35v2.31Zm0-1.86v1.41h1.41V130.8Zm.7-3.72a5.36,5.36,0,0,0-.58-1.06l.4-.21a7.47,7.47,0,0,1,.63,1Zm2.17-1h.51v2.8a6.86,6.86,0,0,1-1.07,4.36,2.12,2.12,0,0,0-.46-.29,6.23,6.23,0,0,0,1-4.07Zm1.42.32h.49v6h-.49Zm2-.38v7.18h-.53V126Z"/><path class="cls-7" d="M128.53,131.85l-2.41.62L126,132l1-.24v-2.24h-.85V129h.85v-2.07h-1v-.49h2.48v.49h-1V129h.85v.49h-.85v2.12l.91-.24Zm1.59-2.62c0,1.62-.21,3-1.73,3.93a2.33,2.33,0,0,0-.34-.37c1.38-.86,1.57-2,1.58-3.47l-.31.14a10.41,10.41,0,0,0-.83-1.62l.41-.15a12.15,12.15,0,0,1,.73,1.3v-3.16h.49Zm3.23,3.14v.5H130v-.5h1.51v-2.55h-1v-.49h1v-2.45h-1.11v-.49h2.81v.49H132v2.45H133v.49H132v2.55Z"/><path class="cls-7" d="M70,141.06h.53v3.73a3.73,3.73,0,0,1-2.23,3.64,1.79,1.79,0,0,0-.38-.4,3.23,3.23,0,0,0,1.84-1.84l-2,.39-.11-.52c.59-.09,1.42-.24,2.29-.39a4.38,4.38,0,0,0,.1-.88v-.25H67.92V144H70v-1.28H67.8v-.5H70Zm4.8,5.32H72.33v2H71.8v-7.28h.53v1.2h2.33v.51H72.33v1.28H74.5v.49H72.33v1.33H74.8Z"/><path class="cls-7" d="M83.11,147.15H79.77v1.21h-.53v-1.21H76v-.49h3.28V146H76.8v-3.1h2.44v-.62h-3v-.49h3V141h.53v.74h3.06v.49H79.77v.62h2.5V146h-2.5v.69h3.34Zm-5.79-3h1.92v-.88H77.32Zm1.92,1.32v-.88H77.32v.88Zm.53-2.2v.88h2v-.88Zm2,1.32h-2v.88h2Z"/><path class="cls-7" d="M86.65,141.52c-.24.65-.53,1.44-.78,2.09a2.61,2.61,0,0,1,.7,1.75,1.15,1.15,0,0,1-.29.92.87.87,0,0,1-.4.14,3,3,0,0,1-.52,0,1.3,1.3,0,0,0-.14-.48,2.55,2.55,0,0,0,.47,0,.4.4,0,0,0,.24-.07.72.72,0,0,0,.17-.57,2.46,2.46,0,0,0-.71-1.66c.24-.59.48-1.29.64-1.83H85v6.49h-.47v-7h1.71l.08,0Zm1.42,4.58a3.56,3.56,0,0,1-.23.6,5.9,5.9,0,0,1,.92.73l-.28.37a5.48,5.48,0,0,0-.85-.72,4.15,4.15,0,0,1-1.22,1.28A3.15,3.15,0,0,0,86,148a3.45,3.45,0,0,0,1.55-2Zm1.21-5c0,.08-.11.18-.17.26a7.93,7.93,0,0,0,2.46,1.44,1.53,1.53,0,0,0-.25.47,9.63,9.63,0,0,1-2.48-1.56,7.08,7.08,0,0,1-2,1.63,1.94,1.94,0,0,0-.36-.34A6.11,6.11,0,0,0,88.77,141Zm-2.38,2.75h1.77v1.91H86.9Zm.42,1.51h.92v-1.11h-.92Zm2.8-2.13H87.71v-.43h2.41Zm.2,2.8a3.91,3.91,0,0,1-.21.71,9.52,9.52,0,0,1,1.41,1.08l-.32.37a8.9,8.9,0,0,0-1.28-1,3.29,3.29,0,0,1-1,1.15,3,3,0,0,0-.36-.34,3.1,3.1,0,0,0,1.27-2Zm.69-.27H89.2v-1.91H91Zm-.45-1.51h-1v1.11h1Z"/><path class="cls-7" d="M95.15,146.66l-2.47.83-.13-.54c.31-.08.68-.2,1.09-.34v-2.22h-.93v-.5h.93v-1.81h-1v-.51H95.1v.51h-.94v1.81H95v.5h-.83v2.06l.9-.3Zm4.82.92v.49H94.78v-.49h2.48v-1.16H95.41v-.49h1.85v-1H95.51v-3.55h4.08v3.55H97.8v1h1.91v.49H97.8v1.16Zm-4-4.65h1.3v-1.07H96Zm0,1.54h1.3v-1.09H96Zm3.07-2.61H97.76v1.07h1.31Zm0,1.52H97.76v1.09h1.31Z"/><path class="cls-7" d="M102.21,146.68a10.13,10.13,0,0,1-.84,1.5,3.3,3.3,0,0,0-.39-.26,8,8,0,0,0,.79-1.38Zm1.37-.42h-2.29V141.4h2.29Zm-.48-4.41h-1.36v1h1.36Zm0,1.46h-1.36v1h1.36Zm0,1.45h-1.36v1.05h1.36Zm-.08,1.77a8.06,8.06,0,0,1,.75,1.18l-.39.24a9.72,9.72,0,0,0-.73-1.21Zm5.26-2.38v.49h-4.4v-.49h2.61a12.14,12.14,0,0,0,.62-1.61l.54.14c-.2.48-.44,1-.65,1.47Zm-.22-1.69h-4V142h1.77a6.24,6.24,0,0,0-.24-.92l.52-.07a8.7,8.7,0,0,1,.27,1h1.66Zm-3.69,2.89h3.45v3h-.55v-.38h-2.38v.41h-.52Zm.57-1.31a5.8,5.8,0,0,0-.38-1.37l.46-.09a6,6,0,0,1,.4,1.35Zm0,1.78v1.64h2.38v-1.64Z"/><path class="cls-7" d="M113.28,141c0,.28,0,.68,0,1.16.12.93.61,4.36,3.45,5.63a1.51,1.51,0,0,0-.39.45,6.56,6.56,0,0,1-3.29-4.56,6.44,6.44,0,0,1-3.23,4.58,1.82,1.82,0,0,0-.42-.41c3.35-1.67,3.32-5.64,3.35-6.85Z"/><path class="cls-7" d="M119.13,146.65a5.31,5.31,0,0,1-1.07,1.69,2.09,2.09,0,0,0-.43-.32,4,4,0,0,0,1-1.5Zm1.69-.33h-2.77v-5h2.77Zm-.51-4.55h-1.76v1.07h1.76Zm0,1.5h-1.76v1.08h1.76Zm0,1.51h-1.76v1.1h1.76Zm-.12,1.73a7.31,7.31,0,0,1,.87,1.29l-.46.24a7,7,0,0,0-.85-1.32Zm4.83-3.09H124v4.22c0,.34-.08.5-.31.6a3.69,3.69,0,0,1-1.2.1,2.14,2.14,0,0,0-.18-.52c.46,0,.86,0,1,0s.18-.05.18-.19v-3.56a8.13,8.13,0,0,1-2.15,3,3.39,3.39,0,0,0-.36-.39,7.6,7.6,0,0,0,2.3-3.25h-2.14v-.5h2.35V141H124v1.88H125Z"/><path class="cls-7" d="M131.8,141c-.07.18-.15.35-.23.53a6.7,6.7,0,0,0,1.91,2,1.76,1.76,0,0,0-.35.37,7.63,7.63,0,0,1-1.78-2,6.36,6.36,0,0,1-1.75,2,2.11,2.11,0,0,0-.31-.36v2.12h-1.17v.67h1.49v.49h-1.49v1.45h-.52v-1.45h-1.54v-.49h1.54v-.67h-1.17v-2.64h1.17v-.66h-1.45V142h1.45V141h.52V142h1.42v.47h-1.42v.66h1.17v.44a6,6,0,0,0,2.06-2.63Zm-3,2.49h-1.88v.67h1.88Zm0,1.08h-1.88v.69h1.88Zm2.87,1.14h1.5v.5h-1.5v2.1h-.53v-2.1H129.6v-.5h1.53v-1.36h-1.19v-.5h2.87v.5h-1.15Z"/><path class="cls-7" d="M137.29,142.83h-2.87v-.45h2.87Zm-.27,1h-2.28v-.43H137Zm-2.28.61H137v.43h-2.28Zm.45,3.37v.39h-.45v-2.69h2.34v2.3Zm0-1.85v1.4h1.42V146Zm.71-3.73a5.36,5.36,0,0,0-.58-1.06l.4-.21a7.47,7.47,0,0,1,.63,1Zm2.17-1h.51V144a6.85,6.85,0,0,1-1.07,4.36,2.58,2.58,0,0,0-.46-.29,6.2,6.2,0,0,0,1-4.07Zm1.42.32H140v6h-.49Zm2-.39v7.18H141v-7.18Z"/><path class="cls-7" d="M145.26,147c-.85.23-1.73.44-2.41.63l-.1-.52,1-.24v-2.23h-.85v-.49h.85V142.1h-1v-.49h2.48v.49h-1v2.08h.85v.49h-.85v2.11l.91-.23Zm1.59-2.61c0,1.61-.21,3-1.73,3.93a2.38,2.38,0,0,0-.34-.38c1.38-.85,1.57-2.05,1.58-3.46l-.31.14a10,10,0,0,0-.83-1.62l.41-.16a12.27,12.27,0,0,1,.73,1.31V141h.49Zm3.23,3.13v.5h-3.39v-.5h1.51V145h-1v-.5h1v-2.44h-1.11v-.49h2.81v.49h-1.19v2.44h1v.5h-1v2.54Z"/><path class="cls-7" d="M72.23,161.12a2.09,2.09,0,0,1-2.16,1.61c-1.65,0-2.5-1.28-2.5-2.86s.84-2.9,2.51-2.9a2,2,0,0,1,2.15,1.65h-.57a1.52,1.52,0,0,0-1.6-1.15c-1.33,0-1.88,1.21-1.88,2.38s.53,2.38,1.91,2.38a1.54,1.54,0,0,0,1.56-1.11Z"/><path class="cls-7" d="M74,161.13a1.37,1.37,0,0,0,1.52,1.12c1,0,1.33-.47,1.33-1s-.28-1-1.47-1.25-1.73-.72-1.73-1.52.57-1.47,1.79-1.47a1.68,1.68,0,0,1,1.89,1.47h-.59a1.17,1.17,0,0,0-1.32-1c-.75,0-1.17.35-1.17.93s.35.8,1.36,1.05c1.59.39,1.84,1,1.84,1.72,0,.86-.63,1.57-2,1.57a1.85,1.85,0,0,1-2.08-1.6Z"/><path class="cls-7" d="M80.32,162.66l-2.06-5.61h.61l1,2.87c.3.84.62,1.73.74,2.22h0c.12-.43.47-1.37.78-2.19l1.08-2.9h.6L81,162.66Z"/><path class="cls-7" d="M86.69,159.28a5.8,5.8,0,0,1-2.4,3.48,3.19,3.19,0,0,0-.42-.4,5,5,0,0,0,2.13-2.7H84v-.52h2.21l.09,0Zm4.3-.77a19.48,19.48,0,0,1-2.15,1.76,5,5,0,0,0,2.43,2,2.08,2.08,0,0,0-.37.46,5.81,5.81,0,0,1-3-3.21v3c0,.35-.09.51-.33.6a4.69,4.69,0,0,1-1.33.1,2.55,2.55,0,0,0-.2-.54c.51,0,1,0,1.1,0s.2-.05.2-.19v-4.44H85.06v-.51h2.82v.56a8.06,8.06,0,0,0,.71,1.72,12.84,12.84,0,0,0,1.91-1.72Zm-2.21-1a15.75,15.75,0,0,0-3-1.1l.26-.43a13.68,13.68,0,0,1,3,1Z"/><path class="cls-7" d="M93.08,161.14a11.18,11.18,0,0,1-.43,2.07,2.17,2.17,0,0,0-.43-.14,9.36,9.36,0,0,0,.42-2Zm1.44-.33c0-.13,0-.3-.09-.49a8.9,8.9,0,0,0-2,.37c0-.1-.11-.33-.17-.47.15,0,.32-.23.56-.54.12-.14.37-.51.66-1a4.44,4.44,0,0,0-1.11.18,2.53,2.53,0,0,0-.16-.46c.13,0,.26-.21.41-.45a9.89,9.89,0,0,0,1-2.05l.47.19a14.21,14.21,0,0,1-1.17,2.2l.84-.08c.2-.35.39-.73.56-1.09l.43.24a15,15,0,0,1-1.7,2.67l1.24-.16c-.08-.29-.17-.58-.25-.82l.38-.09a9.33,9.33,0,0,1,.47,1.69Zm-.73.22c.1.59.19,1.34.22,1.85l-.42.07c0-.5-.11-1.27-.2-1.85Zm.67-.18a10.57,10.57,0,0,1,.44,1.49l-.38.12A12,12,0,0,0,94.1,161Zm2.4,1.62c-.62.29-1.37.6-1.92.82,0-.11-.15-.27-.22-.39a14.52,14.52,0,0,0,1.73-.76Zm.1-5.68H94.88v-.39H97V156h.53v.45h2v.39h-2v.45h1.66v.37H95.23v-.37H97Zm-2,1.18H99.4v1.44H94.94Zm2.94,4.16c.61.23,1.27.53,1.69.73l-.22.38-1.69-.77.19-.34H95.2v-2.35h4v2.35ZM95.4,159h1v-.69h-1Zm.28,1.44h3v-.36h-3Zm0,.66h3v-.37h-3Zm0,.66h3v-.39h-3Zm2-2.76v-.69H96.8V159Zm1.24-.69h-.81V159h.81Z"/><path class="cls-7" d="M103.63,161s0,.15,0,.21c-.1,1.13-.21,1.6-.4,1.78a.69.69,0,0,1-.51.19c-.2,0-.62,0-1.06,0a1.15,1.15,0,0,0-.16-.46c.44,0,.88,0,1,0a.5.5,0,0,0,.3-.06c.12-.12.21-.46.29-1.26h-1.88c.09-.47.2-1.17.27-1.73h1.63v-.9h-1.37v-.09a5.64,5.64,0,0,1-.92.39,2.78,2.78,0,0,0-.3-.4,5.86,5.86,0,0,0,1.62-.77,5.82,5.82,0,0,0-.93-.74l.32-.29a5.39,5.39,0,0,1,1,.75,4.1,4.1,0,0,0,.82-.91h-1.92v-.45h2.2l.09,0,.33.17a4.65,4.65,0,0,1-1.72,1.93h1.28v1.75H101.9c0,.31-.09.61-.14.89Zm4.14-3.93a9.19,9.19,0,0,1-1.17.91,5.33,5.33,0,0,0,1.41.59,3.11,3.11,0,0,0-.32.42,5.45,5.45,0,0,1-1.19-.5v1.13c0,.18,0,.23.14.23h.63a1.67,1.67,0,0,0,.38,0,2.25,2.25,0,0,0,0,.38,1.55,1.55,0,0,1-.4,0h-.7c-.45,0-.54-.17-.54-.62v-.84h-1.17V159a1.59,1.59,0,0,1-.87,1.49,1.84,1.84,0,0,0-.35-.33,1.23,1.23,0,0,0,.77-1.17v-.63h1.84a5.5,5.5,0,0,1-2-2.26l.44-.13a3.94,3.94,0,0,0,.65,1,10.24,10.24,0,0,0,1.07-.94l.39.27a13,13,0,0,1-1.19,1,4.92,4.92,0,0,0,.61.5,9.23,9.23,0,0,0,1.13-.94Zm-.6,3.69a3.37,3.37,0,0,1-1.07,1.44c.45.28.84.53,1.12.73l-.27.36a13.59,13.59,0,0,0-1.2-.81,5.88,5.88,0,0,1-1.85.79,1.24,1.24,0,0,0-.25-.39,6,6,0,0,0,1.68-.66c-.44-.27-.89-.54-1.29-.76l.26-.29c.43.23.93.51,1.4.8a3.44,3.44,0,0,0,.83-.92H104v-.4h2.77l.09,0Z"/><path class="cls-7" d="M110.35,158.15v.53a9.06,9.06,0,0,1-.94,4.59,2.4,2.4,0,0,0-.47-.27,8.27,8.27,0,0,0,.88-4.32v-2.34h6v1.81Zm0-1.34v.87h4.88v-.87Zm5.46,4.38a8.35,8.35,0,0,1-1.33.85,4.82,4.82,0,0,0,1.87.8,1.75,1.75,0,0,0-.33.44,4.29,4.29,0,0,1-3-2.44h-1.16v1.71l1.79-.41a2.3,2.3,0,0,0,0,.45,13.21,13.21,0,0,0-2.45.68,1.47,1.47,0,0,0-.23-.45.66.66,0,0,0,.39-.6v-1.38h-.91v-.48h1.47v-.89h-1.24V159h1.24v-.74h.5V159h1.68v-.74h.5V159H116v.47h-1.39v.89h1.7v.48h-2.77a4,4,0,0,0,.66.92,12.5,12.5,0,0,0,1.26-.85Zm-3.43-.83h1.68v-.89h-1.68Z"/><path class="cls-7" d="M123.13,156c-.07.17-.15.34-.23.52a6.74,6.74,0,0,0,1.91,2,2.06,2.06,0,0,0-.35.37,7.85,7.85,0,0,1-1.78-2,6.13,6.13,0,0,1-1.75,2,2,2,0,0,0-.31-.36v2.12h-1.16v.67h1.48v.49h-1.48v1.46h-.53v-1.46h-1.54v-.49h1.54v-.67h-1.17V158h1.17v-.66h-1.45v-.48h1.45V156h.53v.92h1.41v.48h-1.41V158h1.16v.44a5.93,5.93,0,0,0,2.06-2.64Zm-3,2.48h-1.88v.68h1.88Zm0,1.09h-1.88v.68h1.88Zm2.87,1.14h1.5v.5H123v2.09h-.53v-2.09h-1.52v-.5h1.52v-1.37h-1.19v-.5h2.88v.5H123Z"/><path class="cls-7" d="M128.62,157.76h-2.87v-.44h2.87Zm-.27,1h-2.28v-.43h2.28Zm-2.28.61h2.28v.43h-2.28Zm.46,3.38v.38h-.46v-2.69h2.35v2.31Zm0-1.86v1.41h1.41v-1.41Zm.7-3.72a5.71,5.71,0,0,0-.58-1.07l.4-.2a6.91,6.91,0,0,1,.63,1Zm2.17-1h.51V159a6.84,6.84,0,0,1-1.07,4.35,2.56,2.56,0,0,0-.46-.28,6.23,6.23,0,0,0,1-4.07Zm1.42.32h.49v6h-.49Zm2-.39v7.18h-.53v-7.18Z"/><path class="cls-7" d="M136.59,162l-2.41.63-.1-.51c.29-.07.65-.16,1-.24V159.6h-.85v-.49h.85V157h-1v-.49h2.48V157h-1v2.08h.85v.49h-.85v2.11l.91-.23Zm1.59-2.61c0,1.62-.21,3-1.73,3.93a2.38,2.38,0,0,0-.34-.38c1.38-.85,1.57-2.05,1.58-3.46l-.31.14a11.23,11.23,0,0,0-.82-1.62l.4-.15a12.15,12.15,0,0,1,.73,1.3V156h.49Zm3.23,3.14V163H138v-.49h1.51v-2.55h-1v-.49h1V157h-1.11v-.49h2.82V157h-1.19v2.45h1v.49h-1v2.55Z"/><path class="cls-7" d="M222.64,40.48v0a3.32,3.32,0,0,1,1.6-2.34c.89-.69,1.12-.9,1.12-1.53a.92.92,0,0,0-1-1c-.68,0-1,.34-1.15,1.06h-.54a1.6,1.6,0,0,1,1.69-1.54,1.43,1.43,0,0,1,1.58,1.47c0,.81-.34,1.1-1.32,1.88A3.78,3.78,0,0,0,223.27,40h2.88l-.09.5Z"/><path class="cls-7" d="M226.85,41.09a4.53,4.53,0,0,0,.3-1.35h.44a3.69,3.69,0,0,1-.35,1.35Z"/><path class="cls-7" d="M231.34,36.29a.91.91,0,0,0-1-.73c-1,0-1.29.9-1.31,2.16a1.46,1.46,0,0,1,1.39-.82,1.58,1.58,0,0,1,1.62,1.76,1.74,1.74,0,0,1-1.73,1.92c-1.43,0-1.83-1.19-1.83-2.68s.47-2.81,1.89-2.81a1.39,1.39,0,0,1,1.5,1.2Zm.15,2.41c0-.62-.24-1.32-1.12-1.32a1.19,1.19,0,0,0-1.23,1.33,1.28,1.28,0,0,0,1.2,1.39C231.18,40.1,231.49,39.41,231.49,38.7Z"/><path class="cls-7" d="M233.17,39a1.45,1.45,0,0,1,1-1.39,1.18,1.18,0,0,1-.76-1.12c0-.79.54-1.39,1.6-1.39a1.38,1.38,0,0,1,1.53,1.38,1.14,1.14,0,0,1-.76,1.11,1.42,1.42,0,0,1,1,1.39,1.63,1.63,0,0,1-1.81,1.61A1.61,1.61,0,0,1,233.17,39Zm3,0A1.07,1.07,0,0,0,235,37.85,1.08,1.08,0,0,0,233.73,39,1.11,1.11,0,0,0,235,40.1,1.09,1.09,0,0,0,236.18,39ZM234,36.46c0,.48.3.91,1,.91s1-.35,1-.88a.9.9,0,0,0-1-.93C234.23,35.56,234,36,234,36.46Z"/><path class="cls-7" d="M237.85,39a1.45,1.45,0,0,1,1-1.39,1.18,1.18,0,0,1-.76-1.12c0-.79.55-1.39,1.6-1.39a1.38,1.38,0,0,1,1.53,1.38,1.14,1.14,0,0,1-.76,1.11,1.42,1.42,0,0,1,1,1.39,1.8,1.8,0,0,1-3.57,0Zm3,0a1.22,1.22,0,0,0-2.44,0,1.11,1.11,0,0,0,1.22,1.13A1.09,1.09,0,0,0,240.86,39Zm-2.23-2.51c0,.48.3.91,1,.91s1-.35,1-.88a.9.9,0,0,0-1-.93C238.92,35.56,238.63,36,238.63,36.46Z"/><path class="cls-7" d="M227.66,19.84a.92.92,0,0,0-1-.73c-1,0-1.28.89-1.31,2.16a1.47,1.47,0,0,1,1.4-.83,1.59,1.59,0,0,1,1.61,1.77,1.73,1.73,0,0,1-1.73,1.91c-1.43,0-1.83-1.18-1.83-2.67s.47-2.81,1.89-2.81a1.39,1.39,0,0,1,1.5,1.2Zm.15,2.41c0-.63-.25-1.33-1.13-1.33a1.19,1.19,0,0,0-1.22,1.33c0,.44.22,1.4,1.19,1.4S227.81,23,227.81,22.25Z"/><path class="cls-7" d="M232,24V22.6h-2.52v-.51L232,18.73h.57v3.38h.7l-.06.49h-.64V24Zm0-3.4c0-.34,0-.94,0-1.29-.22.39-1.38,1.95-2,2.77H232Z"/><path class="cls-7" d="M234.28,22.54a1.45,1.45,0,0,1,1-1.39,1.18,1.18,0,0,1-.77-1.13c0-.79.55-1.38,1.6-1.38A1.38,1.38,0,0,1,237.64,20a1.14,1.14,0,0,1-.76,1.12,1.41,1.41,0,0,1,1,1.39,1.63,1.63,0,0,1-1.82,1.6A1.61,1.61,0,0,1,234.28,22.54Zm3,0c0-.73-.45-1.12-1.22-1.12a1.07,1.07,0,0,0-1.22,1.12,1.11,1.11,0,0,0,1.22,1.13A1.09,1.09,0,0,0,237.29,22.52ZM235.07,20c0,.48.29.9,1,.9s1-.35,1-.87a.9.9,0,0,0-1-.93C235.35,19.11,235.07,19.49,235.07,20Z"/><path class="cls-7" d="M227.64,66.46a.91.91,0,0,0-1-.73c-1,0-1.29.9-1.31,2.16a1.46,1.46,0,0,1,1.39-.82,1.58,1.58,0,0,1,1.62,1.76,1.73,1.73,0,0,1-1.73,1.91c-1.43,0-1.83-1.18-1.83-2.67s.47-2.81,1.88-2.81a1.38,1.38,0,0,1,1.5,1.2Zm.15,2.41c0-.62-.24-1.32-1.12-1.32a1.19,1.19,0,0,0-1.23,1.33,1.28,1.28,0,0,0,1.2,1.39C227.48,70.27,227.79,69.58,227.79,68.87Z"/><path class="cls-7" d="M232.39,66.46a.91.91,0,0,0-1-.73c-1,0-1.29.9-1.32,2.16a1.48,1.48,0,0,1,1.4-.82,1.58,1.58,0,0,1,1.61,1.76,1.73,1.73,0,0,1-1.73,1.91c-1.43,0-1.82-1.18-1.82-2.67s.47-2.81,1.88-2.81a1.39,1.39,0,0,1,1.5,1.2Zm.15,2.41c0-.62-.25-1.32-1.12-1.32a1.19,1.19,0,0,0-1.23,1.33c0,.44.23,1.39,1.19,1.39S232.54,69.58,232.54,68.87Z"/><path class="cls-7" d="M237.82,68c0,1.26-.34,2.78-1.78,2.78s-1.78-1.41-1.78-2.74.4-2.74,1.8-2.74S237.82,66.66,237.82,68Zm-3,.05c0,1,.2,2.25,1.2,2.25s1.2-1.18,1.2-2.3-.19-2.22-1.17-2.22S234.84,66.84,234.84,68Z"/><path class="cls-7" d="M222.63,51.12a1.48,1.48,0,0,1,1.61-1.32,1.36,1.36,0,0,1,1.53,1.35,1.11,1.11,0,0,1-.73,1.1v0a1.3,1.3,0,0,1,1,1.35,1.6,1.6,0,0,1-1.78,1.66,1.63,1.63,0,0,1-1.76-1.43H223a1.2,1.2,0,0,0,1.24,1,1.09,1.09,0,0,0,1.18-1.18c0-.78-.5-1.11-1.25-1.11h-.34v-.46h.28c.75,0,1.09-.31,1.09-.9a.87.87,0,0,0-1-.88,1,1,0,0,0-1.06.84Z"/><path class="cls-7" d="M226.89,55.79a4.44,4.44,0,0,0,.31-1.34h.44a4,4,0,0,1-.35,1.34Z"/><path class="cls-7" d="M231,55.19V53.76h-2.52v-.51l2.48-3.35h.57v3.37h.7l-.06.49h-.64v1.43Zm0-3.4c0-.34,0-.94,0-1.29-.22.4-1.37,2-2,2.77h2Z"/><path class="cls-7" d="M233.21,53.7a1.45,1.45,0,0,1,1-1.39,1.18,1.18,0,0,1-.77-1.13c0-.79.55-1.38,1.6-1.38a1.38,1.38,0,0,1,1.53,1.37,1.14,1.14,0,0,1-.76,1.12,1.41,1.41,0,0,1,1,1.39,1.63,1.63,0,0,1-1.82,1.6A1.61,1.61,0,0,1,233.21,53.7Zm3,0c0-.73-.45-1.12-1.22-1.12a1.07,1.07,0,0,0-1.22,1.12A1.11,1.11,0,0,0,235,54.81,1.09,1.09,0,0,0,236.22,53.68ZM234,51.17c0,.48.29.9,1,.9s1-.34,1-.87a.9.9,0,0,0-1-.93C234.28,50.27,234,50.65,234,51.17Z"/><path class="cls-7" d="M241.47,52.5c0,1.26-.34,2.78-1.79,2.78s-1.77-1.41-1.77-2.74.4-2.74,1.8-2.74S241.47,51.2,241.47,52.5Zm-3,0c0,1,.2,2.26,1.2,2.26s1.2-1.18,1.2-2.3-.19-2.22-1.18-2.22S238.49,51.38,238.49,52.54Z"/><path class="cls-7" d="M224.35,102V97.37a3.47,3.47,0,0,1-1.15.55v-.47a3.7,3.7,0,0,0,1.27-.77h.43V102Z"/><path class="cls-7" d="M226.14,102.61a4.41,4.41,0,0,0,.3-1.34h.45a3.77,3.77,0,0,1-.36,1.34Z"/><path class="cls-7" d="M228,97.94a1.47,1.47,0,0,1,1.6-1.32A1.37,1.37,0,0,1,231.11,98a1.11,1.11,0,0,1-.73,1.1v0a1.31,1.31,0,0,1,1,1.35,1.6,1.6,0,0,1-1.78,1.66,1.63,1.63,0,0,1-1.76-1.43h.55a1.2,1.2,0,0,0,1.24,1,1.09,1.09,0,0,0,1.18-1.18c0-.78-.5-1.11-1.25-1.11h-.35v-.46h.28c.76,0,1.09-.31,1.09-.9a.87.87,0,0,0-1-.88,1,1,0,0,0-1.06.84Z"/><path class="cls-7" d="M235,102v-1.43h-2.52v-.51L235,96.71h.57v3.38h.71l-.07.49h-.64V102Zm0-3.4c0-.34,0-.94,0-1.29-.21.39-1.37,2-2,2.77H235Z"/><path class="cls-7" d="M239.73,102v-1.43h-2.52v-.51l2.48-3.36h.57v3.38h.7l-.06.49h-.64V102Zm0-3.4c0-.34,0-.94,0-1.29-.22.39-1.37,2-2,2.77h1.95Z"/><path class="cls-7" d="M227.66,82.66a.92.92,0,0,0-1-.73c-1,0-1.28.9-1.31,2.17a1.47,1.47,0,0,1,1.4-.83A1.59,1.59,0,0,1,228.38,85,1.73,1.73,0,0,1,226.65,87c-1.43,0-1.83-1.18-1.83-2.67s.47-2.82,1.89-2.82a1.39,1.39,0,0,1,1.5,1.2Zm.15,2.41c0-.62-.25-1.32-1.13-1.32a1.19,1.19,0,0,0-1.22,1.33c0,.44.22,1.39,1.19,1.39S227.81,85.78,227.81,85.07Z"/><path class="cls-7" d="M232,86.85V85.43h-2.52v-.51L232,81.56h.57v3.38h.7l-.06.49h-.64v1.42Zm0-3.39c0-.35,0-.95,0-1.3-.22.4-1.38,2-2,2.78H232Z"/><path class="cls-7" d="M234.28,85.36a1.44,1.44,0,0,1,1-1.38,1.19,1.19,0,0,1-.77-1.13c0-.79.55-1.39,1.6-1.39a1.38,1.38,0,0,1,1.53,1.38,1.12,1.12,0,0,1-.76,1.11,1.42,1.42,0,0,1,1,1.4,1.8,1.8,0,0,1-3.58,0Zm3,0a1.22,1.22,0,0,0-2.44,0,1.11,1.11,0,0,0,1.22,1.14A1.09,1.09,0,0,0,237.29,85.34Zm-2.22-2.5c0,.47.29.9,1,.9s1-.35,1-.88a.9.9,0,0,0-1-.92C235.35,81.94,235.07,82.32,235.07,82.84Z"/><path class="cls-7" d="M224.48,132.54V127.9a3.34,3.34,0,0,1-1.14.55V128a4,4,0,0,0,1.27-.78H225v5.33Z"/><path class="cls-7" d="M226.28,133.14a4.41,4.41,0,0,0,.3-1.34H227a3.78,3.78,0,0,1-.35,1.34Z"/><path class="cls-7" d="M227.9,132.54v0a3.31,3.31,0,0,1,1.61-2.33c.88-.69,1.11-.9,1.11-1.53a.92.92,0,0,0-1-1c-.68,0-1,.34-1.15,1.05h-.54a1.59,1.59,0,0,1,1.69-1.53,1.43,1.43,0,0,1,1.58,1.47c0,.81-.34,1.1-1.32,1.88a3.79,3.79,0,0,0-1.34,1.54h2.88l-.09.5Z"/><path class="cls-7" d="M233,131.43a1,1,0,0,0,1,.72c1.12,0,1.21-1.58,1.24-2.27a1.37,1.37,0,0,1-1.33.7,1.56,1.56,0,0,1-1.58-1.68,1.66,1.66,0,0,1,1.72-1.75c1.25,0,1.74,1,1.74,2.43s-.26,3-1.82,3a1.47,1.47,0,0,1-1.57-1.19Zm-.07-2.54A1.07,1.07,0,0,0,234,130.1a1,1,0,0,0,1.17-1.18,1.16,1.16,0,0,0-1.13-1.29C233.27,127.63,232.94,128.19,232.94,128.89Z"/><path class="cls-7" d="M239.83,128.35a.91.91,0,0,0-1-.73c-1,0-1.29.89-1.31,2.16a1.45,1.45,0,0,1,1.39-.82,1.58,1.58,0,0,1,1.61,1.76,1.73,1.73,0,0,1-1.73,1.91c-1.43,0-1.82-1.18-1.82-2.67s.47-2.81,1.88-2.81a1.39,1.39,0,0,1,1.5,1.2Zm.15,2.41c0-.62-.24-1.32-1.12-1.32a1.19,1.19,0,0,0-1.23,1.33c0,.43.23,1.39,1.19,1.39S240,131.47,240,130.76Z"/><path class="cls-7" d="M227.64,113.06a.91.91,0,0,0-1-.73c-1,0-1.29.9-1.31,2.16a1.46,1.46,0,0,1,1.39-.82,1.58,1.58,0,0,1,1.62,1.76,1.74,1.74,0,0,1-1.73,1.92c-1.43,0-1.83-1.19-1.83-2.68s.47-2.81,1.88-2.81a1.38,1.38,0,0,1,1.5,1.2Zm.15,2.41c0-.62-.24-1.32-1.12-1.32a1.19,1.19,0,0,0-1.23,1.33,1.28,1.28,0,0,0,1.2,1.39C227.48,116.87,227.79,116.18,227.79,115.47Z"/><path class="cls-7" d="M232.39,113.06a.91.91,0,0,0-1-.73c-1,0-1.29.9-1.32,2.16a1.48,1.48,0,0,1,1.4-.82,1.58,1.58,0,0,1,1.61,1.76,1.74,1.74,0,0,1-1.73,1.92c-1.43,0-1.82-1.19-1.82-2.68s.47-2.81,1.88-2.81a1.39,1.39,0,0,1,1.5,1.2Zm.15,2.41c0-.62-.25-1.32-1.12-1.32a1.19,1.19,0,0,0-1.23,1.33c0,.44.23,1.39,1.19,1.39S232.54,116.18,232.54,115.47Z"/><path class="cls-7" d="M237.82,114.56c0,1.26-.34,2.79-1.78,2.79s-1.78-1.41-1.78-2.75.4-2.74,1.8-2.74S237.82,113.26,237.82,114.56Zm-3,0c0,1,.2,2.25,1.2,2.25s1.2-1.18,1.2-2.3-.19-2.22-1.17-2.22S234.84,113.44,234.84,114.61Z"/><path class="cls-7" d="M224.35,162.43V157.8a3.65,3.65,0,0,1-1.15.54v-.46a3.86,3.86,0,0,0,1.27-.77h.43v5.32Z"/><path class="cls-7" d="M226.14,163a4.54,4.54,0,0,0,.3-1.34h.45a3.77,3.77,0,0,1-.36,1.34Z"/><path class="cls-7" d="M228,158.36a1.48,1.48,0,0,1,1.6-1.32,1.37,1.37,0,0,1,1.54,1.35,1.09,1.09,0,0,1-.73,1.1v0a1.32,1.32,0,0,1,1,1.36,1.6,1.6,0,0,1-1.78,1.66,1.63,1.63,0,0,1-1.76-1.44h.55a1.2,1.2,0,0,0,1.24,1,1.09,1.09,0,0,0,1.18-1.17c0-.78-.5-1.11-1.25-1.11h-.35v-.47h.28c.76,0,1.09-.3,1.09-.9a.87.87,0,0,0-1-.88,1,1,0,0,0-1.06.84Z"/><path class="cls-7" d="M235,162.43V161h-2.52v-.5l2.48-3.36h.57v3.38h.71l-.07.48h-.64v1.43Zm0-3.39c0-.35,0-.95,0-1.3-.21.4-1.37,2-2,2.78H235Z"/><path class="cls-7" d="M239.73,162.43V161h-2.52v-.5l2.48-3.36h.57v3.38h.7l-.06.48h-.64v1.43Zm0-3.39c0-.35,0-.95,0-1.3-.22.4-1.37,2-2,2.78h1.95Z"/><path class="cls-7" d="M224.69,147.5v-4.64a3.43,3.43,0,0,1-1.14.55V143a4,4,0,0,0,1.27-.78h.43v5.33Z"/><path class="cls-7" d="M226.49,148.11a4.53,4.53,0,0,0,.3-1.35h.44a3.9,3.9,0,0,1-.35,1.35Z"/><path class="cls-7" d="M231.31,142.21v.47a12.87,12.87,0,0,0-2.11,4.82h-.57a13.16,13.16,0,0,1,2.1-4.8h-2.82v-.49Z"/><path class="cls-7" d="M235.78,142.21v.47a12.89,12.89,0,0,0-2.12,4.82h-.56a13,13,0,0,1,2.09-4.8h-2.82v-.49Z"/><path class="cls-7" d="M239.53,143.31a.91.91,0,0,0-1-.73c-1,0-1.29.9-1.31,2.16a1.45,1.45,0,0,1,1.39-.82,1.58,1.58,0,0,1,1.61,1.76,1.73,1.73,0,0,1-1.72,1.91c-1.44,0-1.83-1.18-1.83-2.67s.47-2.81,1.88-2.81a1.39,1.39,0,0,1,1.5,1.2Zm.15,2.41c0-.62-.24-1.32-1.12-1.32a1.19,1.19,0,0,0-1.23,1.33,1.28,1.28,0,0,0,1.2,1.39C239.37,147.12,239.68,146.43,239.68,145.72Z"/><line class="cls-5" x1="154.71" y1="10.67" x2="154.71" y2="167.24"/><line class="cls-6" x1="154.74" y1="0.02" x2="154.68" y2="14.3"/><line class="cls-6" x1="205.6" y1="0.02" x2="205.73" y2="14.3"/><path class="cls-8" d="M19.45,6H16.84v-.4h2.61Zm2.44,2.53a5.52,5.52,0,0,0,1.61,1.68,2.31,2.31,0,0,0-.34.36,6.51,6.51,0,0,1-1.53-1.73v2.12h-.47V8.88a5.27,5.27,0,0,1-1.6,1.73,2.28,2.28,0,0,0-.29-.33v.22H17.55v.34h-.42V8.42h2.14v1.8a4.6,4.6,0,0,0,1.65-1.71H19.45V8.08h1.71V7.44H19.74V4.66h3.37V7.44H21.63v.64h1.69v.43Zm-2.68-1.6H17.13V6.52h2.08Zm-2.08.55h2.08v.39H17.13Zm1.71,1.36H17.55v1.27h1.29ZM18.2,5.48a6.41,6.41,0,0,0-.54-1L18,4.33a5.16,5.16,0,0,1,.56.92Zm2,.37h1V5.06h-1Zm0,1.19h1v-.8h-1Zm2.48-2h-1v.79h1Zm0,1.18h-1V7h1Z"/><path class="cls-8" d="M26.85,8.63c-.1-.23-.37-.67-.58-1v3.33h-.46V7.62a7.91,7.91,0,0,1-1,2,2.88,2.88,0,0,0-.24-.46,8,8,0,0,0,1.14-2.33h-1V6.42h1.13V5.19c-.3.08-.61.13-.89.18A2,2,0,0,0,24.78,5a9.24,9.24,0,0,0,2-.57l.28.39a4.78,4.78,0,0,1-.81.28V6.42h.95v.45h-.95v.2c.2.24.75,1,.87,1.16Zm4.37,1.69v.43H27.08v-.43h1.86v-1H27.48V8.88h1.46V8c-.42,0-.84.09-1.24.11a1,1,0,0,0-.13-.37,15.44,15.44,0,0,0,2.86-.42l.33.36a9.57,9.57,0,0,1-1.34.27v1h1.49V9.3H29.42v1ZM30.81,7H27.55V4.72h3.26Zm-.47-1.84H28V6.56h2.34Z"/><path class="cls-8" d="M34.76,9.1a7.59,7.59,0,0,1-1.61,1.55,4.56,4.56,0,0,0-.42-.31,6.36,6.36,0,0,0,1.56-1.4Zm2.9-4.35A23.16,23.16,0,0,1,33,6a1.47,1.47,0,0,0-.14-.4A21.7,21.7,0,0,0,37.3,4.37ZM36.08,8.51v1.83c0,.28-.06.41-.28.5a4.48,4.48,0,0,1-1.11.07,1.72,1.72,0,0,0-.19-.47,6.8,6.8,0,0,0,.94,0c.13,0,.15,0,.15-.11V8.55a11.92,11.92,0,0,0-2.51.27,2.46,2.46,0,0,0-.14-.47,3.48,3.48,0,0,0,1-.34c.28-.13.94-.45,1.68-.88a12.45,12.45,0,0,0-2.12.18,3.74,3.74,0,0,0-.14-.45,1.76,1.76,0,0,0,.58-.23,10,10,0,0,0,1.69-1.14l.42.26a11.28,11.28,0,0,1-1.59,1l1.89-.1c.28-.17.57-.37.83-.55l.37.31A20.19,20.19,0,0,1,34.4,8.2L37.71,8c-.25-.26-.5-.52-.75-.74l.4-.2a11,11,0,0,1,1.48,1.58l-.4.25a4.35,4.35,0,0,0-.39-.5Zm1.07.37a15,15,0,0,1,1.67,1.43l-.41.29a14.61,14.61,0,0,0-1.63-1.48Z"/><path class="cls-8" d="M40.44,4.75h3.65v.46h-2c-.1.4-.2.78-.33,1.15h1.68l.09,0,.29.09c-.37,2.49-1.49,3.87-3,4.55a2.86,2.86,0,0,0-.3-.41A4,4,0,0,0,42.45,9,12.86,12.86,0,0,0,41.08,8c-.12.17-.23.35-.36.5a2.36,2.36,0,0,0-.33-.39,6.62,6.62,0,0,0,1.25-2.85h-1.2Zm1.2,2.06c-.11.26-.22.5-.34.74a13.28,13.28,0,0,1,1.41,1.07,5.94,5.94,0,0,0,.63-1.81Zm3.47,2.4h-.47v-4h.47ZM46.6,4.38v5.91c0,.32-.09.46-.28.54a3.51,3.51,0,0,1-1.07.08,2.85,2.85,0,0,0-.17-.46c.4,0,.77,0,.88,0s.16,0,.16-.16V4.38Z"/><path class="cls-8" d="M96.63,6.26H94v-.4h2.61Zm2.44,2.53a5.52,5.52,0,0,0,1.61,1.68,1.67,1.67,0,0,0-.34.36,6.57,6.57,0,0,1-1.53-1.74v2.12h-.47V9.15a5.23,5.23,0,0,1-1.61,1.74,1.81,1.81,0,0,0-.28-.34v.22H94.73v.35h-.42V8.69h2.14V10.5A4.68,4.68,0,0,0,98.1,8.79H96.63V8.36h1.71V7.72H96.92V4.93h3.37V7.72H98.81v.64h1.69v.43ZM96.39,7.18H94.31V6.8h2.08Zm-2.08.55h2.08v.39H94.31ZM96,9.1H94.73v1.27H96Zm-.64-3.35a6.87,6.87,0,0,0-.54-1l.37-.19a5.59,5.59,0,0,1,.56.93Zm2,.38h1v-.8h-1Zm0,1.19h1v-.8h-1Zm2.48-2h-1v.8h1Zm0,1.19h-1v.8h1Z"/><path class="cls-8" d="M104,8.9c-.1-.22-.37-.67-.58-1v3.33H103V7.89a8,8,0,0,1-1,2.05,2.51,2.51,0,0,0-.24-.46,8.16,8.16,0,0,0,1.14-2.33h-1V6.69H103V5.47c-.3.07-.61.12-.89.17a2,2,0,0,0-.14-.38,9.24,9.24,0,0,0,2-.57l.28.39a4.8,4.8,0,0,1-.81.27V6.69h1v.46h-1v.2c.2.23.75,1,.87,1.16Zm4.37,1.7V11h-4.14V10.6h1.86v-1h-1.47V9.15h1.47V8.24c-.42,0-.84.09-1.24.11a1.32,1.32,0,0,0-.13-.38,14.64,14.64,0,0,0,2.86-.42l.33.36a8.32,8.32,0,0,1-1.34.27v1h1.49v.43H106.6v1ZM108,7.26h-3.26V5H108Zm-.47-1.84h-2.34V6.84h2.34Z"/><path class="cls-8" d="M115.44,11.21H115v-.39h-3.29v.39h-.48V8.8c-.41.14-.82.26-1.22.36a1.48,1.48,0,0,0-.25-.44,10.3,10.3,0,0,0,2.77-1,15.31,15.31,0,0,0-1.42-1.17,7.82,7.82,0,0,1-.84.51,2.33,2.33,0,0,0-.34-.36,6,6,0,0,0,2.43-2.07l.53.11a5.26,5.26,0,0,1-.48.63H115l.08,0,.32.21a6.7,6.7,0,0,1-2.93,2.71h3ZM112,5.79a6.11,6.11,0,0,1-.53.47,13.08,13.08,0,0,1,1.5,1.18,5.63,5.63,0,0,0,1.77-1.65Zm3,4.59V8.68h-3.29v1.7Z"/><path class="cls-8" d="M119.68,8.89A8.74,8.74,0,0,0,119,8v3.22h-.45V8a8,8,0,0,1-.91,1.92,1.94,1.94,0,0,0-.25-.42,8.2,8.2,0,0,0,1.08-2.36h-1V6.71h1.08V5.53c-.33.08-.65.13-1,.18a1.34,1.34,0,0,0-.14-.36,9.05,9.05,0,0,0,2.09-.56l.37.33a5.23,5.23,0,0,1-.9.31V6.71h1v.44h-1v.39c.2.18.8.83.94,1Zm4.46.9h-.41v.89c0,.26-.06.38-.23.45a2.62,2.62,0,0,1-.93.09,1.54,1.54,0,0,0-.17-.43c.34,0,.66,0,.75,0s.12,0,.12-.12V9.79h-2.54v1.42h-.44V9.79h-.53V9.38h.53V7.15h1.45V6.76h.45v.39h1.54V9.38h.41Zm-.37-4.71a18,18,0,0,1-3.59.56,1.52,1.52,0,0,0-.12-.36,17.6,17.6,0,0,0,3.41-.55Zm-2.94,1.75a5.13,5.13,0,0,0-.6-1l.37-.16a4,4,0,0,1,.63,1Zm-.1.71v.73h1V7.54Zm0,1.84h1V8.64h-1Zm1.21-2.7a3.48,3.48,0,0,0-.45-.94l.38-.13a3.4,3.4,0,0,1,.48.92Zm.25.86v.73h1.08V7.54Zm1.08,1.84V8.64h-1.08v.74Zm.46-3.85a5.47,5.47,0,0,1-.86,1.26,3.75,3.75,0,0,0-.4-.21,4.75,4.75,0,0,0,.83-1.15Z"/><path class="cls-8" d="M163.05,8.64a3.1,3.1,0,0,0-.1-.42,7.94,7.94,0,0,0-1.87.42c0-.1-.1-.31-.15-.43.14,0,.3-.22.51-.49a7.77,7.77,0,0,0,.63-.9,3.43,3.43,0,0,0-1,.2c0-.1-.1-.32-.15-.44.11,0,.24-.19.37-.4a9.94,9.94,0,0,0,.86-1.84l.43.18a10.23,10.23,0,0,1-1,2l.81-.08a9.18,9.18,0,0,0,.52-1l.41.2a13.49,13.49,0,0,1-1.61,2.43l1.2-.21c-.07-.21-.15-.44-.23-.63l.36-.11a9.76,9.76,0,0,1,.46,1.39ZM161.7,9a10.78,10.78,0,0,1-.43,1.72,1.69,1.69,0,0,0-.36-.12A7.13,7.13,0,0,0,161.32,9Zm.63-.08c.08.49.17,1.12.2,1.54l-.37.08c0-.42-.1-1.06-.18-1.55Zm.64-.16a9.47,9.47,0,0,1,.33,1.26l-.35.1a10.6,10.6,0,0,0-.32-1.26Zm.3,1.58a5.91,5.91,0,0,0,.49-1.47l.35.13a7.49,7.49,0,0,1-.48,1.52Zm3.86-2h-3.35V5h1c.09-.22.21-.53.27-.73l.48.1a6.16,6.16,0,0,1-.32.63h2Zm-.44-2.91h-2.48V8h2.48ZM166,10.39c.24,0,.28-.1.31-.78a1,1,0,0,0,.37.16c-.05.8-.18,1-.64,1H165c-.57,0-.71-.11-.71-.55V8.9h.41v1.29c0,.16,0,.2.33.2Zm.2-2.71a6.08,6.08,0,0,0-.46-.6,5.33,5.33,0,0,1-.91.78,1,1,0,0,0-.24-.23,4.27,4.27,0,0,0,.93-.78c-.1-.12-.22-.23-.33-.35a3.6,3.6,0,0,1-.65.56,1.2,1.2,0,0,0-.23-.22,4.39,4.39,0,0,0,.65-.55,5.71,5.71,0,0,0-.47-.42l.27-.18a4.35,4.35,0,0,1,.41.34,3,3,0,0,0,.31-.48l.34.06a3.69,3.69,0,0,1-.42.64c.12.11.24.22.35.34a4,4,0,0,0,.43-.64l.35,0a5.69,5.69,0,0,1-.56.82,7,7,0,0,1,.52.64Zm-.43,2.13a12.15,12.15,0,0,0-.68-1.16l.33-.15a11.83,11.83,0,0,1,.69,1.11Zm1.07-.94a13.49,13.49,0,0,1,.64,1.38l-.36.17c-.13-.38-.41-1-.62-1.41Z"/><path class="cls-8" d="M174.19,7.91a4.45,4.45,0,0,1-1.69,1.83,8.75,8.75,0,0,0,2.72.74,3.2,3.2,0,0,0-.3.45A8.39,8.39,0,0,1,172,10a9.91,9.91,0,0,1-2.94.92,1.67,1.67,0,0,0-.28-.43,9.74,9.74,0,0,0,2.76-.76,5.07,5.07,0,0,1-1.51-1.55l0,0h-.29V7.72h4l.09,0Zm-4.78,0H169V6.43h4.36a9.78,9.78,0,0,0,.7-1.26l.48.15c-.21.37-.47.78-.7,1.11h1.28V7.88h-.47v-1h-5.2Zm5.24-3.16a38.6,38.6,0,0,1-5.51.56,1.46,1.46,0,0,0-.11-.41,37,37,0,0,0,5.28-.54Zm-4.62.6a3.76,3.76,0,0,1,.53,1l-.42.14a4.81,4.81,0,0,0-.52-1Zm.55,2.85A4.35,4.35,0,0,0,172,9.49a4.08,4.08,0,0,0,1.44-1.32Zm1.33-1.8a4.53,4.53,0,0,0-.37-1.09l.42-.09a3.72,3.72,0,0,1,.4,1.07Z"/><path class="cls-8" d="M179.13,6h-2.59v-.4h2.59Zm-.24.93h-2.06V6.52h2.06Zm-2.06.55h2.06v.39h-2.06Zm.42,3v.34h-.42V8.42h2.11V10.5Zm0-1.68v1.27h1.27V8.82Zm.63-3.34a4.21,4.21,0,0,0-.53-1l.36-.19a7,7,0,0,1,.57.92Zm2-.94h.46V7.06a6.19,6.19,0,0,1-1,3.92,2.85,2.85,0,0,0-.41-.26,5.62,5.62,0,0,0,.91-3.66Zm1.28.29h.44v5.39h-.44Zm1.78-.35v6.46h-.47V4.48Z"/><path class="cls-8" d="M187.93,4.38c0,.25,0,.61-.05,1,.11.84.55,3.92,3.1,5.06a1.69,1.69,0,0,0-.35.41,5.9,5.9,0,0,1-3-4.11,5.81,5.81,0,0,1-2.9,4.13,1.49,1.49,0,0,0-.38-.37c3-1.51,3-5.08,3-6.16Z"/><path class="cls-8" d="M194.52,9h-2.27V8.48h2.27Zm-.24-3H192.4V5.5h1.88Zm2.11,1c0,.11,0,.23,0,.36a3.93,3.93,0,0,0,2.41,3.17,2.32,2.32,0,0,0-.32.42,3.91,3.91,0,0,1-2.23-2.56A4.07,4.07,0,0,1,194,11a2.08,2.08,0,0,0-.35-.38,3.67,3.67,0,0,0,2.25-3.65V6.39h.51Zm-1.15-.86a6.85,6.85,0,0,1-.75,1.51,2.37,2.37,0,0,0-.47-.26,7.22,7.22,0,0,0,1.15-3l.53.09c-.09.4-.19.79-.31,1.16h2.71l.1,0,.35.18a10.2,10.2,0,0,1-.76,1.94l-.4-.21a7.54,7.54,0,0,0,.55-1.41Z"/><path class="cls-8" d="M214.41,8.64a3.1,3.1,0,0,0-.1-.42,7.94,7.94,0,0,0-1.87.42c0-.1-.1-.31-.15-.43.14,0,.3-.22.51-.49a9.31,9.31,0,0,0,.63-.9,3.43,3.43,0,0,0-1,.2c0-.1-.1-.32-.15-.44.11,0,.23-.19.36-.4a9.19,9.19,0,0,0,.87-1.84l.43.18a10.23,10.23,0,0,1-1,2l.81-.08c.18-.31.36-.65.52-1l.41.2A13.49,13.49,0,0,1,213,8.07l1.2-.21c-.07-.21-.16-.44-.23-.63l.36-.11a11.21,11.21,0,0,1,.46,1.39ZM213.05,9a9.85,9.85,0,0,1-.42,1.72,1.9,1.9,0,0,0-.36-.12A7.13,7.13,0,0,0,212.68,9Zm.64-.08c.08.49.17,1.12.19,1.54l-.36.08A13.33,13.33,0,0,0,213.33,9Zm.64-.16a9.47,9.47,0,0,1,.33,1.26l-.35.1A13,13,0,0,0,214,8.89Zm.3,1.58a5.91,5.91,0,0,0,.49-1.47l.35.13a6.93,6.93,0,0,1-.49,1.52Zm3.85-2h-3.34V5h1c.09-.22.21-.53.27-.73l.48.1c-.1.22-.22.45-.32.63h1.95ZM218,5.45h-2.48V8H218Zm-.65,4.94c.23,0,.28-.1.31-.78a1,1,0,0,0,.37.16c-.06.8-.18,1-.64,1h-1.09c-.57,0-.71-.11-.71-.55V8.9H216v1.29c0,.16.05.2.33.2Zm.2-2.71a6.33,6.33,0,0,0-.47-.6,5,5,0,0,1-.91.78.84.84,0,0,0-.23-.23,4.8,4.8,0,0,0,.93-.78c-.1-.12-.22-.23-.34-.35a3.52,3.52,0,0,1-.64.56,1.26,1.26,0,0,0-.24-.22,3.56,3.56,0,0,0,.65-.55,4.44,4.44,0,0,0-.47-.42l.28-.18a4.23,4.23,0,0,1,.4.34,2.42,2.42,0,0,0,.31-.48l.35.06a4.37,4.37,0,0,1-.42.64l.35.34a6,6,0,0,0,.43-.64l.34,0a4.9,4.9,0,0,1-.55.82c.21.24.39.46.52.64Zm-.43,2.13a10.58,10.58,0,0,0-.69-1.16l.34-.15a11.83,11.83,0,0,1,.69,1.11Zm1.07-.94a13.49,13.49,0,0,1,.64,1.38l-.36.17A13.76,13.76,0,0,0,217.88,9Z"/><path class="cls-8" d="M225.55,7.91a4.52,4.52,0,0,1-1.69,1.83,8.75,8.75,0,0,0,2.72.74,3.2,3.2,0,0,0-.3.45,8.39,8.39,0,0,1-2.89-.92,10.07,10.07,0,0,1-2.95.92,1.94,1.94,0,0,0-.27-.43,9.83,9.83,0,0,0,2.76-.76,5.1,5.1,0,0,1-1.52-1.55l0,0h-.3V7.72h4l.09,0Zm-4.78,0h-.46V6.43h4.37a11.15,11.15,0,0,0,.7-1.26l.47.15a12.23,12.23,0,0,1-.69,1.11h1.28V7.88H226v-1h-5.2ZM226,4.72a38.6,38.6,0,0,1-5.51.56,1.91,1.91,0,0,0-.11-.41,37,37,0,0,0,5.28-.54Zm-4.62.6a4.09,4.09,0,0,1,.53,1l-.43.14a4.3,4.3,0,0,0-.51-1Zm.54,2.85a4.48,4.48,0,0,0,1.47,1.32,4,4,0,0,0,1.43-1.32Zm1.34-1.8a5,5,0,0,0-.37-1.09l.42-.09a4,4,0,0,1,.4,1.07Z"/><path class="cls-8" d="M230.49,6H227.9v-.4h2.59Zm-.25.93h-2.05V6.52h2.05Zm-2.05.55h2.05v.39h-2.05Zm.41,3v.34h-.41V8.42h2.11V10.5Zm0-1.68v1.27h1.28V8.82Zm.64-3.34a4.63,4.63,0,0,0-.53-1l.36-.19a7,7,0,0,1,.57.92Zm1.95-.94h.46V7.06a6.19,6.19,0,0,1-1,3.92,2.48,2.48,0,0,0-.42-.26,5.57,5.57,0,0,0,.92-3.66Zm1.28.29h.44v5.39h-.44Zm1.78-.35v6.46h-.47V4.48Z"/><path class="cls-8" d="M238,9.53h-1.57v.57H236V4.83h2Zm-1.57-4.26V6.93h1.11V5.27Zm1.11,3.81V7.36h-1.11V9.08Zm2.9-3.41v1H242v.43h-.65v.83h.87v.43h-.87v2c0,.29-.07.43-.28.5a4,4,0,0,1-1.17.09,1.8,1.8,0,0,0-.16-.46c.46,0,.87,0,1,0s.15,0,.15-.15v-2h-2.76V7.91h2.76V7.08h-2.46V6.65H240v-1h-1.84V5.24H240V4.35h.47v.89h1.84v.43ZM239,8.62A6.56,6.56,0,0,1,240,9.87l-.42.26a6.74,6.74,0,0,0-.92-1.28Z"/><path class="cls-8" d="M246.71,9.08a1.6,1.6,0,0,1-.63,1,8.18,8.18,0,0,1,.84.42l-.33.29a7.12,7.12,0,0,0-.89-.47,7.27,7.27,0,0,1-2,.64,1.36,1.36,0,0,0-.21-.32,7.46,7.46,0,0,0,1.79-.51,11.48,11.48,0,0,0-1.15-.42,5,5,0,0,0,.37-.48l-.88.05,0-.37,1.18-.05.35-.59h-1.2V7.09h1.37V6.77h-1.17V6h-.48V5.61h.48V4.87h1.17V4.35h.39v.52h1.25v.74h.49V6h-.49v.79h-1.25v.32h1.43V8.24h-1.54c-.1.19-.21.37-.32.57l1.14-.06V8.39h.4v.34l.39,0v.34Zm-2.42-1.17h1V7.42h-1Zm.2-2.7v.41h.76V5.21Zm.76,1.21V6h-.76v.46ZM245,9.18l-.25.33c.31.1.64.23.95.36a1.5,1.5,0,0,0,.62-.77Zm.67-4v.41h.81V5.21Zm.81,1.21V6h-.81v.46Zm-.81,1v.49h1V7.42Zm3.94-1.24A11.35,11.35,0,0,1,248.93,9a3.59,3.59,0,0,0,1.23,1.55,1.08,1.08,0,0,0-.3.34,3.82,3.82,0,0,1-1.16-1.42A4.32,4.32,0,0,1,247.39,11a1.47,1.47,0,0,0-.27-.36,3.94,3.94,0,0,0,1.36-1.68,10.76,10.76,0,0,1-.54-2,6.28,6.28,0,0,1-.41.86,2.46,2.46,0,0,0-.34-.29,8.33,8.33,0,0,0,.94-3.1l.41.07c-.06.42-.14.85-.24,1.26h1.78v.44Zm-1.4,0a12.91,12.91,0,0,0,.51,2.22,10.49,10.49,0,0,0,.45-2.22Z"/></g></g></svg>