<svg xmlns="http://www.w3.org/2000/svg" viewBox="0 0 605.05 76.78"><defs><style>.cls-1{fill:#619e70;}.cls-2,.cls-6,.cls-7{fill:none;stroke-miterlimit:10;}.cls-2,.cls-6{stroke:#4b7b79;}.cls-2{stroke-width:0.11px;}.cls-3{fill:#fff;}.cls-4{fill:#4b4949;}.cls-5{fill:#49494b;}.cls-6{stroke-width:0.09px;}.cls-7{stroke:#fff;stroke-width:0.5px;}</style></defs><g id="圖層_2" data-name="圖層 2"><g id="圖層_3" data-name="圖層 3"><rect class="cls-1" x="49.44" y="0.01" width="185.52" height="18.12"/><rect class="cls-1" x="234.46" y="0.01" width="185.52" height="18.12"/><rect class="cls-1" x="419.48" y="0.01" width="185.52" height="18.12"/><rect class="cls-1" x="0.01" y="0.01" width="49.43" height="18.12"/><rect class="cls-2" x="0.05" y="0.05" width="604.94" height="76.67"/><path class="cls-3" d="M495.91,5c-.26.73-.58,1.61-.87,2.33a2.92,2.92,0,0,1,.78,2,1.29,1.29,0,0,1-.32,1,.93.93,0,0,1-.44.16,2.33,2.33,0,0,1-.59,0,1.33,1.33,0,0,0-.15-.53,3.12,3.12,0,0,0,.52,0,.51.51,0,0,0,.27-.08.81.81,0,0,0,.19-.64,2.73,2.73,0,0,0-.79-1.86c.26-.66.53-1.45.71-2h-1.16v7.26h-.52V4.77h1.9l.09,0Zm1.6,5.12a4.44,4.44,0,0,1-.26.67,7.55,7.55,0,0,1,1,.82L498,12a5.48,5.48,0,0,0-1-.8,4.69,4.69,0,0,1-1.37,1.43,3.1,3.1,0,0,0-.41-.39A3.87,3.87,0,0,0,497,10Zm1.36-5.56c-.07.09-.13.19-.2.29a9.06,9.06,0,0,0,2.75,1.61,2.25,2.25,0,0,0-.28.53,11.2,11.2,0,0,1-2.77-1.75,8.06,8.06,0,0,1-2.24,1.83,1.9,1.9,0,0,0-.41-.39,6.86,6.86,0,0,0,2.57-2.31Zm-2.68,3.07h2V9.76h-2Zm.47,1.7h1V8.06h-1Zm3.14-2.39h-2.7V6.44h2.7Zm.23,3.13a5,5,0,0,1-.24.8,10.25,10.25,0,0,1,1.58,1.21l-.36.42a9.88,9.88,0,0,0-1.43-1.17,3.69,3.69,0,0,1-1.12,1.29,3,3,0,0,0-.4-.39A3.48,3.48,0,0,0,499.48,10Zm.76-.29h-2V7.61h2Zm-.49-1.7h-1.06V9.31h1.06Z"/><path class="cls-3" d="M511.17,11.91v.5h-5.36v-.5h2.51v-.76h-2v-.48h2V10h-1.89V7.13h1.89V6.48H506V6h2.28V5.33c-.67,0-1.35.09-2,.11a1.8,1.8,0,0,0-.12-.44,7.24,7.24,0,0,1-1.16.36V6.93h1.17v.56h-1.17v.59c.27.24,1.06,1.05,1.24,1.26l-.36.47a14.39,14.39,0,0,0-.88-1.15v3.92h-.57V8.46a9.48,9.48,0,0,1-1.37,2.47,2.54,2.54,0,0,0-.31-.53,9.45,9.45,0,0,0,1.59-2.91H503V6.93h1.5V5.49l-1.36.24a3.56,3.56,0,0,0-.19-.47,13.5,13.5,0,0,0,2.86-.72l.42.46V5a30.88,30.88,0,0,0,4.39-.45L511,5a20.87,20.87,0,0,1-2.09.3V6H511v.49h-2.11v.65h1.92V10h-1.92v.7h2v.48h-2v.76ZM507,8.34h1.35V7.59H507Zm1.35,1.17V8.75H507v.76Zm.57-1.92v.75h1.38V7.59Zm1.38,1.16h-1.38v.76h1.38Z"/><path class="cls-3" d="M517.42,4.65a3.71,3.71,0,0,1-.28.41,11.09,11.09,0,0,0,3.78,2.52,1.75,1.75,0,0,0-.42.52,11.82,11.82,0,0,1-3.71-2.61,10,10,0,0,1-2.17,1.85H519V7.9h-4.52V7.43a10.67,10.67,0,0,1-1.42.74,2.77,2.77,0,0,0-.43-.51,9.22,9.22,0,0,0,4.26-3.27ZM514,9h5.52v3.53h-.63v-.49h-4.29v.52H514Zm.6.54V11.5h4.29V9.57Z"/><path class="cls-3" d="M526.26,6.44h-3.69v-.5h3.69ZM523,7.11h2.9v.48H523Zm2.88,1.65H523V8.27h2.88Zm0,3.29h-2.3v.44H523v-3h2.83ZM523.57,10v1.58h1.76V10Zm.75-4.17a8.08,8.08,0,0,0-.67-1.18l.46-.24a6.59,6.59,0,0,1,.69,1.15Zm6.2,2.32h-1.87v4.49H528V8.12h-1.8V7.53H528V4.58h.61v3h1.87Z"/><path class="cls-3" d="M305.92,4.6A12.69,12.69,0,0,1,305,6.53v6.05h-.58V7.43a8.44,8.44,0,0,1-1,1.19,2.65,2.65,0,0,0-.35-.57,10.24,10.24,0,0,0,2.26-3.61Zm1.76,4.77a5.34,5.34,0,0,1-.41.56h4s0,.17,0,.25c-.15,1.43-.31,2-.54,2.23a.7.7,0,0,1-.5.19,6.26,6.26,0,0,1-.83,0,1.21,1.21,0,0,0-.14-.47c.34,0,.64,0,.76,0s.21,0,.26-.07.31-.61.44-1.69h-.82a5.61,5.61,0,0,1-1.71,2.28,3.52,3.52,0,0,0-.4-.33,4.66,4.66,0,0,0,1.56-1.95h-1a6.54,6.54,0,0,1-2,2.13,2.36,2.36,0,0,0-.4-.36,5.49,5.49,0,0,0,1.82-1.77h-.94a7.19,7.19,0,0,1-1.08.88,4.3,4.3,0,0,0-.37-.37,5.82,5.82,0,0,0,1.68-1.52h-1.54V8.9h6v.47ZM307,5.66A7.76,7.76,0,0,1,306,7a3.56,3.56,0,0,0-.47-.34A6.43,6.43,0,0,0,307,4.4l.54.14a4.63,4.63,0,0,1-.29.64h4.13v.48Zm-.28,2.77V6.16h4V8.43Zm.55-1.33h2.9V6.55h-2.9Zm0,.94h2.9V7.47h-2.9Z"/><path class="cls-3" d="M321.1,9v.52h-7.89V9h3.65v-.7h-2.75V7.79h2.75V7.2c-.93,0-1.9.07-2.77.07a1.56,1.56,0,0,0-.11-.41h-.51V5.32H317c-.13-.25-.3-.57-.45-.81l.55-.17a5.9,5.9,0,0,1,.56,1h3.19V6.86h-.6v0a25.76,25.76,0,0,1-2.83.32v.63h2.83v.48h-2.83V9ZM314,6.84c.9,0,1.89,0,2.82-.1V6.06h.57v.65c1-.08,1.86-.17,2.48-.28l.35.36V5.86H314Zm.45,3.2h5.41v2.54h-.59v-.3h-4.25v.33h-.57Zm.57.5v1.23h4.25V10.54Z"/><path class="cls-3" d="M327.93,9.16v.43h2.16v3h-.56v-.37h-5.28v.37h-.55v-3h2.24V9.16h-3.17V8.73h8.16v.43Zm-4.62-4.08H323V4.67H327v.41h-3.18V7.57c0,.32.1.43.42.43h2a6.35,6.35,0,0,0,.78,0c0,.13,0,.3.06.4a3.35,3.35,0,0,1-.81.06h-2c-.68,0-.89-.23-.89-.87Zm2.27,1.71v0a8.86,8.86,0,0,1,1.16.8l-.27.29a9.61,9.61,0,0,0-1-.75,2.07,2.07,0,0,1-1.09.81,1.43,1.43,0,0,0-.28-.32,1.48,1.48,0,0,0,1.08-.85H324V6.42h1.22V5.89h-.58a3.26,3.26,0,0,1-.36.43,1.6,1.6,0,0,0-.34-.2,2.79,2.79,0,0,0,.67-1l.39.1a1.89,1.89,0,0,1-.15.33h1.84v.35h-1v.53h1.22v.37Zm3.95,5.06v-1h-1.32c-.61,0-.77-.09-.77-.54V10h-1c-.1.43-.51.79-1.81,1a1.23,1.23,0,0,0-.26-.37c1.07-.13,1.45-.38,1.57-.64h-1.65v1.88Zm-4.47-.73h3.78v.37h-3.78Zm2.38-2h-1v.43h1Zm-.25-2.78a1.46,1.46,0,0,0-.33-.37c.68-.27.81-.58.81-.9V4.64h2.11v.88c0,.18,0,.21.12.21h.41a2.17,2.17,0,0,0,.36,0c0,.11,0,.29,0,.41a1.46,1.46,0,0,1-.38,0h-.51c-.45,0-.55-.17-.55-.64V5.08h-1.11v0a1.3,1.3,0,0,1-.88,1.22h2.55l.09,0,.31.14a3.35,3.35,0,0,1-.94,1.2c.44.21.85.42,1.14.59l-.24.38c-.31-.19-.78-.43-1.29-.69a6.09,6.09,0,0,1-1.62.69,2.11,2.11,0,0,0-.26-.4,5.15,5.15,0,0,0,1.4-.52c-.38-.19-.77-.37-1.12-.52l.24-.31c.4.16.85.36,1.3.56a2.91,2.91,0,0,0,.7-.7h-2.27v-.4Zm.74,3.59v.29c0,.18.05.2.34.2h1.26V10Z"/><path class="cls-3" d="M334.32,5.78V8.15a6.86,6.86,0,0,1-1.26,4.47,2.25,2.25,0,0,0-.42-.4,4.93,4.93,0,0,0,1.07-2.83c-.38.23-.76.46-1.11.65l-.21-.52c.36-.16.83-.43,1.36-.71,0-.22,0-.45,0-.66V5.26H337c-.07-.24-.17-.51-.26-.73l.59-.13a6.86,6.86,0,0,1,.32.86h3.08v.52ZM333.1,8a15.34,15.34,0,0,0-.57-1.76L333,6c.22.57.49,1.3.6,1.72Zm7.27-.49a6.94,6.94,0,0,1-.77.68,4.91,4.91,0,0,0,1.16.64,1.63,1.63,0,0,0-.36.42,4.92,4.92,0,0,1-.8-.45V10.6h-1.76V12c0,.29,0,.43-.29.51a3.89,3.89,0,0,1-1.19.09,2.08,2.08,0,0,0-.19-.49h.94c.13,0,.16,0,.16-.13V10.6h-1.71V8.77a6.9,6.9,0,0,1-.81.47,1.38,1.38,0,0,0-.37-.39,5.28,5.28,0,0,0,1.16-.71,6.14,6.14,0,0,0-.73-.6l.33-.28a6,6,0,0,1,.75.58,5.24,5.24,0,0,0,.63-.72h-1.77V6.63h2.07a4.11,4.11,0,0,0,.33-.8l.57.08c-.09.24-.18.49-.29.72h3.14v.49h-2a4.48,4.48,0,0,0,.69.76,7.85,7.85,0,0,0,.71-.67ZM336.3,11a10.88,10.88,0,0,1-1.44,1.44,5.55,5.55,0,0,0-.46-.35,8.36,8.36,0,0,0,1.38-1.27Zm2.76-2.38h-3v.59h3Zm0,1h-3v.61h3ZM338.9,8.2A4.86,4.86,0,0,1,338,7.12h-.89a5.5,5.5,0,0,1-.87,1.08Zm.16,2.6c.47.42,1.1,1,1.43,1.37l-.45.3c-.31-.36-.92-1-1.41-1.43Z"/><path class="cls-3" d="M344.91,5c-.26.73-.58,1.61-.87,2.33a2.92,2.92,0,0,1,.78,2,1.29,1.29,0,0,1-.32,1,.93.93,0,0,1-.44.16,2.33,2.33,0,0,1-.59,0,1.33,1.33,0,0,0-.15-.53,3.12,3.12,0,0,0,.52,0,.51.51,0,0,0,.27-.08.81.81,0,0,0,.19-.64,2.73,2.73,0,0,0-.79-1.86c.26-.66.53-1.45.71-2h-1.16v7.26h-.52V4.77h1.91l.09,0Zm1.6,5.12a3.58,3.58,0,0,1-.26.67,7.55,7.55,0,0,1,1,.82L347,12a5.48,5.48,0,0,0-1-.8,4.69,4.69,0,0,1-1.37,1.43,3.1,3.1,0,0,0-.41-.39A3.87,3.87,0,0,0,346,10Zm1.36-5.56c-.07.09-.13.19-.2.29a9.18,9.18,0,0,0,2.75,1.61,1.9,1.9,0,0,0-.27.53,11.07,11.07,0,0,1-2.78-1.75,8.06,8.06,0,0,1-2.24,1.83,2.11,2.11,0,0,0-.4-.39,6.83,6.83,0,0,0,2.56-2.31Zm-2.68,3.07h2V9.76h-2Zm.47,1.7h1V8.06h-1Zm3.14-2.39h-2.7V6.44h2.7Zm.23,3.13a5,5,0,0,1-.24.8,10.25,10.25,0,0,1,1.58,1.21l-.36.42a9.88,9.88,0,0,0-1.43-1.17,3.69,3.69,0,0,1-1.12,1.29,3,3,0,0,0-.4-.39A3.44,3.44,0,0,0,348.48,10Zm.76-.29h-2V7.61h2Zm-.49-1.7h-1.06V9.31h1.06Z"/><path class="cls-4" d="M61.32,25.8H58.45v1.48h-.58V25.36h3.45v-.6h-3v-.44H65v.44h-3.1v.6h3.52v1.92h-.6V25.8H61.91v2.08h-.59Zm3.3,5.75c.48,0,.56-.16.62-1.08a1.48,1.48,0,0,0,.52.2c-.09,1.09-.28,1.37-1.11,1.37H62.54c-.95,0-1.23-.17-1.23-.86v-.32H59.23v.48h-.58v-3.1H64.7v2.62H61.88v.33c0,.3.12.36.69.36Zm-6-4.13,2.13-.3,0,.39c-.7.14-1.38.28-2,.38Zm.39-1.4a9,9,0,0,1,1.77.49l-.18.37a9.12,9.12,0,0,0-1.77-.53Zm.18,2.67v.64h2.08v-.64Zm2.08,1.72v-.66H59.23v.66Zm2.79-1.72H61.88v.64H64.1Zm0,1.72v-.66H61.88v.66Zm.34-2.48a13.76,13.76,0,0,0-2.11-.49l.15-.37a11.81,11.81,0,0,1,2.1.45Zm0-1.59a13.13,13.13,0,0,1-1.8.52l-.21-.33A14.18,14.18,0,0,0,64.18,26Z"/><path class="cls-4" d="M75.41,28.55H71.7v2.79c0,.42-.11.6-.43.7a6.75,6.75,0,0,1-1.76.12,2.38,2.38,0,0,0-.27-.62c.75,0,1.41,0,1.6,0s.25-.07.25-.23V28.55H67.34V28h3.75V26.64a11.25,11.25,0,0,0,2.36-1.47H68.24v-.59h5.85l.13,0,.45.35a13.23,13.23,0,0,1-3,2.07v1h3.71Z"/><path class="cls-4" d="M79.68,24.16a15.56,15.56,0,0,1-1,1.92v6.05h-.57V26.94a10.09,10.09,0,0,1-1,1.2,3.5,3.5,0,0,0-.34-.58A10.05,10.05,0,0,0,79.12,24Zm1.63,5.34a14.44,14.44,0,0,1-1.56,2.21,3.46,3.46,0,0,0-.46-.35,10.74,10.74,0,0,0,1.49-2Zm1.28-.63v3.29H82V28.87H79.33v-.56H82V27.19H80V24.38h4.63v2.81h-2v1.12h2.57v.56Zm-2-2.22H84V24.92H80.57Zm3,2.68a13.65,13.65,0,0,1,1.61,2l-.48.31a15,15,0,0,0-1.57-2.09Z"/><path class="cls-4" d="M94.78,30.86H91.09v1.29h-.61V30.86H86.85v-.53h3.63V29.6H87.77V26.51h6.17V29.6H91.09v.73h3.69ZM90.45,26H87.54V24.31h2.91Zm-.57-1.32H88.09v.91h1.79Zm-1.53,3.1h2.13V27H88.35Zm2.13,1.3v-.83H88.35v.83ZM93.33,27H91.09v.82h2.24Zm0,1.29H91.09v.83h2.24Zm.8-2.25H91.2V24.31h2.93Zm-.55-1.32H91.75v.91h1.83Z"/><path class="cls-4" d="M120.39,28.42v3.72h-.65v-.52h-6.36v-3.2H114V31h2.52v-3.2h-2.78V24.79h.62v2.46h2.16V24h.65v3.29h2.19V24.78H120v3.06H117.2V31h2.54V28.42Z"/><path class="cls-4" d="M130.57,30.86h-3.69v1.29h-.6V30.86h-3.63v-.53h3.63V29.6h-2.71V26.51h6.16V29.6h-2.85v.73h3.69ZM126.24,26h-2.91V24.31h2.91Zm-.57-1.32h-1.79v.91h1.79Zm-1.53,3.1h2.14V27h-2.14Zm2.14,1.3v-.83h-2.14v.83ZM129.12,27h-2.24v.82h2.24Zm0,1.29h-2.24v.83h2.24Zm.8-2.25H127V24.31h2.92Zm-.55-1.32h-1.82v.91h1.82Z"/><path class="cls-4" d="M134.85,24.16a14.43,14.43,0,0,1-.9,2v6h-.56V27.05a10.58,10.58,0,0,1-.89,1.13,3.5,3.5,0,0,0-.34-.58A10.41,10.41,0,0,0,134.29,24Zm5.5,4.87h-2.47v3.13h-.6V29h-2.6v-.58h2.6V26.39h-1.47a6.52,6.52,0,0,1-.67,1.4,4,4,0,0,0-.51-.3,8.09,8.09,0,0,0,1.11-3.09l.56.11a10.29,10.29,0,0,1-.31,1.3h1.29V24.07h.6v1.74H140v.58h-2.08v2.06h2.47Z"/><path class="cls-4" d="M145.9,29.84a2,2,0,0,1-.79,1.2c.4.18.77.37,1,.53l-.42.37a9.58,9.58,0,0,0-1.1-.6,8.28,8.28,0,0,1-2.52.8,2,2,0,0,0-.26-.39,9.42,9.42,0,0,0,2.23-.64,13.9,13.9,0,0,0-1.43-.52,6.25,6.25,0,0,0,.45-.6l-1.08.06-.07-.46,1.47-.06c.15-.25.3-.49.43-.74h-1.49V27.36h1.71V27h-1.46V26H142v-.47h.59V24.6h1.46V24h.49v.65h1.54v.92h.62V26h-.62v1h-1.54v.39h1.77v1.43h-1.92c-.12.24-.25.47-.4.71l1.43-.07V29h.49v.43l.49,0v.42Zm-3-1.46h1.2v-.6h-1.2Zm.25-3.36v.52h1V25Zm1,1.51V26h-1v.57ZM143.73,30l-.31.42c.39.12.79.28,1.18.44a1.84,1.84,0,0,0,.77-.95Zm.84-4.94v.52h1V25Zm1,1.51V26h-1v.57Zm-1,1.25v.6h1.23v-.6Zm4.89-1.55a13.32,13.32,0,0,1-.81,3.47,4.37,4.37,0,0,0,1.53,1.93,1.86,1.86,0,0,0-.37.42,4.61,4.61,0,0,1-1.44-1.76,5.3,5.3,0,0,1-1.64,1.92,1.37,1.37,0,0,0-.33-.45,4.9,4.9,0,0,0,1.7-2.09,13.73,13.73,0,0,1-.68-2.5,6,6,0,0,1-.51,1.08,4,4,0,0,0-.42-.37A10.22,10.22,0,0,0,147.66,24l.51.08c-.07.53-.18,1.06-.3,1.58h2.21v.54Zm-1.74,0a16.45,16.45,0,0,0,.64,2.76,13.06,13.06,0,0,0,.56-2.76Z"/><path class="cls-4" d="M172.08,25.8h-2.87v1.48h-.58V25.36h3.45v-.6H169v-.44h6.74v.44h-3.1v.6h3.52v1.92h-.6V25.8h-2.92v2.08h-.59Zm3.3,5.75c.48,0,.56-.16.62-1.08a1.48,1.48,0,0,0,.52.2c-.09,1.09-.28,1.37-1.11,1.37H173.3c-1,0-1.23-.17-1.23-.86v-.32H170v.48h-.58v-3.1h6.05v2.62h-2.82v.33c0,.3.12.36.68.36Zm-6-4.13,2.13-.3,0,.39c-.7.14-1.38.28-2,.38Zm.39-1.4a9,9,0,0,1,1.77.49l-.18.37a9.12,9.12,0,0,0-1.77-.53Zm.18,2.67v.64h2.08v-.64Zm2.08,1.72v-.66H170v.66Zm2.79-1.72h-2.22v.64h2.22Zm0,1.72v-.66h-2.22v.66Zm.34-2.48a13.76,13.76,0,0,0-2.11-.49l.15-.37a11.81,11.81,0,0,1,2.1.45Zm0-1.59a13.13,13.13,0,0,1-1.8.52l-.21-.33a14.74,14.74,0,0,0,1.74-.54Z"/><path class="cls-4" d="M186.17,28.55h-3.71v2.79c0,.42-.11.6-.43.7a6.75,6.75,0,0,1-1.76.12,2.38,2.38,0,0,0-.27-.62c.75,0,1.41,0,1.6,0s.25-.07.25-.23V28.55H178.1V28h3.75V26.64a11.25,11.25,0,0,0,2.36-1.47H179v-.59h5.85l.13,0,.45.35a13.23,13.23,0,0,1-3,2.07v1h3.71Z"/><path class="cls-4" d="M190.44,24.16a15.56,15.56,0,0,1-.95,1.92v6.05h-.57V26.94a10.09,10.09,0,0,1-1,1.2,3.5,3.5,0,0,0-.34-.58,10.05,10.05,0,0,0,2.3-3.57Zm1.63,5.34a14.44,14.44,0,0,1-1.56,2.21,3.46,3.46,0,0,0-.46-.35,10.74,10.74,0,0,0,1.49-2Zm1.28-.63v3.29h-.6V28.87h-2.66v-.56h2.66V27.19h-2V24.38h4.63v2.81h-2v1.12h2.57v.56Zm-2-2.22h3.46V24.92h-3.46Zm3,2.68a13.65,13.65,0,0,1,1.61,2l-.48.31a15,15,0,0,0-1.57-2.09Z"/><path class="cls-4" d="M205.54,30.86h-3.69v1.29h-.61V30.86h-3.63v-.53h3.63V29.6h-2.71V26.51h6.17V29.6h-2.85v.73h3.69ZM201.21,26H198.3V24.31h2.91Zm-.57-1.32h-1.79v.91h1.79Zm-1.53,3.1h2.13V27h-2.13Zm2.13,1.3v-.83h-2.13v.83ZM204.09,27h-2.24v.82h2.24Zm0,1.29h-2.24v.83h2.24Zm.8-2.25H202V24.31h2.93Zm-.55-1.32h-1.83v.91h1.83Z"/><path class="cls-4" d="M211.1,30.36a4.74,4.74,0,0,0,0,.55,16.45,16.45,0,0,0-3.11.95,2,2,0,0,0-.29-.51.78.78,0,0,0,.34-.66V24h.61v2.79H211v.58h-2.34V31Zm3.2,1c.43,0,.5-.34.55-1.64a1.58,1.58,0,0,0,.56.26c-.08,1.45-.25,1.94-1.08,1.94h-1.55c-.85,0-1.08-.24-1.08-1.17V24h.6v2.8h2.46v.58H212.3v3.46c0,.49.09.59.53.59Z"/><path class="cls-4" d="M219,24.11a17.5,17.5,0,0,1-.63,1.76v6.26h-.55V27a8.31,8.31,0,0,1-.69,1,3.06,3.06,0,0,0-.31-.59,10.06,10.06,0,0,0,1.64-3.5Zm2.78,2.32.34.1c-.28,3.06-1.29,4.76-2.82,5.61a2.71,2.71,0,0,0-.36-.46,4.12,4.12,0,0,0,1.87-2,9.07,9.07,0,0,0-1.3-1.17,4.17,4.17,0,0,1-.4.6,2.49,2.49,0,0,0-.35-.47A7.76,7.76,0,0,0,220.08,25h-.92v-.56h3V25h-1.49a14.2,14.2,0,0,1-.3,1.42h1.39Zm-1.63.58a8.84,8.84,0,0,1-.4,1,13,13,0,0,1,1.31,1.07,10.34,10.34,0,0,0,.48-2.1Zm3,3h-.52V25h.52Zm1.53-6v7.33c0,.41-.11.59-.36.68a4.69,4.69,0,0,1-1.42.12,2.75,2.75,0,0,0-.21-.61c.56,0,1.07,0,1.21,0s.22-.05.22-.21V24Z"/><path class="cls-5" d="M61.4,51.06V45.3A4.21,4.21,0,0,1,60,46v-.57a4.86,4.86,0,0,0,1.58-1h.53v6.62Z"/><path class="cls-5" d="M68.5,47.73c0,1.56-.42,3.45-2.22,3.45s-2.21-1.75-2.21-3.41.5-3.4,2.24-3.4S68.5,46.11,68.5,47.73Zm-3.7.05c0,1.27.25,2.8,1.49,2.8s1.49-1.46,1.49-2.85S67.54,45,66.32,45,64.8,46.33,64.8,47.78Z"/><path class="cls-5" d="M70.72,49.69a1.19,1.19,0,0,0,1.26.89c1.41,0,1.52-2,1.55-2.82a1.71,1.71,0,0,1-1.65.87,1.93,1.93,0,0,1-2-2.08,2.06,2.06,0,0,1,2.14-2.18c1.55,0,2.16,1.23,2.16,3s-.32,3.78-2.25,3.78A1.81,1.81,0,0,1,70,49.69Zm-.1-3.16A1.34,1.34,0,0,0,72,48a1.28,1.28,0,0,0,1.45-1.47A1.45,1.45,0,0,0,72,45C71,45,70.62,45.65,70.62,46.53Z"/><path class="cls-5" d="M75.29,51.82a5.6,5.6,0,0,0,.38-1.67h.55a4.71,4.71,0,0,1-.44,1.67Z"/><path class="cls-5" d="M80.35,51.06V49.29H77.21v-.63l3.09-4.17H81v4.2h.87l-.08.6H81v1.77Zm0-4.21c0-.44,0-1.18,0-1.61-.27.49-1.71,2.43-2.44,3.45h2.42Z"/><path class="cls-5" d="M87.22,45.1H84.43c-.07.59-.25,1.72-.33,2.11a1.79,1.79,0,0,1,1.45-.6,1.94,1.94,0,0,1,2,2.18,2.13,2.13,0,0,1-2.19,2.39,2,2,0,0,1-2.13-1.74h.7a1.41,1.41,0,0,0,1.46,1.15c1,0,1.45-.69,1.45-1.75s-.38-1.62-1.36-1.62a1.42,1.42,0,0,0-1.48.94L83.33,48c.2-.87.44-2.72.53-3.52h3.45Z"/><path class="cls-5" d="M92.94,44.49v.59a15.91,15.91,0,0,0-2.63,6h-.7a16.23,16.23,0,0,1,2.6-6h-3.5v-.61Z"/><path class="cls-5" d="M59.28,69.73v0c0-.88.66-1.88,2-2.91,1.1-.85,1.39-1.11,1.39-1.89a1.15,1.15,0,0,0-1.25-1.26c-.86,0-1.28.42-1.44,1.31H59.3A2,2,0,0,1,61.41,63a1.78,1.78,0,0,1,2,1.83c0,1-.43,1.37-1.64,2.34a4.67,4.67,0,0,0-1.67,1.91h3.58l-.11.62Z"/><path class="cls-5" d="M64.87,67.88a1.8,1.8,0,0,1,1.23-1.72,1.5,1.5,0,0,1-.95-1.41c0-1,.68-1.72,2-1.72a1.72,1.72,0,0,1,1.91,1.71,1.41,1.41,0,0,1-1,1.39,1.75,1.75,0,0,1,1.21,1.73,2.23,2.23,0,0,1-4.44,0Zm3.74,0a1.53,1.53,0,0,0-3,0,1.39,1.39,0,0,0,1.52,1.41A1.35,1.35,0,0,0,68.61,67.85Zm-2.77-3.11c0,.59.37,1.12,1.29,1.12s1.23-.43,1.23-1.09a1.12,1.12,0,0,0-1.25-1.15C66.19,63.62,65.84,64.09,65.84,64.74Z"/><path class="cls-5" d="M74.66,63.15v.6a15.91,15.91,0,0,0-2.63,6h-.7a16.23,16.23,0,0,1,2.6-6h-3.5v-.62Z"/><path class="cls-5" d="M75.45,70.48a5.48,5.48,0,0,0,.38-1.66h.55a4.71,4.71,0,0,1-.44,1.66Z"/><path class="cls-5" d="M81.58,63.77H78.79c-.07.59-.25,1.72-.33,2.1a1.82,1.82,0,0,1,1.45-.59,1.94,1.94,0,0,1,2,2.18,2.13,2.13,0,0,1-2.19,2.39,2,2,0,0,1-2.12-1.74h.69a1.42,1.42,0,0,0,1.46,1.15c1,0,1.45-.69,1.45-1.75s-.38-1.62-1.36-1.62a1.42,1.42,0,0,0-1.48.93l-.64-.14c.2-.87.44-2.72.53-3.53h3.45Z"/><path class="cls-5" d="M83.5,64.67a1.84,1.84,0,0,1,2-1.64,1.69,1.69,0,0,1,1.9,1.68,1.38,1.38,0,0,1-.9,1.37v0a1.63,1.63,0,0,1,1.19,1.69,2,2,0,0,1-2.21,2.06,2,2,0,0,1-2.18-1.78H84a1.5,1.5,0,0,0,1.55,1.19A1.35,1.35,0,0,0,87,67.8c0-1-.62-1.38-1.55-1.38H85v-.58h.35c.94,0,1.35-.38,1.35-1.12a1.08,1.08,0,0,0-1.23-1.09,1.2,1.2,0,0,0-1.31,1Z"/><path class="cls-5" d="M89.2,64.67a1.84,1.84,0,0,1,2-1.64,1.69,1.69,0,0,1,1.9,1.68,1.38,1.38,0,0,1-.9,1.37v0a1.63,1.63,0,0,1,1.19,1.69,2,2,0,0,1-2.21,2.06A2,2,0,0,1,89,68.07h.67a1.5,1.5,0,0,0,1.55,1.19,1.35,1.35,0,0,0,1.46-1.46c0-1-.62-1.38-1.55-1.38H90.7v-.58h.35c.94,0,1.35-.38,1.35-1.12a1.08,1.08,0,0,0-1.23-1.09,1.2,1.2,0,0,0-1.31,1Z"/><path class="cls-5" d="M118.54,45.86a1.13,1.13,0,0,0-1.21-.91c-1.19,0-1.59,1.11-1.63,2.69a1.84,1.84,0,0,1,1.74-1,2,2,0,0,1,2,2.2,2.15,2.15,0,0,1-2.15,2.37c-1.78,0-2.27-1.47-2.27-3.32s.59-3.49,2.34-3.49a1.73,1.73,0,0,1,1.87,1.49Zm.19,3c0-.77-.3-1.64-1.4-1.64a1.48,1.48,0,0,0-1.52,1.65c0,.55.28,1.73,1.48,1.73C118.34,50.59,118.73,49.74,118.73,48.85Z"/><path class="cls-5" d="M120.81,49.21a1.79,1.79,0,0,1,1.24-1.72,1.48,1.48,0,0,1-1-1.4c0-1,.68-1.72,2-1.72a1.71,1.71,0,0,1,1.9,1.7,1.41,1.41,0,0,1-.95,1.39,1.75,1.75,0,0,1,1.21,1.73,2.23,2.23,0,0,1-4.44,0Zm3.74,0a1.52,1.52,0,0,0-3,0A1.38,1.38,0,0,0,123,50.6,1.36,1.36,0,0,0,124.55,49.19Zm-2.76-3.12c0,.6.37,1.12,1.28,1.12s1.23-.43,1.23-1.09A1.12,1.12,0,0,0,123.06,45C122.14,45,121.79,45.43,121.79,46.07Z"/><path class="cls-5" d="M131.07,47.73c0,1.56-.42,3.45-2.21,3.45s-2.21-1.75-2.21-3.41.49-3.4,2.24-3.4S131.07,46.11,131.07,47.73Zm-3.7.05c0,1.27.25,2.8,1.49,2.8s1.5-1.46,1.5-2.85S130.11,45,128.9,45,127.37,46.33,127.37,47.78Z"/><path class="cls-5" d="M132.16,51.82a5.89,5.89,0,0,0,.37-1.67h.55a4.94,4.94,0,0,1-.43,1.67Z"/><path class="cls-5" d="M135.52,51.06V45.3a4.13,4.13,0,0,1-1.42.68v-.57a4.86,4.86,0,0,0,1.58-1h.53v6.62Z"/><path class="cls-5" d="M138.27,46a1.84,1.84,0,0,1,2-1.63,1.69,1.69,0,0,1,1.9,1.67,1.36,1.36,0,0,1-.9,1.37v0a1.64,1.64,0,0,1,1.2,1.69,2.23,2.23,0,0,1-4.4.28h.68a1.48,1.48,0,0,0,1.54,1.19,1.35,1.35,0,0,0,1.46-1.46c0-1-.62-1.38-1.55-1.38h-.43v-.57h.35c.94,0,1.36-.39,1.36-1.12a1.09,1.09,0,0,0-1.24-1.1,1.21,1.21,0,0,0-1.31,1Z"/><path class="cls-5" d="M144,46a1.84,1.84,0,0,1,2-1.63,1.69,1.69,0,0,1,1.9,1.67,1.36,1.36,0,0,1-.9,1.37v0a1.64,1.64,0,0,1,1.2,1.69,2.23,2.23,0,0,1-4.4.28h.68A1.48,1.48,0,0,0,146,50.59a1.35,1.35,0,0,0,1.46-1.46c0-1-.62-1.38-1.55-1.38h-.43v-.57h.35c.94,0,1.36-.39,1.36-1.12a1.09,1.09,0,0,0-1.24-1.1,1.21,1.21,0,0,0-1.31,1Z"/><path class="cls-5" d="M119,64.52a1.14,1.14,0,0,0-1.21-.9c-1.19,0-1.6,1.11-1.63,2.69a1.8,1.8,0,0,1,1.73-1,2,2,0,0,1,2,2.19,2.15,2.15,0,0,1-2.14,2.38c-1.78,0-2.27-1.47-2.27-3.32S116,63,117.78,63a1.72,1.72,0,0,1,1.86,1.49Zm.18,3c0-.77-.3-1.65-1.39-1.65a1.49,1.49,0,0,0-1.53,1.66c0,.54.29,1.73,1.49,1.73C118.75,69.26,119.14,68.4,119.14,67.52Z"/><path class="cls-5" d="M121.23,67.88a1.8,1.8,0,0,1,1.23-1.72,1.48,1.48,0,0,1-.95-1.41c0-1,.68-1.72,2-1.72a1.72,1.72,0,0,1,1.91,1.71,1.42,1.42,0,0,1-1,1.39,1.76,1.76,0,0,1,1.21,1.73,2.23,2.23,0,0,1-4.44,0Zm3.74,0a1.53,1.53,0,0,0-3,0,1.39,1.39,0,0,0,1.52,1.41A1.35,1.35,0,0,0,125,67.85Zm-2.77-3.11c0,.59.37,1.12,1.29,1.12s1.23-.43,1.23-1.09a1.12,1.12,0,0,0-1.25-1.15C122.55,63.62,122.2,64.09,122.2,64.74Z"/><path class="cls-5" d="M127.05,67.88a1.8,1.8,0,0,1,1.23-1.72,1.48,1.48,0,0,1-1-1.41c0-1,.68-1.72,2-1.72a1.72,1.72,0,0,1,1.91,1.71,1.42,1.42,0,0,1-.95,1.39,1.76,1.76,0,0,1,1.21,1.73,2.23,2.23,0,0,1-4.44,0Zm3.74,0a1.53,1.53,0,0,0-3,0,1.39,1.39,0,0,0,1.52,1.41A1.35,1.35,0,0,0,130.79,67.85ZM128,64.74c0,.59.37,1.12,1.29,1.12s1.23-.43,1.23-1.09a1.12,1.12,0,0,0-1.25-1.15C128.37,63.62,128,64.09,128,64.74Z"/><path class="cls-5" d="M132.51,70.48a5.48,5.48,0,0,0,.38-1.66h.55a4.71,4.71,0,0,1-.44,1.66Z"/><path class="cls-5" d="M138.51,63.15v.6a15.91,15.91,0,0,0-2.63,6h-.7a16.07,16.07,0,0,1,2.6-6h-3.5v-.62Z"/><path class="cls-5" d="M143.65,63.77h-2.79c-.07.59-.25,1.72-.33,2.1a1.81,1.81,0,0,1,1.45-.59,1.94,1.94,0,0,1,2,2.18,2.13,2.13,0,0,1-2.19,2.39,2,2,0,0,1-2.13-1.74h.7a1.41,1.41,0,0,0,1.45,1.15c1,0,1.46-.69,1.46-1.75s-.39-1.62-1.36-1.62a1.41,1.41,0,0,0-1.48.93l-.64-.14c.2-.87.44-2.72.53-3.53h3.45Z"/><path class="cls-5" d="M146.63,69.73V64a4.36,4.36,0,0,1-1.43.68v-.58a4.47,4.47,0,0,0,1.58-1h.54v6.62Z"/><path class="cls-5" d="M186.82,51.06V45.3a4.26,4.26,0,0,1-1.43.68v-.57a4.76,4.76,0,0,0,1.58-1h.54v6.62Z"/><path class="cls-5" d="M193,45.86a1.13,1.13,0,0,0-1.2-.91c-1.19,0-1.6,1.11-1.64,2.69a1.84,1.84,0,0,1,1.74-1,2,2,0,0,1,2,2.2,2.15,2.15,0,0,1-2.15,2.37c-1.78,0-2.27-1.47-2.27-3.32s.59-3.49,2.34-3.49a1.72,1.72,0,0,1,1.87,1.49Zm.19,3c0-.77-.3-1.64-1.4-1.64a1.48,1.48,0,0,0-1.52,1.65c0,.55.28,1.73,1.48,1.73S193.23,49.74,193.23,48.85Z"/><path class="cls-5" d="M195.37,51.06V49.69h.69v1.37Z"/><path class="cls-5" d="M198,51.06V45.3a4.26,4.26,0,0,1-1.43.68v-.57a4.86,4.86,0,0,0,1.58-1h.53v6.62Z"/><path class="cls-5" d="M203.8,46.23a1.66,1.66,0,0,1-1.66,1.88c-1,0-1.6-.78-1.6-1.86a1.67,1.67,0,0,1,1.62-1.88A1.64,1.64,0,0,1,203.8,46.23Zm-2.65,0c0,.78.35,1.34,1,1.34s1-.53,1-1.34-.37-1.32-1-1.32S201.15,45.39,201.15,46.23Zm.83,4.83,4.36-6.58H207l-4.36,6.58Zm6.44-1.75a1.66,1.66,0,0,1-1.65,1.88c-1.07,0-1.61-.82-1.61-1.86a1.67,1.67,0,0,1,1.62-1.88C207.82,47.45,208.42,48.17,208.42,49.31Zm-2.65,0c0,.77.35,1.33,1,1.33s1-.52,1-1.33-.38-1.32-1-1.32S205.77,48.5,205.77,49.31Z"/><path class="cls-5" d="M375.12,51.06V45.3a4.26,4.26,0,0,1-1.43.68v-.57a4.76,4.76,0,0,0,1.58-1h.54v6.62Z"/><path class="cls-5" d="M377.71,49.21a1.78,1.78,0,0,1,1.23-1.72,1.48,1.48,0,0,1-.95-1.4c0-1,.68-1.72,2-1.72a1.71,1.71,0,0,1,1.9,1.7,1.42,1.42,0,0,1-.94,1.39,1.76,1.76,0,0,1,1.21,1.73,2,2,0,0,1-2.26,2A2,2,0,0,1,377.71,49.21Zm3.73,0a1.32,1.32,0,0,0-1.51-1.4,1.34,1.34,0,0,0-1.52,1.39,1.38,1.38,0,0,0,1.52,1.42A1.36,1.36,0,0,0,381.44,49.19Zm-2.76-3.12c0,.6.37,1.12,1.29,1.12s1.22-.43,1.22-1.09A1.11,1.11,0,0,0,380,45C379,45,378.68,45.43,378.68,46.07Z"/><path class="cls-5" d="M386.69,46.23A1.66,1.66,0,0,1,385,48.11c-1,0-1.6-.78-1.6-1.86a1.67,1.67,0,0,1,1.62-1.88A1.64,1.64,0,0,1,386.69,46.23Zm-2.65,0c0,.78.35,1.34,1,1.34s1-.53,1-1.34-.37-1.32-1-1.32S384,45.39,384,46.23Zm.83,4.83,4.36-6.58h.64l-4.35,6.58Zm6.44-1.75a1.66,1.66,0,0,1-1.65,1.88,1.64,1.64,0,0,1-1.61-1.86,1.67,1.67,0,0,1,1.63-1.88C390.72,47.45,391.31,48.17,391.31,49.31Zm-2.65,0c0,.77.36,1.33,1,1.33s1-.52,1-1.33-.38-1.32-1-1.32S388.66,48.5,388.66,49.31Z"/><path class="cls-5" d="M556.43,51.06V45.3A4.26,4.26,0,0,1,555,46v-.57a4.76,4.76,0,0,0,1.58-1h.54v6.62Z"/><path class="cls-5" d="M562.65,45.86a1.12,1.12,0,0,0-1.2-.91c-1.19,0-1.6,1.11-1.63,2.69a1.81,1.81,0,0,1,1.73-1,2,2,0,0,1,2,2.2,2.15,2.15,0,0,1-2.15,2.37c-1.77,0-2.27-1.47-2.27-3.32s.59-3.49,2.35-3.49a1.72,1.72,0,0,1,1.86,1.49Zm.19,3c0-.77-.3-1.64-1.39-1.64a1.48,1.48,0,0,0-1.53,1.65,1.59,1.59,0,0,0,1.49,1.73C562.45,50.59,562.84,49.74,562.84,48.85Z"/><path class="cls-5" d="M565,51.06V49.69h.69v1.37Z"/><path class="cls-5" d="M570.08,51.06V49.29H567v-.63L570,44.49h.71v4.2h.88l-.09.6h-.79v1.77Zm0-4.21c0-.44,0-1.18,0-1.61-.27.49-1.71,2.43-2.45,3.45h2.42Z"/><path class="cls-5" d="M575.92,46.23a1.66,1.66,0,0,1-1.66,1.88c-1,0-1.6-.78-1.6-1.86a1.67,1.67,0,0,1,1.62-1.88A1.63,1.63,0,0,1,575.92,46.23Zm-2.65,0c0,.78.35,1.34,1,1.34s1-.53,1-1.34-.38-1.32-1.05-1.32S573.27,45.39,573.27,46.23Zm.83,4.83,4.36-6.58h.64l-4.36,6.58Zm6.44-1.75a1.66,1.66,0,0,1-1.65,1.88,1.64,1.64,0,0,1-1.61-1.86,1.67,1.67,0,0,1,1.63-1.88C580,47.45,580.54,48.17,580.54,49.31Zm-2.65,0c0,.77.36,1.33,1,1.33s1-.52,1-1.33-.38-1.32-1-1.32S577.89,48.5,577.89,49.31Z"/><path class="cls-5" d="M184.83,69.73V68H181.7v-.63l3.08-4.18h.71v4.2h.87l-.08.61h-.79v1.77Zm0-4.22c0-.43,0-1.17,0-1.61-.27.5-1.71,2.43-2.45,3.45h2.42Z"/><path class="cls-5" d="M188.75,69.73V64a4.46,4.46,0,0,1-1.43.68v-.58a4.56,4.56,0,0,0,1.58-1h.54v6.62Z"/><path class="cls-5" d="M191.31,69.73V68.36H192v1.37Z"/><path class="cls-5" d="M197.57,63.15v.6a16.07,16.07,0,0,0-2.63,6h-.7a16.25,16.25,0,0,1,2.61-6h-3.51v-.62Z"/><path class="cls-5" d="M202.72,63.77h-2.8c-.06.59-.25,1.72-.32,2.1a1.79,1.79,0,0,1,1.45-.59,1.93,1.93,0,0,1,2,2.18,2.13,2.13,0,0,1-2.19,2.39,2,2,0,0,1-2.12-1.74h.69a1.43,1.43,0,0,0,1.46,1.15c1,0,1.46-.69,1.46-1.75s-.39-1.62-1.36-1.62a1.41,1.41,0,0,0-1.48.93l-.65-.14c.21-.87.45-2.72.54-3.53h3.45Z"/><path class="cls-5" d="M207.47,64.9a1.66,1.66,0,0,1-1.66,1.88c-1,0-1.6-.78-1.6-1.87A1.67,1.67,0,0,1,205.83,63C206.85,63,207.47,63.76,207.47,64.9Zm-2.65,0c0,.78.35,1.33,1,1.33s1-.52,1-1.33-.37-1.32-1-1.32S204.82,64.06,204.82,64.9Zm.83,4.83L210,63.15h.64l-4.36,6.58ZM212.09,68a1.66,1.66,0,0,1-1.65,1.88c-1.06,0-1.61-.82-1.61-1.87a1.67,1.67,0,0,1,1.63-1.88C211.49,66.11,212.09,66.84,212.09,68Zm-2.65,0c0,.77.36,1.33,1,1.33s1-.52,1-1.33-.38-1.32-1-1.32S209.44,67.17,209.44,68Z"/><line class="cls-6" x1="234.71" y1="6.05" x2="234.71" y2="76.73"/><line class="cls-7" x1="234.71" y1="0.01" x2="234.71" y2="18.14"/><line class="cls-2" x1="104.23" y1="18.14" x2="104.23" y2="76.73"/><line class="cls-2" x1="159.41" y1="18.14" x2="159.41" y2="76.73"/><line class="cls-6" x1="49.19" y1="6.05" x2="49.19" y2="76.73"/><line class="cls-7" x1="49.19" y1="0.01" x2="49.19" y2="18.14"/><path class="cls-4" d="M246.92,25.8h-2.87v1.48h-.58V25.36h3.45v-.6h-3v-.44h6.74v.44h-3.1v.6H251v1.92h-.6V25.8h-2.92v2.08h-.59Zm3.3,5.75c.48,0,.56-.16.62-1.08a1.48,1.48,0,0,0,.52.2c-.09,1.09-.28,1.37-1.11,1.37h-2.11c-.95,0-1.23-.17-1.23-.86v-.32h-2.09v.48h-.57v-3.1h6.05v2.62h-2.82v.33c0,.3.12.36.68.36Zm-6-4.13,2.13-.3,0,.39c-.71.14-1.38.28-2,.38Zm.39-1.4a9,9,0,0,1,1.77.49l-.18.37a9.34,9.34,0,0,0-1.77-.53Zm.17,2.67v.64h2.09v-.64Zm2.09,1.72v-.66h-2.09v.66Zm2.79-1.72h-2.22v.64h2.22Zm0,1.72v-.66h-2.22v.66Zm.33-2.48a13.34,13.34,0,0,0-2.1-.49l.15-.37a12,12,0,0,1,2.1.45Zm0-1.59a13,13,0,0,1-1.79.52l-.21-.33a14,14,0,0,0,1.73-.54Z"/><path class="cls-4" d="M261,28.55H257.3v2.79c0,.42-.11.6-.44.7a6.66,6.66,0,0,1-1.75.12,2.78,2.78,0,0,0-.27-.62c.75,0,1.4,0,1.6,0s.25-.07.25-.23V28.55h-3.75V28h3.75V26.64A10.93,10.93,0,0,0,259,25.17h-5.2v-.59h5.85l.13,0,.45.35a13.7,13.7,0,0,1-3,2.07v1H261Z"/><path class="cls-4" d="M265.28,24.16a15.56,15.56,0,0,1-.95,1.92v6.05h-.57V26.94a11.15,11.15,0,0,1-1,1.2,3.5,3.5,0,0,0-.34-.58,10.05,10.05,0,0,0,2.3-3.57Zm1.63,5.34a15.17,15.17,0,0,1-1.56,2.21,3.59,3.59,0,0,0-.47-.35,10.37,10.37,0,0,0,1.5-2Zm1.28-.63v3.29h-.61V28.87h-2.65v-.56h2.65V27.19h-2V24.38h4.63v2.81h-2v1.12h2.57v.56Zm-2-2.22h3.46V24.92h-3.46Zm3,2.68a13.65,13.65,0,0,1,1.61,2l-.49.31a14.84,14.84,0,0,0-1.56-2.09Z"/><path class="cls-4" d="M280.37,30.86h-3.69v1.29h-.6V30.86h-3.63v-.53h3.63V29.6h-2.71V26.51h6.17V29.6h-2.86v.73h3.69ZM276,26h-2.9V24.31H276Zm-.56-1.32h-1.79v.91h1.79ZM274,27.82h2.13V27H274Zm2.13,1.3v-.83H274v.83ZM278.93,27h-2.25v.82h2.25Zm0,1.29h-2.25v.83h2.25Zm.8-2.25H276.8V24.31h2.93Zm-.55-1.32h-1.83v.91h1.83Z"/><path class="cls-4" d="M306,28.42v3.72h-.65v-.52H299v-3.2h.64V31h2.53v-3.2h-2.79V24.79H300v2.46h2.16V24h.64v3.29H305V24.78h.65v3.06h-2.85V31h2.55V28.42Z"/><path class="cls-4" d="M316.17,30.86h-3.69v1.29h-.61V30.86h-3.62v-.53h3.62V29.6h-2.71V26.51h6.17V29.6h-2.85v.73h3.69ZM311.84,26h-2.91V24.31h2.91Zm-.57-1.32h-1.79v.91h1.79Zm-1.53,3.1h2.13V27h-2.13Zm2.13,1.3v-.83h-2.13v.83ZM314.72,27h-2.24v.82h2.24Zm0,1.29h-2.24v.83h2.24Zm.8-2.25h-2.93V24.31h2.93ZM315,24.72h-1.83v.91H315Z"/><path class="cls-4" d="M320.45,24.16a15.76,15.76,0,0,1-.9,2v6H319V27.05a10.54,10.54,0,0,1-.88,1.13,3.5,3.5,0,0,0-.34-.58A10.24,10.24,0,0,0,319.88,24ZM325.94,29h-2.46v3.13h-.6V29h-2.6v-.58h2.6V26.39h-1.47a6.52,6.52,0,0,1-.67,1.4,4.9,4.9,0,0,0-.51-.3,7.93,7.93,0,0,0,1.1-3.09l.57.11a10.29,10.29,0,0,1-.31,1.3h1.29V24.07h.6v1.74h2.08v.58h-2.08v2.06h2.46Z"/><path class="cls-4" d="M331.49,29.84a2,2,0,0,1-.79,1.2,11.57,11.57,0,0,1,1.06.53l-.42.37a9.82,9.82,0,0,0-1.11-.6,8.09,8.09,0,0,1-2.52.8,1.62,1.62,0,0,0-.25-.39,9.57,9.57,0,0,0,2.23-.64,13.24,13.24,0,0,0-1.44-.52,5,5,0,0,0,.46-.6l-1.09.06-.06-.46,1.47-.06.43-.74H328V27.36h1.71V27h-1.46V26h-.6v-.47h.6V24.6h1.46V24h.48v.65h1.55v.92h.61V26h-.61v1h-1.55v.39h1.78v1.43H330c-.12.24-.25.47-.4.71l1.42-.07V29h.5v.43l.49,0v.42Zm-3-1.46h1.2v-.6h-1.2Zm.25-3.36v.52h.95V25Zm.95,1.51V26h-.95v.57ZM329.32,30q-.15.22-.3.42c.39.12.79.28,1.18.44a1.81,1.81,0,0,0,.76-.95Zm.84-4.94v.52h1V25Zm1,1.51V26h-1v.57Zm-1,1.25v.6h1.24v-.6Zm4.9-1.55a13.74,13.74,0,0,1-.81,3.47,4.37,4.37,0,0,0,1.53,1.93,1.64,1.64,0,0,0-.37.42A4.61,4.61,0,0,1,334,30.29a5.5,5.5,0,0,1-1.64,1.92,1.37,1.37,0,0,0-.33-.45,5.05,5.05,0,0,0,1.7-2.09,13,13,0,0,1-.68-2.5,6.81,6.81,0,0,1-.51,1.08,5.27,5.27,0,0,0-.42-.37A10.6,10.6,0,0,0,333.26,24l.51.08c-.07.53-.18,1.06-.3,1.58h2.21v.54Zm-1.74,0A15.52,15.52,0,0,0,334,29a13.72,13.72,0,0,0,.56-2.76Z"/><path class="cls-4" d="M357.68,25.8h-2.87v1.48h-.58V25.36h3.45v-.6h-3.05v-.44h6.74v.44h-3.1v.6h3.51v1.92h-.59V25.8h-2.92v2.08h-.59Zm3.3,5.75c.48,0,.56-.16.62-1.08a1.48,1.48,0,0,0,.52.2C362,31.76,361.84,32,361,32H358.9c-.95,0-1.23-.17-1.23-.86v-.32h-2.09v.48H355v-3.1h6.05v2.62h-2.82v.33c0,.3.12.36.68.36Zm-6-4.13,2.13-.3,0,.39c-.71.14-1.38.28-2,.38Zm.39-1.4a9,9,0,0,1,1.77.49l-.18.37a9.34,9.34,0,0,0-1.77-.53Zm.17,2.67v.64h2.09v-.64Zm2.09,1.72v-.66h-2.09v.66Zm2.79-1.72h-2.22v.64h2.22Zm0,1.72v-.66h-2.22v.66Zm.33-2.48a13.34,13.34,0,0,0-2.1-.49l.15-.37a12,12,0,0,1,2.1.45Zm0-1.59a13,13,0,0,1-1.79.52l-.21-.33a14,14,0,0,0,1.73-.54Z"/><path class="cls-4" d="M371.77,28.55h-3.71v2.79c0,.42-.11.6-.44.7a6.66,6.66,0,0,1-1.75.12,2.78,2.78,0,0,0-.27-.62c.75,0,1.4,0,1.6,0s.24-.07.24-.23V28.55H363.7V28h3.74V26.64a11,11,0,0,0,2.36-1.47h-5.2v-.59h5.85l.13,0,.45.35a13.7,13.7,0,0,1-3,2.07v1h3.71Z"/><path class="cls-4" d="M376,24.16a15.56,15.56,0,0,1-1,1.92v6.05h-.57V26.94a11.15,11.15,0,0,1-1,1.2,4.37,4.37,0,0,0-.34-.58,10.05,10.05,0,0,0,2.3-3.57Zm1.63,5.34a15.17,15.17,0,0,1-1.56,2.21,3.59,3.59,0,0,0-.47-.35,10.37,10.37,0,0,0,1.5-2Zm1.28-.63v3.29h-.61V28.87h-2.65v-.56h2.65V27.19h-2V24.38H381v2.81h-2v1.12h2.57v.56Zm-2-2.22h3.46V24.92h-3.46Zm3,2.68a13.65,13.65,0,0,1,1.61,2l-.49.31a14.84,14.84,0,0,0-1.56-2.09Z"/><path class="cls-4" d="M391.13,30.86h-3.69v1.29h-.6V30.86h-3.63v-.53h3.63V29.6h-2.71V26.51h6.17V29.6h-2.86v.73h3.69ZM386.8,26h-2.9V24.31h2.9Zm-.56-1.32h-1.8v.91h1.8Zm-1.53,3.1h2.13V27h-2.13Zm2.13,1.3v-.83h-2.13v.83ZM389.69,27h-2.25v.82h2.25Zm0,1.29h-2.25v.83h2.25Zm.8-2.25h-2.93V24.31h2.93Zm-.55-1.32h-1.83v.91h1.83Z"/><path class="cls-4" d="M396.69,30.36a4.68,4.68,0,0,0,.05.55,17.25,17.25,0,0,0-3.12.95,1.7,1.7,0,0,0-.28-.51.78.78,0,0,0,.34-.66V24h.61v2.79h2.34v.58h-2.34V31Zm3.21,1c.43,0,.5-.34.55-1.64A1.58,1.58,0,0,0,401,30c-.08,1.45-.26,1.94-1.08,1.94h-1.55c-.85,0-1.08-.24-1.08-1.17V24h.6v2.8h2.46v.58H397.9v3.46c0,.49.09.59.53.59Z"/><path class="cls-4" d="M404.62,24.11a15.29,15.29,0,0,1-.62,1.76v6.26h-.56V27a8.31,8.31,0,0,1-.68,1,3.13,3.13,0,0,0-.32-.59,9.71,9.71,0,0,0,1.64-3.5Zm2.78,2.32.35.1c-.28,3.06-1.29,4.76-2.82,5.61a2.71,2.71,0,0,0-.36-.46,4.21,4.21,0,0,0,1.87-2,10.3,10.3,0,0,0-1.3-1.17,5.21,5.21,0,0,1-.4.6,2.49,2.49,0,0,0-.35-.47A7.87,7.87,0,0,0,405.68,25h-.92v-.56h3V25h-1.49c-.09.5-.18,1-.3,1.42h1.39Zm-1.62.58c-.12.37-.26.71-.4,1a11.81,11.81,0,0,1,1.3,1.07,9.69,9.69,0,0,0,.49-2.1Zm3,3h-.52V25h.52Zm1.53-6v7.33c0,.41-.11.59-.36.68a4.69,4.69,0,0,1-1.42.12,2.75,2.75,0,0,0-.21-.61c.56,0,1.06,0,1.21,0s.21-.05.21-.21V24Z"/><path class="cls-5" d="M247.37,51.06v0c0-.88.67-1.88,2-2.9,1.1-.85,1.39-1.12,1.39-1.9A1.16,1.16,0,0,0,249.5,45c-.85,0-1.27.42-1.43,1.31h-.67a2,2,0,0,1,2.1-1.9,1.78,1.78,0,0,1,2,1.82c0,1-.43,1.37-1.64,2.35a4.58,4.58,0,0,0-1.67,1.9h3.58l-.11.62Z"/><path class="cls-5" d="M253.15,51.06v0c0-.88.67-1.88,2-2.9,1.1-.85,1.39-1.12,1.39-1.9A1.16,1.16,0,0,0,255.28,45c-.85,0-1.28.42-1.43,1.31h-.67a2,2,0,0,1,2.1-1.9,1.78,1.78,0,0,1,2,1.82c0,1-.43,1.37-1.64,2.35a4.51,4.51,0,0,0-1.67,1.9h3.58l-.11.62Z"/><path class="cls-5" d="M258.39,51.82a5.6,5.6,0,0,0,.38-1.67h.55a5.17,5.17,0,0,1-.44,1.67Z"/><path class="cls-5" d="M264.52,45.1h-2.79c-.07.59-.25,1.72-.33,2.11a1.78,1.78,0,0,1,1.45-.6,1.94,1.94,0,0,1,2,2.18,2.13,2.13,0,0,1-2.19,2.39,2,2,0,0,1-2.13-1.74h.7a1.4,1.4,0,0,0,1.45,1.15c1,0,1.46-.69,1.46-1.75s-.38-1.62-1.36-1.62a1.41,1.41,0,0,0-1.48.94l-.64-.15c.2-.87.44-2.72.53-3.52h3.45Z"/><path class="cls-5" d="M270.35,45.1h-2.79c-.07.59-.25,1.72-.33,2.11a1.78,1.78,0,0,1,1.45-.6,1.94,1.94,0,0,1,2,2.18,2.13,2.13,0,0,1-2.19,2.39,2,2,0,0,1-2.13-1.74h.7a1.41,1.41,0,0,0,1.46,1.15c1,0,1.45-.69,1.45-1.75s-.38-1.62-1.36-1.62a1.41,1.41,0,0,0-1.48.94l-.64-.15c.2-.87.44-2.72.53-3.52h3.45Z"/><path class="cls-5" d="M276.52,47.73c0,1.56-.42,3.45-2.22,3.45s-2.21-1.75-2.21-3.41.5-3.4,2.24-3.4S276.52,46.11,276.52,47.73Zm-3.7.05c0,1.27.25,2.8,1.49,2.8s1.49-1.46,1.49-2.85S275.56,45,274.34,45,272.82,46.33,272.82,47.78Z"/><path class="cls-5" d="M251.6,69.73V68h-3.14v-.63l3.09-4.18h.71v4.2h.87l-.08.61h-.79v1.77Zm0-4.22c0-.43,0-1.17,0-1.61-.27.5-1.71,2.43-2.44,3.45h2.42Z"/><path class="cls-5" d="M258,64.52a1.14,1.14,0,0,0-1.21-.9c-1.19,0-1.6,1.11-1.63,2.69a1.8,1.8,0,0,1,1.73-1,2,2,0,0,1,2,2.19,2.15,2.15,0,0,1-2.14,2.38c-1.78,0-2.27-1.47-2.27-3.32S255,63,256.77,63a1.72,1.72,0,0,1,1.86,1.49Zm.18,3c0-.77-.3-1.65-1.39-1.65a1.49,1.49,0,0,0-1.53,1.66c0,.54.29,1.73,1.49,1.73C257.74,69.26,258.13,68.4,258.13,67.52Z"/><path class="cls-5" d="M259.85,70.48a5.48,5.48,0,0,0,.38-1.66h.55a5.18,5.18,0,0,1-.44,1.66Z"/><path class="cls-5" d="M263.22,69.73V64a4.36,4.36,0,0,1-1.43.68v-.58a4.47,4.47,0,0,0,1.58-1h.54v6.62Z"/><path class="cls-5" d="M269.94,63.15v.6a16.05,16.05,0,0,0-2.62,6h-.71a16.25,16.25,0,0,1,2.61-6h-3.5v-.62Z"/><path class="cls-5" d="M275.09,63.77H272.3c-.07.59-.25,1.72-.33,2.1a1.79,1.79,0,0,1,1.45-.59,1.94,1.94,0,0,1,2,2.18,2.13,2.13,0,0,1-2.2,2.39,2,2,0,0,1-2.12-1.74h.7a1.41,1.41,0,0,0,1.45,1.15c1,0,1.46-.69,1.46-1.75s-.39-1.62-1.36-1.62a1.41,1.41,0,0,0-1.48.93l-.65-.14c.21-.87.45-2.72.54-3.53h3.45Z"/><path class="cls-5" d="M302.4,51.06V45.3A4.26,4.26,0,0,1,301,46v-.57a4.76,4.76,0,0,0,1.58-1h.54v6.62Z"/><path class="cls-5" d="M305,51.06v0c0-.88.67-1.88,2-2.9,1.1-.85,1.39-1.12,1.39-1.9A1.16,1.16,0,0,0,307.16,45c-.85,0-1.28.42-1.43,1.31h-.67a2,2,0,0,1,2.1-1.9,1.78,1.78,0,0,1,2,1.82c0,1-.43,1.37-1.64,2.35a4.51,4.51,0,0,0-1.67,1.9h3.57l-.1.62Z"/><path class="cls-5" d="M314.63,45.1h-2.8c-.06.59-.24,1.72-.32,2.11a1.76,1.76,0,0,1,1.45-.6,1.94,1.94,0,0,1,2,2.18,2.13,2.13,0,0,1-2.2,2.39,2,2,0,0,1-2.12-1.74h.7a1.4,1.4,0,0,0,1.45,1.15c1,0,1.46-.69,1.46-1.75s-.39-1.62-1.36-1.62a1.41,1.41,0,0,0-1.48.94l-.65-.15c.21-.87.45-2.72.54-3.52h3.45Z"/><path class="cls-5" d="M316,51.82a5.6,5.6,0,0,0,.38-1.67h.55a5.17,5.17,0,0,1-.44,1.67Z"/><path class="cls-5" d="M321,51.06V49.29h-3.13v-.63L321,44.49h.71v4.2h.88l-.09.6h-.79v1.77Zm0-4.21c0-.44,0-1.18,0-1.61-.27.49-1.71,2.43-2.45,3.45H321Z"/><path class="cls-5" d="M327.89,45.1h-2.8c-.06.59-.24,1.72-.32,2.11a1.76,1.76,0,0,1,1.45-.6,1.94,1.94,0,0,1,2,2.18,2.13,2.13,0,0,1-2.2,2.39,2,2,0,0,1-2.12-1.74h.7A1.4,1.4,0,0,0,326,50.59c1,0,1.46-.69,1.46-1.75s-.39-1.62-1.36-1.62a1.41,1.41,0,0,0-1.48.94L324,48c.21-.87.45-2.72.54-3.52H328Z"/><path class="cls-5" d="M333.61,44.49v.59a15.91,15.91,0,0,0-2.63,6h-.71a16.25,16.25,0,0,1,2.61-6h-3.5v-.61Z"/><path class="cls-5" d="M302.36,69.73V64a4.32,4.32,0,0,1-1.42.68v-.58a4.66,4.66,0,0,0,1.58-1h.53v6.62Z"/><path class="cls-5" d="M305.11,64.67a1.85,1.85,0,0,1,2-1.64,1.69,1.69,0,0,1,1.9,1.68,1.38,1.38,0,0,1-.9,1.37v0a1.64,1.64,0,0,1,1.2,1.69,2,2,0,0,1-2.22,2.06,2,2,0,0,1-2.18-1.78h.68a1.48,1.48,0,0,0,1.54,1.19,1.35,1.35,0,0,0,1.46-1.46c0-1-.62-1.38-1.55-1.38h-.43v-.58H307c.94,0,1.36-.38,1.36-1.12a1.09,1.09,0,0,0-1.24-1.09,1.2,1.2,0,0,0-1.31,1Z"/><path class="cls-5" d="M314.85,63.77h-2.79c-.07.59-.25,1.72-.32,2.1a1.79,1.79,0,0,1,1.45-.59,1.93,1.93,0,0,1,2,2.18A2.13,2.13,0,0,1,313,69.85a2,2,0,0,1-2.12-1.74h.69A1.42,1.42,0,0,0,313,69.26c1,0,1.46-.69,1.46-1.75s-.39-1.62-1.36-1.62a1.43,1.43,0,0,0-1.49.93l-.64-.14c.2-.87.44-2.72.54-3.53H315Z"/><path class="cls-5" d="M316.19,70.48a5.75,5.75,0,0,0,.37-1.66h.55a4.71,4.71,0,0,1-.44,1.66Z"/><path class="cls-5" d="M318.2,69.73v0c0-.88.66-1.88,2-2.91,1.1-.85,1.39-1.11,1.39-1.89a1.15,1.15,0,0,0-1.25-1.26c-.86,0-1.28.42-1.44,1.31h-.67A2,2,0,0,1,320.33,63a1.78,1.78,0,0,1,2,1.83c0,1-.42,1.37-1.64,2.34A4.67,4.67,0,0,0,319,69.11h3.58l-.11.62Z"/><path class="cls-5" d="M324,69.73v0c0-.88.66-1.88,2-2.91,1.1-.85,1.39-1.11,1.39-1.89a1.15,1.15,0,0,0-1.25-1.26c-.86,0-1.28.42-1.44,1.31H324A2,2,0,0,1,326.11,63a1.78,1.78,0,0,1,2,1.83c0,1-.42,1.37-1.64,2.34a4.67,4.67,0,0,0-1.67,1.91h3.58l-.11.62Z"/><path class="cls-5" d="M333.64,63.15v.6a16.07,16.07,0,0,0-2.63,6h-.7a16.25,16.25,0,0,1,2.61-6h-3.51v-.62Z"/><path class="cls-5" d="M367.55,64.67a1.84,1.84,0,0,1,2-1.64,1.69,1.69,0,0,1,1.9,1.68,1.38,1.38,0,0,1-.9,1.37v0a1.63,1.63,0,0,1,1.19,1.69,2,2,0,0,1-2.21,2.06,2,2,0,0,1-2.19-1.78H368a1.5,1.5,0,0,0,1.55,1.19A1.35,1.35,0,0,0,371,67.8c0-1-.62-1.38-1.55-1.38h-.43v-.58h.35c.94,0,1.35-.38,1.35-1.12a1.08,1.08,0,0,0-1.23-1.09,1.22,1.22,0,0,0-1.32,1Z"/><path class="cls-5" d="M376.29,69.73V68h-3.14v-.63l3.09-4.18H377v4.2h.87l-.08.61H377v1.77Zm0-4.22c0-.43,0-1.17,0-1.61-.27.5-1.71,2.43-2.44,3.45h2.42Z"/><path class="cls-5" d="M379.07,69.73V68.36h.69v1.37Z"/><path class="cls-5" d="M381.73,69.73V64a4.36,4.36,0,0,1-1.43.68v-.58a4.56,4.56,0,0,0,1.58-1h.54v6.62Z"/><path class="cls-5" d="M388.41,63.77h-2.8c-.06.59-.24,1.72-.32,2.1a1.79,1.79,0,0,1,1.45-.59,1.93,1.93,0,0,1,2,2.18,2.13,2.13,0,0,1-2.19,2.39,2,2,0,0,1-2.12-1.74h.7a1.41,1.41,0,0,0,1.45,1.15c1,0,1.46-.69,1.46-1.75s-.39-1.62-1.36-1.62a1.41,1.41,0,0,0-1.48.93l-.65-.14c.21-.87.45-2.72.54-3.53h3.45Z"/><path class="cls-5" d="M393.16,64.9a1.66,1.66,0,0,1-1.65,1.88c-1.05,0-1.61-.78-1.61-1.87A1.68,1.68,0,0,1,391.52,63C392.55,63,393.16,63.76,393.16,64.9Zm-2.65,0c0,.78.35,1.33,1,1.33s1-.52,1-1.33-.38-1.32-1-1.32S390.51,64.06,390.51,64.9Zm.83,4.83,4.36-6.58h.65L392,69.73ZM397.79,68a1.66,1.66,0,0,1-1.66,1.88c-1.06,0-1.61-.82-1.61-1.87a1.67,1.67,0,0,1,1.63-1.88C397.19,66.11,397.79,66.84,397.79,68Zm-2.66,0c0,.77.36,1.33,1,1.33s1-.52,1-1.33-.38-1.32-1-1.32S395.13,67.17,395.13,68Z"/><line class="cls-2" x1="289.83" y1="18.14" x2="289.83" y2="76.73"/><line class="cls-2" x1="345.01" y1="18.14" x2="345.01" y2="76.73"/><line class="cls-6" x1="419.98" y1="6.05" x2="419.98" y2="76.73"/><line class="cls-7" x1="419.98" y1="0.01" x2="419.98" y2="18.14"/><path class="cls-4" d="M432.19,25.8h-2.87v1.48h-.58V25.36h3.45v-.6h-3.05v-.44h6.74v.44h-3.1v.6h3.51v1.92h-.59V25.8h-2.92v2.08h-.59Zm3.3,5.75c.48,0,.56-.16.62-1.08a1.48,1.48,0,0,0,.52.2c-.09,1.09-.28,1.37-1.11,1.37H433.4c-.94,0-1.22-.17-1.22-.86v-.32h-2.09v.48h-.57v-3.1h6.05v2.62h-2.82v.33c0,.3.11.36.68.36Zm-6-4.13,2.13-.3,0,.39c-.71.14-1.38.28-2,.38Zm.39-1.4a9,9,0,0,1,1.77.49l-.18.37a9.34,9.34,0,0,0-1.77-.53Zm.17,2.67v.64h2.09v-.64Zm2.09,1.72v-.66h-2.09v.66ZM435,28.69h-2.22v.64H435Zm0,1.72v-.66h-2.22v.66Zm.33-2.48a13.34,13.34,0,0,0-2.1-.49l.15-.37a12.22,12.22,0,0,1,2.1.45Zm0-1.59a13,13,0,0,1-1.79.52l-.21-.33A14,14,0,0,0,435,26Z"/><path class="cls-4" d="M446.28,28.55h-3.71v2.79c0,.42-.11.6-.44.7a6.66,6.66,0,0,1-1.75.12,2.78,2.78,0,0,0-.27-.62c.75,0,1.4,0,1.6,0s.24-.07.24-.23V28.55h-3.74V28H442V26.64a11,11,0,0,0,2.36-1.47h-5.2v-.59H445l.13,0,.45.35a13.7,13.7,0,0,1-3,2.07v1h3.71Z"/><path class="cls-4" d="M450.55,24.16a15.56,15.56,0,0,1-.95,1.92v6.05H449V26.94a11.15,11.15,0,0,1-1,1.2,4.37,4.37,0,0,0-.34-.58A10.05,10.05,0,0,0,450,24Zm1.63,5.34a15.17,15.17,0,0,1-1.56,2.21,3.59,3.59,0,0,0-.47-.35,10.37,10.37,0,0,0,1.5-2Zm1.28-.63v3.29h-.61V28.87H450.2v-.56h2.65V27.19h-2V24.38h4.64v2.81h-2v1.12H456v.56Zm-2-2.22h3.46V24.92h-3.46Zm3,2.68a13.65,13.65,0,0,1,1.61,2l-.49.31A14.84,14.84,0,0,0,454,29.58Z"/><path class="cls-4" d="M465.64,30.86H462v1.29h-.6V30.86h-3.63v-.53h3.63V29.6h-2.71V26.51h6.17V29.6H462v.73h3.69ZM461.31,26h-2.9V24.31h2.9Zm-.56-1.32H459v.91h1.8Zm-1.53,3.1h2.13V27h-2.13Zm2.13,1.3v-.83h-2.13v.83ZM464.19,27H462v.82h2.24Zm0,1.29H462v.83h2.24ZM465,26h-2.93V24.31H465Zm-.55-1.32h-1.83v.91h1.83Z"/><path class="cls-4" d="M491.26,28.42v3.72h-.65v-.52h-6.36v-3.2h.64V31h2.52v-3.2h-2.78V24.79h.62v2.46h2.16V24h.65v3.29h2.2V24.78h.65v3.06h-2.85V31h2.55V28.42Z"/><path class="cls-4" d="M501.44,30.86h-3.69v1.29h-.61V30.86h-3.62v-.53h3.62V29.6h-2.71V26.51h6.17V29.6h-2.85v.73h3.69ZM497.11,26H494.2V24.31h2.91Zm-.57-1.32h-1.79v.91h1.79ZM495,27.82h2.13V27H495Zm2.13,1.3v-.83H495v.83ZM500,27h-2.24v.82H500Zm0,1.29h-2.24v.83H500Zm.8-2.25h-2.93V24.31h2.93Zm-.55-1.32h-1.83v.91h1.83Z"/><path class="cls-4" d="M505.72,24.16a15.76,15.76,0,0,1-.9,2v6h-.57V27.05a10.54,10.54,0,0,1-.88,1.13,3.5,3.5,0,0,0-.34-.58A10.24,10.24,0,0,0,505.15,24ZM511.21,29h-2.46v3.13h-.6V29h-2.6v-.58h2.6V26.39h-1.47a6.52,6.52,0,0,1-.67,1.4,4.9,4.9,0,0,0-.51-.3,7.93,7.93,0,0,0,1.1-3.09l.57.11a10.29,10.29,0,0,1-.31,1.3h1.29V24.07h.6v1.74h2.08v.58h-2.08v2.06h2.46Z"/><path class="cls-4" d="M516.76,29.84A2,2,0,0,1,516,31a11.57,11.57,0,0,1,1.06.53l-.42.37a9.82,9.82,0,0,0-1.11-.6,8.09,8.09,0,0,1-2.52.8,1.62,1.62,0,0,0-.25-.39,9.32,9.32,0,0,0,2.22-.64,12.38,12.38,0,0,0-1.43-.52A5,5,0,0,0,514,30l-1.09.06-.06-.46,1.47-.06.43-.74h-1.49V27.36H515V27h-1.46V26h-.6v-.47h.6V24.6H515V24h.48v.65H517v.92h.61V26H517v1h-1.55v.39h1.78v1.43h-1.92c-.12.24-.25.47-.4.71l1.42-.07V29h.5v.43l.49,0v.42Zm-3-1.46H515v-.6h-1.2ZM514,25v.52h1V25Zm1,1.51V26h-1v.57ZM514.59,30q-.15.22-.3.42c.39.12.79.28,1.18.44a1.81,1.81,0,0,0,.76-.95Zm.84-4.94v.52h1V25Zm1,1.51V26h-1v.57Zm-1,1.25v.6h1.23v-.6Zm4.9-1.55a13.74,13.74,0,0,1-.81,3.47,4.37,4.37,0,0,0,1.53,1.93,1.64,1.64,0,0,0-.37.42,4.61,4.61,0,0,1-1.44-1.76,5.5,5.5,0,0,1-1.64,1.92,1.37,1.37,0,0,0-.33-.45,5.05,5.05,0,0,0,1.7-2.09,13,13,0,0,1-.68-2.5,6.81,6.81,0,0,1-.51,1.08,5.27,5.27,0,0,0-.42-.37A10.6,10.6,0,0,0,518.53,24l.51.08c-.07.53-.18,1.06-.3,1.58H521v.54Zm-1.74,0a15.52,15.52,0,0,0,.64,2.76,13.72,13.72,0,0,0,.56-2.76Z"/><path class="cls-4" d="M543,25.8h-2.87v1.48h-.58V25.36H543v-.6H539.9v-.44h6.74v.44h-3.11v.6h3.52v1.92h-.59V25.8h-2.93v2.08H543Zm3.29,5.75c.49,0,.57-.16.63-1.08a1.48,1.48,0,0,0,.52.2c-.09,1.09-.28,1.37-1.11,1.37h-2.12c-.94,0-1.22-.17-1.22-.86v-.32h-2.09v.48h-.57v-3.1h6.05v2.62h-2.82v.33c0,.3.11.36.68.36Zm-6-4.13,2.14-.3,0,.39c-.71.14-1.38.28-2,.38Zm.4-1.4a8.68,8.68,0,0,1,1.76.49l-.17.37a9.34,9.34,0,0,0-1.77-.53Zm.17,2.67v.64h2.09v-.64Zm2.09,1.72v-.66h-2.09v.66Zm2.79-1.72h-2.22v.64h2.22Zm0,1.72v-.66h-2.22v.66Zm.33-2.48a13.34,13.34,0,0,0-2.1-.49l.15-.37a12.22,12.22,0,0,1,2.1.45Zm0-1.59a13,13,0,0,1-1.79.52l-.21-.33A14,14,0,0,0,545.8,26Z"/><path class="cls-4" d="M557,28.55h-3.71v2.79c0,.42-.11.6-.44.7a6.66,6.66,0,0,1-1.75.12,2.78,2.78,0,0,0-.27-.62c.75,0,1.4,0,1.6,0s.24-.07.24-.23V28.55H549V28h3.74V26.64a11,11,0,0,0,2.36-1.47h-5.2v-.59h5.85l.13,0,.45.35a13.7,13.7,0,0,1-3,2.07v1H557Z"/><path class="cls-4" d="M561.31,24.16a15.56,15.56,0,0,1-.95,1.92v6.05h-.57V26.94a11.15,11.15,0,0,1-1,1.2,4.37,4.37,0,0,0-.34-.58,10.05,10.05,0,0,0,2.3-3.57Zm1.63,5.34a15.17,15.17,0,0,1-1.56,2.21,3.59,3.59,0,0,0-.47-.35,10.37,10.37,0,0,0,1.5-2Zm1.28-.63v3.29h-.61V28.87H561v-.56h2.65V27.19h-2V24.38h4.64v2.81h-2v1.12h2.57v.56Zm-2-2.22h3.46V24.92H562.2Zm3,2.68a13.65,13.65,0,0,1,1.61,2l-.49.31a14.84,14.84,0,0,0-1.56-2.09Z"/><path class="cls-4" d="M576.4,30.86h-3.69v1.29h-.6V30.86h-3.63v-.53h3.63V29.6H569.4V26.51h6.17V29.6h-2.86v.73h3.69ZM572.07,26h-2.9V24.31h2.9Zm-.56-1.32h-1.8v.91h1.8ZM570,27.82h2.13V27H570Zm2.13,1.3v-.83H570v.83ZM575,27h-2.24v.82H575Zm0,1.29h-2.24v.83H575Zm.81-2.25h-2.93V24.31h2.93Zm-.55-1.32h-1.83v.91h1.83Z"/><path class="cls-4" d="M582,30.36a4.68,4.68,0,0,0,0,.55,17.25,17.25,0,0,0-3.12.95,1.7,1.7,0,0,0-.28-.51.78.78,0,0,0,.34-.66V24h.61v2.79h2.34v.58h-2.34V31Zm3.21,1c.43,0,.49-.34.55-1.64a1.58,1.58,0,0,0,.56.26c-.08,1.45-.26,1.94-1.08,1.94h-1.55c-.85,0-1.08-.24-1.08-1.17V24h.6v2.8h2.46v.58h-2.46v3.46c0,.49.09.59.53.59Z"/><path class="cls-4" d="M589.89,24.11a15.29,15.29,0,0,1-.62,1.76v6.26h-.56V27a8.31,8.31,0,0,1-.68,1,3.13,3.13,0,0,0-.32-.59,9.71,9.71,0,0,0,1.64-3.5Zm2.78,2.32.35.1c-.28,3.06-1.29,4.76-2.82,5.61a2.71,2.71,0,0,0-.36-.46,4.21,4.21,0,0,0,1.87-2,10.3,10.3,0,0,0-1.3-1.17,5.21,5.21,0,0,1-.4.6,2.49,2.49,0,0,0-.35-.47A7.87,7.87,0,0,0,591,25H590v-.56h3V25h-1.5a14.24,14.24,0,0,1-.29,1.42h1.38ZM591,27a8.84,8.84,0,0,1-.39,1,11.81,11.81,0,0,1,1.3,1.07,9.69,9.69,0,0,0,.49-2.1Zm3,3h-.52V25h.52Zm1.53-6v7.33c0,.41-.11.59-.36.68a4.69,4.69,0,0,1-1.42.12,2.75,2.75,0,0,0-.21-.61c.56,0,1.06,0,1.21,0s.21-.05.21-.21V24Z"/><path class="cls-5" d="M432.43,51.06V45.3A4.26,4.26,0,0,1,431,46v-.57a4.76,4.76,0,0,0,1.58-1h.54v6.62Z"/><path class="cls-5" d="M435.18,46a1.83,1.83,0,0,1,2-1.63A1.69,1.69,0,0,1,439.08,46a1.37,1.37,0,0,1-.9,1.37v0a1.63,1.63,0,0,1,1.19,1.69,2,2,0,0,1-2.22,2.06A2,2,0,0,1,435,49.4h.68a1.5,1.5,0,0,0,1.55,1.19,1.35,1.35,0,0,0,1.46-1.46c0-1-.62-1.38-1.55-1.38h-.43v-.57H437c.93,0,1.35-.39,1.35-1.12a1.08,1.08,0,0,0-1.23-1.1,1.23,1.23,0,0,0-1.32,1Z"/><path class="cls-5" d="M440.7,51.06v0c0-.88.67-1.88,2-2.9,1.1-.85,1.39-1.12,1.39-1.9A1.16,1.16,0,0,0,442.83,45c-.85,0-1.28.42-1.43,1.31h-.67a2,2,0,0,1,2.1-1.9,1.78,1.78,0,0,1,2,1.82c0,1-.43,1.37-1.65,2.35a4.54,4.54,0,0,0-1.66,1.9h3.57l-.1.62Z"/><path class="cls-5" d="M445.94,51.82a5.6,5.6,0,0,0,.38-1.67h.55a5.17,5.17,0,0,1-.44,1.67Z"/><path class="cls-5" d="M452.44,47.73c0,1.56-.43,3.45-2.22,3.45S448,49.43,448,47.77s.5-3.4,2.24-3.4S452.44,46.11,452.44,47.73Zm-3.7.05c0,1.27.24,2.8,1.48,2.8s1.5-1.46,1.5-2.85S451.48,45,450.26,45,448.74,46.33,448.74,47.78Z"/><path class="cls-5" d="M458.34,47.73c0,1.56-.43,3.45-2.22,3.45s-2.21-1.75-2.21-3.41.5-3.4,2.24-3.4S458.34,46.11,458.34,47.73Zm-3.7.05c0,1.27.24,2.8,1.48,2.8s1.5-1.46,1.5-2.85S457.38,45,456.16,45,454.64,46.33,454.64,47.78Z"/><path class="cls-5" d="M463.65,44.49v.59a16.09,16.09,0,0,0-2.64,6h-.7a16.25,16.25,0,0,1,2.61-6h-3.51v-.61Z"/><path class="cls-5" d="M430.3,64.67a1.83,1.83,0,0,1,2-1.64,1.7,1.7,0,0,1,1.91,1.68,1.38,1.38,0,0,1-.9,1.37v0a1.63,1.63,0,0,1,1.19,1.69,2,2,0,0,1-2.21,2.06,2,2,0,0,1-2.19-1.78h.68a1.5,1.5,0,0,0,1.55,1.19,1.35,1.35,0,0,0,1.46-1.46c0-1-.62-1.38-1.55-1.38h-.43v-.58h.35c.93,0,1.35-.38,1.35-1.12a1.08,1.08,0,0,0-1.23-1.09,1.22,1.22,0,0,0-1.32,1Z"/><path class="cls-5" d="M436,64.67A1.83,1.83,0,0,1,438,63a1.7,1.7,0,0,1,1.91,1.68,1.38,1.38,0,0,1-.9,1.37v0a1.63,1.63,0,0,1,1.19,1.69A2,2,0,0,1,438,69.85a2,2,0,0,1-2.19-1.78h.68A1.5,1.5,0,0,0,438,69.26a1.35,1.35,0,0,0,1.46-1.46c0-1-.62-1.38-1.55-1.38h-.43v-.58h.35c.93,0,1.35-.38,1.35-1.12A1.08,1.08,0,0,0,438,63.63a1.22,1.22,0,0,0-1.32,1Z"/><path class="cls-5" d="M441.7,64.67a1.83,1.83,0,0,1,2-1.64,1.7,1.7,0,0,1,1.91,1.68,1.39,1.39,0,0,1-.9,1.37v0a1.63,1.63,0,0,1,1.19,1.69,2,2,0,0,1-2.21,2.06,2,2,0,0,1-2.19-1.78h.68a1.5,1.5,0,0,0,1.55,1.19,1.35,1.35,0,0,0,1.46-1.46c0-1-.62-1.38-1.55-1.38h-.43v-.58h.35c.93,0,1.35-.38,1.35-1.12a1.08,1.08,0,0,0-1.23-1.09,1.22,1.22,0,0,0-1.32,1Z"/><path class="cls-5" d="M447,70.48a5.48,5.48,0,0,0,.38-1.66h.55a5.18,5.18,0,0,1-.44,1.66Z"/><path class="cls-5" d="M453,63.15v.6a16.23,16.23,0,0,0-2.63,6h-.7a16.25,16.25,0,0,1,2.61-6h-3.5v-.62Z"/><path class="cls-5" d="M458.59,66.39c0,1.57-.43,3.46-2.22,3.46s-2.21-1.75-2.21-3.41.5-3.41,2.24-3.41S458.59,64.78,458.59,66.39Zm-3.7.06c0,1.26.24,2.8,1.48,2.8s1.5-1.47,1.5-2.86-.24-2.76-1.46-2.76S454.89,65,454.89,66.45Z"/><path class="cls-5" d="M460,67.88a1.79,1.79,0,0,1,1.24-1.72,1.48,1.48,0,0,1-.95-1.41c0-1,.68-1.72,2-1.72a1.72,1.72,0,0,1,1.9,1.71,1.42,1.42,0,0,1-.94,1.39,1.76,1.76,0,0,1,1.2,1.73,2.23,2.23,0,0,1-4.44,0Zm3.74,0a1.32,1.32,0,0,0-1.51-1.39,1.34,1.34,0,0,0-1.52,1.39,1.38,1.38,0,0,0,1.52,1.41A1.35,1.35,0,0,0,463.74,67.85ZM461,64.74c0,.59.37,1.12,1.29,1.12s1.22-.43,1.22-1.09a1.12,1.12,0,0,0-1.24-1.15C461.33,63.62,461,64.09,461,64.74Z"/><path class="cls-5" d="M484.88,49.21a1.8,1.8,0,0,1,1.23-1.72,1.48,1.48,0,0,1-.94-1.4c0-1,.68-1.72,2-1.72a1.71,1.71,0,0,1,1.91,1.7,1.41,1.41,0,0,1-.95,1.39,1.75,1.75,0,0,1,1.21,1.73,2.23,2.23,0,0,1-4.44,0Zm3.74,0a1.32,1.32,0,0,0-1.51-1.4,1.34,1.34,0,0,0-1.53,1.39,1.39,1.39,0,0,0,1.52,1.42A1.36,1.36,0,0,0,488.62,49.19Zm-2.77-3.12c0,.6.37,1.12,1.29,1.12s1.23-.43,1.23-1.09A1.12,1.12,0,0,0,487.12,45C486.2,45,485.85,45.43,485.85,46.07Z"/><path class="cls-5" d="M495.14,47.73c0,1.56-.42,3.45-2.21,3.45s-2.21-1.75-2.21-3.41.49-3.4,2.23-3.4S495.14,46.11,495.14,47.73Zm-3.7.05c0,1.27.25,2.8,1.49,2.8s1.49-1.46,1.49-2.85S494.18,45,493,45,491.44,46.33,491.44,47.78Z"/><path class="cls-5" d="M500.73,45.1h-2.79c-.07.59-.25,1.72-.32,2.11a1.76,1.76,0,0,1,1.45-.6,1.94,1.94,0,0,1,2,2.18,2.13,2.13,0,0,1-2.19,2.39,2,2,0,0,1-2.12-1.74h.69a1.41,1.41,0,0,0,1.46,1.15c1,0,1.46-.69,1.46-1.75s-.39-1.62-1.36-1.62a1.42,1.42,0,0,0-1.49.94l-.64-.15c.2-.87.44-2.72.53-3.52h3.46Z"/><path class="cls-5" d="M502.07,51.82a5.89,5.89,0,0,0,.37-1.67H503a4.71,4.71,0,0,1-.44,1.67Z"/><path class="cls-5" d="M508.19,45.1H505.4c-.07.59-.25,1.72-.32,2.11a1.76,1.76,0,0,1,1.45-.6,1.94,1.94,0,0,1,2,2.18,2.13,2.13,0,0,1-2.19,2.39,2,2,0,0,1-2.12-1.74h.69a1.41,1.41,0,0,0,1.46,1.15c1,0,1.46-.69,1.46-1.75s-.39-1.62-1.36-1.62a1.42,1.42,0,0,0-1.49.94L504.3,48c.2-.87.44-2.72.53-3.52h3.46Z"/><path class="cls-5" d="M510.64,49.69a1.21,1.21,0,0,0,1.27.89c1.4,0,1.51-2,1.54-2.82a1.7,1.7,0,0,1-1.65.87,1.92,1.92,0,0,1-2-2.08A2.05,2.05,0,0,1,512,44.37c1.56,0,2.16,1.23,2.16,3s-.32,3.78-2.25,3.78a1.81,1.81,0,0,1-1.95-1.48Zm-.1-3.16a1.34,1.34,0,0,0,1.35,1.5,1.29,1.29,0,0,0,1.46-1.47,1.45,1.45,0,0,0-1.41-1.6C511,45,510.54,45.65,510.54,46.53Z"/><path class="cls-5" d="M520,47.73c0,1.56-.42,3.45-2.21,3.45s-2.21-1.75-2.21-3.41.49-3.4,2.23-3.4S520,46.11,520,47.73Zm-3.7.05c0,1.27.25,2.8,1.49,2.8s1.49-1.46,1.49-2.85S519.07,45,517.85,45,516.33,46.33,516.33,47.78Z"/><path class="cls-5" d="M485.48,67.88a1.78,1.78,0,0,1,1.23-1.72,1.48,1.48,0,0,1-.95-1.41c0-1,.68-1.72,2-1.72a1.72,1.72,0,0,1,1.9,1.71,1.42,1.42,0,0,1-.94,1.39,1.76,1.76,0,0,1,1.21,1.73,2,2,0,0,1-2.26,2A2,2,0,0,1,485.48,67.88Zm3.73,0a1.32,1.32,0,0,0-1.51-1.39,1.34,1.34,0,0,0-1.52,1.39,1.38,1.38,0,0,0,1.52,1.41A1.35,1.35,0,0,0,489.21,67.85Zm-2.76-3.11c0,.59.37,1.12,1.29,1.12s1.22-.43,1.22-1.09a1.11,1.11,0,0,0-1.24-1.15C486.8,63.62,486.45,64.09,486.45,64.74Z"/><path class="cls-5" d="M491.25,69.73v0c0-.88.67-1.88,2-2.91,1.1-.85,1.39-1.11,1.39-1.89a1.16,1.16,0,0,0-1.26-1.26c-.85,0-1.28.42-1.43,1.31h-.67a2,2,0,0,1,2.1-1.91,1.78,1.78,0,0,1,2,1.83c0,1-.43,1.37-1.65,2.34A4.55,4.55,0,0,0,492,69.11h3.57l-.1.62Z"/><path class="cls-5" d="M497,64.67A1.83,1.83,0,0,1,499,63a1.7,1.7,0,0,1,1.91,1.68,1.39,1.39,0,0,1-.9,1.37v0a1.63,1.63,0,0,1,1.19,1.69,2,2,0,0,1-2.21,2.06,2,2,0,0,1-2.19-1.78h.68A1.5,1.5,0,0,0,499,69.26a1.35,1.35,0,0,0,1.46-1.46c0-1-.62-1.38-1.55-1.38h-.43v-.58h.35c.93,0,1.35-.38,1.35-1.12a1.08,1.08,0,0,0-1.23-1.09,1.22,1.22,0,0,0-1.32,1Z"/><path class="cls-5" d="M502.26,70.48a5.48,5.48,0,0,0,.38-1.66h.55a5.18,5.18,0,0,1-.44,1.66Z"/><path class="cls-5" d="M505.07,68.35a1.2,1.2,0,0,0,1.27.9c1.4,0,1.51-2,1.54-2.82a1.69,1.69,0,0,1-1.64.87,1.93,1.93,0,0,1-2-2.09A2.06,2.06,0,0,1,506.4,63c1.56,0,2.17,1.23,2.17,3s-.33,3.78-2.26,3.78a1.81,1.81,0,0,1-1.95-1.48ZM505,65.19a1.34,1.34,0,0,0,1.35,1.51,1.29,1.29,0,0,0,1.45-1.47,1.45,1.45,0,0,0-1.41-1.6C505.39,63.63,505,64.32,505,65.19Z"/><path class="cls-5" d="M513.92,63.15v.6a16.23,16.23,0,0,0-2.63,6h-.7a16.25,16.25,0,0,1,2.61-6h-3.51v-.62Z"/><path class="cls-5" d="M515.05,67.88a1.79,1.79,0,0,1,1.24-1.72,1.48,1.48,0,0,1-.95-1.41c0-1,.68-1.72,2-1.72a1.72,1.72,0,0,1,1.9,1.71,1.42,1.42,0,0,1-.94,1.39,1.76,1.76,0,0,1,1.2,1.73,2.23,2.23,0,0,1-4.44,0Zm3.74,0a1.32,1.32,0,0,0-1.51-1.39,1.34,1.34,0,0,0-1.52,1.39,1.38,1.38,0,0,0,1.52,1.41A1.35,1.35,0,0,0,518.79,67.85ZM516,64.74c0,.59.37,1.12,1.29,1.12s1.22-.43,1.22-1.09a1.12,1.12,0,0,0-1.24-1.15C516.38,63.62,516,64.09,516,64.74Z"/><path class="cls-5" d="M554.31,69.73V68h-3.13v-.63l3.08-4.18H555v4.2h.87l-.08.61H555v1.77Zm0-4.22c0-.43,0-1.17,0-1.61-.27.5-1.71,2.43-2.44,3.45h2.42Z"/><path class="cls-5" d="M561.51,66.39c0,1.57-.42,3.46-2.21,3.46s-2.21-1.75-2.21-3.41.49-3.41,2.23-3.41S561.51,64.78,561.51,66.39Zm-3.7.06c0,1.26.25,2.8,1.49,2.8s1.49-1.47,1.49-2.86-.24-2.76-1.46-2.76S557.81,65,557.81,66.45Z"/><path class="cls-5" d="M562.69,69.73V68.36h.68v1.37Z"/><path class="cls-5" d="M569,63.77h-2.79c-.07.59-.25,1.72-.32,2.1a1.79,1.79,0,0,1,1.45-.59,1.94,1.94,0,0,1,2,2.18,2.13,2.13,0,0,1-2.19,2.39,2,2,0,0,1-2.12-1.74h.69a1.42,1.42,0,0,0,1.46,1.15c1,0,1.46-.69,1.46-1.75s-.39-1.62-1.36-1.62a1.43,1.43,0,0,0-1.49.93l-.64-.14c.2-.87.44-2.72.54-3.53h3.45Z"/><path class="cls-5" d="M575.12,66.39c0,1.57-.42,3.46-2.22,3.46s-2.21-1.75-2.21-3.41.5-3.41,2.24-3.41S575.12,64.78,575.12,66.39Zm-3.7.06c0,1.26.25,2.8,1.49,2.8s1.49-1.47,1.49-2.86-.24-2.76-1.46-2.76S571.42,65,571.42,66.45Z"/><path class="cls-5" d="M579.73,64.9a1.66,1.66,0,0,1-1.66,1.88c-1,0-1.61-.78-1.61-1.87A1.68,1.68,0,0,1,578.09,63C579.11,63,579.73,63.76,579.73,64.9Zm-2.66,0c0,.78.36,1.33,1,1.33s1-.52,1-1.33-.38-1.32-1-1.32S577.07,64.06,577.07,64.9Zm.83,4.83,4.37-6.58h.64l-4.36,6.58ZM584.35,68a1.66,1.66,0,0,1-1.66,1.88c-1.06,0-1.6-.82-1.6-1.87a1.67,1.67,0,0,1,1.62-1.88C583.75,66.11,584.35,66.84,584.35,68Zm-2.65,0c0,.77.35,1.33,1,1.33s1-.52,1-1.33-.37-1.32-1-1.32S581.7,67.17,581.7,68Z"/><line class="cls-2" x1="475.1" y1="18.14" x2="475.1" y2="76.73"/><line class="cls-2" x1="530.28" y1="18.14" x2="530.28" y2="76.73"/><path class="cls-4" d="M9.44,51.17v0c0-.88.67-1.88,2-2.91,1.1-.85,1.39-1.11,1.39-1.89a1.16,1.16,0,0,0-1.26-1.26c-.85,0-1.28.42-1.43,1.31H9.47a2,2,0,0,1,2.1-1.91,1.78,1.78,0,0,1,2,1.83c0,1-.43,1.37-1.65,2.34a4.55,4.55,0,0,0-1.66,1.91H13.8l-.1.62Z"/><path class="cls-4" d="M20,47.83c0,1.57-.43,3.46-2.22,3.46s-2.21-1.75-2.21-3.41.5-3.41,2.24-3.41S20,46.22,20,47.83Zm-3.7.06c0,1.26.24,2.8,1.48,2.8s1.5-1.47,1.5-2.86-.24-2.76-1.46-2.76S16.25,46.43,16.25,47.89Z"/><path class="cls-4" d="M21.75,51.17v0c0-.88.67-1.88,2-2.91,1.1-.85,1.39-1.11,1.39-1.89a1.16,1.16,0,0,0-1.26-1.26c-.85,0-1.28.42-1.43,1.31h-.67a2,2,0,0,1,2.1-1.91,1.78,1.78,0,0,1,2,1.83c0,1-.43,1.37-1.65,2.34a4.55,4.55,0,0,0-1.66,1.91h3.57l-.1.62Z"/><path class="cls-4" d="M32.26,47.83c0,1.57-.43,3.46-2.22,3.46s-2.21-1.75-2.21-3.41.5-3.41,2.24-3.41S32.26,46.22,32.26,47.83Zm-3.7.06c0,1.26.24,2.8,1.48,2.8s1.5-1.47,1.5-2.86-.24-2.76-1.46-2.76S28.56,46.43,28.56,47.89Z"/><path class="cls-4" d="M42.14,49.76h-3.3v2.09h-.6V49.76H34.06v-.57h1.48V46.76h2.7V45.33H36a8.41,8.41,0,0,1-1.39,1.8,5.85,5.85,0,0,0-.52-.38,7.87,7.87,0,0,0,2.07-3.12l.59.14c-.13.33-.27.66-.43,1h5.4v.58H38.84v1.43h2.69v.57H38.84v1.86h3.3Zm-3.9-.57V47.33H36.15v1.86Z"/><path class="cls-3" d="M119.84,8.37a12.06,12.06,0,0,0-1.56-.88l.31-.45a9.38,9.38,0,0,1,1.59.84ZM118.55,12c.42-.66,1-1.8,1.49-2.75l.45.38a29.47,29.47,0,0,1-1.42,2.75Zm1.77-6a8.48,8.48,0,0,0-1.5-1l.34-.43a8.18,8.18,0,0,1,1.51,1ZM122,6a7.7,7.7,0,0,1-1,1.38,2.92,2.92,0,0,0-.48-.37,6.42,6.42,0,0,0,1.58-2.62l.57.15a7.61,7.61,0,0,1-.39.93h4.24V6Zm3.45,2.07c0,2.23.07,4,.55,4,.13,0,.17-.53.19-1.24a2,2,0,0,0,.39.33c0,1.07-.16,1.46-.63,1.47-.93,0-1-1.6-1.07-4h-4V8.09Zm-3.72-.8v-.5h4v.5Z"/><path class="cls-3" d="M136.15,11.28H132.4v1.35h-.59V11.28h-3.68v-.55h3.68V10h-2.73V6.49h2.73v-.7h-3.4V5.24h3.4V4.42h.59v.82h3.43v.55H132.4v.7h2.8V10h-2.8v.77h3.75ZM129.65,8h2.16V7h-2.16Zm2.16,1.48v-1h-2.16v1ZM132.4,7V8h2.2V7Zm2.2,1.47h-2.2v1h2.2Z"/><path class="cls-3" d="M140.63,4.64a12.73,12.73,0,0,1-1,1.91v6h-.59V7.43a9.28,9.28,0,0,1-1.13,1.31,3.55,3.55,0,0,0-.37-.59,10.27,10.27,0,0,0,2.49-3.69Zm2.79,4.22v2.82h2.36v.58h-5.31v-.58h2.34V8.86h-2.62V8.28h2.62V5.83h-2V5.26h4.78v.57h-2.17V8.28H146v.58Z"/><path class="cls-3" d="M147.67,12.08a4.24,4.24,0,0,0,1.06-1.57l.5.23a5.42,5.42,0,0,1-1.07,1.63Zm7.76-5.54V7h-7.69V6.54h2.13a3.81,3.81,0,0,0-.35-.82l.5-.12h-1.87V5.1h3.29c-.11-.21-.24-.44-.36-.63l.57-.13a5.33,5.33,0,0,1,.44.76H155v.5h-1.78l.49.11-.45.83Zm-1.05,3.56h-3.17a6.91,6.91,0,0,1,1.32.94l-.38.36a7.49,7.49,0,0,0-1.39-1l.3-.27H148.8V7.51h5.58Zm-.59-2.17h-4.43V8.6h4.43Zm0,1.07h-4.43v.67h4.43Zm-1.23,3c.39,0,.45-.11.49-.94a1.89,1.89,0,0,0,.53.21c-.07,1-.26,1.23-1,1.23h-1.73c-.88,0-1.11-.15-1.11-.76V10.58h.58v1.19c0,.21.09.26.56.26ZM150.07,5.6a3.73,3.73,0,0,1,.41.93h2.13a10.11,10.11,0,0,0,.46-.94Zm4.15,4.83A6.77,6.77,0,0,1,155.41,12l-.5.26a7.52,7.52,0,0,0-1.17-1.58Z"/><path class="cls-3" d="M159.89,5c-.26.73-.58,1.61-.87,2.33a2.92,2.92,0,0,1,.78,2,1.29,1.29,0,0,1-.32,1,.93.93,0,0,1-.44.16,2.33,2.33,0,0,1-.59,0,1.33,1.33,0,0,0-.15-.53,3.12,3.12,0,0,0,.52,0,.51.51,0,0,0,.27-.08.81.81,0,0,0,.19-.64,2.73,2.73,0,0,0-.79-1.86c.26-.66.53-1.45.71-2H158v7.26h-.52V4.77h1.91l.09,0Zm1.6,5.12a4.44,4.44,0,0,1-.26.67,7,7,0,0,1,1,.82L162,12a5.48,5.48,0,0,0-1-.8,4.69,4.69,0,0,1-1.37,1.43,2.58,2.58,0,0,0-.41-.39A3.87,3.87,0,0,0,161,10Zm1.36-5.56c-.07.09-.13.19-.2.29a9.18,9.18,0,0,0,2.75,1.61,1.9,1.9,0,0,0-.27.53,11.07,11.07,0,0,1-2.78-1.75,8.06,8.06,0,0,1-2.24,1.83,2.11,2.11,0,0,0-.4-.39,6.9,6.9,0,0,0,2.56-2.31Zm-2.68,3.07h2V9.76h-2Zm.47,1.7h1V8.06h-1Zm3.14-2.39h-2.7V6.44h2.7Zm.23,3.13a5,5,0,0,1-.24.8,10.25,10.25,0,0,1,1.58,1.21l-.36.42a9.88,9.88,0,0,0-1.43-1.17,3.69,3.69,0,0,1-1.12,1.29,3,3,0,0,0-.4-.39A3.44,3.44,0,0,0,163.46,10Zm.76-.29h-2V7.61h2Zm-.49-1.7h-1.06V9.31h1.06Z"/><line class="cls-2" x1="0.05" y1="37.74" x2="605" y2="37.74"/><line class="cls-2" x1="0.05" y1="57.23" x2="605" y2="57.23"/><path class="cls-4" d="M9.44,70.76v-.05c0-.87.67-1.88,2-2.9,1.1-.85,1.39-1.11,1.39-1.9a1.16,1.16,0,0,0-1.26-1.26c-.85,0-1.28.43-1.43,1.32H9.47a2,2,0,0,1,2.1-1.91,1.78,1.78,0,0,1,2,1.83c0,1-.43,1.37-1.65,2.34a4.55,4.55,0,0,0-1.66,1.91H13.8l-.1.62Z"/><path class="cls-4" d="M20,67.42c0,1.56-.43,3.46-2.22,3.46s-2.21-1.76-2.21-3.41.5-3.41,2.24-3.41S20,65.8,20,67.42Zm-3.7,0c0,1.27.24,2.81,1.48,2.81s1.5-1.47,1.5-2.86-.24-2.76-1.46-2.76S16.25,66,16.25,67.47Z"/><path class="cls-4" d="M21.75,70.76v-.05c0-.87.67-1.88,2-2.9,1.1-.85,1.39-1.11,1.39-1.9a1.16,1.16,0,0,0-1.26-1.26c-.85,0-1.28.43-1.43,1.32h-.67a2,2,0,0,1,2.1-1.91,1.78,1.78,0,0,1,2,1.83c0,1-.43,1.37-1.65,2.34a4.55,4.55,0,0,0-1.66,1.91h3.57l-.1.62Z"/><path class="cls-4" d="M29.19,70.76V65a4.46,4.46,0,0,1-1.43.68V65.1a4.72,4.72,0,0,0,1.58-1h.54v6.62Z"/><path class="cls-4" d="M40.24,69.35h-3.3v2.09h-.6V69.35H32.16v-.57h1.49V66.34h2.69V64.91H34.1a7.94,7.94,0,0,1-1.39,1.8,5.85,5.85,0,0,0-.52-.37,7.84,7.84,0,0,0,2.07-3.13l.59.15a9.4,9.4,0,0,1-.43,1h5.4v.57H36.94v1.43h2.69v.57H36.94v1.87h3.3Zm-3.9-.57V66.91H34.25v1.87Z"/></g></g></svg>