<?xml version="1.0" encoding="utf-8"?>
<!-- Generator: Adobe Illustrator 26.3.1, SVG Export Plug-In . SVG Version: 6.00 Build 0)  -->
<svg version="1.1" id="圖層_1" xmlns="http://www.w3.org/2000/svg" xmlns:xlink="http://www.w3.org/1999/xlink" x="0px" y="0px"
	 viewBox="0 0 1100 950" style="enable-background:new 0 0 1100 950;" xml:space="preserve">
<style type="text/css">
	.st0{fill:#BED00A;}
	.st1{fill:#007136;}
	.st2{fill:#153C27;}
	.st3{fill:#5FAF28;}
	.st4{fill:#FFFFFF;}
	.st5{opacity:0.7;}
	.st6{opacity:0;fill:#F2F2F2;}
	.st7{opacity:6.930693e-03;fill:#F0F0F0;}
	.st8{opacity:1.386139e-02;fill:#EDEDED;}
	.st9{opacity:2.079208e-02;fill:#EBEBEB;}
	.st10{opacity:2.772277e-02;fill:#E8E8E8;}
	.st11{opacity:3.465347e-02;fill:#E6E6E6;}
	.st12{opacity:4.158416e-02;fill:#E4E4E4;}
	.st13{opacity:4.851485e-02;fill:#E1E1E1;}
	.st14{opacity:5.544554e-02;fill:#DFDFDF;}
	.st15{opacity:6.237624e-02;fill:#DCDCDC;}
	.st16{opacity:6.930693e-02;fill:#DADADA;}
	.st17{opacity:7.623763e-02;fill:#D8D8D8;}
	.st18{opacity:8.316832e-02;fill:#D5D5D5;}
	.st19{opacity:9.009901e-02;fill:#D3D3D3;}
	.st20{opacity:9.702970e-02;fill:#D0D0D0;}
	.st21{opacity:0.104;fill:#CECECE;}
	.st22{opacity:0.1109;fill:#CCCCCC;}
	.st23{opacity:0.1178;fill:#C9C9C9;}
	.st24{opacity:0.1248;fill:#C7C7C7;}
	.st25{opacity:0.1317;fill:#C4C4C4;}
	.st26{opacity:0.1386;fill:#C2C2C2;}
	.st27{opacity:0.1455;fill:#C0C0C0;}
	.st28{opacity:0.1525;fill:#BDBDBD;}
	.st29{opacity:0.1594;fill:#BBBBBB;}
	.st30{opacity:0.1663;fill:#B8B8B8;}
	.st31{opacity:0.1733;fill:#B6B6B6;}
	.st32{opacity:0.1802;fill:#B4B4B4;}
	.st33{opacity:0.1871;fill:#B1B1B1;}
	.st34{opacity:0.1941;fill:#AFAFAF;}
	.st35{opacity:0.201;fill:#ADADAD;}
	.st36{opacity:0.2079;fill:#AAAAAA;}
	.st37{opacity:0.2149;fill:#A8A8A8;}
	.st38{opacity:0.2218;fill:#A5A5A5;}
	.st39{opacity:0.2287;fill:#A3A3A3;}
	.st40{opacity:0.2356;fill:#A1A1A1;}
	.st41{opacity:0.2426;fill:#9E9E9E;}
	.st42{opacity:0.2495;fill:#9C9C9C;}
	.st43{opacity:0.2564;fill:#999999;}
	.st44{opacity:0.2634;fill:#979797;}
	.st45{opacity:0.2703;fill:#959595;}
	.st46{opacity:0.2772;fill:#929292;}
	.st47{opacity:0.2842;fill:#909090;}
	.st48{opacity:0.2911;fill:#8D8D8D;}
	.st49{opacity:0.298;fill:#8B8B8B;}
	.st50{opacity:0.305;fill:#898989;}
	.st51{opacity:0.3119;fill:#868686;}
	.st52{opacity:0.3188;fill:#848484;}
	.st53{opacity:0.3257;fill:#818181;}
	.st54{opacity:0.3327;fill:#7F7F7F;}
	.st55{opacity:0.3396;fill:#7D7D7D;}
	.st56{opacity:0.3465;fill:#7A7A7A;}
	.st57{opacity:0.3535;fill:#787878;}
	.st58{opacity:0.3604;fill:#757575;}
	.st59{opacity:0.3673;fill:#737373;}
	.st60{opacity:0.3743;fill:#717171;}
	.st61{opacity:0.3812;fill:#6E6E6E;}
	.st62{opacity:0.3881;fill:#6C6C6C;}
	.st63{opacity:0.395;fill:#696969;}
	.st64{opacity:0.402;fill:#676767;}
	.st65{opacity:0.4089;fill:#656565;}
	.st66{opacity:0.4158;fill:#626262;}
	.st67{opacity:0.4228;fill:#606060;}
	.st68{opacity:0.4297;fill:#5D5D5D;}
	.st69{opacity:0.4366;fill:#5B5B5B;}
	.st70{opacity:0.4436;fill:#595959;}
	.st71{opacity:0.4505;fill:#565656;}
	.st72{opacity:0.4574;fill:#545454;}
	.st73{opacity:0.4644;fill:#515151;}
	.st74{opacity:0.4713;fill:#4F4F4F;}
	.st75{opacity:0.4782;fill:#4D4D4D;}
	.st76{opacity:0.4851;fill:#4A4A4A;}
	.st77{opacity:0.4921;fill:#484848;}
	.st78{opacity:0.499;fill:#454545;}
	.st79{opacity:0.5059;fill:#434343;}
	.st80{opacity:0.5129;fill:#414141;}
	.st81{opacity:0.5198;fill:#3E3E3E;}
	.st82{opacity:0.5267;fill:#3C3C3C;}
	.st83{opacity:0.5337;fill:#3A3A3A;}
	.st84{opacity:0.5406;fill:#373737;}
	.st85{opacity:0.5475;fill:#353535;}
	.st86{opacity:0.5545;fill:#323232;}
	.st87{opacity:0.5614;fill:#303030;}
	.st88{opacity:0.5683;fill:#2E2E2E;}
	.st89{opacity:0.5752;fill:#2B2B2B;}
	.st90{opacity:0.5822;fill:#292929;}
	.st91{opacity:0.5891;fill:#262626;}
	.st92{opacity:0.596;fill:#242424;}
	.st93{opacity:0.603;fill:#222222;}
	.st94{opacity:0.6099;fill:#1F1F1F;}
	.st95{opacity:0.6168;fill:#1D1D1D;}
	.st96{opacity:0.6238;fill:#1A1A1A;}
	.st97{opacity:0.6307;fill:#181818;}
	.st98{opacity:0.6376;fill:#161616;}
	.st99{opacity:0.6446;fill:#131313;}
	.st100{opacity:0.6515;fill:#111111;}
	.st101{opacity:0.6584;fill:#0E0E0E;}
	.st102{opacity:0.6653;fill:#0C0C0C;}
	.st103{opacity:0.6723;fill:#0A0A0A;}
	.st104{opacity:0.6792;fill:#070707;}
	.st105{opacity:0.6861;fill:#050505;}
	.st106{opacity:0.6931;fill:#020202;}
	.st107{fill:url(#SVGID_1_);}
	.st108{fill:#F2F2F2;}
	.st109{fill:#91C209;}
	.st110{fill:#1D5437;}
	.st111{fill:url(#SVGID_00000060737301780851584490000011871175172120170647_);}
	.st112{fill:#4F7100;}
	.st113{opacity:0.15;fill:#728749;}
	.st114{fill:#79C3E0;}
	.st115{opacity:0.2;fill:#A3CFE3;}
	.st116{opacity:0.2;fill:#B0D0D9;}
	.st117{fill:#4BAD1A;}
	.st118{font-family:'NotoSansCJKtc-Bold-B5pc-H';}
	.st119{font-size:42px;}
	.st120{letter-spacing:1.1;}
	.st121{font-family:'NotoSansHant-Regular-B5pc-H';}
	.st122{font-size:26px;}
	.st123{font-size:20px;}
	.st124{font-family:'NotoSansHant-Medium-B5pc-H';}
	.st125{font-size:12.5904px;}
	.st126{fill:none;stroke:#FFFFFF;stroke-width:1.2;stroke-linecap:round;stroke-linejoin:round;stroke-miterlimit:10;}
	.st127{fill:#FEB64A;}
	.st128{fill:#5FD6DD;}
	.st129{fill:#F2666F;}
	.st130{fill:#FF8753;}
	.st131{fill:url(#SVGID_00000026153164404529087840000000736356834142527399_);}
	.st132{fill:none;stroke:#FFFFFF;stroke-width:2;stroke-miterlimit:10;}
</style>
<g>
	<path class="st109" d="M513.1,307.7l-1.9,2.5l10.6,8c-67.4,8.3-121.1,62.4-128.7,129.9h-15.8c7.9-77.7,69.7-139,147.6-146.1
		l1.4-0.1V25h-423C57.3,25,20,62.3,20,108.3v339.9h0v3.1h375.9l0.1-1.4c6.9-66.7,59.6-120.3,125.9-128.5l-8.6,9.9l2.4,2.1l12.4-14.2
		L513.1,307.7z"/>
	<polygon class="st109" points="506.3,48.8 594.1,203.5 506.3,358.2 	"/>
	<path class="st1" d="M382.7,511.9l2.5,1.9l8-10.6c8.3,67.4,62.4,121.1,129.9,128.7v15.8c-77.7-7.9-139-69.7-146.1-147.6l-0.1-1.4
		H20v343c0,46,37.3,83.3,83.3,83.3h419.9v0h3.1V629.1l-1.4-0.1c-66.7-6.9-120.3-59.6-128.5-125.9l9.9,8.6l2.1-2.4l-14.2-12.4
		L382.7,511.9z"/>
	<polygon class="st1" points="43.8,518.7 198.5,430.9 353.2,518.7 	"/>
	<path class="st110" d="M586.9,642.3l1.9-2.5l-10.6-8c67.4-8.3,121.1-62.4,128.7-129.9h15.8c-7.9,77.7-69.7,139-147.6,146.1
		l-1.4,0.1V925h423c46,0,83.3-37.3,83.3-83.3V501.8h0v-3.1H704.1l-0.1,1.4c-6.9,66.7-59.6,120.3-125.9,128.5l8.6-9.9l-2.4-2.1
		l-12.4,14.2L586.9,642.3z"/>
	<polygon class="st110" points="593.7,901.2 505.9,746.5 593.7,591.8 	"/>
	<path class="st3" d="M717.3,438.1l-2.5-1.9l-8,10.6c-8.3-67.4-62.4-121.1-129.9-128.7v-15.8c77.7,7.9,139,69.7,146.1,147.6l0.1,1.4
		H1080v-343c0-46-37.3-83.3-83.3-83.3H576.8v0h-3.1v295.9l1.4,0.1c66.7,6.9,120.3,59.6,128.5,125.9l-9.9-8.6l-2.1,2.4l14.2,12.4
		L717.3,438.1z"/>
	<polygon class="st3" points="1056.2,431.3 901.5,519.1 746.8,431.3 	"/>
</g>
<circle class="st4" cx="550" cy="475" r="177.9"/>
<g>
	<path class="st4" d="M983,580.6c-1.2-4.5-5.8-7.1-10.3-6c-4.5,1.2-7.1,5.8-6,10.3c1.2,4.5,5.8,7.1,10.3,6
		C981.5,589.7,984.2,585.1,983,580.6z M969.7,584.1c-0.8-2.9,1-5.8,3.8-6.6c2.9-0.8,5.8,1,6.6,3.8c0.8,2.9-1,5.8-3.8,6.6
		C973.4,588.7,970.4,587,969.7,584.1z"/>
	<path class="st4" d="M987.5,601.5c2.3-1.6,4.4-3.6,6-6c0.7-1.1,0.6-2.5-0.3-3.5l-3.2-3c0.5-1.3,0.9-2.6,0.8-3.8l4.5-1.2
		c1.3-0.3,2.1-1.5,2-2.8c-0.2-3.2-1.2-6.5-2.1-8.3c-0.6-1.2-1.9-1.8-3.1-1.4l-4.3,1.3c-1-1.3-2.1-2.3-2.9-2.7l1.2-4.5
		c0.3-1.3-0.3-2.6-1.5-3.2c-2.9-1.4-5.3-2-8.1-2.2c-1.3-0.1-2.5,0.8-2.8,2l-1,4.3c-1.4,0.2-2.8,0.6-3.7,1.2l-3.3-3.3
		c-0.9-0.9-2.4-1.1-3.5-0.4c-2.4,1.6-4.4,3.6-6.1,6c-0.7,1.1-0.6,2.5,0.4,3.5l3.2,3c-0.6,1.3-0.9,2.6-0.9,3.8l-4.5,1.2
		c-1.3,0.3-2.1,1.5-2,2.8c0.1,1.4,0.3,2.8,0.7,4.2c0.4,1.4,0.9,2.8,1.5,4.1c0.6,1.1,1.9,1.7,3.1,1.4l4.2-1.3
		c0.8,1.1,1.8,2.1,2.9,2.6l-1.2,4.5c-0.3,1.3,0.3,2.6,1.4,3.2c2.6,1.3,5.3,2,8.2,2.2c1.3,0.1,2.5-0.8,2.8-2l1.2-4.3
		c1.3-0.2,2.7-0.6,3.6-1.1l3.3,3.3C985,602.1,986.4,602.2,987.5,601.5z M982.9,595.7c-0.8-0.8-2-1-3-0.6c-1,0.4-2.2,0.7-3.3,0.9
		c-1.1,0.1-2,0.9-2.3,2c0,0,0,0,0,0l-0.9,4.3c-2.4-0.2-4.8-0.8-6.9-1.6l1.2-4.5c0.3-1.1-0.1-2.2-1-2.8c-0.9-0.7-1.7-1.5-2.4-2.4
		c-0.7-0.9-1.8-1.3-2.8-1l-4.2,1.4c-1.1-2.1-1.7-4.6-2.1-6.8l4.5-1.2c1.1-0.3,1.8-1.2,2-2.3c0.1-1.1,0.4-2.2,0.9-3.2
		c0.3-0.6,0.3-1.2,0.2-1.8c-0.1-0.4-0.4-0.9-0.7-1.2l-3.3-3c1.4-2.1,3.2-3.8,4.9-5.2l3.3,3.3c0.8,0.8,2,1,3,0.6
		c0.9-0.4,2.1-0.7,3.3-0.9c1.1-0.2,2-0.9,2.3-2l1-4.3c2.4,0.2,4.5,0.7,6.9,1.6l-1.2,4.5c-0.3,1,0.1,2.2,1,2.8c1,0.8,1.8,1.6,2.4,2.4
		c0.7,0.9,1.8,1.3,2.9,1l4.3-1.4c0.8,1.5,1.6,4.3,1.8,6.9l-4.3,1.1c-1.1,0.3-1.8,1.2-2,2.3c-0.1,1.1-0.4,2.2-0.9,3.2
		c-0.4,1-0.2,2.2,0.5,3l3.3,3c-1.4,2.1-3.2,3.8-4.8,5.2L982.9,595.7z"/>
	<path class="st4" d="M1007.2,613.8c-0.9-3.3-4.3-5.3-7.7-4.5c-3.3,0.9-5.3,4.3-4.5,7.7c0.9,3.3,4.3,5.3,7.7,4.5
		C1006.1,620.6,1008.1,617.1,1007.2,613.8z M997.3,616.4c-0.6-2.1,0.7-4.3,2.8-4.9s4.3,0.7,4.9,2.8c0.6,2.1-0.7,4.3-2.8,4.9
		S997.9,618.6,997.3,616.4z"/>
	<path class="st4" d="M1007.9,628.7c0.8-0.4,1.2-1.3,1-2.2c0,0,0,0,0,0l-0.8-2.7c0.6-0.5,1.2-1.1,1.7-1.7l2.7,0.7
		c0.9,0.2,1.8-0.2,2.2-1.1c0.8-1.7,1.2-3.5,1.3-5.4c0-0.9-0.6-1.7-1.5-2l-2.7-0.7c-0.1-0.8-0.3-1.5-0.7-2.3l2-2
		c0.6-0.7,0.7-1.7,0.2-2.4c-1.2-1.7-2.9-3.3-4-4c-0.8-0.5-1.8-0.4-2.4,0.3l-2,2.1c-0.8-0.3-1.7-0.5-2.3-0.6l-0.8-2.7
		c-0.3-0.9-1.1-1.5-2-1.4c-2.1,0.2-3.7,0.7-5.3,1.5c-0.8,0.4-1.3,1.4-1,2.2l0.8,2.7c-0.6,0.5-1.2,1.1-1.6,1.7l-2.7-0.7
		c-0.9-0.2-1.8,0.2-2.2,1c-0.8,1.7-1.3,3.5-1.4,5.5c0,0.2,0,0.4,0.1,0.6c0.2,0.7,0.7,1.2,1.4,1.4l2.8,0.7c0.1,0.8,0.3,1.5,0.6,2.3
		l-2,2c-0.6,0.7-0.7,1.7-0.2,2.4c1.1,1.6,2.5,2.9,4.1,3.9c0.8,0.5,1.8,0.3,2.4-0.3l2-2c0.7,0.3,1.5,0.5,2.3,0.6l0.8,2.7
		c0.3,0.9,1.1,1.5,2,1.4C1004.4,630.1,1006.2,629.6,1007.9,628.7z M1002.6,628l-0.8-2.7c-0.2-0.7-0.9-1.3-1.6-1.4
		c-0.7-0.1-1.4-0.2-2.1-0.5c-0.7-0.3-1.6-0.1-2.1,0.4l-2,2c-1.1-0.8-2.2-1.8-3-2.9l2-2c0.5-0.6,0.7-1.4,0.4-2.1
		c-0.3-0.7-0.5-1.4-0.6-2.1c-0.1-0.8-0.7-1.4-1.4-1.6l-2.7-0.7c0.1-1.4,0.4-2.8,1-4.1l2.7,0.7c0.8,0.2,1.6-0.1,2-0.8
		c0.4-0.5,0.9-1.1,1.5-1.6c0.6-0.5,0.8-1.3,0.6-2l-0.8-2.7c1.2-0.6,2.5-1,4-1.1l0.8,2.7c0.2,0.7,0.8,1.3,1.6,1.4
		c0.8,0.1,1.5,0.3,2.1,0.5c0.7,0.3,1.6,0.1,2.1-0.4l2-2c0.9,0.6,2.1,1.8,3,3l-2,2c-0.5,0.6-0.7,1.4-0.4,2.1c0.3,0.7,0.5,1.4,0.6,2.1
		c0.1,0.8,0.7,1.4,1.4,1.6l2.7,0.7c-0.1,1.4-0.4,2.8-1,4.1l-2.7-0.7c-0.8-0.2-1.5,0.1-2,0.7c-0.4,0.6-1,1.1-1.5,1.6
		c-0.6,0.5-0.9,1.3-0.7,2c0,0,0,0,0,0l0.8,2.7C1005.4,627.4,1004,627.8,1002.6,628z"/>
</g>
<path class="st4" d="M109.2,579.3l-10.3-1.5c-0.4,0-0.7-0.3-0.9-0.6l-2.6-3.7c0,0,0,0,0,0l2.8-5.9c0.8-0.2,2.1-0.8,2.9-1.7
	c0.2-0.2,0.3-0.4,0.4-0.6c0.1-0.2,0.2-0.4,0.3-0.7c0-0.1,0-0.1,0.1-0.2c0,0,0-0.1,0-0.1c1.1-2.9,1.7-7.4-1.2-12.5
	c-4.1-7.1-11.6-6.7-12.3-6.7c-0.8,0-8.2-0.4-12.3,6.7c-2.9,5.1-2.3,9.6-1.2,12.5c0,0.1,0,0.1,0,0.2c0,0,0,0.1,0,0.1
	c0,0.1,0,0.2,0,0.2c0.1,0.2,0.2,0.3,0.3,0.5c0.1,0.2,0.2,0.4,0.3,0.6c0.9,1.1,2.2,1.6,3,1.9l2.7,5.5c0,0.1,0,0.2,0,0.3l-2.5,3.9
	c-0.2,0.3-0.5,0.5-0.9,0.6l-10.3,1.5c-3.1,0.5-5.3,3.1-5.1,6.3l1.5,14.4c0.1,0.7,0.6,1.2,1.3,1.2c0,0,0.1,0,0.1,0
	c0.7-0.1,1.3-0.7,1.2-1.5L65,585.4c-0.1-1.7,1.1-3.3,2.9-3.5l10.3-1.5c0.1,0,0.3-0.1,0.4-0.1c-0.3,0.3-0.5,0.8-0.4,1.3l0.6,1.9
	c0.2,0.6,0.7,0.9,1.3,0.9c0.1,0,0.1,0,0.2,0l5.6-0.7l-1.6,7.4c-0.1,0.3,0,0.5,0.1,0.8l3,7.7c0.2,0.5,0.7,0.8,1.2,0.8
	c0.5,0,1-0.3,1.2-0.8l3-7.7c0.1-0.2,0.1-0.5,0.1-0.8l-1.6-7.4l5.5,0.7c0.1,0,0.1,0,0.2,0c0.6,0,1.1-0.4,1.3-0.9l0.6-1.9
	c0.1-0.5-0.1-1-0.4-1.3c0.2,0.1,0.3,0.2,0.5,0.2l10.3,1.5c1.7,0.2,2.9,1.8,2.9,3.4l-1.5,14.4c-0.1,0.7,0.4,1.4,1.2,1.5
	c0,0,0.1,0,0.1,0c0.7,0,1.2-0.5,1.3-1.2l1.6-14.5C114.5,582.5,112.3,579.8,109.2,579.3z M88.8,580.9c-0.2,0.1-0.4,0.3-0.5,0.4
	c-0.1-0.2-0.3-0.4-0.5-0.4l-6.6-2.7l1.8-2.7c1.2,1,3,2.1,5.2,2.1c0.1,0,0.2,0,0.3,0c2.2,0,4-1,5.2-2.1l1.7,2.7L88.8,580.9z
	 M78.3,553c3.4-5.8,9.7-5.4,9.9-5.4c0,0,0.1,0,0.1,0c0,0,0.1,0,0.1,0c0.1,0,6.5-0.5,9.9,5.4c1.5,2.7,1.9,5.2,1.7,7.2
	c-0.8-0.4-1.2-0.9-1.2-0.9c-0.4-0.5-1-0.7-1.6-0.5c-8.8,3.5-13.9-5.6-14.1-6c-0.4-0.6-1.2-0.9-1.8-0.5c-0.6,0.3-0.9,1.2-0.5,1.8
	c0.2,0.4,0.5,0.9,0.9,1.4c-0.2,0.1-0.4,0.3-0.5,0.6c-0.1,0.1-1.4,3.1-4.5,2.7c-0.1,0-0.1,0-0.2,0C76.6,557,77.1,555.1,78.3,553z
	 M79.7,565.1c-0.6-0.1-1.7-0.5-2.1-1.2c0,0,0,0,0,0c0-0.1-0.1-0.2-0.1-0.3c-0.1-0.5,0.2-1.3,0.9-2.2c2.6-0.4,4.4-2.4,5.1-3.8
	c3,3.2,7.9,6.1,14,4.1c0.4,0.3,0.9,0.7,1.6,1.1c0.2,0.3,0.2,0.7,0.2,0.9c0,0.1-0.1,0.2-0.1,0.3c0,0-0.1,0.1-0.1,0.2
	c-0.5,0.6-1.7,1-2.1,1.1c-0.4,0.1-0.8,0.4-1,0.7l-3,6.5c0,0,0,0,0,0c-0.7,0.8-2.3,2.4-4.6,2.4c-0.1,0-0.1,0-0.2,0
	c-2.2,0-3.9-1.7-4.6-2.5l-3-6.4C80.5,565.5,80.1,565.2,79.7,565.1z M80.9,581.6l-0.2-0.8l1.5,0.6L80.9,581.6z M88.3,595.3l-1.6-4.1
	l1.3-6.1h0.5l1.3,6.1L88.3,595.3z M95.7,581.6l-1.2-0.2l1.5-0.6L95.7,581.6z"/>
<path class="st4" d="M126.9,117.3c-0.5-0.5-1.3-0.5-1.8,0l-5.5,5.4l-3.4-3.4c0,0,0-0.1-0.1-0.1c0,0-0.1,0-0.1-0.1l-14.5-14.7
	l5.1-5.3c0.5-0.5,0.5-1.3,0-1.8c-0.5-0.5-1.3-0.5-1.8,0l-6,6.2c-0.5,0.5-0.5,1.3,0,1.8l0.6,0.6l-2.9,2.4h-16L78,106l0.7-0.7
	c0.5-0.5,0.5-1.3,0-1.8l-6-6.2c-0.5-0.5-1.3-0.5-1.8,0c-0.5,0.5-0.5,1.3,0,1.8l5.1,5.3l-14.7,14.9c0,0,0,0,0,0c0,0,0,0,0,0l-3.2,3.3
	l-5.5-5.4c-0.5-0.5-1.3-0.5-1.8,0c-0.5,0.5-0.5,1.3,0,1.8l6.4,6.3c0.3,0.2,0.6,0.4,0.9,0.4c0.3,0,0.7-0.1,0.9-0.4l3.3-3.3l6.5,6.3
	l-1.2,1.2c-1.6,1.6-1.6,4.2,0,5.7l0.6,0.6c0.4,0.4,0.9,0.7,1.5,0.9c-0.9,1.7-0.7,3.7,0.7,5.1l0.3,0.3c0.9,0.9,2,1.3,3.1,1.3
	c0.3,0,0.6-0.1,1-0.2c0.1,0.8,0.5,1.6,1.1,2.3l0.1,0.1c0.8,0.8,1.9,1.3,3,1.3c0.3,0,0.6-0.1,0.9-0.2c0.2,0.7,0.4,1.4,1,1.9
	c0.8,0.8,1.8,1.2,2.8,1.2c1,0,2-0.4,2.8-1.2l2.1-2.1l1.6,1.7c0.9,0.9,2,1.3,3.1,1.3c1.1,0,2.3-0.4,3.1-1.3c0.6-0.6,0.9-1.3,1.1-2.1
	c0.4,0.1,0.9,0.3,1.3,0.3c0,0,0,0,0,0c1.2,0,2.3-0.5,3.1-1.3c0.7-0.7,1.1-1.7,1.2-2.7c0.3,0.1,0.6,0.2,1,0.2c0,0,0,0,0,0
	c1.2,0,2.3-0.5,3.1-1.3c0.8-0.8,1.3-1.9,1.3-3.1c0-0.7-0.2-1.4-0.6-2c0.7-0.2,1.3-0.5,1.8-1c1.7-1.7,1.7-4.5,0-6.2l-1-1l6.6-6.3
	l3.5,3.5c0.3,0.3,0.6,0.4,0.9,0.4c0.3,0,0.7-0.1,0.9-0.4l6.4-6.3C127.4,118.6,127.4,117.8,126.9,117.3z M69.2,131.5l4.3-4.3
	c0.3-0.3,0.6-0.4,1-0.4c0.4,0,0.7,0.1,1,0.4l0.6,0.6c0.3,0.3,0.4,0.6,0.4,1c0,0.4-0.2,0.8-0.4,1l-0.5,0.5l0,0l-3.8,3.8
	c-0.6,0.6-1.5,0.5-2,0l-0.6-0.6C68.7,132.9,68.7,132,69.2,131.5z M72.4,140.5l-0.3-0.3c-0.7-0.7-0.7-1.8,0-2.5l1.7-1.7c0,0,0,0,0,0
	l3.8-3.8c0.3-0.3,0.8-0.5,1.3-0.5h0c0.5,0,0.9,0.2,1.3,0.5l0.3,0.3c0.7,0.7,0.7,1.8,0,2.5l-0.9,0.9c0,0,0,0,0,0l-3.8,3.8l-0.8,0.8
	C74.2,141.1,73.1,141.1,72.4,140.5z M77.7,143.9l-0.1-0.1c-0.6-0.6-0.6-1.7,0-2.3l3.8-3.8c0.3-0.3,0.7-0.5,1.1-0.5
	c0.5,0,0.9,0.2,1.3,0.6c0.6,0.6,0.6,1.7,0,2.4l-1.8,1.8l-1.3,1.3c0,0,0,0,0,0l-0.7,0.7C79.4,144.6,78.3,144.6,77.7,143.9z M84.5,147
	c-0.5,0.5-1.4,0.5-1.9,0c-0.5-0.5-0.5-1.3,0-1.9l1.8-1.8l0.8-0.8c0.3-0.3,0.6-0.4,0.9-0.4c0.3,0,0.7,0.1,0.9,0.4
	c0.5,0.5,0.5,1.4,0,1.9L84.5,147z M107.7,133.6c-0.3,0.3-0.8,0.5-1.3,0.5c-0.4,0-0.9-0.2-1.2-0.5l-2-2l-3-3c0,0-0.1,0-0.1,0
	l-0.4-0.4c-0.5-0.5-1.3-0.5-1.8,0c-0.5,0.5-0.5,1.3,0,1.8l3.4,3.4l2,2c0,0,0,0,0,0l1.8,1.8c0.3,0.3,0.5,0.8,0.5,1.2
	c0,0.5-0.2,0.9-0.5,1.3c-0.3,0.3-0.8,0.5-1.3,0.5c0,0,0,0,0,0c-0.5,0-0.9-0.2-1.3-0.5l-4.9-5c-0.2-0.2-0.5-0.3-0.7-0.4l-1.5-1.5
	c-0.5-0.5-1.3-0.5-1.8,0c-0.5,0.5-0.5,1.3,0,1.8l6.3,6.3c0.3,0.3,0.5,0.8,0.5,1.2c0,0.5-0.2,0.9-0.5,1.3c-0.3,0.3-0.8,0.5-1.2,0.5h0
	c-0.5,0-0.9-0.2-1.3-0.5l-4.9-5c-0.1-0.1-0.2-0.2-0.3-0.2l-1.5-1.5c-0.5-0.5-1.3-0.5-1.9,0c-0.5,0.5-0.5,1.3,0,1.9l5.6,5.5
	c0.4,0.4,0.5,0.9,0.5,1.2c0,0.5-0.2,0.9-0.5,1.2c-0.7,0.7-1.9,0.6-2.5,0l-2-2.1c0.1-0.4,0.2-0.7,0.2-1.1c0-1.1-0.4-2-1.2-2.8
	c-0.6-0.6-1.3-0.9-2.1-1c0.2-1.3-0.1-2.7-1.2-3.8c-0.6-0.6-1.4-0.9-2.2-1.1c0.4-1.4,0-3-1.1-4.2l-0.3-0.3c-0.7-0.8-1.7-1.1-2.8-1.2
	c0-0.1,0.1-0.2,0.1-0.3c0-1.1-0.4-2.1-1.2-2.9l-0.6-0.6c-1.6-1.6-4.2-1.6-5.7,0l-1.3,1.3l-1.2-1.2c0.3-3.2,2.3-5.6,2.3-5.6
	c0.5-0.6,0.4-1.4-0.2-1.8c-0.6-0.5-1.4-0.4-1.8,0.2c-0.1,0.1-1.7,2.2-2.5,5.1l-3-2.9l12.2-12.4l2.8,2.6c0.2,0.2,0.6,0.4,0.9,0.4h3.6
	l-6.6,6.4c-0.1,0.1-0.2,0.3-0.3,0.5c-0.3,0.8-0.9,2.9,0.6,3.7c0,0,3.9,2.2,6.8,0.4c1.5-1,3.4-2.8,4.2-3.6h6.4l11.3,10.8
	c0,0,0.1,0,0.1,0.1l1.8,1.9C108.4,131.8,108.4,132.9,107.7,133.6z M106.7,126.3l-2.8-2.9c2.4-4.1,0-9-1.7-11.1
	c-0.5-0.6-1.3-0.6-1.8-0.2c-0.6,0.5-0.6,1.3-0.2,1.8c0,0,3.2,4,1.7,7.6c-0.1,0-0.2,0-0.3-0.1l-5.8-5.5c-0.2-0.2-0.6-0.4-0.9-0.4
	h-7.5c-0.4,0-0.7,0.1-0.9,0.4c0,0-2.4,2.5-4.1,3.6c-1,0.6-2.8,0.2-3.7-0.2c0-0.1,0.1-0.3,0.1-0.5l8.3-8.1h9.7c0.3,0,0.6-0.1,0.8-0.3
	l3.5-2.8l12.1,12.3L106.7,126.3z"/>
<g class="st5">
	<path class="st6" d="M662,434.4c68.2,26.1,102.3,102.5,76.2,170.7c-26.1,68.2-102.5,102.3-170.7,76.2
		c-68.2-26.1-102.3-102.5-76.2-170.7C517.4,442.5,593.8,408.4,662,434.4z"/>
	<path class="st7" d="M661.3,433.7c68.1,26.1,102.2,102.4,76.1,170.6c-26.1,68.1-102.4,102.2-170.6,76.1
		c-68.1-26.1-102.2-102.4-76.1-170.6C516.8,441.7,593.2,407.6,661.3,433.7z"/>
	<path class="st8" d="M660.7,432.9c68.1,26.1,102.2,102.4,76.1,170.5c-26.1,68.1-102.4,102.2-170.5,76.1
		c-68.1-26.1-102.2-102.4-76.1-170.5C516.2,440.9,592.6,406.9,660.7,432.9z"/>
	<path class="st9" d="M660,432.2C728,458.2,762.1,534.5,736,602.6c-26.1,68.1-102.3,102.1-170.4,76.1
		c-68.1-26.1-102.1-102.3-76.1-170.4C515.6,440.2,591.9,406.1,660,432.2z"/>
	<path class="st10" d="M659.3,431.4c68,26,102.1,102.3,76,170.3c-26,68-102.3,102.1-170.3,76c-68-26-102.1-102.3-76-170.3
		C515.1,439.4,591.3,405.4,659.3,431.4z"/>
	<path class="st11" d="M658.7,430.6c68,26,102,102.2,76,170.2c-26,68-102.2,102-170.2,76c-68-26-102-102.2-76-170.2
		C514.5,438.6,590.7,404.6,658.7,430.6z"/>
	<path class="st12" d="M658,429.9c68,26,102,102.2,75.9,170.1c-26,68-102.2,102-170.1,75.9c-68-26-102-102.2-75.9-170.1
		C513.9,437.9,590,403.9,658,429.9z"/>
	<path class="st13" d="M657.3,429.1c67.9,26,101.9,102.1,75.9,170.1c-26,67.9-102.1,101.9-170.1,75.9
		c-67.9-26-101.9-102.1-75.9-170.1C513.3,437.1,589.4,403.1,657.3,429.1z"/>
	<path class="st14" d="M656.7,428.4c67.9,26,101.8,102.1,75.9,170c-26,67.9-102.1,101.8-170,75.9c-67.9-26-101.8-102.1-75.9-170
		C512.7,436.3,588.8,402.4,656.7,428.4z"/>
	<path class="st15" d="M656,427.6c67.8,26,101.8,102,75.8,169.9c-26,67.8-102,101.8-169.9,75.8c-67.8-26-101.8-102-75.8-169.9
		C512.1,435.6,588.2,401.6,656,427.6z"/>
	<path class="st16" d="M655.3,426.9c67.8,26,101.7,102,75.8,169.8c-26,67.8-102,101.7-169.8,75.8c-67.8-26-101.7-102-75.8-169.8
		C511.5,434.8,587.5,400.9,655.3,426.9z"/>
	<path class="st17" d="M654.7,426.1C722.5,452,756.4,528,730.4,595.8c-25.9,67.8-101.9,101.7-169.7,75.7
		C492.9,645.6,459,569.6,485,501.8C510.9,434.1,586.9,400.1,654.7,426.1z"/>
	<path class="st18" d="M654,425.3c67.7,25.9,101.6,101.9,75.7,169.6c-25.9,67.7-101.9,101.6-169.6,75.7
		c-67.7-25.9-101.6-101.9-75.7-169.6C510.3,433.3,586.3,399.4,654,425.3z"/>
	<path class="st19" d="M653.4,424.6c67.7,25.9,101.6,101.8,75.7,169.5c-25.9,67.7-101.8,101.6-169.5,75.7
		c-67.7-25.9-101.6-101.8-75.7-169.5C509.7,432.5,585.6,398.6,653.4,424.6z"/>
	<path class="st20" d="M652.7,423.8c67.7,25.9,101.5,101.8,75.6,169.5c-25.9,67.7-101.8,101.5-169.5,75.6
		c-67.7-25.9-101.5-101.8-75.6-169.5C509.1,431.8,585,397.9,652.7,423.8z"/>
	<path class="st21" d="M652,423.1c67.6,25.9,101.5,101.7,75.6,169.4c-25.9,67.6-101.7,101.5-169.4,75.6
		c-67.6-25.9-101.5-101.7-75.6-169.4C508.6,431,584.4,397.2,652,423.1z"/>
	<path class="st22" d="M651.4,422.3C719,448.2,752.8,524,726.9,591.6C701,659.2,625.2,693,557.6,667.1
		c-67.6-25.9-101.4-101.7-75.6-169.3C508,430.2,583.8,396.4,651.4,422.3z"/>
	<path class="st23" d="M650.7,421.5c67.6,25.9,101.4,101.6,75.5,169.2c-25.9,67.6-101.6,101.4-169.2,75.5
		c-67.6-25.9-101.4-101.6-75.5-169.2C507.4,429.5,583.1,395.7,650.7,421.5z"/>
	<path class="st24" d="M650,420.8c67.5,25.9,101.3,101.6,75.5,169.1c-25.9,67.5-101.6,101.3-169.1,75.5
		c-67.5-25.9-101.3-101.6-75.5-169.1C506.8,428.7,582.5,394.9,650,420.8z"/>
	<path class="st25" d="M649.4,420c67.5,25.8,101.3,101.5,75.4,169c-25.8,67.5-101.5,101.3-169,75.4c-67.5-25.8-101.3-101.5-75.4-169
		C506.2,427.9,581.9,394.2,649.4,420z"/>
	<path class="st26" d="M648.7,419.3c67.5,25.8,101.2,101.5,75.4,168.9c-25.8,67.5-101.5,101.2-168.9,75.4
		c-67.5-25.8-101.2-101.5-75.4-168.9C505.6,427.2,581.2,393.4,648.7,419.3z"/>
	<path class="st27" d="M648,418.5c67.4,25.8,101.2,101.4,75.4,168.8c-25.8,67.4-101.4,101.2-168.8,75.4
		c-67.4-25.8-101.2-101.4-75.4-168.8C505,426.4,580.6,392.7,648,418.5z"/>
	<path class="st28" d="M647.4,417.7c67.4,25.8,101.1,101.4,75.3,168.8c-25.8,67.4-101.4,101.1-168.8,75.3
		c-67.4-25.8-101.1-101.4-75.3-168.8C504.4,425.7,580,391.9,647.4,417.7z"/>
	<path class="st29" d="M646.7,417c67.4,25.8,101.1,101.3,75.3,168.7c-25.8,67.4-101.3,101.1-168.7,75.3
		C486,635.1,452.2,559.6,478,492.3C503.8,424.9,579.3,391.2,646.7,417z"/>
	<path class="st30" d="M646,416.2c67.3,25.8,101,101.3,75.2,168.6c-25.8,67.3-101.3,101-168.6,75.2c-67.3-25.8-101-101.3-75.2-168.6
		C503.2,424.1,578.7,390.4,646,416.2z"/>
	<path class="st31" d="M645.4,415.5c67.3,25.8,101,101.2,75.2,168.5c-25.8,67.3-101.2,101-168.5,75.2
		c-67.3-25.8-101-101.2-75.2-168.5C502.6,423.4,578.1,389.7,645.4,415.5z"/>
	<path class="st32" d="M644.7,414.7c67.3,25.8,100.9,101.2,75.2,168.4c-25.7,67.3-101.2,100.9-168.4,75.2
		c-67.3-25.8-100.9-101.2-75.2-168.4C502.1,422.6,577.5,388.9,644.7,414.7z"/>
	<path class="st33" d="M644.1,413.9c67.2,25.7,100.9,101.1,75.1,168.3c-25.7,67.2-101.1,100.9-168.3,75.1
		c-67.2-25.7-100.9-101.1-75.1-168.3C501.5,421.8,576.8,388.2,644.1,413.9z"/>
	<path class="st34" d="M643.4,413.2c67.2,25.7,100.8,101,75.1,168.2c-25.7,67.2-101,100.8-168.2,75.1
		c-67.2-25.7-100.8-101-75.1-168.2C500.9,421.1,576.2,387.5,643.4,413.2z"/>
	<path class="st35" d="M642.7,412.4c67.2,25.7,100.8,101,75.1,168.2c-25.7,67.2-101,100.8-168.2,75.1
		c-67.2-25.7-100.8-101-75.1-168.2C500.3,420.3,575.6,386.7,642.7,412.4z"/>
	<path class="st36" d="M642.1,411.7c67.1,25.7,100.7,100.9,75,168.1c-25.7,67.1-100.9,100.7-168.1,75
		c-67.1-25.7-100.7-100.9-75-168.1C499.7,419.5,574.9,386,642.1,411.7z"/>
	<path class="st37" d="M641.4,410.9c67.1,25.7,100.7,100.9,75,168c-25.7,67.1-100.9,100.7-168,75c-67.1-25.7-100.7-100.9-75-168
		C499.1,418.8,574.3,385.2,641.4,410.9z"/>
	<path class="st38" d="M640.7,410.1C707.8,435.8,741.3,511,715.7,578C690,645.1,614.8,678.6,547.8,653
		c-67.1-25.7-100.6-100.8-74.9-167.9C498.5,418,573.7,384.5,640.7,410.1z"/>
	<path class="st39" d="M640.1,409.4c67,25.7,100.6,100.8,74.9,167.8c-25.7,67-100.8,100.6-167.8,74.9
		c-67-25.7-100.6-100.8-74.9-167.8C497.9,417.3,573,383.7,640.1,409.4z"/>
	<path class="st40" d="M639.4,408.6c67,25.6,100.5,100.7,74.9,167.7c-25.6,67-100.7,100.5-167.7,74.9
		c-67-25.6-100.5-100.7-74.9-167.7C497.3,416.5,572.4,383,639.4,408.6z"/>
	<path class="st41" d="M638.7,407.9c67,25.6,100.5,100.7,74.8,167.6c-25.6,67-100.7,100.5-167.6,74.8
		c-67-25.6-100.5-100.7-74.8-167.6C496.7,415.7,571.8,382.2,638.7,407.9z"/>
	<path class="st42" d="M638.1,407.1c66.9,25.6,100.4,100.6,74.8,167.6c-25.6,66.9-100.6,100.4-167.6,74.8
		c-66.9-25.6-100.4-100.6-74.8-167.6C496.1,415,571.2,381.5,638.1,407.1z"/>
	<path class="st43" d="M637.4,406.3c66.9,25.6,100.3,100.6,74.7,167.5c-25.6,66.9-100.6,100.3-167.5,74.7
		C477.8,623,444.3,548,469.9,481.1C495.6,414.2,570.5,380.7,637.4,406.3z"/>
	<path class="st44" d="M636.8,405.6C703.6,431.2,737,506.1,711.5,573c-25.6,66.9-100.5,100.3-167.4,74.7
		c-66.8-25.6-100.3-100.5-74.7-167.4C495,413.4,569.9,380,636.8,405.6z"/>
	<path class="st45" d="M636.1,404.8c66.8,25.6,100.2,100.5,74.7,167.3c-25.6,66.8-100.5,100.2-167.3,74.7
		c-66.8-25.6-100.2-100.5-74.7-167.3C494.4,412.7,569.3,379.2,636.1,404.8z"/>
	<path class="st46" d="M635.4,404.1c66.8,25.6,100.2,100.4,74.6,167.2c-25.6,66.8-100.4,100.2-167.2,74.6
		c-66.8-25.6-100.2-100.4-74.6-167.2C493.8,411.9,568.6,378.5,635.4,404.1z"/>
	<path class="st47" d="M634.8,403.3c66.7,25.6,100.1,100.4,74.6,167.1C683.8,637.2,609,670.6,542.2,645
		c-66.7-25.6-100.1-100.4-74.6-167.1C493.2,411.1,568,377.8,634.8,403.3z"/>
	<path class="st48" d="M634.1,402.5c66.7,25.5,100.1,100.3,74.6,167c-25.5,66.7-100.3,100.1-167,74.6
		c-66.7-25.5-100.1-100.3-74.6-167C492.6,410.4,567.4,377,634.1,402.5z"/>
	<path class="st49" d="M633.4,401.8c66.7,25.5,100,100.3,74.5,167c-25.5,66.7-100.3,100-167,74.5c-66.7-25.5-100-100.3-74.5-167
		C492,409.6,566.8,376.3,633.4,401.8z"/>
	<path class="st50" d="M632.8,401c66.6,25.5,100,100.2,74.5,166.9c-25.5,66.6-100.2,100-166.9,74.5c-66.6-25.5-100-100.2-74.5-166.9
		C491.4,408.9,566.1,375.5,632.8,401z"/>
	<path class="st51" d="M632.1,400.3c66.6,25.5,99.9,100.2,74.4,166.8C681,633.7,606.4,667,539.8,641.5
		c-66.6-25.5-99.9-100.2-74.4-166.8C490.8,408.1,565.5,374.8,632.1,400.3z"/>
	<path class="st52" d="M631.4,399.5c66.6,25.5,99.9,100.1,74.4,166.7c-25.5,66.6-100.1,99.9-166.7,74.4
		c-66.6-25.5-99.9-100.1-74.4-166.7C490.2,407.3,564.9,374,631.4,399.5z"/>
	<path class="st53" d="M630.8,398.7c66.5,25.5,99.8,100.1,74.4,166.6c-25.5,66.5-100.1,99.8-166.6,74.4
		c-66.5-25.5-99.8-100.1-74.4-166.6C489.6,406.6,564.2,373.3,630.8,398.7z"/>
	<path class="st54" d="M630.1,398c66.5,25.5,99.8,100,74.3,166.5c-25.5,66.5-100,99.8-166.5,74.3c-66.5-25.5-99.8-100-74.3-166.5
		C489.1,405.8,563.6,372.5,630.1,398z"/>
	<path class="st55" d="M629.4,397.2c66.5,25.4,99.7,100,74.3,166.4c-25.4,66.5-100,99.7-166.4,74.3c-66.5-25.4-99.7-100-74.3-166.4
		C488.5,405,563,371.8,629.4,397.2z"/>
	<path class="st56" d="M628.8,396.5c66.4,25.4,99.7,99.9,74.2,166.3c-25.4,66.4-99.9,99.7-166.3,74.2
		c-66.4-25.4-99.7-99.9-74.2-166.3C487.9,404.3,562.3,371,628.8,396.5z"/>
	<path class="st57" d="M628.1,395.7c66.4,25.4,99.6,99.9,74.2,166.3c-25.4,66.4-99.9,99.6-166.3,74.2
		c-66.4-25.4-99.6-99.9-74.2-166.3C487.3,403.5,561.7,370.3,628.1,395.7z"/>
	<path class="st58" d="M627.5,395c66.4,25.4,99.6,99.8,74.2,166.2c-25.4,66.4-99.8,99.6-166.2,74.2c-66.4-25.4-99.6-99.8-74.2-166.2
		C486.7,402.7,561.1,369.5,627.5,395z"/>
	<path class="st59" d="M626.8,394.2c66.3,25.4,99.5,99.8,74.1,166.1c-25.4,66.3-99.8,99.5-166.1,74.1
		c-66.3-25.4-99.5-99.8-74.1-166.1C486.1,402,560.5,368.8,626.8,394.2z"/>
	<path class="st60" d="M626.1,393.4c66.3,25.4,99.5,99.7,74.1,166c-25.4,66.3-99.7,99.5-166,74.1c-66.3-25.4-99.5-99.7-74.1-166
		C485.5,401.2,559.8,368.1,626.1,393.4z"/>
	<path class="st61" d="M625.5,392.7c66.3,25.4,99.4,99.7,74.1,165.9c-25.4,66.3-99.7,99.4-165.9,74.1
		c-66.3-25.4-99.4-99.7-74.1-165.9C484.9,400.5,559.2,367.3,625.5,392.7z"/>
	<path class="st62" d="M624.8,391.9c66.2,25.4,99.4,99.6,74,165.8c-25.4,66.2-99.6,99.4-165.8,74c-66.2-25.4-99.4-99.6-74-165.8
		C484.3,399.7,558.6,366.6,624.8,391.9z"/>
	<path class="st63" d="M624.1,391.2c66.2,25.3,99.3,99.5,74,165.7c-25.3,66.2-99.5,99.3-165.7,74c-66.2-25.3-99.3-99.5-74-165.7
		C483.7,398.9,557.9,365.8,624.1,391.2z"/>
	<path class="st64" d="M623.5,390.4c66.2,25.3,99.3,99.5,73.9,165.7c-25.3,66.2-99.5,99.3-165.7,73.9
		c-66.2-25.3-99.3-99.5-73.9-165.7C483.1,398.2,557.3,365.1,623.5,390.4z"/>
	<path class="st65" d="M622.8,389.6c66.1,25.3,99.2,99.4,73.9,165.6c-25.3,66.1-99.4,99.2-165.6,73.9
		c-66.1-25.3-99.2-99.4-73.9-165.6C482.6,397.4,556.7,364.3,622.8,389.6z"/>
	<path class="st66" d="M622.1,388.9c66.1,25.3,99.2,99.4,73.9,165.5c-25.3,66.1-99.4,99.2-165.5,73.9
		c-66.1-25.3-99.2-99.4-73.9-165.5C482,396.6,556.1,363.6,622.1,388.9z"/>
	<path class="st67" d="M621.5,388.1c66.1,25.3,99.1,99.3,73.8,165.4c-25.3,66.1-99.3,99.1-165.4,73.8
		c-66.1-25.3-99.1-99.3-73.8-165.4C481.4,395.9,555.4,362.8,621.5,388.1z"/>
	<path class="st68" d="M620.8,387.4c66,25.3,99.1,99.3,73.8,165.3c-25.3,66-99.3,99.1-165.3,73.8c-66-25.3-99.1-99.3-73.8-165.3
		C480.8,395.1,554.8,362.1,620.8,387.4z"/>
	<path class="st69" d="M620.2,386.6c66,25.3,99,99.2,73.7,165.2c-25.3,66-99.2,99-165.2,73.7c-66-25.3-99-99.2-73.7-165.2
		C480.2,394.4,554.2,361.3,620.2,386.6z"/>
	<path class="st70" d="M619.5,385.8c66,25.2,99,99.2,73.7,165.1c-25.2,66-99.2,99-165.1,73.7c-66-25.2-99-99.2-73.7-165.1
		C479.6,393.6,553.5,360.6,619.5,385.8z"/>
	<path class="st71" d="M618.8,385.1c65.9,25.2,98.9,99.1,73.7,165.1c-25.2,65.9-99.1,98.9-165.1,73.7
		c-65.9-25.2-98.9-99.1-73.7-165.1C479,392.8,552.9,359.8,618.8,385.1z"/>
	<path class="st72" d="M618.2,384.3c65.9,25.2,98.9,99.1,73.6,165c-25.2,65.9-99.1,98.8-165,73.6c-65.9-25.2-98.9-99.1-73.6-165
		C478.4,392.1,552.3,359.1,618.2,384.3z"/>
	<path class="st73" d="M617.5,383.6c65.9,25.2,98.8,99,73.6,164.9c-25.2,65.9-99,98.8-164.9,73.6c-65.9-25.2-98.8-99-73.6-164.9
		C477.8,391.3,551.6,358.3,617.5,383.6z"/>
	<path class="st74" d="M616.8,382.8c65.8,25.2,98.7,99,73.5,164.8c-25.2,65.8-99,98.7-164.8,73.6c-65.8-25.2-98.7-99-73.5-164.8
		C477.2,390.5,551,357.6,616.8,382.8z"/>
	<path class="st75" d="M616.2,382c65.8,25.2,98.7,98.9,73.5,164.7c-25.2,65.8-98.9,98.7-164.7,73.5c-65.8-25.2-98.7-98.9-73.5-164.7
		C476.6,389.8,550.4,356.9,616.2,382z"/>
	<path class="st76" d="M615.5,381.3c65.7,25.2,98.6,98.9,73.5,164.6c-25.2,65.7-98.9,98.6-164.6,73.5
		c-65.7-25.2-98.6-98.9-73.5-164.6C476.1,389,549.8,356.1,615.5,381.3z"/>
	<path class="st77" d="M614.8,380.5c65.7,25.2,98.6,98.8,73.4,164.5c-25.2,65.7-98.8,98.6-164.5,73.4
		c-65.7-25.2-98.6-98.8-73.4-164.5C475.5,388.2,549.1,355.4,614.8,380.5z"/>
	<path class="st78" d="M614.2,379.8c65.7,25.1,98.5,98.8,73.4,164.4c-25.1,65.7-98.8,98.5-164.4,73.4
		c-65.7-25.1-98.5-98.8-73.4-164.5C474.9,387.5,548.5,354.6,614.2,379.8z"/>
	<path class="st79" d="M613.5,379c65.6,25.1,98.5,98.7,73.4,164.4c-25.1,65.6-98.7,98.5-164.4,73.4c-65.6-25.1-98.5-98.7-73.4-164.4
		C474.3,386.7,547.9,353.9,613.5,379z"/>
	<path class="st80" d="M612.8,378.2c65.6,25.1,98.4,98.7,73.3,164.3c-25.1,65.6-98.7,98.4-164.3,73.3
		c-65.6-25.1-98.4-98.7-73.3-164.3C473.7,386,547.2,353.1,612.8,378.2z"/>
	<path class="st81" d="M612.2,377.5c65.6,25.1,98.4,98.6,73.3,164.2c-25.1,65.6-98.6,98.4-164.2,73.3
		c-65.6-25.1-98.4-98.6-73.3-164.2C473.1,385.2,546.6,352.4,612.2,377.5z"/>
	<path class="st82" d="M611.5,376.7c65.5,25.1,98.3,98.6,73.2,164.1c-25.1,65.5-98.6,98.3-164.1,73.2
		c-65.5-25.1-98.3-98.6-73.2-164.1C472.5,384.4,546,351.6,611.5,376.7z"/>
	<path class="st83" d="M610.9,376c65.5,25.1,98.3,98.5,73.2,164c-25.1,65.5-98.5,98.3-164,73.2c-65.5-25.1-98.3-98.5-73.2-164
		C471.9,383.7,545.3,350.9,610.9,376z"/>
	<path class="st84" d="M610.2,375.2c65.5,25.1,98.2,98.5,73.2,163.9c-25.1,65.5-98.5,98.2-163.9,73.2
		c-65.5-25.1-98.2-98.5-73.2-163.9C471.3,382.9,544.7,350.1,610.2,375.2z"/>
	<path class="st85" d="M609.5,374.4c65.4,25.1,98.2,98.4,73.1,163.8c-25.1,65.4-98.4,98.2-163.8,73.1
		c-65.4-25.1-98.2-98.4-73.1-163.8C470.7,382.1,544.1,349.4,609.5,374.4z"/>
	<path class="st86" d="M608.9,373.7c65.4,25,98.1,98.4,73.1,163.8c-25,65.4-98.4,98.1-163.8,73.1c-65.4-25-98.1-98.4-73.1-163.8
		C470.1,381.4,543.5,348.6,608.9,373.7z"/>
	<path class="st87" d="M608.2,372.9c65.4,25,98.1,98.3,73,163.7c-25,65.4-98.3,98.1-163.7,73.1c-65.4-25-98.1-98.3-73-163.7
		C469.6,380.6,542.8,347.9,608.2,372.9z"/>
	<path class="st88" d="M607.5,372.2c65.3,25,98,98.3,73,163.6c-25,65.3-98.3,98-163.6,73c-65.3-25-98-98.3-73-163.6
		C469,379.8,542.2,347.2,607.5,372.2z"/>
	<path class="st89" d="M606.9,371.4c65.3,25,98,98.2,73,163.5c-25,65.3-98.2,98-163.5,73c-65.3-25-98-98.2-73-163.5
		C468.4,379.1,541.6,346.4,606.9,371.4z"/>
	<path class="st90" d="M606.2,370.6c65.3,25,97.9,98.1,72.9,163.4c-25,65.3-98.1,97.9-163.4,72.9c-65.3-25-97.9-98.1-72.9-163.4
		C467.8,378.3,540.9,345.7,606.2,370.6z"/>
	<path class="st91" d="M605.5,369.9c65.2,25,97.9,98.1,72.9,163.3c-25,65.2-98.1,97.9-163.3,72.9c-65.2-25-97.9-98.1-72.9-163.3
		C467.2,377.6,540.3,344.9,605.5,369.9z"/>
	<path class="st92" d="M604.9,369.1c65.2,25,97.8,98,72.9,163.2c-25,65.2-98,97.8-163.2,72.9c-65.2-25-97.8-98-72.9-163.2
		C466.6,376.8,539.7,344.2,604.9,369.1z"/>
	<path class="st93" d="M604.2,368.4c65.2,24.9,97.8,98,72.8,163.2c-24.9,65.2-98,97.8-163.2,72.8c-65.2-24.9-97.8-98-72.8-163.2
		C466,376,539.1,343.4,604.2,368.4z"/>
	<path class="st94" d="M603.6,367.6c65.1,24.9,97.7,97.9,72.8,163.1c-24.9,65.1-97.9,97.7-163.1,72.8
		c-65.1-24.9-97.7-97.9-72.8-163.1C465.4,375.3,538.4,342.7,603.6,367.6z"/>
	<path class="st95" d="M602.9,366.9c65.1,24.9,97.7,97.9,72.7,163c-24.9,65.1-97.9,97.7-163,72.7c-65.1-24.9-97.7-97.9-72.7-163
		C464.8,374.5,537.8,341.9,602.9,366.9z"/>
	<path class="st96" d="M602.2,366.1c65.1,24.9,97.6,97.8,72.7,162.9C650,594,577.1,626.6,512,601.7c-65.1-24.9-97.6-97.8-72.7-162.9
		C464.2,373.7,537.2,341.2,602.2,366.1z"/>
	<path class="st97" d="M601.6,365.3c65,24.9,97.6,97.8,72.7,162.8c-24.9,65-97.8,97.6-162.8,72.7c-65-24.9-97.6-97.8-72.7-162.8
		C463.6,373,536.5,340.4,601.6,365.3z"/>
	<path class="st98" d="M600.9,364.6c65,24.9,97.5,97.7,72.6,162.7c-24.9,65-97.7,97.5-162.7,72.6c-65-24.9-97.5-97.7-72.6-162.7
		C463.1,372.2,535.9,339.7,600.9,364.6z"/>
	<path class="st99" d="M600.2,363.8c65,24.9,97.5,97.7,72.6,162.6c-24.9,65-97.7,97.5-162.6,72.6c-65-24.9-97.5-97.7-72.6-162.6
		C462.5,371.4,535.3,338.9,600.2,363.8z"/>
	<path class="st100" d="M599.6,363.1c64.9,24.9,97.4,97.6,72.5,162.6c-24.9,64.9-97.6,97.4-162.6,72.6
		c-64.9-24.9-97.4-97.6-72.5-162.6C461.9,370.7,534.6,338.2,599.6,363.1z"/>
	<path class="st101" d="M598.9,362.3c64.9,24.8,97.4,97.6,72.5,162.5c-24.8,64.9-97.6,97.4-162.5,72.5
		c-64.9-24.8-97.4-97.6-72.5-162.5C461.3,369.9,534,337.5,598.9,362.3z"/>
	<path class="st102" d="M598.2,361.5c64.9,24.8,97.3,97.5,72.5,162.4c-24.8,64.9-97.5,97.3-162.4,72.5
		c-64.9-24.8-97.3-97.5-72.5-162.4C460.7,369.2,533.4,336.7,598.2,361.5z"/>
	<path class="st103" d="M597.6,360.8c64.8,24.8,97.2,97.5,72.4,162.3c-24.8,64.8-97.5,97.2-162.3,72.4
		c-64.8-24.8-97.2-97.5-72.4-162.3C460.1,368.4,532.8,336,597.6,360.8z"/>
	<path class="st104" d="M596.9,360c64.8,24.8,97.2,97.4,72.4,162.2c-24.8,64.8-97.4,97.2-162.2,72.4
		c-64.8-24.8-97.2-97.4-72.4-162.2C459.5,367.6,532.1,335.2,596.9,360z"/>
	<path class="st105" d="M596.2,359.3c64.7,24.8,97.1,97.4,72.4,162.1c-24.8,64.8-97.4,97.1-162.1,72.4
		c-64.7-24.8-97.1-97.4-72.4-162.1C458.9,366.9,531.5,334.5,596.2,359.3z"/>
	<path class="st106" d="M595.6,358.5c64.7,24.8,97.1,97.3,72.3,162c-24.8,64.7-97.3,97.1-162,72.3c-64.7-24.8-97.1-97.3-72.3-162
		C458.3,366.1,530.9,333.7,595.6,358.5z"/>
	<path class="st5" d="M594.9,357.7c64.7,24.8,97,97.3,72.3,161.9c-24.8,64.7-97.3,97-161.9,72.3c-64.7-24.8-97-97.3-72.3-161.9
		C457.7,365.3,530.2,333,594.9,357.7z"/>
</g>
<g>
	<linearGradient id="SVGID_1_" gradientUnits="userSpaceOnUse" x1="438.5327" y1="358.7103" x2="656.419" y2="586.024">
		<stop  offset="0" style="stop-color:#FFFFFF"/>
		<stop  offset="0.9973" style="stop-color:#D7D6D6"/>
	</linearGradient>
	<path class="st107" d="M697.1,477.4c-1.3,81.2-68.3,146-149.5,144.7c-81.2-1.3-146-68.3-144.7-149.5c1.3-81.2,68.3-146,149.5-144.7
		C633.7,329.2,698.4,396.2,697.1,477.4z"/>
	
		<ellipse transform="matrix(0.7071 -0.7071 0.7071 0.7071 -174.7852 528.0332)" class="st108" cx="550" cy="475" rx="140.8" ry="140.8"/>
</g>
<g>
	<g id="XMLID_1840_">
		<g id="XMLID_4655_">
			<g id="path2333">
				<path class="st112" d="M569.6,375.9c-10.3,0.7-13.6-6.7-24.7,7.5c-11,14.1-15.9,28.4-15.9,28.4l-40,6c0,0,3.2-17.4,9.6-25.3
					c7.3-12.3,20.6-24.2,36.8-29.2C551.6,358.1,579.7,375.1,569.6,375.9z"/>
				<path class="st113" d="M569.6,375.9c-10.3,0.7-13.6-6.7-24.7,7.5c-11,14.1-15.9,28.4-15.9,28.4l-40,6c0,0,3.2-17.4,9.6-25.3
					c7.3-12.3,20.6-24.2,36.8-29.2C551.6,358.1,579.7,375.1,569.6,375.9z"/>
			</g>
			<g id="path2381">
				<path class="st112" d="M464.9,499.2c5.8,8.5,1,15.1,18.8,17.7c17.7,2.5,32.6-0.4,32.6-0.4l25.2,31.7c0,0-16.7,5.9-26.7,4.3
					c-14.3-0.2-31.2-5.7-43.7-17.3C458.6,523.7,459.2,490.8,464.9,499.2z"/>
				<path class="st113" d="M464.9,499.2c5.8,8.5,1,15.1,18.8,17.7c17.7,2.5,32.6-0.4,32.6-0.4l25.2,31.7c0,0-16.7,5.9-26.7,4.3
					c-14.3-0.2-31.2-5.7-43.7-17.3C458.6,523.7,459.2,490.8,464.9,499.2z"/>
			</g>
			<g id="path2365">
				<path class="st112" d="M623,527.5c4.5-9.3,12.6-8.4,5.9-25.1c-6.7-16.6-16.6-28-16.6-28l14.8-37.7c0,0,13.4,11.5,17.1,21
					c7,12.5,10.6,29.9,6.9,46.5C647.3,520.8,618.6,536.6,623,527.5z"/>
				<path class="st113" d="M623,527.5c4.5-9.3,12.6-8.4,5.9-25.1c-6.7-16.6-16.6-28-16.6-28l14.8-37.7c0,0,13.4,11.5,17.1,21
					c7,12.5,10.6,29.9,6.9,46.5C647.3,520.8,618.6,536.6,623,527.5z"/>
			</g>
			<g id="XMLID_4657_">
				
					<ellipse id="XMLID_4665_" transform="matrix(0.7071 -0.7071 0.7071 0.7071 -171.1459 528.478)" class="st114" cx="552.4" cy="470.8" rx="88.3" ry="88.3"/>
				<g id="XMLID_4664_">
					<path class="st115" d="M604.6,461c3,47.1-32.7,87.7-79.8,90.7c-2.5,0.2-5,0.2-7.5,0.2c-20.6-8.9-37.8-25.5-46.8-47.9
						c-18.3-45.2,3.5-96.7,48.7-115c6.7-2.7,13.5-4.5,20.3-5.5C574.9,392.1,602.2,422.8,604.6,461z"/>
				</g>
				<g id="XMLID_4663_">
					<path class="st116" d="M559.9,442.9c2.8,44.1-29.6,82.3-73,87.2c-6.8-7.5-12.3-16.2-16.3-26.1c-18.3-45.2,3.5-96.7,48.7-115
						c3.8-1.6,7.7-2.8,11.6-3.8C547.4,399.2,558.4,419.6,559.9,442.9z"/>
				</g>
				<g id="XMLID_4658_">
					<path id="XMLID_4662_" class="st117" d="M546,518.6c0.6,2.3-2.3,4-2.6,6.3c-0.4,3,3.4,6.3,1.4,8.6c-1.4,1.6-4.9,1.1-5.2,3.3
						c-0.1,0.8,0.5,1.6,0.8,2.4c1,3.1-2.5,5.7-3.6,8.8c-0.5,1.6-0.4,3.3-0.3,4.9c0.1,1.6,0.2,3.2,0.4,4.8c-3.8-0.7-7.5-1.6-11.2-2.8
						c-0.7-3.1-1.1-6.4-2.1-9.4c-0.3-1-0.7-2-1.5-2.6c-0.8-0.6-1.8-0.8-2.7-1.2c-3.9-1.4-6.5-5.2-7.6-9.3c-1-4-0.7-8.3-0.4-12.4
						c-2.2,1.2-4.8,2.4-7,1.2c-0.8-0.5-1.5-1.3-2.3-1.7c-2.1-1-4.5,0.6-6.7,1.6c-5.1,2.2-11.7-0.2-14.2-5.2c-0.7-1.3-1.3-2.9-2.8-3
						c-1.3-0.1-1.9,1.1-2.4,2.4c-2.1-3.6-4-7.4-5.6-11.4c-4.3-10.6-6.4-21.4-6.5-32.2c3.9-0.6,7.4-2,9.1-5.3c0.7-1.3,1-2.7,1.7-3.9
						c0.8-1.2,2.2-2.2,3.6-1.7c0.7,0.2,1.2,0.8,1.8,1.3c1.9,1.6,4.8,2.1,7.1,1.1c1.2,3.5-4.1,5.8-5.1,9.4c-0.9,3.3,2.7,6.5,6.1,6.6
						c0.8,0,1.7-0.1,2.4,0.2c0.6,0.3,1.1,0.8,1.6,1.4c1.3,1.6,2.6,3.2,4,4.8c-1.6-3.8-3.2-7.6-4.8-11.5c-0.2-0.5-0.4-1-0.4-1.5
						c0-2.2,3.4-2.4,5.1-1.1c1.7,1.3,2.8,3.4,4.9,4.2c3,1.1,6.7-1.3,9.4,0.3c2.1,1.3,2.4,4.5,0.9,6.5c-1.5,2-4.1,2.8-6.6,2.8
						c-0.7,1.1,0.7,2.5,1.9,2.6c1.3,0.1,2.5-0.5,3.8-0.5c1.3,0,2.8,0.9,2.6,2.1c-1.4,1.9-3.6,3.2-6,3.4c-0.6,0.1-1.3,0.1-1.7,0.5
						c-1.3,1-0.1,2.9,0.6,4.4c2.1,4.1-1.1,9.8-5.7,10.2c-1.8,0.1-3.6-0.4-5.4,0.1c-1.7,0.5-3,2.9-1.7,4.1c2.6,2.4,6.7,3.2,9.4,1.1
						c0.8-0.6,1.7-1.4,2.6-1c0.6,0.3,0.8,1,1.2,1.6c1.1,2,3.8,2.8,6.1,2.4c2.3-0.4,4.4-1.6,6.5-2.7c2.7-1.3,5.7-2.4,8.7-1.7
						c2.9,0.7,5.3,4,4.2,6.8c2.8-1.1,5.7-1.8,8.7-2.3C542.7,516.3,545.5,516.6,546,518.6z"/>
					<path id="XMLID_4661_" class="st117" d="M520.9,401.2c0.6,4.5-2.8,8.8-2.2,13.3c0.2,1.8,1.1,3.5,1.3,5.3
						c0.3,3.2-1.6,6.3-1.7,9.6c0,3.2,1.8,6,3.2,8.9c1.3,2.9,2.2,6.5,0.3,9.1c-1.4,1.9-3.8,2.7-5.3,4.6c-1.7,2.2-1.7,5.2-2.1,8
						c-0.4,2.8-1.8,5.9-4.6,6.3c-1.8-4.4-3.7-8.8-5.5-13.2c-0.4-0.9-0.8-1.8-1.4-2.5c-0.8-1-2-1.7-3.1-2.3
						c-3.6-2.1-7.1-4.1-10.7-6.2c-0.3-0.2-0.7-0.4-1.1-0.4c-1.6-0.2-2.1,2.1-3.3,3.1c-0.8,0.7-2,0.7-3,0.8c-6,0.5-11.7,3.3-16,7.6
						c5.3-25.6,21.9-48.5,46.6-61C516.5,394.1,520.3,396.9,520.9,401.2z"/>
					<path id="XMLID_4660_" class="st117" d="M634.2,437.7c5,12.3,7,25.1,6.4,37.5c-2.5-0.2-4.9-1.1-6.8-2.7
						c-0.6-0.5-1.2-1.2-2.1-1.3c-0.9-0.1-1.7,0.4-2.6,0.7c-4.2,1.2-7.5-4.5-11.9-4.8c-0.6,0-1.3,0.1-1.8,0.4
						c-1.6,1.1-1.1,3.7-2.3,5.2c-1.5,2-4.6,1.3-6.7,0.1c-2.1-1.2-4.5-2.8-6.8-2c-1.9,0.7-3.2,2.8-5.2,2.9c-0.7,0-1.5-0.2-2.2,0
						c-1.9,0.5-1.8,3.1-1.6,5c0.2,1.9-0.8,4.7-2.6,4.1c-0.4-0.1-0.8-0.4-1.1-0.7c-2.9-2.6-5.7-5.1-8.6-7.7c-1.9-1.7-3.9-3.8-3.6-6.2
						c0.3-1.9,1.9-3.3,2.6-5.1c0.8-1.8-2-6.2-3.6-5.1c-2.1,1.5-4.3,2.9-6.4,4.4c-1.5,1-3.2,2.1-4.9,1.5c-0.5-0.2-1-0.5-1.5-0.7
						c-1.3-0.4-2.7,0.1-3.7,1c-1,0.9-1.8,2-2.7,3c-1.7,2.1-4,3.7-6.5,4.6c-0.6,0.2-1.5,0.3-1.9-0.2c-0.1-0.2-0.2-0.5-0.2-0.8
						c0-3.9,3.7-6.7,6.3-9.7c2.2-2.6,3.9-5.8,7-7.2c1-0.4,2-0.6,2.9-1.1c2.4-1.3,3.4-4.1,4.2-6.7c0.5-1.5,1.3-3.1,1.7-4.6
						c-0.7-1.2-1.5-2.3-2.2-3.5c-0.2-0.3-0.4-0.6-0.7-0.7c-0.6-0.2-1.1,0.6-1.8,0.7c-1,0.2-1.5-1.1-2.4-1.6
						c-0.8-0.4-1.7-0.1-2.4,0.4c-0.7,0.5-1.1,1.3-1.6,2c-1.5,2-3.3,3.8-5.4,5.1c-0.7,0.5-1.8,0.9-2.4,0.3c-0.3-0.3-0.4-0.6-0.4-1
						c-0.2-1.7,0.9-3.3,2-4.6c2.4-3.2,4.9-6.4,7.3-9.7c1.1-1.5,2.5-3.2,4.4-3.5c2.2-0.4,5.2,1.4,7.1,0c0.4,1.3,0.9,2.5,1.7,3.6
						c2.8-1.6,3.1-5.8,5.7-7.7c1.4-1.1,3.3-1.3,5-1.9c1.7-0.6,3.4-1.9,3.4-3.7c0-1-0.6-1.8-0.8-2.8c-0.6-3.5,3.7-5.7,4.9-9
						c0.7-1.9,0.3-4.1-1-5.6c-0.4-0.5-0.9-0.9-1-1.5c-0.1-0.5,0.1-0.9,0.3-1.3c0.7-1.5,1.6-2.9,2.6-4.2
						C609.6,400.3,625.5,416.4,634.2,437.7z"/>
					<path id="XMLID_4659_" class="st117" d="M587.9,528.2c0.9,0.2-0.1,1.8,0.7,2c0.9,0.2,1.8-0.3,2.3-1c0.4-0.4,0.7-0.9,0.9-1.5
						c0.3-0.7,0.6-1.4,0.9-2.1c0.3-0.8,0.6-1.6,0.8-2.3c0.8-2.1,1.5-4.4,1.3-6.6c-0.2-1.8-1.5-3-1.2-4.8c-0.8-0.4-0.7-1.6-0.2-2.3
						c0.6-0.7,1.4-1,2.1-1.5c2.5-1.8,2.9-5.9,0.7-8.1c-0.9-1-2.3-1.6-2.9-2.8c-0.9-1.9,0.4-4,1.3-5.9c0.9-1.9,1.3-4.7-0.6-5.6
						c-1.4-0.7-3,0.3-4.6,0.7c-3.6,0.9-7.1-1.9-9.1-5.1c-1.4-2.3-3-5.4-5.7-5.2c-1.7,0.1-2.9,1.5-4.1,2.6c-1.8,1.6-4.1,2.8-6.5,2.8
						c-2.4,0.1-4.9-1.2-6-3.3c-1.5,1.4-3.9,1.1-5.6,2.2c-1.6,1-2.1,3-3.3,4.4c-1.4,1.6-3.7,2.3-4.8,4.1c-1.4,2.3-0.3,5.3,0.8,7.8
						c0.2,0.4,0.4,0.8,0.7,1c0.4,0.3,0.9,0.3,1.4,0.4c1.5,0.2,2.8,1.2,3.6,2.5c0.3,0.6,0.5,1.3,1,1.8c0.7,0.6,1.7,0.7,2.6,0.7
						c3.2,0.1,6.7,0.2,9.5-1.4c1.7-0.9,3.5-2.5,5.2-1.7c0.4,0.2,0.7,0.5,1.1,0.5c-0.4,1-1.6,2.9-1.5,4c0,0.4,0.1,0.8,0.3,1.1
						c0.5,0.7,1.5,0.8,2.4,0.8c1.5,0.1,3,0.6,4.1,1.5c1.1,1,1.9,2.5,1.6,4c-0.2,1.1-0.9,2.2-0.8,3.3
						C576.7,515.5,581.4,526.6,587.9,528.2z"/>
				</g>
			</g>
			<g id="XMLID_4656_">
				<path id="path2335" class="st0" d="M524.1,367.8c27.6,3.5,48.7,29.7,53,40.7c-7.9,4.7-16.3,7.7-16.3,7.7l49.2,23l21.1-48.3
					l-14.7,4.5c-13.3-21.2-33.1-30.2-47.3-34.6C554.9,356.4,529.3,363.3,524.1,367.8z"/>
				<path id="path2367" class="st0" d="M652.7,492.1c-16.8,22.1-50.1,27.3-61.7,25.5c-0.1-9.2,1.5-18,1.5-18L548,530.8l31.3,42.4
					l3.5-15c25-1,42.7-13.5,53.6-23.6C647.2,524.5,654,498.9,652.7,492.1z"/>
				<path id="path2383" class="st0" d="M480.7,542.6c-10.7-25.6,1.4-57.1,8.7-66.2c8,4.5,14.8,10.3,14.8,10.3l-4.7-54.1l-52.4,5.9
					l11.3,10.5c-11.7,22.1-9.6,43.7-6.3,58.2C455.4,521.7,474.2,540.4,480.7,542.6L480.7,542.6z"/>
			</g>
		</g>
	</g>
	<g>
		<g>
			<path class="st2" d="M515.7,375.6c8.3-6,17.6-3.1,26.4,0c9.5,3.4,15.7,9.2,22.9,16c0.5,0.4,1.3-0.2,0.9-0.7
				c-6.8-8.9-14.4-14.3-25-17.9c-8.1-2.8-19.3-5.9-25.6,2.2C515.2,375.4,515.4,375.8,515.7,375.6L515.7,375.6z"/>
		</g>
	</g>
	<g>
		<g>
			<path class="st2" d="M650.8,486.2c-0.1,8.2-6.9,15.1-13.5,19.4c-6.3,4.1-13.6,6.1-20.7,8.3c-0.4,0.1-0.4,0.8,0.1,0.8
				c9.3-0.7,18.4-4.2,25.6-10.2c4-3.3,13.7-12.9,8.6-18.2C650.9,486.1,650.8,486.1,650.8,486.2L650.8,486.2z"/>
		</g>
	</g>
	<g>
		<g>
			<path class="st2" d="M478.7,504c-6.6,14.7-4.2,45.3,16.5,46.8c0.5,0,0.5-0.7,0.1-0.8c-8-2.8-14.1-9.5-16.3-17.6
				c-2.7-9.7,0.7-18.7,0.1-28.4C479,503.9,478.7,503.8,478.7,504L478.7,504z"/>
		</g>
	</g>
</g>
<text transform="matrix(0.95 0 0 1 138.7086 139.8861)" class="st4 st118 st119 st120">環境永續商品</text>
<text transform="matrix(0.95 0 0 1 711.4359 139.8861)" class="st4 st118 st119 st120">社會永續商品</text>
<g>
	<text transform="matrix(1 0 0 1 719.8033 194.0143)" class="st4 st121 st122">疫苗綜合保險</text>
	<text transform="matrix(1 0 0 1 719.8033 231.2669)" class="st4 st121 st122">農業保險</text>
	<text transform="matrix(1 0 0 1 719.8033 268.5195)" class="st4 st121 st122">資安險</text>
	<text transform="matrix(1 0 0 1 719.8033 305.7722)" class="st4 st121 st122">運動員團體傷害保險</text>
</g>
<g>
	<text transform="matrix(1 0 0 1 98.6966 194.0143)" class="st4 st121 st122">車聯御守UBI汽車綜合保險</text>
	<text transform="matrix(1 0 0 1 98.6966 231.2669)" class="st4 st121 st122">電動汽車綜合保險</text>
	<text transform="matrix(1 0 0 1 98.6966 268.5195)" class="st4 st121 st122">綠能建材升級險</text>
	<text transform="matrix(1 0 0 1 98.6966 305.7722)" class="st4 st121 st122">D&amp;O(Directors and officers)</text>
	<text transform="matrix(1 0 0 1 98.6966 343.0248)" class="st4 st121 st122">綠能工程保險</text>
</g>
<text transform="matrix(0.95 0 0 1 721.4359 649.5385)" class="st4 st118 st119 st120">永續保險服務</text>
<g>
	<text transform="matrix(1 0 0 1 729.8033 703.6667)" class="st4 st121 st122">損害防阻服務</text>
	<text transform="matrix(1 0 0 1 729.8033 740.9193)" class="st4 st121 st122">廠房紅外線檢測服務</text>
	<text transform="matrix(1 0 0 1 729.8033 778.1719)" class="st4 st121 st122">電力契約容量最佳化服務</text>
	<text transform="matrix(1 0 0 1 729.8033 815.4245)" class="st4 st121 st122">天災損防服務</text>
</g>
<text transform="matrix(0.95 0 0 1 128.7086 599.5385)" class="st4 st118 st119 st120">綠色金融服務</text>
<g>
	<text transform="matrix(1 0 0 1 88.6966 653.6667)" class="st4 st121 st122">行動辦公</text>
	<text transform="matrix(1 0 0 1 88.6966 690.9193)" class="st4 st121 st122">Ａi聊天機器人</text>
	<text transform="matrix(1 0 0 1 88.6966 728.1719)" class="st4 st121 st122">機器人流程自動化RPA</text>
	<text transform="matrix(1 0 0 1 85.6966 754.4245)" class="st4 st121 st123">（Robotic Process Automation）</text>
	<text transform="matrix(1 0 0 1 88.6966 791.6771)" class="st4 st121 st122">行動投保</text>
	<text transform="matrix(1 0 0 1 88.6966 866.1818)" class="st4 st121 st122">多元支付</text>
	<text transform="matrix(1 0 0 1 88.6966 828.9297)" class="st4 st121 st122">電子保單</text>
</g>
<g>
	<text transform="matrix(1 0 0 1 138.5476 549.5635)" class="st4 st124 st125">24H</text>
	<path class="st126" d="M132.8,537.3c0.4-0.2,1-0.4,1.5-0.4h31.3c1.7,0,3.1,1.4,3.1,3.1v10.7c0,1.7-1.4,3.1-3.1,3.1h-24.5"/>
	<path class="st4" d="M124.5,546.2c3.5,8.1,5.5,10.2,8.1,9.8c2.6-0.3,5.3-2.6,4.6-4.7c-0.7-2.1-3.9-4.3-5.4-3.6s-3.7,0.6-4.5-2.3
		c-0.9-2.9-2.8-6-1.7-6.7s3.7-2.1,2.9-4.1c-0.8-2-2.3-3.7-4.7-2.5C119.7,534,121.9,540.2,124.5,546.2z"/>
</g>
<g>
	<path class="st132" d="M699,151.1h-37.8c-0.4,0-0.7-0.3-0.7-0.7V117c0-0.4,0.3-0.7,0.7-0.7l12.1-0.1c0.4,0,0.7-0.3,0.7-0.7
		l0.2-12.5c0-0.4,0.3-0.7,0.7-0.7H699c0.4,0,0.7,0.3,0.7,0.7v47.3C699.7,150.8,699.4,151.1,699,151.1z"/>
	<path class="st132" d="M690.2,114.1L690.2,114.1c-2.2,0-3.9-1.8-3.9-3.9v0c0-2.2,1.8-3.9,3.9-3.9l0,0c2.2,0,3.9,1.8,3.9,3.9v0
		C694.1,112.4,692.4,114.1,690.2,114.1z"/>
	<line class="st132" x1="665.5" y1="127.8" x2="692.8" y2="127.8"/>
	<line class="st132" x1="665.5" y1="134.5" x2="692.8" y2="134.5"/>
	<line class="st132" x1="683.5" y1="140.1" x2="692.8" y2="140.1"/>
	<polygon class="st4" points="674.1,101.6 659.6,116.6 673.9,116.2 	"/>
	<path class="st4" d="M692.4,122h-3.6c-0.4,0-0.7-0.3-0.7-0.7v-3.6c0-0.4,0.3-0.7,0.7-0.7h3.6c0.4,0,0.7,0.3,0.7,0.7v3.6
		C693,121.7,692.7,122,692.4,122z"/>
</g>
</svg>
