<svg xmlns="http://www.w3.org/2000/svg" xmlns:xlink="http://www.w3.org/1999/xlink" viewBox="0 0 715.24 163.83"><defs><style>.cls-1,.cls-2{opacity:0.62;}.cls-1{fill:url(#未命名漸層_6);}.cls-2{fill:url(#未命名漸層_72);}.cls-3{fill:#efb09a;}.cls-4{fill:#302a28;}.cls-5{fill:#448af3;}.cls-6{fill:#ce484a;}.cls-7{fill:#312b28;}.cls-8{fill:#da9984;}.cls-11,.cls-13,.cls-19,.cls-21,.cls-22,.cls-23,.cls-33,.cls-34,.cls-37,.cls-38,.cls-39,.cls-40,.cls-41,.cls-48,.cls-9{fill:none;}.cls-33,.cls-9{stroke:#da9984;}.cls-37,.cls-48,.cls-9{stroke-linecap:round;}.cls-37,.cls-9{stroke-linejoin:round;}.cls-9{stroke-width:0.07px;}.cls-10{fill:#2e3445;}.cls-11,.cls-34{stroke:#2e3445;}.cls-11,.cls-13,.cls-19,.cls-21,.cls-22,.cls-23,.cls-33,.cls-34,.cls-38,.cls-39,.cls-40,.cls-41,.cls-48{stroke-miterlimit:10;}.cls-11{stroke-width:0.1px;}.cls-12{fill:#e0595c;}.cls-13,.cls-19,.cls-21,.cls-22,.cls-23,.cls-37,.cls-38{stroke:#fff;}.cls-13{stroke-width:0.09px;}.cls-14{fill:#c1d9f0;}.cls-15{fill:#fff;}.cls-16{fill:#a9bad2;}.cls-17{fill:#8ea3c3;}.cls-18{fill:#5b6772;}.cls-19{stroke-width:0.13px;}.cls-20{fill:#ebf3db;opacity:0.78;}.cls-21,.cls-22,.cls-23{stroke-width:0.7px;}.cls-22{stroke-dasharray:3.48 3.48;}.cls-23{stroke-dasharray:2.81 2.81;}.cls-24,.cls-29{font-size:10.5px;fill:#4b4949;letter-spacing:0.08em;}.cls-24,.cls-29,.cls-50,.cls-53,.cls-80,.cls-81{font-family:NotoSansCJKtc-Regular-B5pc-H, Noto Sans CJK TC;}.cls-25{font-size:28.49px;letter-spacing:0.04em;}.cls-25,.cls-75,.cls-79{fill:#719b74;}.cls-25,.cls-42,.cls-44{font-family:AcuminConcept-Regular, Acumin Variable Concept;}.cls-26{letter-spacing:-0.02em;}.cls-27{letter-spacing:0.05em;}.cls-28{letter-spacing:0.06em;}.cls-30{fill:#3d6187;}.cls-31{fill:#3875e6;}.cls-32{fill:#e6eff6;}.cls-33{stroke-width:0.06px;}.cls-34{stroke-width:0.08px;}.cls-35{fill:#e0514b;}.cls-36{fill:#3e3534;}.cls-37{stroke-width:0.04px;}.cls-38{stroke-width:0.09px;}.cls-39,.cls-40,.cls-41{stroke:#98bc9c;stroke-width:0.5px;}.cls-40{stroke-dasharray:0.01 1.14 0.01 0;}.cls-41{stroke-dasharray:1.16 0 0.01 1.14 0.01 0;}.cls-42,.cls-44,.cls-80,.cls-81{font-size:8px;fill:#98bc9c;}.cls-43{letter-spacing:0.01em;}.cls-44{letter-spacing:0em;}.cls-45{letter-spacing:0em;}.cls-46{letter-spacing:0em;}.cls-47{letter-spacing:-0.01em;}.cls-48{stroke:#719b74;stroke-width:2px;}.cls-49{fill:#efd357;}.cls-50,.cls-80{letter-spacing:0.08em;}.cls-51{letter-spacing:0.01em;}.cls-52{letter-spacing:-0.02em;}.cls-53,.cls-81{letter-spacing:0.08em;}.cls-54,.cls-55,.cls-57,.cls-65,.cls-82,.cls-84,.cls-85,.cls-88{font-size:13.8px;font-family:AcuminConcept-Medium, Acumin Variable Concept;font-weight:500;}.cls-54,.cls-55,.cls-57,.cls-65,.cls-70,.cls-78,.cls-82,.cls-84,.cls-85,.cls-88{fill:#eab541;}.cls-54,.cls-61{letter-spacing:0em;}.cls-56{letter-spacing:0em;}.cls-57{letter-spacing:-0.02em;}.cls-58{letter-spacing:0em;}.cls-59{letter-spacing:0em;}.cls-60{letter-spacing:0em;}.cls-62,.cls-82{letter-spacing:0.01em;}.cls-63{letter-spacing:-0.01em;}.cls-64{letter-spacing:0em;}.cls-65{letter-spacing:0em;}.cls-66{letter-spacing:0em;}.cls-67{letter-spacing:0.01em;}.cls-68{letter-spacing:0.02em;}.cls-69{letter-spacing:0em;}.cls-70,.cls-75{font-size:16.31px;font-family:AcuminConcept-Bold, Acumin Variable Concept;font-weight:700;}.cls-71,.cls-75{letter-spacing:0.01em;}.cls-72{letter-spacing:0em;}.cls-73{letter-spacing:0em;}.cls-74{font-size:11.36px;font-family:NotoSansCJKtc-Bold-B5pc-H, Noto Sans CJK TC;font-weight:400;letter-spacing:0.02em;}.cls-76{letter-spacing:0.01em;}.cls-77{letter-spacing:0em;}.cls-83,.cls-85{letter-spacing:0.02em;}.cls-84,.cls-86{letter-spacing:0em;}.cls-87{letter-spacing:0.01em;}.cls-88{letter-spacing:0.01em;}</style><linearGradient id="未命名漸層_6" x1="300.17" y1="104.64" x2="575.42" y2="104.64" gradientUnits="userSpaceOnUse"><stop offset="0" stop-color="#ebf3db"/><stop offset="1" stop-color="#fff"/></linearGradient><linearGradient id="未命名漸層_72" x1="6202.64" y1="104.64" x2="6416.05" y2="104.64" gradientTransform="matrix(1, 0, 0, -1, -6115.96, 209.29)" gradientUnits="userSpaceOnUse"><stop offset="0" stop-color="#f3f0db"/><stop offset="0.2" stop-color="#f6f3e3"/><stop offset="1" stop-color="#fff"/></linearGradient></defs><g id="圖層_2" data-name="圖層 2"><g id="圖層_1-2" data-name="圖層 1"><rect class="cls-1" x="300.17" y="45.45" width="275.26" height="118.38"/><rect class="cls-2" x="86.68" y="45.45" width="213.4" height="118.38" transform="translate(386.76 209.29) rotate(-180)"/><path class="cls-3" d="M49.93,61.94c.16.28-1.11,1.75-2.32,2.47-1,.62-3.54,1.8-4.28,2.14l-2.06-3.21a9.37,9.37,0,0,0,1.07-1c.74-.84,3-2.91,3.34-2.57s-1,2.06-.76,2.1a7.43,7.43,0,0,0,2-1.5c.5-.49,1.39-1.71,1.79-1.65s.46.66.46.66.29-.51.57-.27,0,1.13,0,1.13.12-.29.37,0-.58,1.55-.58,1.55A.26.26,0,0,1,49.93,61.94Z"/><path class="cls-4" d="M17.67,42.91a5.62,5.62,0,0,0-5,5.73c0,3.24-.62,4.91-2.57,4.53a15.46,15.46,0,0,0,12.7.37,6.11,6.11,0,0,1-1-3.5C21.62,47.61,17.67,42.91,17.67,42.91Z"/><path class="cls-5" d="M31.69,76h0a3.52,3.52,0,0,1-4.75-1.43L20.07,61.78A3.51,3.51,0,0,1,21.49,57h0a3.52,3.52,0,0,1,4.75,1.42l6.88,12.78A3.52,3.52,0,0,1,31.69,76Z"/><path class="cls-6" d="M16.07,80.23c-2.3,3-3.16,9.24-1.7,16s2,11.13,2,11.13a5.67,5.67,0,0,0,11.26-1.38L25.25,80.23Z"/><path class="cls-5" d="M15.56,55.57,9.42,58.35s1.37,15.81,1.51,17.54a19.71,19.71,0,0,1-.39,4.34H25.25s-.17-8.47.82-10.83c.67-1.61,1.13-2.58.74-4.41S23.58,59.91,24,56.73l-3.21-1Z"/><path class="cls-5" d="M4.5,78.53h0A3.51,3.51,0,0,1,2.41,74l5-13.62a3.53,3.53,0,0,1,4.51-2.09h0A3.51,3.51,0,0,1,14,62.82L9,76.44A3.53,3.53,0,0,1,4.5,78.53Z"/><path class="cls-7" d="M21.58,46.41a1.94,1.94,0,0,0-1.18-2.68Z"/><path class="cls-3" d="M20.83,48.56V55.7a2,2,0,0,1-2,1.71,3.55,3.55,0,0,1-3.06-1.5l-.23-.33h0l.75-7Z"/><polygon class="cls-8" points="20.83 54.89 17.67 51.45 20.84 52.64 20.83 54.89"/><path class="cls-3" d="M17.69,52.21a4.18,4.18,0,0,0,4.28.16c1.06-.7.88-2.32.57-3.35h0c-.07-.22-.16-.52-.27-.85l-1-3.31c-.26-1-3.25-3.38-6.07-.33S16.21,51.34,17.69,52.21Z"/><path class="cls-4" d="M21.18,44.43s0,1.25-1.79,2.08-3.4,2.11-3.19,4a4.87,4.87,0,0,1-.43,2.88,12,12,0,0,0-1.42-4.24,4,4,0,0,1-.09-3.72C15.43,43.22,18.48,41.58,21.18,44.43Z"/><path class="cls-3" d="M16.49,50.07c.38.56.49,1,.05,1.25A1.16,1.16,0,0,1,15,51a1.1,1.1,0,0,1,.11-1.54C15.53,49.15,16.12,49.52,16.49,50.07Z"/><path class="cls-9" d="M15.51,50.49a.83.83,0,0,1,.69,0c-.26-.64-1-.38-1-.38"/><path class="cls-10" d="M19.24,48.43c.07.24.26.41.42.37s.24-.29.17-.54-.26-.41-.42-.37S19.17,48.18,19.24,48.43Z"/><path class="cls-10" d="M21.27,47.65c.07.23.24.38.39.34s.22-.26.15-.5-.23-.38-.38-.34S21.21,47.41,21.27,47.65Z"/><path class="cls-6" d="M29.63,136.58h-10l-3.42-29.3,0-.67a5.67,5.67,0,0,1,11.32-.33Z"/><path class="cls-11" d="M18.39,48s.33-.76,1-.7"/><path class="cls-11" d="M21,46.76a1,1,0,0,1,.85.11"/><path class="cls-12" d="M11.43,136.58H1.91l3-30.26v-.11a5.66,5.66,0,0,1,11.31.4,4.12,4.12,0,0,1,0,.51Z"/><path class="cls-5" d="M44.29,68.06,32.65,75.42,32,76a3.55,3.55,0,0,1-4-5.79l13-7.31.29.45,2.06,3.21Z"/><path class="cls-11" d="M20.43,47.83s.37,1.23,1.14,1.18a1.46,1.46,0,0,1-.44.44"/><path class="cls-12" d="M20.64,80.23l-.13.83-4.27,26.08A5.68,5.68,0,0,1,5,106s.52-4.42.6-11.29C5.62,89.34,6.83,85,8.72,82.26a10.33,10.33,0,0,1,1.82-2Z"/><path class="cls-11" d="M21.54,50.45A1.19,1.19,0,0,1,20,50.29"/><path class="cls-8" d="M18,49.52c0,.27.42.5.95.51s1-.19,1-.46-.41-.5-.94-.52S18,49.25,18,49.52Z"/><path class="cls-8" d="M22,48.88c.08.14.3.18.56.13-.07-.22-.16-.52-.27-.85C22,48.41,21.87,48.7,22,48.88Z"/><path class="cls-13" d="M16.75,51.32a.44.44,0,0,1-.31.53.43.43,0,0,1-.22-.84A.44.44,0,0,1,16.75,51.32Z"/><polygon class="cls-3" points="0 143 7.34 143 8.29 141.55 8.27 143 9.89 143 9.74 138.81 10.1 136.57 4.12 136.57 4.1 138.81 0 143"/><path class="cls-14" d="M21.06,55.67l-.37,7.51-4.92-7.27a3.55,3.55,0,0,0,3.06,1.5A2.41,2.41,0,0,0,21.06,55.67Z"/><polygon class="cls-15" points="15.58 55.16 19.25 57.35 18.48 58.71 15.06 55.8 15.58 55.16"/><polygon class="cls-15" points="20.83 55.48 19.25 57.35 20.21 58.5 21.2 55.82 20.83 55.48"/><polygon class="cls-16" points="40.56 78.63 20.8 79.46 25.34 64.44 45.1 63.62 40.56 78.63"/><polygon class="cls-17" points="20.98 78.73 14.28 73.29 33.4 72.49 40.75 77.91 20.98 78.73"/><polygon class="cls-16" points="40.18 78.32 20.41 79.15 24.95 64.13 44.72 63.3 40.18 78.32"/><polygon class="cls-17" points="44.72 63.3 45.1 63.62 25.34 64.44 20.8 79.46 20.41 79.15 24.95 64.13 44.72 63.3"/><polygon class="cls-18" points="14.28 73.29 14.1 74.02 20.8 79.46 21.02 78.73 14.28 73.29"/><path class="cls-17" d="M36,71.58c0,.54-.94,1-2.15,1.06s-2.21-.34-2.23-.88.94-1,2.15-1.06S36,71,36,71.58Z"/><polygon class="cls-3" points="26.41 143 24.65 141.7 24.8 143 23.17 143 22.37 138.81 21.94 136.57 28.27 136.57 28.51 138.81 33.6 143 26.41 143"/><polygon class="cls-4" points="4.1 138.81 0 143 7.34 143 8.29 141.55 8.27 143 9.89 143 9.74 138.81 4.1 138.81"/><polygon class="cls-4" points="26.41 143 24.65 141.7 24.8 143 23.17 143 22.37 138.81 28.51 138.81 33.6 143 26.41 143"/><path class="cls-3" d="M29,75.06c.29.29,0,.8,0,.8s.53-.23.61.13-.55.85-.63.92.26-.1.26.26-1.26.85-1.38.89a.26.26,0,0,1,.23.33c-.05.32-1.93.74-3.34.6-1.18-.12-3.89-.69-4.7-.86l.22-3.8a9.06,9.06,0,0,0,1.5-.17c1.11-.23,4.18-.51,4.22-.06s-2,1.06-1.86,1.23a7.51,7.51,0,0,0,2.47,0C27.23,75.21,28.68,74.77,29,75.06Z"/><path class="cls-5" d="M20.27,73.19l-.06,1.14L20,78.13l-.06,1-14.7-.25a3.55,3.55,0,0,1,.25-7l1.1.19h0Z"/><polyline class="cls-11" points="17.51 72.96 10.49 72.37 11.93 68.42"/><line class="cls-11" x1="10.75" y1="78.98" x2="7.56" y2="78.98"/><path class="cls-19" d="M20.07,48.26a.81.81,0,0,1-.21,1.1.81.81,0,0,1-1-.5.79.79,0,0,1,.21-1.09A.8.8,0,0,1,20.07,48.26Z"/><path class="cls-19" d="M22.07,47.49a.8.8,0,0,1-.21,1.1A.92.92,0,0,1,21.07,47,.79.79,0,0,1,22.07,47.49Z"/><line class="cls-19" x1="19.95" y1="48.07" x2="20.76" y2="47.79"/><path class="cls-20" d="M699.89,99.76H616a15.34,15.34,0,0,0-15.35,15.34v5.75l-11.32,8.28,11.32,8.28v11.08A15.34,15.34,0,0,0,616,163.83h83.93a15.34,15.34,0,0,0,15.35-15.34V115.1A15.34,15.34,0,0,0,699.89,99.76Z"/><polyline class="cls-21" points="603.18 119.9 603.18 121.29 602.04 122.1"/><line class="cls-22" x1="599.2" y1="124.1" x2="594.93" y2="127.1"/><polyline class="cls-21" points="593.51 128.11 592.37 128.91 593.51 129.71"/><line class="cls-22" x1="596.35" y1="131.71" x2="600.62" y2="134.72"/><polyline class="cls-21" points="602.04 135.72 603.18 136.52 603.18 137.92"/><path class="cls-23" d="M603.18,140.73v6.42c0,7.79,6.57,14.12,14.67,14.12h80.42a14.4,14.4,0,0,0,14.66-14.12V116a14.39,14.39,0,0,0-14.66-14.12H617.85c-8.1,0-14.67,6.32-14.67,14.12v2.48"/><text class="cls-24" transform="translate(631.69 124.18)">合計<tspan class="cls-25"><tspan x="0" y="24">3</tspan><tspan class="cls-26" x="16.81" y="24">,</tspan><tspan class="cls-27" x="20.31" y="24">2</tspan><tspan class="cls-28" x="36.69" y="24">1</tspan><tspan x="48.68" y="24">7</tspan><tspan class="cls-29" x="63.38" y="24">件</tspan></tspan></text><polygon class="cls-30" points="633.01 97.08 633.04 93.02 628.27 93.72 633.01 97.08"/><path class="cls-3" d="M607.2,77.79l-.44-1.26s-.77-1.2-1-1.67a6,6,0,0,0-.67-1c-.08-.07-.34,0-.36.06a6.83,6.83,0,0,0,.27,1.19l.29,1.12s-1.63-1.48-2.15-2c-.29-.29-1.1-1.2-1.32-1s.56,1.16.81,1.51l.9,1.3L602,74.42c-.28-.29-1-1.24-1.24-1s.52,1.1.75,1.42l1.26,1.85L601.16,75c-.23-.22-.81-1-1-.76s.46.89.66,1.14l1.35,1.75L600.94,76c-.13-.12-.53-.47-.64-.34s.34.68.49.87L602,78.13a1.82,1.82,0,0,0,.34.34l2.07,2.08Z"/><path class="cls-31" d="M623.28,92.35l-16.15,10.22a4.78,4.78,0,0,0-1.29.82,4.52,4.52,0,1,0,6.08,6.7l18.61-9.76Z"/><path class="cls-31" d="M604.37,107.37c0-.21,0-.42,0-.63a4.52,4.52,0,1,1,9,0l-.27,20.19h-7.52Z"/><path class="cls-5" d="M631.84,100.24l-10.11,12.1a5.08,5.08,0,0,1-7.13.64h0a5.08,5.08,0,0,1-.64-7.13l10.11-12.1a5.08,5.08,0,0,1,7.13-.63h0A5.07,5.07,0,0,1,631.84,100.24Z"/><polygon class="cls-32" points="623.56 72.94 618.78 75.09 619.44 94.52 633.04 94.73 634.93 73.46 628.46 72.58 623.56 72.94"/><path class="cls-3" d="M623.56,70.13v3s.19.66,1.73.67a7.09,7.09,0,0,0,3.17-1L628,66.17Z"/><polygon class="cls-8" points="623.56 72.75 626.72 69.47 623.56 69.43 623.56 72.75"/><path class="cls-3" d="M622.27,64V68.3c0,.86.24,2.14,1.22,2.43a3.33,3.33,0,0,0,3.22-1.11c.93-1,3-5.57.13-7.25A3.07,3.07,0,0,0,622.27,64Z"/><path class="cls-12" d="M615.78,90.62a2.69,2.69,0,0,1-3.43,0h0l-8.51-9.84L605,79.52l2.15-2.27.24-.27,8.76,9.87A2.67,2.67,0,0,1,615.78,90.62Z"/><path class="cls-5" d="M612.76,108.65a4.52,4.52,0,0,1,4.53-4.52c2.5,0,3.87,1,4.41,3.53,1.27,5.78,3.92,21.19,3.92,21.19h-7.84l-5-19.56A4.48,4.48,0,0,1,612.76,108.65Z"/><path class="cls-12" d="M612.64,90.74h0a3.14,3.14,0,0,0,4.26-1.17l5.64-9.95a3.13,3.13,0,0,0-1.17-4.26h0a3.15,3.15,0,0,0-4.27,1.17l-5.64,10A3.13,3.13,0,0,0,612.64,90.74Z"/><path class="cls-4" d="M626.54,62.21s-3.47-1.6-4.27-.55.54,1.42.54,1.42-1.66-.2-1.59.92,4.2-.41,4.2-.41-1.37.62-.58,1.12a1.68,1.68,0,0,0,1.7-.16s.79.45.66,2.52,1.1,2.52,1.1,2.52-.14-3.13.46-4S628.48,61.69,626.54,62.21Z"/><path class="cls-3" d="M627,67.55c-.33.53-.42.9,0,1.16a1.07,1.07,0,0,0,1.44-.34,1,1,0,0,0-.14-1.44C627.88,66.67,627.34,67,627,67.55Z"/><path class="cls-33" d="M628.08,67.51a.75.75,0,0,0-.71.48,1.63,1.63,0,0,1,.59,0"/><path class="cls-10" d="M624.85,66.45c0,.2-.1.36-.23.36s-.24-.16-.24-.36.11-.37.24-.37S624.85,66.25,624.85,66.45Z"/><path class="cls-34" d="M624.7,68.72a1.13,1.13,0,0,1-1.23.51"/><path class="cls-34" d="M623.86,66.58l-.45,1.28a.32.32,0,0,0,.12.35l.36.23"/><path class="cls-34" d="M625.22,65.84a1.06,1.06,0,0,0-1-.12"/><path class="cls-10" d="M622.43,66.45c0,.2.11.36.24.36s.23-.16.23-.36-.1-.37-.23-.37S622.43,66.25,622.43,66.45Z"/><path class="cls-34" d="M622.21,65.82a.76.76,0,0,1,.82-.1"/><path class="cls-12" d="M637.84,90.61h0a3.14,3.14,0,0,0,2.24-3.81l-2.87-11.07a3.14,3.14,0,0,0-3.81-2.24h0a3.14,3.14,0,0,0-2.25,3.81L634,88.37A3.14,3.14,0,0,0,637.84,90.61Z"/><path class="cls-3" d="M642,99.19l3.68-2.28v0a27,27,0,0,0,3.39,3.76.58.58,0,0,1,.12.64l-.9,2.08a1.22,1.22,0,0,1-.75.69l-1.45.49a.19.19,0,0,1-.25-.23l.29-1.18a.35.35,0,0,0-.2-.41l-1.4-.63L645.7,104a.24.24,0,0,1-.06.33l-.14.11a.25.25,0,0,1-.34,0l-2.51-2.93-.58-2.19Z"/><path class="cls-8" d="M624.48,67.77c.06.18.41.23.77.11s.61-.37.55-.56-.41-.23-.77-.11S624.42,67.58,624.48,67.77Z"/><path class="cls-8" d="M622.27,67.21v.7c.3,0,.55,0,.59-.2S622.64,67.3,622.27,67.21Z"/><polygon class="cls-3" points="612.2 129.96 612.36 126.94 606.24 126.94 606.15 129.96 612.2 129.96"/><polygon class="cls-8" points="606.19 128.7 612.36 126.94 606.24 126.94 606.19 128.7"/><polygon class="cls-3" points="625.66 131.88 625.16 128.85 619.19 128.85 619.95 131.88 625.66 131.88"/><polygon class="cls-35" points="624.45 74.36 625.55 74.36 625.65 74.58 625.14 74.95 624.7 74.95 624.34 74.51 624.45 74.36"/><polygon class="cls-8" points="619.56 130.3 625.16 128.85 619.19 128.85 619.56 130.3"/><path class="cls-12" d="M635.24,84.27a2.88,2.88,0,0,1,4,.45l7.31,12-5.12,3.16-7.29-11.11C633.32,87.57,633.87,85.22,635.24,84.27Z"/><polygon class="cls-15" points="628.44 72.55 624.96 73.83 625.59 75.28 628.59 72.86 628.44 72.55"/><polygon class="cls-15" points="623.57 72.9 623.4 73.24 624.3 75.14 624.96 73.83 623.57 72.9"/><polygon class="cls-35" points="624.7 74.95 623.05 87.75 624.34 89.41 626.01 87.91 625.14 74.95 624.7 74.95"/><line class="cls-34" x1="632" y1="81.26" x2="633.83" y2="88.83"/><line class="cls-34" x1="619.14" y1="85.85" x2="618.98" y2="81.26"/><path class="cls-36" d="M625.66,131.88l.54,2.21h-8a1.81,1.81,0,0,1,1.76-2.21h5.71Z"/><path class="cls-36" d="M612.2,130v2.41h-8.39v-.2a2.34,2.34,0,0,1,2.33-2.21h6.05Z"/><path class="cls-37" d="M606,130.44s-.19-.8-.64-.58.61.61.61.61l-.63.43"/><path class="cls-37" d="M606,130.44s.18-.8.63-.58-.6.61-.6.61l.62.43"/><path class="cls-37" d="M620,132.45s-.18-.8-.63-.59.6.61.6.61l-.63.44"/><path class="cls-37" d="M620,132.45s.18-.8.63-.59-.6.61-.6.61l.62.44"/><path class="cls-12" d="M623.06,73.17s-.33,3.42-.86,8.59S621.71,95,620,96.54a28.71,28.71,0,0,0-5.2,1.15A25,25,0,0,1,617,92.57c1.2-1.85,1.78-17.48,1.78-17.48Z"/><polygon class="cls-32" points="622.78 76.06 622.37 80.09 623.66 78.99 623.57 76.14 622.78 76.06"/><path class="cls-12" d="M629.69,72.75s-1.33,5.76-2,10.9-.42,10.11-2,13.12c0,0,6.5,1.17,6.48,3.79A7.92,7.92,0,0,0,634,95.78c0-2.77.92-22.32.92-22.32Z"/><line class="cls-38" x1="617.94" y1="87.74" x2="618.78" y2="83.25"/><line class="cls-38" x1="634.02" y1="88.37" x2="632.92" y2="83.25"/><line class="cls-39" x1="70.34" y1="137.43" x2="326.06" y2="137.43"/><line class="cls-39" x1="70.34" y1="137.43" x2="70.34" y2="134.96"/><line class="cls-39" x1="98.75" y1="137.43" x2="98.75" y2="134.96"/><line class="cls-39" x1="127.17" y1="137.43" x2="127.17" y2="134.96"/><line class="cls-39" x1="155.58" y1="137.43" x2="155.58" y2="134.96"/><line class="cls-39" x1="183.99" y1="137.43" x2="183.99" y2="134.96"/><line class="cls-39" x1="212.41" y1="137.43" x2="212.41" y2="134.96"/><line class="cls-39" x1="240.82" y1="137.43" x2="240.82" y2="136.86"/><line class="cls-40" x1="240.82" y1="136.86" x2="240.82" y2="136.7"/><line class="cls-41" x1="240.82" y1="135.7" x2="240.82" y2="36.21"/><line class="cls-39" x1="240.82" y1="36.21" x2="240.82" y2="35.63"/><line class="cls-39" x1="269.23" y1="137.43" x2="269.23" y2="134.96"/><line class="cls-39" x1="297.65" y1="137.43" x2="297.65" y2="134.96"/><polyline class="cls-39" points="326.06 134.96 326.06 137.43 494.13 137.43 575.27 137.43"/><text class="cls-42" transform="translate(61.87 140.92)">0</text><text class="cls-42" transform="translate(57.46 121.1)"><tspan class="cls-43">5</tspan><tspan x="4.41" y="0">0</tspan></text><text class="cls-44" transform="translate(54.43 101.28)">1<tspan class="cls-45" x="2.94" y="0">0</tspan><tspan class="cls-46" x="7.44" y="0">0</tspan></text><text class="cls-42" transform="translate(54.55 81.46)">1<tspan class="cls-43" x="2.91" y="0">5</tspan><tspan x="7.32" y="0">0</tspan></text><text class="cls-42" transform="translate(53.12 61.64)"><tspan class="cls-43">2</tspan><tspan class="cls-45" x="4.25" y="0">0</tspan><tspan x="8.75" y="0">0</tspan></text><text class="cls-42" transform="translate(53.33 41.83)"><tspan class="cls-47">2</tspan><tspan class="cls-43" x="4.14" y="0">5</tspan><tspan x="8.54" y="0">0</tspan></text><line class="cls-39" x1="70.34" y1="137.43" x2="70.34" y2="38.34"/><line class="cls-39" x1="70.34" y1="137.43" x2="76.73" y2="137.43"/><line class="cls-39" x1="70.34" y1="117.62" x2="76.73" y2="117.62"/><line class="cls-39" x1="70.34" y1="97.8" x2="76.73" y2="97.8"/><line class="cls-39" x1="70.34" y1="77.98" x2="76.73" y2="77.98"/><line class="cls-39" x1="70.34" y1="58.16" x2="76.73" y2="58.16"/><line class="cls-39" x1="70.34" y1="38.34" x2="76.73" y2="38.34"/><line class="cls-48" x1="112.96" y1="98.19" x2="84.55" y2="135.85"/><line class="cls-48" x1="141.37" y1="90.27" x2="112.96" y2="98.19"/><line class="cls-48" x1="169.79" y1="92.25" x2="141.37" y2="90.27"/><line class="cls-48" x1="198.2" y1="74.02" x2="169.79" y2="92.25"/><line class="cls-48" x1="226.61" y1="55.39" x2="198.2" y2="74.02"/><line class="cls-48" x1="255.03" y1="77.58" x2="226.61" y2="55.39"/><line class="cls-48" x1="283.44" y1="97" x2="255.03" y2="77.58"/><polyline class="cls-48" points="283.44 97 311.85 51.42 345.77 65.12 375.55 43.34 394.71 68.8 417.92 45.45 449.18 45.45 471.8 63.52 498.84 72.6 524.56 41.34 550.5 19.62"/><rect class="cls-49" x="82.74" y="132.85" width="6" height="6"/><rect class="cls-49" x="111.15" y="95.19" width="6" height="6"/><rect class="cls-49" x="138.37" y="87.27" width="6" height="6"/><rect class="cls-49" x="166.79" y="89.25" width="6" height="6"/><rect class="cls-49" x="195.2" y="71.02" width="6" height="6"/><rect class="cls-49" x="223.61" y="52.39" width="6" height="6"/><rect class="cls-49" x="252.03" y="74.58" width="6" height="6"/><rect class="cls-49" x="280.44" y="94" width="6" height="6"/><rect class="cls-49" x="308.85" y="48.42" width="6" height="6"/><text class="cls-42" transform="translate(305.65 147.37)">3<tspan class="cls-50" x="4.4" y="0">月</tspan></text><text class="cls-42" transform="translate(277.34 147.37)">2<tspan class="cls-50" x="4.2" y="0">月</tspan></text><text class="cls-42" transform="translate(249.57 147.37)">1<tspan class="cls-50" x="2.91" y="0">月</tspan></text><text class="cls-42" transform="translate(219.04 147.37)"><tspan class="cls-51">1</tspan><tspan x="2.95" y="0">2</tspan><tspan class="cls-50" x="7.15" y="0">月</tspan></text><text class="cls-42" transform="translate(191.35 147.37)"><tspan class="cls-52">1</tspan><tspan x="2.78" y="0">1</tspan><tspan class="cls-50" x="5.7" y="0">月</tspan></text><text class="cls-44" transform="translate(162.08 147.37)">1<tspan class="cls-46" x="2.94" y="0">0</tspan><tspan class="cls-50" x="7.41" y="0">月</tspan></text><text class="cls-42" transform="translate(135.21 147.37)">9<tspan class="cls-50" x="4.33" y="0">月</tspan></text><text class="cls-42" transform="translate(106.75 147.37)">8<tspan class="cls-50" x="4.41" y="0">月</tspan></text><text class="cls-42" transform="translate(78.64 147.37)">7<tspan class="cls-53" x="3.81" y="0">月</tspan></text><rect class="cls-49" x="341.77" y="60.63" width="6.76" height="6.76"/><rect class="cls-49" x="371.81" y="40.13" width="6.76" height="6.76"/><rect class="cls-49" x="391.32" y="65.25" width="6.76" height="6.76"/><rect class="cls-49" x="414.61" y="42.07" width="6.76" height="6.76"/><rect class="cls-49" x="445.65" y="42.07" width="6.76" height="6.76"/><rect class="cls-49" x="468.3" y="59.97" width="6.76" height="6.76"/><rect class="cls-49" x="495.23" y="68.63" width="6.76" height="6.76"/><rect class="cls-49" x="521.14" y="37.73" width="6.76" height="6.76"/><rect class="cls-49" x="547.18" y="16.46" width="6.76" height="6.76"/><text class="cls-54" transform="translate(80.44 125.21)">4</text><text class="cls-55" transform="translate(102.92 87.65)">9<tspan class="cls-56" x="7.55" y="0">9</tspan></text><text class="cls-57" transform="translate(130.57 82.23)">1<tspan class="cls-58" x="4.88" y="0">1</tspan><tspan class="cls-59" x="10.05" y="0">9</tspan></text><text class="cls-57" transform="translate(158.39 82.38)">1<tspan class="cls-60" x="4.88" y="0">1</tspan><tspan class="cls-61" x="10.06" y="0">4</tspan></text><text class="cls-55" transform="translate(185.19 64.95)"><tspan class="cls-60">1</tspan><tspan class="cls-62" x="5.17" y="0">6</tspan><tspan x="12.92" y="0">0</tspan></text><text class="cls-55" transform="translate(250.24 68.63)">1<tspan class="cls-63" x="5.12" y="0">5</tspan><tspan class="cls-64" x="12.63" y="0">1</tspan></text><text class="cls-65" transform="translate(273.98 116.13)">10<tspan class="cls-66" x="12.97" y="0">2</tspan></text><text class="cls-55" transform="translate(317.76 47.7)"><tspan class="cls-67">2</tspan><tspan class="cls-68" x="7.45" y="0">1</tspan><tspan x="12.81" y="0">7</tspan></text><text class="cls-55" transform="translate(214 47.53)"><tspan class="cls-62">2</tspan><tspan class="cls-69" x="7.41" y="0">0</tspan><tspan x="15.23" y="0">7</tspan></text><text class="cls-70" transform="translate(187.02 30.81)"><tspan class="cls-71">2</tspan><tspan class="cls-72" x="9.12" y="0">0</tspan><tspan class="cls-73" x="18.82" y="0">2</tspan><tspan x="27.89" y="0">1</tspan><tspan class="cls-74" x="34.39" y="0">年</tspan></text><text class="cls-75" transform="translate(247.73 30.81)">2<tspan class="cls-72" x="9.12" y="0">0</tspan><tspan class="cls-76" x="18.82" y="0">2</tspan><tspan class="cls-77" x="28.08" y="0">2</tspan><tspan class="cls-74" x="37.12" y="0">年</tspan></text><rect class="cls-78" x="167.6" y="25.09" width="13.06" height="4.33"/><polygon class="cls-78" points="169.68 22.69 169.68 31.81 165.15 27.36 169.68 22.69"/><rect class="cls-79" x="301.34" y="25.09" width="13.06" height="4.33"/><polygon class="cls-79" points="312.32 22.69 312.32 31.81 316.85 27.36 312.32 22.69"/><line class="cls-39" x1="351.97" y1="134.68" x2="351.97" y2="137.67"/><line class="cls-39" x1="379.79" y1="134.68" x2="379.79" y2="137.67"/><line class="cls-39" x1="407.59" y1="134.68" x2="407.59" y2="137.67"/><line class="cls-39" x1="433.39" y1="134.68" x2="433.39" y2="137.67"/><line class="cls-39" x1="459.19" y1="134.68" x2="459.19" y2="137.67"/><line class="cls-39" x1="484.99" y1="134.68" x2="484.99" y2="137.67"/><line class="cls-39" x1="510.79" y1="134.68" x2="510.79" y2="137.67"/><line class="cls-39" x1="536.59" y1="134.68" x2="536.59" y2="137.67"/><line class="cls-39" x1="562.39" y1="134.68" x2="562.39" y2="137.67"/><text class="cls-80" transform="translate(334.15 147.18)">4月</text><text class="cls-80" transform="translate(361.83 147.18)">5月</text><text class="cls-80" transform="translate(387.51 147.18)">6月</text><text class="cls-80" transform="translate(415.19 147.18)">7月</text><text class="cls-80" transform="translate(441.88 147.18)">8月</text><text class="cls-80" transform="translate(467.56 147.18)">9月</text><text class="cls-81" transform="translate(490.7 147.18)">10月</text><text class="cls-81" transform="translate(518.38 147.18)">11月</text><text class="cls-81" transform="translate(546.06 147.18)">12月</text><text class="cls-82" transform="translate(335.63 81.03)">2<tspan class="cls-69" x="7.41" y="0">0</tspan><tspan class="cls-64" x="15.23" y="0">1</tspan></text><text class="cls-55" transform="translate(363.94 35.85)"><tspan class="cls-83">2</tspan><tspan class="cls-59" x="7.6" y="0">2</tspan><tspan x="14.89" y="0">3</tspan></text><text class="cls-84" transform="translate(385.83 85.79)">18<tspan class="cls-64" x="12.71" y="0">1</tspan></text><text class="cls-85" transform="translate(407.94 36.9)">2<tspan class="cls-67" x="7.6" y="0">2</tspan><tspan class="cls-64" x="15.05" y="0">1</tspan></text><text class="cls-55" transform="translate(455.47 82.23)"><tspan class="cls-86">1</tspan><tspan class="cls-87" x="5.06" y="0">8</tspan><tspan x="12.85" y="0">3</tspan></text><text class="cls-55" transform="translate(490.11 90.62)"><tspan class="cls-86">1</tspan><tspan x="5.06" y="0">80</tspan></text><text class="cls-55" transform="translate(503.1 33.14)"><tspan class="cls-59">2</tspan><tspan class="cls-63" x="7.29" y="0">3</tspan><tspan x="14.82" y="0">3</tspan></text><text class="cls-88" transform="translate(540.29 11.74)">4<tspan class="cls-69" x="7.67" y="0">0</tspan><tspan class="cls-64" x="15.5" y="0">1</tspan></text></g></g></svg>