<?xml version="1.0" encoding="utf-8"?>
<!-- Generator: Adobe Illustrator 26.3.1, SVG Export Plug-In . SVG Version: 6.00 Build 0)  -->
<svg version="1.1" xmlns="http://www.w3.org/2000/svg" xmlns:xlink="http://www.w3.org/1999/xlink" x="0px" y="0px"
	 viewBox="0 0 715.2 163.8" style="enable-background:new 0 0 715.2 163.8;" xml:space="preserve">
<style type="text/css">
	.st0{display:none;}
	.st1{display:inline;}
	.st2{opacity:0.62;fill:url(#SVGID_1_);enable-background:new    ;}
	.st3{opacity:0.62;fill:url(#SVGID_00000158737977175677196020000004975790552013552287_);enable-background:new    ;}
	.st4{fill:#EFB09A;}
	.st5{fill:#302A28;}
	.st6{fill:#448AF3;}
	.st7{fill:#CE484A;}
	.st8{fill:#312B28;}
	.st9{fill:#DA9984;}
	.st10{fill:none;stroke:#DA9984;stroke-width:7.000000e-02;stroke-linecap:round;stroke-linejoin:round;}
	.st11{fill:#2E3445;}
	.st12{fill:none;stroke:#2E3445;stroke-width:0.1;stroke-miterlimit:10;}
	.st13{fill:#E0595C;}
	.st14{fill:none;stroke:#FFFFFF;stroke-width:9.000000e-02;stroke-miterlimit:10;}
	.st15{fill:#C1D9F0;}
	.st16{fill:#FFFFFF;}
	.st17{fill:#A9BAD2;}
	.st18{fill:#8EA3C3;}
	.st19{fill:#5B6772;}
	.st20{fill:none;stroke:#FFFFFF;stroke-width:0.13;stroke-miterlimit:10;}
	.st21{opacity:0.78;fill:#EBF3DB;enable-background:new    ;}
	.st22{fill:none;stroke:#FFFFFF;stroke-width:0.7;stroke-miterlimit:10;}
	.st23{fill:none;stroke:#FFFFFF;stroke-width:0.7;stroke-miterlimit:10;stroke-dasharray:3.48,3.48;}
	.st24{fill:none;stroke:#FFFFFF;stroke-width:0.7;stroke-miterlimit:10;stroke-dasharray:2.81,2.81;}
	.st25{fill:#4B4949;}
	.st26{font-family:'NotoSansCJKtc-Regular-B5pc-H';}
	.st27{font-size:10.5px;}
	.st28{enable-background:new    ;}
	.st29{fill:#719B74;}
	.st30{fill:#3D6187;}
	.st31{fill:#3875E6;}
	.st32{fill:#E6EFF6;}
	.st33{fill:none;stroke:#DA9984;stroke-width:6.000000e-02;stroke-miterlimit:10;}
	.st34{fill:none;stroke:#2E3445;stroke-width:8.000000e-02;stroke-miterlimit:10;}
	.st35{fill:#E0514B;}
	.st36{fill:#3E3534;}
	.st37{fill:none;stroke:#FFFFFF;stroke-width:4.000000e-02;stroke-linecap:round;stroke-linejoin:round;}
	.st38{fill:none;stroke:#98BC9C;stroke-width:0.5;stroke-miterlimit:10;}
	.st39{fill:none;stroke:#98BC9C;stroke-width:0.5;stroke-miterlimit:10;stroke-dasharray:1.000000e-02,1.14,1.000000e-02,0;}
	.st40{fill:none;stroke:#98BC9C;stroke-width:0.5;stroke-miterlimit:10;stroke-dasharray:1.16,0,1.000000e-02,1.14,1.000000e-02,0;}
	.st41{fill:#98BC9C;}
	.st42{fill:none;stroke:#719B74;stroke-width:2;stroke-linecap:round;stroke-miterlimit:10;}
	.st43{fill:#EFD357;}
	.st44{font-size:8px;}
	.st45{fill:#EAB541;}
	.st46{font-family:'NotoSansCJKtc-Bold-B5pc-H';}
	.st47{font-size:11.36px;}
	.st48{opacity:0.62;fill:url(#SVGID_00000063606227076458163650000015206184732138259380_);}
	.st49{opacity:0.62;fill:url(#SVGID_00000102540156068024688090000012882982657481727412_);}
	.st50{fill:#FBAC95;}
	.st51{fill:#312A28;}
	.st52{fill:#0F8AFA;}
	.st53{fill:#E13944;}
	.st54{fill:#322B28;}
	.st55{fill:#E69580;}
	.st56{fill:none;stroke:#E69580;stroke-width:6.644364e-02;stroke-linecap:round;stroke-linejoin:round;stroke-miterlimit:10;}
	.st57{fill:#2C3447;}
	.st58{fill:none;stroke:#2C3447;stroke-width:9.864414e-02;stroke-miterlimit:10;}
	.st59{fill:#F44C57;}
	.st60{fill:none;stroke:#FFFFFF;stroke-width:8.730495e-02;stroke-miterlimit:10;}
	.st61{fill:#B9D9F2;}
	.st62{fill:#A3B9D3;}
	.st63{fill:#87A3C5;}
	.st64{fill:#576773;}
	.st65{fill:none;stroke:#FFFFFF;stroke-width:0.1285;stroke-miterlimit:10;}
	.st66{opacity:0.78;fill:#E8F3D8;}
	.st67{fill:none;stroke:#FFFFFF;stroke-width:0.6973;stroke-miterlimit:10;}
	.st68{fill:none;stroke:#FFFFFF;stroke-width:0.6973;stroke-miterlimit:10;stroke-dasharray:3.4797,3.4797;}
	.st69{fill:none;stroke:#FFFFFF;stroke-width:0.6973;stroke-miterlimit:10;stroke-dasharray:2.8144,2.8144;}
	.st70{fill:#4C4949;}
	.st71{fill:#629C70;}
	.st72{fill:#2E6289;}
	.st73{fill:#0675ED;}
	.st74{fill:#E3EEF6;}
	.st75{fill:none;stroke:#E69580;stroke-width:6.075961e-02;stroke-miterlimit:10;}
	.st76{fill:none;stroke:#2C3447;stroke-width:7.607291e-02;stroke-miterlimit:10;}
	.st77{fill:#F54243;}
	.st78{fill:#403534;}
	.st79{fill:none;stroke:#FFFFFF;stroke-width:4.047768e-02;stroke-linecap:round;stroke-linejoin:round;stroke-miterlimit:10;}
	.st80{fill:none;stroke:#FFFFFF;stroke-width:8.880767e-02;stroke-miterlimit:10;}
	.st81{fill:none;stroke:#8BBD98;stroke-width:0.5;stroke-miterlimit:10;}
	.st82{fill:none;stroke:#8BBD98;stroke-width:0.5;stroke-miterlimit:10;stroke-dasharray:1.000304e-02,1.1369,1.000304e-02,0;}
	
		.st83{fill:none;stroke:#8BBD98;stroke-width:0.5;stroke-miterlimit:10;stroke-dasharray:1.1569,0,1.000304e-02,1.1369,1.000304e-02,0;}
	.st84{fill:#8BBD98;}
	.st85{fill:none;stroke:#629C70;stroke-width:2;stroke-linecap:round;stroke-miterlimit:10;}
	.st86{fill:#F5D135;}
	.st87{fill:#F5B20E;}
</style>
<g id="圖層_1" class="st0">
	<g id="圖層_2_00000098221923540300141880000007946163460108434355_" class="st1">
		<g id="圖層_1-2">
			
				<linearGradient id="SVGID_1_" gradientUnits="userSpaceOnUse" x1="300.17" y1="59.25" x2="575.4301" y2="59.25" gradientTransform="matrix(1 0 0 -1 0 163.89)">
				<stop  offset="0" style="stop-color:#EBF3DB"/>
				<stop  offset="1" style="stop-color:#FFFFFF"/>
			</linearGradient>
			<rect x="300.2" y="45.4" class="st2" width="275.3" height="118.4"/>
			
				<linearGradient id="SVGID_00000039822501618437764010000017015739748287371442_" gradientUnits="userSpaceOnUse" x1="6322.6401" y1="59.24" x2="6536.04" y2="59.24" gradientTransform="matrix(-1 0 0 -1 6622.7197 163.89)">
				<stop  offset="0" style="stop-color:#F3F0DB"/>
				<stop  offset="0.2" style="stop-color:#F6F3E3"/>
				<stop  offset="1" style="stop-color:#FFFFFF"/>
			</linearGradient>
			
				<rect x="86.7" y="45.5" style="opacity:0.62;fill:url(#SVGID_00000039822501618437764010000017015739748287371442_);enable-background:new    ;" width="213.4" height="118.4"/>
			<path class="st4" d="M49.9,61.9c0.2,0.3-1.1,1.8-2.3,2.5c-1,0.6-3.5,1.8-4.3,2.1l-2.1-3.2c0.4-0.3,0.7-0.6,1.1-1
				c0.7-0.8,3-2.9,3.3-2.6s-1,2.1-0.8,2.1c0.7-0.4,1.4-0.9,2-1.5c0.5-0.5,1.4-1.7,1.8-1.7s0.5,0.7,0.5,0.7s0.3-0.5,0.6-0.3
				s0,1.1,0,1.1s0.1-0.3,0.4,0s-0.6,1.5-0.6,1.5C49.6,61.7,49.8,61.7,49.9,61.9C49.9,61.9,49.9,61.9,49.9,61.9z"/>
			<path class="st5" d="M17.7,42.9c-2.9,0.3-5.1,2.8-5,5.7c0,3.2-0.6,4.9-2.6,4.5c4,1.9,8.6,2.1,12.7,0.4c-0.7-1-1-2.3-1-3.5
				C21.6,47.6,17.7,42.9,17.7,42.9z"/>
			<path class="st6" d="M31.7,76L31.7,76c-1.7,0.9-3.8,0.3-4.8-1.4l-6.9-12.8c-0.9-1.7-0.3-3.8,1.4-4.8c0,0,0,0,0,0l0,0
				c1.7-0.9,3.8-0.3,4.8,1.4l6.9,12.8C34.1,72.9,33.4,75,31.7,76C31.7,76,31.7,76,31.7,76z"/>
			<path class="st7" d="M16.1,80.2c-2.3,3-3.2,9.2-1.7,16s2,11.1,2,11.1c0.4,3.1,3.2,5.3,6.3,4.9s5.3-3.2,4.9-6.3l-2.4-25.8H16.1z"
				/>
			<path class="st6" d="M15.6,55.6l-6.1,2.8c0,0,1.4,15.8,1.5,17.5c0,1.5-0.1,2.9-0.4,4.3h14.7c0,0-0.2-8.5,0.8-10.8
				c0.7-1.6,1.1-2.6,0.7-4.4s-3.2-5.1-2.8-8.3l-3.2-1L15.6,55.6z"/>
			<path class="st6" d="M4.5,78.5L4.5,78.5c-1.8-0.7-2.8-2.7-2.1-4.5c0,0,0,0,0,0l5-13.6c0.7-1.8,2.7-2.7,4.5-2.1l0,0
				c1.8,0.7,2.8,2.7,2.1,4.5c0,0,0,0,0,0L9,76.4C8.3,78.3,6.3,79.2,4.5,78.5z"/>
			<path class="st8" d="M21.6,46.4c0.5-1,0-2.1-0.9-2.6c-0.1,0-0.2-0.1-0.3-0.1L21.6,46.4z"/>
			<path class="st4" d="M20.8,48.6v7.1c-0.1,1-1,1.7-2,1.7c-1.2,0.1-2.4-0.5-3.1-1.5l-0.2-0.3l0,0l0.8-7L20.8,48.6z"/>
			<polygon class="st9" points="20.8,54.9 17.7,51.4 20.8,52.6 			"/>
			<path class="st4" d="M17.7,52.2c1.3,0.8,2.9,0.9,4.3,0.2c1.1-0.7,0.9-2.3,0.6-3.3l0,0c-0.1-0.2-0.2-0.5-0.3-0.8l-1-3.3
				c-0.3-1-3.2-3.4-6.1-0.3S16.2,51.3,17.7,52.2z"/>
			<path class="st5" d="M21.2,44.4c0,0,0,1.2-1.8,2.1s-3.4,2.1-3.2,4c0.2,1,0,2-0.4,2.9c-0.2-1.5-0.7-2.9-1.4-4.2
				c-0.6-1.1-0.7-2.5-0.1-3.7C15.4,43.2,18.5,41.6,21.2,44.4z"/>
			<path class="st4" d="M16.5,50.1c0.4,0.6,0.5,1,0,1.2C16,51.6,15.4,51.5,15,51c-0.4-0.5-0.3-1.1,0.1-1.5
				C15.5,49.1,16.1,49.5,16.5,50.1z"/>
			<path class="st10" d="M15.5,50.5c0.2-0.1,0.5-0.1,0.7,0c-0.3-0.6-1-0.4-1-0.4"/>
			<path class="st11" d="M19.2,48.4c0.1,0.2,0.3,0.4,0.4,0.4s0.2-0.3,0.2-0.5s-0.3-0.4-0.4-0.4S19.2,48.2,19.2,48.4z"/>
			<path class="st11" d="M21.3,47.6c0.1,0.2,0.2,0.4,0.4,0.3s0.2-0.3,0.1-0.5s-0.2-0.4-0.4-0.3S21.2,47.4,21.3,47.6z"/>
			<path class="st7" d="M29.6,136.6h-10l-3.4-29.3v-0.7c0.1-3.1,2.7-5.6,5.8-5.5c2.9,0.1,5.3,2.3,5.5,5.2L29.6,136.6z"/>
			<path class="st12" d="M18.4,48c0,0,0.3-0.8,1-0.7"/>
			<path class="st12" d="M21,46.8c0.3-0.1,0.6-0.1,0.9,0.1"/>
			<path class="st13" d="M11.4,136.6H1.9l3-30.3v-0.1c0.2-3.1,2.9-5.5,6-5.3c3,0.2,5.4,2.7,5.3,5.7c0,0.2,0,0.3,0,0.5L11.4,136.6z"
				/>
			<path class="st6" d="M44.3,68.1l-11.6,7.4L32,76c-1.7,0.9-3.9,0.2-4.8-1.5c-0.7-1.4-0.4-3.2,0.8-4.2l13-7.3l0.3,0.5l2.1,3.2
				L44.3,68.1z"/>
			<path class="st12" d="M20.4,47.8c0,0,0.4,1.2,1.1,1.2c-0.1,0.2-0.3,0.3-0.4,0.4"/>
			<path class="st13" d="M20.6,80.2l-0.1,0.8l-4.3,26.1c-0.6,3.1-3.7,5-6.7,4.4C6.9,111,5,108.7,5,106c0,0,0.5-4.4,0.6-11.3
				c0-5.4,1.2-9.7,3.1-12.4c0.5-0.7,1.1-1.4,1.8-2L20.6,80.2z"/>
			<path class="st12" d="M21.5,50.4c-0.5,0.3-1.1,0.3-1.5-0.2"/>
			<path class="st9" d="M18,49.5c0,0.3,0.4,0.5,1,0.5s1-0.2,1-0.5S19.5,49.1,19,49S18,49.2,18,49.5z"/>
			<path class="st9" d="M22,48.9c0.1,0.1,0.3,0.2,0.6,0.1c-0.1-0.2-0.2-0.5-0.3-0.8C22,48.4,21.9,48.7,22,48.9z"/>
			<path class="st14" d="M16.8,51.3c0.1,0.2-0.1,0.5-0.3,0.5c-0.2,0.1-0.5-0.1-0.5-0.3s0.1-0.5,0.3-0.5l0,0
				C16.5,51,16.7,51.1,16.8,51.3z"/>
			<polygon class="st4" points="0,143 7.3,143 8.3,141.5 8.3,143 9.9,143 9.7,138.8 10.1,136.6 4.1,136.6 4.1,138.8 			"/>
			<path class="st15" d="M21.1,55.7l-0.4,7.5l-4.9-7.3c0.7,1,1.9,1.6,3.1,1.5C19.9,57.4,20.8,56.7,21.1,55.7z"/>
			<polygon class="st16" points="15.6,55.2 19.2,57.3 18.5,58.7 15.1,55.8 			"/>
			<polygon class="st16" points="20.8,55.5 19.2,57.3 20.2,58.5 21.2,55.8 			"/>
			<polygon class="st17" points="40.6,78.6 20.8,79.5 25.3,64.4 45.1,63.6 			"/>
			<polygon class="st18" points="21,78.7 14.3,73.3 33.4,72.5 40.8,77.9 			"/>
			<polygon class="st17" points="40.2,78.3 20.4,79.1 25,64.1 44.7,63.3 			"/>
			<polygon class="st18" points="44.7,63.3 45.1,63.6 25.3,64.4 20.8,79.5 20.4,79.1 25,64.1 			"/>
			<polygon class="st19" points="14.3,73.3 14.1,74 20.8,79.5 21,78.7 			"/>
			<path class="st18" d="M36,71.6c0,0.5-0.9,1-2.2,1.1s-2.2-0.3-2.2-0.9s0.9-1,2.2-1.1S36,71,36,71.6z"/>
			<polygon class="st4" points="26.4,143 24.6,141.7 24.8,143 23.2,143 22.4,138.8 21.9,136.6 28.3,136.6 28.5,138.8 33.6,143 			
				"/>
			<polygon class="st5" points="4.1,138.8 0,143 7.3,143 8.3,141.5 8.3,143 9.9,143 9.7,138.8 			"/>
			<polygon class="st5" points="26.4,143 24.6,141.7 24.8,143 23.2,143 22.4,138.8 28.5,138.8 33.6,143 			"/>
			<path class="st4" d="M29,75.1c0.3,0.3,0,0.8,0,0.8s0.5-0.2,0.6,0.1s-0.5,0.8-0.6,0.9s0.3-0.1,0.3,0.3S28,78,27.9,78.1
				c0.1,0,0.3,0.1,0.2,0.3c0,0,0,0,0,0.1c0,0.3-1.9,0.7-3.3,0.6c-1.2-0.1-3.9-0.7-4.7-0.9l0.2-3.8c0.5,0,1-0.1,1.5-0.2
				c1.1-0.2,4.2-0.5,4.2-0.1s-2,1.1-1.9,1.2c0.8,0.1,1.7,0.1,2.5,0C27.2,75.2,28.7,74.8,29,75.1z"/>
			<path class="st6" d="M20.3,73.2l-0.1,1.1L20,78.1l-0.1,1L5.2,78.9c-1.9-0.4-3.2-2.3-2.8-4.2c0.3-1.5,1.5-2.6,3-2.8l1.1,0.2l0,0
				L20.3,73.2z"/>
			<polyline class="st12" points="17.5,73 10.5,72.4 11.9,68.4 			"/>
			<line class="st12" x1="10.8" y1="79" x2="7.6" y2="79"/>
			<path class="st20" d="M20.1,48.3c0.2,0.4,0.1,0.8-0.2,1.1c-0.4,0.1-0.9-0.1-1-0.5c-0.2-0.4-0.1-0.8,0.2-1.1
				C19.5,47.6,19.9,47.9,20.1,48.3z"/>
			<path class="st20" d="M22.1,47.5c0.2,0.4,0.1,0.9-0.2,1.1c-0.5,0.1-1-0.2-1.1-0.7c-0.1-0.3,0-0.6,0.3-0.9
				C21.5,46.9,21.9,47.1,22.1,47.5z"/>
			<line class="st20" x1="20" y1="48.1" x2="20.8" y2="47.8"/>
			<path class="st21" d="M699.9,99.8H616c-8.5,0-15.3,6.9-15.3,15.3c0,0,0,0,0,0v5.8l-11.3,8.3l11.3,8.3v11.1
				c0,8.5,6.9,15.3,15.3,15.3c0,0,0,0,0,0h83.9c8.5,0,15.3-6.9,15.3-15.3c0,0,0,0,0,0v-33.4C715.3,106.6,708.4,99.8,699.9,99.8
				C699.9,99.8,699.9,99.8,699.9,99.8z"/>
			<polyline class="st22" points="603.2,119.9 603.2,121.3 602,122.1 			"/>
			<line class="st23" x1="599.2" y1="124.1" x2="594.9" y2="127.1"/>
			<polyline class="st22" points="593.5,128.1 592.4,128.9 593.5,129.7 			"/>
			<line class="st23" x1="596.3" y1="131.7" x2="600.6" y2="134.7"/>
			<polyline class="st22" points="602,135.7 603.2,136.5 603.2,137.9 			"/>
			<path class="st24" d="M603.2,140.7v6.4c0,7.8,6.6,14.1,14.7,14.1h80.4c7.9,0.1,14.5-6.2,14.7-14.1V116
				c-0.1-7.9-6.7-14.3-14.7-14.1c0,0,0,0,0,0h-80.4c-8.1,0-14.7,6.3-14.7,14.1v2.5"/>
			<text transform="matrix(1 0 0 1 631.69 124.18)" class="st25 st26 st27">合計</text>
			<g>
				<g class="st28">
					<path class="st29" d="M633.9,133.7c0.3-2.3,2-4.6,5.5-4.6c3.6,0,5.2,2.3,5.2,4.7c0,2.3-1.4,3.5-2.6,3.9v0.1
						c2,0.6,3.5,2.1,3.5,4.9c0,3.2-2,5.9-6.2,5.9c-3.8,0-5.7-2.5-6.1-5h1.5c0.5,1.9,2,3.6,4.7,3.6c3.2,0,4.5-2.2,4.5-4.4
						c0-3-2-4.2-4.7-4.2h-1.1v-1.3h0.9c2.8,0,4.1-1.2,4.1-3.4c0-2-1.4-3.3-3.8-3.3c-2.5,0-3.6,1.3-4,3.2H633.9z"/>
				</g>
			</g>
			<g>
				<g class="st28">
					<path class="st29" d="M648.5,151.4c1.4-2.8,1.9-5.3,2-6.9h1.4c-0.2,2.4-1.1,5.2-2.1,6.9H648.5z"/>
				</g>
			</g>
			<g>
				<g class="st28">
					<path class="st29" d="M653.3,148.2L653.3,148.2c0-2.4,2-5.3,5.7-8.2c3.2-2.5,4.1-3.3,4.1-5.7c0-2.1-1.1-3.8-3.8-3.8
						c-2.6,0-3.9,1.2-4.4,4h-1.5c0.4-3.1,2.3-5.3,5.8-5.3c3.8,0,5.4,2.6,5.4,5.1c0,2.9-1.2,3.9-4.7,6.7c-2.8,2.3-4.4,4-5,5.9h10.5
						l-0.3,1.4H653.3z"/>
				</g>
			</g>
			<g>
				<g class="st28">
					<path class="st29" d="M673.7,148.2v-17c-1,0.9-3.1,1.9-4.2,2.2v-1.3c1.2-0.4,3-1.5,4.5-2.8h1.2v18.9H673.7z"/>
				</g>
			</g>
			<g>
				<g class="st28">
					<path class="st29" d="M692.8,129.4v1.4c-3.4,4.5-6.6,11.8-7.7,17.3h-1.5c0.9-5.2,4.3-12.9,7.6-17.3H681v-1.4H692.8z"/>
				</g>
			</g>
			<text transform="matrix(1 0 0 1 695.07 148.18)" class="st25 st26 st27">件</text>
			<polygon class="st30" points="633,97.1 633,93 628.3,93.7 			"/>
			<path class="st4" d="M607.2,77.8l-0.4-1.3c0,0-0.8-1.2-1-1.7c-0.2-0.4-0.4-0.7-0.7-1c-0.1-0.1-0.3,0-0.4,0.1
				c0.1,0.4,0.1,0.8,0.3,1.2l0.3,1.1c0,0-1.6-1.5-2.2-2c-0.3-0.3-1.1-1.2-1.3-1s0.6,1.2,0.8,1.5l0.9,1.3l-1.5-1.6
				c-0.3-0.3-1-1.2-1.2-1s0.5,1.1,0.8,1.4l1.3,1.8l-1.6-1.7c-0.2-0.2-0.8-1-1-0.8s0.5,0.9,0.7,1.1l1.3,1.8l-1.2-1.1
				c-0.1-0.1-0.5-0.5-0.6-0.3s0.3,0.7,0.5,0.9l1.2,1.6c0.1,0.1,0.2,0.2,0.3,0.3l2.1,2.1L607.2,77.8z"/>
			<path class="st31" d="M623.3,92.3l-16.2,10.2c-0.5,0.2-0.9,0.5-1.3,0.8c-1.9,1.7-2,4.5-0.3,6.4s4.5,2,6.4,0.3l0,0l18.6-9.8
				L623.3,92.3z"/>
			<path class="st31" d="M604.4,107.4c0-0.2,0-0.4,0-0.6c-0.2-2.5,1.6-4.7,4.1-4.9s4.7,1.6,4.9,4.1c0,0.3,0,0.6,0,0.8l-0.3,20.2
				h-7.5L604.4,107.4z"/>
			<path class="st6" d="M631.8,100.2l-10.1,12.1c-1.8,2.1-5,2.4-7.1,0.6l0,0c-2.1-1.8-2.4-5-0.6-7.1l10.1-12.1
				c1.8-2.1,5-2.4,7.1-0.6l0,0C633.3,94.9,633.6,98.1,631.8,100.2z"/>
			<polygon class="st32" points="623.6,72.9 618.8,75.1 619.4,94.5 633,94.7 634.9,73.5 628.5,72.6 			"/>
			<path class="st4" d="M623.6,70.1v3c0,0,0.2,0.7,1.7,0.7c1.1-0.1,2.2-0.4,3.2-1l-0.5-6.6L623.6,70.1z"/>
			<polygon class="st9" points="623.6,72.7 626.7,69.5 623.6,69.4 			"/>
			<path class="st4" d="M622.3,64v4.3c0,0.9,0.2,2.1,1.2,2.4c1.2,0.2,2.4-0.2,3.2-1.1c0.9-1,3-5.6,0.1-7.2c-1.4-0.9-3.3-0.5-4.2,0.9
				C622.5,63.5,622.4,63.8,622.3,64z"/>
			<path class="st13" d="M615.8,90.6c-1,0.8-2.4,0.8-3.4,0l0,0l-8.5-9.8l1.2-1.3l2.2-2.3l0.2-0.3l8.8,9.9
				C617.1,88,616.9,89.7,615.8,90.6C615.8,90.6,615.8,90.6,615.8,90.6z"/>
			<path class="st6" d="M612.8,108.6c0-2.5,2-4.5,4.5-4.5c0,0,0,0,0,0c2.5,0,3.9,1,4.4,3.5c1.3,5.8,3.9,21.2,3.9,21.2h-7.8l-5-19.6
				C612.8,109.1,612.8,108.9,612.8,108.6z"/>
			<path class="st13" d="M612.6,90.7L612.6,90.7c1.5,0.8,3.4,0.3,4.3-1.2l5.6-9.9c0.8-1.5,0.3-3.4-1.2-4.3l0,0
				c-1.5-0.8-3.4-0.3-4.3,1.2l-5.6,10C610.6,88,611.2,89.9,612.6,90.7z"/>
			<path class="st5" d="M626.5,62.2c0,0-3.5-1.6-4.3-0.5s0.5,1.4,0.5,1.4s-1.7-0.2-1.6,0.9s4.2-0.4,4.2-0.4s-1.4,0.6-0.6,1.1
				c0.6,0.3,1.2,0.2,1.7-0.2c0,0,0.8,0.4,0.7,2.5s1.1,2.5,1.1,2.5s-0.1-3.1,0.5-4S628.5,61.7,626.5,62.2z"/>
			<path class="st4" d="M627,67.5c-0.3,0.5-0.4,0.9,0,1.2c0.5,0.3,1.1,0.1,1.4-0.3c0.4-0.4,0.3-1-0.1-1.4c0,0,0,0,0,0
				C627.9,66.7,627.3,67,627,67.5z"/>
			<path class="st33" d="M628.1,67.5c-0.3,0-0.6,0.2-0.7,0.5c0.2,0,0.4,0,0.6,0"/>
			<path class="st11" d="M624.8,66.4c0,0.2-0.1,0.4-0.2,0.4s-0.2-0.2-0.2-0.4s0.1-0.4,0.2-0.4S624.8,66.2,624.8,66.4z"/>
			<path class="st34" d="M624.7,68.7c-0.3,0.4-0.8,0.6-1.2,0.5"/>
			<path class="st34" d="M623.9,66.6l-0.5,1.3c0,0.1,0,0.3,0.1,0.3l0.4,0.2"/>
			<path class="st34" d="M625.2,65.8c-0.3-0.2-0.7-0.3-1-0.1"/>
			<path class="st11" d="M622.4,66.4c0,0.2,0.1,0.4,0.2,0.4s0.2-0.2,0.2-0.4s-0.1-0.4-0.2-0.4S622.4,66.2,622.4,66.4z"/>
			<path class="st34" d="M622.2,65.8c0.2-0.2,0.6-0.2,0.8-0.1"/>
			<path class="st13" d="M637.8,90.6L637.8,90.6c1.7-0.4,2.7-2.1,2.2-3.8l-2.9-11.1c-0.4-1.7-2.1-2.7-3.8-2.2l0,0
				c-1.7,0.4-2.7,2.1-2.2,3.8l2.8,11.1C634.4,90,636.2,91.1,637.8,90.6C637.8,90.6,637.8,90.6,637.8,90.6z"/>
			<path class="st4" d="M642,99.2l3.7-2.3l0,0c1,1.4,2.1,2.6,3.4,3.8c0.2,0.2,0.2,0.4,0.1,0.6l-0.9,2.1c-0.1,0.3-0.4,0.6-0.8,0.7
				l-1.5,0.5c-0.1,0-0.2,0-0.2-0.1c0,0,0-0.1,0-0.1l0.3-1.2c0-0.2,0-0.3-0.2-0.4l-1.4-0.6l1.2,1.9c0.1,0.1,0,0.3-0.1,0.3l-0.1,0.1
				c-0.1,0.1-0.2,0.1-0.3,0l-2.5-2.9l-0.6-2.2L642,99.2z"/>
			<path class="st9" d="M624.5,67.8c0.1,0.2,0.4,0.2,0.8,0.1s0.6-0.4,0.5-0.6s-0.4-0.2-0.8-0.1S624.4,67.6,624.5,67.8z"/>
			<path class="st9" d="M622.3,67.2v0.7c0.3,0,0.5,0,0.6-0.2S622.6,67.3,622.3,67.2z"/>
			<polygon class="st4" points="612.2,130 612.4,126.9 606.2,126.9 606.2,130 			"/>
			<polygon class="st9" points="606.2,128.7 612.4,126.9 606.2,126.9 			"/>
			<polygon class="st4" points="625.7,131.9 625.2,128.8 619.2,128.8 620,131.9 			"/>
			<polygon class="st35" points="624.5,74.4 625.5,74.4 625.7,74.6 625.1,74.9 624.7,74.9 624.3,74.5 			"/>
			<polygon class="st9" points="619.6,130.3 625.2,128.8 619.2,128.8 			"/>
			<path class="st13" d="M635.2,84.3c1.2-1,3-0.8,4,0.4l7.3,12l-5.1,3.2l-7.3-11.1C633.3,87.6,633.9,85.2,635.2,84.3z"/>
			<polygon class="st16" points="628.4,72.5 625,73.8 625.6,75.3 628.6,72.9 			"/>
			<polygon class="st16" points="623.6,72.9 623.4,73.2 624.3,75.1 625,73.8 			"/>
			<polygon class="st35" points="624.7,74.9 623,87.7 624.3,89.4 626,87.9 625.1,74.9 			"/>
			<line class="st34" x1="632" y1="81.3" x2="633.8" y2="88.8"/>
			<line class="st34" x1="619.1" y1="85.8" x2="619" y2="81.3"/>
			<path class="st36" d="M625.7,131.9l0.5,2.2h-8c-0.2-1,0.4-1.9,1.4-2.2c0.1,0,0.3,0,0.4,0H625.7L625.7,131.9z"/>
			<path class="st36" d="M612.2,130v2.4h-8.4v-0.2c0.1-1.2,1.1-2.2,2.3-2.2H612.2L612.2,130z"/>
			<path class="st37" d="M606,130.4c0,0-0.2-0.8-0.6-0.6S606,130.5,606,130.4l-0.7,0.5"/>
			<path class="st37" d="M606,130.4c0,0,0.2-0.8,0.6-0.6S606,130.5,606,130.4l0.7,0.5"/>
			<path class="st37" d="M620,132.4c0,0-0.2-0.8-0.6-0.6S620,132.5,620,132.4l-0.7,0.5"/>
			<path class="st37" d="M620,132.4c0,0,0.2-0.8,0.6-0.6S620,132.5,620,132.4l0.7,0.5"/>
			<path class="st13" d="M623.1,73.2c0,0-0.3,3.4-0.9,8.6S621.7,95,620,96.5c-1.8,0.2-3.5,0.6-5.2,1.2c0.5-1.8,1.3-3.5,2.2-5.1
				c1.2-1.8,1.8-17.5,1.8-17.5L623.1,73.2z"/>
			<polygon class="st32" points="622.8,76.1 622.4,80.1 623.7,79 623.6,76.1 			"/>
			<path class="st13" d="M629.7,72.7c0,0-1.3,5.8-2,10.9s-0.4,10.1-2,13.1c0,0,6.5,1.2,6.5,3.8c1.1-1.3,1.8-3,1.8-4.8
				c0-2.8,0.9-22.3,0.9-22.3L629.7,72.7z"/>
			<line class="st14" x1="617.9" y1="87.7" x2="618.8" y2="83.2"/>
			<line class="st14" x1="634" y1="88.4" x2="632.9" y2="83.2"/>
			<line class="st38" x1="70.3" y1="137.4" x2="326.1" y2="137.4"/>
			<line class="st38" x1="70.3" y1="137.4" x2="70.3" y2="135"/>
			<line class="st38" x1="98.8" y1="137.4" x2="98.8" y2="135"/>
			<line class="st38" x1="127.2" y1="137.4" x2="127.2" y2="135"/>
			<line class="st38" x1="155.6" y1="137.4" x2="155.6" y2="135"/>
			<line class="st38" x1="184" y1="137.4" x2="184" y2="135"/>
			<line class="st38" x1="212.4" y1="137.4" x2="212.4" y2="135"/>
			<line class="st38" x1="240.8" y1="137.4" x2="240.8" y2="136.9"/>
			<line class="st39" x1="240.8" y1="136.9" x2="240.8" y2="136.7"/>
			<line class="st40" x1="240.8" y1="135.7" x2="240.8" y2="36.2"/>
			<line class="st38" x1="240.8" y1="36.2" x2="240.8" y2="35.6"/>
			<line class="st38" x1="269.2" y1="137.4" x2="269.2" y2="135"/>
			<line class="st38" x1="297.6" y1="137.4" x2="297.6" y2="135"/>
			<polyline class="st38" points="326.1,135 326.1,137.4 494.1,137.4 575.3,137.4 			"/>
			<g>
				<g class="st28">
					<path class="st41" d="M65.7,138.2c0,1.2-0.3,2.8-1.7,2.8c-1.4,0-1.7-1.4-1.7-2.7c0-1.3,0.4-2.7,1.7-2.7
						C65.4,135.6,65.7,137,65.7,138.2z M62.7,138.3c0,1,0.2,2.3,1.3,2.3c1.1,0,1.3-1.3,1.3-2.4c0-1-0.2-2.3-1.2-2.3
						C63,135.9,62.7,137.1,62.7,138.3z"/>
				</g>
			</g>
			<g>
				<g class="st28">
					<path class="st41" d="M61.1,116.2h-2.3c-0.1,0.5-0.2,1.5-0.3,1.8c0.2-0.3,0.6-0.5,1.2-0.5c0.9,0,1.6,0.6,1.6,1.7
						c0,1-0.5,1.9-1.7,1.9c-0.9,0-1.5-0.5-1.6-1.4h0.4c0.1,0.6,0.5,1,1.2,1c0.8,0,1.2-0.6,1.2-1.5c0-0.8-0.3-1.4-1.2-1.4
						c-0.7,0-1,0.3-1.3,0.8l-0.4-0.1c0.2-0.7,0.4-2.2,0.4-2.8h2.7L61.1,116.2z"/>
				</g>
			</g>
			<g>
				<g class="st28">
					<path class="st41" d="M65.7,118.4c0,1.2-0.3,2.8-1.7,2.8c-1.4,0-1.7-1.4-1.7-2.7c0-1.3,0.4-2.7,1.7-2.7
						C65.4,115.7,65.7,117.2,65.7,118.4z M62.7,118.5c0,1,0.2,2.3,1.3,2.3c1.1,0,1.3-1.3,1.3-2.4c0-1-0.2-2.3-1.2-2.3
						C63,116.1,62.7,117.3,62.7,118.5z"/>
				</g>
			</g>
			<g>
				<g class="st28">
					<path class="st41" d="M55.9,101.3v-4.8c-0.3,0.2-0.9,0.5-1.2,0.6v-0.4c0.3-0.1,0.9-0.4,1.3-0.8h0.3v5.3H55.9z"/>
				</g>
			</g>
			<g>
				<g class="st28">
					<path class="st41" d="M61.2,98.6c0,1.2-0.3,2.8-1.7,2.8c-1.4,0-1.7-1.4-1.7-2.7c0-1.3,0.4-2.7,1.7-2.7
						C60.9,95.9,61.2,97.4,61.2,98.6z M58.2,98.7c0,1,0.2,2.3,1.3,2.3c1.1,0,1.3-1.3,1.3-2.4c0-1-0.2-2.3-1.2-2.3
						C58.5,96.3,58.2,97.5,58.2,98.7z"/>
				</g>
			</g>
			<g>
				<g class="st28">
					<path class="st41" d="M65.7,98.6c0,1.2-0.3,2.8-1.7,2.8c-1.4,0-1.7-1.4-1.7-2.7c0-1.3,0.4-2.7,1.7-2.7
						C65.4,95.9,65.7,97.4,65.7,98.6z M62.7,98.7c0,1,0.2,2.3,1.3,2.3c1.1,0,1.3-1.3,1.3-2.4c0-1-0.2-2.3-1.2-2.3
						C63,96.3,62.7,97.5,62.7,98.7z"/>
				</g>
			</g>
			<g>
				<g class="st28">
					<path class="st41" d="M56,81.5v-4.8c-0.3,0.2-0.9,0.5-1.2,0.6v-0.4c0.3-0.1,0.9-0.4,1.3-0.8h0.3v5.3H56z"/>
				</g>
			</g>
			<g>
				<g class="st28">
					<path class="st41" d="M61.1,76.6h-2.3c-0.1,0.5-0.2,1.5-0.3,1.8c0.2-0.3,0.6-0.5,1.2-0.5c0.9,0,1.6,0.6,1.6,1.7
						c0,1-0.5,1.9-1.7,1.9c-0.9,0-1.5-0.5-1.6-1.4h0.4c0.1,0.6,0.5,1,1.2,1c0.8,0,1.2-0.6,1.2-1.5c0-0.8-0.3-1.4-1.2-1.4
						c-0.7,0-1,0.3-1.3,0.8L58,79c0.2-0.7,0.4-2.2,0.4-2.8h2.7L61.1,76.6z"/>
				</g>
			</g>
			<g>
				<g class="st28">
					<path class="st41" d="M65.7,78.8c0,1.2-0.3,2.8-1.7,2.8c-1.4,0-1.7-1.4-1.7-2.7c0-1.3,0.4-2.7,1.7-2.7
						C65.4,76.1,65.7,77.5,65.7,78.8z M62.7,78.8c0,1,0.2,2.3,1.3,2.3c1.1,0,1.3-1.3,1.3-2.4c0-1-0.2-2.3-1.2-2.3
						C63,76.5,62.7,77.7,62.7,78.8z"/>
				</g>
			</g>
			<g>
				<g class="st28">
					<path class="st41" d="M53.5,61.6L53.5,61.6c0-0.7,0.6-1.5,1.6-2.3c0.9-0.7,1.1-0.9,1.1-1.6c0-0.6-0.3-1.1-1.1-1.1
						c-0.7,0-1.1,0.3-1.2,1.1h-0.4c0.1-0.9,0.7-1.5,1.6-1.5c1.1,0,1.5,0.7,1.5,1.4c0,0.8-0.3,1.1-1.3,1.9c-0.8,0.6-1.2,1.1-1.4,1.6
						h2.9l-0.1,0.4H53.5z"/>
				</g>
			</g>
			<g>
				<g class="st28">
					<path class="st41" d="M61.2,59c0,1.2-0.3,2.8-1.7,2.8c-1.4,0-1.7-1.4-1.7-2.7c0-1.3,0.4-2.7,1.7-2.7
						C60.9,56.3,61.2,57.7,61.2,59z M58.2,59c0,1,0.2,2.3,1.3,2.3c1.1,0,1.3-1.3,1.3-2.4c0-1-0.2-2.3-1.2-2.3
						C58.5,56.7,58.2,57.8,58.2,59z"/>
				</g>
			</g>
			<g>
				<g class="st28">
					<path class="st41" d="M65.7,59c0,1.2-0.3,2.8-1.7,2.8c-1.4,0-1.7-1.4-1.7-2.7c0-1.3,0.4-2.7,1.7-2.7
						C65.4,56.3,65.7,57.7,65.7,59z M62.7,59c0,1,0.2,2.3,1.3,2.3c1.1,0,1.3-1.3,1.3-2.4c0-1-0.2-2.3-1.2-2.3
						C63,56.7,62.7,57.8,62.7,59z"/>
				</g>
			</g>
			<g>
				<g class="st28">
					<path class="st41" d="M53.7,41.8L53.7,41.8c0-0.7,0.6-1.5,1.6-2.3c0.9-0.7,1.1-0.9,1.1-1.6c0-0.6-0.3-1.1-1.1-1.1
						c-0.7,0-1.1,0.3-1.2,1.1h-0.4c0.1-0.9,0.7-1.5,1.6-1.5c1.1,0,1.5,0.7,1.5,1.4c0,0.8-0.3,1.1-1.3,1.9c-0.8,0.6-1.2,1.1-1.4,1.6
						h2.9L57,41.8H53.7z"/>
				</g>
			</g>
			<g>
				<g class="st28">
					<path class="st41" d="M61.1,37h-2.3c-0.1,0.5-0.2,1.5-0.3,1.8c0.2-0.3,0.6-0.5,1.2-0.5c0.9,0,1.6,0.6,1.6,1.7
						c0,1-0.5,1.9-1.7,1.9c-0.9,0-1.5-0.5-1.6-1.4h0.4c0.1,0.6,0.5,1,1.2,1c0.8,0,1.2-0.6,1.2-1.5c0-0.8-0.3-1.4-1.2-1.4
						c-0.7,0-1,0.3-1.3,0.8L58,39.4c0.2-0.7,0.4-2.2,0.4-2.8h2.7L61.1,37z"/>
				</g>
			</g>
			<g>
				<g class="st28">
					<path class="st41" d="M65.7,39.2c0,1.2-0.3,2.8-1.7,2.8c-1.4,0-1.7-1.4-1.7-2.7c0-1.3,0.4-2.7,1.7-2.7
						C65.4,36.5,65.7,37.9,65.7,39.2z M62.7,39.2c0,1,0.2,2.3,1.3,2.3c1.1,0,1.3-1.3,1.3-2.4c0-1-0.2-2.3-1.2-2.3
						C63,36.9,62.7,38,62.7,39.2z"/>
				</g>
			</g>
			<line class="st38" x1="70.3" y1="137.4" x2="70.3" y2="38.3"/>
			<line class="st38" x1="70.3" y1="137.4" x2="76.7" y2="137.4"/>
			<line class="st38" x1="70.3" y1="117.6" x2="76.7" y2="117.6"/>
			<line class="st38" x1="70.3" y1="97.8" x2="76.7" y2="97.8"/>
			<line class="st38" x1="70.3" y1="78" x2="76.7" y2="78"/>
			<line class="st38" x1="70.3" y1="58.2" x2="76.7" y2="58.2"/>
			<line class="st38" x1="70.3" y1="38.3" x2="76.7" y2="38.3"/>
			<line class="st42" x1="113" y1="98.2" x2="84.6" y2="135.8"/>
			<line class="st42" x1="141.4" y1="90.3" x2="113" y2="98.2"/>
			<line class="st42" x1="169.8" y1="92.2" x2="141.4" y2="90.3"/>
			<line class="st42" x1="198.2" y1="74" x2="169.8" y2="92.2"/>
			<line class="st42" x1="226.6" y1="55.4" x2="198.2" y2="74"/>
			<line class="st42" x1="255" y1="77.6" x2="226.6" y2="55.4"/>
			<line class="st42" x1="283.4" y1="97" x2="255" y2="77.6"/>
			<polyline class="st42" points="283.4,97 311.9,51.4 345.8,65.1 375.5,43.3 394.7,68.8 417.9,45.4 449.2,45.4 471.8,63.5 
				498.8,72.6 524.6,41.3 550.5,19.6 			"/>
			<rect x="82.7" y="132.8" class="st43" width="6" height="6"/>
			<rect x="111.2" y="95.2" class="st43" width="6" height="6"/>
			<rect x="138.4" y="87.3" class="st43" width="6" height="6"/>
			<rect x="166.8" y="89.2" class="st43" width="6" height="6"/>
			<rect x="195.2" y="71" class="st43" width="6" height="6"/>
			<rect x="223.6" y="52.4" class="st43" width="6" height="6"/>
			<rect x="252" y="74.6" class="st43" width="6" height="6"/>
			<rect x="280.4" y="94" class="st43" width="6" height="6"/>
			<rect x="308.9" y="48.4" class="st43" width="6" height="6"/>
			<g>
				<g class="st28">
					<path class="st41" d="M306.3,143.3c0.1-0.6,0.6-1.3,1.5-1.3c1,0,1.5,0.6,1.5,1.3c0,0.6-0.4,1-0.7,1.1v0c0.6,0.2,1,0.6,1,1.4
						c0,0.9-0.6,1.6-1.7,1.6c-1.1,0-1.6-0.7-1.7-1.4h0.4c0.1,0.5,0.6,1,1.3,1c0.9,0,1.3-0.6,1.3-1.2c0-0.8-0.6-1.2-1.3-1.2h-0.3
						v-0.4h0.2c0.8,0,1.2-0.3,1.2-1c0-0.6-0.4-0.9-1.1-0.9c-0.7,0-1,0.4-1.1,0.9H306.3z"/>
				</g>
			</g>
			<text transform="matrix(1 0 0 1 310.05 147.602)" class="st41 st26 st44">月</text>
			<g>
				<g class="st28">
					<path class="st41" d="M277.7,147.4L277.7,147.4c0-0.7,0.6-1.5,1.6-2.3c0.9-0.7,1.1-0.9,1.1-1.6c0-0.6-0.3-1.1-1.1-1.1
						c-0.7,0-1.1,0.3-1.2,1.1h-0.4c0.1-0.9,0.7-1.5,1.6-1.5c1.1,0,1.5,0.7,1.5,1.4c0,0.8-0.3,1.1-1.3,1.9c-0.8,0.6-1.2,1.1-1.4,1.6
						h2.9l-0.1,0.4H277.7z"/>
				</g>
			</g>
			<text transform="matrix(1 0 0 1 281.54 147.602)" class="st41 st26 st44">月</text>
			<g>
				<g class="st28">
					<path class="st41" d="M251.1,147.4v-4.8c-0.3,0.2-0.9,0.5-1.2,0.6v-0.4c0.3-0.1,0.9-0.4,1.3-0.8h0.3v5.3H251.1z"/>
				</g>
			</g>
			<text transform="matrix(1 0 0 1 252.48 147.602)" class="st41 st26 st44">月</text>
			<g>
				<g class="st28">
					<path class="st41" d="M220.5,147.4v-4.8c-0.3,0.2-0.9,0.5-1.2,0.6v-0.4c0.3-0.1,0.9-0.4,1.3-0.8h0.3v5.3H220.5z"/>
				</g>
			</g>
			<g>
				<g class="st28">
					<path class="st41" d="M222.4,147.4L222.4,147.4c0-0.7,0.6-1.5,1.6-2.3c0.9-0.7,1.1-0.9,1.1-1.6c0-0.6-0.3-1.1-1.1-1.1
						c-0.7,0-1.1,0.3-1.2,1.1h-0.4c0.1-0.9,0.7-1.5,1.6-1.5c1.1,0,1.5,0.7,1.5,1.4c0,0.8-0.3,1.1-1.3,1.9c-0.8,0.6-1.2,1.1-1.4,1.6
						h2.9l-0.1,0.4H222.4z"/>
				</g>
			</g>
			<text transform="matrix(1 0 0 1 226.19 147.602)" class="st41 st26 st44">月</text>
			<g>
				<g class="st28">
					<path class="st41" d="M192.8,147.4v-4.8c-0.3,0.2-0.9,0.5-1.2,0.6v-0.4c0.3-0.1,0.9-0.4,1.3-0.8h0.3v5.3H192.8z"/>
				</g>
			</g>
			<g>
				<g class="st28">
					<path class="st41" d="M195.6,147.4v-4.8c-0.3,0.2-0.9,0.5-1.2,0.6v-0.4c0.3-0.1,0.9-0.4,1.3-0.8h0.3v5.3H195.6z"/>
				</g>
			</g>
			<text transform="matrix(1 0 0 1 197.05 147.602)" class="st41 st26 st44">月</text>
			<g>
				<g class="st28">
					<path class="st41" d="M163.6,147.4v-4.8c-0.3,0.2-0.9,0.5-1.2,0.6v-0.4c0.3-0.1,0.9-0.4,1.3-0.8h0.3v5.3H163.6z"/>
				</g>
			</g>
			<g>
				<g class="st28">
					<path class="st41" d="M168.9,144.7c0,1.2-0.3,2.8-1.7,2.8c-1.4,0-1.7-1.4-1.7-2.7c0-1.3,0.4-2.7,1.7-2.7
						C168.6,142,168.9,143.5,168.9,144.7z M165.9,144.7c0,1,0.2,2.3,1.3,2.3c1.1,0,1.3-1.3,1.3-2.4c0-1-0.2-2.3-1.2-2.3
						C166.1,142.4,165.9,143.6,165.9,144.7z"/>
				</g>
			</g>
			<text transform="matrix(1 0 0 1 169.49 147.602)" class="st41 st26 st44">月</text>
			<g>
				<g class="st28">
					<path class="st41" d="M136.1,146.3c0.2,0.5,0.5,0.8,1.1,0.8c1.2,0,1.3-1.7,1.3-2.4c-0.3,0.5-0.8,0.8-1.4,0.8
						c-0.9,0-1.5-0.7-1.5-1.7c0-0.9,0.6-1.7,1.7-1.7c1.2,0,1.7,1,1.7,2.4c0,1.3-0.2,3-1.8,3c-0.9,0-1.4-0.5-1.5-1.1H136.1z
						 M136,143.7c0,0.8,0.4,1.3,1.1,1.3c0.9,0,1.2-0.5,1.2-1.2c0-0.3-0.1-1.4-1.2-1.4C136.4,142.4,136,143,136,143.7z"/>
				</g>
			</g>
			<text transform="matrix(1 0 0 1 139.54 147.602)" class="st41 st26 st44">月</text>
			<g>
				<g class="st28">
					<path class="st41" d="M107.1,145.9c0-0.8,0.5-1.2,1-1.4c-0.5-0.2-0.8-0.6-0.8-1.1c0-0.8,0.5-1.4,1.5-1.4c0.9,0,1.5,0.6,1.5,1.3
						c0,0.5-0.3,1-0.8,1.1c0.6,0.2,1,0.7,1,1.4c0,1-0.7,1.6-1.7,1.6C107.9,147.5,107.1,146.8,107.1,145.9z M110.2,145.9
						c0-0.8-0.5-1.2-1.3-1.2c-0.9,0-1.3,0.5-1.3,1.2c0,0.7,0.5,1.2,1.3,1.2C109.6,147.1,110.2,146.7,110.2,145.9z M107.8,143.3
						c0,0.5,0.3,1,1.1,1c0.7,0,1-0.4,1-0.9c0-0.5-0.3-1-1.1-1C108.1,142.4,107.8,142.8,107.8,143.3z"/>
				</g>
			</g>
			<text transform="matrix(1 0 0 1 111.16 147.602)" class="st41 st26 st44">月</text>
			<g>
				<g class="st28">
					<path class="st41" d="M82.1,142.1v0.4c-1,1.3-1.8,3.3-2.2,4.9h-0.4c0.3-1.5,1.2-3.6,2.1-4.9h-2.9v-0.4H82.1z"/>
				</g>
			</g>
			<text transform="matrix(1 0 0 1 82.45 147.602)" class="st41 st26 st44">月</text>
			<rect x="341.8" y="60.6" class="st43" width="6.8" height="6.8"/>
			<rect x="371.8" y="40.1" class="st43" width="6.8" height="6.8"/>
			<rect x="391.3" y="65.2" class="st43" width="6.8" height="6.8"/>
			<rect x="414.6" y="42.1" class="st43" width="6.8" height="6.8"/>
			<rect x="445.6" y="42.1" class="st43" width="6.8" height="6.8"/>
			<rect x="468.3" y="60" class="st43" width="6.8" height="6.8"/>
			<rect x="495.2" y="68.6" class="st43" width="6.8" height="6.8"/>
			<rect x="521.1" y="37.7" class="st43" width="6.8" height="6.8"/>
			<rect x="547.2" y="16.5" class="st43" width="6.8" height="6.8"/>
			<g>
				<g class="st28">
					<path class="st45" d="M85.3,125.2v-2.5H81V122l4.4-5.9H86v5.9h1.2l-0.1,0.7H86v2.5H85.3z M85.3,119.3c0-0.5,0-1.6,0-2.2
						c-0.4,0.7-2.5,3.5-3.6,5h3.6V119.3z"/>
				</g>
			</g>
			<g>
				<g class="st28">
					<path class="st45" d="M104.5,85.8c0.3,0.9,0.9,1.3,1.9,1.3c2.1,0,2.2-3,2.3-4.2c-0.5,0.9-1.3,1.3-2.4,1.3
						c-1.6,0-2.7-1.2-2.7-2.9c0-1.6,1-3,2.9-3c2.1,0,2.9,1.6,2.9,4.2c0,2.3-0.4,5.2-3,5.2c-1.6,0-2.3-0.9-2.6-2H104.5z M104.3,81.4
						c0,1.3,0.7,2.2,2,2.2c1.5,0,2.2-0.8,2.2-2.2c0-0.5-0.2-2.4-2.1-2.4C104.9,79.1,104.3,80.1,104.3,81.4z"/>
				</g>
			</g>
			<g>
				<g class="st28">
					<path class="st45" d="M112,85.8c0.3,0.9,0.9,1.3,1.9,1.3c2.1,0,2.2-3,2.3-4.2c-0.5,0.9-1.3,1.3-2.4,1.3c-1.6,0-2.7-1.2-2.7-2.9
						c0-1.6,1-3,2.9-3c2.1,0,2.9,1.6,2.9,4.2c0,2.3-0.4,5.2-3,5.2c-1.6,0-2.3-0.9-2.6-2H112z M111.9,81.4c0,1.3,0.7,2.2,2,2.2
						c1.5,0,2.2-0.8,2.2-2.2c0-0.5-0.2-2.4-2.1-2.4C112.5,79.1,111.9,80.1,111.9,81.4z"/>
				</g>
			</g>
			<g>
				<g class="st28">
					<path class="st45" d="M133.1,82.2V74c-0.5,0.4-1.5,0.9-2,1.1v-0.6c0.6-0.2,1.5-0.7,2.2-1.4h0.6v9.1H133.1z"/>
				</g>
			</g>
			<g>
				<g class="st28">
					<path class="st45" d="M138,82.2V74c-0.5,0.4-1.5,0.9-2,1.1v-0.6c0.6-0.2,1.5-0.7,2.2-1.4h0.6v9.1H138z"/>
				</g>
			</g>
			<g>
				<g class="st28">
					<path class="st45" d="M142.2,80.4c0.3,0.9,0.9,1.3,1.9,1.3c2.1,0,2.2-3,2.3-4.2c-0.5,0.9-1.3,1.3-2.4,1.3
						c-1.6,0-2.7-1.2-2.7-2.9c0-1.6,1-3,2.9-3c2.1,0,2.9,1.6,2.9,4.2c0,2.3-0.4,5.2-3,5.2c-1.6,0-2.3-0.9-2.6-2H142.2z M142,76
						c0,1.3,0.7,2.2,2,2.2c1.5,0,2.2-0.8,2.2-2.2c0-0.5-0.2-2.4-2.1-2.4C142.6,73.6,142,74.7,142,76z"/>
				</g>
			</g>
			<g>
				<g class="st28">
					<path class="st45" d="M161,82.4v-8.2c-0.5,0.4-1.5,0.9-2,1.1v-0.6c0.6-0.2,1.5-0.7,2.2-1.4h0.6v9.1H161z"/>
				</g>
			</g>
			<g>
				<g class="st28">
					<path class="st45" d="M165.8,82.4v-8.2c-0.5,0.4-1.5,0.9-2,1.1v-0.6c0.6-0.2,1.5-0.7,2.2-1.4h0.6v9.1H165.8z"/>
				</g>
			</g>
			<g>
				<g class="st28">
					<path class="st45" d="M173.3,82.4v-2.5H169v-0.7l4.4-5.9h0.7v5.9h1.2l-0.1,0.7h-1.1v2.5H173.3z M173.3,76.4c0-0.5,0-1.6,0-2.2
						c-0.4,0.7-2.5,3.5-3.6,5h3.6V76.4z"/>
				</g>
			</g>
			<g>
				<g class="st28">
					<path class="st45" d="M187.8,65v-8.2c-0.5,0.4-1.5,0.9-2,1.1v-0.6c0.6-0.2,1.5-0.7,2.2-1.4h0.6V65H187.8z"/>
				</g>
			</g>
			<g>
				<g class="st28">
					<path class="st45" d="M196,57.7c-0.2-0.8-0.8-1.3-1.8-1.3c-1.7,0-2.4,1.6-2.4,4c0.4-0.8,1.1-1.5,2.5-1.5c1.8,0,2.7,1.3,2.7,3
						c0,1.7-0.9,3.3-2.9,3.3c-2.4,0-3-2-3-4.6c0-2.6,0.8-4.8,3.1-4.8c1.8,0,2.3,1.2,2.5,2H196z M196.3,61.9c0-1.1-0.4-2.4-2-2.4
						c-1.3,0-2.3,0.9-2.3,2.4c0,0.8,0.4,2.5,2.2,2.5C195.7,64.5,196.3,63.2,196.3,61.9z"/>
				</g>
			</g>
			<g>
				<g class="st28">
					<path class="st45" d="M204.8,60.3c0,2.1-0.5,4.8-3,4.8c-2.4,0-3-2.5-3-4.7c0-2.2,0.6-4.7,3-4.7
						C204.2,55.7,204.8,58.2,204.8,60.3z M199.6,60.4c0,1.8,0.4,4,2.2,4c1.8,0,2.2-2.2,2.2-4.1c0-1.7-0.4-4-2.2-4
						C200,56.4,199.6,58.4,199.6,60.4z"/>
				</g>
			</g>
			<g>
				<g class="st28">
					<path class="st45" d="M252.8,68.6v-8.2c-0.5,0.4-1.5,0.9-2,1.1v-0.6c0.6-0.2,1.5-0.7,2.2-1.4h0.6v9.1H252.8z"/>
				</g>
			</g>
			<g>
				<g class="st28">
					<path class="st45" d="M261.6,60.2h-3.9c-0.1,0.9-0.4,2.6-0.5,3.2c0.4-0.5,1.1-0.9,2.1-0.9c1.6,0,2.7,1.1,2.7,3
						c0,1.8-0.9,3.3-2.9,3.3c-1.5,0-2.6-0.9-2.8-2.4h0.7c0.2,1,0.9,1.7,2.2,1.7c1.4,0,2.2-1,2.2-2.6c0-1.3-0.6-2.4-2-2.4
						c-1.3,0-1.8,0.5-2.2,1.4l-0.7-0.2c0.3-1.2,0.6-3.7,0.7-4.8h4.6L261.6,60.2z"/>
				</g>
			</g>
			<g>
				<g class="st28">
					<path class="st45" d="M265.4,68.6v-8.2c-0.5,0.4-1.5,0.9-2,1.1v-0.6c0.6-0.2,1.5-0.7,2.2-1.4h0.6v9.1H265.4z"/>
				</g>
			</g>
			<g>
				<g class="st28">
					<path class="st45" d="M276.5,116.1v-8.2c-0.5,0.4-1.5,0.9-2,1.1v-0.6c0.6-0.2,1.5-0.7,2.2-1.4h0.6v9.1H276.5z"/>
					<path class="st45" d="M285.3,111.5c0,2.1-0.5,4.8-3,4.8c-2.4,0-3-2.5-3-4.7c0-2.2,0.6-4.7,3-4.7
						C284.8,106.9,285.3,109.4,285.3,111.5z M280.2,111.6c0,1.8,0.4,4,2.2,4c1.8,0,2.2-2.2,2.2-4.1c0-1.7-0.4-4-2.2-4
						C280.6,107.6,280.2,109.6,280.2,111.6z"/>
				</g>
			</g>
			<g>
				<g class="st28">
					<path class="st45" d="M287.6,116.1L287.6,116.1c0-1.2,1-2.6,2.8-4c1.6-1.2,2-1.6,2-2.7c0-1-0.6-1.8-1.9-1.8
						c-1.2,0-1.9,0.6-2.1,1.9h-0.7c0.2-1.5,1.1-2.6,2.8-2.6c1.8,0,2.6,1.3,2.6,2.5c0,1.4-0.6,1.9-2.3,3.3c-1.3,1.1-2.2,2-2.4,2.8
						h5.1l-0.1,0.7H287.6z"/>
				</g>
			</g>
			<g>
				<g class="st28">
					<path class="st45" d="M318.4,47.7L318.4,47.7c0-1.2,1-2.6,2.8-4c1.6-1.2,2-1.6,2-2.7c0-1-0.6-1.8-1.9-1.8
						c-1.2,0-1.9,0.6-2.1,1.9h-0.7c0.2-1.5,1.1-2.6,2.8-2.6c1.8,0,2.6,1.3,2.6,2.5c0,1.4-0.6,1.9-2.3,3.3c-1.3,1.1-2.2,2-2.4,2.8
						h5.1l-0.1,0.7H318.4z"/>
				</g>
			</g>
			<g>
				<g class="st28">
					<path class="st45" d="M327.8,47.7v-8.2c-0.5,0.4-1.5,0.9-2,1.1v-0.6c0.6-0.2,1.5-0.7,2.2-1.4h0.6v9.1H327.8z"/>
				</g>
			</g>
			<g>
				<g class="st28">
					<path class="st45" d="M336.6,38.6v0.7c-1.7,2.2-3.2,5.7-3.7,8.4h-0.7c0.5-2.5,2.1-6.2,3.7-8.4h-5v-0.7H336.6z"/>
				</g>
			</g>
			<g>
				<g class="st28">
					<path class="st45" d="M214.6,47.5L214.6,47.5c0-1.2,1-2.6,2.8-4c1.6-1.2,2-1.6,2-2.7c0-1-0.6-1.8-1.9-1.8
						c-1.2,0-1.9,0.6-2.1,1.9h-0.7c0.2-1.5,1.1-2.6,2.8-2.6c1.8,0,2.6,1.3,2.6,2.5c0,1.4-0.6,1.9-2.3,3.3c-1.3,1.1-2.2,2-2.4,2.8
						h5.1l-0.1,0.7H214.6z"/>
				</g>
			</g>
			<g>
				<g class="st28">
					<path class="st45" d="M228.1,42.9c0,2.1-0.5,4.8-3,4.8c-2.4,0-3-2.5-3-4.7c0-2.2,0.6-4.7,3-4.7
						C227.5,38.3,228.1,40.8,228.1,42.9z M222.9,43c0,1.8,0.4,4,2.2,4c1.8,0,2.2-2.2,2.2-4.1c0-1.7-0.4-4-2.2-4
						C223.3,39,222.9,41,222.9,43z"/>
				</g>
			</g>
			<g>
				<g class="st28">
					<path class="st45" d="M235.3,38.5v0.7c-1.7,2.2-3.2,5.7-3.7,8.4h-0.7c0.5-2.5,2.1-6.2,3.7-8.4h-5v-0.7H235.3z"/>
				</g>
			</g>
			<g>
				<g class="st28">
					<path class="st45" d="M187.8,30.8L187.8,30.8c0-1.4,1.1-3,3.3-4.7c1.9-1.5,2.3-1.9,2.3-3.2c0-1.2-0.7-2.2-2.2-2.2
						c-1.5,0-2.2,0.7-2.5,2.3h-0.8c0.2-1.8,1.3-3,3.3-3c2.2,0,3.1,1.5,3.1,2.9c0,1.7-0.7,2.2-2.7,3.8c-1.6,1.3-2.5,2.3-2.9,3.4h6
						l-0.1,0.8H187.8z"/>
				</g>
			</g>
			<g>
				<g class="st28">
					<path class="st45" d="M204,25.4c0,2.5-0.6,5.6-3.5,5.6c-2.8,0-3.5-2.9-3.5-5.6c0-2.6,0.8-5.6,3.5-5.6
						C203.4,19.9,204,22.8,204,25.4z M197.9,25.5c0,2.1,0.4,4.8,2.6,4.8c2.2,0,2.6-2.6,2.6-4.9c0-2.1-0.4-4.7-2.5-4.7
						C198.4,20.7,197.9,23.1,197.9,25.5z"/>
				</g>
			</g>
			<g>
				<g class="st28">
					<path class="st45" d="M206.6,30.8L206.6,30.8c0-1.4,1.1-3,3.3-4.7c1.9-1.5,2.3-1.9,2.3-3.2c0-1.2-0.7-2.2-2.2-2.2
						c-1.5,0-2.2,0.7-2.5,2.3h-0.8c0.2-1.8,1.3-3,3.3-3c2.2,0,3.1,1.5,3.1,2.9c0,1.7-0.7,2.2-2.7,3.8c-1.6,1.3-2.5,2.3-2.9,3.4h6
						l-0.1,0.8H206.6z"/>
				</g>
			</g>
			<g>
				<g class="st28">
					<path class="st45" d="M217.9,30.8v-9.7c-0.6,0.5-1.8,1.1-2.4,1.3v-0.8c0.7-0.2,1.7-0.9,2.6-1.6h0.7v10.8H217.9z"/>
				</g>
			</g>
			<text transform="matrix(1 0 0 1 221.41 31.8771)" class="st45 st46 st47">年</text>
			<g>
				<g class="st28">
					<path class="st29" d="M248.5,30.8L248.5,30.8c0-1.4,1.1-3,3.3-4.7c1.9-1.5,2.3-1.9,2.3-3.2c0-1.2-0.7-2.2-2.2-2.2
						c-1.5,0-2.2,0.7-2.5,2.3h-0.8c0.2-1.8,1.3-3,3.3-3c2.2,0,3.1,1.5,3.1,2.9c0,1.7-0.7,2.2-2.7,3.8c-1.6,1.3-2.5,2.3-2.9,3.4h6
						l-0.1,0.8H248.5z"/>
				</g>
			</g>
			<g>
				<g class="st28">
					<path class="st29" d="M264.7,25.4c0,2.5-0.6,5.6-3.5,5.6c-2.8,0-3.5-2.9-3.5-5.6c0-2.6,0.8-5.6,3.5-5.6
						C264.1,19.9,264.7,22.8,264.7,25.4z M258.6,25.5c0,2.1,0.4,4.8,2.6,4.8c2.2,0,2.6-2.6,2.6-4.9c0-2.1-0.4-4.7-2.5-4.7
						C259.1,20.7,258.6,23.1,258.6,25.5z"/>
				</g>
			</g>
			<g>
				<g class="st28">
					<path class="st29" d="M267.3,30.8L267.3,30.8c0-1.4,1.1-3,3.3-4.7c1.9-1.5,2.3-1.9,2.3-3.2c0-1.2-0.7-2.2-2.2-2.2
						c-1.5,0-2.2,0.7-2.5,2.3h-0.8c0.2-1.8,1.3-3,3.3-3c2.2,0,3.1,1.5,3.1,2.9c0,1.7-0.7,2.2-2.7,3.8c-1.6,1.3-2.5,2.3-2.9,3.4h6
						l-0.1,0.8H267.3z"/>
				</g>
			</g>
			<g>
				<g class="st28">
					<path class="st29" d="M276.6,30.8L276.6,30.8c0-1.4,1.1-3,3.3-4.7c1.9-1.5,2.3-1.9,2.3-3.2c0-1.2-0.7-2.2-2.2-2.2
						c-1.5,0-2.2,0.7-2.5,2.3h-0.8c0.2-1.8,1.3-3,3.3-3c2.2,0,3.1,1.5,3.1,2.9c0,1.7-0.7,2.2-2.7,3.8c-1.6,1.3-2.5,2.3-2.9,3.4h6
						l-0.1,0.8H276.6z"/>
				</g>
			</g>
			<text transform="matrix(1 0 0 1 284.85 31.8771)" class="st29 st46 st47">年</text>
			<rect x="167.6" y="25.1" class="st45" width="13.1" height="4.3"/>
			<polygon class="st45" points="169.7,22.7 169.7,31.8 165.1,27.4 			"/>
			<rect x="301.3" y="25.1" class="st29" width="13.1" height="4.3"/>
			<polygon class="st29" points="312.3,22.7 312.3,31.8 316.9,27.4 			"/>
			<line class="st38" x1="352" y1="134.7" x2="352" y2="137.7"/>
			<line class="st38" x1="379.8" y1="134.7" x2="379.8" y2="137.7"/>
			<line class="st38" x1="407.6" y1="134.7" x2="407.6" y2="137.7"/>
			<line class="st38" x1="433.4" y1="134.7" x2="433.4" y2="137.7"/>
			<line class="st38" x1="459.2" y1="134.7" x2="459.2" y2="137.7"/>
			<line class="st38" x1="485" y1="134.7" x2="485" y2="137.7"/>
			<line class="st38" x1="510.8" y1="134.7" x2="510.8" y2="137.7"/>
			<line class="st38" x1="536.6" y1="134.7" x2="536.6" y2="137.7"/>
			<line class="st38" x1="562.4" y1="134.7" x2="562.4" y2="137.7"/>
			<text transform="matrix(1 0 0 1 334.15 147.18)" class="st41 st26 st44">4月</text>
			<text transform="matrix(1 0 0 1 361.83 147.18)" class="st41 st26 st44">5月</text>
			<text transform="matrix(1 0 0 1 387.51 147.18)" class="st41 st26 st44">6月</text>
			<text transform="matrix(1 0 0 1 415.19 147.18)" class="st41 st26 st44">7月</text>
			<text transform="matrix(1 0 0 1 441.88 147.18)" class="st41 st26 st44">8月</text>
			<text transform="matrix(1 0 0 1 467.56 147.18)" class="st41 st26 st44">9月</text>
			<text transform="matrix(1 0 0 1 490.7 147.18)" class="st41 st26 st44">10月</text>
			<text transform="matrix(1 0 0 1 518.38 147.18)" class="st41 st26 st44">11月</text>
			<text transform="matrix(1 0 0 1 546.06 147.18)" class="st41 st26 st44">12月</text>
			<g>
				<g class="st28">
					<path class="st45" d="M336.3,81L336.3,81c0-1.2,1-2.6,2.8-4c1.6-1.2,2-1.6,2-2.7c0-1-0.6-1.8-1.9-1.8c-1.2,0-1.9,0.6-2.1,1.9
						h-0.7c0.2-1.5,1.1-2.6,2.8-2.6c1.8,0,2.6,1.3,2.6,2.5c0,1.4-0.6,1.9-2.3,3.3c-1.3,1.1-2.2,2-2.4,2.8h5.1L342,81H336.3z"/>
				</g>
			</g>
			<g>
				<g class="st28">
					<path class="st45" d="M349.7,76.4c0,2.1-0.5,4.8-3,4.8c-2.4,0-3-2.5-3-4.7c0-2.2,0.6-4.7,3-4.7
						C349.2,71.8,349.7,74.3,349.7,76.4z M344.6,76.5c0,1.8,0.4,4,2.2,4c1.8,0,2.2-2.2,2.2-4.1c0-1.7-0.4-4-2.2-4
						C344.9,72.5,344.6,74.5,344.6,76.5z"/>
				</g>
			</g>
			<g>
				<g class="st28">
					<path class="st45" d="M353.4,81v-8.2c-0.5,0.4-1.5,0.9-2,1.1v-0.6c0.6-0.2,1.5-0.7,2.2-1.4h0.6V81H353.4z"/>
				</g>
			</g>
			<g>
				<g class="st28">
					<path class="st45" d="M364.6,35.8L364.6,35.8c0-1.2,1-2.6,2.8-4c1.6-1.2,2-1.6,2-2.7c0-1-0.6-1.8-1.9-1.8
						c-1.2,0-1.9,0.6-2.1,1.9h-0.7c0.2-1.5,1.1-2.6,2.8-2.6c1.8,0,2.6,1.3,2.6,2.5c0,1.4-0.6,1.9-2.3,3.3c-1.3,1.1-2.2,2-2.4,2.8
						h5.1l-0.1,0.7H364.6z"/>
				</g>
			</g>
			<g>
				<g class="st28">
					<path class="st45" d="M372.2,35.8L372.2,35.8c0-1.2,1-2.6,2.8-4c1.6-1.2,2-1.6,2-2.7c0-1-0.6-1.8-1.9-1.8
						c-1.2,0-1.9,0.6-2.1,1.9h-0.7c0.2-1.5,1.1-2.6,2.8-2.6c1.8,0,2.6,1.3,2.6,2.5c0,1.4-0.6,1.9-2.3,3.3c-1.3,1.1-2.2,2-2.4,2.8
						h5.1l-0.1,0.7H372.2z"/>
				</g>
			</g>
			<g>
				<g class="st28">
					<path class="st45" d="M379.9,28.8c0.2-1.1,1-2.2,2.7-2.2c1.7,0,2.5,1.1,2.5,2.3c0,1.1-0.7,1.7-1.3,1.9v0c1,0.3,1.7,1,1.7,2.4
						c0,1.5-1,2.8-3,2.8c-1.8,0-2.8-1.2-2.9-2.4h0.7c0.2,0.9,1,1.8,2.3,1.8c1.6,0,2.2-1,2.2-2.2c0-1.4-1-2-2.3-2h-0.5v-0.6h0.4
						c1.4,0,2-0.6,2-1.7c0-1-0.7-1.6-1.8-1.6c-1.2,0-1.7,0.6-1.9,1.5H379.9z"/>
				</g>
			</g>
			<g>
				<g class="st28">
					<path class="st45" d="M388.4,85.8v-8.2c-0.5,0.4-1.5,0.9-2,1.1V78c0.6-0.2,1.5-0.7,2.2-1.4h0.6v9.1H388.4z"/>
					<path class="st45" d="M391.2,83.3c0-1.4,0.9-2.1,1.8-2.4c-0.9-0.4-1.4-1-1.4-1.9c0-1.3,0.9-2.3,2.6-2.3c1.6,0,2.5,1,2.5,2.3
						c0,0.9-0.5,1.6-1.3,1.9c1,0.3,1.7,1.2,1.7,2.4c0,1.6-1.2,2.7-3,2.7C392.5,86,391.2,84.9,391.2,83.3z M396.4,83.2
						c0-1.3-0.8-2.1-2.2-2.1c-1.6,0-2.2,0.9-2.2,2.1c0,1.2,0.8,2.1,2.2,2.1C395.5,85.3,396.4,84.6,396.4,83.2z M392.4,78.8
						c0,0.9,0.5,1.7,1.9,1.7c1.3,0,1.8-0.7,1.8-1.6c0-0.9-0.5-1.7-1.8-1.7C392.9,77.2,392.4,77.9,392.4,78.8z"/>
				</g>
			</g>
			<g>
				<g class="st28">
					<path class="st45" d="M401.1,85.8v-8.2c-0.5,0.4-1.5,0.9-2,1.1V78c0.6-0.2,1.5-0.7,2.2-1.4h0.6v9.1H401.1z"/>
				</g>
			</g>
			<g>
				<g class="st28">
					<path class="st45" d="M408.6,36.9L408.6,36.9c0-1.2,1-2.6,2.8-4c1.6-1.2,2-1.6,2-2.7c0-1-0.6-1.8-1.9-1.8
						c-1.2,0-1.9,0.6-2.1,1.9h-0.7c0.2-1.5,1.1-2.6,2.8-2.6c1.8,0,2.6,1.3,2.6,2.5c0,1.4-0.6,1.9-2.3,3.3c-1.3,1.1-2.2,2-2.4,2.8
						h5.1l-0.1,0.7H408.6z"/>
				</g>
			</g>
			<g>
				<g class="st28">
					<path class="st45" d="M416.2,36.9L416.2,36.9c0-1.2,1-2.6,2.8-4c1.6-1.2,2-1.6,2-2.7c0-1-0.6-1.8-1.9-1.8
						c-1.2,0-1.9,0.6-2.1,1.9h-0.7c0.2-1.5,1.1-2.6,2.8-2.6c1.8,0,2.6,1.3,2.6,2.5c0,1.4-0.6,1.9-2.3,3.3c-1.3,1.1-2.2,2-2.4,2.8
						h5.1l-0.1,0.7H416.2z"/>
				</g>
			</g>
			<g>
				<g class="st28">
					<path class="st45" d="M425.6,36.9v-8.2c-0.5,0.4-1.5,0.9-2,1.1v-0.6c0.6-0.2,1.5-0.7,2.2-1.4h0.6v9.1H425.6z"/>
				</g>
			</g>
			<g>
				<g class="st28">
					<path class="st45" d="M458,82.2V74c-0.5,0.4-1.5,0.9-2,1.1v-0.6c0.6-0.2,1.5-0.7,2.2-1.4h0.6v9.1H458z"/>
				</g>
			</g>
			<g>
				<g class="st28">
					<path class="st45" d="M461.2,79.7c0-1.4,0.9-2.1,1.8-2.4c-0.9-0.4-1.4-1-1.4-1.9c0-1.3,0.9-2.3,2.6-2.3c1.6,0,2.5,1,2.5,2.3
						c0,0.9-0.5,1.6-1.3,1.9c1,0.3,1.7,1.2,1.7,2.4c0,1.6-1.2,2.7-3,2.7C462.4,82.4,461.2,81.3,461.2,79.7z M466.4,79.7
						c0-1.3-0.8-2.1-2.2-2.1c-1.6,0-2.2,0.9-2.2,2.1c0,1.2,0.8,2.1,2.2,2.1C465.5,81.7,466.4,81,466.4,79.7z M462.4,75.3
						c0,0.9,0.5,1.7,1.9,1.7c1.3,0,1.8-0.7,1.8-1.6c0-0.9-0.5-1.7-1.8-1.7C462.8,73.6,462.4,74.4,462.4,75.3z"/>
				</g>
			</g>
			<g>
				<g class="st28">
					<path class="st45" d="M469.4,75.2c0.2-1.1,1-2.2,2.7-2.2c1.7,0,2.5,1.1,2.5,2.3c0,1.1-0.7,1.7-1.3,1.9v0c1,0.3,1.7,1,1.7,2.4
						c0,1.5-1,2.8-3,2.8c-1.8,0-2.8-1.2-2.9-2.4h0.7c0.2,0.9,1,1.8,2.3,1.8c1.6,0,2.2-1,2.2-2.2c0-1.4-1-2-2.3-2h-0.5v-0.6h0.4
						c1.4,0,2-0.6,2-1.7c0-1-0.7-1.6-1.8-1.6c-1.2,0-1.7,0.6-1.9,1.5H469.4z"/>
				</g>
			</g>
			<g>
				<g class="st28">
					<path class="st45" d="M492.7,90.6v-8.2c-0.5,0.4-1.5,0.9-2,1.1v-0.6c0.6-0.2,1.5-0.7,2.2-1.4h0.6v9.1H492.7z"/>
				</g>
			</g>
			<g>
				<g class="st28">
					<path class="st45" d="M495.8,88.1c0-1.4,0.9-2.1,1.8-2.4c-0.9-0.4-1.4-1-1.4-1.9c0-1.3,0.9-2.3,2.6-2.3c1.6,0,2.5,1,2.5,2.3
						c0,0.9-0.5,1.6-1.3,1.9c1,0.3,1.7,1.2,1.7,2.4c0,1.6-1.2,2.7-3,2.7C497.1,90.8,495.8,89.7,495.8,88.1z M501,88.1
						c0-1.3-0.8-2.1-2.2-2.1c-1.6,0-2.2,0.9-2.2,2.1c0,1.2,0.8,2.1,2.2,2.1C500.1,90.1,501,89.4,501,88.1z M497,83.7
						c0,0.9,0.5,1.7,1.9,1.7c1.3,0,1.8-0.7,1.8-1.6c0-0.9-0.5-1.7-1.8-1.7C497.5,82,497,82.7,497,83.7z"/>
					<path class="st45" d="M509.1,86c0,2.1-0.5,4.8-3,4.8c-2.4,0-3-2.5-3-4.7c0-2.2,0.6-4.7,3-4.7C508.6,81.4,509.1,83.9,509.1,86z
						 M504,86.1c0,1.8,0.4,4,2.2,4c1.8,0,2.2-2.2,2.2-4.1c0-1.7-0.4-4-2.2-4C504.3,82,504,84.1,504,86.1z"/>
				</g>
			</g>
			<g>
				<g class="st28">
					<path class="st45" d="M503.7,33.1L503.7,33.1c0-1.2,1-2.6,2.8-4c1.6-1.2,2-1.6,2-2.7c0-1-0.6-1.8-1.9-1.8
						c-1.2,0-1.9,0.6-2.1,1.9h-0.7c0.2-1.5,1.1-2.6,2.8-2.6c1.8,0,2.6,1.3,2.6,2.5c0,1.4-0.6,1.9-2.3,3.3c-1.3,1.1-2.2,2-2.4,2.8
						h5.1l-0.1,0.7H503.7z"/>
				</g>
			</g>
			<g>
				<g class="st28">
					<path class="st45" d="M511.5,26.1c0.2-1.1,1-2.2,2.7-2.2c1.7,0,2.5,1.1,2.5,2.3c0,1.1-0.7,1.7-1.3,1.9v0c1,0.3,1.7,1,1.7,2.4
						c0,1.5-1,2.8-3,2.8c-1.8,0-2.8-1.2-2.9-2.4h0.7c0.2,0.9,1,1.8,2.3,1.8c1.6,0,2.2-1,2.2-2.2c0-1.4-1-2-2.3-2h-0.5v-0.6h0.4
						c1.4,0,2-0.6,2-1.7c0-1-0.7-1.6-1.8-1.6c-1.2,0-1.7,0.6-1.9,1.5H511.5z"/>
				</g>
			</g>
			<g>
				<g class="st28">
					<path class="st45" d="M519,26.1c0.2-1.1,1-2.2,2.7-2.2c1.7,0,2.5,1.1,2.5,2.3c0,1.1-0.7,1.7-1.3,1.9v0c1,0.3,1.7,1,1.7,2.4
						c0,1.5-1,2.8-3,2.8c-1.8,0-2.8-1.2-2.9-2.4h0.7c0.2,0.9,1,1.8,2.3,1.8c1.6,0,2.2-1,2.2-2.2c0-1.4-1-2-2.3-2H521v-0.6h0.4
						c1.4,0,2-0.6,2-1.7c0-1-0.7-1.6-1.8-1.6c-1.2,0-1.7,0.6-1.9,1.5H519z"/>
				</g>
			</g>
			<g>
				<g class="st28">
					<path class="st45" d="M545.2,11.7V9.2h-4.4V8.5l4.4-5.9h0.7v5.9h1.2L547,9.2h-1.1v2.5H545.2z M545.2,5.8c0-0.5,0-1.6,0-2.2
						c-0.4,0.7-2.5,3.5-3.6,5h3.6V5.8z"/>
				</g>
			</g>
			<g>
				<g class="st28">
					<path class="st45" d="M554.6,7.1c0,2.1-0.5,4.8-3,4.8c-2.4,0-3-2.5-3-4.7c0-2.2,0.6-4.7,3-4.7C554.1,2.5,554.6,5,554.6,7.1z
						 M549.5,7.2c0,1.8,0.4,4,2.2,4c1.8,0,2.2-2.2,2.2-4.1c0-1.7-0.4-4-2.2-4C549.8,3.2,549.5,5.2,549.5,7.2z"/>
				</g>
			</g>
			<g>
				<g class="st28">
					<path class="st45" d="M558.4,11.7V3.5c-0.5,0.4-1.5,0.9-2,1.1V3.9c0.6-0.2,1.5-0.7,2.2-1.4h0.6v9.1H558.4z"/>
				</g>
			</g>
		</g>
	</g>
</g>
<g id="圖層_2">
	<g>
		
			<linearGradient id="SVGID_00000138573540522596093500000011227598472034944702_" gradientUnits="userSpaceOnUse" x1="300.1666" y1="104.7996" x2="575.4238" y2="104.7996">
			<stop  offset="0" style="stop-color:#E8F3D8"/>
			<stop  offset="1" style="stop-color:#FFFFFF"/>
		</linearGradient>
		
			<rect x="300.2" y="45.6" style="opacity:0.62;fill:url(#SVGID_00000138573540522596093500000011227598472034944702_);" width="275.3" height="118.4"/>
		
			<linearGradient id="SVGID_00000088121889307042924400000001810876073048770976_" gradientUnits="userSpaceOnUse" x1="8059.9351" y1="104.7996" x2="8273.3389" y2="104.7996" gradientTransform="matrix(-1 0 0 1 8360.0205 0)">
			<stop  offset="0" style="stop-color:#F3EFD8"/>
			<stop  offset="0.2595" style="stop-color:#F6F4E3"/>
			<stop  offset="1" style="stop-color:#FFFFFF"/>
		</linearGradient>
		<polygon style="opacity:0.62;fill:url(#SVGID_00000088121889307042924400000001810876073048770976_);" points="86.7,45.6 
			300.1,45.6 300.1,164 86.7,164 		"/>
		<g>
			<path class="st50" d="M49.9,62.1c0.2,0.3-1.1,1.7-2.3,2.5c-1,0.6-3.5,1.8-4.3,2.1l-2.1-3.2c0.4-0.3,0.8-0.7,1.1-1
				c0.7-0.8,3-2.9,3.3-2.6c0.3,0.3-1,2.1-0.8,2.1c0.2,0,1.5-1,2-1.5c0.5-0.5,1.4-1.7,1.8-1.6c0.4,0.1,0.5,0.7,0.5,0.7
				s0.3-0.5,0.6-0.3c0.3,0.2,0,1.1,0,1.1s0.1-0.3,0.4,0c0.2,0.3-0.6,1.5-0.6,1.5S49.8,61.8,49.9,62.1z"/>
			<path class="st51" d="M17.7,43.1c-2.7,0.2-5,2.5-5,5.7c0,3.2-0.6,4.9-2.6,4.5c0,0,5.5,3.2,12.7,0.4c0,0-0.9-1.1-1-3.5
				C21.6,47.8,17.7,43.1,17.7,43.1z"/>
			<path class="st52" d="M31.7,76.1L31.7,76.1c-1.7,0.9-3.8,0.3-4.8-1.4l-6.9-12.8c-0.9-1.7-0.3-3.8,1.4-4.8l0,0
				c1.7-0.9,3.8-0.3,4.8,1.4l6.9,12.8C34,73.1,33.4,75.2,31.7,76.1z"/>
			<path class="st53" d="M16.1,80.4c-2.3,3-3.2,9.2-1.7,16c1.5,6.7,2,11.1,2,11.1c0.4,3.1,3.2,5.3,6.3,4.9c3.1-0.4,5.3-3.2,4.9-6.3
				l-2.3-25.7H16.1z"/>
			<path class="st52" d="M15.6,55.7l-6.1,2.8c0,0,1.4,15.8,1.5,17.5c0.1,1.7-0.4,4.3-0.4,4.3h14.7c0,0-0.2-8.5,0.8-10.8
				c0.7-1.6,1.1-2.6,0.7-4.4c-0.4-1.8-3.2-5.1-2.8-8.3l-3.2-1L15.6,55.7z"/>
			<path class="st52" d="M4.5,78.7L4.5,78.7C2.7,78,1.7,76,2.4,74.2l5-13.6c0.7-1.8,2.7-2.8,4.5-2.1l0,0c1.8,0.7,2.8,2.7,2.1,4.5
				L9,76.6C8.3,78.4,6.3,79.3,4.5,78.7z"/>
			<path class="st54" d="M21.6,46.6c0,0,0.8-2.1-1.2-2.7L21.6,46.6z"/>
			<path class="st50" d="M20.8,48.7v7.1c0,0-0.1,1.6-2,1.7c-1.6,0.1-2.6-0.9-3.1-1.5l-0.2-0.3l0,0l0.8-7H20.8z"/>
			<polygon class="st55" points="20.8,55 17.7,51.6 20.8,52.8 			"/>
			<path class="st50" d="M17.7,52.4c1.5,0.9,3.2,0.9,4.3,0.2c1.1-0.7,0.9-2.3,0.6-3.4c0,0,0,0,0,0c-0.1-0.2-0.2-0.5-0.3-0.9
				c-0.4-1.3-1-3.3-1-3.3c-0.3-1-3.2-3.4-6.1-0.3C12.4,47.7,16.2,51.5,17.7,52.4z"/>
			<path class="st51" d="M21.2,44.6c0,0,0,1.2-1.8,2.1c-1.7,0.8-3.4,2.1-3.2,4c0.2,1.8-0.4,2.9-0.4,2.9s-0.3-2.3-1.4-4.2
				c-0.4-0.8-0.8-2.3-0.1-3.7C15.4,43.4,18.5,41.7,21.2,44.6z"/>
			<path class="st50" d="M16.5,50.2c0.4,0.6,0.5,1,0,1.2c-0.4,0.3-1.2,0.2-1.6-0.3c-0.4-0.6-0.3-1.2,0.1-1.5
				C15.5,49.3,16.1,49.7,16.5,50.2z"/>
			<path class="st56" d="M15.5,50.6c0.4-0.2,0.7,0,0.7,0c-0.3-0.6-1-0.4-1-0.4"/>
			<path class="st57" d="M19.2,48.6c0.1,0.2,0.3,0.4,0.4,0.4c0.2,0,0.2-0.3,0.2-0.5c-0.1-0.2-0.3-0.4-0.4-0.4
				C19.2,48.1,19.2,48.3,19.2,48.6z"/>
			<path class="st57" d="M21.3,47.8c0.1,0.2,0.2,0.4,0.4,0.3c0.1,0,0.2-0.3,0.2-0.5c-0.1-0.2-0.2-0.4-0.4-0.3
				C21.3,47.4,21.2,47.6,21.3,47.8z"/>
			<path class="st53" d="M29.6,136.7h-10l-3.4-29.3l0-0.7c0-3.2,2.6-5.8,5.8-5.7c2.9,0.1,5.3,2.4,5.5,5.3L29.6,136.7z"/>
			<path class="st58" d="M18.4,48.2c0,0,0.3-0.8,1-0.7"/>
			<path class="st58" d="M21,46.9c0,0,0.3-0.2,0.8,0.1"/>
			<path class="st59" d="M11.4,136.7H1.9l3-30.3l0-0.1c0.2-2.9,2.7-5.3,5.6-5.3c3.1,0,5.7,2.5,5.7,5.7c0,0.2,0,0.3,0,0.5L11.4,136.7
				z"/>
			<path class="st52" d="M44.3,68.2l-11.6,7.4L32,76.1c-1.4,1-3.5,0.5-4.6-1.1c-1.1-1.6-0.9-3.7,0.5-4.7L41,63l0.3,0.4l2.1,3.2
				L44.3,68.2z"/>
			<path class="st58" d="M20.4,48c0,0,0.4,1.2,1.1,1.2c0,0-0.2,0.3-0.4,0.4"/>
			<path class="st59" d="M20.6,80.4l-0.1,0.8l-4.3,26.1c-0.3,3.1-3.1,5.4-6.2,5c-3.1-0.3-5.4-3.1-5-6.2c0,0,0.5-4.4,0.6-11.3
				c0.1-5.3,1.3-9.6,3.2-12.4c0.6-0.8,1.2-1.5,1.8-2H20.6z"/>
			<path class="st58" d="M21.5,50.6c0,0-0.7,0.6-1.5-0.2"/>
			<path class="st55" d="M18,49.7c0,0.3,0.4,0.5,0.9,0.5c0.5,0,1-0.2,1-0.5c0-0.3-0.4-0.5-0.9-0.5C18.5,49.2,18,49.4,18,49.7z"/>
			<path class="st55" d="M22,49c0.1,0.1,0.3,0.2,0.6,0.1c-0.1-0.2-0.2-0.5-0.3-0.9C22,48.6,21.9,48.9,22,49z"/>
			<path class="st60" d="M16.7,51.5c0.1,0.2-0.1,0.5-0.3,0.5c-0.2,0.1-0.5-0.1-0.5-0.3c-0.1-0.2,0.1-0.5,0.3-0.5
				C16.4,51.1,16.7,51.2,16.7,51.5z"/>
			<polygon class="st50" points="0,143.2 7.3,143.2 8.3,141.7 8.3,143.2 9.9,143.2 9.7,139 10.1,136.7 4.1,136.7 4.1,139 			"/>
			<path class="st61" d="M21.1,55.8l-0.4,7.5l-4.9-7.3c0.4,0.6,1.5,1.6,3.1,1.5C20.7,57.4,21.1,55.8,21.1,55.8z"/>
			<polygon class="st16" points="15.6,55.3 19.3,57.5 18.5,58.9 15.1,56 			"/>
			<polygon class="st16" points="20.8,55.6 19.3,57.5 20.2,58.7 21.2,56 			"/>
			<g>
				<polygon class="st62" points="40.6,78.8 20.8,79.6 25.3,64.6 45.1,63.8 				"/>
				<g>
					<polygon class="st63" points="21,78.9 14.3,73.4 33.4,72.6 40.8,78.1 					"/>
					<polygon class="st62" points="40.2,78.5 20.4,79.3 25,64.3 44.7,63.5 					"/>
					<polygon class="st63" points="44.7,63.5 45.1,63.8 25.3,64.6 20.8,79.6 20.4,79.3 25,64.3 					"/>
					<polygon class="st64" points="14.3,73.4 14.1,74.2 20.8,79.6 21,78.9 					"/>
				</g>
				<path class="st63" d="M36,71.7c0,0.5-0.9,1-2.2,1.1c-1.2,0.1-2.2-0.3-2.2-0.9c0-0.5,0.9-1,2.2-1.1C35,70.8,36,71.2,36,71.7z"/>
			</g>
			<polygon class="st50" points="26.4,143.2 24.7,141.9 24.8,143.2 23.2,143.2 22.4,139 21.9,136.7 28.3,136.7 28.5,139 33.6,143.2 
							"/>
			<polygon class="st51" points="4.1,139 0,143.2 7.3,143.2 8.3,141.7 8.3,143.2 9.9,143.2 9.7,139 			"/>
			<polygon class="st51" points="26.4,143.2 24.7,141.9 24.8,143.2 23.2,143.2 22.4,139 28.5,139 33.6,143.2 			"/>
			<path class="st50" d="M29,75.2c0.3,0.3,0,0.8,0,0.8s0.5-0.2,0.6,0.1c0.1,0.3-0.6,0.9-0.6,0.9c0.1,0,0.3-0.1,0.3,0.3
				c0,0.4-1.3,0.8-1.4,0.9c0,0,0.3,0,0.2,0.3c0,0.3-1.9,0.7-3.3,0.6c-1.2-0.1-3.9-0.7-4.7-0.9l0.2-3.8c0.5,0,1-0.1,1.5-0.2
				c1.1-0.2,4.2-0.5,4.2-0.1c0,0.4-2,1.1-1.9,1.2c0.2,0.2,1.8,0.1,2.5,0C27.2,75.4,28.7,74.9,29,75.2z"/>
			<path class="st52" d="M20.3,73.3l-0.1,1.1L20,78.3l-0.1,1L5.2,79c-1.7-0.1-3.1-1.7-3-3.6c0.1-1.9,1.5-3.5,3.2-3.4l1.1,0.2l0,0
				L20.3,73.3z"/>
			<polyline class="st58" points="17.5,73.1 10.5,72.5 11.9,68.6 			"/>
			<line class="st58" x1="10.8" y1="79.1" x2="7.6" y2="79.1"/>
			<path class="st65" d="M20.1,48.4c0.2,0.4,0.1,0.9-0.2,1.1c-0.3,0.2-0.8-0.1-1-0.5c-0.2-0.4-0.1-0.9,0.2-1.1
				C19.4,47.8,19.9,48,20.1,48.4z"/>
			<path class="st65" d="M22.1,47.6c0.2,0.4,0.1,0.9-0.2,1.1c-0.3,0.2-0.8-0.1-1-0.5c-0.2-0.4-0.1-0.9,0.2-1.1
				C21.4,47,21.9,47.2,22.1,47.6z"/>
			<line class="st65" x1="20" y1="48.2" x2="20.8" y2="47.9"/>
		</g>
		<g>
			<path class="st66" d="M699.9,99.9H616c-8.5,0-15.3,6.9-15.3,15.3v5.7l-11.3,8.3l11.3,8.3v11.1c0,8.5,6.9,15.3,15.3,15.3h83.9
				c8.5,0,15.3-6.9,15.3-15.3v-33.4C715.2,106.8,708.4,99.9,699.9,99.9z"/>
			<g>
				<g>
					<polyline class="st67" points="603.2,120.1 603.2,121.4 602,122.3 					"/>
					<line class="st68" x1="599.2" y1="124.3" x2="594.9" y2="127.3"/>
					<polyline class="st67" points="593.5,128.3 592.4,129.1 593.5,129.9 					"/>
					<line class="st68" x1="596.4" y1="131.9" x2="600.6" y2="134.9"/>
					<polyline class="st67" points="602,135.9 603.2,136.7 603.2,138.1 					"/>
					<path class="st69" d="M603.2,140.9v6.4c0,7.8,6.6,14.1,14.7,14.1h80.4c8.1,0,14.7-6.3,14.7-14.1v-31.1
						c0-7.8-6.6-14.1-14.7-14.1h-80.4c-8.1,0-14.7,6.3-14.7,14.1v2.5"/>
				</g>
			</g>
		</g>
		<g>
			<g>
				<path class="st70" d="M637.8,115.9c-0.1,0.2-0.2,0.3-0.3,0.5c1.2,1.3,2.7,2.2,4.4,2.9c-0.2,0.2-0.4,0.5-0.5,0.7
					c-0.6-0.3-1.2-0.6-1.7-0.9v0.7h-5.3v-0.5c-0.5,0.3-1.1,0.6-1.6,0.8c-0.1-0.2-0.3-0.5-0.6-0.7c2-0.8,3.9-2.2,5-3.8L637.8,115.9z
					 M633.8,120.9h6.5v4.1h-0.8v-0.5h-4.9v0.6h-0.8V120.9z M634.6,121.6v2.2h4.9v-2.2H634.6z M639.6,119c-0.9-0.6-1.8-1.2-2.6-2.1
					c-0.7,0.8-1.5,1.5-2.4,2.1H639.6z"/>
				<path class="st70" d="M648,118h-4.3v-0.6h4.3V118z M644.2,118.7h3.4v0.6h-3.4V118.7z M647.6,120.7h-3.4v-0.6h3.4V120.7z
					 M647.6,124.5H645v0.5h-0.7v-3.5h3.3V124.5z M645,122.1v1.7h2v-1.7H645z M645.8,117.2c-0.1-0.4-0.5-1-0.8-1.4l0.6-0.3
					c0.3,0.4,0.7,1,0.8,1.3L645.8,117.2z M653,119.9h-2.2v5.2h-0.8v-5.2H648v-0.8h2.1v-3.4h0.8v3.4h2.2V119.9z"/>
				<path class="st71" d="M633.5,134c0.3-2.3,1.9-4.8,5.9-4.8c3.9,0,5.7,2.4,5.7,4.9c0,2.3-1.4,3.5-2.5,3.9v0.1
					c1.7,0.5,3.3,1.9,3.3,4.7c0,3-1.9,5.9-6.5,5.9c-4.3,0-6.1-2.7-6.4-5.2h2.5c0.4,1.7,1.6,3.1,4,3.1c2.7,0,3.8-1.8,3.8-3.8
					c0-2.5-1.5-3.6-4.1-3.6h-1.3v-2h1.1c2.5,0,3.5-1,3.5-2.9c0-1.7-1.1-2.9-3.2-2.9c-2.2,0-3.1,1.2-3.4,2.7H633.5z"/>
				<path class="st71" d="M648.9,150.5c0.7-1.7,1-3.4,1.1-5h2c-0.2,1.8-0.7,3.9-1.3,5H648.9z"/>
				<path class="st71" d="M653.3,148.3v-0.2c0-2.7,1.8-5.5,5.6-8.4c3-2.3,3.8-3,3.8-5.1c0-1.9-1-3.3-3.2-3.3c-2.3,0-3.3,1.2-3.7,3.5
					h-2.5c0.3-3.2,2.4-5.6,6.2-5.6c4.2,0,5.8,2.7,5.8,5.3c0,2.8-1.2,3.9-4.7,6.6c-2.6,2-4,3.5-4.4,4.9h9.8l-0.4,2.2H653.3z"/>
				<path class="st71" d="M673.4,148.3v-15.8c-0.9,0.7-2.8,1.5-3.9,1.6v-2c1.4-0.4,3.3-1.5,4.5-2.7h1.9v18.8H673.4z"/>
				<path class="st71" d="M693.3,129.6v2.1c-3.3,4.4-6.3,11.2-7.3,16.7h-2.6c0.9-5.3,4.2-12.6,7.2-16.6H681v-2.2H693.3z"/>
				<path class="st70" d="M698.6,139.8c-0.3,0.8-0.6,1.5-1,2.3v7h-0.7v-5.8c-0.3,0.5-0.6,0.9-1,1.2c-0.1-0.2-0.3-0.6-0.4-0.8
					c1-1,1.9-2.6,2.5-4.2L698.6,139.8z M705,145.5h-2.8v3.6h-0.8v-3.6h-3v-0.8h3v-2.3h-1.6c-0.2,0.6-0.5,1.2-0.8,1.6
					c-0.1-0.1-0.5-0.3-0.7-0.4c0.6-0.9,1-2.2,1.3-3.6l0.7,0.2c-0.1,0.5-0.2,1-0.3,1.5h1.4v-2h0.8v2h2.4v0.8h-2.4v2.3h2.8V145.5z"/>
			</g>
		</g>
		<g>
			<polygon class="st72" points="633,97.2 633,93.2 628.3,93.9 			"/>
			<path class="st50" d="M607.2,78l-0.4-1.3c0,0-0.8-1.2-1-1.7c-0.1-0.3-0.6-0.9-0.7-1c-0.1-0.1-0.3,0-0.4,0.1
				c0,0.1,0.2,0.9,0.3,1.2c0.1,0.3,0.3,1.1,0.3,1.1s-1.6-1.5-2.1-2c-0.3-0.3-1.1-1.2-1.3-1c-0.2,0.1,0.6,1.2,0.8,1.5
				c0.2,0.3,0.9,1.3,0.9,1.3s-1.1-1.2-1.5-1.6c-0.3-0.3-1-1.2-1.2-1c-0.2,0.2,0.5,1.1,0.7,1.4c0.3,0.5,1.3,1.8,1.3,1.8
				s-1.2-1.2-1.6-1.6c-0.2-0.2-0.8-1-1-0.8c-0.2,0.2,0.5,0.9,0.7,1.1c0.3,0.4,1.4,1.7,1.4,1.7s-0.9-0.9-1.2-1.1
				c-0.1-0.1-0.5-0.5-0.6-0.3c-0.2,0.2,0.3,0.7,0.5,0.9l1.2,1.6c0.1,0.1,0.2,0.2,0.3,0.3l2.1,2.1L607.2,78z"/>
			<path class="st73" d="M623.3,92.5l-16.1,10.2c-0.5,0.2-0.9,0.5-1.3,0.8c-1.8,1.7-2,4.5-0.3,6.4c1.7,1.8,4.5,2,6.4,0.3l18.6-9.8
				L623.3,92.5z"/>
			<path class="st73" d="M604.4,107.5c0-0.2,0-0.4,0-0.6c0-2.5,2-4.5,4.5-4.5c2.5,0,4.5,2,4.5,4.5l-0.3,20.2h-7.5L604.4,107.5z"/>
			<path class="st52" d="M631.8,100.4l-10.1,12.1c-1.8,2.1-5,2.4-7.1,0.6v0c-2.1-1.8-2.4-5-0.6-7.1l10.1-12.1c1.8-2.1,5-2.4,7.1-0.6
				l0,0C633.3,95.1,633.6,98.3,631.8,100.4z"/>
			<polygon class="st74" points="623.6,73.1 618.8,75.2 619.4,94.7 633,94.9 634.9,73.6 628.5,72.7 			"/>
			<path class="st50" d="M623.6,70.3v3c0,0,0.2,0.7,1.7,0.7c1.5,0,3.2-1,3.2-1l-0.5-6.6L623.6,70.3z"/>
			<polygon class="st55" points="623.6,72.9 626.7,69.6 623.6,69.6 			"/>
			<path class="st50" d="M622.3,64.2c0,0,0,1.9,0,3.2v1.1c0,0.9,0.2,2.1,1.2,2.4c1,0.3,2.3-0.1,3.2-1.1c0.9-1,3-5.6,0.1-7.2
				C624,60.8,622.3,63.7,622.3,64.2z"/>
			<path class="st59" d="M615.8,90.8c-1,0.8-2.5,0.8-3.4,0l0,0l-8.5-9.8l1.2-1.2l2.1-2.3l0.2-0.3l8.8,9.9
				C617.1,88.1,616.9,89.8,615.8,90.8z"/>
			<path class="st52" d="M612.8,108.8c0-2.5,2-4.5,4.5-4.5s3.9,1,4.4,3.5c1.3,5.8,3.9,21.2,3.9,21.2h-7.8l-5-19.6
				C612.8,109.2,612.8,109,612.8,108.8z"/>
			<path class="st59" d="M612.6,90.9L612.6,90.9c1.5,0.8,3.4,0.3,4.3-1.2l5.6-9.9c0.8-1.5,0.3-3.4-1.2-4.3l0,0
				c-1.5-0.8-3.4-0.3-4.3,1.2l-5.6,9.9C610.6,88.1,611.1,90.1,612.6,90.9z"/>
			<path class="st51" d="M626.5,62.4c0,0-3.5-1.6-4.3-0.5c-0.8,1.1,0.5,1.4,0.5,1.4s-1.7-0.2-1.6,0.9s4.2-0.4,4.2-0.4
				s-1.4,0.6-0.6,1.1c0.8,0.5,1.7-0.2,1.7-0.2s0.8,0.4,0.7,2.5c-0.1,2.1,1.1,2.5,1.1,2.5s-0.1-3.1,0.5-4S628.5,61.8,626.5,62.4z"/>
			<g>
				<path class="st50" d="M627,67.7c-0.3,0.5-0.4,0.9,0,1.2c0.4,0.3,1.1,0.2,1.4-0.3c0.3-0.5,0.3-1.2-0.1-1.4
					C627.9,66.8,627.3,67.2,627,67.7z"/>
				<path class="st75" d="M628.1,67.7c0,0-0.4-0.1-0.7,0.5c0,0,0.3-0.1,0.6,0"/>
			</g>
			<path class="st57" d="M624.9,66.6c0,0.2-0.1,0.4-0.2,0.4s-0.2-0.2-0.2-0.4c0-0.2,0.1-0.4,0.2-0.4S624.9,66.4,624.9,66.6z"/>
			<path class="st76" d="M624.7,68.9c0,0-0.3,0.7-1.2,0.5"/>
			<path class="st76" d="M623.9,66.7l-0.4,1.3c0,0.1,0,0.3,0.1,0.3l0.4,0.2"/>
			<path class="st76" d="M625.2,66c0,0-0.5-0.3-1-0.1"/>
			<path class="st57" d="M622.4,66.6c0,0.2,0.1,0.4,0.2,0.4c0.1,0,0.2-0.2,0.2-0.4c0-0.2-0.1-0.4-0.2-0.4
				C622.5,66.2,622.4,66.4,622.4,66.6z"/>
			<path class="st76" d="M622.2,66c0,0,0.3-0.3,0.8-0.1"/>
			<path class="st59" d="M637.8,90.8L637.8,90.8c1.7-0.4,2.7-2.1,2.2-3.8l-2.9-11.1c-0.4-1.7-2.1-2.7-3.8-2.2l0,0
				c-1.7,0.4-2.7,2.1-2.2,3.8l2.9,11.1C634.5,90.2,636.2,91.2,637.8,90.8z"/>
			<path class="st50" d="M642,99.3l3.7-2.3l0,0c0.6,1,2.6,3,3.4,3.8c0.2,0.2,0.2,0.4,0.1,0.6l-0.9,2.1c-0.1,0.3-0.4,0.6-0.7,0.7
				l-1.4,0.5c-0.1,0-0.3-0.1-0.3-0.2l0.3-1.2c0-0.2,0-0.3-0.2-0.4l-1.4-0.6l1.2,1.9c0.1,0.1,0,0.2-0.1,0.3l-0.1,0.1
				c-0.1,0.1-0.2,0.1-0.3,0l-2.5-2.9L642,99.3C642.1,99.4,642,99.4,642,99.3z"/>
			<path class="st55" d="M624.5,67.9c0.1,0.2,0.4,0.2,0.8,0.1c0.4-0.1,0.6-0.4,0.5-0.6s-0.4-0.2-0.8-0.1
				C624.7,67.5,624.4,67.7,624.5,67.9z"/>
			<path class="st55" d="M622.3,67.4v0.7c0.3,0,0.5,0,0.6-0.2C622.9,67.7,622.6,67.5,622.3,67.4z"/>
			<polygon class="st50" points="612.2,130.1 612.4,127.1 606.2,127.1 606.1,130.1 			"/>
			<polygon class="st55" points="606.2,128.9 612.4,127.1 606.2,127.1 			"/>
			<polygon class="st50" points="625.7,132 625.2,129 619.2,129 620,132 			"/>
			<polygon class="st77" points="624.4,74.5 625.6,74.5 625.7,74.7 625.1,75.1 624.7,75.1 624.3,74.7 			"/>
			<polygon class="st55" points="619.6,130.5 625.2,129 619.2,129 			"/>
			<path class="st59" d="M635.2,84.4c1.4-1,3.2-0.8,4,0.5l7.3,12l-5.1,3.2l-7.3-11.1C633.3,87.7,633.9,85.4,635.2,84.4z"/>
			<polygon class="st16" points="628.4,72.7 625,74 625.6,75.4 628.6,73 			"/>
			<polygon class="st16" points="623.6,73.1 623.4,73.4 624.3,75.3 625,74 			"/>
			<polygon class="st77" points="624.7,75.1 623.1,87.9 624.3,89.6 626,88.1 625.1,75.1 			"/>
			<line class="st76" x1="632" y1="81.4" x2="633.8" y2="89"/>
			<line class="st76" x1="619.1" y1="86" x2="619" y2="81.4"/>
			<path class="st78" d="M625.7,132l0.5,2.2h-8l0,0c-0.3-1.1,0.6-2.2,1.8-2.2h0H625.7z"/>
			<path class="st78" d="M612.2,130.1v2.4h-8.4l0-0.2c0.1-1.2,1.1-2.2,2.3-2.2l0,0H612.2z"/>
			<path class="st79" d="M606,130.6c0,0-0.2-0.8-0.6-0.6C604.9,130.2,606,130.6,606,130.6l-0.7,0.5"/>
			<path class="st79" d="M606,130.6c0,0,0.2-0.8,0.6-0.6S606.1,130.6,606,130.6l0.7,0.5"/>
			<path class="st79" d="M620,132.6c0,0-0.2-0.8-0.6-0.6C618.9,132.2,620,132.6,620,132.6l-0.7,0.5"/>
			<path class="st79" d="M620,132.6c0,0,0.2-0.8,0.6-0.6C621.1,132.2,620,132.6,620,132.6l0.7,0.5"/>
			<path class="st59" d="M623.1,73.3c0,0-0.3,3.4-0.9,8.6c-0.5,5.2-0.5,13.2-2.2,14.8c0,0-1.7,0.1-5.2,1.2c0,0,1-3.3,2.2-5.1
				c1.2-1.9,1.8-17.5,1.8-17.5L623.1,73.3z"/>
			<polygon class="st74" points="622.8,76.2 622.4,80.2 623.7,79.1 623.6,76.3 			"/>
			<path class="st59" d="M629.7,72.9c0,0-1.3,5.8-2,10.9c-0.6,5.1-0.4,10.1-2,13.1c0,0,6.5,1.2,6.5,3.8c0,0,1.8-2,1.8-4.8
				c0-2.8,0.9-22.3,0.9-22.3L629.7,72.9z"/>
			<line class="st80" x1="617.9" y1="87.9" x2="618.8" y2="83.4"/>
			<line class="st80" x1="634" y1="88.5" x2="632.9" y2="83.4"/>
		</g>
		<g>
			<g>
				<line class="st81" x1="70.3" y1="137.6" x2="326.1" y2="137.6"/>
				<g>
					<g>
						<line class="st81" x1="70.3" y1="137.6" x2="70.3" y2="135.1"/>
						<line class="st81" x1="98.8" y1="137.6" x2="98.8" y2="135.1"/>
						<line class="st81" x1="127.2" y1="137.6" x2="127.2" y2="135.1"/>
						<line class="st81" x1="155.6" y1="137.6" x2="155.6" y2="135.1"/>
						<line class="st81" x1="184" y1="137.6" x2="184" y2="135.1"/>
						<line class="st81" x1="212.4" y1="137.6" x2="212.4" y2="135.1"/>
						<g>
							<g>
								<line class="st81" x1="240.8" y1="137.6" x2="240.8" y2="137"/>
								<line class="st82" x1="240.8" y1="137" x2="240.8" y2="136.9"/>
								<line class="st83" x1="240.8" y1="135.9" x2="240.8" y2="36.4"/>
								<line class="st81" x1="240.8" y1="36.4" x2="240.8" y2="35.8"/>
							</g>
						</g>
						<line class="st81" x1="269.2" y1="137.6" x2="269.2" y2="135.1"/>
						<line class="st81" x1="297.6" y1="137.6" x2="297.6" y2="135.1"/>
						<polyline class="st81" points="326.1,135.1 326.1,137.6 494.1,137.6 575.3,137.6 						"/>
					</g>
					<g>
					</g>
				</g>
			</g>
			<g>
				<g>
					<g>
						<g>
							<g>
								<path class="st84" d="M65.9,138.4c0,1.3-0.4,2.8-1.8,2.8c-1.4,0-1.8-1.4-1.8-2.7c0-1.3,0.4-2.7,1.9-2.7
									C65.5,135.7,65.9,137.1,65.9,138.4z M63,138.4c0,1,0.2,2.1,1.1,2.1c0.9,0,1.1-1.1,1.1-2.2c0-1-0.2-2.1-1.1-2.1
									C63.2,136.3,63,137.3,63,138.4z"/>
							</g>
						</g>
					</g>
					<g>
						<g>
							<g>
								<path class="st84" d="M61.2,116.6H59c0,0.4-0.2,1.2-0.2,1.5c0.2-0.2,0.6-0.4,1.1-0.4c1,0,1.6,0.7,1.6,1.7
									c0,1-0.5,1.9-1.8,1.9c-0.9,0-1.6-0.5-1.8-1.4h0.7c0.1,0.5,0.5,0.8,1.1,0.8c0.7,0,1.1-0.5,1.1-1.3c0-0.7-0.3-1.2-1-1.2
									c-0.6,0-0.9,0.3-1.1,0.7l-0.7-0.1c0.2-0.7,0.4-2.2,0.4-2.9h2.9L61.2,116.6z"/>
								<path class="st84" d="M65.9,118.6c0,1.3-0.4,2.8-1.8,2.8c-1.4,0-1.8-1.4-1.8-2.7c0-1.3,0.4-2.7,1.9-2.7
									C65.5,115.9,65.9,117.2,65.9,118.6z M63,118.6c0,1,0.2,2.1,1.1,2.1c0.9,0,1.1-1.1,1.1-2.2c0-1-0.2-2.1-1.1-2.1
									C63.2,116.5,63,117.5,63,118.6z"/>
							</g>
						</g>
					</g>
					<g>
						<g>
							<g>
								<path class="st84" d="M55.8,101.4V97c-0.3,0.2-0.8,0.4-1.1,0.5v-0.6c0.4-0.1,0.9-0.4,1.3-0.8h0.5v5.3H55.8z"/>
								<path class="st84" d="M61.4,98.8c0,1.3-0.4,2.8-1.8,2.8c-1.4,0-1.8-1.4-1.8-2.7c0-1.3,0.4-2.7,1.9-2.7
									C61,96.1,61.4,97.4,61.4,98.8z M58.5,98.8c0,1,0.2,2.1,1.1,2.1c0.9,0,1.1-1.1,1.1-2.2c0-1-0.2-2.1-1.1-2.1
									C58.7,96.7,58.5,97.7,58.5,98.8z"/>
								<path class="st84" d="M65.9,98.8c0,1.3-0.4,2.8-1.8,2.8c-1.4,0-1.8-1.4-1.8-2.7c0-1.3,0.4-2.7,1.9-2.7
									C65.5,96.1,65.9,97.4,65.9,98.8z M63,98.8c0,1,0.2,2.1,1.1,2.1c0.9,0,1.1-1.1,1.1-2.2c0-1-0.2-2.1-1.1-2.1
									C63.2,96.7,63,97.7,63,98.8z"/>
							</g>
						</g>
					</g>
					<g>
						<g>
							<g>
								<path class="st84" d="M56,81.6v-4.4c-0.3,0.2-0.8,0.4-1.1,0.5v-0.6c0.4-0.1,0.9-0.4,1.3-0.8h0.5v5.3H56z"/>
								<path class="st84" d="M61.2,77H59c0,0.4-0.2,1.2-0.2,1.5c0.2-0.2,0.6-0.4,1.1-0.4c1,0,1.6,0.7,1.6,1.7c0,1-0.5,1.9-1.8,1.9
									c-0.9,0-1.6-0.5-1.8-1.4h0.7c0.1,0.5,0.5,0.8,1.1,0.8c0.7,0,1.1-0.5,1.1-1.3c0-0.7-0.3-1.2-1-1.2c-0.6,0-0.9,0.3-1.1,0.7
									L58,79.2c0.2-0.7,0.4-2.2,0.4-2.9h2.9L61.2,77z"/>
								<path class="st84" d="M65.9,79c0,1.3-0.4,2.8-1.8,2.8c-1.4,0-1.8-1.4-1.8-2.7c0-1.3,0.4-2.7,1.9-2.7
									C65.5,76.3,65.9,77.6,65.9,79z M63,79c0,1,0.2,2.1,1.1,2.1c0.9,0,1.1-1.1,1.1-2.2c0-1-0.2-2.1-1.1-2.1
									C63.2,76.9,63,77.8,63,79z"/>
							</g>
						</g>
					</g>
					<g>
						<g>
							<g>
								<path class="st84" d="M53.5,61.8L53.5,61.8c0-0.8,0.5-1.6,1.6-2.4c0.8-0.6,1.1-0.8,1.1-1.4c0-0.5-0.3-0.9-0.9-0.9
									c-0.6,0-0.9,0.3-1,1h-0.7c0.1-0.9,0.7-1.6,1.7-1.6c1.2,0,1.6,0.8,1.6,1.5c0,0.8-0.3,1.1-1.3,1.9c-0.7,0.6-1.1,1-1.2,1.4h2.8
									L57,61.8H53.5z"/>
								<path class="st84" d="M61.4,59.1c0,1.3-0.4,2.8-1.8,2.8c-1.4,0-1.8-1.4-1.8-2.7c0-1.3,0.4-2.7,1.9-2.7
									C61,56.4,61.4,57.8,61.4,59.1z M58.5,59.2c0,1,0.2,2.1,1.1,2.1c0.9,0,1.1-1.1,1.1-2.2c0-1-0.2-2.1-1.1-2.1
									C58.7,57,58.5,58,58.5,59.2z"/>
								<path class="st84" d="M65.9,59.1c0,1.3-0.4,2.8-1.8,2.8c-1.4,0-1.8-1.4-1.8-2.7c0-1.3,0.4-2.7,1.9-2.7
									C65.5,56.4,65.9,57.8,65.9,59.1z M63,59.2c0,1,0.2,2.1,1.1,2.1c0.9,0,1.1-1.1,1.1-2.2c0-1-0.2-2.1-1.1-2.1
									C63.2,57,63,58,63,59.2z"/>
							</g>
						</g>
					</g>
					<g>
						<g>
							<g>
								<path class="st84" d="M53.7,42L53.7,42c0-0.8,0.5-1.6,1.6-2.4c0.8-0.6,1.1-0.8,1.1-1.4c0-0.5-0.3-0.9-0.9-0.9
									c-0.6,0-0.9,0.3-1,1h-0.7c0.1-0.9,0.7-1.6,1.7-1.6c1.2,0,1.6,0.8,1.6,1.5c0,0.8-0.3,1.1-1.3,1.9c-0.7,0.6-1.1,1-1.2,1.4h2.8
									L57.2,42H53.7z"/>
								<path class="st84" d="M61.2,37.3H59c0,0.4-0.2,1.2-0.2,1.5c0.2-0.2,0.6-0.4,1.1-0.4c1,0,1.6,0.7,1.6,1.7
									c0,1-0.5,1.9-1.8,1.9c-0.9,0-1.6-0.5-1.8-1.4h0.7c0.1,0.5,0.5,0.8,1.1,0.8c0.7,0,1.1-0.5,1.1-1.3c0-0.7-0.3-1.2-1-1.2
									c-0.6,0-0.9,0.3-1.1,0.7L58,39.6c0.2-0.7,0.4-2.2,0.4-2.9h2.9L61.2,37.3z"/>
								<path class="st84" d="M65.9,39.3c0,1.3-0.4,2.8-1.8,2.8c-1.4,0-1.8-1.4-1.8-2.7c0-1.3,0.4-2.7,1.9-2.7
									C65.5,36.6,65.9,38,65.9,39.3z M63,39.4c0,1,0.2,2.1,1.1,2.1c0.9,0,1.1-1.1,1.1-2.2c0-1-0.2-2.1-1.1-2.1
									C63.2,37.2,63,38.2,63,39.4z"/>
							</g>
						</g>
					</g>
				</g>
				<line class="st81" x1="70.3" y1="137.6" x2="70.3" y2="38.5"/>
				<g>
					<g>
						<line class="st81" x1="70.3" y1="137.6" x2="76.7" y2="137.6"/>
						<line class="st81" x1="70.3" y1="117.8" x2="76.7" y2="117.8"/>
						<line class="st81" x1="70.3" y1="98" x2="76.7" y2="98"/>
						<line class="st81" x1="70.3" y1="78.1" x2="76.7" y2="78.1"/>
						<line class="st81" x1="70.3" y1="58.3" x2="76.7" y2="58.3"/>
						<line class="st81" x1="70.3" y1="38.5" x2="76.7" y2="38.5"/>
					</g>
					<g>
					</g>
				</g>
			</g>
			<g>
				<g>
					<g>
						<line class="st85" x1="113" y1="98.4" x2="84.5" y2="136"/>
						<line class="st85" x1="141.4" y1="90.4" x2="113" y2="98.4"/>
						<line class="st85" x1="169.8" y1="92.4" x2="141.4" y2="90.4"/>
						<line class="st85" x1="198.2" y1="74.2" x2="169.8" y2="92.4"/>
						<line class="st85" x1="226.6" y1="55.5" x2="198.2" y2="74.2"/>
						<line class="st85" x1="255" y1="77.7" x2="226.6" y2="55.5"/>
						<line class="st85" x1="283.4" y1="97.2" x2="255" y2="77.7"/>
						<polyline class="st85" points="283.4,97.2 311.9,51.6 345.8,65.3 375.6,43.5 394.7,69 417.9,45.6 449.2,45.6 471.8,63.7 
							498.8,72.8 524.6,41.5 550.5,19.8 						"/>
					</g>
				</g>
			</g>
			<g>
				<g>
					<g>
						<rect x="82.7" y="133" class="st86" width="6" height="6"/>
						<rect x="111.2" y="95.4" class="st86" width="6" height="6"/>
						<rect x="138.4" y="87.4" class="st86" width="6" height="6"/>
						<rect x="166.8" y="89.4" class="st86" width="6" height="6"/>
						<rect x="195.2" y="71.2" class="st86" width="6" height="6"/>
						<rect x="223.6" y="52.5" class="st86" width="6" height="6"/>
						<rect x="252" y="74.7" class="st86" width="6" height="6"/>
						<rect x="280.4" y="94.2" class="st86" width="6" height="6"/>
						<rect x="308.9" y="48.6" class="st86" width="6" height="6"/>
					</g>
				</g>
			</g>
			<g>
				<g>
					<g>
						<g>
							<path class="st84" d="M306.2,143.5c0.1-0.6,0.5-1.3,1.7-1.3c1.1,0,1.6,0.7,1.6,1.4c0,0.6-0.4,1-0.7,1.1v0
								c0.5,0.2,0.9,0.5,0.9,1.3c0,0.8-0.5,1.7-1.8,1.7c-1.2,0-1.7-0.8-1.8-1.5h0.7c0.1,0.5,0.5,0.9,1.1,0.9c0.8,0,1.1-0.5,1.1-1.1
								c0-0.7-0.4-1-1.1-1h-0.4v-0.6h0.3c0.7,0,1-0.3,1-0.8c0-0.5-0.3-0.8-0.9-0.8c-0.6,0-0.9,0.3-1,0.8H306.2z"/>
							<path class="st84" d="M316.6,147.3c0,0.4-0.1,0.6-0.4,0.7c-0.3,0.1-0.8,0.1-1.7,0.1c0-0.2-0.2-0.4-0.3-0.6c0.7,0,1.3,0,1.5,0
								c0.2,0,0.2-0.1,0.2-0.2v-1.6h-3.8c-0.2,0.9-0.6,1.8-1.4,2.5c-0.1-0.1-0.3-0.3-0.4-0.4c1.3-1.1,1.4-2.7,1.4-4v-2.4h4.9V147.3z
								 M316,145.1v-1.3h-3.7c0,0.4,0,0.9-0.1,1.3H316z M312.3,141.8v1.3h3.7v-1.3H312.3z"/>
						</g>
					</g>
				</g>
				<g>
					<g>
						<g>
							<path class="st84" d="M277.7,147.5L277.7,147.5c0-0.8,0.5-1.6,1.6-2.4c0.8-0.6,1.1-0.8,1.1-1.4c0-0.5-0.3-0.9-0.9-0.9
								c-0.6,0-0.9,0.3-1,1h-0.7c0.1-0.9,0.7-1.6,1.7-1.6c1.2,0,1.6,0.8,1.6,1.5c0,0.8-0.3,1.1-1.3,1.9c-0.7,0.6-1.1,1-1.2,1.4h2.8
								l-0.1,0.6H277.7z"/>
							<path class="st84" d="M288.1,147.3c0,0.4-0.1,0.6-0.4,0.7c-0.3,0.1-0.8,0.1-1.7,0.1c0-0.2-0.2-0.4-0.3-0.6c0.7,0,1.3,0,1.5,0
								c0.2,0,0.2-0.1,0.2-0.2v-1.6h-3.8c-0.2,0.9-0.6,1.8-1.4,2.5c-0.1-0.1-0.3-0.3-0.4-0.4c1.3-1.1,1.4-2.7,1.4-4v-2.4h4.9V147.3z
								 M287.5,145.1v-1.3h-3.7c0,0.4,0,0.9-0.1,1.3H287.5z M283.8,141.8v1.3h3.7v-1.3H283.8z"/>
						</g>
					</g>
				</g>
				<g>
					<g>
						<g>
							<path class="st84" d="M251,147.5v-4.4c-0.3,0.2-0.8,0.4-1.1,0.5V143c0.4-0.1,0.9-0.4,1.3-0.8h0.5v5.3H251z"/>
							<path class="st84" d="M259,147.3c0,0.4-0.1,0.6-0.4,0.7c-0.3,0.1-0.8,0.1-1.7,0.1c0-0.2-0.2-0.4-0.3-0.6c0.7,0,1.3,0,1.5,0
								c0.2,0,0.2-0.1,0.2-0.2v-1.6h-3.8c-0.2,0.9-0.6,1.8-1.4,2.5c-0.1-0.1-0.3-0.3-0.4-0.4c1.3-1.1,1.4-2.7,1.4-4v-2.4h4.9V147.3z
								 M258.4,145.1v-1.3h-3.7c0,0.4,0,0.9-0.1,1.3H258.4z M254.8,141.8v1.3h3.7v-1.3H254.8z"/>
						</g>
					</g>
				</g>
				<g>
					<g>
						<g>
							<path class="st84" d="M220.4,147.5v-4.4c-0.3,0.2-0.8,0.4-1.1,0.5V143c0.4-0.1,0.9-0.4,1.3-0.8h0.5v5.3H220.4z"/>
							<path class="st84" d="M222.3,147.5L222.3,147.5c0-0.8,0.5-1.6,1.6-2.4c0.8-0.6,1.1-0.8,1.1-1.4c0-0.5-0.3-0.9-0.9-0.9
								c-0.6,0-0.9,0.3-1,1h-0.7c0.1-0.9,0.7-1.6,1.7-1.6c1.2,0,1.6,0.8,1.6,1.5c0,0.8-0.3,1.1-1.3,1.9c-0.7,0.6-1.1,1-1.2,1.4h2.8
								l-0.1,0.6H222.3z"/>
							<path class="st84" d="M232.7,147.3c0,0.4-0.1,0.6-0.4,0.7c-0.3,0.1-0.8,0.1-1.7,0.1c0-0.2-0.2-0.4-0.3-0.6c0.7,0,1.3,0,1.5,0
								c0.2,0,0.2-0.1,0.2-0.2v-1.6h-3.8c-0.2,0.9-0.6,1.8-1.4,2.5c-0.1-0.1-0.3-0.3-0.4-0.4c1.3-1.1,1.4-2.7,1.4-4v-2.4h4.9V147.3z
								 M232.1,145.1v-1.3h-3.7c0,0.4,0,0.9-0.1,1.3H232.1z M228.5,141.8v1.3h3.7v-1.3H228.5z"/>
						</g>
					</g>
				</g>
				<g>
					<g>
						<g>
							<path class="st84" d="M192.8,147.5v-4.4c-0.3,0.2-0.8,0.4-1.1,0.5V143c0.4-0.1,0.9-0.4,1.3-0.8h0.5v5.3H192.8z"/>
							<path class="st84" d="M195.5,147.5v-4.4c-0.3,0.2-0.8,0.4-1.1,0.5V143c0.4-0.1,0.9-0.4,1.3-0.8h0.5v5.3H195.5z"/>
							<path class="st84" d="M203.6,147.3c0,0.4-0.1,0.6-0.4,0.7c-0.3,0.1-0.8,0.1-1.7,0.1c0-0.2-0.2-0.4-0.3-0.6c0.7,0,1.3,0,1.5,0
								c0.2,0,0.2-0.1,0.2-0.2v-1.6h-3.8c-0.2,0.9-0.6,1.8-1.4,2.5c-0.1-0.1-0.3-0.3-0.4-0.4c1.3-1.1,1.4-2.7,1.4-4v-2.4h4.9V147.3z
								 M203,145.1v-1.3h-3.7c0,0.4,0,0.9-0.1,1.3H203z M199.3,141.8v1.3h3.7v-1.3H199.3z"/>
						</g>
					</g>
				</g>
				<g>
					<g>
						<g>
							<path class="st84" d="M163.5,147.5v-4.4c-0.3,0.2-0.8,0.4-1.1,0.5V143c0.4-0.1,0.9-0.4,1.3-0.8h0.5v5.3H163.5z"/>
							<path class="st84" d="M169.1,144.9c0,1.3-0.4,2.8-1.8,2.8c-1.4,0-1.8-1.4-1.8-2.7c0-1.3,0.4-2.7,1.9-2.7
								C168.7,142.2,169.1,143.5,169.1,144.9z M166.2,144.9c0,1,0.2,2.1,1.1,2.1c0.9,0,1.1-1.1,1.1-2.2c0-1-0.2-2.1-1.1-2.1
								C166.4,142.8,166.2,143.7,166.2,144.9z"/>
							<path class="st84" d="M176,147.3c0,0.4-0.1,0.6-0.4,0.7c-0.3,0.1-0.8,0.1-1.7,0.1c0-0.2-0.2-0.4-0.3-0.6c0.7,0,1.3,0,1.5,0
								c0.2,0,0.2-0.1,0.2-0.2v-1.6h-3.8c-0.2,0.9-0.6,1.8-1.4,2.5c-0.1-0.1-0.3-0.3-0.4-0.4c1.3-1.1,1.4-2.7,1.4-4v-2.4h4.9V147.3z
								 M175.4,145.1v-1.3h-3.7c0,0.4,0,0.9-0.1,1.3H175.4z M171.8,141.8v1.3h3.7v-1.3H171.8z"/>
						</g>
					</g>
				</g>
				<g>
					<g>
						<g>
							<path class="st84" d="M136.4,146.4c0.2,0.4,0.4,0.7,0.9,0.7c1,0,1.1-1.4,1.1-2c-0.2,0.4-0.7,0.6-1.3,0.6
								c-1,0-1.6-0.7-1.6-1.7c0-1,0.6-1.8,1.8-1.8c1.3,0,1.8,1,1.8,2.4c0,1.4-0.3,3-1.9,3c-1.1,0-1.5-0.6-1.6-1.2H136.4z
								 M136.3,143.9c0,0.7,0.4,1.1,1,1.1c0.7,0,1.1-0.4,1.1-1.1c0-0.3-0.1-1.2-1-1.2C136.6,142.8,136.3,143.3,136.3,143.9z"/>
							<path class="st84" d="M146.1,147.3c0,0.4-0.1,0.6-0.4,0.7c-0.3,0.1-0.8,0.1-1.7,0.1c0-0.2-0.2-0.4-0.3-0.6c0.7,0,1.3,0,1.5,0
								c0.2,0,0.2-0.1,0.2-0.2v-1.6h-3.8c-0.2,0.9-0.6,1.8-1.4,2.5c-0.1-0.1-0.3-0.3-0.4-0.4c1.3-1.1,1.4-2.7,1.4-4v-2.4h4.9V147.3z
								 M145.5,145.1v-1.3h-3.7c0,0.4,0,0.9-0.1,1.3H145.5z M141.8,141.8v1.3h3.7v-1.3H141.8z"/>
						</g>
					</g>
				</g>
				<g>
					<g>
						<g>
							<path class="st84" d="M107.1,146c0-0.7,0.5-1.2,1-1.3c-0.5-0.2-0.7-0.6-0.7-1.1c0-0.8,0.6-1.4,1.7-1.4c1,0,1.6,0.6,1.6,1.4
								c0,0.6-0.3,0.9-0.7,1.1c0.5,0.2,0.9,0.7,0.9,1.4c0,1-0.8,1.6-1.9,1.6C107.9,147.6,107.1,147,107.1,146z M110.1,146
								c0-0.7-0.4-1-1.1-1c-0.8,0-1.1,0.4-1.1,1c0,0.6,0.4,1,1.1,1C109.6,147,110.1,146.7,110.1,146z M108,143.6
								c0,0.4,0.3,0.8,1,0.8c0.6,0,0.9-0.3,0.9-0.8c0-0.5-0.3-0.8-0.9-0.8C108.3,142.7,108,143.1,108,143.6z"/>
							<path class="st84" d="M117.7,147.3c0,0.4-0.1,0.6-0.4,0.7c-0.3,0.1-0.8,0.1-1.7,0.1c0-0.2-0.2-0.4-0.3-0.6c0.7,0,1.3,0,1.5,0
								c0.2,0,0.2-0.1,0.2-0.2v-1.6h-3.8c-0.2,0.9-0.6,1.8-1.4,2.5c-0.1-0.1-0.3-0.3-0.4-0.4c1.3-1.1,1.4-2.7,1.4-4v-2.4h4.9V147.3z
								 M117.1,145.1v-1.3h-3.7c0,0.4,0,0.9-0.1,1.3H117.1z M113.4,141.8v1.3h3.7v-1.3H113.4z"/>
						</g>
					</g>
				</g>
				<g>
					<g>
						<g>
							<path class="st84" d="M82.3,142.3v0.6c-0.9,1.2-1.8,3.1-2,4.7h-0.7c0.2-1.5,1.2-3.5,2-4.6h-2.7v-0.6H82.3z"/>
							<path class="st84" d="M89,147.3c0,0.4-0.1,0.6-0.4,0.7c-0.3,0.1-0.8,0.1-1.7,0.1c0-0.2-0.2-0.4-0.3-0.6c0.7,0,1.3,0,1.5,0
								c0.2,0,0.2-0.1,0.2-0.2v-1.6h-3.8c-0.2,0.9-0.6,1.8-1.4,2.5c-0.1-0.1-0.3-0.3-0.4-0.4c1.3-1.1,1.4-2.7,1.4-4v-2.4H89V147.3z
								 M88.4,145.1v-1.3h-3.7c0,0.4,0,0.9-0.1,1.3H88.4z M84.7,141.8v1.3h3.7v-1.3H84.7z"/>
						</g>
					</g>
				</g>
			</g>
		</g>
		<rect x="341.8" y="60.8" class="st86" width="6.8" height="6.8"/>
		<rect x="371.8" y="40.3" class="st86" width="6.8" height="6.8"/>
		<rect x="391.3" y="65.4" class="st86" width="6.8" height="6.8"/>
		<rect x="414.6" y="42.2" class="st86" width="6.8" height="6.8"/>
		<rect x="445.7" y="42.2" class="st86" width="6.8" height="6.8"/>
		<rect x="468.3" y="60.1" class="st86" width="6.8" height="6.8"/>
		<rect x="495.2" y="68.8" class="st86" width="6.8" height="6.8"/>
		<rect x="521.1" y="37.9" class="st86" width="6.8" height="6.8"/>
		<rect x="547.2" y="16.6" class="st86" width="6.8" height="6.8"/>
		<g>
			<g>
				<path class="st87" d="M85.2,125.4v-2.3h-4.2v-1.2l4.1-5.6h1.5v5.7h1.2l-0.1,1.1h-1v2.3H85.2z M85.2,119.8c0-0.8,0-1.6,0-2.2
					c-0.4,0.7-2,3-3,4.3h2.9V119.8z"/>
			</g>
		</g>
		<g>
			<g>
				<path class="st87" d="M105,85.8c0.2,0.7,0.7,1.1,1.5,1.1c1.7,0,1.8-2.2,1.9-3.3c-0.4,0.7-1.2,1-2.1,1c-1.7,0-2.8-1.2-2.8-2.9
					c0-1.7,1.1-3.1,3.1-3.1c2.3,0,3.2,1.8,3.2,4.2c0,2.4-0.5,5.2-3.3,5.2c-1.9,0-2.7-1.1-2.9-2.2H105z M104.9,81.6
					c0,1.1,0.6,1.8,1.7,1.8c1.2,0,1.7-0.6,1.7-1.8c0-0.6-0.2-1.9-1.7-1.9C105.4,79.7,104.9,80.5,104.9,81.6z"/>
				<path class="st87" d="M112.6,85.8c0.2,0.7,0.7,1.1,1.5,1.1c1.7,0,1.8-2.2,1.9-3.3c-0.4,0.7-1.2,1-2.1,1c-1.7,0-2.8-1.2-2.8-2.9
					c0-1.7,1.1-3.1,3.1-3.1c2.3,0,3.2,1.8,3.2,4.2c0,2.4-0.5,5.2-3.3,5.2c-1.9,0-2.7-1.1-2.9-2.2H112.6z M112.4,81.6
					c0,1.1,0.6,1.8,1.7,1.8c1.2,0,1.7-0.6,1.7-1.8c0-0.6-0.2-1.9-1.7-1.9C113,79.7,112.4,80.5,112.4,81.6z"/>
			</g>
		</g>
		<g>
			<g>
				<path class="st87" d="M133,82.4v-7.5c-0.4,0.3-1.3,0.6-1.8,0.7v-1.1c0.7-0.2,1.6-0.7,2.2-1.3h1v9.1H133z"/>
				<path class="st87" d="M137.9,82.4v-7.5c-0.4,0.3-1.3,0.6-1.8,0.7v-1.1c0.7-0.2,1.6-0.7,2.2-1.3h1v9.1H137.9z"/>
				<path class="st87" d="M142.7,80.3c0.2,0.7,0.7,1.1,1.5,1.1c1.7,0,1.8-2.2,1.9-3.3c-0.4,0.7-1.2,1-2.1,1c-1.7,0-2.8-1.2-2.8-2.9
					c0-1.7,1.1-3.1,3.1-3.1c2.3,0,3.2,1.8,3.2,4.2c0,2.4-0.5,5.2-3.3,5.2c-1.9,0-2.7-1.1-2.9-2.2H142.7z M142.6,76.1
					c0,1.1,0.6,1.8,1.7,1.8c1.2,0,1.7-0.6,1.7-1.8c0-0.6-0.2-1.9-1.7-1.9C143.1,74.3,142.6,75.1,142.6,76.1z"/>
			</g>
		</g>
		<g>
			<g>
				<path class="st87" d="M160.8,82.5v-7.5c-0.4,0.3-1.3,0.6-1.8,0.7v-1.1c0.7-0.2,1.6-0.7,2.2-1.3h1v9.1H160.8z"/>
				<path class="st87" d="M165.7,82.5v-7.5c-0.4,0.3-1.3,0.6-1.8,0.7v-1.1c0.7-0.2,1.6-0.7,2.2-1.3h1v9.1H165.7z"/>
				<path class="st87" d="M173.2,82.5v-2.3h-4.2V79l4.1-5.6h1.5v5.7h1.2l-0.1,1.1h-1v2.3H173.2z M173.2,76.9c0-0.8,0-1.6,0-2.2
					c-0.4,0.7-2,3-3,4.3h2.9V76.9z"/>
			</g>
		</g>
		<g>
			<g>
				<path class="st87" d="M187.6,65.1v-7.5c-0.4,0.3-1.3,0.6-1.8,0.7v-1.1c0.7-0.2,1.6-0.7,2.2-1.3h1v9.1H187.6z"/>
				<path class="st87" d="M195.8,58.1c-0.2-0.6-0.6-1.1-1.5-1.1c-1.5,0-1.9,1.4-2,3.2c0.4-0.6,1-1.2,2.3-1.2c1.7,0,2.8,1.3,2.8,3
					c0,1.8-1.1,3.3-3.1,3.3c-2.5,0-3.3-2-3.3-4.6c0-2.5,0.8-4.8,3.4-4.8c1.9,0,2.6,1.2,2.7,2.2H195.8z M196,62.1c0-1-0.4-2-1.7-2
					c-1.1,0-1.8,0.7-1.8,2c0,0.7,0.4,2.1,1.8,2.1C195.5,64.2,196,63.2,196,62.1z"/>
				<path class="st87" d="M205.2,60.5c0,2.3-0.7,4.8-3.2,4.8c-2.5,0-3.2-2.3-3.2-4.7c0-2.4,0.8-4.7,3.3-4.7
					C204.5,55.9,205.2,58.1,205.2,60.5z M200.2,60.6c0,1.7,0.3,3.6,1.8,3.6c1.5,0,1.8-1.8,1.8-3.6c0-1.8-0.3-3.5-1.8-3.5
					C200.5,57,200.2,58.6,200.2,60.6z"/>
			</g>
		</g>
		<g>
			<g>
				<path class="st87" d="M252.6,68.8v-7.5c-0.4,0.3-1.3,0.6-1.8,0.7V61c0.7-0.2,1.6-0.7,2.2-1.3h1v9.1H252.6z"/>
				<path class="st87" d="M261.9,60.9h-3.8c-0.1,0.7-0.3,2-0.4,2.4c0.4-0.4,1-0.7,1.9-0.7c1.7,0,2.7,1.2,2.7,3
					c0,1.8-0.9,3.3-3.2,3.3c-1.7,0-2.9-0.9-3.1-2.5h1.4c0.2,0.8,0.8,1.4,1.8,1.4c1.2,0,1.8-0.8,1.8-2.1c0-1.1-0.5-2-1.7-2
					c-1,0-1.5,0.4-1.8,1.1l-1.3-0.2c0.3-1.2,0.6-3.8,0.8-5h5.1L261.9,60.9z"/>
				<path class="st87" d="M265.3,68.8v-7.5c-0.4,0.3-1.3,0.6-1.8,0.7V61c0.7-0.2,1.6-0.7,2.2-1.3h1v9.1H265.3z"/>
			</g>
		</g>
		<g>
			<g>
				<path class="st87" d="M276.4,116.3v-7.5c-0.4,0.3-1.3,0.6-1.8,0.7v-1.1c0.7-0.2,1.6-0.7,2.2-1.3h1v9.1H276.4z"/>
				<path class="st87" d="M286.3,111.7c0,2.3-0.7,4.8-3.2,4.8c-2.5,0-3.2-2.3-3.2-4.7c0-2.4,0.8-4.7,3.3-4.7
					C285.5,107,286.3,109.3,286.3,111.7z M281.2,111.7c0,1.7,0.3,3.6,1.8,3.6c1.5,0,1.8-1.8,1.8-3.6c0-1.8-0.3-3.5-1.8-3.5
					C281.6,108.2,281.2,109.8,281.2,111.7z"/>
				<path class="st87" d="M287.6,116.3L287.6,116.3c0-1.4,0.8-2.8,2.7-4.2c1.4-1.1,1.8-1.4,1.8-2.4c0-0.9-0.5-1.5-1.5-1.5
					c-1.1,0-1.5,0.6-1.7,1.6h-1.3c0.2-1.5,1.1-2.7,3-2.7c2.1,0,2.9,1.3,2.9,2.6c0,1.4-0.6,1.9-2.3,3.2c-1.2,0.9-1.9,1.6-2.1,2.3h4.7
					l-0.2,1.2H287.6z"/>
			</g>
		</g>
		<g>
			<g>
				<path class="st87" d="M318.4,47.9L318.4,47.9c0-1.4,0.8-2.8,2.7-4.2c1.4-1.1,1.8-1.4,1.8-2.4c0-0.9-0.5-1.5-1.5-1.5
					c-1.1,0-1.5,0.6-1.7,1.6h-1.3c0.2-1.5,1.1-2.7,3-2.7c2.1,0,2.9,1.3,2.9,2.6c0,1.4-0.6,1.9-2.3,3.2c-1.2,0.9-1.9,1.6-2.1,2.3h4.7
					l-0.2,1.2H318.4z"/>
				<path class="st87" d="M327.6,47.9v-7.5c-0.4,0.3-1.3,0.6-1.8,0.7V40c0.7-0.2,1.6-0.7,2.2-1.3h1v9.1H327.6z"/>
				<path class="st87" d="M336.9,38.8v1.1c-1.5,2.1-3,5.3-3.5,8H332c0.4-2.6,2-6,3.4-7.9h-4.6v-1.2H336.9z"/>
			</g>
		</g>
		<g>
			<g>
				<path class="st87" d="M214.6,47.7L214.6,47.7c0-1.4,0.8-2.8,2.7-4.2c1.4-1.1,1.8-1.4,1.8-2.4c0-0.9-0.5-1.5-1.5-1.5
					c-1.1,0-1.5,0.6-1.7,1.6h-1.3c0.2-1.5,1.1-2.7,3-2.7c2.1,0,2.9,1.3,2.9,2.6c0,1.4-0.6,1.9-2.3,3.2c-1.2,0.9-1.9,1.6-2.1,2.3h4.7
					l-0.2,1.2H214.6z"/>
				<path class="st87" d="M228.5,43.1c0,2.3-0.7,4.8-3.2,4.8c-2.5,0-3.2-2.3-3.2-4.7c0-2.4,0.8-4.7,3.3-4.7
					C227.8,38.4,228.5,40.7,228.5,43.1z M223.5,43.1c0,1.7,0.3,3.6,1.8,3.6c1.5,0,1.8-1.8,1.8-3.6c0-1.8-0.3-3.5-1.8-3.5
					C223.8,39.6,223.5,41.2,223.5,43.1z"/>
				<path class="st87" d="M235.5,38.6v1.1c-1.5,2.1-3,5.3-3.5,8h-1.4c0.4-2.6,2-6,3.4-7.9h-4.6v-1.2H235.5z"/>
			</g>
		</g>
		<g>
			<g>
				<path class="st87" d="M187.7,31v-0.1c0-1.9,0.8-3.4,3.2-5.1c1.5-1.1,2-1.5,2-2.4c0-0.9-0.5-1.5-1.4-1.5c-1.1,0-1.4,0.6-1.6,1.6
					h-2.3c0.2-1.9,1.4-3.4,3.8-3.4c2.8,0,3.7,1.6,3.7,3.2c0,1.6-0.7,2.3-2.6,3.7c-1.3,0.9-1.9,1.5-2,2h5.1l-0.3,1.9H187.7z"/>
				<path class="st87" d="M205.1,25.5c0,3-0.9,5.6-4.1,5.6c-3.1,0-4.1-2.6-4.1-5.6c0-2.9,1.1-5.6,4.2-5.6
					C204,20,205.1,22.5,205.1,25.5z M199.2,25.6c0,2,0.2,3.7,1.7,3.7c1.5,0,1.7-1.6,1.7-3.8c0-2.1-0.3-3.7-1.7-3.7
					C199.6,21.9,199.2,23.2,199.2,25.6z"/>
				<path class="st87" d="M206.5,31v-0.1c0-1.9,0.8-3.4,3.2-5.1c1.5-1.1,2-1.5,2-2.4c0-0.9-0.5-1.5-1.4-1.5c-1.1,0-1.4,0.6-1.6,1.6
					h-2.3c0.2-1.9,1.4-3.4,3.8-3.4c2.8,0,3.7,1.6,3.7,3.2c0,1.6-0.7,2.3-2.6,3.7c-1.3,0.9-1.9,1.5-2,2h5.1l-0.3,1.9H206.5z"/>
				<path class="st87" d="M217.6,31v-8c-0.5,0.2-1.4,0.4-1.9,0.5v-1.7c1-0.2,2-0.8,2.7-1.4h1.6V31H217.6z"/>
				<path class="st87" d="M232.3,29.5h-3.9V32H227v-2.4h-5.1v-1.3h1.8v-3h3.3v-1.4h-2.4c-0.5,0.8-1,1.5-1.5,2.1
					c-0.3-0.2-0.8-0.7-1.2-0.9c1-0.9,1.9-2.3,2.4-3.8l1.4,0.4c-0.1,0.3-0.2,0.6-0.4,0.9h6.4v1.3h-3.3v1.4h3v1.2h-3v1.7h3.9V29.5z
					 M227,28.2v-1.7h-2v1.7H227z"/>
			</g>
		</g>
		<g>
			<g>
				<path class="st71" d="M248.4,31v-0.1c0-1.9,0.8-3.4,3.2-5.1c1.5-1.1,2-1.5,2-2.4c0-0.9-0.5-1.5-1.4-1.5c-1.1,0-1.4,0.6-1.6,1.6
					h-2.3c0.2-1.9,1.4-3.4,3.8-3.4c2.8,0,3.7,1.6,3.7,3.2c0,1.6-0.7,2.3-2.6,3.7c-1.3,0.9-1.9,1.5-2,2h5.1L256,31H248.4z"/>
				<path class="st71" d="M265.8,25.5c0,3-0.9,5.6-4.1,5.6c-3.1,0-4.1-2.6-4.1-5.6c0-2.9,1.1-5.6,4.2-5.6
					C264.7,20,265.8,22.5,265.8,25.5z M259.9,25.6c0,2,0.2,3.7,1.7,3.7c1.5,0,1.7-1.6,1.7-3.8c0-2.1-0.3-3.7-1.7-3.7
					C260.3,21.9,259.9,23.2,259.9,25.6z"/>
				<path class="st71" d="M267.2,31v-0.1c0-1.9,0.8-3.4,3.2-5.1c1.5-1.1,2-1.5,2-2.4c0-0.9-0.5-1.5-1.4-1.5c-1.1,0-1.4,0.6-1.6,1.6
					h-2.3c0.2-1.9,1.4-3.4,3.8-3.4c2.8,0,3.7,1.6,3.7,3.2c0,1.6-0.7,2.3-2.6,3.7c-1.3,0.9-1.9,1.5-2,2h5.1l-0.3,1.9H267.2z"/>
				<path class="st71" d="M276.5,31v-0.1c0-1.9,0.8-3.4,3.2-5.1c1.5-1.1,2-1.5,2-2.4c0-0.9-0.5-1.5-1.4-1.5c-1.1,0-1.4,0.6-1.6,1.6
					h-2.3c0.2-1.9,1.4-3.4,3.8-3.4c2.8,0,3.7,1.6,3.7,3.2c0,1.6-0.7,2.3-2.6,3.7c-1.3,0.9-1.9,1.5-2,2h5.1l-0.3,1.9H276.5z"/>
				<path class="st71" d="M295.7,29.5h-3.9V32h-1.4v-2.4h-5.1v-1.3h1.8v-3h3.3v-1.4H288c-0.5,0.8-1,1.5-1.5,2.1
					c-0.3-0.2-0.8-0.7-1.2-0.9c1-0.9,1.9-2.3,2.4-3.8l1.4,0.4c-0.1,0.3-0.2,0.6-0.4,0.9h6.4v1.3h-3.3v1.4h3v1.2h-3v1.7h3.9V29.5z
					 M290.4,28.2v-1.7h-2v1.7H290.4z"/>
			</g>
		</g>
		<g>
			<g>
				<rect x="167.6" y="25.2" class="st87" width="13.1" height="4.3"/>
				<polygon class="st87" points="169.7,22.9 169.7,32 165.2,27.5 				"/>
			</g>
		</g>
		<g>
			<g>
				<rect x="301.3" y="25.2" class="st71" width="13.1" height="4.3"/>
				<polygon class="st71" points="312.3,22.9 312.3,32 316.8,27.5 				"/>
			</g>
		</g>
		<line class="st81" x1="352" y1="134.8" x2="352" y2="137.8"/>
		<line class="st81" x1="379.8" y1="134.8" x2="379.8" y2="137.8"/>
		<line class="st81" x1="407.6" y1="134.8" x2="407.6" y2="137.8"/>
		<line class="st81" x1="433.4" y1="134.8" x2="433.4" y2="137.8"/>
		<line class="st81" x1="459.2" y1="134.8" x2="459.2" y2="137.8"/>
		<line class="st81" x1="485" y1="134.8" x2="485" y2="137.8"/>
		<line class="st81" x1="510.8" y1="134.8" x2="510.8" y2="137.8"/>
		<line class="st81" x1="536.6" y1="134.8" x2="536.6" y2="137.8"/>
		<line class="st81" x1="562.4" y1="134.8" x2="562.4" y2="137.8"/>
		<g>
			<g>
				<path class="st84" d="M338.3,145.7h-0.8v1.6h-0.7v-1.6h-2.6v-0.5l2.4-3.8h0.8v3.7h0.8V145.7z M336.9,145.1v-1.8
					c0-0.3,0-0.8,0-1.1h0c-0.1,0.3-0.3,0.6-0.5,0.9l-1.3,2H336.9z"/>
				<path class="st84" d="M345.8,147.1c0,0.4-0.1,0.6-0.4,0.7c-0.3,0.1-0.8,0.1-1.7,0.1c0-0.2-0.2-0.4-0.3-0.6c0.7,0,1.3,0,1.5,0
					c0.2,0,0.2-0.1,0.2-0.2v-1.6h-3.8c-0.2,0.9-0.6,1.8-1.4,2.5c-0.1-0.1-0.3-0.3-0.4-0.4c1.3-1.1,1.4-2.7,1.4-4v-2.4h4.9V147.1z
					 M345.2,144.9v-1.3h-3.7c0,0.4,0,0.9-0.1,1.3H345.2z M341.5,141.7v1.3h3.7v-1.3H341.5z"/>
			</g>
		</g>
		<g>
			<g>
				<path class="st84" d="M362.1,146.7l0.4-0.5c0.3,0.3,0.8,0.6,1.4,0.6c0.7,0,1.2-0.5,1.2-1.4c0-0.8-0.5-1.3-1.2-1.3
					c-0.4,0-0.6,0.1-1,0.3l-0.4-0.2l0.2-2.7h2.9v0.6h-2.2l-0.1,1.7c0.3-0.1,0.5-0.2,0.9-0.2c1,0,1.8,0.6,1.8,1.9s-0.9,2-1.9,2
					C363,147.4,362.4,147.1,362.1,146.7z"/>
				<path class="st84" d="M373.5,147.1c0,0.4-0.1,0.6-0.4,0.7c-0.3,0.1-0.8,0.1-1.7,0.1c0-0.2-0.2-0.4-0.3-0.6c0.7,0,1.3,0,1.5,0
					c0.2,0,0.2-0.1,0.2-0.2v-1.6H369c-0.2,0.9-0.6,1.8-1.4,2.5c-0.1-0.1-0.3-0.3-0.4-0.4c1.3-1.1,1.4-2.7,1.4-4v-2.4h4.9V147.1z
					 M372.8,144.9v-1.3h-3.7c0,0.4,0,0.9-0.1,1.3H372.8z M369.2,141.7v1.3h3.7v-1.3H369.2z"/>
			</g>
		</g>
		<g>
			<g>
				<path class="st84" d="M391.1,142.4c-0.2-0.3-0.6-0.4-0.9-0.4c-0.8,0-1.5,0.6-1.5,2.4c0.4-0.4,0.9-0.7,1.3-0.7
					c1,0,1.6,0.6,1.6,1.8c0,1.1-0.8,1.9-1.7,1.9c-1.1,0-2-1-2-2.9c0-2.3,1-3.2,2.2-3.2c0.6,0,1,0.3,1.4,0.6L391.1,142.4z
					 M390.9,145.5c0-0.8-0.3-1.3-1.1-1.3c-0.4,0-0.8,0.2-1.2,0.8c0.1,1.2,0.5,1.9,1.3,1.9C390.5,146.9,390.9,146.3,390.9,145.5z"/>
				<path class="st84" d="M399.1,147.1c0,0.4-0.1,0.6-0.4,0.7c-0.3,0.1-0.8,0.1-1.7,0.1c0-0.2-0.2-0.4-0.3-0.6c0.7,0,1.3,0,1.5,0
					c0.2,0,0.2-0.1,0.2-0.2v-1.6h-3.8c-0.2,0.9-0.6,1.8-1.4,2.5c-0.1-0.1-0.3-0.3-0.4-0.4c1.3-1.1,1.4-2.7,1.4-4v-2.4h4.9V147.1z
					 M398.5,144.9v-1.3h-3.7c0,0.4,0,0.9-0.1,1.3H398.5z M394.9,141.7v1.3h3.7v-1.3H394.9z"/>
			</g>
		</g>
		<g>
			<g>
				<path class="st84" d="M418.4,142.1h-2.8v-0.6h3.7v0.4c-1.4,1.8-1.6,3.1-1.7,5.4h-0.8C416.9,145.1,417.3,143.7,418.4,142.1z"/>
				<path class="st84" d="M426.8,147.1c0,0.4-0.1,0.6-0.4,0.7c-0.3,0.1-0.8,0.1-1.7,0.1c0-0.2-0.2-0.4-0.3-0.6c0.7,0,1.3,0,1.5,0
					c0.2,0,0.2-0.1,0.2-0.2v-1.6h-3.8c-0.2,0.9-0.6,1.8-1.4,2.5c-0.1-0.1-0.3-0.3-0.4-0.4c1.3-1.1,1.4-2.7,1.4-4v-2.4h4.9V147.1z
					 M426.2,144.9v-1.3h-3.7c0,0.4,0,0.9-0.1,1.3H426.2z M422.5,141.7v1.3h3.7v-1.3H422.5z"/>
			</g>
		</g>
		<g>
			<g>
				<path class="st84" d="M442.2,145.9c0-0.8,0.5-1.3,1.1-1.6v0c-0.4-0.3-0.8-0.7-0.8-1.4c0-0.9,0.7-1.5,1.6-1.5
					c1,0,1.6,0.6,1.6,1.5c0,0.6-0.4,1.1-0.8,1.4v0c0.5,0.3,1,0.7,1,1.5c0,0.9-0.7,1.5-1.8,1.5C443,147.4,442.2,146.8,442.2,145.9z
					 M445.3,145.9c0-0.8-0.7-1.1-1.6-1.4c-0.5,0.3-0.8,0.8-0.8,1.3c0,0.6,0.5,1.1,1.2,1.1C444.8,146.9,445.3,146.5,445.3,145.9z
					 M445.1,143c0-0.6-0.4-1-1-1c-0.5,0-0.9,0.4-0.9,1c0,0.7,0.6,1,1.3,1.3C444.9,143.8,445.1,143.4,445.1,143z"/>
				<path class="st84" d="M453.5,147.1c0,0.4-0.1,0.6-0.4,0.7c-0.3,0.1-0.8,0.1-1.7,0.1c0-0.2-0.2-0.4-0.3-0.6c0.7,0,1.3,0,1.5,0
					c0.2,0,0.2-0.1,0.2-0.2v-1.6H449c-0.2,0.9-0.6,1.8-1.4,2.5c-0.1-0.1-0.3-0.3-0.4-0.4c1.3-1.1,1.4-2.7,1.4-4v-2.4h4.9V147.1z
					 M452.9,144.9v-1.3h-3.7c0,0.4,0,0.9-0.1,1.3H452.9z M449.2,141.7v1.3h3.7v-1.3H449.2z"/>
			</g>
		</g>
		<g>
			<g>
				<path class="st84" d="M468.4,146.4c0.2,0.3,0.6,0.4,1,0.4c0.8,0,1.4-0.6,1.5-2.4c-0.4,0.4-0.9,0.7-1.4,0.7c-1,0-1.6-0.6-1.6-1.8
					c0-1.1,0.8-1.9,1.7-1.9c1.1,0,2,0.9,2,2.8c0,2.4-1,3.3-2.1,3.3c-0.6,0-1.1-0.3-1.4-0.6L468.4,146.4z M470.9,143.8
					c-0.1-1.2-0.5-1.8-1.3-1.8c-0.6,0-1,0.5-1,1.3c0,0.8,0.4,1.3,1,1.3C470,144.6,470.5,144.3,470.9,143.8z"/>
				<path class="st84" d="M479.2,147.1c0,0.4-0.1,0.6-0.4,0.7c-0.3,0.1-0.8,0.1-1.7,0.1c0-0.2-0.2-0.4-0.3-0.6c0.7,0,1.3,0,1.5,0
					c0.2,0,0.2-0.1,0.2-0.2v-1.6h-3.8c-0.2,0.9-0.6,1.8-1.4,2.5c-0.1-0.1-0.3-0.3-0.4-0.4c1.3-1.1,1.4-2.7,1.4-4v-2.4h4.9V147.1z
					 M478.6,144.9v-1.3h-3.7c0,0.4,0,0.9-0.1,1.3H478.6z M474.9,141.7v1.3h3.7v-1.3H474.9z"/>
			</g>
		</g>
		<g>
			<g>
				<path class="st84" d="M491.4,146.7h1.3v-4.4h-1v-0.5c0.5-0.1,0.9-0.2,1.2-0.4h0.6v5.3h1.2v0.6h-3.2V146.7z"/>
				<path class="st84" d="M496.2,144.4c0-2,0.7-3,1.8-3c1.1,0,1.8,1,1.8,3c0,2-0.7,3.1-1.8,3.1C496.9,147.4,496.2,146.4,496.2,144.4
					z M499.1,144.4c0-1.7-0.4-2.4-1.1-2.4c-0.7,0-1.1,0.7-1.1,2.4c0,1.7,0.4,2.5,1.1,2.5C498.7,146.9,499.1,146.1,499.1,144.4z"/>
				<path class="st84" d="M507.4,147.1c0,0.4-0.1,0.6-0.4,0.7c-0.3,0.1-0.8,0.1-1.7,0.1c0-0.2-0.2-0.4-0.3-0.6c0.7,0,1.3,0,1.5,0
					c0.2,0,0.2-0.1,0.2-0.2v-1.6h-3.8c-0.2,0.9-0.6,1.8-1.4,2.5c-0.1-0.1-0.3-0.3-0.4-0.4c1.3-1.1,1.4-2.7,1.4-4v-2.4h4.9V147.1z
					 M506.8,144.9v-1.3h-3.7c0,0.4,0,0.9-0.1,1.3H506.8z M503.1,141.7v1.3h3.7v-1.3H503.1z"/>
			</g>
		</g>
		<g>
			<g>
				<path class="st84" d="M519.1,146.7h1.3v-4.4h-1v-0.5c0.5-0.1,0.9-0.2,1.2-0.4h0.6v5.3h1.2v0.6h-3.2V146.7z"/>
				<path class="st84" d="M524.2,146.7h1.3v-4.4h-1v-0.5c0.5-0.1,0.9-0.2,1.2-0.4h0.6v5.3h1.2v0.6h-3.2V146.7z"/>
				<path class="st84" d="M535.1,147.1c0,0.4-0.1,0.6-0.4,0.7c-0.3,0.1-0.8,0.1-1.7,0.1c0-0.2-0.2-0.4-0.3-0.6c0.7,0,1.3,0,1.5,0
					c0.2,0,0.2-0.1,0.2-0.2v-1.6h-3.8c-0.2,0.9-0.6,1.8-1.4,2.5c-0.1-0.1-0.3-0.3-0.4-0.4c1.3-1.1,1.4-2.7,1.4-4v-2.4h4.9V147.1z
					 M534.5,144.9v-1.3h-3.7c0,0.4,0,0.9-0.1,1.3H534.5z M530.8,141.7v1.3h3.7v-1.3H530.8z"/>
			</g>
		</g>
		<g>
			<g>
				<path class="st84" d="M546.8,146.7h1.3v-4.4h-1v-0.5c0.5-0.1,0.9-0.2,1.2-0.4h0.6v5.3h1.2v0.6h-3.2V146.7z"/>
				<path class="st84" d="M551.5,146.9c1.8-1.6,2.7-2.8,2.7-3.8c0-0.7-0.4-1.2-1.1-1.2c-0.5,0-0.9,0.3-1.2,0.7l-0.4-0.4
					c0.5-0.5,1-0.9,1.7-0.9c1,0,1.7,0.7,1.7,1.7c0,1.2-0.9,2.4-2.3,3.7c0.3,0,0.7-0.1,1-0.1h1.6v0.6h-3.7V146.9z"/>
				<path class="st84" d="M562.8,147.1c0,0.4-0.1,0.6-0.4,0.7c-0.3,0.1-0.8,0.1-1.7,0.1c0-0.2-0.2-0.4-0.3-0.6c0.7,0,1.3,0,1.5,0
					c0.2,0,0.2-0.1,0.2-0.2v-1.6h-3.8c-0.2,0.9-0.6,1.8-1.4,2.5c-0.1-0.1-0.3-0.3-0.4-0.4c1.3-1.1,1.4-2.7,1.4-4v-2.4h4.9V147.1z
					 M562.1,144.9v-1.3h-3.7c0,0.4,0,0.9-0.1,1.3H562.1z M558.5,141.7v1.3h3.7v-1.3H558.5z"/>
			</g>
		</g>
		<g>
			<g>
				<path class="st87" d="M336.2,81.2L336.2,81.2c0-1.4,0.8-2.8,2.7-4.2c1.4-1.1,1.8-1.4,1.8-2.4c0-0.9-0.5-1.5-1.5-1.5
					c-1.1,0-1.5,0.6-1.7,1.6h-1.3c0.2-1.5,1.1-2.7,3-2.7c2.1,0,2.9,1.3,2.9,2.6c0,1.4-0.6,1.9-2.3,3.2c-1.2,0.9-1.9,1.6-2.1,2.3h4.7
					l-0.2,1.2H336.2z"/>
				<path class="st87" d="M350.2,76.6c0,2.3-0.7,4.8-3.2,4.8c-2.5,0-3.2-2.3-3.2-4.7c0-2.4,0.8-4.7,3.3-4.7
					C349.4,71.9,350.2,74.2,350.2,76.6z M345.1,76.6c0,1.7,0.3,3.6,1.8,3.6c1.5,0,1.8-1.8,1.8-3.6c0-1.8-0.3-3.5-1.8-3.5
					C345.5,73.1,345.1,74.7,345.1,76.6z"/>
				<path class="st87" d="M353.3,81.2v-7.5c-0.4,0.3-1.3,0.6-1.8,0.7v-1.1c0.7-0.2,1.6-0.7,2.2-1.3h1v9.1H353.3z"/>
			</g>
		</g>
		<g>
			<g>
				<path class="st87" d="M364.6,36L364.6,36c0-1.4,0.8-2.8,2.7-4.2c1.4-1.1,1.8-1.4,1.8-2.4c0-0.9-0.5-1.5-1.5-1.5
					c-1.1,0-1.5,0.6-1.7,1.6h-1.3c0.2-1.5,1.1-2.7,3-2.7c2.1,0,2.9,1.3,2.9,2.6c0,1.4-0.6,1.9-2.3,3.2c-1.2,0.9-1.9,1.6-2.1,2.3h4.7
					l-0.2,1.2H364.6z"/>
				<path class="st87" d="M372.2,36L372.2,36c0-1.4,0.8-2.8,2.7-4.2c1.4-1.1,1.8-1.4,1.8-2.4c0-0.9-0.5-1.5-1.5-1.5
					c-1.1,0-1.5,0.6-1.7,1.6h-1.3c0.2-1.5,1.1-2.7,3-2.7c2.1,0,2.9,1.3,2.9,2.6c0,1.4-0.6,1.9-2.3,3.2c-1.2,0.9-1.9,1.6-2.1,2.3h4.7
					l-0.2,1.2H372.2z"/>
				<path class="st87" d="M379.7,29.1c0.1-1.1,0.9-2.4,2.9-2.4c1.9,0,2.8,1.2,2.8,2.4c0,1.1-0.7,1.7-1.2,1.9v0
					c0.8,0.3,1.6,0.9,1.6,2.3c0,1.4-0.9,2.9-3.2,2.9c-2.1,0-3-1.3-3.2-2.5h1.3c0.2,0.8,0.7,1.4,1.9,1.4c1.2,0,1.8-0.8,1.8-1.8
					c0-1.1-0.7-1.7-1.9-1.7h-0.7v-1.1h0.6c1.1,0,1.6-0.4,1.6-1.3c0-0.8-0.5-1.3-1.5-1.3c-1.1,0-1.4,0.6-1.6,1.2H379.7z"/>
			</g>
		</g>
		<g>
			<g>
				<path class="st87" d="M388.2,85.9v-7.5c-0.4,0.3-1.3,0.6-1.8,0.7v-1.1c0.7-0.2,1.6-0.7,2.2-1.3h1v9.1H388.2z"/>
				<path class="st87" d="M391.5,83.4c0-1.3,0.9-2,1.6-2.3c-0.8-0.4-1.2-1-1.2-1.9c0-1.4,1-2.5,2.9-2.5c1.7,0,2.8,1,2.8,2.4
					c0,1-0.5,1.6-1.2,1.9c0.8,0.3,1.6,1.1,1.6,2.3c0,1.8-1.4,2.8-3.3,2.8C392.9,86.1,391.5,85.1,391.5,83.4z M396.6,83.3
					c0-1.1-0.7-1.7-1.9-1.7c-1.3,0-1.9,0.7-1.9,1.7c0,1,0.7,1.7,1.9,1.7C395.8,85,396.6,84.4,396.6,83.3z M393.2,79.2
					c0,0.7,0.5,1.3,1.6,1.3c1,0,1.5-0.5,1.5-1.3c0-0.8-0.5-1.4-1.5-1.4C393.7,77.8,393.2,78.3,393.2,79.2z"/>
				<path class="st87" d="M400.9,85.9v-7.5c-0.4,0.3-1.3,0.6-1.8,0.7v-1.1c0.7-0.2,1.6-0.7,2.2-1.3h1v9.1H400.9z"/>
			</g>
		</g>
		<g>
			<g>
				<path class="st87" d="M408.6,37.1L408.6,37.1c0-1.4,0.8-2.8,2.7-4.2c1.4-1.1,1.8-1.4,1.8-2.4c0-0.9-0.5-1.5-1.5-1.5
					c-1.1,0-1.5,0.6-1.7,1.6h-1.3c0.2-1.5,1.1-2.7,3-2.7c2.1,0,2.9,1.3,2.9,2.6c0,1.4-0.6,1.9-2.3,3.2c-1.2,0.9-1.9,1.6-2.1,2.3h4.7
					l-0.2,1.2H408.6z"/>
				<path class="st87" d="M416.2,37.1L416.2,37.1c0-1.4,0.8-2.8,2.7-4.2c1.4-1.1,1.8-1.4,1.8-2.4c0-0.9-0.5-1.5-1.5-1.5
					c-1.1,0-1.5,0.6-1.7,1.6h-1.3c0.2-1.5,1.1-2.7,3-2.7c2.1,0,2.9,1.3,2.9,2.6c0,1.4-0.6,1.9-2.3,3.2c-1.2,0.9-1.9,1.6-2.1,2.3h4.7
					l-0.2,1.2H416.2z"/>
				<path class="st87" d="M425.4,37.1v-7.5c-0.4,0.3-1.3,0.6-1.8,0.7v-1.1c0.7-0.2,1.6-0.7,2.2-1.3h1v9.1H425.4z"/>
			</g>
		</g>
		<g>
			<g>
				<path class="st87" d="M457.9,82.4v-7.5c-0.4,0.3-1.3,0.6-1.8,0.7v-1.1c0.7-0.2,1.6-0.7,2.2-1.3h1v9.1H457.9z"/>
				<path class="st87" d="M461.1,79.8c0-1.3,0.9-2,1.6-2.3c-0.8-0.4-1.2-1-1.2-1.9c0-1.4,1-2.5,2.9-2.5c1.7,0,2.8,1,2.8,2.4
					c0,1-0.5,1.6-1.2,1.9c0.8,0.3,1.6,1.1,1.6,2.3c0,1.8-1.4,2.8-3.3,2.8C462.5,82.5,461.1,81.5,461.1,79.8z M466.2,79.7
					c0-1.1-0.7-1.7-1.9-1.7c-1.3,0-1.9,0.7-1.9,1.7c0,1,0.7,1.7,1.9,1.7C465.5,81.4,466.2,80.9,466.2,79.7z M462.9,75.6
					c0,0.7,0.5,1.3,1.6,1.3c1,0,1.5-0.5,1.5-1.3c0-0.8-0.5-1.4-1.5-1.4C463.3,74.2,462.9,74.8,462.9,75.6z"/>
				<path class="st87" d="M469.1,75.5c0.1-1.1,0.9-2.4,2.9-2.4c1.9,0,2.8,1.2,2.8,2.4c0,1.1-0.7,1.7-1.2,1.9v0
					c0.8,0.3,1.6,0.9,1.6,2.3c0,1.4-0.9,2.9-3.2,2.9c-2.1,0-3-1.3-3.2-2.5h1.3c0.2,0.8,0.7,1.4,1.9,1.4c1.2,0,1.8-0.8,1.8-1.8
					c0-1.1-0.7-1.7-1.9-1.7h-0.7v-1.1h0.6c1.1,0,1.6-0.4,1.6-1.3c0-0.8-0.5-1.3-1.5-1.3c-1.1,0-1.4,0.6-1.6,1.2H469.1z"/>
			</g>
		</g>
		<g>
			<g>
				<path class="st87" d="M492.5,90.8v-7.5c-0.4,0.3-1.3,0.6-1.8,0.7v-1.1c0.7-0.2,1.6-0.7,2.2-1.3h1v9.1H492.5z"/>
				<path class="st87" d="M495.8,88.2c0-1.3,0.9-2,1.6-2.3c-0.8-0.4-1.2-1-1.2-1.9c0-1.4,1-2.4,2.9-2.4c1.7,0,2.8,1,2.8,2.4
					c0,1-0.5,1.6-1.2,1.9c0.8,0.3,1.6,1.1,1.6,2.3c0,1.8-1.4,2.8-3.3,2.8C497.2,90.9,495.8,89.9,495.8,88.2z M500.9,88.1
					c0-1.1-0.7-1.7-1.9-1.7c-1.3,0-1.9,0.7-1.9,1.7c0,1,0.7,1.7,1.9,1.7C500.1,89.8,500.9,89.3,500.9,88.1z M497.5,84
					c0,0.7,0.5,1.3,1.6,1.3c1,0,1.5-0.5,1.5-1.3c0-0.8-0.5-1.4-1.5-1.4C498,82.6,497.5,83.2,497.5,84z"/>
				<path class="st87" d="M510,86.2c0,2.3-0.7,4.8-3.2,4.8c-2.5,0-3.2-2.3-3.2-4.7c0-2.4,0.8-4.7,3.3-4.7
					C509.3,81.5,510,83.8,510,86.2z M505,86.2c0,1.7,0.3,3.6,1.8,3.6c1.5,0,1.8-1.8,1.8-3.6c0-1.8-0.3-3.5-1.8-3.5
					C505.3,82.7,505,84.2,505,86.2z"/>
			</g>
		</g>
		<g>
			<g>
				<path class="st87" d="M503.7,33.3L503.7,33.3c0-1.4,0.8-2.8,2.7-4.2c1.4-1.1,1.8-1.4,1.8-2.4c0-0.9-0.5-1.5-1.5-1.5
					c-1.1,0-1.5,0.6-1.7,1.6h-1.3c0.2-1.5,1.1-2.7,3-2.7c2.1,0,2.9,1.3,2.9,2.6c0,1.4-0.6,1.9-2.3,3.2c-1.2,0.9-1.9,1.6-2.1,2.3h4.7
					l-0.2,1.2H503.7z"/>
				<path class="st87" d="M511.2,26.4c0.1-1.1,0.9-2.4,2.9-2.4c1.9,0,2.8,1.2,2.8,2.4c0,1.1-0.7,1.7-1.2,1.9v0
					c0.8,0.3,1.6,0.9,1.6,2.3c0,1.4-0.9,2.9-3.2,2.9c-2.1,0-3-1.3-3.2-2.5h1.3c0.2,0.8,0.7,1.4,1.9,1.4c1.2,0,1.8-0.8,1.8-1.8
					c0-1.1-0.7-1.7-1.9-1.7h-0.7v-1.1h0.6c1.1,0,1.6-0.4,1.6-1.3c0-0.8-0.5-1.3-1.5-1.3c-1.1,0-1.4,0.6-1.6,1.2H511.2z"/>
				<path class="st87" d="M518.7,26.4c0.1-1.1,0.9-2.4,2.9-2.4c1.9,0,2.8,1.2,2.8,2.4c0,1.1-0.7,1.7-1.2,1.9v0
					c0.8,0.3,1.6,0.9,1.6,2.3c0,1.4-0.9,2.9-3.2,2.9c-2.1,0-3-1.3-3.2-2.5h1.3c0.2,0.8,0.7,1.4,1.9,1.4c1.2,0,1.8-0.8,1.8-1.8
					c0-1.1-0.7-1.7-1.9-1.7h-0.7v-1.1h0.6c1.1,0,1.6-0.4,1.6-1.3c0-0.8-0.5-1.3-1.5-1.3c-1.1,0-1.4,0.6-1.6,1.2H518.7z"/>
			</g>
		</g>
		<g>
			<g>
				<path class="st87" d="M545,11.9V9.6h-4.2V8.4l4.1-5.6h1.5v5.7h1.2l-0.1,1.1h-1v2.3H545z M545,6.3c0-0.8,0-1.6,0-2.2
					c-0.4,0.7-2,3-3,4.3h2.9V6.3z"/>
				<path class="st87" d="M555.1,7.3c0,2.3-0.7,4.8-3.2,4.8c-2.5,0-3.2-2.3-3.2-4.7c0-2.4,0.8-4.7,3.3-4.7
					C554.3,2.7,555.1,4.9,555.1,7.3z M550,7.4c0,1.7,0.3,3.6,1.8,3.6c1.5,0,1.8-1.8,1.8-3.6c0-1.8-0.3-3.5-1.8-3.5
					C550.4,3.8,550,5.4,550,7.4z"/>
				<path class="st87" d="M558.2,11.9V4.4c-0.4,0.3-1.3,0.6-1.8,0.7V4.1c0.7-0.2,1.6-0.7,2.2-1.3h1v9.1H558.2z"/>
			</g>
		</g>
	</g>
</g>
</svg>
