<svg xmlns="http://www.w3.org/2000/svg" viewBox="0 0 257.48 143.58"><defs><style>.cls-1,.cls-2,.cls-3,.cls-5,.cls-6{fill:none;stroke-miterlimit:10;}.cls-1,.cls-2,.cls-3,.cls-5{stroke:#a27dd7;}.cls-1{stroke-width:0.13px;}.cls-2{stroke-width:0.11px;}.cls-3{stroke-width:0.12px;}.cls-4{fill:#bf6dbf;}.cls-5{stroke-width:0.07px;}.cls-6{stroke:#fff;stroke-width:0.5px;}.cls-22,.cls-29,.cls-37,.cls-7{font-size:7.24px;}.cls-10,.cls-12,.cls-14,.cls-15,.cls-29,.cls-32,.cls-34,.cls-7,.cls-8{fill:#49494b;}.cls-22,.cls-29,.cls-37,.cls-38,.cls-7{font-family:NotoSansCJKtc-DemiLight-B5pc-H, Noto Sans CJK TC;}.cls-23,.cls-37,.cls-7{letter-spacing:0.08em;}.cls-10,.cls-12,.cls-14,.cls-15,.cls-32,.cls-34,.cls-8{font-size:8.04px;font-family:AcuminConcept-Light, Acumin Variable Concept;font-weight:300;}.cls-8{letter-spacing:0.04em;}.cls-9{letter-spacing:0.04em;}.cls-10{letter-spacing:0.05em;}.cls-11{letter-spacing:0.04em;}.cls-12{letter-spacing:0.03em;}.cls-13{letter-spacing:0.04em;}.cls-14{letter-spacing:0.03em;}.cls-15{letter-spacing:0.05em;}.cls-16{letter-spacing:0.04em;}.cls-17{letter-spacing:0.03em;}.cls-18{letter-spacing:0.02em;}.cls-19{letter-spacing:0.03em;}.cls-20{letter-spacing:0.05em;}.cls-21{letter-spacing:0.02em;}.cls-22{font-weight:400;}.cls-22,.cls-26{letter-spacing:0.04em;}.cls-24{letter-spacing:0.04em;}.cls-25{letter-spacing:-0.38em;}.cls-27{letter-spacing:0.07em;}.cls-28{letter-spacing:0.08em;}.cls-29{letter-spacing:0.05em;}.cls-30{letter-spacing:0.02em;}.cls-31{letter-spacing:0.04em;}.cls-32,.cls-36{letter-spacing:0.04em;}.cls-33{letter-spacing:0.03em;}.cls-34{letter-spacing:0.03em;}.cls-35{letter-spacing:0.04em;}.cls-37{fill:#fff;}.cls-38{font-size:6.19px;fill:#4b4949;letter-spacing:0.08em;}.cls-39{letter-spacing:-0.17em;}</style></defs><g id="圖層_2" data-name="圖層 2"><g id="圖層_1-2" data-name="圖層 1"><rect class="cls-1" x="0.06" y="0.06" width="257.12" height="128.07"/><line class="cls-2" x1="64.32" y1="44.24" x2="257.18" y2="44.24"/><line class="cls-3" x1="0.08" y1="70.52" x2="257.18" y2="70.52"/><line class="cls-2" x1="64.32" y1="96.81" x2="257.18" y2="96.81"/><rect class="cls-4" x="0.06" y="0.03" width="64.17" height="14.28"/><line class="cls-5" x1="64.26" y1="10.97" x2="64.26" y2="128.14"/><line class="cls-5" x1="205.79" y1="8.19" x2="205.79" y2="128.14"/><rect class="cls-4" x="64.23" y="0.07" width="192.95" height="14.24"/><line class="cls-6" x1="64.29" y1="0.03" x2="64.29" y2="14.31"/><text class="cls-7" transform="translate(8.69 27.72)">儲備幹部培訓</text><text class="cls-7" transform="translate(8.69 100.16)">專業人才養成</text><text class="cls-8" transform="translate(175.52 61.66)">3<tspan class="cls-9" x="4.73" y="0">5</tspan></text><text class="cls-10" transform="translate(176.31 31.2)">1<tspan class="cls-11" x="3.2" y="0">9</tspan></text><text class="cls-12" transform="translate(175.65 114.68)">2<tspan class="cls-13" x="4.38" y="0">3</tspan></text><text class="cls-14" transform="translate(175.67 86.86)">2<tspan class="cls-13" x="4.41" y="0">6</tspan></text><text class="cls-15" transform="translate(67.14 28.2)">L<tspan class="cls-9" x="4.8" y="0">eade</tspan><tspan class="cls-16" x="22.98" y="0">r</tspan><tspan class="cls-17" x="26.04" y="0">s</tspan><tspan class="cls-9" x="29.97" y="0">hip </tspan><tspan class="cls-18" x="44.1" y="0">P</tspan><tspan class="cls-19" x="49.24" y="0">r</tspan><tspan class="cls-20" x="52.21" y="0">o</tspan><tspan class="cls-13" x="56.91" y="0">g</tspan><tspan class="cls-21" x="61.7" y="0">r</tspan><tspan class="cls-13" x="64.6" y="0">am</tspan><tspan class="cls-22"><tspan x="-3.36" y="9">（</tspan><tspan class="cls-23" x="4.2" y="9">儲備幹部培</tspan><tspan class="cls-24" x="43.29" y="9">訓</tspan><tspan class="cls-25" x="50.85" y="9">）</tspan></tspan></text><text class="cls-7" transform="translate(67.14 56.66)">責任險行銷幹訓班<tspan class="cls-26"><tspan x="-3.36" y="9">（</tspan><tspan class="cls-23" x="4.2" y="9">責任險商品之行</tspan><tspan class="cls-24" x="58.93" y="9">銷</tspan><tspan class="cls-25" x="66.48" y="9">）</tspan></tspan></text><text class="cls-7" transform="translate(67.14 82.39)">商業險P<tspan class="cls-27" x="28.57" y="0">r</tspan><tspan class="cls-28" x="31.81" y="0">o幹訓班</tspan><tspan class="cls-26"><tspan x="-3.36" y="9">（</tspan><tspan class="cls-23" x="4.2" y="9">商業險商品之行</tspan><tspan class="cls-24" x="58.93" y="9">銷</tspan><tspan class="cls-25" x="66.48" y="9">）</tspan></tspan></text><text class="cls-29" transform="translate(67.14 109.7)">C<tspan class="cls-23" x="4.98" y="0">SV永續發展幹訓班</tspan><tspan class="cls-26"><tspan x="-3.36" y="9">（</tspan><tspan class="cls-28" x="4.2" y="9">ESG知識推廣與實</tspan><tspan class="cls-24" x="66.31" y="9">作</tspan><tspan class="cls-25" x="73.87" y="9">）</tspan></tspan></text><text class="cls-14" transform="translate(222.57 61.66)">1<tspan class="cls-30" x="3.1" y="0">3</tspan><tspan class="cls-31" x="7.68" y="0">3</tspan><tspan class="cls-13" x="12.37" y="0">0</tspan></text><text class="cls-32" transform="translate(224.24 31.2)">5<tspan class="cls-33" x="4.65" y="0">3</tspan><tspan class="cls-13" x="9.3" y="0">2</tspan></text><text class="cls-34" transform="translate(224.32 114.68)">5<tspan class="cls-35" x="4.54" y="0">2</tspan><tspan class="cls-11" x="9.02" y="0">9</tspan></text><text class="cls-15" transform="translate(222.63 86.86)">1<tspan class="cls-36" x="3.19" y="0">0</tspan><tspan class="cls-11" x="7.94" y="0">9</tspan><tspan class="cls-9" x="12.52" y="0">2</tspan></text><line class="cls-5" x1="154.71" y1="8.19" x2="154.71" y2="128.14"/><line class="cls-6" x1="154.74" y1="0.03" x2="154.68" y2="10.97"/><line class="cls-6" x1="205.6" y1="0.03" x2="205.73" y2="14.31"/><text class="cls-37" transform="translate(16.51 10.4)">課程系列</text><text class="cls-37" transform="translate(93.69 10.68)">課程名稱</text><text class="cls-37" transform="translate(160.58 10.4)">總受訓人次</text><text class="cls-37" transform="translate(211.94 10.4)">總受訓時數</text><text class="cls-38" transform="translate(217.55 137.09)">單<tspan class="cls-39" x="6.68" y="0">位：</tspan><tspan x="16.96" y="0">人/小時</tspan></text></g></g></svg>