<?xml version="1.0" encoding="utf-8"?>
<!-- Generator: Adobe Illustrator 26.3.1, SVG Export Plug-In . SVG Version: 6.00 Build 0)  -->
<svg version="1.1" id="圖層_1" xmlns="http://www.w3.org/2000/svg" xmlns:xlink="http://www.w3.org/1999/xlink" x="0px" y="0px"
	 viewBox="0 0 548 90.6" style="enable-background:new 0 0 548 90.6;" xml:space="preserve">
<style type="text/css">
	.st0{fill:#31A858;}
	.st1{fill:none;stroke:#577A79;stroke-width:0.1;stroke-miterlimit:10;}
	.st2{enable-background:new    ;}
	.st3{fill:#FFFFFF;}
	.st4{fill:#4B4949;}
	.st5{fill:#49494B;}
	.st6{fill:none;stroke:#577A79;stroke-width:8.000000e-02;stroke-miterlimit:10;}
	.st7{fill:none;stroke:#FFFFFF;stroke-width:0.45;stroke-miterlimit:10;}
</style>
<g id="圖層_2_00000115503655761627783550000012486701814155090587_">
	<g id="圖層_1-2">
		<rect x="44.8" y="0" class="st0" width="168" height="16.4"/>
		<rect x="212.4" y="0" class="st0" width="168" height="16.4"/>
		<rect x="379.9" y="0" class="st0" width="168" height="16.4"/>
		<rect x="0" y="0" class="st0" width="44.8" height="16.4"/>
		<rect x="0.1" y="0" class="st1" width="547.9" height="88.2"/>
		<g class="st2">
			<path class="st3" d="M449.2,4.5c-0.2,0.7-0.5,1.5-0.8,2.1c0.6,0.7,0.7,1.3,0.7,1.8c0,0.4-0.1,0.8-0.3,0.9
				c-0.1,0.1-0.3,0.1-0.4,0.1c-0.2,0-0.4,0-0.5,0c0-0.1-0.1-0.3-0.1-0.5c0.2,0,0.3,0,0.5,0c0.1,0,0.2,0,0.2-0.1
				c0.1-0.1,0.2-0.3,0.2-0.6c0-0.5-0.1-1-0.7-1.7c0.2-0.6,0.5-1.3,0.6-1.9h-1.1v6.6H447V4.3h1.7l0.1,0L449.2,4.5z M450.6,9.1
				c-0.1,0.2-0.1,0.4-0.2,0.6c0.3,0.2,0.7,0.5,0.9,0.7l-0.3,0.4c-0.2-0.2-0.5-0.5-0.9-0.7c-0.3,0.5-0.8,1-1.2,1.3
				c-0.1-0.1-0.3-0.3-0.4-0.4c0.8-0.4,1.3-1.2,1.6-2L450.6,9.1z M451.8,4.1c-0.1,0.1-0.1,0.2-0.2,0.3c0.6,0.6,1.7,1.1,2.5,1.5
				c-0.1,0.1-0.2,0.3-0.3,0.5c-0.8-0.4-1.8-1-2.5-1.6c-0.5,0.6-1.3,1.2-2,1.7c-0.1-0.1-0.3-0.3-0.4-0.4c1-0.5,1.9-1.3,2.3-2.1
				L451.8,4.1z M449.4,6.9h1.8v1.9h-1.8V6.9z M449.8,8.4h0.9V7.3h-0.9V8.4z M452.7,6.3h-2.4V5.8h2.4V6.3z M452.9,9.1
				c0,0.3-0.1,0.5-0.2,0.7c0.5,0.3,1.1,0.8,1.4,1.1l-0.3,0.4c-0.3-0.3-0.8-0.7-1.3-1.1c-0.3,0.5-0.6,0.9-1,1.2
				c-0.1-0.1-0.3-0.3-0.4-0.4c0.7-0.4,1.1-1.1,1.3-2L452.9,9.1z M453.6,8.8h-1.8V6.9h1.8V8.8z M453.1,7.3h-1v1.1h1V7.3z"/>
			<path class="st3" d="M463,10.8v0.5h-4.8v-0.5h2.3v-0.7h-1.8V9.7h1.8V9h-1.7V6.5h1.7V5.9h-2.1V5.4h2.1V4.8c-0.6,0-1.2,0.1-1.8,0.1
				c0-0.1-0.1-0.3-0.1-0.4c-0.3,0.1-0.7,0.2-1.1,0.3v1.4h1.1v0.5h-1.1v0.5c0.2,0.2,1,0.9,1.1,1.1l-0.3,0.4c-0.1-0.2-0.5-0.7-0.8-1
				v3.6h-0.5V7.7c-0.3,0.9-0.8,1.7-1.2,2.2c-0.1-0.1-0.2-0.4-0.3-0.5c0.5-0.6,1.1-1.7,1.4-2.6h-1.3V6.3h1.4V5
				c-0.4,0.1-0.8,0.2-1.2,0.2c0-0.1-0.1-0.3-0.2-0.4c0.9-0.2,2-0.4,2.6-0.7l0.4,0.4l0,0c1.4-0.1,3.1-0.2,4-0.4l0.3,0.4
				c-0.5,0.1-1.2,0.2-1.9,0.3v0.6h1.9v0.4h-1.9v0.6h1.7V9h-1.7v0.6h1.8v0.4h-1.8v0.7H463z M459.2,7.6h1.2V6.9h-1.2V7.6z M460.4,8.6
				V7.9h-1.2v0.7H460.4z M460.9,6.9v0.7h1.2V6.9H460.9z M462.2,7.9h-1.2v0.7h1.2V7.9z"/>
			<path class="st3" d="M468.6,4.2c-0.1,0.1-0.2,0.2-0.3,0.4c0.9,1,2.1,1.7,3.4,2.3c-0.1,0.1-0.3,0.3-0.4,0.5
				C470.1,6.7,469,6,468.1,5c-0.6,0.6-1.2,1.2-2,1.7h4v0.5H466V6.7c-0.4,0.3-0.8,0.5-1.3,0.7c-0.1-0.1-0.2-0.3-0.4-0.5
				c1.5-0.6,3-1.7,3.9-3L468.6,4.2z M465.6,8.2h5v3.2H470v-0.4h-3.9v0.5h-0.5V8.2z M466.1,8.7v1.8h3.9V8.7H466.1z"/>
			<path class="st3" d="M476.7,5.8h-3.3V5.4h3.3V5.8z M473.7,6.4h2.6v0.4h-2.6V6.4z M476.3,7.9h-2.6V7.5h2.6V7.9z M476.3,10.9h-2.1
				v0.4h-0.5V8.6h2.6V10.9z M474.2,9v1.4h1.6V9H474.2z M474.9,5.3c-0.1-0.3-0.4-0.7-0.6-1.1l0.4-0.2c0.2,0.3,0.5,0.7,0.6,1
				L474.9,5.3z M480.5,7.4h-1.7v4.1h-0.6V7.4h-1.6V6.8h1.6V4.2h0.6v2.7h1.7V7.4z"/>
		</g>
		<g class="st2">
			<path class="st3" d="M277.1,4.2c-0.2,0.6-0.5,1.2-0.8,1.8v5.5h-0.5V6.7c-0.3,0.4-0.6,0.8-0.9,1.1c-0.1-0.1-0.2-0.4-0.3-0.5
				c0.8-0.8,1.6-2,2-3.3L277.1,4.2z M278.7,8.5c-0.1,0.2-0.2,0.3-0.4,0.5h3.6c0,0,0,0.2,0,0.2c-0.1,1.3-0.3,1.8-0.5,2
				c-0.1,0.1-0.3,0.2-0.4,0.2c-0.2,0-0.4,0-0.8,0c0-0.1-0.1-0.3-0.1-0.4c0.3,0,0.6,0,0.7,0s0.2,0,0.2-0.1c0.1-0.1,0.3-0.6,0.4-1.5
				h-0.7c-0.3,0.8-0.9,1.6-1.5,2.1c-0.1-0.1-0.3-0.2-0.4-0.3c0.6-0.4,1.1-1,1.4-1.8h-0.9c-0.4,0.8-1.1,1.5-1.8,1.9
				c-0.1-0.1-0.2-0.3-0.4-0.3c0.6-0.4,1.2-1,1.6-1.6h-0.8c-0.3,0.3-0.7,0.6-1,0.8c-0.1-0.1-0.2-0.3-0.3-0.3c0.6-0.3,1.1-0.8,1.5-1.4
				h-1.4V8.1h5.5v0.4H278.7z M278,5.1c-0.3,0.5-0.6,0.9-0.9,1.2c-0.1-0.1-0.3-0.2-0.4-0.3c0.5-0.5,1-1.3,1.3-2.1l0.5,0.1
				c-0.1,0.2-0.2,0.4-0.3,0.6h3.7v0.4H278z M277.8,7.6V5.6h3.6v2.1H277.8z M278.3,6.4h2.6V5.9h-2.6V6.4z M278.3,7.3h2.6V6.8h-2.6
				V7.3z"/>
			<path class="st3" d="M290.8,8.1v0.5h-7.1V8.1h3.3V7.5h-2.5V7.1h2.5V6.5c-0.8,0-1.7,0.1-2.5,0.1c0-0.1,0-0.3-0.1-0.4h-0.5V4.8h3.2
				c-0.1-0.2-0.3-0.5-0.4-0.7l0.5-0.2c0.2,0.3,0.4,0.6,0.5,0.9h2.9v1.4h-0.5v0c-0.7,0.1-1.6,0.2-2.6,0.3v0.6h2.6v0.4h-2.6v0.6H290.8
				z M284.4,6.2c0.8,0,1.7,0,2.6-0.1V5.5h0.5v0.6c0.9-0.1,1.7-0.1,2.2-0.3l0.3,0.3V5.3h-5.6V6.2z M284.8,9.1h4.9v2.3h-0.5v-0.3h-3.8
				v0.3h-0.5V9.1z M285.4,9.5v1.1h3.8V9.5H285.4z"/>
			<path class="st3" d="M297,8.3v0.4h2v2.7h-0.5v-0.3h-4.8v0.3h-0.5V8.7h2V8.3h-2.9V7.9h7.4v0.4H297z M292.8,4.6h-0.3V4.2h3.6v0.4
				h-2.9v2.3c0,0.3,0.1,0.4,0.4,0.4h1.8c0.2,0,0.5,0,0.7,0c0,0.1,0,0.3,0,0.4c-0.1,0-0.4,0-0.7,0h-1.8c-0.6,0-0.8-0.2-0.8-0.8V4.6z
				 M294.9,6.1L294.9,6.1c0.4,0.2,0.8,0.5,1,0.7l-0.2,0.3c-0.2-0.2-0.6-0.5-0.9-0.7c-0.2,0.3-0.4,0.5-1,0.7
				c-0.1-0.1-0.2-0.2-0.3-0.3c0.6-0.2,0.9-0.5,1-0.8h-1V5.8h1.1V5.7V5.3H294c-0.1,0.1-0.2,0.3-0.3,0.4c-0.1,0-0.2-0.1-0.3-0.2
				c0.3-0.3,0.5-0.6,0.6-0.9l0.4,0.1c0,0.1-0.1,0.2-0.1,0.3h1.7v0.3h-0.9v0.4v0.1h1.1v0.3H294.9z M298.5,10.7V9.8h-0.1h-1.1
				c-0.6,0-0.7-0.1-0.7-0.5V9h-0.9c-0.1,0.4-0.5,0.7-1.6,0.9c0-0.1-0.2-0.3-0.2-0.3c1-0.1,1.3-0.3,1.4-0.6h-1.5v1.7H298.5z
				 M294.4,10.1h3.4v0.3h-3.4V10.1z M296.6,8.3h-0.9v0.4h0.9V8.3z M296.3,5.8c-0.1-0.1-0.2-0.3-0.3-0.3c0.6-0.2,0.7-0.5,0.7-0.8V4.2
				h1.9V5c0,0.2,0,0.2,0.1,0.2h0.4c0.1,0,0.2,0,0.3,0c0,0.1,0,0.3,0,0.4c-0.1,0-0.2,0-0.3,0h-0.5c-0.4,0-0.5-0.2-0.5-0.6V4.6h-1v0
				C297.2,5,297.1,5.4,296.3,5.8l2.4,0l0.1,0l0.3,0.1c-0.2,0.4-0.5,0.8-0.8,1.1c0.4,0.2,0.8,0.4,1,0.5l-0.2,0.3
				c-0.3-0.2-0.7-0.4-1.2-0.6c-0.4,0.3-1,0.5-1.5,0.6c0-0.1-0.2-0.3-0.2-0.4c0.4-0.1,0.9-0.3,1.3-0.5c-0.3-0.2-0.7-0.3-1-0.5
				l0.2-0.3c0.4,0.1,0.8,0.3,1.2,0.5c0.2-0.2,0.5-0.4,0.6-0.6h-2.1L296.3,5.8L296.3,5.8z M297,9v0.3c0,0.2,0,0.2,0.3,0.2h1
				c0.1,0,0.1,0,0.2,0V9H297z"/>
			<path class="st3" d="M302.8,5.2v2.1c0,1.2-0.2,2.9-1.1,4c-0.1-0.1-0.3-0.3-0.4-0.4c0.6-0.7,0.9-1.7,1-2.6c-0.3,0.2-0.7,0.4-1,0.6
				l-0.2-0.5c0.3-0.1,0.8-0.4,1.2-0.6c0-0.2,0-0.4,0-0.6V4.8h2.9c-0.1-0.2-0.2-0.5-0.2-0.7l0.5-0.1c0.1,0.2,0.2,0.5,0.3,0.8h2.8v0.5
				H302.8z M301.7,7.2c-0.1-0.4-0.3-1.1-0.5-1.6l0.4-0.2c0.2,0.5,0.4,1.2,0.5,1.6L301.7,7.2z M308.3,6.8c-0.2,0.2-0.5,0.4-0.7,0.6
				c0.3,0.2,0.7,0.4,1.1,0.6c-0.1,0.1-0.3,0.3-0.3,0.4c-0.2-0.1-0.5-0.2-0.7-0.4v1.7H306v1.3c0,0.3,0,0.4-0.3,0.5
				c-0.2,0.1-0.5,0.1-1.1,0.1c0-0.1-0.1-0.3-0.2-0.4c0.4,0,0.8,0,0.9,0c0.1,0,0.1,0,0.1-0.1V9.6h-1.5V7.9c-0.2,0.2-0.5,0.3-0.7,0.4
				c-0.1-0.1-0.2-0.3-0.3-0.4c0.4-0.2,0.7-0.4,1-0.6c-0.2-0.2-0.4-0.4-0.7-0.5l0.3-0.3c0.2,0.1,0.5,0.3,0.7,0.5
				c0.2-0.2,0.4-0.4,0.6-0.7h-1.6V6h1.9c0.1-0.2,0.2-0.5,0.3-0.7l0.5,0.1c-0.1,0.2-0.2,0.4-0.3,0.7h2.8v0.4h-1.8
				c0.2,0.2,0.4,0.5,0.6,0.7c0.2-0.2,0.5-0.4,0.6-0.6L308.3,6.8z M304.6,9.9c-0.4,0.4-0.9,1-1.3,1.3c-0.1-0.1-0.3-0.2-0.4-0.3
				c0.4-0.3,0.9-0.8,1.2-1.1L304.6,9.9z M307.1,7.8h-2.7v0.5h2.7V7.8z M307.1,8.7h-2.7v0.6h2.7V8.7z M307,7.4
				c-0.3-0.3-0.6-0.6-0.8-1h-0.8c-0.2,0.3-0.5,0.7-0.8,1H307z M307.1,9.8c0.4,0.4,1,0.9,1.3,1.2l-0.4,0.3c-0.3-0.3-0.8-0.9-1.3-1.3
				L307.1,9.8z"/>
			<path class="st3" d="M312.4,4.5c-0.2,0.7-0.5,1.5-0.8,2.1c0.6,0.7,0.7,1.3,0.7,1.8c0,0.4-0.1,0.8-0.3,0.9
				c-0.1,0.1-0.3,0.1-0.4,0.1c-0.2,0-0.4,0-0.5,0c0-0.1-0.1-0.3-0.1-0.5c0.2,0,0.3,0,0.5,0c0.1,0,0.2,0,0.2-0.1
				c0.1-0.1,0.2-0.3,0.2-0.6c0-0.5-0.1-1-0.7-1.7c0.2-0.6,0.5-1.3,0.6-1.9h-1.1v6.6h-0.5V4.3h1.7l0.1,0L312.4,4.5z M313.8,9.1
				c-0.1,0.2-0.1,0.4-0.2,0.6c0.3,0.2,0.7,0.5,0.9,0.7l-0.3,0.4c-0.2-0.2-0.5-0.5-0.9-0.7c-0.3,0.5-0.8,1-1.2,1.3
				c-0.1-0.1-0.3-0.3-0.4-0.4c0.7-0.4,1.3-1.2,1.6-2L313.8,9.1z M315.1,4.1c-0.1,0.1-0.1,0.2-0.2,0.3c0.6,0.6,1.7,1.1,2.5,1.5
				c-0.1,0.1-0.2,0.3-0.3,0.5c-0.8-0.4-1.8-1-2.5-1.6c-0.5,0.6-1.3,1.2-2,1.7c-0.1-0.1-0.3-0.3-0.4-0.4c1-0.5,1.9-1.3,2.3-2.1
				L315.1,4.1z M312.6,6.9h1.8v1.9h-1.8V6.9z M313.1,8.4h0.9V7.3h-0.9V8.4z M315.9,6.3h-2.4V5.8h2.4V6.3z M316.1,9.1
				c0,0.3-0.1,0.5-0.2,0.7c0.5,0.3,1.1,0.8,1.4,1.1l-0.3,0.4c-0.3-0.3-0.8-0.7-1.3-1.1c-0.3,0.5-0.6,0.9-1,1.2
				c-0.1-0.1-0.3-0.3-0.4-0.4c0.7-0.4,1.1-1.1,1.3-2L316.1,9.1z M316.8,8.8H315V6.9h1.8V8.8z M316.4,7.3h-1v1.1h1V7.3z"/>
		</g>
		<g class="st2">
			<path class="st4" d="M55.5,23.4h-2.6v1.3h-0.5V23h3.1v-0.5h-2.8V22h6.1v0.4h-2.8V23h3.2v1.7h-0.5v-1.3h-2.6v1.9h-0.5V23.4z
				 M58.5,28.6c0.4,0,0.5-0.1,0.6-1c0.1,0.1,0.3,0.2,0.5,0.2c-0.1,1-0.3,1.2-1,1.2h-1.9c-0.9,0-1.1-0.1-1.1-0.8V28h-1.9v0.4h-0.5
				v-2.8h5.5V28H56v0.3c0,0.3,0.1,0.3,0.6,0.3H58.5z M53.1,24.8c0.5-0.1,1.2-0.2,1.9-0.3l0,0.3c-0.6,0.1-1.2,0.3-1.8,0.4L53.1,24.8z
				 M53.5,23.6c0.5,0.1,1.2,0.3,1.6,0.4l-0.2,0.3c-0.4-0.2-1.1-0.4-1.6-0.5L53.5,23.6z M53.6,26v0.6h1.9V26H53.6z M55.5,27.5v-0.6
				h-1.9v0.6H55.5z M58.1,26h-2v0.6h2V26z M58.1,27.5v-0.6h-2v0.6H58.1z M58.4,25.3c-0.4-0.2-1.3-0.4-1.9-0.4l0.1-0.3
				c0.6,0.1,1.5,0.2,1.9,0.4L58.4,25.3z M58.4,23.9c-0.5,0.2-1.1,0.4-1.6,0.5L56.6,24c0.5-0.1,1.2-0.4,1.6-0.5L58.4,23.9z"/>
			<path class="st4" d="M68.3,25.9h-3.4v2.5c0,0.4-0.1,0.5-0.4,0.6c-0.3,0.1-0.8,0.1-1.6,0.1c0-0.2-0.1-0.4-0.2-0.6
				c0.7,0,1.3,0,1.5,0c0.2,0,0.2-0.1,0.2-0.2v-2.5H61v-0.5h3.4v-1.2c0.7-0.3,1.5-0.8,2.1-1.3h-4.7v-0.5h5.3l0.1,0l0.4,0.3
				c-0.7,0.7-1.8,1.4-2.7,1.9v0.9h3.4V25.9z"/>
			<path class="st4" d="M72.2,21.9c-0.2,0.6-0.5,1.2-0.9,1.7v5.5h-0.5v-4.7c-0.3,0.4-0.6,0.8-0.9,1.1c-0.1-0.1-0.2-0.4-0.3-0.5
				c0.8-0.8,1.6-2,2.1-3.2L72.2,21.9z M73.6,26.7c-0.4,0.7-0.9,1.5-1.4,2c-0.1-0.1-0.3-0.2-0.4-0.3c0.5-0.5,1-1.2,1.4-1.8L73.6,26.7
				z M74.8,26.1v3h-0.5v-3h-2.4v-0.5h2.4v-1h-1.8v-2.5h4.2v2.5h-1.8v1h2.3v0.5H74.8z M73,24.1h3.1v-1.6H73V24.1z M75.7,26.6
				c0.5,0.6,1.2,1.4,1.5,1.8l-0.4,0.3c-0.3-0.5-0.9-1.3-1.4-1.9L75.7,26.6z"/>
			<path class="st4" d="M85.8,28h-3.3v1.2h-0.5V28h-3.3v-0.5h3.3v-0.7h-2.5V24h5.6v2.8h-2.6v0.7h3.3V28z M81.9,23.6h-2.6V22h2.6
				V23.6z M81.4,22.4h-1.6v0.8h1.6V22.4z M80,25.2h1.9v-0.7H80V25.2z M81.9,26.4v-0.8H80v0.8H81.9z M84.5,24.5h-2v0.7h2V24.5z
				 M84.5,25.6h-2v0.8h2V25.6z M85.2,23.6h-2.6V22h2.6V23.6z M84.7,22.4h-1.7v0.8h1.7V22.4z"/>
		</g>
		<g class="st2">
			<path class="st4" d="M109,25.7v3.4h-0.6v-0.5h-5.8v-2.9h0.6v2.4h2.3v-2.9H103v-2.8h0.6v2.2h2v-3h0.6v3h2v-2.2h0.6v2.8h-2.6v2.9
				h2.3v-2.4H109z"/>
			<path class="st4" d="M118.3,28h-3.3v1.2h-0.5V28h-3.3v-0.5h3.3v-0.7h-2.5V24h5.6v2.8h-2.6v0.7h3.3V28z M114.3,23.6h-2.6V22h2.6
				V23.6z M113.8,22.4h-1.6v0.8h1.6V22.4z M112.4,25.2h1.9v-0.7h-1.9V25.2z M114.4,26.4v-0.8h-1.9v0.8H114.4z M116.9,24.5h-2v0.7h2
				V24.5z M116.9,25.6h-2v0.8h2V25.6z M117.7,23.6H115V22h2.6V23.6z M117.2,22.4h-1.7v0.8h1.7V22.4z"/>
			<path class="st4" d="M122.1,21.9c-0.2,0.6-0.5,1.2-0.8,1.8v5.5h-0.5v-4.6c-0.3,0.4-0.5,0.7-0.8,1c-0.1-0.1-0.2-0.4-0.3-0.5
				c0.8-0.8,1.5-2,1.9-3.3L122.1,21.9z M127.1,26.3h-2.2v2.8h-0.5v-2.8H122v-0.5h2.4v-1.9H123c-0.2,0.5-0.4,0.9-0.6,1.3
				c-0.1-0.1-0.3-0.2-0.5-0.3c0.5-0.7,0.8-1.7,1-2.8l0.5,0.1c-0.1,0.4-0.2,0.8-0.3,1.2h1.2v-1.6h0.5v1.6h1.9v0.5h-1.9v1.9h2.2V26.3z
				"/>
			<path class="st4" d="M132.1,27c-0.1,0.4-0.3,0.7-0.7,1.1c0.4,0.2,0.7,0.3,1,0.5l-0.4,0.3c-0.3-0.2-0.6-0.4-1-0.5
				c-0.5,0.3-1.2,0.5-2.3,0.7c0-0.1-0.1-0.3-0.2-0.4c0.9-0.2,1.5-0.4,2-0.6c-0.4-0.2-0.9-0.4-1.3-0.5c0.1-0.2,0.3-0.3,0.4-0.5
				l-1,0.1l-0.1-0.4c0.4,0,0.8,0,1.3-0.1c0.1-0.2,0.3-0.4,0.4-0.7h-1.4v-1.3h1.5v-0.4h-1.3v-0.9h-0.5v-0.4h0.5v-0.8h1.3v-0.6h0.4
				v0.6h1.4v0.8h0.6v0.4h-0.6v0.9h-1.4v0.4h1.6v1.3h-1.7c-0.1,0.2-0.2,0.4-0.4,0.6l1.3-0.1c0,0,0-0.1,0-0.1v-0.3h0.4v0.3v0.1l0.4,0
				l0,0.4L132.1,27z M129.4,25.7h1.1v-0.5h-1.1V25.7z M129.6,22.7v0.5h0.9v-0.5H129.6z M130.5,24v-0.5h-0.9V24H130.5z M130.2,27.1
				c-0.1,0.1-0.2,0.3-0.3,0.4c0.4,0.1,0.7,0.3,1.1,0.4c0.4-0.3,0.6-0.6,0.7-0.9L130.2,27.1z M130.9,22.7v0.5h0.9v-0.5H130.9z
				 M131.8,24v-0.5h-0.9V24H131.8z M130.9,25.2v0.5h1.1v-0.5H130.9z M135.4,23.8c-0.2,1.2-0.4,2.3-0.7,3.1c0.4,0.8,0.8,1.4,1.4,1.7
				c-0.1,0.1-0.3,0.3-0.3,0.4c-0.5-0.4-1-0.9-1.3-1.6c-0.4,0.7-0.8,1.3-1.5,1.7c0-0.1-0.2-0.3-0.3-0.4c0.7-0.5,1.2-1.1,1.5-1.9
				c-0.3-0.7-0.5-1.4-0.6-2.3c-0.1,0.4-0.3,0.7-0.5,1c-0.1-0.1-0.3-0.3-0.4-0.3c0.5-0.8,0.9-2.2,1.1-3.5l0.5,0.1
				c-0.1,0.5-0.2,1-0.3,1.4h2v0.5H135.4z M133.8,23.8c0.1,0.9,0.3,1.8,0.6,2.5c0.2-0.7,0.4-1.6,0.5-2.5H133.8z"/>
		</g>
		<g class="st2">
			<path class="st4" d="M155.9,23.4h-2.6v1.3h-0.5V23h3.1v-0.5h-2.8V22h6.1v0.4h-2.8V23h3.2v1.7H159v-1.3h-2.6v1.9h-0.5V23.4z
				 M158.8,28.6c0.4,0,0.5-0.1,0.6-1c0.1,0.1,0.3,0.2,0.5,0.2c-0.1,1-0.3,1.2-1,1.2H157c-0.9,0-1.1-0.1-1.1-0.8V28H154v0.4h-0.5
				v-2.8h5.5V28h-2.6v0.3c0,0.3,0.1,0.3,0.6,0.3H158.8z M153.4,24.8c0.5-0.1,1.2-0.2,1.9-0.3l0,0.3c-0.6,0.1-1.2,0.3-1.8,0.4
				L153.4,24.8z M153.8,23.6c0.5,0.1,1.2,0.3,1.6,0.4l-0.2,0.3c-0.4-0.2-1.1-0.4-1.6-0.5L153.8,23.6z M154,26v0.6h1.9V26H154z
				 M155.9,27.5v-0.6H154v0.6H155.9z M158.4,26h-2v0.6h2V26z M158.4,27.5v-0.6h-2v0.6H158.4z M158.7,25.3c-0.4-0.2-1.3-0.4-1.9-0.4
				l0.1-0.3c0.6,0.1,1.5,0.2,1.9,0.4L158.7,25.3z M158.7,23.9c-0.5,0.2-1.1,0.4-1.6,0.5l-0.2-0.3c0.5-0.1,1.2-0.4,1.6-0.5
				L158.7,23.9z"/>
			<path class="st4" d="M168.6,25.9h-3.4v2.5c0,0.4-0.1,0.5-0.4,0.6c-0.3,0.1-0.8,0.1-1.6,0.1c0-0.2-0.1-0.4-0.2-0.6
				c0.7,0,1.3,0,1.5,0c0.2,0,0.2-0.1,0.2-0.2v-2.5h-3.4v-0.5h3.4v-1.2c0.7-0.3,1.5-0.8,2.1-1.3h-4.7v-0.5h5.3l0.1,0l0.4,0.3
				c-0.7,0.7-1.8,1.4-2.7,1.9v0.9h3.4V25.9z"/>
			<path class="st4" d="M172.5,21.9c-0.2,0.6-0.5,1.2-0.9,1.7v5.5h-0.5v-4.7c-0.3,0.4-0.6,0.8-0.9,1.1c-0.1-0.1-0.2-0.4-0.3-0.5
				c0.8-0.8,1.6-2,2.1-3.2L172.5,21.9z M174,26.7c-0.4,0.7-0.9,1.5-1.4,2c-0.1-0.1-0.3-0.2-0.4-0.3c0.5-0.5,1-1.2,1.4-1.8L174,26.7z
				 M175.1,26.1v3h-0.5v-3h-2.4v-0.5h2.4v-1h-1.8v-2.5h4.2v2.5h-1.8v1h2.3v0.5H175.1z M173.3,24.1h3.1v-1.6h-3.1V24.1z M176,26.6
				c0.5,0.6,1.2,1.4,1.5,1.8l-0.4,0.3c-0.3-0.5-0.9-1.3-1.4-1.9L176,26.6z"/>
			<path class="st4" d="M186.2,28h-3.3v1.2h-0.5V28H179v-0.5h3.3v-0.7h-2.5V24h5.6v2.8h-2.6v0.7h3.3V28z M182.2,23.6h-2.6V22h2.6
				V23.6z M181.7,22.4h-1.6v0.8h1.6V22.4z M180.3,25.2h1.9v-0.7h-1.9V25.2z M182.3,26.4v-0.8h-1.9v0.8H182.3z M184.8,24.5h-2v0.7h2
				V24.5z M184.8,25.6h-2v0.8h2V25.6z M185.6,23.6h-2.6V22h2.6V23.6z M185.1,22.4h-1.7v0.8h1.7V22.4z"/>
			<path class="st4" d="M191.2,27.5c0,0.1,0,0.4,0,0.5c-2.3,0.6-2.6,0.7-2.8,0.9c0-0.1-0.2-0.4-0.3-0.5c0.1-0.1,0.3-0.3,0.3-0.6
				v-6.1h0.6v2.5h2.1v0.5H189V28L191.2,27.5z M194.1,28.4c0.4,0,0.4-0.3,0.5-1.5c0.1,0.1,0.4,0.2,0.5,0.2c-0.1,1.3-0.2,1.8-1,1.8
				h-1.4c-0.8,0-1-0.2-1-1.1v-6.2h0.5v2.5h2.2v0.5h-2.2v3.1c0,0.4,0.1,0.5,0.5,0.5H194.1z"/>
			<path class="st4" d="M198.4,21.8c-0.2,0.5-0.4,1.1-0.6,1.6v5.7h-0.5v-4.6c-0.2,0.4-0.4,0.7-0.6,1c0-0.1-0.2-0.4-0.3-0.5
				c0.6-0.8,1.2-2,1.5-3.2L198.4,21.8z M200.9,23.9l0.3,0.1c-0.3,2.8-1.2,4.3-2.6,5.1c-0.1-0.1-0.2-0.3-0.3-0.4
				c0.7-0.3,1.3-1,1.7-1.8c-0.3-0.3-0.7-0.7-1.2-1.1c-0.1,0.2-0.2,0.4-0.4,0.5c-0.1-0.1-0.2-0.3-0.3-0.4c0.6-0.8,1-2,1.2-3.3h-0.8
				v-0.5h2.7v0.5h-1.4c-0.1,0.4-0.2,0.9-0.3,1.3L200.9,23.9L200.9,23.9z M199.4,24.5c-0.1,0.3-0.2,0.6-0.4,0.9
				c0.4,0.3,0.9,0.7,1.2,1c0.2-0.5,0.4-1.2,0.4-1.9H199.4z M202.2,27.2h-0.5v-4.5h0.5V27.2z M203.5,21.7v6.6c0,0.4-0.1,0.5-0.3,0.6
				c-0.2,0.1-0.6,0.1-1.3,0.1c0-0.2-0.1-0.4-0.2-0.5c0.5,0,1,0,1.1,0c0.1,0,0.2,0,0.2-0.2v-6.6H203.5z"/>
		</g>
		<g class="st2">
			<path class="st5" d="M55.7,46.3v-5.4c-0.3,0.3-1,0.6-1.3,0.7v-0.4c0.4-0.1,1-0.5,1.4-0.9h0.4v6H55.7z"/>
		</g>
		<g class="st2">
			<path class="st5" d="M61.9,43.2c0,1.4-0.4,3.1-1.9,3.1c-1.5,0-1.9-1.6-1.9-3.1c0-1.5,0.4-3.1,2-3.1
				C61.6,40.2,61.9,41.8,61.9,43.2z M58.6,43.3c0,1.2,0.2,2.6,1.4,2.6c1.2,0,1.5-1.4,1.5-2.7c0-1.1-0.2-2.6-1.4-2.6
				C58.8,40.6,58.6,42,58.6,43.3z"/>
		</g>
		<g class="st2">
			<path class="st5" d="M63.9,45.1c0.2,0.6,0.6,0.9,1.2,0.9c1.4,0,1.5-1.9,1.5-2.7c-0.3,0.6-0.9,0.9-1.5,0.9c-1,0-1.7-0.8-1.7-1.9
				c0-1,0.7-2,1.9-2c1.4,0,1.9,1.1,1.9,2.7c0,1.5-0.3,3.4-2,3.4c-1.1,0-1.5-0.6-1.7-1.3H63.9z M63.8,42.1c0,0.9,0.5,1.5,1.3,1.5
				c1,0,1.4-0.5,1.4-1.4c0-0.3-0.1-1.5-1.4-1.5C64.2,40.6,63.8,41.3,63.8,42.1z"/>
		</g>
		<g class="st2">
			<path class="st5" d="M68.1,47.3c0.4-0.9,0.6-1.7,0.6-2.2h0.5c-0.1,0.8-0.4,1.6-0.7,2.2H68.1z"/>
		</g>
		<g class="st2">
			<path class="st5" d="M72.8,46.3v-1.7h-2.9v-0.4l2.9-3.9h0.5v3.9h0.8L74,44.6h-0.7v1.7H72.8z M72.8,42.3c0-0.3,0-1.1,0-1.5
				c-0.2,0.4-1.7,2.3-2.4,3.3h2.3V42.3z"/>
		</g>
		<g class="st2">
			<path class="st5" d="M78.9,40.7h-2.6c-0.1,0.6-0.2,1.7-0.3,2.1c0.3-0.3,0.7-0.6,1.4-0.6c1,0,1.8,0.7,1.8,2c0,1.2-0.6,2.2-1.9,2.2
				c-1,0-1.7-0.6-1.9-1.6h0.5c0.2,0.6,0.6,1.1,1.4,1.1c0.9,0,1.4-0.7,1.4-1.7c0-0.9-0.4-1.6-1.3-1.6c-0.8,0-1.2,0.3-1.4,0.9
				l-0.5-0.1c0.2-0.8,0.4-2.5,0.5-3.2h3L78.9,40.7z"/>
		</g>
		<g class="st2">
			<path class="st5" d="M84.1,40.3v0.4c-1.1,1.4-2.1,3.7-2.4,5.5h-0.5c0.3-1.7,1.4-4.1,2.4-5.5h-3.3v-0.4H84.1z"/>
		</g>
		<g class="st2">
			<path class="st5" d="M53.7,63.2L53.7,63.2c0-0.8,0.6-1.7,1.8-2.6c1-0.8,1.3-1.1,1.3-1.8c0-0.7-0.4-1.2-1.2-1.2
				c-0.8,0-1.2,0.4-1.4,1.3h-0.5c0.1-1,0.7-1.7,1.9-1.7c1.2,0,1.7,0.8,1.7,1.6c0,0.9-0.4,1.2-1.5,2.1c-0.9,0.7-1.4,1.3-1.6,1.9h3.3
				l-0.1,0.4H53.7z"/>
			<path class="st5" d="M58.7,61.5c0-0.9,0.6-1.4,1.2-1.6c-0.6-0.2-0.9-0.7-0.9-1.3c0-0.9,0.6-1.5,1.7-1.5c1.1,0,1.7,0.7,1.7,1.5
				c0,0.6-0.3,1.1-0.9,1.3c0.7,0.2,1.1,0.8,1.1,1.6c0,1.1-0.8,1.8-2,1.8C59.5,63.3,58.7,62.6,58.7,61.5z M62.1,61.5
				c0-0.9-0.5-1.4-1.5-1.4c-1,0-1.5,0.6-1.5,1.4c0,0.8,0.5,1.4,1.5,1.4C61.5,62.8,62.1,62.4,62.1,61.5z M59.4,58.6
				c0,0.6,0.3,1.1,1.2,1.1c0.8,0,1.2-0.4,1.2-1.1c0-0.6-0.4-1.1-1.2-1.1C59.8,57.5,59.4,58,59.4,58.6z"/>
		</g>
		<g class="st2">
			<path class="st5" d="M67.6,57.2v0.4c-1.1,1.4-2.1,3.7-2.4,5.5h-0.5c0.3-1.7,1.4-4.1,2.4-5.5h-3.3v-0.4H67.6z"/>
			<path class="st5" d="M67.1,64.2c0.4-0.9,0.6-1.7,0.6-2.2h0.5c-0.1,0.8-0.4,1.6-0.7,2.2H67.1z"/>
		</g>
		<g class="st2">
			<path class="st5" d="M73.8,57.6h-2.6c-0.1,0.6-0.2,1.7-0.3,2.1c0.3-0.3,0.7-0.6,1.4-0.6c1,0,1.8,0.7,1.8,2c0,1.2-0.6,2.2-1.9,2.2
				c-1,0-1.7-0.6-1.9-1.6h0.5c0.2,0.6,0.6,1.1,1.4,1.1c0.9,0,1.4-0.7,1.4-1.7c0-0.9-0.4-1.6-1.3-1.6c-0.8,0-1.2,0.3-1.4,0.9
				l-0.5-0.1c0.2-0.8,0.4-2.5,0.5-3.2h3L73.8,57.6z"/>
		</g>
		<g class="st2">
			<path class="st5" d="M75.7,58.5c0.1-0.7,0.6-1.5,1.7-1.5c1.1,0,1.7,0.7,1.7,1.5c0,0.7-0.4,1.1-0.8,1.3v0c0.6,0.2,1.1,0.7,1.1,1.5
				c0,1-0.6,1.9-2,1.9c-1.2,0-1.8-0.8-1.9-1.6H76c0.1,0.6,0.6,1.2,1.5,1.2c1,0,1.4-0.7,1.4-1.4c0-1-0.6-1.3-1.5-1.3H77v-0.4h0.3
				c0.9,0,1.3-0.4,1.3-1.1c0-0.6-0.4-1.1-1.2-1.1c-0.8,0-1.1,0.4-1.3,1H75.7z"/>
		</g>
		<g class="st2">
			<path class="st5" d="M80.8,58.5c0.1-0.7,0.6-1.5,1.7-1.5c1.1,0,1.7,0.7,1.7,1.5c0,0.7-0.4,1.1-0.8,1.3v0c0.6,0.2,1.1,0.7,1.1,1.5
				c0,1-0.6,1.9-2,1.9c-1.2,0-1.8-0.8-1.9-1.6h0.5c0.1,0.6,0.6,1.2,1.5,1.2c1,0,1.4-0.7,1.4-1.4c0-1-0.6-1.3-1.5-1.3h-0.4v-0.4h0.3
				c0.9,0,1.3-0.4,1.3-1.1c0-0.6-0.4-1.1-1.2-1.1c-0.8,0-1.1,0.4-1.3,1H80.8z"/>
		</g>
		<g class="st2">
			<path class="st5" d="M107.4,41.5c-0.1-0.5-0.5-0.9-1.2-0.9c-1.1,0-1.5,1.1-1.6,2.6c0.2-0.5,0.7-1,1.6-1c1.2,0,1.8,0.9,1.8,2
				c0,1.1-0.6,2.1-1.9,2.1c-1.6,0-2-1.3-2-3c0-1.7,0.5-3.2,2.1-3.2c1.2,0,1.5,0.8,1.6,1.3H107.4z M107.6,44.2c0-0.7-0.3-1.6-1.3-1.6
				c-0.8,0-1.5,0.6-1.5,1.6c0,0.5,0.3,1.7,1.4,1.7C107.2,45.9,107.6,45.1,107.6,44.2z"/>
		</g>
		<g class="st2">
			<path class="st5" d="M109.4,44.6c0-0.9,0.6-1.4,1.2-1.6c-0.6-0.2-0.9-0.7-0.9-1.3c0-0.9,0.6-1.5,1.7-1.5c1.1,0,1.7,0.7,1.7,1.5
				c0,0.6-0.3,1.1-0.9,1.3c0.7,0.2,1.1,0.8,1.1,1.6c0,1.1-0.8,1.8-2,1.8C110.3,46.4,109.4,45.6,109.4,44.6z M112.9,44.6
				c0-0.9-0.5-1.4-1.5-1.4c-1,0-1.5,0.6-1.5,1.4c0,0.8,0.5,1.4,1.5,1.4C112.3,45.9,112.9,45.4,112.9,44.6z M110.2,41.7
				c0,0.6,0.3,1.1,1.2,1.1c0.8,0,1.2-0.4,1.2-1.1c0-0.6-0.4-1.1-1.2-1.1C110.5,40.6,110.2,41.1,110.2,41.7z"/>
			<path class="st5" d="M118.5,43.2c0,1.4-0.4,3.1-1.9,3.1c-1.5,0-1.9-1.6-1.9-3.1c0-1.5,0.4-3.1,2-3.1
				C118.2,40.2,118.5,41.8,118.5,43.2z M115.1,43.3c0,1.2,0.2,2.6,1.4,2.6c1.2,0,1.5-1.4,1.5-2.7c0-1.1-0.2-2.6-1.4-2.6
				C115.4,40.6,115.1,42,115.1,43.3z"/>
			<path class="st5" d="M119.1,47.3c0.4-0.9,0.6-1.7,0.6-2.2h0.5c-0.1,0.8-0.4,1.6-0.7,2.2H119.1z"/>
		</g>
		<g class="st2">
			<path class="st5" d="M122.8,46.3v-5.4c-0.3,0.3-1,0.6-1.3,0.7v-0.4c0.4-0.1,1-0.5,1.4-0.9h0.4v6H122.8z"/>
		</g>
		<g class="st2">
			<path class="st5" d="M125.3,41.6c0.1-0.7,0.6-1.5,1.7-1.5c1.1,0,1.7,0.7,1.7,1.5c0,0.7-0.4,1.1-0.8,1.3v0
				c0.6,0.2,1.1,0.7,1.1,1.5c0,1-0.6,1.9-2,1.9c-1.2,0-1.8-0.8-1.9-1.6h0.5c0.1,0.6,0.6,1.2,1.5,1.2c1,0,1.4-0.7,1.4-1.4
				c0-1-0.6-1.3-1.5-1.3h-0.4v-0.4h0.3c0.9,0,1.3-0.4,1.3-1.1c0-0.6-0.4-1.1-1.2-1.1c-0.8,0-1.1,0.4-1.3,1H125.3z"/>
		</g>
		<g class="st2">
			<path class="st5" d="M130.5,41.6c0.1-0.7,0.6-1.5,1.7-1.5c1.1,0,1.7,0.7,1.7,1.5c0,0.7-0.4,1.1-0.8,1.3v0
				c0.6,0.2,1.1,0.7,1.1,1.5c0,1-0.6,1.9-2,1.9c-1.2,0-1.8-0.8-1.9-1.6h0.5c0.1,0.6,0.6,1.2,1.5,1.2c1,0,1.4-0.7,1.4-1.4
				c0-1-0.6-1.3-1.5-1.3h-0.4v-0.4h0.3c0.9,0,1.3-0.4,1.3-1.1c0-0.6-0.4-1.1-1.2-1.1c-0.8,0-1.1,0.4-1.3,1H130.5z"/>
		</g>
		<g class="st2">
			<path class="st5" d="M107.8,58.4c-0.1-0.5-0.5-0.9-1.2-0.9c-1.1,0-1.5,1.1-1.6,2.6c0.2-0.5,0.7-1,1.6-1c1.2,0,1.8,0.9,1.8,2
				c0,1.1-0.6,2.1-1.9,2.1c-1.6,0-2-1.3-2-3c0-1.7,0.5-3.2,2.1-3.2c1.2,0,1.5,0.8,1.6,1.3H107.8z M108,61.2c0-0.7-0.3-1.6-1.3-1.6
				c-0.8,0-1.5,0.6-1.5,1.6c0,0.5,0.3,1.7,1.4,1.7C107.6,62.8,108,62,108,61.2z"/>
		</g>
		<g class="st2">
			<path class="st5" d="M109.8,61.5c0-0.9,0.6-1.4,1.2-1.6c-0.6-0.2-0.9-0.7-0.9-1.3c0-0.9,0.6-1.5,1.7-1.5c1.1,0,1.7,0.7,1.7,1.5
				c0,0.6-0.3,1.1-0.9,1.3c0.7,0.2,1.1,0.8,1.1,1.6c0,1.1-0.8,1.8-2,1.8C110.6,63.3,109.8,62.6,109.8,61.5z M113.2,61.5
				c0-0.9-0.5-1.4-1.5-1.4c-1,0-1.5,0.6-1.5,1.4c0,0.8,0.5,1.4,1.5,1.4C112.6,62.8,113.2,62.4,113.2,61.5z M110.6,58.6
				c0,0.6,0.3,1.1,1.2,1.1c0.8,0,1.2-0.4,1.2-1.1c0-0.6-0.4-1.1-1.2-1.1C110.9,57.5,110.6,58,110.6,58.6z"/>
		</g>
		<g class="st2">
			<path class="st5" d="M115.1,61.5c0-0.9,0.6-1.4,1.2-1.6c-0.6-0.2-0.9-0.7-0.9-1.3c0-0.9,0.6-1.5,1.7-1.5c1.1,0,1.7,0.7,1.7,1.5
				c0,0.6-0.3,1.1-0.9,1.3c0.7,0.2,1.1,0.8,1.1,1.6c0,1.1-0.8,1.8-2,1.8C115.9,63.3,115.1,62.6,115.1,61.5z M118.5,61.5
				c0-0.9-0.5-1.4-1.5-1.4c-1,0-1.5,0.6-1.5,1.4c0,0.8,0.5,1.4,1.5,1.4C117.9,62.8,118.5,62.4,118.5,61.5z M115.8,58.6
				c0,0.6,0.3,1.1,1.2,1.1c0.8,0,1.2-0.4,1.2-1.1c0-0.6-0.4-1.1-1.2-1.1C116.2,57.5,115.8,58,115.8,58.6z"/>
			<path class="st5" d="M119.8,64.2c0.4-0.9,0.6-1.7,0.6-2.2h0.5c-0.1,0.8-0.4,1.6-0.7,2.2H119.8z"/>
		</g>
		<g class="st2">
			<path class="st5" d="M125.4,57.2v0.4c-1.1,1.4-2.1,3.7-2.4,5.5h-0.5c0.3-1.7,1.4-4.1,2.4-5.5h-3.3v-0.4H125.4z"/>
		</g>
		<g class="st2">
			<path class="st5" d="M130,57.6h-2.6c-0.1,0.6-0.2,1.7-0.3,2.1c0.3-0.3,0.7-0.6,1.4-0.6c1,0,1.8,0.7,1.8,2c0,1.2-0.6,2.2-1.9,2.2
				c-1,0-1.7-0.6-1.9-1.6h0.5c0.2,0.6,0.6,1.1,1.4,1.1c0.9,0,1.4-0.7,1.4-1.7c0-0.9-0.4-1.6-1.3-1.6c-0.8,0-1.2,0.3-1.4,0.9
				l-0.5-0.1c0.2-0.8,0.4-2.5,0.5-3.2h3L130,57.6z"/>
			<path class="st5" d="M132.8,63.2v-5.4c-0.3,0.3-1,0.6-1.3,0.7V58c0.4-0.1,1-0.5,1.4-0.9h0.4v6H132.8z"/>
		</g>
		<g class="st2">
			<path class="st5" d="M169.2,46.3v-5.4c-0.3,0.3-1,0.6-1.3,0.7v-0.4c0.4-0.1,1-0.5,1.4-0.9h0.4v6H169.2z"/>
		</g>
		<g class="st2">
			<path class="st5" d="M174.9,41.5c-0.1-0.5-0.5-0.9-1.2-0.9c-1.1,0-1.5,1.1-1.6,2.6c0.2-0.5,0.7-1,1.6-1c1.2,0,1.8,0.9,1.8,2
				c0,1.1-0.6,2.1-1.9,2.1c-1.6,0-2-1.3-2-3c0-1.7,0.5-3.2,2.1-3.2c1.2,0,1.5,0.8,1.6,1.3H174.9z M175.1,44.2c0-0.7-0.3-1.6-1.3-1.6
				c-0.8,0-1.5,0.6-1.5,1.6c0,0.5,0.3,1.7,1.4,1.7C174.7,45.9,175.1,45.1,175.1,44.2z"/>
		</g>
		<g class="st2">
			<path class="st5" d="M177,46.3v-1.2h0.5v1.2H177z"/>
		</g>
		<g class="st2">
			<path class="st5" d="M179.4,46.3v-5.4c-0.3,0.3-1,0.6-1.3,0.7v-0.4c0.4-0.1,1-0.5,1.4-0.9h0.4v6H179.4z"/>
			<path class="st5" d="M184.4,41.9c0,0.9-0.5,1.7-1.5,1.7c-0.9,0-1.4-0.7-1.4-1.7c0-0.9,0.5-1.7,1.4-1.7
				C183.9,40.2,184.4,40.9,184.4,41.9z M182,41.9c0,0.7,0.3,1.3,1,1.3c0.6,0,1-0.5,1-1.3c0-0.8-0.4-1.3-1-1.3
				C182.4,40.6,182,41.1,182,41.9z M182.8,46.3l4-6h0.5l-4,6H182.8z M188.5,44.7c0,0.9-0.5,1.7-1.5,1.7c-1,0-1.4-0.8-1.4-1.7
				c0-0.9,0.5-1.7,1.4-1.7C188,43,188.5,43.7,188.5,44.7z M186.1,44.7c0,0.7,0.3,1.3,1,1.3c0.6,0,1-0.5,1-1.3c0-0.7-0.4-1.3-1-1.3
				C186.5,43.4,186.1,43.9,186.1,44.7z"/>
		</g>
		<g class="st2">
			<path class="st5" d="M339.8,46.3v-5.4c-0.3,0.3-1,0.6-1.3,0.7v-0.4c0.4-0.1,1-0.5,1.4-0.9h0.4v6H339.8z"/>
		</g>
		<g class="st2">
			<path class="st5" d="M342.1,44.6c0-0.9,0.6-1.4,1.2-1.6c-0.6-0.2-0.9-0.7-0.9-1.3c0-0.9,0.6-1.5,1.7-1.5c1.1,0,1.7,0.7,1.7,1.5
				c0,0.6-0.3,1.1-0.9,1.3c0.7,0.2,1.1,0.8,1.1,1.6c0,1.1-0.8,1.8-2,1.8C342.9,46.4,342.1,45.6,342.1,44.6z M345.5,44.6
				c0-0.9-0.5-1.4-1.5-1.4c-1,0-1.5,0.6-1.5,1.4c0,0.8,0.5,1.4,1.5,1.4C344.9,45.9,345.5,45.4,345.5,44.6z M342.9,41.7
				c0,0.6,0.3,1.1,1.2,1.1c0.8,0,1.2-0.4,1.2-1.1c0-0.6-0.4-1.1-1.2-1.1C343.2,40.6,342.9,41.1,342.9,41.7z"/>
			<path class="st5" d="M350.1,41.9c0,0.9-0.5,1.7-1.5,1.7c-0.9,0-1.4-0.7-1.4-1.7c0-0.9,0.5-1.7,1.4-1.7
				C349.6,40.2,350.1,40.9,350.1,41.9z M347.7,41.9c0,0.7,0.3,1.3,1,1.3c0.6,0,1-0.5,1-1.3c0-0.8-0.4-1.3-1-1.3
				C348,40.6,347.7,41.1,347.7,41.9z M348.4,46.3l4-6h0.5l-4,6H348.4z M354.2,44.7c0,0.9-0.5,1.7-1.5,1.7c-1,0-1.4-0.8-1.4-1.7
				c0-0.9,0.5-1.7,1.4-1.7C353.7,43,354.2,43.7,354.2,44.7z M351.8,44.7c0,0.7,0.3,1.3,1,1.3c0.6,0,1-0.5,1-1.3c0-0.7-0.4-1.3-1-1.3
				C352.2,43.4,351.8,43.9,351.8,44.7z"/>
		</g>
		<g class="st2">
			<path class="st5" d="M504,46.3v-5.4c-0.3,0.3-1,0.6-1.3,0.7v-0.4c0.4-0.1,1-0.5,1.4-0.9h0.4v6H504z"/>
		</g>
		<g class="st2">
			<path class="st5" d="M509.7,41.5c-0.1-0.5-0.5-0.9-1.2-0.9c-1.1,0-1.5,1.1-1.6,2.6c0.2-0.5,0.7-1,1.6-1c1.2,0,1.8,0.9,1.8,2
				c0,1.1-0.6,2.1-1.9,2.1c-1.6,0-2-1.3-2-3c0-1.7,0.5-3.2,2.1-3.2c1.2,0,1.5,0.8,1.6,1.3H509.7z M509.8,44.2c0-0.7-0.3-1.6-1.3-1.6
				c-0.8,0-1.5,0.6-1.5,1.6c0,0.5,0.3,1.7,1.4,1.7C509.5,45.9,509.8,45.1,509.8,44.2z"/>
		</g>
		<g class="st2">
			<path class="st5" d="M511.7,46.3v-1.2h0.5v1.2H511.7z"/>
		</g>
		<g class="st2">
			<path class="st5" d="M516.4,46.3v-1.7h-2.9v-0.4l2.9-3.9h0.5v3.9h0.8l-0.1,0.4h-0.7v1.7H516.4z M516.4,42.3c0-0.3,0-1.1,0-1.5
				c-0.2,0.4-1.7,2.3-2.4,3.3h2.3V42.3z"/>
		</g>
		<g class="st2">
			<path class="st5" d="M521.6,41.9c0,0.9-0.5,1.7-1.5,1.7c-0.9,0-1.4-0.7-1.4-1.7c0-0.9,0.5-1.7,1.4-1.7
				C521.1,40.2,521.6,40.9,521.6,41.9z M519.1,41.9c0,0.7,0.3,1.3,1,1.3c0.6,0,1-0.5,1-1.3c0-0.8-0.4-1.3-1-1.3
				C519.5,40.6,519.1,41.1,519.1,41.9z M519.9,46.3l4-6h0.5l-4,6H519.9z M525.7,44.7c0,0.9-0.5,1.7-1.5,1.7c-1,0-1.4-0.8-1.4-1.7
				c0-0.9,0.5-1.7,1.4-1.7C525.2,43,525.7,43.7,525.7,44.7z M523.2,44.7c0,0.7,0.3,1.3,1,1.3c0.6,0,1-0.5,1-1.3c0-0.7-0.4-1.3-1-1.3
				C523.7,43.4,523.2,43.9,523.2,44.7z"/>
		</g>
		<g class="st2">
			<path class="st5" d="M167.5,63.2v-1.7h-2.9V61l2.9-3.9h0.5v3.9h0.8l-0.1,0.4h-0.7v1.7H167.5z M167.5,59.3c0-0.3,0-1.1,0-1.5
				c-0.2,0.4-1.7,2.3-2.4,3.3h2.3V59.3z"/>
		</g>
		<g class="st2">
			<path class="st5" d="M171,63.2v-5.4c-0.3,0.3-1,0.6-1.3,0.7V58c0.4-0.1,1-0.5,1.4-0.9h0.4v6H171z"/>
		</g>
		<g class="st2">
			<path class="st5" d="M173.3,63.2V62h0.5v1.2H173.3z"/>
		</g>
		<g class="st2">
			<path class="st5" d="M178.9,57.2v0.4c-1.1,1.4-2.1,3.7-2.4,5.5H176c0.3-1.7,1.4-4.1,2.4-5.5h-3.3v-0.4H178.9z"/>
		</g>
		<g class="st2">
			<path class="st5" d="M183.5,57.6H181c-0.1,0.6-0.2,1.7-0.3,2.1c0.3-0.3,0.7-0.6,1.4-0.6c1,0,1.8,0.7,1.8,2c0,1.2-0.6,2.2-1.9,2.2
				c-1,0-1.7-0.6-1.9-1.6h0.5c0.2,0.6,0.6,1.1,1.4,1.1c0.9,0,1.4-0.7,1.4-1.7c0-0.9-0.4-1.6-1.3-1.6c-0.8,0-1.2,0.3-1.4,0.9
				l-0.5-0.1c0.2-0.8,0.4-2.5,0.5-3.2h3L183.5,57.6z"/>
		</g>
		<g class="st2">
			<path class="st5" d="M187.9,58.8c0,0.9-0.5,1.7-1.5,1.7c-0.9,0-1.4-0.7-1.4-1.7c0-0.9,0.5-1.7,1.4-1.7
				C187.3,57.1,187.9,57.8,187.9,58.8z M185.4,58.8c0,0.7,0.3,1.3,1,1.3c0.6,0,1-0.5,1-1.3c0-0.8-0.4-1.3-1-1.3
				C185.8,57.5,185.4,58,185.4,58.8z M186.2,63.2l4-6h0.5l-4,6H186.2z M192,61.6c0,0.9-0.5,1.7-1.5,1.7c-1,0-1.4-0.8-1.4-1.7
				c0-0.9,0.5-1.7,1.4-1.7C191.5,59.9,192,60.6,192,61.6z M189.5,61.6c0,0.7,0.3,1.3,1,1.3c0.6,0,1-0.5,1-1.3c0-0.7-0.4-1.3-1-1.3
				C189.9,60.3,189.5,60.8,189.5,61.6z"/>
		</g>
		<line class="st6" x1="212.6" y1="6.9" x2="212.6" y2="88.2"/>
		<line class="st7" x1="212.6" y1="0" x2="212.6" y2="20.9"/>
		<line class="st1" x1="94.4" y1="20.9" x2="94.4" y2="88.2"/>
		<line class="st1" x1="144.4" y1="20.9" x2="144.4" y2="88.2"/>
		<line class="st6" x1="44.5" y1="6.9" x2="44.5" y2="88.2"/>
		<line class="st7" x1="44.5" y1="0" x2="44.5" y2="20.9"/>
		<g class="st2">
			<path class="st4" d="M223.6,23.4H221v1.3h-0.5V23h3.1v-0.5h-2.8V22h6.1v0.4h-2.8V23h3.2v1.7h-0.5v-1.3h-2.6v1.9h-0.5V23.4z
				 M226.6,28.6c0.4,0,0.5-0.1,0.6-1c0.1,0.1,0.3,0.2,0.5,0.2c-0.1,1-0.3,1.2-1,1.2h-1.9c-0.9,0-1.1-0.1-1.1-0.8V28h-1.9v0.4h-0.5
				v-2.8h5.5V28h-2.6v0.3c0,0.3,0.1,0.3,0.6,0.3H226.6z M221.2,24.8c0.5-0.1,1.2-0.2,1.9-0.3l0,0.3c-0.6,0.1-1.2,0.3-1.8,0.4
				L221.2,24.8z M221.6,23.6c0.5,0.1,1.2,0.3,1.6,0.4l-0.2,0.3c-0.4-0.2-1.1-0.4-1.6-0.5L221.6,23.6z M221.7,26v0.6h1.9V26H221.7z
				 M223.6,27.5v-0.6h-1.9v0.6H223.6z M226.2,26h-2v0.6h2V26z M226.2,27.5v-0.6h-2v0.6H226.2z M226.5,25.3c-0.4-0.2-1.3-0.4-1.9-0.4
				l0.1-0.3c0.6,0.1,1.5,0.2,1.9,0.4L226.5,25.3z M226.5,23.9c-0.5,0.2-1.1,0.4-1.6,0.5l-0.2-0.3c0.5-0.1,1.2-0.4,1.6-0.5
				L226.5,23.9z"/>
			<path class="st4" d="M236.4,25.9H233v2.5c0,0.4-0.1,0.5-0.4,0.6c-0.3,0.1-0.8,0.1-1.6,0.1c0-0.2-0.1-0.4-0.2-0.6
				c0.7,0,1.3,0,1.5,0c0.2,0,0.2-0.1,0.2-0.2v-2.5h-3.4v-0.5h3.4v-1.2c0.7-0.3,1.5-0.8,2.1-1.3h-4.7v-0.5h5.3l0.1,0l0.4,0.3
				c-0.7,0.7-1.8,1.4-2.7,1.9v0.9h3.4V25.9z"/>
			<path class="st4" d="M240.3,21.9c-0.2,0.6-0.5,1.2-0.9,1.7v5.5h-0.5v-4.7c-0.3,0.4-0.6,0.8-0.9,1.1c-0.1-0.1-0.2-0.4-0.3-0.5
				c0.8-0.8,1.6-2,2.1-3.2L240.3,21.9z M241.7,26.7c-0.4,0.7-0.9,1.5-1.4,2c-0.1-0.1-0.3-0.2-0.4-0.3c0.5-0.5,1-1.2,1.4-1.8
				L241.7,26.7z M242.9,26.1v3h-0.5v-3h-2.4v-0.5h2.4v-1h-1.8v-2.5h4.2v2.5h-1.8v1h2.3v0.5H242.9z M241.1,24.1h3.1v-1.6h-3.1V24.1z
				 M243.8,26.6c0.5,0.6,1.2,1.4,1.5,1.8l-0.4,0.3c-0.3-0.5-0.9-1.3-1.4-1.9L243.8,26.6z"/>
			<path class="st4" d="M253.9,28h-3.3v1.2H250V28h-3.3v-0.5h3.3v-0.7h-2.5V24h5.6v2.8h-2.6v0.7h3.3V28z M250,23.6h-2.6V22h2.6V23.6
				z M249.5,22.4h-1.6v0.8h1.6V22.4z M248.1,25.2h1.9v-0.7h-1.9V25.2z M250,26.4v-0.8h-1.9v0.8H250z M252.6,24.5h-2v0.7h2V24.5z
				 M252.6,25.6h-2v0.8h2V25.6z M253.3,23.6h-2.6V22h2.6V23.6z M252.8,22.4h-1.7v0.8h1.7V22.4z"/>
		</g>
		<g class="st2">
			<path class="st4" d="M277.1,25.7v3.4h-0.6v-0.5h-5.8v-2.9h0.6v2.4h2.3v-2.9h-2.5v-2.8h0.6v2.2h2v-3h0.6v3h2v-2.2h0.6v2.8h-2.6
				v2.9h2.3v-2.4H277.1z"/>
			<path class="st4" d="M286.4,28H283v1.2h-0.5V28h-3.3v-0.5h3.3v-0.7H280V24h5.6v2.8H283v0.7h3.3V28z M282.4,23.6h-2.6V22h2.6V23.6
				z M281.9,22.4h-1.6v0.8h1.6V22.4z M280.5,25.2h1.9v-0.7h-1.9V25.2z M282.5,26.4v-0.8h-1.9v0.8H282.5z M285,24.5h-2v0.7h2V24.5z
				 M285,25.6h-2v0.8h2V25.6z M285.8,23.6h-2.6V22h2.6V23.6z M285.3,22.4h-1.7v0.8h1.7V22.4z"/>
			<path class="st4" d="M290.2,21.9c-0.2,0.6-0.5,1.2-0.8,1.8v5.5h-0.5v-4.6c-0.3,0.4-0.5,0.7-0.8,1c-0.1-0.1-0.2-0.4-0.3-0.5
				c0.8-0.8,1.5-2,1.9-3.3L290.2,21.9z M295.2,26.3H293v2.8h-0.5v-2.8h-2.4v-0.5h2.4v-1.9h-1.3c-0.2,0.5-0.4,0.9-0.6,1.3
				c-0.1-0.1-0.3-0.2-0.5-0.3c0.5-0.7,0.8-1.7,1-2.8l0.5,0.1c-0.1,0.4-0.2,0.8-0.3,1.2h1.2v-1.6h0.5v1.6h1.9v0.5H293v1.9h2.2V26.3z"
				/>
			<path class="st4" d="M300.2,27c-0.1,0.4-0.3,0.7-0.7,1.1c0.4,0.2,0.7,0.3,1,0.5l-0.4,0.3c-0.3-0.2-0.6-0.4-1-0.5
				c-0.5,0.3-1.2,0.5-2.3,0.7c0-0.1-0.1-0.3-0.2-0.4c0.9-0.2,1.5-0.4,2-0.6c-0.4-0.2-0.9-0.4-1.3-0.5c0.1-0.2,0.3-0.3,0.4-0.5
				l-1,0.1l-0.1-0.4c0.4,0,0.8,0,1.3-0.1c0.1-0.2,0.3-0.4,0.4-0.7H297v-1.3h1.5v-0.4h-1.3v-0.9h-0.5v-0.4h0.5v-0.8h1.3v-0.6h0.4v0.6
				h1.4v0.8h0.6v0.4h-0.6v0.9H299v0.4h1.6v1.3h-1.7c-0.1,0.2-0.2,0.4-0.4,0.6l1.3-0.1c0,0,0-0.1,0-0.1v-0.3h0.4v0.3v0.1l0.4,0l0,0.4
				L300.2,27z M297.5,25.7h1.1v-0.5h-1.1V25.7z M297.7,22.7v0.5h0.9v-0.5H297.7z M298.6,24v-0.5h-0.9V24H298.6z M298.3,27.1
				c-0.1,0.1-0.2,0.3-0.3,0.4c0.3,0.1,0.7,0.3,1.1,0.4c0.4-0.3,0.6-0.6,0.7-0.9L298.3,27.1z M299,22.7v0.5h0.9v-0.5H299z M299.9,24
				v-0.5H299V24H299.9z M299,25.2v0.5h1.1v-0.5H299z M303.5,23.8c-0.2,1.2-0.4,2.3-0.7,3.1c0.4,0.8,0.8,1.4,1.4,1.7
				c-0.1,0.1-0.3,0.3-0.3,0.4c-0.5-0.4-1-0.9-1.3-1.6c-0.4,0.7-0.8,1.3-1.5,1.7c0-0.1-0.2-0.3-0.3-0.4c0.7-0.5,1.2-1.1,1.5-1.9
				c-0.3-0.7-0.5-1.4-0.6-2.3c-0.1,0.4-0.3,0.7-0.5,1c-0.1-0.1-0.3-0.3-0.4-0.3c0.5-0.8,0.9-2.2,1.1-3.5l0.5,0.1
				c-0.1,0.5-0.2,1-0.3,1.4h2v0.5H303.5z M301.9,23.8c0.1,0.9,0.3,1.8,0.6,2.5c0.2-0.7,0.4-1.6,0.5-2.5H301.9z"/>
		</g>
		<g class="st2">
			<path class="st4" d="M324,23.4h-2.6v1.3h-0.5V23h3.1v-0.5h-2.8V22h6.1v0.4h-2.8V23h3.2v1.7h-0.5v-1.3h-2.6v1.9H324V23.4z
				 M326.9,28.6c0.4,0,0.5-0.1,0.6-1c0.1,0.1,0.3,0.2,0.5,0.2c-0.1,1-0.3,1.2-1,1.2h-1.9c-0.9,0-1.1-0.1-1.1-0.8V28h-1.9v0.4h-0.5
				v-2.8h5.5V28h-2.6v0.3c0,0.3,0.1,0.3,0.6,0.3H326.9z M321.5,24.8c0.5-0.1,1.2-0.2,1.9-0.3l0,0.3c-0.6,0.1-1.2,0.3-1.8,0.4
				L321.5,24.8z M321.9,23.6c0.5,0.1,1.2,0.3,1.6,0.4l-0.2,0.3c-0.4-0.2-1.1-0.4-1.6-0.5L321.9,23.6z M322.1,26v0.6h1.9V26H322.1z
				 M324,27.5v-0.6h-1.9v0.6H324z M326.5,26h-2v0.6h2V26z M326.5,27.5v-0.6h-2v0.6H326.5z M326.8,25.3c-0.4-0.2-1.3-0.4-1.9-0.4
				l0.1-0.3c0.6,0.1,1.5,0.2,1.9,0.4L326.8,25.3z M326.8,23.9c-0.5,0.2-1.1,0.4-1.6,0.5L325,24c0.5-0.1,1.2-0.4,1.6-0.5L326.8,23.9z
				"/>
			<path class="st4" d="M336.7,25.9h-3.4v2.5c0,0.4-0.1,0.5-0.4,0.6c-0.3,0.1-0.8,0.1-1.6,0.1c0-0.2-0.1-0.4-0.2-0.6
				c0.7,0,1.3,0,1.5,0c0.2,0,0.2-0.1,0.2-0.2v-2.5h-3.4v-0.5h3.4v-1.2c0.7-0.3,1.5-0.8,2.1-1.3h-4.7v-0.5h5.3l0.1,0l0.4,0.3
				c-0.7,0.7-1.8,1.4-2.7,1.9v0.9h3.4V25.9z"/>
			<path class="st4" d="M340.6,21.9c-0.2,0.6-0.5,1.2-0.9,1.7v5.5h-0.5v-4.7c-0.3,0.4-0.6,0.8-0.9,1.1c-0.1-0.1-0.2-0.4-0.3-0.5
				c0.8-0.8,1.6-2,2.1-3.2L340.6,21.9z M342.1,26.7c-0.4,0.7-0.9,1.5-1.4,2c-0.1-0.1-0.3-0.2-0.4-0.3c0.5-0.5,1-1.2,1.4-1.8
				L342.1,26.7z M343.2,26.1v3h-0.5v-3h-2.4v-0.5h2.4v-1h-1.8v-2.5h4.2v2.5h-1.8v1h2.3v0.5H343.2z M341.4,24.1h3.1v-1.6h-3.1V24.1z
				 M344.1,26.6c0.5,0.6,1.2,1.4,1.5,1.8l-0.4,0.3c-0.3-0.5-0.9-1.3-1.4-1.9L344.1,26.6z"/>
			<path class="st4" d="M354.3,28h-3.3v1.2h-0.5V28h-3.3v-0.5h3.3v-0.7h-2.5V24h5.6v2.8h-2.6v0.7h3.3V28z M350.3,23.6h-2.6V22h2.6
				V23.6z M349.8,22.4h-1.6v0.8h1.6V22.4z M348.4,25.2h1.9v-0.7h-1.9V25.2z M350.4,26.4v-0.8h-1.9v0.8H350.4z M352.9,24.5h-2v0.7h2
				V24.5z M352.9,25.6h-2v0.8h2V25.6z M353.7,23.6H351V22h2.6V23.6z M353.2,22.4h-1.7v0.8h1.7V22.4z"/>
			<path class="st4" d="M359.3,27.5c0,0.1,0,0.4,0,0.5c-2.3,0.6-2.6,0.7-2.8,0.9c0-0.1-0.2-0.4-0.3-0.5c0.1-0.1,0.3-0.3,0.3-0.6
				v-6.1h0.6v2.5h2.1v0.5h-2.1V28L359.3,27.5z M362.2,28.4c0.4,0,0.4-0.3,0.5-1.5c0.1,0.1,0.4,0.2,0.5,0.2c-0.1,1.3-0.2,1.8-1,1.8
				h-1.4c-0.8,0-1-0.2-1-1.1v-6.2h0.5v2.5h2.2v0.5h-2.2v3.1c0,0.4,0.1,0.5,0.5,0.5H362.2z"/>
			<path class="st4" d="M366.5,21.8c-0.2,0.5-0.3,1.1-0.6,1.6v5.7h-0.5v-4.6c-0.2,0.4-0.4,0.7-0.6,1c0-0.1-0.2-0.4-0.3-0.5
				c0.6-0.8,1.2-2,1.5-3.2L366.5,21.8z M369,23.9l0.3,0.1c-0.3,2.8-1.2,4.3-2.6,5.1c-0.1-0.1-0.2-0.3-0.3-0.4c0.7-0.3,1.3-1,1.7-1.8
				c-0.3-0.3-0.8-0.7-1.2-1.1c-0.1,0.2-0.2,0.4-0.4,0.5c-0.1-0.1-0.2-0.3-0.3-0.4c0.6-0.8,1-2,1.2-3.3h-0.8v-0.5h2.7v0.5h-1.4
				c-0.1,0.4-0.2,0.9-0.3,1.3L369,23.9L369,23.9z M367.5,24.5c-0.1,0.3-0.2,0.6-0.4,0.9c0.4,0.3,0.9,0.7,1.2,1
				c0.2-0.5,0.4-1.2,0.4-1.9H367.5z M370.3,27.2h-0.5v-4.5h0.5V27.2z M371.6,21.7v6.6c0,0.4-0.1,0.5-0.3,0.6
				c-0.2,0.1-0.6,0.1-1.3,0.1c0-0.2-0.1-0.4-0.2-0.5c0.5,0,1,0,1.1,0c0.1,0,0.2,0,0.2-0.2v-6.6H371.6z"/>
		</g>
		<g class="st2">
			<path class="st5" d="M224.1,46.3L224.1,46.3c0-0.8,0.6-1.7,1.8-2.6c1-0.8,1.3-1.1,1.3-1.8c0-0.7-0.4-1.2-1.2-1.2
				c-0.8,0-1.2,0.4-1.4,1.3h-0.5c0.1-1,0.7-1.7,1.9-1.7c1.2,0,1.7,0.8,1.7,1.6c0,0.9-0.4,1.2-1.5,2.1c-0.9,0.7-1.4,1.3-1.6,1.9h3.3
				l-0.1,0.4H224.1z"/>
		</g>
		<g class="st2">
			<path class="st5" d="M229.3,46.3L229.3,46.3c0-0.8,0.6-1.7,1.8-2.6c1-0.8,1.3-1.1,1.3-1.8c0-0.7-0.4-1.2-1.2-1.2
				c-0.8,0-1.2,0.4-1.4,1.3h-0.5c0.1-1,0.7-1.7,1.9-1.7c1.2,0,1.7,0.8,1.7,1.6c0,0.9-0.4,1.2-1.5,2.1c-0.9,0.7-1.4,1.3-1.6,1.9h3.3
				l-0.1,0.4H229.3z"/>
			<path class="st5" d="M234.2,47.3c0.4-0.9,0.6-1.7,0.6-2.2h0.5c-0.1,0.8-0.4,1.6-0.7,2.2H234.2z"/>
		</g>
		<g class="st2">
			<path class="st5" d="M239.5,40.7H237c-0.1,0.6-0.2,1.7-0.3,2.1c0.3-0.3,0.7-0.6,1.4-0.6c1,0,1.8,0.7,1.8,2c0,1.2-0.6,2.2-1.9,2.2
				c-1,0-1.7-0.6-1.9-1.6h0.5c0.2,0.6,0.6,1.1,1.4,1.1c0.9,0,1.4-0.7,1.4-1.7c0-0.9-0.4-1.6-1.3-1.6c-0.8,0-1.2,0.3-1.4,0.9
				l-0.5-0.1c0.2-0.8,0.4-2.5,0.5-3.2h3L239.5,40.7z"/>
		</g>
		<g class="st2">
			<path class="st5" d="M244.8,40.7h-2.6c-0.1,0.6-0.2,1.7-0.3,2.1c0.3-0.3,0.7-0.6,1.4-0.6c1,0,1.8,0.7,1.8,2
				c0,1.2-0.6,2.2-1.9,2.2c-1,0-1.7-0.6-1.9-1.6h0.5c0.2,0.6,0.6,1.1,1.4,1.1c0.9,0,1.4-0.7,1.4-1.7c0-0.9-0.4-1.6-1.3-1.6
				c-0.8,0-1.2,0.3-1.4,0.9l-0.5-0.1c0.2-0.8,0.4-2.5,0.5-3.2h3L244.8,40.7z"/>
		</g>
		<g class="st2">
			<path class="st5" d="M250.3,43.2c0,1.4-0.4,3.1-1.9,3.1c-1.5,0-1.9-1.6-1.9-3.1c0-1.5,0.4-3.1,2-3.1
				C250,40.2,250.3,41.8,250.3,43.2z M247,43.3c0,1.2,0.2,2.6,1.4,2.6c1.2,0,1.5-1.4,1.5-2.7c0-1.1-0.2-2.6-1.4-2.6
				C247.2,40.6,247,42,247,43.3z"/>
		</g>
		<g class="st2">
			<path class="st5" d="M227.9,63.2v-1.7h-2.9V61l2.9-3.9h0.5v3.9h0.8l-0.1,0.4h-0.7v1.7H227.9z M227.9,59.3c0-0.3,0-1.1,0-1.5
				c-0.2,0.4-1.7,2.3-2.4,3.3h2.3V59.3z"/>
		</g>
		<g class="st2">
			<path class="st5" d="M233.7,58.4c-0.1-0.5-0.5-0.9-1.2-0.9c-1.1,0-1.5,1.1-1.6,2.6c0.2-0.5,0.7-1,1.6-1c1.2,0,1.8,0.9,1.8,2
				c0,1.1-0.6,2.1-1.9,2.1c-1.6,0-2-1.3-2-3c0-1.7,0.5-3.2,2.1-3.2c1.2,0,1.5,0.8,1.6,1.3H233.7z M233.9,61.2c0-0.7-0.3-1.6-1.3-1.6
				c-0.8,0-1.5,0.6-1.5,1.6c0,0.5,0.3,1.7,1.4,1.7C233.5,62.8,233.9,62,233.9,61.2z"/>
			<path class="st5" d="M235.1,64.2c0.4-0.9,0.6-1.7,0.6-2.2h0.5c-0.1,0.8-0.4,1.6-0.7,2.2H235.1z"/>
		</g>
		<g class="st2">
			<path class="st5" d="M238.5,63.2v-5.4c-0.3,0.3-1,0.6-1.3,0.7V58c0.4-0.1,1-0.5,1.4-0.9h0.4v6H238.5z"/>
		</g>
		<g class="st2">
			<path class="st5" d="M244.4,57.2v0.4c-1.1,1.4-2.1,3.7-2.4,5.5h-0.5c0.3-1.7,1.4-4.1,2.4-5.5h-3.3v-0.4H244.4z"/>
		</g>
		<g class="st2">
			<path class="st5" d="M249.1,57.6h-2.6c-0.1,0.6-0.2,1.7-0.3,2.1c0.3-0.3,0.7-0.6,1.4-0.6c1,0,1.8,0.7,1.8,2
				c0,1.2-0.6,2.2-1.9,2.2c-1,0-1.7-0.6-1.9-1.6h0.5c0.2,0.6,0.6,1.1,1.4,1.1c0.9,0,1.4-0.7,1.4-1.7c0-0.9-0.4-1.6-1.3-1.6
				c-0.8,0-1.2,0.3-1.4,0.9l-0.5-0.1c0.2-0.8,0.4-2.5,0.5-3.2h3L249.1,57.6z"/>
		</g>
		<g class="st2">
			<path class="st5" d="M273.9,46.3v-5.4c-0.3,0.3-1,0.6-1.3,0.7v-0.4c0.4-0.1,1-0.5,1.4-0.9h0.4v6H273.9z"/>
		</g>
		<g class="st2">
			<path class="st5" d="M276.3,46.3L276.3,46.3c0-0.8,0.6-1.7,1.8-2.6c1-0.8,1.3-1.1,1.3-1.8c0-0.7-0.4-1.2-1.2-1.2
				c-0.8,0-1.2,0.4-1.4,1.3h-0.5c0.1-1,0.7-1.7,1.9-1.7c1.2,0,1.7,0.8,1.7,1.6c0,0.9-0.4,1.2-1.5,2.1c-0.9,0.7-1.4,1.3-1.6,1.9h3.3
				l-0.1,0.4H276.3z"/>
		</g>
		<g class="st2">
			<path class="st5" d="M284.9,40.7h-2.6c-0.1,0.6-0.2,1.7-0.3,2.1c0.3-0.3,0.7-0.6,1.4-0.6c1,0,1.8,0.7,1.8,2
				c0,1.2-0.6,2.2-1.9,2.2c-1,0-1.7-0.6-1.9-1.6h0.5c0.2,0.6,0.6,1.1,1.4,1.1c0.9,0,1.4-0.7,1.4-1.7c0-0.9-0.4-1.6-1.3-1.6
				c-0.8,0-1.2,0.3-1.4,0.9l-0.5-0.1c0.2-0.8,0.4-2.5,0.5-3.2h3L284.9,40.7z"/>
			<path class="st5" d="M285.9,47.3c0.4-0.9,0.6-1.7,0.6-2.2h0.5c-0.1,0.8-0.4,1.6-0.7,2.2H285.9z"/>
		</g>
		<g class="st2">
			<path class="st5" d="M290.8,46.3v-1.7h-2.9v-0.4l2.9-3.9h0.5v3.9h0.8l-0.1,0.4h-0.7v1.7H290.8z M290.8,42.3c0-0.3,0-1.1,0-1.5
				c-0.2,0.4-1.7,2.3-2.4,3.3h2.3V42.3z"/>
		</g>
		<g class="st2">
			<path class="st5" d="M296.9,40.7h-2.6c-0.1,0.6-0.2,1.7-0.3,2.1c0.3-0.3,0.7-0.6,1.4-0.6c1,0,1.8,0.7,1.8,2
				c0,1.2-0.6,2.2-1.9,2.2c-1,0-1.7-0.6-1.9-1.6h0.5c0.2,0.6,0.6,1.1,1.4,1.1c0.9,0,1.4-0.7,1.4-1.7c0-0.9-0.4-1.6-1.3-1.6
				c-0.8,0-1.2,0.3-1.4,0.9l-0.5-0.1c0.2-0.8,0.4-2.5,0.5-3.2h3L296.9,40.7z"/>
		</g>
		<g class="st2">
			<path class="st5" d="M302.1,40.3v0.4c-1.1,1.4-2.1,3.7-2.4,5.5h-0.5c0.3-1.7,1.4-4.1,2.4-5.5h-3.3v-0.4H302.1z"/>
		</g>
		<g class="st2">
			<path class="st5" d="M273.9,63.2v-5.4c-0.3,0.3-1,0.6-1.3,0.7V58c0.4-0.1,1-0.5,1.4-0.9h0.4v6H273.9z"/>
		</g>
		<g class="st2">
			<path class="st5" d="M276.4,58.5c0.1-0.7,0.6-1.5,1.7-1.5c1.1,0,1.7,0.7,1.7,1.5c0,0.7-0.4,1.1-0.8,1.3v0
				c0.6,0.2,1.1,0.7,1.1,1.5c0,1-0.6,1.9-2,1.9c-1.2,0-1.8-0.8-1.9-1.6h0.5c0.1,0.6,0.6,1.2,1.5,1.2c1,0,1.4-0.7,1.4-1.4
				c0-1-0.6-1.3-1.5-1.3h-0.4v-0.4h0.3c0.9,0,1.3-0.4,1.3-1.1c0-0.6-0.4-1.1-1.2-1.1c-0.8,0-1.1,0.4-1.3,1H276.4z"/>
		</g>
		<g class="st2">
			<path class="st5" d="M285.1,57.6h-2.6c-0.1,0.6-0.2,1.7-0.3,2.1c0.3-0.3,0.7-0.6,1.4-0.6c1,0,1.8,0.7,1.8,2
				c0,1.2-0.6,2.2-1.9,2.2c-1,0-1.7-0.6-1.9-1.6h0.5c0.2,0.6,0.6,1.1,1.4,1.1c0.9,0,1.4-0.7,1.4-1.7c0-0.9-0.4-1.6-1.3-1.6
				c-0.8,0-1.2,0.3-1.4,0.9l-0.5-0.1c0.2-0.8,0.4-2.5,0.5-3.2h3L285.1,57.6z"/>
			<path class="st5" d="M286.1,64.2c0.4-0.9,0.6-1.7,0.6-2.2h0.5c-0.1,0.8-0.4,1.6-0.7,2.2H286.1z"/>
		</g>
		<g class="st2">
			<path class="st5" d="M288.2,63.2L288.2,63.2c0-0.8,0.6-1.7,1.8-2.6c1-0.8,1.3-1.1,1.3-1.8c0-0.7-0.4-1.2-1.2-1.2
				c-0.8,0-1.2,0.4-1.4,1.3h-0.5c0.1-1,0.7-1.7,1.9-1.7c1.2,0,1.7,0.8,1.7,1.6c0,0.9-0.4,1.2-1.5,2.1c-0.9,0.7-1.4,1.3-1.6,1.9h3.3
				l-0.1,0.4H288.2z"/>
		</g>
		<g class="st2">
			<path class="st5" d="M293.4,63.2L293.4,63.2c0-0.8,0.6-1.7,1.8-2.6c1-0.8,1.3-1.1,1.3-1.8c0-0.7-0.4-1.2-1.2-1.2
				c-0.8,0-1.2,0.4-1.4,1.3h-0.5c0.1-1,0.7-1.7,1.9-1.7c1.2,0,1.7,0.8,1.7,1.6c0,0.9-0.4,1.2-1.5,2.1c-0.9,0.7-1.4,1.3-1.6,1.9h3.3
				l-0.1,0.4H293.4z"/>
		</g>
		<g class="st2">
			<path class="st5" d="M302.1,57.2v0.4c-1.1,1.4-2.1,3.7-2.4,5.5h-0.5c0.3-1.7,1.4-4.1,2.4-5.5h-3.3v-0.4H302.1z"/>
		</g>
		<g class="st2">
			<path class="st5" d="M333,58.5c0.1-0.7,0.6-1.5,1.7-1.5c1.1,0,1.7,0.7,1.7,1.5c0,0.7-0.4,1.1-0.8,1.3v0c0.6,0.2,1.1,0.7,1.1,1.5
				c0,1-0.6,1.9-2,1.9c-1.2,0-1.8-0.8-1.9-1.6h0.5c0.1,0.6,0.6,1.2,1.5,1.2c1,0,1.4-0.7,1.4-1.4c0-1-0.6-1.3-1.5-1.3h-0.4v-0.4h0.3
				c0.9,0,1.3-0.4,1.3-1.1c0-0.6-0.4-1.1-1.2-1.1c-0.8,0-1.1,0.4-1.3,1H333z"/>
		</g>
		<g class="st2">
			<path class="st5" d="M340.9,63.2v-1.7H338V61l2.9-3.9h0.5v3.9h0.8l-0.1,0.4h-0.7v1.7H340.9z M340.9,59.3c0-0.3,0-1.1,0-1.5
				c-0.2,0.4-1.7,2.3-2.4,3.3h2.3V59.3z"/>
		</g>
		<g class="st2">
			<path class="st5" d="M343.4,63.2V62h0.5v1.2H343.4z"/>
		</g>
		<g class="st2">
			<path class="st5" d="M345.8,63.2v-5.4c-0.3,0.3-1,0.6-1.3,0.7V58c0.4-0.1,1-0.5,1.4-0.9h0.4v6H345.8z"/>
		</g>
		<g class="st2">
			<path class="st5" d="M351.7,57.6h-2.6c-0.1,0.6-0.2,1.7-0.3,2.1c0.3-0.3,0.7-0.6,1.4-0.6c1,0,1.8,0.7,1.8,2
				c0,1.2-0.6,2.2-1.9,2.2c-1,0-1.7-0.6-1.9-1.6h0.5c0.2,0.6,0.6,1.1,1.4,1.1c0.9,0,1.4-0.7,1.4-1.7c0-0.9-0.4-1.6-1.3-1.6
				c-0.8,0-1.2,0.3-1.4,0.9l-0.5-0.1c0.2-0.8,0.4-2.5,0.5-3.2h3L351.7,57.6z"/>
		</g>
		<g class="st2">
			<path class="st5" d="M356.1,58.8c0,0.9-0.5,1.7-1.5,1.7c-0.9,0-1.4-0.7-1.4-1.7c0-0.9,0.5-1.7,1.4-1.7
				C355.5,57.1,356.1,57.8,356.1,58.8z M353.6,58.8c0,0.7,0.3,1.3,1,1.3c0.6,0,1-0.5,1-1.3c0-0.8-0.4-1.3-1-1.3
				C354,57.5,353.6,58,353.6,58.8z M354.4,63.2l4-6h0.5l-4,6H354.4z M360.2,61.6c0,0.9-0.5,1.7-1.5,1.7c-1,0-1.4-0.8-1.4-1.7
				c0-0.9,0.5-1.7,1.4-1.7C359.7,59.9,360.2,60.6,360.2,61.6z M357.7,61.6c0,0.7,0.3,1.3,1,1.3c0.6,0,1-0.5,1-1.3
				c0-0.7-0.4-1.3-1-1.3C358.1,60.3,357.7,60.8,357.7,61.6z"/>
		</g>
		<line class="st1" x1="262.5" y1="20.9" x2="262.5" y2="88.2"/>
		<line class="st1" x1="312.5" y1="20.9" x2="312.5" y2="88.2"/>
		<line class="st6" x1="380.4" y1="6.9" x2="380.4" y2="88.2"/>
		<line class="st7" x1="380.4" y1="0" x2="380.4" y2="20.9"/>
		<g class="st2">
			<path class="st4" d="M391.5,23.4h-2.6v1.3h-0.5V23h3.1v-0.5h-2.8V22h6.1v0.4H392V23h3.2v1.7h-0.5v-1.3H392v1.9h-0.5V23.4z
				 M394.4,28.6c0.4,0,0.5-0.1,0.6-1c0.1,0.1,0.3,0.2,0.5,0.2c-0.1,1-0.3,1.2-1,1.2h-1.9c-0.9,0-1.1-0.1-1.1-0.8V28h-1.9v0.4H389
				v-2.8h5.5V28H392v0.3c0,0.3,0.1,0.3,0.6,0.3H394.4z M389,24.8c0.5-0.1,1.2-0.2,1.9-0.3l0,0.3c-0.6,0.1-1.2,0.3-1.8,0.4L389,24.8z
				 M389.4,23.6c0.5,0.1,1.2,0.3,1.6,0.4l-0.2,0.3c-0.4-0.2-1.1-0.4-1.6-0.5L389.4,23.6z M389.6,26v0.6h1.9V26H389.6z M391.4,27.5
				v-0.6h-1.9v0.6H391.4z M394,26h-2v0.6h2V26z M394,27.5v-0.6h-2v0.6H394z M394.3,25.3c-0.4-0.2-1.3-0.4-1.9-0.4l0.1-0.3
				c0.6,0.1,1.5,0.2,1.9,0.4L394.3,25.3z M394.3,23.9c-0.5,0.2-1.1,0.4-1.6,0.5l-0.2-0.3c0.5-0.1,1.2-0.4,1.6-0.5L394.3,23.9z"/>
			<path class="st4" d="M404.2,25.9h-3.4v2.5c0,0.4-0.1,0.5-0.4,0.6c-0.3,0.1-0.8,0.1-1.6,0.1c0-0.2-0.1-0.4-0.2-0.6
				c0.7,0,1.3,0,1.5,0c0.2,0,0.2-0.1,0.2-0.2v-2.5h-3.4v-0.5h3.4v-1.2c0.7-0.3,1.5-0.8,2.1-1.3h-4.7v-0.5h5.3l0.1,0l0.4,0.3
				c-0.7,0.7-1.8,1.4-2.7,1.9v0.9h3.4V25.9z"/>
			<path class="st4" d="M408.1,21.9c-0.2,0.6-0.5,1.2-0.9,1.7v5.5h-0.5v-4.7c-0.3,0.4-0.6,0.8-0.9,1.1c-0.1-0.1-0.2-0.4-0.3-0.5
				c0.8-0.8,1.6-2,2.1-3.2L408.1,21.9z M409.6,26.7c-0.4,0.7-0.9,1.5-1.4,2c-0.1-0.1-0.3-0.2-0.4-0.3c0.5-0.5,1-1.2,1.4-1.8
				L409.6,26.7z M410.7,26.1v3h-0.5v-3h-2.4v-0.5h2.4v-1h-1.8v-2.5h4.2v2.5h-1.8v1h2.3v0.5H410.7z M408.9,24.1h3.1v-1.6h-3.1V24.1z
				 M411.6,26.6c0.5,0.6,1.2,1.4,1.5,1.8l-0.4,0.3c-0.3-0.5-0.9-1.3-1.4-1.9L411.6,26.6z"/>
			<path class="st4" d="M421.7,28h-3.3v1.2h-0.5V28h-3.3v-0.5h3.3v-0.7h-2.5V24h5.6v2.8h-2.6v0.7h3.3V28z M417.8,23.6h-2.6V22h2.6
				V23.6z M417.3,22.4h-1.6v0.8h1.6V22.4z M415.9,25.2h1.9v-0.7h-1.9V25.2z M417.9,26.4v-0.8h-1.9v0.8H417.9z M420.4,24.5h-2v0.7h2
				V24.5z M420.4,25.6h-2v0.8h2V25.6z M421.2,23.6h-2.6V22h2.6V23.6z M420.7,22.4H419v0.8h1.7V22.4z"/>
		</g>
		<g class="st2">
			<path class="st4" d="M445,25.7v3.4h-0.6v-0.5h-5.8v-2.9h0.6v2.4h2.3v-2.9H439v-2.8h0.6v2.2h2v-3h0.6v3h2v-2.2h0.6v2.8h-2.6v2.9
				h2.3v-2.4H445z"/>
			<path class="st4" d="M454.2,28h-3.3v1.2h-0.5V28H447v-0.5h3.3v-0.7h-2.5V24h5.6v2.8h-2.6v0.7h3.3V28z M450.2,23.6h-2.6V22h2.6
				V23.6z M449.7,22.4h-1.6v0.8h1.6V22.4z M448.4,25.2h1.9v-0.7h-1.9V25.2z M450.3,26.4v-0.8h-1.9v0.8H450.3z M452.9,24.5h-2v0.7h2
				V24.5z M452.9,25.6h-2v0.8h2V25.6z M453.6,23.6h-2.6V22h2.6V23.6z M453.1,22.4h-1.7v0.8h1.7V22.4z"/>
			<path class="st4" d="M458,21.9c-0.2,0.6-0.5,1.2-0.8,1.8v5.5h-0.5v-4.6c-0.3,0.4-0.5,0.7-0.8,1c-0.1-0.1-0.2-0.4-0.3-0.5
				c0.8-0.8,1.5-2,1.9-3.3L458,21.9z M463,26.3h-2.2v2.8h-0.5v-2.8h-2.4v-0.5h2.4v-1.9h-1.3c-0.2,0.5-0.4,0.9-0.6,1.3
				c-0.1-0.1-0.3-0.2-0.5-0.3c0.5-0.7,0.8-1.7,1-2.8l0.5,0.1c-0.1,0.4-0.2,0.8-0.3,1.2h1.2v-1.6h0.5v1.6h1.9v0.5h-1.9v1.9h2.2V26.3z
				"/>
			<path class="st4" d="M468,27c-0.1,0.4-0.3,0.7-0.7,1.1c0.4,0.2,0.7,0.3,1,0.5l-0.4,0.3c-0.3-0.2-0.6-0.4-1-0.5
				c-0.5,0.3-1.2,0.5-2.3,0.7c0-0.1-0.1-0.3-0.2-0.4c0.9-0.2,1.5-0.4,2-0.6c-0.4-0.2-0.9-0.4-1.3-0.5c0.1-0.2,0.3-0.3,0.4-0.5
				l-1,0.1l-0.1-0.4c0.4,0,0.8,0,1.3-0.1c0.1-0.2,0.3-0.4,0.4-0.7h-1.4v-1.3h1.5v-0.4h-1.3v-0.9h-0.5v-0.4h0.5v-0.8h1.3v-0.6h0.4
				v0.6h1.4v0.8h0.6v0.4h-0.6v0.9h-1.4v0.4h1.6v1.3h-1.7c-0.1,0.2-0.2,0.4-0.4,0.6l1.3-0.1c0,0,0-0.1,0-0.1v-0.3h0.4v0.3v0.1l0.4,0
				l0,0.4L468,27z M465.3,25.7h1.1v-0.5h-1.1V25.7z M465.5,22.7v0.5h0.9v-0.5H465.5z M466.4,24v-0.5h-0.9V24H466.4z M466.1,27.1
				c-0.1,0.1-0.2,0.3-0.3,0.4c0.4,0.1,0.7,0.3,1.1,0.4c0.4-0.3,0.6-0.6,0.7-0.9L466.1,27.1z M466.8,22.7v0.5h0.9v-0.5H466.8z
				 M467.8,24v-0.5h-0.9V24H467.8z M466.8,25.2v0.5h1.1v-0.5H466.8z M471.3,23.8c-0.2,1.2-0.4,2.3-0.7,3.1c0.4,0.8,0.8,1.4,1.4,1.7
				c-0.1,0.1-0.3,0.3-0.3,0.4c-0.5-0.4-1-0.9-1.3-1.6c-0.4,0.7-0.8,1.3-1.5,1.7c0-0.1-0.2-0.3-0.3-0.4c0.7-0.5,1.2-1.1,1.5-1.9
				c-0.3-0.7-0.5-1.4-0.6-2.3c-0.1,0.4-0.3,0.7-0.5,1c-0.1-0.1-0.3-0.3-0.4-0.3c0.5-0.8,0.9-2.2,1.1-3.5l0.5,0.1
				c-0.1,0.5-0.2,1-0.3,1.4h2v0.5H471.3z M469.7,23.8c0.1,0.9,0.3,1.8,0.6,2.5c0.2-0.7,0.4-1.6,0.5-2.5H469.7z"/>
		</g>
		<g class="st2">
			<path class="st4" d="M491.8,23.4h-2.6v1.3h-0.5V23h3.1v-0.5H489V22h6.1v0.4h-2.8V23h3.2v1.7h-0.5v-1.3h-2.6v1.9h-0.5V23.4z
				 M494.8,28.6c0.4,0,0.5-0.1,0.6-1c0.1,0.1,0.3,0.2,0.5,0.2c-0.1,1-0.3,1.2-1,1.2h-1.9c-0.9,0-1.1-0.1-1.1-0.8V28h-1.9v0.4h-0.5
				v-2.8h5.5V28h-2.5v0.3c0,0.3,0.1,0.3,0.6,0.3H494.8z M489.4,24.8c0.5-0.1,1.2-0.2,1.9-0.3l0,0.3c-0.6,0.1-1.2,0.3-1.8,0.4
				L489.4,24.8z M489.7,23.6c0.5,0.1,1.2,0.3,1.6,0.4l-0.2,0.3c-0.4-0.2-1.1-0.4-1.6-0.5L489.7,23.6z M489.9,26v0.6h1.9V26H489.9z
				 M491.8,27.5v-0.6h-1.9v0.6H491.8z M494.3,26h-2v0.6h2V26z M494.3,27.5v-0.6h-2v0.6H494.3z M494.6,25.3c-0.4-0.2-1.3-0.4-1.9-0.4
				l0.1-0.3c0.6,0.1,1.5,0.2,1.9,0.4L494.6,25.3z M494.6,23.9c-0.5,0.2-1.1,0.4-1.6,0.5l-0.2-0.3c0.5-0.1,1.2-0.4,1.6-0.5
				L494.6,23.9z"/>
			<path class="st4" d="M504.5,25.9h-3.4v2.5c0,0.4-0.1,0.5-0.4,0.6c-0.3,0.1-0.8,0.1-1.6,0.1c0-0.2-0.1-0.4-0.2-0.6
				c0.7,0,1.3,0,1.5,0c0.2,0,0.2-0.1,0.2-0.2v-2.5h-3.4v-0.5h3.4v-1.2c0.7-0.3,1.5-0.8,2.1-1.3H498v-0.5h5.3l0.1,0l0.4,0.3
				c-0.7,0.7-1.8,1.4-2.7,1.9v0.9h3.4V25.9z"/>
			<path class="st4" d="M508.4,21.9c-0.2,0.6-0.5,1.2-0.9,1.7v5.5H507v-4.7c-0.3,0.4-0.6,0.8-0.9,1.1c-0.1-0.1-0.2-0.4-0.3-0.5
				c0.8-0.8,1.6-2,2.1-3.2L508.4,21.9z M509.9,26.7c-0.4,0.7-0.9,1.5-1.4,2c-0.1-0.1-0.3-0.2-0.4-0.3c0.5-0.5,1-1.2,1.4-1.8
				L509.9,26.7z M511,26.1v3h-0.5v-3h-2.4v-0.5h2.4v-1h-1.8v-2.5h4.2v2.5H511v1h2.3v0.5H511z M509.2,24.1h3.1v-1.6h-3.1V24.1z
				 M511.9,26.6c0.5,0.6,1.2,1.4,1.5,1.8l-0.4,0.3c-0.3-0.5-0.9-1.3-1.4-1.9L511.9,26.6z"/>
			<path class="st4" d="M522.1,28h-3.3v1.2h-0.5V28h-3.3v-0.5h3.3v-0.7h-2.5V24h5.6v2.8h-2.6v0.7h3.3V28z M518.1,23.6h-2.6V22h2.6
				V23.6z M517.6,22.4H516v0.8h1.6V22.4z M516.2,25.2h1.9v-0.7h-1.9V25.2z M518.2,26.4v-0.8h-1.9v0.8H518.2z M520.8,24.5h-2v0.7h2
				V24.5z M520.8,25.6h-2v0.8h2V25.6z M521.5,23.6h-2.6V22h2.6V23.6z M521,22.4h-1.7v0.8h1.7V22.4z"/>
			<path class="st4" d="M527.1,27.5c0,0.1,0,0.4,0,0.5c-2.3,0.6-2.6,0.7-2.8,0.9c0-0.1-0.2-0.4-0.3-0.5c0.1-0.1,0.3-0.3,0.3-0.6
				v-6.1h0.6v2.5h2.1v0.5h-2.1V28L527.1,27.5z M530,28.4c0.4,0,0.4-0.3,0.5-1.5c0.1,0.1,0.4,0.2,0.5,0.2c-0.1,1.3-0.2,1.8-1,1.8
				h-1.4c-0.8,0-1-0.2-1-1.1v-6.2h0.5v2.5h2.2v0.5h-2.2v3.1c0,0.4,0.1,0.5,0.5,0.5H530z"/>
			<path class="st4" d="M534.3,21.8c-0.2,0.5-0.4,1.1-0.6,1.6v5.7h-0.5v-4.6c-0.2,0.4-0.4,0.7-0.6,1c0-0.1-0.2-0.4-0.3-0.5
				c0.6-0.8,1.2-2,1.5-3.2L534.3,21.8z M536.8,23.9l0.3,0.1c-0.3,2.8-1.2,4.3-2.5,5.1c-0.1-0.1-0.2-0.3-0.3-0.4
				c0.7-0.3,1.3-1,1.7-1.8c-0.3-0.3-0.7-0.7-1.2-1.1c-0.1,0.2-0.2,0.4-0.4,0.5c-0.1-0.1-0.2-0.3-0.3-0.4c0.6-0.8,1-2,1.2-3.3h-0.8
				v-0.5h2.7v0.5h-1.4c-0.1,0.4-0.2,0.9-0.3,1.3L536.8,23.9L536.8,23.9z M535.3,24.5c-0.1,0.3-0.2,0.6-0.4,0.9
				c0.4,0.3,0.9,0.7,1.2,1c0.2-0.5,0.4-1.2,0.4-1.9H535.3z M538.1,27.2h-0.5v-4.5h0.5V27.2z M539.4,21.7v6.6c0,0.4-0.1,0.5-0.3,0.6
				c-0.2,0.1-0.6,0.1-1.3,0.1c0-0.2-0.1-0.4-0.2-0.5c0.5,0,1,0,1.1,0c0.1,0,0.2,0,0.2-0.2v-6.6H539.4z"/>
		</g>
		<g class="st2">
			<path class="st5" d="M391.7,46.3v-5.4c-0.3,0.3-1,0.6-1.3,0.7v-0.4c0.4-0.1,1-0.5,1.4-0.9h0.4v6H391.7z"/>
		</g>
		<g class="st2">
			<path class="st5" d="M394.2,41.6c0.1-0.7,0.6-1.5,1.7-1.5c1.1,0,1.7,0.7,1.7,1.5c0,0.7-0.4,1.1-0.8,1.3v0
				c0.6,0.2,1.1,0.7,1.1,1.5c0,1-0.6,1.9-2,1.9c-1.2,0-1.8-0.8-1.9-1.6h0.5c0.1,0.6,0.6,1.2,1.5,1.2c1,0,1.4-0.7,1.4-1.4
				c0-1-0.6-1.3-1.5-1.3h-0.4v-0.4h0.3c0.9,0,1.3-0.4,1.3-1.1c0-0.6-0.4-1.1-1.2-1.1c-0.8,0-1.1,0.4-1.3,1H394.2z"/>
		</g>
		<g class="st2">
			<path class="st5" d="M399.2,46.3L399.2,46.3c0-0.8,0.6-1.7,1.8-2.6c1-0.8,1.3-1.1,1.3-1.8c0-0.7-0.4-1.2-1.2-1.2
				c-0.8,0-1.2,0.4-1.4,1.3h-0.5c0.1-1,0.7-1.7,1.9-1.7c1.2,0,1.7,0.8,1.7,1.6c0,0.9-0.4,1.2-1.5,2.1c-0.9,0.7-1.4,1.3-1.6,1.9h3.3
				l-0.1,0.4H399.2z"/>
			<path class="st5" d="M404.1,47.3c0.4-0.9,0.6-1.7,0.6-2.2h0.5c-0.1,0.8-0.4,1.6-0.7,2.2H404.1z"/>
		</g>
		<g class="st2">
			<path class="st5" d="M409.7,43.2c0,1.4-0.4,3.1-1.9,3.1c-1.5,0-1.9-1.6-1.9-3.1c0-1.5,0.4-3.1,2-3.1
				C409.3,40.2,409.7,41.8,409.7,43.2z M406.3,43.3c0,1.2,0.2,2.6,1.4,2.6c1.2,0,1.5-1.4,1.5-2.7c0-1.1-0.2-2.6-1.4-2.6
				C406.5,40.6,406.3,42,406.3,43.3z"/>
		</g>
		<g class="st2">
			<path class="st5" d="M415,43.2c0,1.4-0.4,3.1-1.9,3.1c-1.5,0-1.9-1.6-1.9-3.1c0-1.5,0.4-3.1,2-3.1C414.7,40.2,415,41.8,415,43.2z
				 M411.6,43.3c0,1.2,0.2,2.6,1.4,2.6c1.2,0,1.5-1.4,1.5-2.7c0-1.1-0.2-2.6-1.4-2.6C411.9,40.6,411.6,42,411.6,43.3z"/>
		</g>
		<g class="st2">
			<path class="st5" d="M419.9,40.3v0.4c-1.1,1.4-2.1,3.7-2.4,5.5H417c0.3-1.7,1.4-4.1,2.4-5.5h-3.3v-0.4H419.9z"/>
		</g>
		<g class="st2">
			<path class="st5" d="M389.8,58.5c0.1-0.7,0.6-1.5,1.7-1.5c1.1,0,1.7,0.7,1.7,1.5c0,0.7-0.4,1.1-0.8,1.3v0
				c0.6,0.2,1.1,0.7,1.1,1.5c0,1-0.6,1.9-2,1.9c-1.2,0-1.8-0.8-1.9-1.6h0.5c0.1,0.6,0.6,1.2,1.5,1.2c1,0,1.4-0.7,1.4-1.4
				c0-1-0.6-1.3-1.5-1.3h-0.4v-0.4h0.3c0.9,0,1.3-0.4,1.3-1.1c0-0.6-0.4-1.1-1.2-1.1c-0.8,0-1.1,0.4-1.3,1H389.8z"/>
			<path class="st5" d="M394.7,58.5c0.1-0.7,0.6-1.5,1.7-1.5c1.1,0,1.7,0.7,1.7,1.5c0,0.7-0.4,1.1-0.8,1.3v0
				c0.6,0.2,1.1,0.7,1.1,1.5c0,1-0.6,1.9-2,1.9c-1.2,0-1.8-0.8-1.9-1.6h0.5c0.1,0.6,0.6,1.2,1.5,1.2c1,0,1.4-0.7,1.4-1.4
				c0-1-0.6-1.3-1.5-1.3H396v-0.4h0.3c0.9,0,1.3-0.4,1.3-1.1c0-0.6-0.4-1.1-1.2-1.1c-0.8,0-1.1,0.4-1.3,1H394.7z"/>
		</g>
		<g class="st2">
			<path class="st5" d="M400.1,58.5c0.1-0.7,0.6-1.5,1.7-1.5c1.1,0,1.7,0.7,1.7,1.5c0,0.7-0.4,1.1-0.8,1.3v0
				c0.6,0.2,1.1,0.7,1.1,1.5c0,1-0.6,1.9-2,1.9c-1.2,0-1.8-0.8-1.9-1.6h0.5c0.1,0.6,0.6,1.2,1.5,1.2c1,0,1.4-0.7,1.4-1.4
				c0-1-0.6-1.3-1.5-1.3h-0.4v-0.4h0.3c0.9,0,1.3-0.4,1.3-1.1c0-0.6-0.4-1.1-1.2-1.1c-0.8,0-1.1,0.4-1.3,1H400.1z"/>
			<path class="st5" d="M404.6,64.2c0.4-0.9,0.6-1.7,0.6-2.2h0.5c-0.1,0.8-0.4,1.6-0.7,2.2H404.6z"/>
			<path class="st5" d="M410.1,57.2v0.4c-1.1,1.4-2.1,3.7-2.4,5.5h-0.5c0.3-1.7,1.4-4.1,2.4-5.5h-3.3v-0.4H410.1z"/>
		</g>
		<g class="st2">
			<path class="st5" d="M415.3,60.1c0,1.4-0.4,3.1-1.9,3.1c-1.5,0-1.9-1.6-1.9-3.1c0-1.5,0.4-3.1,2-3.1
				C414.9,57.1,415.3,58.7,415.3,60.1z M411.9,60.2c0,1.2,0.2,2.6,1.4,2.6c1.2,0,1.5-1.4,1.5-2.7c0-1.1-0.2-2.6-1.4-2.6
				C412.1,57.5,411.9,58.9,411.9,60.2z"/>
		</g>
		<g class="st2">
			<path class="st5" d="M416.7,61.5c0-0.9,0.6-1.4,1.2-1.6c-0.6-0.2-0.9-0.7-0.9-1.3c0-0.9,0.6-1.5,1.7-1.5c1.1,0,1.7,0.7,1.7,1.5
				c0,0.6-0.3,1.1-0.9,1.3c0.7,0.2,1.1,0.8,1.1,1.6c0,1.1-0.8,1.8-2,1.8C417.5,63.3,416.7,62.6,416.7,61.5z M420.1,61.5
				c0-0.9-0.5-1.4-1.5-1.4c-1,0-1.5,0.6-1.5,1.4c0,0.8,0.5,1.4,1.5,1.4C419.5,62.8,420.1,62.4,420.1,61.5z M417.4,58.6
				c0,0.6,0.3,1.1,1.2,1.1c0.8,0,1.2-0.4,1.2-1.1c0-0.6-0.4-1.1-1.2-1.1C417.7,57.5,417.4,58,417.4,58.6z"/>
		</g>
		<g class="st2">
			<path class="st5" d="M439.2,44.6c0-0.9,0.6-1.4,1.2-1.6c-0.6-0.2-0.9-0.7-0.9-1.3c0-0.9,0.6-1.5,1.7-1.5c1.1,0,1.7,0.7,1.7,1.5
				c0,0.6-0.3,1.1-0.9,1.3c0.7,0.2,1.1,0.8,1.1,1.6c0,1.1-0.8,1.8-2,1.8C440,46.4,439.2,45.6,439.2,44.6z M442.6,44.6
				c0-0.9-0.5-1.4-1.5-1.4c-1,0-1.5,0.6-1.5,1.4c0,0.8,0.5,1.4,1.5,1.4C442,45.9,442.6,45.4,442.6,44.6z M439.9,41.7
				c0,0.6,0.3,1.1,1.2,1.1c0.8,0,1.2-0.4,1.2-1.1c0-0.6-0.4-1.1-1.2-1.1C440.3,40.6,439.9,41.1,439.9,41.7z"/>
		</g>
		<g class="st2">
			<path class="st5" d="M448.4,43.2c0,1.4-0.4,3.1-1.9,3.1c-1.5,0-1.9-1.6-1.9-3.1c0-1.5,0.4-3.1,2-3.1
				C448,40.2,448.4,41.8,448.4,43.2z M445,43.3c0,1.2,0.2,2.6,1.4,2.6c1.2,0,1.5-1.4,1.5-2.7c0-1.1-0.2-2.6-1.4-2.6
				C445.2,40.6,445,42,445,43.3z"/>
		</g>
		<g class="st2">
			<path class="st5" d="M453.5,40.7h-2.6c-0.1,0.6-0.2,1.7-0.3,2.1c0.3-0.3,0.7-0.6,1.4-0.6c1,0,1.8,0.7,1.8,2
				c0,1.2-0.6,2.2-1.9,2.2c-1,0-1.7-0.6-1.9-1.6h0.5c0.2,0.6,0.6,1.1,1.4,1.1c0.9,0,1.4-0.7,1.4-1.7c0-0.9-0.4-1.6-1.3-1.6
				c-0.8,0-1.2,0.3-1.4,0.9l-0.5-0.1c0.2-0.8,0.4-2.5,0.5-3.2h3L453.5,40.7z"/>
			<path class="st5" d="M454.5,47.3c0.4-0.9,0.6-1.7,0.6-2.2h0.5c-0.1,0.8-0.4,1.6-0.7,2.2H454.5z"/>
			<path class="st5" d="M460.4,40.7h-2.6c-0.1,0.6-0.2,1.7-0.3,2.1c0.3-0.3,0.7-0.6,1.4-0.6c1,0,1.8,0.7,1.8,2
				c0,1.2-0.6,2.2-1.9,2.2c-1,0-1.7-0.6-1.9-1.6h0.5c0.2,0.6,0.6,1.1,1.4,1.1c0.9,0,1.4-0.7,1.4-1.7c0-0.9-0.4-1.6-1.3-1.6
				c-0.8,0-1.2,0.3-1.4,0.9l-0.5-0.1c0.2-0.8,0.4-2.5,0.5-3.2h3L460.4,40.7z"/>
		</g>
		<g class="st2">
			<path class="st5" d="M462.4,45.1c0.2,0.6,0.6,0.9,1.2,0.9c1.4,0,1.5-1.9,1.5-2.7c-0.3,0.6-0.9,0.9-1.5,0.9c-1,0-1.8-0.8-1.8-1.9
				c0-1,0.7-2,1.9-2c1.4,0,1.9,1.1,1.9,2.7c0,1.5-0.3,3.4-2,3.4c-1.1,0-1.5-0.6-1.7-1.3H462.4z M462.3,42.1c0,0.9,0.5,1.5,1.3,1.5
				c1,0,1.4-0.5,1.4-1.4c0-0.3-0.1-1.5-1.4-1.5C462.7,40.6,462.3,41.3,462.3,42.1z"/>
		</g>
		<g class="st2">
			<path class="st5" d="M470.9,43.2c0,1.4-0.4,3.1-1.9,3.1c-1.5,0-1.9-1.6-1.9-3.1c0-1.5,0.4-3.1,2-3.1
				C470.6,40.2,470.9,41.8,470.9,43.2z M467.5,43.3c0,1.2,0.2,2.6,1.4,2.6c1.2,0,1.5-1.4,1.5-2.7c0-1.1-0.2-2.6-1.4-2.6
				C467.8,40.6,467.5,42,467.5,43.3z"/>
		</g>
		<g class="st2">
			<path class="st5" d="M439.7,61.5c0-0.9,0.6-1.4,1.2-1.6c-0.6-0.2-0.9-0.7-0.9-1.3c0-0.9,0.6-1.5,1.7-1.5c1.1,0,1.7,0.7,1.7,1.5
				c0,0.6-0.3,1.1-0.9,1.3c0.7,0.2,1.1,0.8,1.1,1.6c0,1.1-0.8,1.8-2,1.8C440.5,63.3,439.7,62.6,439.7,61.5z M443.2,61.5
				c0-0.9-0.5-1.4-1.5-1.4c-1,0-1.5,0.6-1.5,1.4c0,0.8,0.5,1.4,1.5,1.4C442.6,62.8,443.2,62.4,443.2,61.5z M440.5,58.6
				c0,0.6,0.3,1.1,1.2,1.1c0.8,0,1.2-0.4,1.2-1.1c0-0.6-0.4-1.1-1.2-1.1C440.8,57.5,440.5,58,440.5,58.6z"/>
		</g>
		<g class="st2">
			<path class="st5" d="M445,63.2L445,63.2c0-0.8,0.6-1.7,1.8-2.6c1-0.8,1.3-1.1,1.3-1.8c0-0.7-0.4-1.2-1.2-1.2
				c-0.8,0-1.2,0.4-1.4,1.3H445c0.1-1,0.7-1.7,1.9-1.7c1.2,0,1.7,0.8,1.7,1.6c0,0.9-0.4,1.2-1.5,2.1c-0.9,0.7-1.4,1.3-1.6,1.9h3.3
				l-0.1,0.4H445z"/>
		</g>
		<g class="st2">
			<path class="st5" d="M450.2,58.5c0.1-0.7,0.6-1.5,1.7-1.5c1.1,0,1.7,0.7,1.7,1.5c0,0.7-0.4,1.1-0.8,1.3v0
				c0.6,0.2,1.1,0.7,1.1,1.5c0,1-0.6,1.9-2,1.9c-1.2,0-1.8-0.8-1.9-1.6h0.5c0.1,0.6,0.6,1.2,1.5,1.2c1,0,1.4-0.7,1.4-1.4
				c0-1-0.6-1.3-1.5-1.3h-0.4v-0.4h0.3c0.9,0,1.3-0.4,1.3-1.1c0-0.6-0.4-1.1-1.2-1.1c-0.8,0-1.1,0.4-1.3,1H450.2z"/>
			<path class="st5" d="M454.7,64.2c0.4-0.9,0.6-1.7,0.6-2.2h0.5c-0.1,0.8-0.4,1.6-0.7,2.2H454.7z"/>
		</g>
		<g class="st2">
			<path class="st5" d="M457.3,62c0.2,0.6,0.6,0.9,1.2,0.9c1.4,0,1.5-1.9,1.5-2.7c-0.3,0.6-0.9,0.9-1.5,0.9c-1,0-1.8-0.8-1.8-1.9
				c0-1,0.7-2,1.9-2c1.4,0,1.9,1.1,1.9,2.7c0,1.5-0.3,3.4-2,3.4c-1.1,0-1.5-0.6-1.7-1.3H457.3z M457.3,59c0,0.9,0.5,1.5,1.3,1.5
				c1,0,1.4-0.5,1.4-1.4c0-0.3-0.1-1.5-1.4-1.5C457.7,57.5,457.3,58.2,457.3,59z"/>
		</g>
		<g class="st2">
			<path class="st5" d="M465.4,57.2v0.4c-1.1,1.4-2.1,3.7-2.4,5.5h-0.5c0.3-1.7,1.4-4.1,2.4-5.5h-3.3v-0.4H465.4z"/>
		</g>
		<g class="st2">
			<path class="st5" d="M466.5,61.5c0-0.9,0.6-1.4,1.2-1.6c-0.6-0.2-0.9-0.7-0.9-1.3c0-0.9,0.6-1.5,1.7-1.5c1.1,0,1.7,0.7,1.7,1.5
				c0,0.6-0.3,1.1-0.9,1.3c0.7,0.2,1.1,0.8,1.1,1.6c0,1.1-0.8,1.8-2,1.8C467.3,63.3,466.5,62.6,466.5,61.5z M469.9,61.5
				c0-0.9-0.5-1.4-1.5-1.4c-1,0-1.5,0.6-1.5,1.4c0,0.8,0.5,1.4,1.5,1.4C469.3,62.8,469.9,62.4,469.9,61.5z M467.3,58.6
				c0,0.6,0.3,1.1,1.2,1.1c0.8,0,1.2-0.4,1.2-1.1c0-0.6-0.4-1.1-1.2-1.1C467.6,57.5,467.3,58,467.3,58.6z"/>
		</g>
		<g class="st2">
			<path class="st5" d="M502.1,63.2v-1.7h-2.9V61l2.9-3.9h0.5v3.9h0.8l-0.1,0.4h-0.7v1.7H502.1z M502.1,59.3c0-0.3,0-1.1,0-1.5
				c-0.2,0.4-1.7,2.3-2.4,3.3h2.3V59.3z"/>
		</g>
		<g class="st2">
			<path class="st5" d="M508.5,60.1c0,1.4-0.4,3.1-1.9,3.1c-1.5,0-1.9-1.6-1.9-3.1c0-1.5,0.4-3.1,2-3.1
				C508.1,57.1,508.5,58.7,508.5,60.1z M505.1,60.2c0,1.2,0.2,2.6,1.4,2.6c1.2,0,1.5-1.4,1.5-2.7c0-1.1-0.2-2.6-1.4-2.6
				C505.3,57.5,505.1,58.9,505.1,60.2z"/>
		</g>
		<g class="st2">
			<path class="st5" d="M509.7,63.2V62h0.5v1.2H509.7z"/>
		</g>
		<g class="st2">
			<path class="st5" d="M515.3,57.6h-2.6c-0.1,0.6-0.2,1.7-0.3,2.1c0.3-0.3,0.7-0.6,1.4-0.6c1,0,1.8,0.7,1.8,2
				c0,1.2-0.6,2.2-1.9,2.2c-1,0-1.7-0.6-1.9-1.6h0.5c0.2,0.6,0.6,1.1,1.4,1.1c0.9,0,1.4-0.7,1.4-1.7c0-0.9-0.4-1.6-1.3-1.6
				c-0.8,0-1.2,0.3-1.4,0.9l-0.5-0.1c0.2-0.8,0.4-2.5,0.5-3.2h3L515.3,57.6z"/>
		</g>
		<g class="st2">
			<path class="st5" d="M520.8,60.1c0,1.4-0.4,3.1-1.9,3.1c-1.5,0-1.9-1.6-1.9-3.1c0-1.5,0.4-3.1,2-3.1
				C520.4,57.1,520.8,58.7,520.8,60.1z M517.4,60.2c0,1.2,0.2,2.6,1.4,2.6c1.2,0,1.5-1.4,1.5-2.7c0-1.1-0.2-2.6-1.4-2.6
				C517.7,57.5,517.4,58.9,517.4,60.2z"/>
			<path class="st5" d="M524.9,58.8c0,0.9-0.5,1.7-1.5,1.7c-0.9,0-1.4-0.7-1.4-1.7c0-0.9,0.5-1.7,1.4-1.7
				C524.4,57.1,524.9,57.8,524.9,58.8z M522.5,58.8c0,0.7,0.3,1.3,1,1.3c0.6,0,1-0.5,1-1.3c0-0.8-0.4-1.3-1-1.3
				C522.9,57.5,522.5,58,522.5,58.8z M523.3,63.2l4-6h0.5l-4,6H523.3z M529,61.6c0,0.9-0.5,1.7-1.5,1.7c-1,0-1.4-0.8-1.4-1.7
				c0-0.9,0.5-1.7,1.4-1.7C528.5,59.9,529,60.6,529,61.6z M526.6,61.6c0,0.7,0.3,1.3,1,1.3c0.6,0,1-0.5,1-1.3c0-0.7-0.4-1.3-1-1.3
				C527,60.3,526.6,60.8,526.6,61.6z"/>
		</g>
		<line class="st1" x1="430.3" y1="20.9" x2="430.3" y2="88.2"/>
		<line class="st1" x1="480.3" y1="20.9" x2="480.3" y2="88.2"/>
		<g class="st2">
			<path class="st4" d="M8.6,46.3L8.6,46.3c0-0.8,0.6-1.7,1.8-2.6c1-0.8,1.3-1.1,1.3-1.8c0-0.7-0.4-1.2-1.2-1.2
				c-0.8,0-1.2,0.4-1.4,1.3H8.6c0.1-1,0.7-1.7,1.9-1.7c1.2,0,1.7,0.8,1.7,1.6c0,0.9-0.4,1.2-1.5,2.1c-0.9,0.7-1.4,1.3-1.6,1.9h3.3
				l-0.1,0.4H8.6z"/>
		</g>
		<g class="st2">
			<path class="st4" d="M18,43.3c0,1.4-0.4,3.1-1.9,3.1c-1.5,0-1.9-1.6-1.9-3.1c0-1.5,0.4-3.1,2-3.1C17.6,40.3,18,41.9,18,43.3z
				 M14.6,43.4c0,1.2,0.2,2.6,1.4,2.6c1.2,0,1.5-1.4,1.5-2.7c0-1.1-0.2-2.6-1.4-2.6C14.8,40.7,14.6,42.1,14.6,43.4z"/>
		</g>
		<g class="st2">
			<path class="st4" d="M19.7,46.3L19.7,46.3c0-0.8,0.6-1.7,1.8-2.6c1-0.8,1.3-1.1,1.3-1.8c0-0.7-0.4-1.2-1.2-1.2
				c-0.8,0-1.2,0.4-1.4,1.3h-0.5c0.1-1,0.7-1.7,1.9-1.7c1.2,0,1.7,0.8,1.7,1.6c0,0.9-0.4,1.2-1.5,2.1c-0.9,0.7-1.4,1.3-1.6,1.9h3.3
				l-0.1,0.4H19.7z"/>
		</g>
		<g class="st2">
			<path class="st4" d="M29.1,43.3c0,1.4-0.4,3.1-1.9,3.1c-1.5,0-1.9-1.6-1.9-3.1c0-1.5,0.4-3.1,2-3.1
				C28.7,40.3,29.1,41.9,29.1,43.3z M25.7,43.4c0,1.2,0.2,2.6,1.4,2.6c1.2,0,1.5-1.4,1.5-2.7c0-1.1-0.2-2.6-1.4-2.6
				C26,40.7,25.7,42.1,25.7,43.4z"/>
		</g>
		<g class="st2">
			<path class="st4" d="M38.2,45.5h-3v1.9h-0.5v-1.9h-3.8v-0.5h1.3v-2.2h2.4v-1.3h-2c-0.4,0.6-0.8,1.2-1.3,1.6
				c-0.1-0.1-0.3-0.3-0.5-0.3c0.8-0.7,1.5-1.7,1.9-2.8l0.5,0.1c-0.1,0.3-0.2,0.6-0.4,0.9h4.9v0.5h-2.6v1.3h2.4v0.5h-2.4v1.7h3V45.5z
				 M34.6,44.9v-1.7h-1.9v1.7H34.6z"/>
		</g>
		<g class="st2">
			<path class="st3" d="M108.5,7.6c-0.3-0.2-0.9-0.6-1.4-0.8l0.3-0.4c0.5,0.2,1.1,0.5,1.4,0.8L108.5,7.6z M107.4,10.9
				c0.4-0.6,0.9-1.6,1.4-2.5l0.4,0.3c-0.4,0.8-0.9,1.8-1.3,2.5L107.4,10.9z M109,5.5c-0.3-0.3-0.9-0.7-1.4-0.9l0.3-0.4
				c0.5,0.2,1.1,0.6,1.4,0.9L109,5.5z M110.5,5.5c-0.3,0.5-0.6,0.9-0.9,1.2c-0.1-0.1-0.3-0.3-0.4-0.3c0.6-0.6,1.1-1.5,1.4-2.4
				l0.5,0.1c-0.1,0.3-0.2,0.6-0.4,0.8h3.8v0.5H110.5z M113.6,7.3c0,2,0.1,3.6,0.5,3.6c0.1,0,0.2-0.5,0.2-1.1
				c0.1,0.1,0.2,0.2,0.4,0.3c0,1-0.1,1.3-0.6,1.3c-0.8,0-0.9-1.5-1-3.6h-3.6V7.3H113.6z M110.2,6.6V6.1h3.6v0.5H110.2z"/>
			<path class="st3" d="M123.3,10.2h-3.4v1.2h-0.5v-1.2h-3.3V9.7h3.3V9h-2.5V5.9h2.5V5.2h-3.1V4.7h3.1V4h0.5v0.7h3.1v0.5h-3.1v0.6
				h2.5V9h-2.5v0.7h3.4V10.2z M117.4,7.2h1.9V6.3h-1.9V7.2z M119.4,8.6V7.7h-1.9v0.9H119.4z M119.9,6.3v0.9h2V6.3H119.9z M121.9,7.7
				h-2v0.9h2V7.7z"/>
			<path class="st3" d="M127.4,4.2c-0.2,0.6-0.5,1.2-0.9,1.7v5.5H126V6.7c-0.3,0.4-0.7,0.8-1,1.2c-0.1-0.1-0.2-0.4-0.3-0.5
				c0.9-0.8,1.7-2,2.3-3.3L127.4,4.2z M129.9,8v2.6h2.1v0.5h-4.8v-0.5h2.1V8H127V7.5h2.4V5.3h-1.8V4.8h4.3v0.5h-2v2.2h2.3V8H129.9z"
				/>
			<path class="st3" d="M133.8,10.9c0.4-0.4,0.8-0.9,1-1.4l0.4,0.2c-0.2,0.5-0.6,1.1-1,1.5L133.8,10.9z M140.8,5.9v0.4h-7V5.9h1.9
				c-0.1-0.2-0.2-0.5-0.3-0.7l0.5-0.1h-1.7V4.6h3c-0.1-0.2-0.2-0.4-0.3-0.6l0.5-0.1c0.1,0.2,0.3,0.5,0.4,0.7h2.6v0.4h-1.6l0.4,0.1
				c-0.1,0.3-0.3,0.5-0.4,0.7H140.8z M139.8,9.1H137c0.4,0.2,0.9,0.6,1.2,0.8l-0.3,0.3c-0.3-0.3-0.8-0.7-1.3-0.9l0.3-0.2h-2V6.8h5.1
				V9.1z M139.3,7.2h-4v0.6h4V7.2z M139.3,8.2h-4v0.6h4V8.2z M138.2,10.9c0.4,0,0.4-0.1,0.4-0.8c0.1,0.1,0.3,0.2,0.5,0.2
				c-0.1,0.9-0.2,1.1-0.9,1.1h-1.6c-0.8,0-1-0.1-1-0.7V9.6h0.5v1.1c0,0.2,0.1,0.2,0.5,0.2H138.2z M135.9,5.1
				c0.2,0.3,0.3,0.6,0.4,0.8l-0.1,0h2c0.1-0.3,0.3-0.6,0.4-0.9H135.9z M139.7,9.4c0.4,0.4,0.9,1,1.1,1.4l-0.5,0.2
				c-0.2-0.4-0.6-1-1.1-1.4L139.7,9.4z"/>
			<path class="st3" d="M144.8,4.5c-0.2,0.7-0.5,1.5-0.8,2.1c0.6,0.7,0.7,1.3,0.7,1.8c0,0.4-0.1,0.8-0.3,0.9
				c-0.1,0.1-0.3,0.1-0.4,0.1c-0.2,0-0.4,0-0.5,0c0-0.1-0.1-0.3-0.1-0.5c0.2,0,0.3,0,0.5,0c0.1,0,0.2,0,0.2-0.1
				c0.1-0.1,0.2-0.3,0.2-0.6c0-0.5-0.1-1-0.7-1.7c0.2-0.6,0.5-1.3,0.6-1.9h-1.1v6.6h-0.5V4.3h1.7l0.1,0L144.8,4.5z M146.3,9.1
				c-0.1,0.2-0.1,0.4-0.2,0.6c0.3,0.2,0.7,0.5,0.9,0.7l-0.3,0.4c-0.2-0.2-0.5-0.5-0.9-0.7c-0.3,0.5-0.8,1-1.2,1.3
				c-0.1-0.1-0.3-0.3-0.4-0.4c0.7-0.4,1.3-1.2,1.6-2L146.3,9.1z M147.5,4.1c-0.1,0.1-0.1,0.2-0.2,0.3c0.6,0.6,1.7,1.1,2.5,1.5
				c-0.1,0.1-0.2,0.3-0.3,0.5c-0.8-0.4-1.8-1-2.5-1.6c-0.5,0.6-1.3,1.2-2,1.7c-0.1-0.1-0.3-0.3-0.4-0.4c1-0.5,1.9-1.3,2.3-2.1
				L147.5,4.1z M145.1,6.9h1.8v1.9h-1.8V6.9z M145.5,8.4h0.9V7.3h-0.9V8.4z M148.3,6.3h-2.4V5.8h2.4V6.3z M148.5,9.1
				c0,0.3-0.1,0.5-0.2,0.7c0.5,0.3,1.1,0.8,1.4,1.1l-0.3,0.4c-0.3-0.3-0.8-0.7-1.3-1.1c-0.3,0.5-0.6,0.9-1,1.2
				c-0.1-0.1-0.3-0.3-0.4-0.4c0.7-0.4,1.1-1.1,1.3-2L148.5,9.1z M149.2,8.8h-1.8V6.9h1.8V8.8z M148.8,7.3h-1v1.1h1V7.3z"/>
		</g>
		<line class="st1" x1="0.1" y1="34.2" x2="548" y2="34.2"/>
		<line class="st1" x1="0.1" y1="51.8" x2="548" y2="51.8"/>
		<line class="st1" x1="0.1" y1="69.5" x2="548" y2="69.5"/>
		<g class="st2">
			<path class="st4" d="M8.6,64.1L8.6,64.1c0-0.8,0.6-1.7,1.8-2.6c1-0.8,1.3-1.1,1.3-1.8c0-0.7-0.4-1.2-1.2-1.2
				c-0.8,0-1.2,0.4-1.4,1.3H8.6c0.1-1,0.7-1.7,1.9-1.7c1.2,0,1.7,0.8,1.7,1.6c0,0.9-0.4,1.2-1.5,2.1c-0.9,0.7-1.4,1.3-1.6,1.9h3.3
				l-0.1,0.4H8.6z"/>
		</g>
		<g class="st2">
			<path class="st4" d="M18,61.1c0,1.4-0.4,3.1-1.9,3.1c-1.5,0-1.9-1.6-1.9-3.1c0-1.5,0.4-3.1,2-3.1C17.6,58,18,59.6,18,61.1z
				 M14.6,61.1c0,1.2,0.2,2.6,1.4,2.6c1.2,0,1.5-1.4,1.5-2.7c0-1.1-0.2-2.6-1.4-2.6C14.8,58.5,14.6,59.8,14.6,61.1z"/>
		</g>
		<g class="st2">
			<path class="st4" d="M19.7,64.1L19.7,64.1c0-0.8,0.6-1.7,1.8-2.6c1-0.8,1.3-1.1,1.3-1.8c0-0.7-0.4-1.2-1.2-1.2
				c-0.8,0-1.2,0.4-1.4,1.3h-0.5c0.1-1,0.7-1.7,1.9-1.7c1.2,0,1.7,0.8,1.7,1.6c0,0.9-0.4,1.2-1.5,2.1c-0.9,0.7-1.4,1.3-1.6,1.9h3.3
				l-0.1,0.4H19.7z"/>
		</g>
		<g class="st2">
			<path class="st4" d="M26.5,64.1v-5.4c-0.3,0.3-1,0.6-1.3,0.7V59c0.4-0.1,1-0.5,1.4-0.9H27v6H26.5z"/>
		</g>
		<g class="st2">
			<path class="st4" d="M36.5,63.2h-3v1.9h-0.5v-1.9h-3.8v-0.5h1.3v-2.2h2.4v-1.3h-2c-0.4,0.6-0.8,1.2-1.3,1.6
				c-0.1-0.1-0.3-0.3-0.5-0.3c0.8-0.7,1.5-1.7,1.9-2.8l0.5,0.1c-0.1,0.3-0.2,0.6-0.4,0.9h4.9v0.5h-2.6v1.3h2.4V61h-2.4v1.7h3V63.2z
				 M32.9,62.7V61H31v1.7H32.9z"/>
		</g>
		<g class="st2">
			<path class="st5" d="M56.5,81.2v-1.7h-2.9v-0.4l2.9-3.9h0.5v3.9h0.8l-0.1,0.4h-0.7v1.7H56.5z M56.5,77.3c0-0.3,0-1.1,0-1.5
				c-0.2,0.4-1.7,2.3-2.4,3.3h2.3V77.3z"/>
		</g>
		<g class="st2">
			<path class="st5" d="M58.9,81.2L58.9,81.2c0-0.8,0.6-1.7,1.8-2.6c1-0.8,1.3-1.1,1.3-1.8c0-0.7-0.4-1.2-1.2-1.2
				c-0.8,0-1.2,0.4-1.4,1.3h-0.5c0.1-1,0.7-1.7,1.9-1.7c1.2,0,1.7,0.8,1.7,1.6c0,0.9-0.4,1.2-1.5,2.1c-0.9,0.7-1.4,1.3-1.6,1.9h3.3
				l-0.1,0.4H58.9z"/>
			<path class="st5" d="M63.9,76.5c0.1-0.7,0.6-1.5,1.7-1.5c1.1,0,1.7,0.7,1.7,1.5c0,0.7-0.4,1.1-0.8,1.3v0c0.6,0.2,1.1,0.7,1.1,1.5
				c0,1-0.6,1.9-2,1.9c-1.2,0-1.8-0.8-1.9-1.6h0.5c0.1,0.6,0.6,1.2,1.5,1.2c1,0,1.4-0.7,1.4-1.4c0-1-0.6-1.3-1.5-1.3h-0.4v-0.4h0.3
				c0.9,0,1.3-0.4,1.3-1.1c0-0.6-0.4-1.1-1.2-1.1c-0.8,0-1.1,0.4-1.3,1H63.9z"/>
		</g>
		<g class="st2">
			<path class="st5" d="M68.6,82.2c0.4-0.9,0.6-1.7,0.6-2.2h0.5c-0.1,0.8-0.4,1.6-0.7,2.2H68.6z"/>
		</g>
		<g class="st2">
			<path class="st5" d="M73.8,81.2v-1.7h-2.9v-0.4l2.9-3.9h0.5v3.9H75L75,79.5h-0.7v1.7H73.8z M73.8,77.3c0-0.3,0-1.1,0-1.5
				c-0.2,0.4-1.7,2.3-2.4,3.3h2.3V77.3z"/>
		</g>
		<g class="st2">
			<path class="st5" d="M77.3,81.2v-5.4c-0.3,0.3-1,0.6-1.3,0.7V76c0.4-0.1,1-0.5,1.4-0.9h0.4v6H77.3z"/>
		</g>
		<g class="st2">
			<path class="st5" d="M83.3,75.2v0.4c-1.1,1.4-2.1,3.7-2.4,5.5h-0.5c0.3-1.7,1.4-4.1,2.4-5.5h-3.3v-0.4H83.3z"/>
		</g>
		<g class="st2">
			<path class="st5" d="M108.1,75.2v0.4c-1.1,1.4-2.1,3.7-2.4,5.5h-0.5c0.3-1.7,1.4-4.1,2.4-5.5h-3.3v-0.4H108.1z"/>
		</g>
		<g class="st2">
			<path class="st5" d="M110.7,81.2v-5.4c-0.3,0.3-1,0.6-1.3,0.7V76c0.4-0.1,1-0.5,1.4-0.9h0.4v6H110.7z"/>
		</g>
		<g class="st2">
			<path class="st5" d="M113.2,76.5c0.1-0.7,0.6-1.5,1.7-1.5c1.1,0,1.7,0.7,1.7,1.5c0,0.7-0.4,1.1-0.8,1.3v0
				c0.6,0.2,1.1,0.7,1.1,1.5c0,1-0.6,1.9-2,1.9c-1.2,0-1.8-0.8-1.9-1.6h0.5c0.1,0.6,0.6,1.2,1.5,1.2c1,0,1.4-0.7,1.4-1.4
				c0-1-0.6-1.3-1.5-1.3h-0.4v-0.4h0.3c0.9,0,1.3-0.4,1.3-1.1c0-0.6-0.4-1.1-1.2-1.1c-0.8,0-1.1,0.4-1.3,1H113.2z"/>
		</g>
		<g class="st2">
			<path class="st5" d="M117.8,82.2c0.4-0.9,0.6-1.7,0.6-2.2h0.5c-0.1,0.8-0.4,1.6-0.7,2.2H117.8z"/>
		</g>
		<g class="st2">
			<path class="st5" d="M123.9,78.1c0,1.4-0.4,3.1-1.9,3.1c-1.5,0-1.9-1.6-1.9-3.1c0-1.5,0.4-3.1,2-3.1
				C123.6,75.1,123.9,76.7,123.9,78.1z M120.5,78.2c0,1.2,0.2,2.6,1.4,2.6c1.2,0,1.5-1.4,1.5-2.7c0-1.1-0.2-2.6-1.4-2.6
				C120.8,75.5,120.5,76.9,120.5,78.2z"/>
		</g>
		<g class="st2">
			<path class="st5" d="M125.3,81.2L125.3,81.2c0-0.8,0.6-1.7,1.8-2.6c1-0.8,1.3-1.1,1.3-1.8c0-0.7-0.4-1.2-1.2-1.2
				c-0.8,0-1.2,0.4-1.4,1.3h-0.5c0.1-1,0.7-1.7,1.9-1.7c1.2,0,1.7,0.8,1.7,1.6c0,0.9-0.4,1.2-1.5,2.1c-0.9,0.7-1.4,1.3-1.6,1.9h3.3
				l-0.1,0.4H125.3z"/>
		</g>
		<g class="st2">
			<path class="st5" d="M131.7,81.2v-5.4c-0.3,0.3-1,0.6-1.3,0.7V76c0.4-0.1,1-0.5,1.4-0.9h0.4v6H131.7z"/>
		</g>
		<g class="st2">
			<path class="st5" d="M168.3,75.7h-2.6c-0.1,0.6-0.2,1.7-0.3,2.1c0.3-0.3,0.7-0.6,1.4-0.6c1,0,1.8,0.7,1.8,2
				c0,1.2-0.6,2.2-1.9,2.2c-1,0-1.7-0.6-1.9-1.6h0.5c0.2,0.6,0.6,1.1,1.4,1.1c0.9,0,1.4-0.7,1.4-1.7c0-0.9-0.4-1.6-1.3-1.6
				c-0.8,0-1.2,0.3-1.4,0.9l-0.5-0.1c0.2-0.8,0.4-2.5,0.5-3.2h3L168.3,75.7z"/>
		</g>
		<g class="st2">
			<path class="st5" d="M170.5,80c0.2,0.6,0.6,0.9,1.2,0.9c1.4,0,1.5-1.9,1.5-2.7c-0.3,0.6-0.9,0.9-1.5,0.9c-1,0-1.7-0.8-1.7-1.9
				c0-1,0.7-2,1.9-2c1.4,0,1.9,1.1,1.9,2.7c0,1.5-0.3,3.4-2,3.4c-1.1,0-1.5-0.6-1.7-1.3H170.5z M170.4,77c0,0.9,0.5,1.5,1.3,1.5
				c1,0,1.4-0.5,1.4-1.4c0-0.3-0.1-1.5-1.4-1.5C170.8,75.5,170.4,76.2,170.4,77z"/>
		</g>
		<g class="st2">
			<path class="st5" d="M175,81.2V80h0.5v1.2H175z"/>
		</g>
		<g class="st2">
			<path class="st5" d="M177.2,76.5c0.1-0.7,0.6-1.5,1.7-1.5c1.1,0,1.7,0.7,1.7,1.5c0,0.7-0.4,1.1-0.8,1.3v0
				c0.6,0.2,1.1,0.7,1.1,1.5c0,1-0.6,1.9-2,1.9c-1.2,0-1.8-0.8-1.9-1.6h0.5c0.1,0.6,0.6,1.2,1.5,1.2c1,0,1.4-0.7,1.4-1.4
				c0-1-0.6-1.3-1.5-1.3h-0.4v-0.4h0.3c0.9,0,1.3-0.4,1.3-1.1c0-0.6-0.4-1.1-1.2-1.1c-0.8,0-1.1,0.4-1.3,1H177.2z"/>
		</g>
		<g class="st2">
			<path class="st5" d="M182.2,79.5c0-0.9,0.6-1.4,1.2-1.6c-0.6-0.2-0.9-0.7-0.9-1.3c0-0.9,0.6-1.5,1.7-1.5c1.1,0,1.7,0.7,1.7,1.5
				c0,0.6-0.3,1.1-0.9,1.3c0.7,0.2,1.1,0.8,1.1,1.6c0,1.1-0.8,1.8-2,1.8C183,81.3,182.2,80.6,182.2,79.5z M185.6,79.5
				c0-0.9-0.5-1.4-1.5-1.4c-1,0-1.5,0.6-1.5,1.4c0,0.8,0.5,1.4,1.5,1.4C185,80.9,185.6,80.4,185.6,79.5z M183,76.6
				c0,0.6,0.3,1.1,1.2,1.1c0.8,0,1.2-0.4,1.2-1.1c0-0.6-0.4-1.1-1.2-1.1C183.3,75.5,183,76,183,76.6z"/>
			<path class="st5" d="M190.2,76.8c0,0.9-0.5,1.7-1.5,1.7c-0.9,0-1.4-0.7-1.4-1.7c0-0.9,0.5-1.7,1.4-1.7
				C189.7,75.1,190.2,75.8,190.2,76.8z M187.8,76.8c0,0.7,0.3,1.3,1,1.3c0.6,0,1-0.5,1-1.3c0-0.8-0.4-1.3-1-1.3
				C188.1,75.5,187.8,76,187.8,76.8z M188.5,81.2l4-6h0.5l-4,6H188.5z M194.3,79.6c0,0.9-0.5,1.7-1.5,1.7c-1,0-1.4-0.8-1.4-1.7
				c0-0.9,0.5-1.7,1.4-1.7C193.8,77.9,194.3,78.6,194.3,79.6z M191.9,79.6c0,0.7,0.3,1.3,1,1.3c0.6,0,1-0.5,1-1.3
				c0-0.7-0.4-1.3-1-1.3C192.3,78.3,191.9,78.8,191.9,79.6z"/>
		</g>
		<g class="st2">
			<path class="st5" d="M226.4,81.2v-5.4c-0.3,0.3-1,0.6-1.3,0.7V76c0.4-0.1,1-0.5,1.4-0.9h0.4v6H226.4z"/>
		</g>
		<g class="st2">
			<path class="st5" d="M228.9,76.5c0.1-0.7,0.6-1.5,1.7-1.5c1.1,0,1.7,0.7,1.7,1.5c0,0.7-0.4,1.1-0.8,1.3v0
				c0.6,0.2,1.1,0.7,1.1,1.5c0,1-0.6,1.9-2,1.9c-1.2,0-1.8-0.8-1.9-1.6h0.5c0.1,0.6,0.6,1.2,1.5,1.2c1,0,1.4-0.7,1.4-1.4
				c0-1-0.6-1.3-1.5-1.3h-0.4v-0.4h0.3c0.9,0,1.3-0.4,1.3-1.1c0-0.6-0.4-1.1-1.2-1.1c-0.8,0-1.1,0.4-1.3,1H228.9z"/>
		</g>
		<g class="st2">
			<path class="st5" d="M237.4,75.2v0.4c-1.1,1.4-2.1,3.7-2.4,5.5h-0.5c0.3-1.7,1.4-4.1,2.4-5.5h-3.3v-0.4H237.4z"/>
		</g>
		<g class="st2">
			<path class="st5" d="M237,82.2c0.4-0.9,0.6-1.7,0.6-2.2h0.5c-0.1,0.8-0.4,1.6-0.7,2.2H237z"/>
		</g>
		<g class="st2">
			<path class="st5" d="M239.5,79.5c0-0.9,0.6-1.4,1.2-1.6c-0.6-0.2-0.9-0.7-0.9-1.3c0-0.9,0.6-1.5,1.7-1.5c1.1,0,1.7,0.7,1.7,1.5
				c0,0.6-0.3,1.1-0.9,1.3c0.7,0.2,1.1,0.8,1.1,1.6c0,1.1-0.8,1.8-2,1.8C240.3,81.3,239.5,80.6,239.5,79.5z M242.9,79.5
				c0-0.9-0.5-1.4-1.5-1.4c-1,0-1.5,0.6-1.5,1.4c0,0.8,0.5,1.4,1.5,1.4C242.3,80.9,242.9,80.4,242.9,79.5z M240.3,76.6
				c0,0.6,0.3,1.1,1.2,1.1c0.8,0,1.2-0.4,1.2-1.1c0-0.6-0.4-1.1-1.2-1.1C240.6,75.5,240.3,76,240.3,76.6z"/>
		</g>
		<g class="st2">
			<path class="st5" d="M248,76.4c-0.1-0.5-0.5-0.9-1.2-0.9c-1.1,0-1.5,1.1-1.6,2.6c0.2-0.5,0.7-1,1.6-1c1.2,0,1.8,0.9,1.8,2
				c0,1.1-0.6,2.1-1.9,2.1c-1.6,0-2-1.3-2-3c0-1.7,0.5-3.2,2.1-3.2c1.2,0,1.5,0.8,1.6,1.3H248z M248.2,79.2c0-0.7-0.3-1.6-1.3-1.6
				c-0.8,0-1.5,0.6-1.5,1.6c0,0.5,0.3,1.7,1.4,1.7C247.8,80.9,248.2,80,248.2,79.2z"/>
		</g>
		<g class="st2">
			<path class="st5" d="M253.5,75.2v0.4c-1.1,1.4-2.1,3.7-2.4,5.5h-0.5c0.3-1.7,1.4-4.1,2.4-5.5h-3.3v-0.4H253.5z"/>
		</g>
		<g class="st2">
			<path class="st5" d="M272.6,81.2L272.6,81.2c0-0.8,0.6-1.7,1.8-2.6c1-0.8,1.3-1.1,1.3-1.8c0-0.7-0.4-1.2-1.2-1.2
				c-0.8,0-1.2,0.4-1.4,1.3h-0.5c0.1-1,0.7-1.7,1.9-1.7c1.2,0,1.7,0.8,1.7,1.6c0,0.9-0.4,1.2-1.5,2.1c-0.9,0.7-1.4,1.3-1.6,1.9h3.3
				l-0.1,0.4H272.6z"/>
		</g>
		<g class="st2">
			<path class="st5" d="M281.7,78.1c0,1.4-0.4,3.1-1.9,3.1c-1.5,0-1.9-1.6-1.9-3.1c0-1.5,0.4-3.1,2-3.1
				C281.3,75.1,281.7,76.7,281.7,78.1z M278.3,78.2c0,1.2,0.2,2.6,1.4,2.6c1.2,0,1.5-1.4,1.5-2.7c0-1.1-0.2-2.6-1.4-2.6
				C278.5,75.5,278.3,76.9,278.3,78.2z"/>
		</g>
		<g class="st2">
			<path class="st5" d="M283.1,81.2L283.1,81.2c0-0.8,0.6-1.7,1.8-2.6c1-0.8,1.3-1.1,1.3-1.8c0-0.7-0.4-1.2-1.2-1.2
				c-0.8,0-1.2,0.4-1.4,1.3h-0.5c0.1-1,0.7-1.7,1.9-1.7c1.2,0,1.7,0.8,1.7,1.6c0,0.9-0.4,1.2-1.5,2.1c-0.9,0.7-1.4,1.3-1.6,1.9h3.3
				l-0.1,0.4H283.1z"/>
		</g>
		<g class="st2">
			<path class="st5" d="M288,82.2c0.4-0.9,0.6-1.7,0.6-2.2h0.5c-0.1,0.8-0.4,1.6-0.7,2.2H288z"/>
		</g>
		<g class="st2">
			<path class="st5" d="M291,80c0.2,0.6,0.6,0.9,1.2,0.9c1.4,0,1.5-1.9,1.5-2.7c-0.3,0.6-0.9,0.9-1.5,0.9c-1,0-1.8-0.8-1.8-1.9
				c0-1,0.7-2,1.9-2c1.4,0,1.9,1.1,1.9,2.7c0,1.5-0.3,3.4-2,3.4c-1.1,0-1.5-0.6-1.7-1.3H291z M291,77c0,0.9,0.5,1.5,1.3,1.5
				c1,0,1.4-0.5,1.4-1.4c0-0.3-0.1-1.5-1.4-1.5C291.4,75.5,291,76.2,291,77z"/>
		</g>
		<g class="st2">
			<path class="st5" d="M298.4,81.2v-1.7h-2.9v-0.4l2.9-3.9h0.5v3.9h0.8l-0.1,0.4h-0.7v1.7H298.4z M298.4,77.3c0-0.3,0-1.1,0-1.5
				c-0.2,0.4-1.7,2.3-2.4,3.3h2.3V77.3z"/>
		</g>
		<g class="st2">
			<path class="st5" d="M301.1,76.5c0.1-0.7,0.6-1.5,1.7-1.5c1.1,0,1.7,0.7,1.7,1.5c0,0.7-0.4,1.1-0.8,1.3v0
				c0.6,0.2,1.1,0.7,1.1,1.5c0,1-0.6,1.9-2,1.9c-1.2,0-1.8-0.8-1.9-1.6h0.5c0.1,0.6,0.6,1.2,1.5,1.2c1,0,1.4-0.7,1.4-1.4
				c0-1-0.6-1.3-1.5-1.3h-0.4v-0.4h0.3c0.9,0,1.3-0.4,1.3-1.1c0-0.6-0.4-1.1-1.2-1.1c-0.8,0-1.1,0.4-1.3,1H301.1z"/>
		</g>
		<g class="st2">
			<path class="st5" d="M336,76.4c-0.1-0.5-0.5-0.9-1.2-0.9c-1.1,0-1.5,1.1-1.6,2.6c0.2-0.5,0.7-1,1.6-1c1.2,0,1.8,0.9,1.8,2
				c0,1.1-0.6,2.1-1.9,2.1c-1.6,0-2-1.3-2-3c0-1.7,0.5-3.2,2.1-3.2c1.2,0,1.5,0.8,1.6,1.3H336z M336.1,79.2c0-0.7-0.3-1.6-1.3-1.6
				c-0.8,0-1.5,0.6-1.5,1.6c0,0.5,0.3,1.7,1.4,1.7C335.8,80.9,336.1,80,336.1,79.2z"/>
		</g>
		<g class="st2">
			<path class="st5" d="M341.4,75.2v0.4c-1.1,1.4-2.1,3.7-2.4,5.5h-0.5c0.3-1.7,1.4-4.1,2.4-5.5h-3.3v-0.4H341.4z"/>
		</g>
		<g class="st2">
			<path class="st5" d="M341.6,81.2V80h0.5v1.2H341.6z"/>
		</g>
		<g class="st2">
			<path class="st5" d="M344.2,80c0.2,0.6,0.6,0.9,1.2,0.9c1.4,0,1.5-1.9,1.5-2.7c-0.3,0.6-0.9,0.9-1.5,0.9c-1,0-1.8-0.8-1.8-1.9
				c0-1,0.7-2,1.9-2c1.4,0,1.9,1.1,1.9,2.7c0,1.5-0.3,3.4-2,3.4c-1.1,0-1.5-0.6-1.7-1.3H344.2z M344.1,77c0,0.9,0.5,1.5,1.3,1.5
				c1,0,1.4-0.5,1.4-1.4c0-0.3-0.1-1.5-1.4-1.5C344.5,75.5,344.1,76.2,344.1,77z"/>
		</g>
		<g class="st2">
			<path class="st5" d="M349.1,76.5c0.1-0.7,0.6-1.5,1.7-1.5c1.1,0,1.7,0.7,1.7,1.5c0,0.7-0.4,1.1-0.8,1.3v0
				c0.6,0.2,1.1,0.7,1.1,1.5c0,1-0.6,1.9-2,1.9c-1.2,0-1.8-0.8-1.9-1.6h0.5c0.1,0.6,0.6,1.2,1.5,1.2c1,0,1.4-0.7,1.4-1.4
				c0-1-0.6-1.3-1.5-1.3h-0.4v-0.4h0.3c0.9,0,1.3-0.4,1.3-1.1c0-0.6-0.4-1.1-1.2-1.1c-0.8,0-1.1,0.4-1.3,1H349.1z"/>
			<path class="st5" d="M356.9,76.8c0,0.9-0.5,1.7-1.5,1.7c-0.9,0-1.4-0.7-1.4-1.7c0-0.9,0.5-1.7,1.4-1.7
				C356.4,75.1,356.9,75.8,356.9,76.8z M354.5,76.8c0,0.7,0.3,1.3,1,1.3c0.6,0,1-0.5,1-1.3c0-0.8-0.4-1.3-1-1.3
				C354.9,75.5,354.5,76,354.5,76.8z M355.3,81.2l4-6h0.5l-4,6H355.3z M361,79.6c0,0.9-0.5,1.7-1.5,1.7c-1,0-1.4-0.8-1.4-1.7
				c0-0.9,0.5-1.7,1.4-1.7C360.5,77.9,361,78.6,361,79.6z M358.6,79.6c0,0.7,0.3,1.3,1,1.3c0.6,0,1-0.5,1-1.3c0-0.7-0.4-1.3-1-1.3
				C359,78.3,358.6,78.8,358.6,79.6z"/>
		</g>
		<g class="st2">
			<path class="st5" d="M393.2,75.7h-2.6c-0.1,0.6-0.2,1.7-0.3,2.1c0.3-0.3,0.7-0.6,1.4-0.6c1,0,1.8,0.7,1.8,2
				c0,1.2-0.6,2.2-1.9,2.2c-1,0-1.7-0.6-1.9-1.6h0.5c0.2,0.6,0.6,1.1,1.4,1.1c0.9,0,1.4-0.7,1.4-1.7c0-0.9-0.4-1.6-1.3-1.6
				c-0.8,0-1.2,0.3-1.4,0.9l-0.5-0.1c0.2-0.8,0.4-2.5,0.5-3.2h3L393.2,75.7z"/>
		</g>
		<g class="st2">
			<path class="st5" d="M398.1,76.4c-0.1-0.5-0.5-0.9-1.2-0.9c-1.1,0-1.5,1.1-1.6,2.6c0.2-0.5,0.7-1,1.6-1c1.2,0,1.8,0.9,1.8,2
				c0,1.1-0.6,2.1-1.9,2.1c-1.6,0-2-1.3-2-3c0-1.7,0.5-3.2,2.1-3.2c1.2,0,1.5,0.8,1.6,1.3H398.1z M398.3,79.2c0-0.7-0.3-1.6-1.3-1.6
				c-0.8,0-1.5,0.6-1.5,1.6c0,0.5,0.3,1.7,1.4,1.7C397.9,80.9,398.3,80,398.3,79.2z"/>
		</g>
		<g class="st2">
			<path class="st5" d="M401.4,81.2v-5.4c-0.3,0.3-1,0.6-1.3,0.7V76c0.4-0.1,1-0.5,1.4-0.9h0.4v6H401.4z"/>
		</g>
		<g class="st2">
			<path class="st5" d="M403.1,82.2c0.4-0.9,0.6-1.7,0.6-2.2h0.5c-0.1,0.8-0.4,1.6-0.7,2.2H403.1z"/>
		</g>
		<g class="st2">
			<path class="st5" d="M405.7,81.2L405.7,81.2c0-0.8,0.6-1.7,1.8-2.6c1-0.8,1.3-1.1,1.3-1.8c0-0.7-0.4-1.2-1.2-1.2
				c-0.8,0-1.2,0.4-1.4,1.3h-0.5c0.1-1,0.7-1.7,1.9-1.7c1.2,0,1.7,0.8,1.7,1.6c0,0.9-0.4,1.2-1.5,2.1c-0.9,0.7-1.4,1.3-1.6,1.9h3.3
				l-0.1,0.4H405.7z"/>
		</g>
		<g class="st2">
			<path class="st5" d="M410.7,79.5c0-0.9,0.6-1.4,1.2-1.6c-0.6-0.2-0.9-0.7-0.9-1.3c0-0.9,0.6-1.5,1.7-1.5c1.1,0,1.7,0.7,1.7,1.5
				c0,0.6-0.3,1.1-0.9,1.3c0.7,0.2,1.1,0.8,1.1,1.6c0,1.1-0.8,1.8-2,1.8C411.5,81.3,410.7,80.6,410.7,79.5z M414.2,79.5
				c0-0.9-0.5-1.4-1.5-1.4c-1,0-1.5,0.6-1.5,1.4c0,0.8,0.5,1.4,1.5,1.4C413.6,80.9,414.2,80.4,414.2,79.5z M411.5,76.6
				c0,0.6,0.3,1.1,1.2,1.1c0.8,0,1.2-0.4,1.2-1.1c0-0.6-0.4-1.1-1.2-1.1C411.8,75.5,411.5,76,411.5,76.6z"/>
		</g>
		<g class="st2">
			<path class="st5" d="M418.8,81.2v-1.7h-2.9v-0.4l2.9-3.9h0.5v3.9h0.8l-0.1,0.4h-0.7v1.7H418.8z M418.8,77.3c0-0.3,0-1.1,0-1.5
				c-0.2,0.4-1.7,2.3-2.4,3.3h2.3V77.3z"/>
		</g>
		<g class="st2">
			<path class="st5" d="M440.3,80c0.2,0.6,0.6,0.9,1.2,0.9c1.4,0,1.5-1.9,1.5-2.7c-0.3,0.6-0.9,0.9-1.5,0.9c-1,0-1.8-0.8-1.8-1.9
				c0-1,0.7-2,1.9-2c1.4,0,1.9,1.1,1.9,2.7c0,1.5-0.3,3.4-2,3.4c-1.1,0-1.5-0.6-1.7-1.3H440.3z M440.2,77c0,0.9,0.5,1.5,1.3,1.5
				c1,0,1.4-0.5,1.4-1.4c0-0.3-0.1-1.5-1.4-1.5C440.6,75.5,440.2,76.2,440.2,77z"/>
		</g>
		<g class="st2">
			<path class="st5" d="M446.2,81.2v-5.4c-0.3,0.3-1,0.6-1.3,0.7V76c0.4-0.1,1-0.5,1.4-0.9h0.4v6H446.2z"/>
		</g>
		<g class="st2">
			<path class="st5" d="M452.1,75.7h-2.6c-0.1,0.6-0.2,1.7-0.3,2.1c0.3-0.3,0.7-0.6,1.4-0.6c1,0,1.8,0.7,1.8,2
				c0,1.2-0.6,2.2-1.9,2.2c-1,0-1.7-0.6-1.9-1.6h0.5c0.2,0.6,0.6,1.1,1.4,1.1c0.9,0,1.4-0.7,1.4-1.7c0-0.9-0.4-1.6-1.3-1.6
				c-0.8,0-1.2,0.3-1.4,0.9l-0.5-0.1c0.2-0.8,0.4-2.5,0.5-3.2h3L452.1,75.7z"/>
		</g>
		<g class="st2">
			<path class="st5" d="M453.2,82.2c0.4-0.9,0.6-1.7,0.6-2.2h0.5c-0.1,0.8-0.4,1.6-0.7,2.2H453.2z"/>
		</g>
		<g class="st2">
			<path class="st5" d="M456.2,80c0.2,0.6,0.6,0.9,1.2,0.9c1.4,0,1.5-1.9,1.5-2.7c-0.3,0.6-0.9,0.9-1.5,0.9c-1,0-1.7-0.8-1.7-1.9
				c0-1,0.7-2,1.9-2c1.4,0,1.9,1.1,1.9,2.7c0,1.5-0.3,3.4-2,3.4c-1.1,0-1.5-0.6-1.7-1.3H456.2z M456.1,77c0,0.9,0.5,1.5,1.3,1.5
				c1,0,1.4-0.5,1.4-1.4c0-0.3-0.1-1.5-1.4-1.5C456.5,75.5,456.1,76.2,456.1,77z"/>
		</g>
		<g class="st2">
			<path class="st5" d="M464,76.4c-0.1-0.5-0.5-0.9-1.2-0.9c-1.1,0-1.5,1.1-1.6,2.6c0.2-0.5,0.7-1,1.6-1c1.2,0,1.8,0.9,1.8,2
				c0,1.1-0.6,2.1-1.9,2.1c-1.6,0-2-1.3-2-3c0-1.7,0.5-3.2,2.1-3.2c1.2,0,1.5,0.8,1.6,1.3H464z M464.2,79.2c0-0.7-0.3-1.6-1.3-1.6
				c-0.8,0-1.5,0.6-1.5,1.6c0,0.5,0.3,1.7,1.4,1.7C463.8,80.9,464.2,80,464.2,79.2z"/>
		</g>
		<g class="st2">
			<path class="st5" d="M469,81.2v-1.7h-2.9v-0.4l2.9-3.9h0.5v3.9h0.8l-0.1,0.4h-0.7v1.7H469z M469,77.3c0-0.3,0-1.1,0-1.5
				c-0.2,0.4-1.7,2.3-2.4,3.3h2.3V77.3z"/>
		</g>
		<g class="st2">
			<path class="st5" d="M502.6,76.4c-0.1-0.5-0.5-0.9-1.2-0.9c-1.1,0-1.5,1.1-1.6,2.6c0.2-0.5,0.7-1,1.6-1c1.2,0,1.8,0.9,1.8,2
				c0,1.1-0.6,2.1-1.9,2.1c-1.6,0-2-1.3-2-3c0-1.7,0.5-3.2,2.1-3.2c1.2,0,1.5,0.8,1.6,1.3H502.6z M502.8,79.2c0-0.7-0.3-1.6-1.3-1.6
				c-0.8,0-1.5,0.6-1.5,1.6c0,0.5,0.3,1.7,1.4,1.7C502.4,80.9,502.8,80,502.8,79.2z"/>
		</g>
		<g class="st2">
			<path class="st5" d="M505.9,81.2v-5.4c-0.3,0.3-1,0.6-1.3,0.7V76c0.4-0.1,1-0.5,1.4-0.9h0.4v6H505.9z"/>
		</g>
		<g class="st2">
			<path class="st5" d="M508.2,81.2V80h0.5v1.2H508.2z"/>
		</g>
		<g class="st2">
			<path class="st5" d="M510.4,81.2L510.4,81.2c0-0.8,0.6-1.7,1.8-2.6c1-0.8,1.3-1.1,1.3-1.8c0-0.7-0.4-1.2-1.2-1.2
				c-0.8,0-1.2,0.4-1.4,1.3h-0.5c0.1-1,0.7-1.7,1.9-1.7c1.2,0,1.7,0.8,1.7,1.6c0,0.9-0.4,1.2-1.5,2.1c-0.9,0.7-1.4,1.3-1.6,1.9h3.3
				l-0.1,0.4H510.4z"/>
		</g>
		<g class="st2">
			<path class="st5" d="M515.4,79.5c0-0.9,0.6-1.4,1.2-1.6c-0.6-0.2-0.9-0.7-0.9-1.3c0-0.9,0.6-1.5,1.7-1.5c1.1,0,1.7,0.7,1.7,1.5
				c0,0.6-0.3,1.1-0.9,1.3c0.7,0.2,1.1,0.8,1.1,1.6c0,1.1-0.8,1.8-2,1.8C516.2,81.3,515.4,80.6,515.4,79.5z M518.8,79.5
				c0-0.9-0.5-1.4-1.5-1.4c-1,0-1.5,0.6-1.5,1.4c0,0.8,0.5,1.4,1.5,1.4C518.2,80.9,518.8,80.4,518.8,79.5z M516.2,76.6
				c0,0.6,0.3,1.1,1.2,1.1c0.8,0,1.2-0.4,1.2-1.1c0-0.6-0.4-1.1-1.2-1.1C516.5,75.5,516.2,76,516.2,76.6z"/>
			<path class="st5" d="M523.4,76.8c0,0.9-0.5,1.7-1.5,1.7c-0.9,0-1.4-0.7-1.4-1.7c0-0.9,0.5-1.7,1.4-1.7
				C522.9,75.1,523.4,75.8,523.4,76.8z M521,76.8c0,0.7,0.3,1.3,1,1.3c0.6,0,1-0.5,1-1.3c0-0.8-0.4-1.3-1-1.3
				C521.3,75.5,521,76,521,76.8z M521.7,81.2l4-6h0.5l-4,6H521.7z M527.5,79.6c0,0.9-0.5,1.7-1.5,1.7c-1,0-1.4-0.8-1.4-1.7
				c0-0.9,0.5-1.7,1.4-1.7C527,77.9,527.5,78.6,527.5,79.6z M525.1,79.6c0,0.7,0.3,1.3,1,1.3c0.6,0,1-0.5,1-1.3c0-0.7-0.4-1.3-1-1.3
				C525.5,78.3,525.1,78.8,525.1,79.6z"/>
		</g>
		<g class="st2">
			<path class="st4" d="M8.6,82.1L8.6,82.1c0-0.8,0.6-1.7,1.8-2.6c1-0.8,1.3-1.1,1.3-1.8c0-0.7-0.4-1.2-1.2-1.2
				c-0.8,0-1.2,0.4-1.4,1.3H8.6c0.1-1,0.7-1.7,1.9-1.7c1.2,0,1.7,0.8,1.7,1.6c0,0.9-0.4,1.2-1.5,2.1c-0.9,0.7-1.4,1.3-1.6,1.9h3.3
				l-0.1,0.4H8.6z"/>
		</g>
		<g class="st2">
			<path class="st4" d="M18,79.1c0,1.4-0.4,3.1-1.9,3.1c-1.5,0-1.9-1.6-1.9-3.1c0-1.5,0.4-3.1,2-3.1C17.6,76,18,77.7,18,79.1z
				 M14.6,79.1c0,1.2,0.2,2.6,1.4,2.6c1.2,0,1.5-1.4,1.5-2.7c0-1.1-0.2-2.6-1.4-2.6C14.8,76.5,14.6,77.8,14.6,79.1z"/>
		</g>
		<g class="st2">
			<path class="st4" d="M19.7,82.1L19.7,82.1c0-0.8,0.6-1.7,1.8-2.6c1-0.8,1.3-1.1,1.3-1.8c0-0.7-0.4-1.2-1.2-1.2
				c-0.8,0-1.2,0.4-1.4,1.3h-0.5c0.1-1,0.7-1.7,1.9-1.7c1.2,0,1.7,0.8,1.7,1.6c0,0.9-0.4,1.2-1.5,2.1c-0.9,0.7-1.4,1.3-1.6,1.9h3.3
				l-0.1,0.4H19.7z"/>
		</g>
		<g class="st2">
			<path class="st4" d="M25.3,82.1L25.3,82.1c0-0.8,0.6-1.7,1.8-2.6c1-0.8,1.3-1.1,1.3-1.8c0-0.7-0.4-1.2-1.2-1.2
				c-0.8,0-1.2,0.4-1.4,1.3h-0.5c0.1-1,0.7-1.7,1.9-1.7c1.2,0,1.7,0.8,1.7,1.6c0,0.9-0.4,1.2-1.5,2.1c-0.9,0.7-1.4,1.3-1.6,1.9h3.3
				l-0.1,0.4H25.3z"/>
		</g>
		<g class="st2">
			<path class="st4" d="M38,81.2h-3v1.9h-0.5v-1.9h-3.8v-0.5H32v-2.2h2.4v-1.3h-2c-0.4,0.6-0.8,1.2-1.3,1.6
				c-0.1-0.1-0.3-0.3-0.5-0.3c0.8-0.7,1.5-1.7,1.9-2.8l0.5,0.1c-0.1,0.3-0.2,0.6-0.4,0.9h4.9v0.5H35v1.3h2.4V79H35v1.7h3V81.2z
				 M34.5,80.7V79h-1.9v1.7H34.5z"/>
		</g>
	</g>
</g>
</svg>
