<?xml version="1.0" encoding="utf-8"?>
<!-- Generator: Adobe Illustrator 26.3.1, SVG Export Plug-In . SVG Version: 6.00 Build 0)  -->
<svg version="1.1" id="圖層_1" xmlns="http://www.w3.org/2000/svg" xmlns:xlink="http://www.w3.org/1999/xlink" x="0px" y="0px"
	 viewBox="0 0 324.4 105.2" style="enable-background:new 0 0 324.4 105.2;" xml:space="preserve">
<style type="text/css">
	.st0{opacity:0.35;fill:#EFEFEF;stroke:#4C4949;stroke-width:0.5;stroke-miterlimit:10;enable-background:new    ;}
	.st1{opacity:0.35;fill:#4A962F;enable-background:new    ;}
	.st2{opacity:0.35;fill:#A1CE63;enable-background:new    ;}
	.st3{enable-background:new    ;}
	.st4{fill:#4D4949;}
	.st5{fill:#898989;}
</style>
<g id="圖層_2_00000172428916557675368040000006145031435356230283_">
	<g id="圖層_1-2">
		<rect x="0.2" y="0.2" class="st0" width="38" height="99.9"/>
		<rect x="185" y="0.2" class="st1" width="139.5" height="42.6"/>
		<rect x="42.1" y="0.2" class="st2" width="139.5" height="42.6"/>
		<rect x="185" y="46.3" class="st2" width="139.5" height="53.8"/>
		<rect x="42.1" y="46.3" class="st1" width="139.5" height="53.8"/>
		<g class="st3">
			<path class="st4" d="M52.3,17.7c-0.1,0.7-0.3,1.5-0.4,2c-0.1-0.1-0.4-0.1-0.6-0.2c0.2-0.5,0.3-1.3,0.4-2L52.3,17.7z M53.9,17.2
				c0-0.1-0.1-0.3-0.1-0.4c-1.8,0.3-2.1,0.3-2.2,0.4c0-0.2-0.2-0.5-0.3-0.7c0.2-0.1,0.4-0.3,0.7-0.6c0.1-0.1,0.4-0.5,0.6-0.9
				c-0.8,0.1-1,0.1-1.1,0.2c0-0.2-0.2-0.5-0.3-0.7c0.1,0,0.3-0.2,0.5-0.5c0.2-0.3,0.7-1.2,1-2.1l0.7,0.3c-0.3,0.8-0.8,1.6-1.2,2.2
				l0.8-0.1c0.2-0.4,0.5-0.8,0.7-1.2l0.7,0.4c-0.5,1-1.2,2-1.9,2.8l1.1-0.2c-0.1-0.3-0.2-0.5-0.3-0.8l0.5-0.2
				c0.2,0.5,0.5,1.3,0.6,1.7L53.9,17.2z M53.1,17.5c0.1,0.6,0.2,1.3,0.2,1.8l-0.6,0.2c0-0.5-0.1-1.3-0.2-1.9L53.1,17.5z M54,17.3
				c0.2,0.5,0.4,1.2,0.5,1.7l-0.6,0.2c-0.1-0.5-0.3-1.2-0.5-1.7L54,17.3z M59,19.3c-0.4-0.3-1.1-0.9-1.8-1.3v1.2
				c0,0.4-0.1,0.6-0.3,0.7C56.6,20,56.3,20,55.8,20c0-0.2-0.1-0.5-0.2-0.7c0.3,0,0.6,0,0.7,0c0.1,0,0.1,0,0.1-0.1V18
				c-0.6,0.4-1.1,0.8-1.6,1.2l-0.4-0.6c0.5-0.3,1.3-0.8,2-1.3v-1.4h-2.1v-0.7h3c0-0.2,0.1-0.3,0.1-0.5h-2.6c0.2-0.7,0.5-1.8,0.7-2.7
				l0.8,0.1c0,0.2-0.1,0.4-0.1,0.7h1.7l0.1,0l0.6,0.1c-0.1,0.7-0.3,1.7-0.5,2.4h1.3v0.7h-2.2v1.3l0.3,0.2c0.3-0.4,0.7-0.9,0.9-1.2
				l0.7,0.4c-0.3,0.4-0.7,0.9-1,1.2c0.6,0.4,1.1,0.7,1.4,1L59,19.3z M55.6,17.6c-0.2-0.3-0.7-0.7-1-1l0.4-0.4c0.4,0.3,0.8,0.7,1,1
				L55.6,17.6z M57.6,14c0.1-0.2,0.1-0.5,0.1-0.7H56c-0.1,0.2-0.1,0.5-0.2,0.7H57.6z"/>
			<path class="st4" d="M66.9,19.1c0.8,0,1-0.2,1.1-1.3c0.2,0.1,0.6,0.2,0.8,0.3c-0.2,1.4-0.5,1.8-1.8,1.8h-3.2
				c-1.5,0-1.9-0.3-1.9-1.4V15c-0.2,0.2-0.4,0.3-0.7,0.5c-0.1-0.2-0.3-0.6-0.4-0.8c1-0.6,2.1-1.7,2.7-2.8l0.7,0.3
				c-0.1,0.2-0.2,0.3-0.3,0.5h2.2l0.2,0l0.5,0.4c-0.3,0.4-0.7,0.9-1.1,1.3h2.3v3.2h-0.8v-0.3h-4.5v1.3c0,0.5,0.2,0.6,1.1,0.6H66.9z
				 M63.4,13.4c-0.3,0.3-0.5,0.7-0.8,1h2.2c0.3-0.3,0.6-0.6,0.8-1H63.4z M62.6,16.4h1.8v-1.3h-1.8V16.4z M67.1,15.1h-1.9v1.3h1.9
				V15.1z"/>
			<path class="st4" d="M72.8,16.8c-0.1-0.3-0.3-0.7-0.5-1.1V20h-0.8v-3.8c-0.3,0.8-0.6,1.6-0.9,2.1c-0.1-0.2-0.3-0.6-0.4-0.8
				c0.5-0.7,1-2,1.3-3.1h-1.1v-0.8h1.1V12h0.8v1.6h0.9v0.8h-0.9v0.3c0.2,0.3,0.9,1.3,1,1.5L72.8,16.8z M78.1,16.3
				c-0.4,0.6-0.8,1.2-1.3,1.7c0.6,0.4,1.2,1,1.5,1.4l-0.6,0.5c-0.3-0.4-0.9-0.9-1.5-1.4c-0.8,0.6-1.8,1.1-2.9,1.5
				c-0.1-0.2-0.3-0.5-0.5-0.7c2-0.6,3.7-1.8,4.4-3.3L78.1,16.3z M77.4,14.7c-0.8,1.4-2.1,2.6-3.7,3.3c-0.1-0.2-0.3-0.5-0.4-0.6
				c0.8-0.4,1.6-0.9,2.2-1.5c-1.4,0.1-1.7,0.2-1.9,0.2c0-0.2-0.2-0.6-0.2-0.7c0.2,0,0.5-0.1,0.6-0.3c0.1-0.2,0.6-0.8,0.9-1.3h-1.6
				v-0.7h2.2c-0.1-0.3-0.2-0.6-0.4-0.9l0.8-0.2c0.2,0.4,0.4,0.8,0.5,1.2h1.8v0.7h-2.4c-0.3,0.5-0.6,1-0.9,1.5l1.3-0.1
				c0.2-0.2,0.4-0.5,0.5-0.8L77.4,14.7z"/>
			<path class="st4" d="M82.4,12.2c-0.3,0.6-0.6,1.2-0.9,1.8V20h-0.8v-4.7c-0.2,0.3-0.5,0.6-0.8,0.9c-0.1-0.2-0.3-0.6-0.5-0.8
				c0.8-0.8,1.7-2.1,2.1-3.3L82.4,12.2z M83.9,17.4c-0.4,0.7-0.9,1.6-1.4,2.1c-0.1-0.1-0.4-0.4-0.6-0.5c0.5-0.5,1-1.2,1.3-1.9
				L83.9,17.4z M85.3,16.9V20h-0.8v-3.1H82v-0.7h2.4v-0.9h-1.8v-2.9h4.5v2.9h-1.9v0.9h2.4v0.7H85.3z M83.4,14.5h2.9v-1.4h-2.9V14.5z
				 M86.3,17.2c0.5,0.6,1.1,1.4,1.4,1.9L87,19.5c-0.3-0.5-0.9-1.4-1.4-2L86.3,17.2z"/>
		</g>
		<g class="st3">
			<path class="st4" d="M51.3,31.6c1.6-1.4,2.3-2.4,2.3-3.3c0-0.6-0.3-1-0.9-1c-0.4,0-0.8,0.3-1.1,0.6l-0.3-0.3
				c0.4-0.4,0.8-0.7,1.4-0.7c0.9,0,1.4,0.6,1.4,1.5c0,1-0.8,2-2,3.2c0.3,0,0.6,0,0.8,0h1.4v0.5h-3.1V31.6z"/>
			<path class="st4" d="M55.6,29.4c0-1.7,0.6-2.6,1.5-2.6c0.9,0,1.5,0.8,1.5,2.6c0,1.7-0.6,2.6-1.5,2.6C56.2,32,55.6,31.1,55.6,29.4
				z M58.1,29.4c0-1.5-0.4-2.1-1-2.1c-0.6,0-1,0.7-1,2.1c0,1.5,0.4,2.2,1,2.2C57.7,31.5,58.1,30.9,58.1,29.4z"/>
			<path class="st4" d="M59.8,31.6c1.6-1.4,2.3-2.4,2.3-3.3c0-0.6-0.3-1-0.9-1c-0.4,0-0.8,0.3-1.1,0.6l-0.3-0.3
				c0.4-0.4,0.8-0.7,1.4-0.7c0.9,0,1.4,0.6,1.4,1.5c0,1-0.8,2-2,3.2c0.3,0,0.6,0,0.8,0h1.4v0.5h-3.1V31.6z"/>
			<path class="st4" d="M64.1,31.6c1.6-1.4,2.3-2.4,2.3-3.3c0-0.6-0.3-1-0.9-1c-0.4,0-0.8,0.3-1.1,0.6l-0.3-0.3
				c0.4-0.4,0.8-0.7,1.4-0.7c0.9,0,1.4,0.6,1.4,1.5c0,1-0.8,2-2,3.2c0.3,0,0.6,0,0.8,0h1.4v0.5h-3.1V31.6z"/>
			<path class="st4" d="M74.5,30.8H72v1.6h-0.5v-1.6h-3.2v-0.4h1.1v-1.8h2v-1.1h-1.7c-0.3,0.5-0.7,1-1.1,1.4
				c-0.1-0.1-0.3-0.2-0.4-0.3c0.7-0.6,1.2-1.4,1.6-2.4l0.4,0.1c-0.1,0.3-0.2,0.5-0.3,0.7h4.1v0.4H72v1.1h2V29h-2v1.4h2.5V30.8z
				 M71.6,30.4V29H70v1.4H71.6z"/>
			<path class="st4" d="M77.6,31.6c0.4,0.2,0.9,0.2,1.6,0.2c0.3,0,2.4,0,2.8,0c-0.1,0.1-0.2,0.3-0.2,0.4h-2.6
				c-1.5,0-2.3-0.2-2.8-1.2c-0.1,0.6-0.2,1-0.4,1.4c-0.1-0.1-0.3-0.2-0.4-0.2c0.4-0.7,0.5-1.8,0.5-3l0.4,0c0,0.3,0,0.7,0,1
				c0.2,0.5,0.4,0.9,0.7,1.1v-2.6h-1.4v-0.4h1.3v-0.9H76V27h1.1v-0.8h0.4V27h1v0.4h-1v0.9h1.2v0.4h-1.1v1.1h1v0.4h-1V31.6z
				 M79.9,31.3c-0.6,0-0.8-0.2-0.8-0.8v-4h2.5V29h-2.1v1.6c0,0.3,0.1,0.4,0.4,0.4h1.3c0.3,0,0.4-0.2,0.4-1c0.1,0.1,0.3,0.1,0.4,0.2
				c-0.1,0.9-0.2,1.2-0.8,1.2H79.9z M79.5,27v1.6h1.6V27H79.5z"/>
			<path class="st4" d="M85.4,26.7c-0.2,0.6-0.5,1.2-0.7,1.8c0.5,0.6,0.6,1.1,0.6,1.5c0,0.3-0.1,0.6-0.3,0.8
				c-0.1,0.1-0.2,0.1-0.3,0.1c-0.1,0-0.3,0-0.5,0c0-0.1,0-0.3-0.1-0.4c0.2,0,0.3,0,0.4,0c0.1,0,0.2,0,0.2-0.1
				c0.1-0.1,0.1-0.3,0.1-0.5c0-0.4-0.1-0.9-0.6-1.4c0.2-0.5,0.4-1.1,0.6-1.5h-1v5.5h-0.4v-5.9h1.6l0.1,0L85.4,26.7z M89.2,30
				c-0.3,0.3-0.8,0.6-1.2,0.8c0.3,0.5,0.8,0.9,1.4,1.1c-0.1,0.1-0.2,0.3-0.3,0.4c-1.1-0.5-1.7-1.5-2.1-2.9h-0.7v2.3l1.2-0.3
				c0,0.1,0,0.3,0,0.4c-1.4,0.4-1.6,0.5-1.7,0.5c0-0.1-0.1-0.3-0.2-0.4c0.1-0.1,0.2-0.2,0.2-0.5v-5.1h3v3h-1.4
				c0.1,0.4,0.2,0.7,0.4,1.1c0.4-0.2,0.8-0.6,1.1-0.8L89.2,30z M86.2,26.9v0.9h2.1v-0.9H86.2z M86.2,29.1h2.1v-0.9h-2.1V29.1z"/>
			<path class="st4" d="M92.6,28.4h1.7v0.4h-1.7v0.7H94v1.9c0,0.2,0,0.3-0.2,0.4c-0.1,0.1-0.4,0.1-0.8,0.1c0-0.1-0.1-0.3-0.1-0.4
				c0.3,0,0.5,0,0.6,0c0.1,0,0.1,0,0.1-0.1v-1.5h-1v2.5h-0.4v-2.5h-0.9v1.9h-0.4v-2.3h1.4v-0.7h-1.7v-0.4h1.7v-0.8h-0.9
				c-0.1,0.3-0.2,0.5-0.4,0.7c-0.1-0.1-0.3-0.1-0.4-0.2c0.3-0.5,0.5-1.1,0.7-1.8l0.4,0.1c-0.1,0.2-0.1,0.5-0.2,0.7h0.8v-1h0.4v1H94
				v0.4h-1.4V28.4z M95.2,30.6h-0.4v-3.7h0.4V30.6z M96.4,26.3v5.5c0,0.3-0.1,0.5-0.3,0.5c-0.2,0.1-0.6,0.1-1.1,0.1
				c0-0.1-0.1-0.3-0.1-0.5c0.4,0,0.8,0,0.9,0c0.1,0,0.1,0,0.1-0.2v-5.5H96.4z"/>
			<path class="st4" d="M103.8,26.9v0.4h-5.9v-0.4h2.8c-0.1-0.2-0.1-0.4-0.2-0.6l0.4-0.1c0.1,0.2,0.2,0.5,0.3,0.7H103.8z
				 M103.6,31.9c0,0.2-0.1,0.3-0.2,0.4c-0.2,0.1-0.4,0.1-0.9,0.1c0-0.1-0.1-0.2-0.1-0.3c0.3,0,0.6,0,0.7,0c0.1,0,0.1,0,0.1-0.1v-2.1
				h-4.6v2.6h-0.4v-2.9h5.4V31.9z M102.8,27.8v1.3h-3.9v-1.3H102.8z M102.4,28.1h-3v0.7h3V28.1z M102.2,31.7h-2.4V32h-0.4v-1.7h2.9
				V31.7z M99.8,30.6v0.7h2v-0.7H99.8z"/>
			<path class="st4" d="M106.3,29.2c-0.3-0.2-0.8-0.5-1.3-0.7l0.2-0.3c0.4,0.2,1,0.5,1.3,0.7L106.3,29.2z M105.3,32
				c0.3-0.5,0.8-1.4,1.2-2.2l0.3,0.3c-0.3,0.7-0.8,1.6-1.2,2.2L105.3,32z M105.7,26.3c0.4,0.2,1,0.5,1.2,0.7l-0.3,0.4
				c-0.3-0.2-0.8-0.6-1.2-0.8L105.7,26.3z M111.3,29.3h-1.9v2.5c0,0.3-0.1,0.5-0.3,0.6c-0.2,0.1-0.6,0.1-1.2,0.1
				c0-0.1-0.1-0.4-0.2-0.5c0.5,0,0.9,0,1,0c0.1,0,0.2,0,0.2-0.2v-2.5h-1.9v-0.4h1.9v-1.7h-1.7v-0.4h3.8v0.4h-1.7v1.7h1.9V29.3z"/>
			<path class="st4" d="M114.9,30.7c-0.5,0.7-1.4,1.2-2.2,1.5c-0.1-0.1-0.2-0.3-0.3-0.4c0.8-0.2,1.7-0.7,2.2-1.3L114.9,30.7z
				 M113.6,28.1c-0.3-0.2-0.8-0.4-1.1-0.5l0.2-0.3c0.4,0.1,0.9,0.3,1.2,0.5L113.6,28.1z M115.8,30.4v2.1h-0.5v-2.1h-2.8v-0.4h2.8
				v-0.7h0.5v0.7h2.8v0.4H115.8z M112.7,29.3c0.3-0.3,0.8-0.8,1.2-1.2l0.3,0.3c-0.4,0.4-0.8,0.9-1.2,1.3L112.7,29.3z M114.1,27.1
				c-0.3-0.2-0.8-0.4-1.2-0.5l0.2-0.3c0.4,0.1,0.9,0.3,1.2,0.5L114.1,27.1z M116,27.4c-0.2,1.1-0.7,1.7-1.7,2.2
				c-0.1-0.1-0.2-0.3-0.3-0.3c0.9-0.3,1.4-0.9,1.6-1.8h-1.1V27h1.1c0-0.2,0-0.5,0.1-0.8l0.5,0c0,0.3,0,0.5-0.1,0.8h1.4v1.7
				c0,0.1,0,0.2,0.1,0.3c0,0,0.1,0,0.1,0h0.3c0.1,0,0.2,0,0.2,0c0,0,0.1-0.1,0.1-0.2c0-0.1,0-0.4,0-0.7c0.1,0.1,0.3,0.2,0.4,0.2
				c0,0.3,0,0.6-0.1,0.8c0,0.1-0.1,0.2-0.2,0.2c-0.1,0-0.2,0.1-0.4,0.1h-0.4c-0.1,0-0.3,0-0.4-0.1c-0.1-0.1-0.1-0.2-0.1-0.6v-1.3
				H116z M116.5,30.5c0.7,0.4,1.7,1,2.1,1.4l-0.3,0.4c-0.4-0.4-1.3-1.1-2.1-1.5L116.5,30.5z"/>
			<path class="st4" d="M122,27.8c-0.2,0.4-0.5,0.7-0.8,1v3.6h-0.4v-3.1c-0.3,0.3-0.5,0.5-0.8,0.7c-0.1-0.1-0.2-0.3-0.3-0.4
				c0.7-0.5,1.4-1.3,1.9-2.1L122,27.8z M121.8,26.4c-0.4,0.6-1.1,1.2-1.7,1.7c-0.1-0.1-0.2-0.3-0.3-0.4c0.6-0.4,1.2-1,1.6-1.5
				L121.8,26.4z M126,28.9h-1v2.9c0,0.3-0.1,0.4-0.3,0.5c-0.2,0.1-0.6,0.1-1.3,0.1c0-0.1-0.1-0.3-0.1-0.4c0.5,0,1,0,1.1,0
				c0.1,0,0.2,0,0.2-0.2v-2.9h-2.3v-0.4h3.8V28.9z M125.8,27.1h-3.3v-0.4h3.3V27.1z"/>
			<path class="st4" d="M129.6,31.3c-0.5,0.4-1.4,0.7-2.1,0.9c-0.1-0.1-0.2-0.3-0.3-0.3c0.7-0.1,1.6-0.4,2-0.7L129.6,31.3z
				 M133.2,30.4v0.4h-2.7v1.6H130v-1.6h-2.7v-0.4h2.7v-0.5h-2.1v-0.4h2.1V29h-2.4v-0.4h1.5c-0.1-0.2-0.2-0.5-0.4-0.7l0.4-0.1h-1.8
				v-0.4h1.1c-0.1-0.3-0.3-0.7-0.6-1l0.4-0.1c0.2,0.3,0.5,0.7,0.6,1l-0.4,0.1h0.9v-1.2h0.4v1.2h0.9v-1.2h0.4v1.2h0.9l-0.3-0.1
				c0.2-0.3,0.4-0.7,0.5-1l0.5,0.1c-0.2,0.4-0.4,0.7-0.6,1h1.1v0.4h-1.8l0.4,0.1c-0.2,0.2-0.3,0.5-0.5,0.7h1.6V29h-2.5v0.5h2.1v0.4
				h-2.1v0.5H133.2z M129.2,27.8c0.2,0.2,0.3,0.5,0.4,0.7l-0.3,0.1h1.9l-0.2-0.1c0.1-0.2,0.3-0.5,0.4-0.7H129.2z M131.2,31.1
				c0.7,0.2,1.5,0.5,2,0.8l-0.3,0.3c-0.5-0.2-1.3-0.6-2-0.8L131.2,31.1z"/>
			<path class="st4" d="M136.5,28.1c-0.3,1.7-0.9,3-1.7,3.7c-0.1-0.1-0.2-0.3-0.3-0.3c0.7-0.6,1.3-1.7,1.5-3.1h-1.3V28h1.5l0.1,0
				L136.5,28.1z M137.9,30.6h1.2V31h-1.2v0.8c0,0.3-0.1,0.4-0.3,0.5c-0.2,0.1-0.6,0.1-1.2,0.1c0-0.1-0.1-0.3-0.2-0.4
				c0.5,0,0.9,0,1,0c0.1,0,0.2,0,0.2-0.2V31h-1.3v-0.4h1.3v-0.7h-1v-0.4h1v-0.6h-0.9v-0.4h0.9v-0.6c0.5-0.2,1-0.5,1.4-0.9h-3.3v-0.4
				h3.7l0.1,0l0.3,0.2c-0.5,0.5-1.2,1-1.9,1.3v0.4h0.8v0.4h-0.8v0.6h0.9v0.4h-0.9V30.6z M140.4,27.9c-0.3,0.3-0.7,0.7-1.1,0.9
				c0.2,1.1,0.7,2.1,1.4,2.6c-0.1,0.1-0.2,0.3-0.3,0.4c-0.8-0.6-1.2-1.8-1.5-3.2c0.4-0.3,0.9-0.7,1.2-1.1L140.4,27.9z"/>
			<path class="st4" d="M143.9,26.4c-0.2,0.5-0.4,1-0.7,1.5v4.6h-0.4v-3.9c-0.2,0.3-0.5,0.6-0.8,0.9c0-0.1-0.2-0.3-0.3-0.4
				c0.7-0.6,1.3-1.7,1.7-2.7L143.9,26.4z M145.1,30.4c-0.3,0.6-0.8,1.2-1.2,1.7c-0.1-0.1-0.3-0.2-0.4-0.3c0.4-0.4,0.8-1,1.1-1.5
				L145.1,30.4z M146.1,29.9v2.5h-0.5v-2.5h-2v-0.4h2v-0.8h-1.5v-2.1h3.5v2.1h-1.5v0.8h1.9v0.4H146.1z M144.5,28.3h2.6V27h-2.6V28.3
				z M146.8,30.3c0.5,0.5,1,1.1,1.2,1.5l-0.4,0.2c-0.2-0.4-0.7-1.1-1.2-1.6L146.8,30.3z"/>
			<path class="st4" d="M152.6,28.4c0,0.1-0.1,0.1-0.1,0.2c0.8,0.9,1.7,1.4,2.8,1.9c-0.1,0.1-0.2,0.3-0.3,0.4
				c-0.3-0.1-0.6-0.3-0.9-0.4v2h-0.5v-0.2h-2.9v0.2h-0.4v-2c-0.3,0.2-0.6,0.3-0.9,0.5c-0.1-0.1-0.2-0.3-0.3-0.4
				c1.3-0.5,2.5-1.3,3.1-2.3L152.6,28.4z M149.9,28.1h-0.4v-1.2h2.7c-0.1-0.2-0.2-0.4-0.3-0.6l0.5-0.1c0.1,0.2,0.3,0.5,0.4,0.7h2.4
				v1.2h-0.5v-0.8h-4.7V28.1z M151.6,27.8c-0.5,0.6-1.1,1.1-1.8,1.5c-0.1-0.1-0.2-0.3-0.3-0.3c0.6-0.3,1.3-0.8,1.7-1.3L151.6,27.8z
				 M153.7,31.8v-1.2h-2.9v1.2H153.7z M153.8,30.2c-0.6-0.3-1.1-0.8-1.5-1.3c-0.4,0.5-0.9,0.9-1.4,1.3H153.8z M153.2,27.6
				c0.6,0.4,1.4,0.9,1.8,1.3l-0.3,0.3c-0.4-0.4-1.1-1-1.8-1.4L153.2,27.6z"/>
			<path class="st4" d="M162.7,31.9v0.4h-6.1v-0.4h2.8v-0.4h-2.3v-0.3h2.3v-0.4h-2.1v-1.7h4.7v1.7h-2.2v0.4h2.3v0.3h-2.3v0.4H162.7z
				 M162.6,28.7h-6v-0.3h6V28.7z M161.8,28.1h-4.3v-1.6h4.3V28.1z M157.7,29.8h1.6v-0.4h-1.6V29.8z M159.4,30.5V30h-1.6v0.4H159.4z
				 M161.3,26.7h-3.5v0.4h3.5V26.7z M161.3,27.4h-3.5v0.4h3.5V27.4z M161.5,29.4h-1.7v0.4h1.7V29.4z M161.5,30h-1.7v0.4h1.7V30z"/>
		</g>
		<g class="st3">
			<path class="st4" d="M196.4,17.7c-0.1,0.7-0.3,1.5-0.4,2c-0.1-0.1-0.4-0.1-0.6-0.2c0.2-0.5,0.3-1.3,0.4-2L196.4,17.7z
				 M198.1,17.2c0-0.1-0.1-0.3-0.1-0.4c-1.8,0.3-2.1,0.3-2.2,0.4c0-0.2-0.2-0.5-0.3-0.7c0.2-0.1,0.4-0.3,0.7-0.6
				c0.1-0.1,0.4-0.5,0.6-0.9c-0.8,0.1-1,0.1-1.1,0.2c0-0.2-0.2-0.5-0.3-0.7c0.1,0,0.3-0.2,0.5-0.5c0.2-0.3,0.7-1.2,1-2.1l0.7,0.3
				c-0.3,0.8-0.8,1.6-1.2,2.2l0.8-0.1c0.2-0.4,0.5-0.8,0.7-1.2l0.7,0.4c-0.5,1-1.2,2-1.9,2.8l1.1-0.2c-0.1-0.3-0.2-0.5-0.3-0.8
				l0.5-0.2c0.2,0.5,0.5,1.3,0.6,1.7L198.1,17.2z M197.3,17.5c0.1,0.6,0.2,1.3,0.2,1.8l-0.6,0.2c0-0.5-0.1-1.3-0.2-1.9L197.3,17.5z
				 M198.1,17.3c0.2,0.5,0.4,1.2,0.5,1.7l-0.6,0.2c-0.1-0.5-0.3-1.2-0.5-1.7L198.1,17.3z M203.1,19.3c-0.4-0.3-1.1-0.9-1.8-1.3v1.2
				c0,0.4-0.1,0.6-0.3,0.7c-0.2,0.1-0.6,0.1-1.1,0.1c0-0.2-0.1-0.5-0.2-0.7c0.3,0,0.6,0,0.7,0c0.1,0,0.1,0,0.1-0.1V18
				c-0.6,0.4-1.1,0.8-1.6,1.2l-0.4-0.6c0.5-0.3,1.3-0.8,2-1.3v-1.4h-2.1v-0.7h3c0-0.2,0.1-0.3,0.1-0.5H199c0.2-0.7,0.5-1.8,0.7-2.7
				l0.8,0.1c0,0.2-0.1,0.4-0.1,0.7h1.7l0.1,0l0.6,0.1c-0.1,0.7-0.3,1.7-0.5,2.4h1.3v0.7h-2.2v1.3l0.3,0.2c0.3-0.4,0.7-0.9,0.9-1.2
				l0.7,0.4c-0.3,0.4-0.7,0.9-1,1.2c0.6,0.4,1.1,0.7,1.4,1L203.1,19.3z M199.8,17.6c-0.2-0.3-0.7-0.7-1-1l0.4-0.4
				c0.4,0.3,0.8,0.7,1,1L199.8,17.6z M201.7,14c0.1-0.2,0.1-0.5,0.1-0.7h-1.7c-0.1,0.2-0.1,0.5-0.2,0.7H201.7z"/>
			<path class="st4" d="M211.1,19.1c0.8,0,1-0.2,1.1-1.3c0.2,0.1,0.6,0.2,0.8,0.3c-0.2,1.4-0.5,1.8-1.8,1.8h-3.2
				c-1.5,0-1.9-0.3-1.9-1.4V15c-0.2,0.2-0.4,0.3-0.7,0.5c-0.1-0.2-0.3-0.6-0.4-0.8c1-0.6,2.1-1.7,2.7-2.8l0.7,0.3
				c-0.1,0.2-0.2,0.3-0.3,0.5h2.2l0.2,0l0.5,0.4c-0.3,0.4-0.7,0.9-1.1,1.3h2.3v3.2h-0.8v-0.3h-4.5v1.3c0,0.5,0.2,0.6,1.1,0.6H211.1z
				 M207.5,13.4c-0.3,0.3-0.5,0.7-0.8,1h2.2c0.3-0.3,0.6-0.6,0.8-1H207.5z M206.8,16.4h1.8v-1.3h-1.8V16.4z M211.3,15.1h-1.9v1.3
				h1.9V15.1z"/>
			<path class="st4" d="M217.2,16.5c-0.3,0.1-0.6,0.2-0.8,0.2V19c0,0.4-0.1,0.6-0.3,0.7c-0.3,0.1-0.6,0.1-1.2,0.1
				c0-0.2-0.1-0.5-0.2-0.7c0.4,0,0.8,0,0.9,0c0.1,0,0.2,0,0.2-0.2V17l-1,0.3l-0.2-0.8c0.3-0.1,0.8-0.2,1.2-0.3v-1.7h-1.1v-0.8h1.1
				V12h0.8v1.7h1v0.8h-1v1.5l0.7-0.2L217.2,16.5z M221.8,15.9c-0.3,1.1-0.9,1.9-1.6,2.5c0.6,0.4,1.4,0.6,2.2,0.8
				c-0.2,0.2-0.4,0.5-0.5,0.8c-0.9-0.2-1.7-0.6-2.4-1c-0.7,0.5-1.6,0.8-2.5,1c-0.1-0.2-0.3-0.6-0.4-0.7c0.8-0.2,1.6-0.4,2.2-0.8
				c-0.6-0.5-1-1.1-1.3-1.9l0.2-0.1h-0.4v-0.8h3.8l0.1,0L221.8,15.9z M218.9,13.2c0,0.8-0.2,1.8-1.4,2.4c-0.1-0.2-0.4-0.5-0.5-0.6
				c1-0.5,1.1-1.2,1.1-1.8v-0.9h2.9v2c0,0.2,0,0.3,0.2,0.3h0.6c0.1,0,0.3,0,0.5-0.1c0,0.2,0,0.5,0.1,0.7c-0.1,0-0.3,0.1-0.5,0.1
				h-0.7c-0.7,0-0.9-0.3-0.9-1V13h-1.3V13.2z M218.3,16.5c0.3,0.6,0.7,1.1,1.2,1.5c0.5-0.4,0.9-0.9,1.2-1.5H218.3z"/>
			<path class="st4" d="M229.3,13.3c0,0.1,0,0.1,0,0.2c0.5,0.5,1.4,0.8,2.6,0.8c-0.2,0.2-0.4,0.5-0.4,0.7c-1-0.1-1.8-0.5-2.3-1
				c-0.3,0.4-1,0.8-2.5,1c-0.1-0.2-0.3-0.5-0.4-0.6h-2.2v-0.6h2.5v0.6c1.9-0.2,2.1-0.7,2.1-1.1v-0.1h-0.7c-0.2,0.3-0.4,0.6-0.6,0.8
				c-0.1-0.1-0.4-0.3-0.6-0.4c0.5-0.4,0.8-1,1-1.6l0.7,0.2c-0.1,0.1-0.1,0.3-0.2,0.4h2.7l0.1,0l0.6,0.2c-0.2,0.5-0.5,1-0.8,1.3
				l-0.6-0.2c0.1-0.2,0.2-0.4,0.4-0.6h-1.2V13.3z M229.2,18.6c0.9,0.3,1.9,0.7,2.5,1l-0.7,0.4c-0.5-0.3-1.5-0.7-2.4-1l0.5-0.4h-2.6
				l0.7,0.3c-0.7,0.4-1.8,0.8-2.7,1.1c-0.1-0.2-0.4-0.5-0.6-0.6c0.9-0.2,1.9-0.5,2.5-0.8H225V15h5.7v3.5H229.2z M226.2,13h-2.1v-0.6
				h2.1V13z M225.8,16.1h4.1v-0.5h-4.1V16.1z M225.8,17h4.1v-0.5h-4.1V17z M225.8,18h4.1v-0.5h-4.1V18z"/>
		</g>
		<g class="st3">
			<path class="st4" d="M195.4,31.6c1.6-1.4,2.3-2.4,2.3-3.3c0-0.6-0.3-1-0.9-1c-0.4,0-0.8,0.3-1.1,0.6l-0.3-0.3
				c0.4-0.4,0.8-0.7,1.4-0.7c0.9,0,1.4,0.6,1.4,1.5c0,1-0.8,2-2,3.2c0.3,0,0.6,0,0.8,0h1.4v0.5h-3.1V31.6z"/>
			<path class="st4" d="M199.7,29.4c0-1.7,0.6-2.6,1.5-2.6c0.9,0,1.5,0.8,1.5,2.6c0,1.7-0.6,2.6-1.5,2.6
				C200.3,32,199.7,31.1,199.7,29.4z M202.3,29.4c0-1.5-0.4-2.1-1-2.1c-0.6,0-1,0.7-1,2.1c0,1.5,0.4,2.2,1,2.2
				C201.9,31.5,202.3,30.9,202.3,29.4z"/>
			<path class="st4" d="M204,31.6c1.6-1.4,2.3-2.4,2.3-3.3c0-0.6-0.3-1-0.9-1c-0.4,0-0.8,0.3-1.1,0.6l-0.3-0.3
				c0.4-0.4,0.8-0.7,1.5-0.7c0.9,0,1.4,0.6,1.4,1.5c0,1-0.8,2-2,3.2c0.3,0,0.6,0,0.8,0h1.4v0.5H204V31.6z"/>
			<path class="st4" d="M208.3,31.6c1.6-1.4,2.3-2.4,2.3-3.3c0-0.6-0.3-1-0.9-1c-0.4,0-0.8,0.3-1.1,0.6l-0.3-0.3
				c0.4-0.4,0.8-0.7,1.5-0.7c0.9,0,1.4,0.6,1.4,1.5c0,1-0.8,2-2,3.2c0.3,0,0.6,0,0.8,0h1.4v0.5h-3.1V31.6z"/>
			<path class="st4" d="M218.7,30.8h-2.5v1.6h-0.5v-1.6h-3.2v-0.4h1.1v-1.8h2v-1.1h-1.7c-0.3,0.5-0.7,1-1.1,1.4
				c-0.1-0.1-0.3-0.2-0.4-0.3c0.7-0.6,1.2-1.4,1.6-2.4l0.4,0.1c-0.1,0.3-0.2,0.5-0.3,0.7h4.1v0.4h-2.2v1.1h2V29h-2v1.4h2.5V30.8z
				 M215.8,30.4V29h-1.6v1.4H215.8z"/>
			<path class="st4" d="M221.8,31.6c0.4,0.2,0.9,0.2,1.6,0.2c0.3,0,2.4,0,2.8,0c-0.1,0.1-0.2,0.3-0.2,0.4h-2.6
				c-1.5,0-2.3-0.2-2.8-1.2c-0.1,0.6-0.2,1-0.4,1.4c-0.1-0.1-0.3-0.2-0.4-0.2c0.4-0.7,0.5-1.8,0.5-3l0.4,0c0,0.3,0,0.7,0,1
				c0.2,0.5,0.4,0.9,0.7,1.1v-2.6h-1.4v-0.4h1.3v-0.9h-1.1V27h1.1v-0.8h0.4V27h1v0.4h-1v0.9h1.2v0.4h-1.1v1.1h1v0.4h-1V31.6z
				 M224,31.3c-0.6,0-0.8-0.2-0.8-0.8v-4h2.5V29h-2.1v1.6c0,0.3,0.1,0.4,0.4,0.4h1.3c0.3,0,0.4-0.2,0.4-1c0.1,0.1,0.3,0.1,0.4,0.2
				c-0.1,0.9-0.2,1.2-0.8,1.2H224z M223.6,27v1.6h1.6V27H223.6z"/>
			<path class="st4" d="M228.7,29.9v2c0,0.3-0.1,0.4-0.2,0.5c-0.2,0.1-0.4,0.1-0.9,0.1c0-0.1-0.1-0.3-0.1-0.4c0.3,0,0.6,0,0.7,0
				c0.1,0,0.1,0,0.1-0.1V30c-0.3,0.1-0.6,0.2-0.9,0.3l-0.1-0.4c0.3-0.1,0.6-0.2,1-0.3V28h-0.9v-0.4h0.9v-1.4h0.4v1.4h0.9V28h-0.9
				v1.4c0.2-0.1,0.4-0.1,0.7-0.2l0.1,0.4L228.7,29.9z M232.9,29.3c-0.3,0.8-0.8,1.5-1.3,1.9c0.5,0.3,1.1,0.6,1.8,0.7
				c-0.1,0.1-0.2,0.3-0.3,0.4c-0.7-0.2-1.4-0.5-1.9-0.9c-0.6,0.4-1.3,0.7-2,0.9c0-0.1-0.1-0.3-0.2-0.4c0.7-0.1,1.3-0.4,1.9-0.8
				c-0.5-0.4-0.9-1-1.1-1.6l0,0h-0.2v-0.4h3.1l0.1,0L232.9,29.3z M230.6,27.2c0,0.6-0.2,1.3-1,1.8c-0.1-0.1-0.2-0.3-0.3-0.3
				c0.7-0.4,0.9-1,0.9-1.5v-0.7h2.1v1.6c0,0.2,0,0.3,0.1,0.3h0.6c0.1,0,0.2,0,0.3,0c0,0.1,0,0.3,0,0.4c-0.1,0-0.2,0-0.4,0h-0.6
				c-0.4,0-0.5-0.2-0.5-0.7v-1.2h-1.2V27.2z M230.1,29.7c0.2,0.5,0.6,1,1.1,1.4c0.5-0.4,0.9-0.8,1.1-1.4H230.1z"/>
			<path class="st4" d="M236.6,28.1h-1.9v-0.4h1.9V28.1z M237.1,31.6c-0.6,0.3-1.4,0.6-2.1,0.8c-0.1-0.1-0.2-0.3-0.3-0.3
				c0.7-0.1,1.5-0.4,2-0.7L237.1,31.6z M236.4,27h-1.6v-0.4h1.6V27z M239.9,31.4h-4.4v-2.7h4.4V31.4z M239.5,28.9H236v0.5h3.5V28.9z
				 M239.5,29.7H236v0.5h3.5V29.7z M239.5,30.5H236V31h3.5V30.5z M238.8,27.1c0,0.1,0,0.2,0,0.3c0.3,0.4,1.1,0.7,2,0.8
				c-0.1,0.1-0.2,0.3-0.3,0.4c-0.8-0.1-1.5-0.4-1.9-0.8c-0.2,0.3-0.7,0.7-2,0.9c0-0.1-0.2-0.3-0.2-0.3c1.8-0.3,1.9-0.7,1.9-1.1v-0.1
				h-0.8c-0.2,0.3-0.3,0.5-0.5,0.7c-0.1-0.1-0.2-0.2-0.3-0.2c0.3-0.3,0.6-0.8,0.8-1.3l0.4,0.1c0,0.1-0.1,0.3-0.1,0.4h2.3l0.1,0
				l0.3,0.1c-0.2,0.3-0.4,0.7-0.6,1l-0.4-0.1c0.1-0.1,0.2-0.4,0.3-0.6L238.8,27.1L238.8,27.1z M238.6,31.4c0.7,0.2,1.5,0.5,2,0.7
				l-0.4,0.3c-0.4-0.2-1.2-0.5-1.9-0.7L238.6,31.4z"/>
			<path class="st4" d="M243.9,29.9c-0.1-0.2-0.3-0.6-0.5-1v3.5H243v-3.5c-0.2,0.8-0.6,1.6-0.9,2.1c0-0.1-0.2-0.3-0.2-0.4
				c0.4-0.6,0.9-1.7,1.1-2.6H242v-0.4h1v-1.3h0.4v1.3h0.8V28h-0.8v0.4c0.2,0.2,0.7,1,0.8,1.2L243.9,29.9z M245.3,31
				c-0.3,0.5-0.6,0.9-1,1.2c-0.1-0.1-0.3-0.2-0.4-0.2c0.4-0.3,0.7-0.7,1-1.1L245.3,31z M245.4,26.9h-1.2v-0.4h3.8v0.4h-1.2v0.5h1.1
				V29h-3.5v-1.6h1V26.9z M246.3,30.6v1.8h-0.4v-1.8h-1.6v-0.4h3.8v0.4H246.3z M244.6,29.7v-0.4h2.9v0.4H244.6z M244.7,28.6h0.7
				v-0.9h-0.7V28.6z M246.4,26.9h-0.7v0.5h0.7V26.9z M245.7,28.6h0.7v-0.9h-0.7V28.6z M246.7,27.8v0.9h0.7v-0.9H246.7z M247.1,30.9
				c0.4,0.3,0.8,0.8,0.9,1.1l-0.4,0.2c-0.2-0.3-0.6-0.8-0.9-1.2L247.1,30.9z"/>
			<path class="st4" d="M251.1,26.3c-0.1,0.3-0.2,0.7-0.4,1h1.2v4.4H250v0.5h-0.4v-4.9h0.8c0.1-0.3,0.2-0.8,0.3-1.1L251.1,26.3z
				 M251.5,27.7H250v1.5h1.5V27.7z M251.5,31.3v-1.7H250v1.7H251.5z M255.2,27.5c-0.1,3.1-0.2,4.2-0.5,4.5c-0.1,0.2-0.3,0.2-0.5,0.3
				c-0.2,0-0.6,0-1,0c0-0.1-0.1-0.3-0.1-0.4c0.4,0,0.9,0,1,0c0.1,0,0.2,0,0.3-0.1c0.2-0.2,0.3-1.3,0.4-4H253
				c-0.2,0.5-0.4,0.9-0.6,1.2c-0.1-0.1-0.3-0.2-0.4-0.3c0.5-0.6,0.8-1.5,1-2.5l0.4,0.1c-0.1,0.3-0.2,0.7-0.3,1h2.1V27.5z
				 M253.8,30.6c-0.2-0.4-0.7-1.1-1.1-1.6l0.3-0.2c0.4,0.5,0.9,1.1,1.1,1.5L253.8,30.6z"/>
			<path class="st4" d="M257,26.9h2.8v0.5h-2.3V29h1.9v0.5h-1.9v1.9h2.3v0.5H257V26.9z"/>
			<path class="st4" d="M261.1,31.3l0.3-0.4c0.4,0.4,0.9,0.6,1.4,0.6c0.7,0,1.1-0.3,1.1-0.9c0-0.5-0.4-0.7-0.9-0.9l-0.7-0.3
				c-0.5-0.2-1-0.5-1-1.3c0-0.8,0.7-1.3,1.5-1.3c0.6,0,1.1,0.3,1.4,0.6l-0.3,0.4c-0.3-0.3-0.7-0.5-1.2-0.5c-0.6,0-1,0.3-1,0.8
				c0,0.5,0.4,0.7,0.8,0.9l0.7,0.3c0.6,0.3,1,0.6,1,1.3c0,0.8-0.6,1.4-1.7,1.4C262.2,32,261.6,31.7,261.1,31.3z"/>
			<path class="st4" d="M265.8,29.4c0-1.6,0.9-2.6,2.3-2.6c0.7,0,1.1,0.3,1.4,0.6l-0.3,0.4c-0.3-0.3-0.6-0.5-1.1-0.5
				c-1,0-1.7,0.8-1.7,2.1c0,1.3,0.6,2.1,1.7,2.1c0.4,0,0.7-0.1,0.9-0.3v-1.4h-1.1v-0.5h1.6v2.1c-0.3,0.3-0.9,0.6-1.5,0.6
				C266.7,32,265.8,31,265.8,29.4z"/>
			<path class="st4" d="M271,26.6h3.4V27h-1.8c-0.1,0.4-0.2,0.7-0.3,1.1h1.6l0.1,0l0.3,0.1c-0.3,2.3-1.4,3.6-2.8,4.3
				c-0.1-0.1-0.2-0.3-0.3-0.4c0.7-0.3,1.3-0.8,1.8-1.4c-0.3-0.3-0.8-0.7-1.3-1c-0.1,0.2-0.2,0.3-0.3,0.5c-0.1-0.1-0.2-0.3-0.3-0.4
				c0.6-0.6,0.9-1.6,1.2-2.7H271V26.6z M272.2,28.5c-0.1,0.2-0.2,0.5-0.3,0.7c0.5,0.3,1,0.7,1.3,1c0.3-0.5,0.5-1.1,0.6-1.7H272.2z
				 M275.4,30.8H275V27h0.4V30.8z M276.8,26.2v5.6c0,0.3-0.1,0.4-0.3,0.5c-0.2,0.1-0.5,0.1-1,0.1c0-0.1-0.1-0.3-0.2-0.4
				c0.4,0,0.7,0,0.8,0c0.1,0,0.1,0,0.1-0.2v-5.6H276.8z"/>
			<path class="st4" d="M284.2,29.9c0,0,0,0.1,0,0.2c-0.1,1.4-0.3,2-0.5,2.2c-0.1,0.1-0.2,0.2-0.4,0.2c-0.2,0-0.5,0-0.8,0
				c0-0.1,0-0.3-0.1-0.4c0.3,0,0.7,0,0.8,0c0.1,0,0.2,0,0.2-0.1c0.1-0.2,0.3-0.6,0.4-1.7h-4.1c-0.4,0.3-0.8,0.6-1.2,0.9
				c-0.1-0.1-0.2-0.3-0.2-0.4c1.3-0.7,2.2-1.7,2.9-2.9h-2.5v-0.4h1.4c-0.1-0.3-0.3-0.7-0.6-1l0.4-0.1c0.2,0.3,0.5,0.7,0.6,1
				l-0.4,0.2h1.2c0.2-0.4,0.4-0.8,0.5-1.2l0.4,0.1c-0.1,0.4-0.3,0.7-0.4,1.1h1.4c-0.1,0.4-0.1,0.9-0.2,1.2h0.8
				c-0.1,0.4-0.1,0.9-0.2,1.2H284.2z M278.5,32.1c0.4-0.3,0.7-0.9,0.8-1.4l0.4,0.1c-0.1,0.6-0.4,1.2-0.8,1.5L278.5,32.1z
				 M283.2,29.9c0-0.2,0.1-0.5,0.1-0.8h-2.5c-0.2,0.3-0.5,0.6-0.7,0.8H283.2z M280.6,30.8c0.1,0.4,0.2,0.9,0.2,1.2l-0.4,0.1
				c0-0.3-0.1-0.8-0.2-1.2L280.6,30.8z M281.6,27.8c-0.1,0.3-0.3,0.6-0.5,0.8h1.5c0.1-0.2,0.1-0.5,0.2-0.8H281.6z M281.6,30.7
				c0.2,0.3,0.3,0.8,0.4,1.1l-0.4,0.1c0-0.3-0.2-0.8-0.4-1.1L281.6,30.7z M282.8,31.6c-0.1-0.3-0.3-0.6-0.5-0.9l0.3-0.1
				c0.2,0.3,0.4,0.7,0.5,0.9L282.8,31.6z"/>
			<path class="st4" d="M287,29.9v2c0,0.3-0.1,0.4-0.2,0.5c-0.2,0.1-0.4,0.1-0.9,0.1c0-0.1-0.1-0.3-0.1-0.4c0.3,0,0.6,0,0.7,0
				c0.1,0,0.1,0,0.1-0.1V30c-0.3,0.1-0.6,0.2-0.9,0.3l-0.1-0.4c0.3-0.1,0.6-0.2,1-0.3V28h-0.9v-0.4h0.9v-1.4h0.4v1.4h0.9V28H287v1.4
				c0.2-0.1,0.4-0.1,0.7-0.2l0.1,0.4L287,29.9z M291.3,29.3c-0.3,0.8-0.8,1.5-1.3,1.9c0.5,0.3,1.1,0.6,1.8,0.7
				c-0.1,0.1-0.2,0.3-0.3,0.4c-0.7-0.2-1.4-0.5-1.9-0.9c-0.6,0.4-1.3,0.7-2,0.9c0-0.1-0.1-0.3-0.2-0.4c0.7-0.1,1.3-0.4,1.9-0.8
				c-0.5-0.4-0.9-1-1.1-1.6l0,0h-0.2v-0.4h3.1l0.1,0L291.3,29.3z M288.9,27.2c0,0.6-0.2,1.3-1,1.8c-0.1-0.1-0.2-0.3-0.3-0.3
				c0.7-0.4,0.9-1,0.9-1.5v-0.7h2.1v1.6c0,0.2,0,0.3,0.1,0.3h0.6c0.1,0,0.2,0,0.3,0c0,0.1,0,0.3,0,0.4c-0.1,0-0.2,0-0.4,0h-0.6
				c-0.4,0-0.5-0.2-0.5-0.7v-1.2h-1.2V27.2z M288.5,29.7c0.2,0.5,0.6,1,1.1,1.4c0.5-0.4,0.9-0.8,1.1-1.4H288.5z"/>
			<path class="st4" d="M294.9,28.1H293v-0.4h1.9V28.1z M295.4,31.6c-0.6,0.3-1.4,0.6-2.1,0.8c-0.1-0.1-0.2-0.3-0.3-0.3
				c0.7-0.1,1.5-0.4,2-0.7L295.4,31.6z M294.7,27h-1.6v-0.4h1.6V27z M298.2,31.4h-4.4v-2.7h4.4V31.4z M297.8,28.9h-3.5v0.5h3.5V28.9
				z M297.8,29.7h-3.5v0.5h3.5V29.7z M297.8,30.5h-3.5V31h3.5V30.5z M297.2,27.1c0,0.1,0,0.2,0,0.3c0.3,0.4,1.1,0.7,2,0.8
				c-0.1,0.1-0.2,0.3-0.3,0.4c-0.8-0.1-1.5-0.4-1.9-0.8c-0.2,0.3-0.7,0.7-2,0.9c0-0.1-0.2-0.3-0.2-0.3c1.8-0.3,1.9-0.7,1.9-1.1v-0.1
				H296c-0.2,0.3-0.3,0.5-0.5,0.7c-0.1-0.1-0.2-0.2-0.3-0.2c0.3-0.3,0.6-0.8,0.8-1.3l0.4,0.1c0,0.1-0.1,0.3-0.1,0.4h2.3l0.1,0
				l0.3,0.1c-0.2,0.3-0.4,0.7-0.6,1l-0.4-0.1c0.1-0.1,0.2-0.4,0.3-0.6L297.2,27.1L297.2,27.1z M297,31.4c0.7,0.2,1.5,0.5,2,0.7
				l-0.4,0.3c-0.4-0.2-1.2-0.5-1.9-0.7L297,31.4z"/>
			<path class="st4" d="M301.4,28.2c-0.3-0.2-0.7-0.4-1.1-0.5l0.2-0.3c0.4,0.1,0.9,0.3,1.1,0.4L301.4,28.2z M306.4,31.1h-2.8v1.4
				h-0.5v-1.4h-2.8v-0.4h2.8v-0.5h0.5v0.5h2.8L306.4,31.1z M300.5,29.9c0.4-0.3,0.9-0.9,1.3-1.4l0.2,0.3c-0.4,0.5-0.8,1-1.3,1.4
				L300.5,29.9z M301.9,27.1c-0.3-0.2-0.7-0.4-1.1-0.6l0.2-0.3c0.4,0.1,0.9,0.3,1.1,0.5L301.9,27.1z M302.4,27.8
				c-0.1,0.2-0.3,0.3-0.4,0.4c-0.1-0.1-0.3-0.2-0.4-0.3c0.6-0.4,1.1-1,1.4-1.7l0.4,0.1c-0.1,0.2-0.2,0.4-0.4,0.7h1.2
				c-0.1-0.2-0.2-0.4-0.3-0.6l0.4-0.1c0.1,0.2,0.3,0.5,0.4,0.7h1.4v0.4h-1.5v0.5h1.3v0.3h-1.3v0.5h1.3V29h-1.3v0.6h1.6V30h-3.4v0.3
				h-0.4V27.8z M304.1,27.3h-1.3v0.5h1.3V27.3z M304.1,28.2h-1.3v0.5h1.3V28.2z M304.1,29h-1.3v0.6h1.3V29z"/>
			<path class="st4" d="M308.9,31.1c-0.2,0.5-0.6,1-1,1.3c-0.1-0.1-0.3-0.2-0.4-0.3c0.4-0.3,0.7-0.7,0.9-1.2L308.9,31.1z
				 M310.6,26.5v4.3H308v-4.3H310.6z M308.4,27.8h1.7v-0.9h-1.7V27.8z M308.4,29.1h1.7v-0.9h-1.7V29.1z M308.4,30.3h1.7v-0.9h-1.7
				V30.3z M310,31c0.3,0.4,0.6,0.8,0.8,1.2l-0.4,0.2c-0.1-0.3-0.5-0.8-0.8-1.2L310,31z M311.8,27v3.7h-0.4V27H311.8z M313.5,26.4
				v5.5c0,0.3-0.1,0.5-0.3,0.5c-0.2,0.1-0.6,0.1-1.2,0.1c0-0.1-0.1-0.3-0.2-0.4c0.5,0,0.9,0,1,0c0.1,0,0.2,0,0.2-0.2v-5.5H313.5z"/>
		</g>
		<g class="st3">
			<path class="st4" d="M52.3,59.2c-0.1,0.7-0.3,1.5-0.4,2c-0.1-0.1-0.4-0.1-0.6-0.2c0.2-0.5,0.3-1.3,0.4-2L52.3,59.2z M53.9,58.7
				c0-0.1-0.1-0.3-0.1-0.4c-1.8,0.3-2.1,0.3-2.2,0.4c0-0.2-0.2-0.5-0.3-0.7c0.2-0.1,0.4-0.3,0.7-0.6c0.1-0.1,0.4-0.5,0.6-0.9
				c-0.8,0.1-1,0.1-1.1,0.2c0-0.2-0.2-0.5-0.3-0.7c0.1,0,0.3-0.2,0.5-0.5c0.2-0.3,0.7-1.2,1-2.1l0.7,0.3c-0.3,0.8-0.8,1.6-1.2,2.2
				l0.8-0.1c0.2-0.4,0.5-0.8,0.7-1.2l0.7,0.4c-0.5,1-1.2,2-1.9,2.8l1.1-0.2c-0.1-0.3-0.2-0.5-0.3-0.8l0.5-0.2
				c0.2,0.5,0.5,1.3,0.6,1.7L53.9,58.7z M53.1,59.1c0.1,0.6,0.2,1.3,0.2,1.8L52.7,61c0-0.5-0.1-1.3-0.2-1.9L53.1,59.1z M54,58.8
				c0.2,0.5,0.4,1.2,0.5,1.7l-0.6,0.2c-0.1-0.5-0.3-1.2-0.5-1.7L54,58.8z M59,60.8c-0.4-0.3-1.1-0.9-1.8-1.3v1.2
				c0,0.4-0.1,0.6-0.3,0.7c-0.2,0.1-0.6,0.1-1.1,0.1c0-0.2-0.1-0.5-0.2-0.7c0.3,0,0.6,0,0.7,0c0.1,0,0.1,0,0.1-0.1v-1.2
				c-0.6,0.4-1.1,0.8-1.6,1.2l-0.4-0.6c0.5-0.3,1.3-0.8,2-1.3v-1.4h-2.1v-0.7h3c0-0.2,0.1-0.3,0.1-0.5h-2.6c0.2-0.7,0.5-1.8,0.7-2.7
				l0.8,0.1c0,0.2-0.1,0.4-0.1,0.7h1.7l0.1,0l0.6,0.1c-0.1,0.7-0.3,1.7-0.5,2.4h1.3v0.7h-2.2v1.3l0.3,0.2c0.3-0.4,0.7-0.9,0.9-1.2
				L59,58c-0.3,0.4-0.7,0.9-1,1.2c0.6,0.4,1.1,0.7,1.4,1L59,60.8z M55.6,59.1c-0.2-0.3-0.7-0.7-1-1l0.4-0.4c0.4,0.3,0.8,0.7,1,1
				L55.6,59.1z M57.6,55.5c0.1-0.2,0.1-0.5,0.1-0.7H56c-0.1,0.2-0.1,0.5-0.2,0.7H57.6z"/>
			<path class="st4" d="M66.9,60.6c0.8,0,1-0.2,1.1-1.3c0.2,0.1,0.6,0.2,0.8,0.3c-0.2,1.4-0.5,1.8-1.8,1.8h-3.2
				c-1.5,0-1.9-0.3-1.9-1.4v-3.5c-0.2,0.2-0.4,0.3-0.7,0.5c-0.1-0.2-0.3-0.6-0.4-0.8c1-0.6,2.1-1.7,2.7-2.8l0.7,0.3
				c-0.1,0.2-0.2,0.3-0.3,0.5h2.2l0.2,0l0.5,0.4c-0.3,0.4-0.7,0.9-1.1,1.3h2.3v3.2h-0.8v-0.3h-4.5V60c0,0.5,0.2,0.6,1.1,0.6H66.9z
				 M63.4,54.9c-0.3,0.3-0.5,0.7-0.8,1h2.2c0.3-0.3,0.6-0.6,0.8-1H63.4z M62.6,57.9h1.8v-1.3h-1.8V57.9z M67.1,56.6h-1.9v1.3h1.9
				V56.6z"/>
			<path class="st4" d="M76.5,53.5c0,0.5-0.1,1-0.2,1.4c0.6,0.3,1.3,0.7,1.7,1l-0.4,0.5h0.3v1.6h-0.8v-1h-5.7v1h-0.8v-1.6h0.1
				c-0.1-0.2-0.3-0.4-0.4-0.5c1.5-0.3,1.7-1,1.8-2.3h0.7c0,0.6-0.1,1-0.2,1.4c0.4,0.3,1,0.6,1.3,0.8l-0.5,0.5
				c-0.3-0.2-0.7-0.5-1.1-0.8c-0.3,0.4-0.7,0.6-1.4,0.8h3.5c-0.1-0.2-0.3-0.5-0.4-0.6c1.5-0.3,1.7-0.9,1.8-2.2H76.5z M71.2,54.9
				c-0.1-0.2-0.4-0.6-0.7-0.9l0.5-0.4c0.2,0.3,0.5,0.6,0.7,0.8L71.2,54.9z M74,59.4h3.4v2.1h-0.8v-0.2h-4.5v0.2h-0.8v-2.1h2
				c0.1-0.1,0.1-0.3,0.2-0.4h-1.5v-1.7h4.7V59h-2.4L74,59.4z M76.5,60h-4.5v0.7h4.5V60z M72.6,58.5h3.1v-0.6h-3.1V58.5z M74.2,54.1
				c-0.3,0.3-0.6,0.7-0.8,0.9l-0.5-0.2c0.2-0.3,0.5-0.6,0.6-0.9L74.2,54.1z M74.8,54.9c-0.1-0.2-0.4-0.6-0.7-0.9l0.5-0.4
				c0.2,0.3,0.5,0.6,0.7,0.8L74.8,54.9z M77.4,56.3c-0.4-0.2-0.9-0.6-1.4-0.8c-0.3,0.4-0.8,0.6-1.5,0.8H77.4z M78,54.1
				c-0.3,0.3-0.6,0.7-0.8,0.9l-0.5-0.2c0.2-0.3,0.5-0.7,0.6-0.9L78,54.1z"/>
			<path class="st4" d="M81.9,57.7c-0.1,0.7-0.3,1.5-0.6,2.2c0.1,0.1,0.3,0.2,0.6,0.4c0.6,0.4,1.4,0.4,2.4,0.4
				c1.1,0,2.5-0.1,3.5-0.2c-0.1,0.2-0.2,0.6-0.2,0.8c-0.7,0-2.3,0.1-3.3,0.1c-1.1,0-1.9-0.1-2.5-0.5c-0.3-0.2-0.7-0.5-0.9-0.5
				c-0.2,0-0.5,0.6-0.7,1.1l-0.6-0.8c0.3-0.4,0.6-0.8,0.9-0.9c0.2-0.5,0.4-1.1,0.5-1.7h-1.1c0.2-0.5,0.5-1.2,0.7-1.9h-0.9v-0.7h1.9
				c-0.2,0.6-0.5,1.3-0.7,1.9h0.3l0.1,0L81.9,57.7z M80.6,55.2c-0.1-0.4-0.3-1-0.5-1.5l0.7-0.2c0.2,0.5,0.4,1,0.5,1.4L80.6,55.2z
				 M82.7,55.4H82v-1.6h5.5v1.6h-0.8v-1h-3.9v0.7h1.6v-0.4h0.8v0.4h1.5v0.6h-1.5v0.4H87v2.5h-1.9V59h2.3v0.6h-2.3v0.7h-0.8v-0.7H82
				V59h2.3v-0.4h-1.9v-2.5h1.9v-0.4h-1.7V55.4z M83.2,57.1h1.2v-0.5h-1.2V57.1z M84.3,58.1v-0.5h-1.2v0.5H84.3z M85.1,56.6v0.5h1.1
				v-0.5H85.1z M86.3,57.6h-1.1v0.5h1.1V57.6z"/>
		</g>
		<g class="st3">
			<path class="st4" d="M51.3,73.1c1.6-1.4,2.3-2.4,2.3-3.3c0-0.6-0.3-1-0.9-1c-0.4,0-0.8,0.3-1.1,0.6l-0.3-0.3
				c0.4-0.4,0.8-0.7,1.4-0.7c0.9,0,1.4,0.6,1.4,1.5c0,1-0.8,2-2,3.2c0.3,0,0.6,0,0.8,0h1.4v0.5h-3.1V73.1z"/>
			<path class="st4" d="M55.6,70.9c0-1.7,0.6-2.6,1.5-2.6c0.9,0,1.5,0.8,1.5,2.6c0,1.7-0.6,2.6-1.5,2.6
				C56.2,73.5,55.6,72.7,55.6,70.9z M58.1,70.9c0-1.5-0.4-2.1-1-2.1c-0.6,0-1,0.7-1,2.1c0,1.5,0.4,2.2,1,2.2
				C57.7,73.1,58.1,72.4,58.1,70.9z"/>
			<path class="st4" d="M59.8,73.1c1.6-1.4,2.3-2.4,2.3-3.3c0-0.6-0.3-1-0.9-1c-0.4,0-0.8,0.3-1.1,0.6l-0.3-0.3
				c0.4-0.4,0.8-0.7,1.4-0.7c0.9,0,1.4,0.6,1.4,1.5c0,1-0.8,2-2,3.2c0.3,0,0.6,0,0.8,0h1.4v0.5h-3.1V73.1z"/>
			<path class="st4" d="M64.1,73.1c1.6-1.4,2.3-2.4,2.3-3.3c0-0.6-0.3-1-0.9-1c-0.4,0-0.8,0.3-1.1,0.6l-0.3-0.3
				c0.4-0.4,0.8-0.7,1.4-0.7c0.9,0,1.4,0.6,1.4,1.5c0,1-0.8,2-2,3.2c0.3,0,0.6,0,0.8,0h1.4v0.5h-3.1V73.1z"/>
			<path class="st4" d="M74.5,72.4H72v1.6h-0.5v-1.6h-3.2v-0.4h1.1v-1.8h2V69h-1.7c-0.3,0.5-0.7,1-1.1,1.4c-0.1-0.1-0.3-0.2-0.4-0.3
				c0.7-0.6,1.2-1.4,1.6-2.4l0.4,0.1c-0.1,0.3-0.2,0.5-0.3,0.7h4.1V69H72v1.1h2v0.4h-2v1.4h2.5V72.4z M71.6,71.9v-1.4H70v1.4H71.6z"
				/>
			<path class="st4" d="M81.2,73.4c0.3,0,0.3-0.1,0.3-0.9c0.1,0.1,0.3,0.1,0.4,0.2c-0.1,0.9-0.2,1.2-0.7,1.2h-1.1
				c-0.6,0-0.8-0.1-0.8-0.6v-1.8h-1.2C78,72.9,77.7,73.6,76,74c0-0.1-0.1-0.3-0.2-0.4c1.5-0.3,1.8-0.9,1.9-2.2h-1.8V71h6v0.4h-2v1.8
				c0,0.2,0.1,0.2,0.3,0.2H81.2z M76.5,70H76v-1.5h2.7c-0.1-0.2-0.2-0.5-0.4-0.7l0.4-0.1c0.2,0.3,0.3,0.6,0.4,0.8h2.4V70h-0.5v-1
				h-4.7V70z M77,70.2v-0.4h3.7v0.4H77z"/>
			<path class="st4" d="M88.8,70c-0.3,0.9-0.7,1.7-1.2,2.3c0.3,0.7,0.6,1.1,1,1.1c0.2,0,0.3-0.4,0.3-1.3c0.1,0.1,0.3,0.2,0.4,0.2
				c-0.1,1.1-0.3,1.5-0.7,1.5c-0.5,0-0.9-0.4-1.3-1.2c-0.4,0.5-0.9,0.8-1.5,1.2c-0.1-0.1-0.2-0.3-0.3-0.4c0.6-0.3,1.2-0.8,1.6-1.3
				c-0.3-0.8-0.4-1.8-0.5-2.9h-2.4v0.9h1.7v0.2c0,1.5-0.1,2.1-0.2,2.3c-0.1,0.1-0.2,0.2-0.4,0.2c-0.2,0-0.5,0-0.8,0
				c0-0.1-0.1-0.3-0.1-0.4c0.3,0,0.6,0,0.7,0c0.1,0,0.2,0,0.2-0.1c0.1-0.1,0.1-0.6,0.2-1.8h-1.3v0.1c0,0.9-0.1,2.3-0.7,3.2
				c-0.1-0.1-0.3-0.3-0.4-0.3c0.6-0.8,0.6-2,0.6-2.9v-1.9h2.9c0-0.4,0-0.8,0-1.2H87c0,0.4,0,0.8,0,1.2h2.2v0.4H87
				c0.1,0.9,0.2,1.8,0.4,2.4c0.4-0.6,0.7-1.2,0.9-1.9L88.8,70z M88.6,68.9c-0.3-0.2-0.8-0.6-1.2-0.8l0.3-0.3c0.4,0.2,1,0.5,1.2,0.8
				L88.6,68.9z"/>
			<path class="st4" d="M91.6,70.7c-0.2-0.2-0.7-0.5-1.2-0.7l0.3-0.3c0.4,0.2,0.9,0.5,1.2,0.7L91.6,70.7z M92,71.7
				c-0.3,0.7-0.7,1.6-1.1,2.2l-0.4-0.3c0.3-0.5,0.8-1.4,1.1-2.2L92,71.7z M91.9,68.9c-0.2-0.2-0.7-0.6-1.2-0.8l0.3-0.3
				c0.4,0.2,0.9,0.5,1.1,0.7L91.9,68.9z M96.6,73.3v0.4h-4.8v-0.4h0.6v-2.1h3.7v2.1H96.6z M95.9,70.7h-3.2v-2.6h3.2V70.7z
				 M92.8,73.3h0.7v-1.7h-0.7V73.3z M95.5,68.4h-2.4v1.9h2.4V68.4z M95,70.2c-0.2-0.2-0.5-0.5-0.8-0.8c-0.2,0.3-0.4,0.6-0.8,0.8
				c0-0.1-0.1-0.2-0.2-0.2c0.5-0.3,0.8-0.8,0.9-1.4l0.3,0c0,0.2-0.1,0.4-0.2,0.6c0.3,0.3,0.7,0.6,0.9,0.8L95,70.2z M93.9,71.6v1.7
				h0.7v-1.7H93.9z M95,71.6v1.7h0.7v-1.7H95z"/>
			<path class="st4" d="M103.9,73.3v0.4h-6v-0.4h2.7v-1h-2.1V72h2.1v-0.8h0.5V72h2.2v0.4h-2.2v1H103.9z M98.4,69.5H98v-1.2h2.8
				c-0.1-0.2-0.2-0.4-0.3-0.5l0.4-0.1c0.1,0.2,0.3,0.5,0.4,0.7h2.5v1.2h-0.5v-0.8h-4.9V69.5z M102.9,71.4c-0.1-0.1-0.2-0.3-0.4-0.4
				c-3.3,0.3-3.6,0.3-3.8,0.4c0-0.1-0.1-0.3-0.1-0.4c0.1,0,0.3-0.1,0.5-0.2c0.1-0.1,0.6-0.4,1-0.9h-1.4v-0.4h4.5v0.4h-2.5
				c-0.4,0.4-0.8,0.7-1.2,1l2.7-0.2c-0.2-0.2-0.4-0.4-0.6-0.5l0.3-0.2c0.5,0.4,1,0.9,1.3,1.2L102.9,71.4z"/>
			<path class="st4" d="M106.6,68.7c-0.3,0.5-0.7,1-1.2,1.3c-0.1-0.1-0.2-0.3-0.3-0.3c0.6-0.5,1.2-1.2,1.5-2l0.4,0.1
				c-0.1,0.2-0.2,0.3-0.3,0.5h4.2v0.4H106.6z M107,72.5c-0.3,0.5-0.9,1.1-1.4,1.4c-0.1-0.1-0.2-0.2-0.3-0.3c0.5-0.2,1.1-0.7,1.4-1.2
				L107,72.5z M107.6,72.1v1.8h-0.4v-1.8h-1.9v-0.4h1.9v-1.2h0.4v1.2h1.8v0.4H107.6z M110.2,70c0,2.2,0,3.5,0.6,3.5
				c0.1,0,0.2-0.4,0.2-1c0.1,0.1,0.2,0.2,0.3,0.3c0,0.9-0.1,1.2-0.5,1.2c-0.9,0-1-1.3-1-3.5h-3.9V70H110.2z M106.2,70.6
				c0.2,0.3,0.5,0.6,0.6,0.9l-0.4,0.2c-0.1-0.2-0.3-0.6-0.5-0.9L106.2,70.6z M106.5,69.6v-0.4h4.1v0.4H106.5z M108.2,72.4
				c0.5,0.3,1,0.8,1.3,1.1l-0.3,0.3c-0.3-0.3-0.8-0.8-1.3-1.1L108.2,72.4z M109.1,70.8c-0.2,0.3-0.5,0.7-0.7,0.9l-0.3-0.1
				c0.2-0.3,0.5-0.7,0.6-0.9L109.1,70.8z"/>
			<path class="st4" d="M114.8,69.9h0.3v1h-0.3v2.6c0,0.2,0,0.3-0.2,0.4c-0.1,0.1-0.4,0.1-0.8,0.1c0-0.1-0.1-0.3-0.1-0.4
				c0.3,0,0.5,0,0.6,0c0.1,0,0.1,0,0.1-0.1v-0.9c-0.3,0.2-0.7,0.4-1,0.6l-0.2-0.3c0.3-0.1,0.7-0.3,1.1-0.6V71h-1.1V72
				c0,0.6-0.1,1.4-0.5,2c-0.1-0.1-0.2-0.2-0.3-0.2c0.4-0.5,0.4-1.2,0.4-1.8v-1.1h-0.3v-1h0.3V68h2V69.9z M114.7,70.2h-1.8v0.5h1.8
				V70.2z M113.2,69.9h0.5v-1.1h0.8v-0.5h-1.2V69.9z M114.1,72.1c-0.2-0.2-0.5-0.4-0.7-0.6l0.2-0.2c0.3,0.2,0.6,0.4,0.8,0.6
				L114.1,72.1z M114.4,69.9v-0.8h-0.5v0.8H114.4z M118.6,73.4v0.4h-3.5v-0.4h1c-0.1-0.2-0.2-0.5-0.2-0.7l0.4-0.1
				c0.1,0.2,0.2,0.5,0.3,0.8h0.7c0.1-0.2,0.2-0.6,0.3-0.8l0.4,0.1c-0.1,0.2-0.2,0.5-0.3,0.7H118.6z M118.6,71h-3.4v-0.4h3.4V71z
				 M118.4,70.3h-3v-2h0.8v-0.5h0.4v0.5h0.5v-0.5h0.4v0.5h0.9V70.3z M115.5,72.6v-1.2h2.7v1.2H115.5z M115.7,69.1h0.5v-0.5h-0.5
				V69.1z M115.7,70h0.5v-0.5h-0.5V70z M115.9,72.3h1.9v-0.6h-1.9V72.3z M117.1,69.1v-0.5h-0.5v0.5H117.1z M116.6,69.4V70h0.5v-0.5
				H116.6z M118,68.6h-0.6v0.5h0.6V68.6z M118,69.4h-0.6V70h0.6V69.4z"/>
			<path class="st4" d="M121.1,71.3v2.1c0,0.3-0.1,0.4-0.2,0.5c-0.1,0.1-0.4,0.1-0.8,0.1c0-0.1-0.1-0.3-0.1-0.4c0.3,0,0.6,0,0.6,0
				c0.1,0,0.1,0,0.1-0.1v-2c-0.3,0.1-0.6,0.2-0.8,0.3l-0.1-0.4c0.3-0.1,0.6-0.2,1-0.3v-1.4h-0.9v-0.4h0.9v-1.4h0.4v1.4h0.8v0.4h-0.8
				v1.3c0.2-0.1,0.5-0.1,0.7-0.2l0.1,0.4L121.1,71.3z M123.1,67.7h0.4v2.9c0,1.3-0.1,2.5-1.4,3.3c-0.1-0.1-0.2-0.2-0.3-0.3
				c0.7-0.4,1-1,1.2-1.6c-0.4,0.2-0.8,0.3-1.1,0.4l-0.2-0.4c0.4-0.1,0.9-0.3,1.4-0.4c0-0.3,0.1-0.6,0.1-0.9H122v-0.4h1.1v-1h-1.1
				v-0.4h1.1V67.7z M126,72.2h-1.3v1.7h-0.4v-6.2h0.4v1.2h1.2v0.4h-1.2v1h1.1v0.4h-1.1v1.1h1.3V72.2z"/>
			<path class="st4" d="M129.8,70.2c0,0,0,0.1,0,0.2c0,2.2-0.1,3-0.3,3.2c-0.1,0.1-0.2,0.2-0.4,0.2c-0.2,0-0.4,0-0.7,0
				c0-0.1-0.1-0.3-0.1-0.4c0.3,0,0.6,0,0.7,0c0.1,0,0.1,0,0.2-0.1c0.1-0.1,0.2-0.8,0.2-2.7h-1v0.1c0,1.1-0.1,2.3-1,3.2
				c-0.1-0.1-0.2-0.2-0.3-0.3c0.8-0.9,0.9-2,0.9-2.9v-1.4h-0.8v-0.4h3v0.4h-1.7v0.9H129.8z M128.6,68.8c-0.1-0.3-0.2-0.6-0.4-0.9
				l0.4-0.1c0.1,0.3,0.3,0.7,0.4,0.9L128.6,68.8z M132.8,69.4c-0.2,1.1-0.5,2-0.9,2.8c0.4,0.6,0.8,1.1,1.4,1.4
				c-0.1,0.1-0.2,0.3-0.3,0.4c-0.6-0.3-1-0.8-1.4-1.3c-0.4,0.6-0.9,1-1.6,1.4c0-0.1-0.2-0.3-0.3-0.4c0.7-0.3,1.3-0.8,1.7-1.4
				c-0.3-0.6-0.5-1.2-0.7-2c-0.1,0.3-0.3,0.6-0.5,0.9c-0.1-0.1-0.3-0.3-0.4-0.3c0.6-0.7,0.9-1.9,1.1-3l0.5,0.1
				c-0.1,0.4-0.2,0.8-0.3,1.2h2.2v0.4H132.8z M131,69.5c0.1,0.8,0.4,1.6,0.7,2.2c0.3-0.6,0.6-1.4,0.7-2.3L131,69.5L131,69.5z"/>
			<path class="st4" d="M140.2,69.8c-0.2,0.4-0.5,0.8-0.9,1.1c0.4,0.2,0.9,0.4,1.4,0.5c-0.1,0.1-0.2,0.2-0.3,0.4
				c-0.6-0.1-1.1-0.3-1.5-0.6c-0.4,0.2-0.9,0.4-1.4,0.5c0-0.1-0.1-0.2-0.2-0.3c0,0.1-0.1,0.2-0.2,0.2c-0.2,0.1-0.4,0.1-0.8,0.1
				c0-0.1-0.1-0.3-0.1-0.4c0.3,0,0.5,0,0.6,0c0.1,0,0.1,0,0.1-0.1V70c-0.5,0-1,0.1-1.5,0.1c-0.1,0.6-0.2,1.3-0.7,1.8
				c-0.1-0.1-0.2-0.2-0.3-0.3c0.4-0.4,0.6-1,0.6-1.5l-0.6,0l0-0.4c0.2,0,0.4,0,0.6,0c0-0.1,0-0.2,0-0.2v-1.2h0.7
				c0.1-0.2,0.2-0.4,0.2-0.5l0.4,0.1c-0.1,0.2-0.1,0.3-0.2,0.4h1.1v1.4l0.2,0l0,0.3l-0.2,0v1.3c0,0.1,0,0.1,0,0.1
				c0.5-0.1,0.9-0.2,1.3-0.4c-0.3-0.2-0.5-0.5-0.7-0.8l0.3-0.1h-0.5v-0.3h2.2l0.1,0L140.2,69.8z M139.8,73.4h0.8v0.4h-6.2v-0.4h0.8
				v-1.5h4.5V73.4z M135.5,69.5c0,0.1,0,0.1,0,0.2c0.4,0,0.9,0,1.4-0.1v-1.1h-1.4V69.5z M136.2,71c-0.1-0.2-0.3-0.4-0.5-0.6l0.2-0.2
				c0.2,0.1,0.4,0.4,0.5,0.6L136.2,71z M135.7,73.4h0.9v-1.2h-0.9V73.4z M136,68.8c0.2,0.2,0.4,0.4,0.5,0.5l-0.3,0.2
				c-0.1-0.2-0.3-0.4-0.5-0.6L136,68.8z M137.1,72.2v1.2h0.9v-1.2H137.1z M138.4,68.5c0,0.4-0.1,0.9-0.7,1.2c0-0.1-0.2-0.2-0.3-0.3
				c0.5-0.3,0.6-0.6,0.6-0.9V68h1.7v0.9c0,0.1,0,0.2,0.1,0.2h0.4c0.1,0,0.2,0,0.3,0c0,0.1,0,0.2,0,0.3c-0.1,0-0.2,0-0.3,0h-0.5
				c-0.4,0-0.5-0.1-0.5-0.5v-0.5h-1V68.5z M138.3,70.1c0.2,0.2,0.4,0.5,0.7,0.7c0.3-0.2,0.5-0.4,0.7-0.7H138.3z M138.5,72.2v1.2h0.9
				v-1.2H138.5z"/>
			<path class="st4" d="M141.8,73.8c0.3-0.3,0.4-0.8,0.4-1.2l0.3,0.1c-0.1,0.5-0.2,1-0.5,1.3L141.8,73.8z M141.9,71.8
				c0.4,0,0.8,0,1.3-0.1v-0.6H142v-0.4h1.1v-0.5h-1.1V68h2.6v2.3h-1.2v0.5h1.2v0.4h-1.2v0.5l1.3-0.1l0,0.4c-1.1,0.1-2.2,0.2-3,0.2
				L141.9,71.8z M142.4,70h0.8v-1.7h-0.8V70z M142.8,68.6c0.1,0.3,0.2,0.8,0.2,1l-0.3,0.1c0-0.3-0.1-0.7-0.2-1L142.8,68.6z
				 M143.1,72.5c0.1,0.4,0.2,0.9,0.2,1.2l-0.3,0c0-0.3-0.1-0.8-0.2-1.2L143.1,72.5z M143.7,72.4c0.2,0.3,0.3,0.8,0.4,1.1l-0.3,0.1
				c0-0.3-0.2-0.7-0.3-1.1L143.7,72.4z M144.3,68.3h-0.8V70h0.8V68.3z M143.6,69.7c0.1-0.3,0.2-0.8,0.3-1.1l0.3,0.1
				c-0.1,0.4-0.3,0.8-0.4,1.1L143.6,69.7z M144.4,72.3c0.3,0.3,0.5,0.7,0.6,1l-0.3,0.1c-0.1-0.3-0.3-0.7-0.6-1L144.4,72.3z
				 M146.6,69.7V71h1.2v2.9h-0.4v-0.3h-1.8v0.3h-0.4v-3h1v-3.2h0.4v1.5h1.5v0.4H146.6z M147.3,71.4h-1.8v1.8h1.8V71.4z"/>
			<path class="st4" d="M151.6,69.3h-2.4v-0.4h2.4V69.3z M151.4,70.1h-2v-0.4h2V70.1z M149.3,70.7h2v0.4h-2V70.7z M151.3,73.6h-1.6
				v0.3h-0.4v-2.3h2V73.6z M149.7,72v1.2h1.2V72H149.7z M150.3,68.8c-0.1-0.2-0.3-0.6-0.4-0.9l0.4-0.1c0.2,0.3,0.4,0.7,0.5,0.9
				L150.3,68.8z M151.4,73.1c0.2-0.4,0.4-1,0.5-1.4l0.3,0.1c-0.1,0.5-0.2,1.1-0.5,1.5L151.4,73.1z M153.7,68.4
				c-0.1,1.2-0.5,2.3-1.7,2.8c0-0.1-0.2-0.3-0.3-0.3c0.6-0.3,1-0.6,1.2-1.1c-0.3-0.3-0.7-0.6-1-0.9l0.2-0.3c0.3,0.2,0.7,0.5,0.9,0.8
				c0.1-0.3,0.1-0.6,0.2-1h-1.4V68h3.3c0,0,0,0.1,0,0.2c-0.1,1.7-0.1,2.3-0.3,2.5c-0.1,0.1-0.2,0.2-0.4,0.2c-0.2,0-0.5,0-0.8,0
				c0-0.1-0.1-0.3-0.1-0.4c0.3,0,0.6,0,0.7,0s0.2,0,0.2-0.1c0.1-0.1,0.2-0.7,0.2-2.1H153.7z M153.9,73.4c0.2,0,0.3-0.1,0.3-0.9
				c0.1,0.1,0.3,0.1,0.4,0.2c0,0.9-0.2,1.1-0.6,1.1H153c-0.5,0-0.6-0.1-0.6-0.6v-1.7h0.4v1.7c0,0.2,0,0.2,0.3,0.2H153.9z
				 M153.2,71.1c0.3,0.3,0.6,0.7,0.7,1l-0.3,0.2c-0.1-0.3-0.5-0.7-0.7-1L153.2,71.1z M154.8,71.4c0.2,0.4,0.5,1,0.6,1.4l-0.3,0.1
				c-0.1-0.4-0.3-1-0.6-1.4L154.8,71.4z"/>
			<path class="st4" d="M158.8,69.3h-2.3v-0.4h2.3V69.3z M156.8,70.1v-0.4h1.8v0.4H156.8z M158.6,71h-1.8v-0.4h1.8V71z M158.6,73.5
				h-1.5v0.3h-0.4v-2.3h1.8V73.5z M157.1,72v1.2h1.1V72H157.1z M157.7,68.8c-0.1-0.2-0.3-0.6-0.5-0.9l0.3-0.2
				c0.2,0.3,0.4,0.6,0.5,0.9L157.7,68.8z M159.9,69.8c-0.3,0.3-0.5,0.6-0.8,0.8c-0.1-0.1-0.2-0.2-0.3-0.3c0.3-0.2,0.6-0.5,0.8-0.8
				c-0.2-0.2-0.4-0.4-0.6-0.5l0.3-0.3c0.2,0.1,0.4,0.3,0.6,0.4c0.1-0.2,0.2-0.5,0.3-0.8h-1V68h1.2l0.1,0l0.3,0.1
				C160.5,68.7,160.2,69.3,159.9,69.8l1.8-0.1v0.4h-1.8V69.8z M161.9,72.3c-0.2,0.3-0.4,0.7-0.5,1h1.3v0.4h-3.8v-0.4h2.1
				c0.2-0.3,0.4-0.8,0.5-1.2L161.9,72.3z M162.1,72.2h-2.7v-1.6h2.7V72.2z M160,73.4c0-0.3-0.2-0.7-0.4-1l0.4-0.1
				c0.2,0.3,0.4,0.7,0.4,1L160,73.4z M161.7,70.9h-1.9v0.9h1.9V70.9z M162.7,68.9c-0.2,0.2-0.5,0.4-0.7,0.5c0.2,0.3,0.5,0.6,0.8,0.8
				c-0.1,0.1-0.2,0.2-0.3,0.3c-0.8-0.5-1.4-1.5-1.7-2.6l0.4-0.1c0.1,0.2,0.1,0.4,0.2,0.6c0.2-0.2,0.4-0.4,0.5-0.5l0.3,0.2
				c-0.2,0.2-0.5,0.4-0.7,0.6c0.1,0.1,0.2,0.3,0.2,0.4c0.2-0.1,0.5-0.3,0.6-0.5L162.7,68.9z"/>
		</g>
		<g class="st3">
			<path class="st4" d="M51.3,82.8c1.6-1.4,2.3-2.4,2.3-3.3c0-0.6-0.3-1-0.9-1c-0.4,0-0.8,0.3-1.1,0.6l-0.3-0.3
				c0.4-0.4,0.8-0.7,1.4-0.7c0.9,0,1.4,0.6,1.4,1.5c0,1-0.8,2-2,3.2c0.3,0,0.6,0,0.8,0h1.4v0.5h-3.1V82.8z"/>
			<path class="st4" d="M55.6,80.6c0-1.7,0.6-2.6,1.5-2.6c0.9,0,1.5,0.8,1.5,2.6c0,1.7-0.6,2.6-1.5,2.6
				C56.2,83.2,55.6,82.4,55.6,80.6z M58.1,80.6c0-1.5-0.4-2.1-1-2.1c-0.6,0-1,0.7-1,2.1c0,1.5,0.4,2.2,1,2.2
				C57.7,82.8,58.1,82.1,58.1,80.6z"/>
			<path class="st4" d="M59.8,82.8c1.6-1.4,2.3-2.4,2.3-3.3c0-0.6-0.3-1-0.9-1c-0.4,0-0.8,0.3-1.1,0.6l-0.3-0.3
				c0.4-0.4,0.8-0.7,1.4-0.7c0.9,0,1.4,0.6,1.4,1.5c0,1-0.8,2-2,3.2c0.3,0,0.6,0,0.8,0h1.4v0.5h-3.1V82.8z"/>
			<path class="st4" d="M64,82.5l0.3-0.4c0.3,0.3,0.7,0.6,1.3,0.6c0.6,0,1-0.4,1-1c0-0.6-0.4-1-1.6-1v-0.4c1,0,1.4-0.4,1.4-1
				c0-0.5-0.3-0.8-0.9-0.8c-0.4,0-0.8,0.2-1,0.5l-0.3-0.4c0.4-0.3,0.8-0.6,1.4-0.6c0.8,0,1.4,0.4,1.4,1.2c0,0.6-0.4,1-0.9,1.2v0
				c0.6,0.1,1.1,0.6,1.1,1.3c0,0.9-0.7,1.4-1.6,1.4C64.8,83.2,64.3,82.9,64,82.5z"/>
			<path class="st4" d="M74.5,82.1H72v1.6h-0.5v-1.6h-3.2v-0.4h1.1v-1.8h2v-1.1h-1.7c-0.3,0.5-0.7,1-1.1,1.4
				c-0.1-0.1-0.3-0.2-0.4-0.3c0.7-0.6,1.2-1.4,1.6-2.4l0.4,0.1c-0.1,0.3-0.2,0.5-0.3,0.7h4.1v0.4H72v1.1h2v0.4h-2v1.4h2.5V82.1z
				 M71.6,81.6v-1.4H70v1.4H71.6z"/>
			<path class="st4" d="M81.4,79.8c-0.3,0.9-0.7,1.7-1.2,2.3c0.3,0.7,0.6,1.1,1,1.1c0.2,0,0.3-0.4,0.3-1.3c0.1,0.1,0.3,0.2,0.4,0.2
				c-0.1,1.1-0.3,1.5-0.7,1.5c-0.5,0-0.9-0.4-1.3-1.2c-0.4,0.5-0.9,0.8-1.5,1.2c-0.1-0.1-0.2-0.3-0.3-0.4c0.6-0.3,1.2-0.8,1.6-1.3
				c-0.3-0.8-0.4-1.8-0.5-2.9h-2.4V80h1.7v0.2c0,1.5-0.1,2.1-0.2,2.3c-0.1,0.1-0.2,0.2-0.4,0.2c-0.2,0-0.5,0-0.8,0
				c0-0.1-0.1-0.3-0.1-0.4c0.3,0,0.6,0,0.7,0c0.1,0,0.2,0,0.2-0.1c0.1-0.1,0.1-0.6,0.2-1.8h-1.3v0.1c0,0.9-0.1,2.3-0.7,3.2
				c-0.1-0.1-0.3-0.3-0.4-0.3c0.6-0.8,0.6-2,0.6-2.9v-1.9h2.9c0-0.4,0-0.8,0-1.2h0.5c0,0.4,0,0.8,0,1.2h2.2v0.4h-2.2
				c0.1,0.9,0.2,1.8,0.4,2.4c0.4-0.6,0.7-1.2,0.9-1.9L81.4,79.8z M81.2,78.6C81,78.4,80.4,78,80,77.8l0.3-0.3c0.4,0.2,1,0.5,1.2,0.8
				L81.2,78.6z"/>
			<path class="st4" d="M89.2,82.9v0.5h-6v-0.5h3.3c0.4-0.9,0.8-2.3,1-3.3l0.5,0.1c-0.3,1-0.7,2.3-1.1,3.2H89.2z M88.9,79.2h-5.5
				v-0.4h5.5V79.2z M85.1,82.6c-0.1-0.8-0.4-2-0.7-2.9l0.4-0.1c0.3,0.9,0.6,2.1,0.7,2.9L85.1,82.6z M86,78.6
				c-0.1-0.3-0.2-0.7-0.3-1.1l0.4-0.1c0.1,0.3,0.3,0.8,0.4,1.1L86,78.6z"/>
			<path class="st4" d="M92.8,80.3c-0.4,1.4-1.2,2.4-2,2.9c-0.1-0.1-0.3-0.3-0.4-0.3c0.8-0.4,1.5-1.3,1.8-2.3h-1.7v-0.4h1.9l0.1,0
				L92.8,80.3z M96.4,79.6c-0.5,0.5-1.2,1.1-1.8,1.5c0.5,0.8,1.2,1.4,2.1,1.7c-0.1,0.1-0.2,0.3-0.3,0.4c-1.2-0.5-2-1.5-2.6-2.7v2.6
				c0,0.3-0.1,0.4-0.3,0.5c-0.2,0.1-0.6,0.1-1.1,0.1c0-0.1-0.1-0.3-0.2-0.5c0.4,0,0.8,0,0.9,0c0.1,0,0.2,0,0.2-0.2v-3.8h-1.9v-0.4
				h2.4v0.5c0.2,0.5,0.4,1,0.6,1.5c0.6-0.4,1.2-1,1.6-1.5L96.4,79.6z M94.5,78.8C94,78.5,92.9,78,92,77.8l0.2-0.4
				c0.8,0.2,1.9,0.6,2.5,0.9L94.5,78.8z"/>
			<path class="st4" d="M98.4,81.8c-0.1,0.6-0.2,1.3-0.4,1.8c-0.1,0-0.3-0.1-0.4-0.1c0.2-0.5,0.3-1.1,0.4-1.7L98.4,81.8z M99.7,81.6
				c0-0.1,0-0.3-0.1-0.4c-1.3,0.2-1.5,0.3-1.7,0.3c0-0.1-0.1-0.3-0.1-0.4c0.1,0,0.3-0.2,0.5-0.5c0.1-0.1,0.3-0.4,0.6-0.8
				c-0.7,0.1-0.8,0.1-0.9,0.2c0-0.1-0.1-0.3-0.1-0.4c0.1,0,0.2-0.2,0.3-0.4c0.1-0.2,0.6-1,0.8-1.7l0.4,0.2c-0.3,0.7-0.6,1.3-1,1.9
				l0.7-0.1c0.2-0.3,0.3-0.6,0.5-0.9l0.4,0.2c-0.4,0.8-0.9,1.6-1.4,2.3l1-0.1c-0.1-0.2-0.1-0.5-0.2-0.7l0.3-0.1
				c0.2,0.5,0.3,1.1,0.4,1.4L99.7,81.6z M99,81.8c0.1,0.5,0.2,1.1,0.2,1.6l-0.4,0.1c0-0.4-0.1-1.1-0.2-1.6L99,81.8z M99.6,81.6
				c0.1,0.4,0.3,0.9,0.4,1.3L99.7,83c-0.1-0.3-0.2-0.9-0.4-1.3L99.6,81.6z M101.6,83c-0.5,0.2-1.2,0.5-1.6,0.7
				c0-0.1-0.1-0.2-0.2-0.3c0.4-0.2,1.1-0.4,1.5-0.6L101.6,83z M101.7,78.2H100v-0.3h1.8v-0.4h0.4v0.4h1.7v0.3h-1.7v0.4h1.4v0.3h-3.3
				v-0.3h1.5V78.2z M100,79.2h3.8v1.2H100V79.2z M102.5,82.7c0.5,0.2,1.1,0.4,1.4,0.6l-0.2,0.3c-0.4-0.2-0.9-0.4-1.4-0.7L102.5,82.7
				h-2.3v-2h3.3v2H102.5z M100.4,80.1h0.8v-0.6h-0.8V80.1z M100.6,81.3h2.5V81h-2.5V81.3z M100.6,81.8h2.5v-0.3h-2.5V81.8z
				 M100.6,82.4h2.5v-0.3h-2.5V82.4z M102.3,80.1v-0.6h-0.8v0.6H102.3z M103.4,79.5h-0.7v0.6h0.7V79.5z"/>
			<path class="st4" d="M108.2,78.8c-0.2,0.4-0.4,0.9-0.5,1.3h1v0.4h-3.5v-0.4h2.1c0.2-0.4,0.4-1,0.5-1.4L108.2,78.8z M108.6,78.7
				h-3.2v-0.4h1.4c-0.1-0.2-0.2-0.5-0.3-0.7l0.4-0.1c0.1,0.3,0.3,0.6,0.4,0.8h1.3V78.7z M105.6,81.2h2.8v2.4h-0.4v-0.3H106v0.3h-0.4
				V81.2z M106.2,80.1c-0.1-0.3-0.2-0.8-0.4-1.2l0.4-0.1c0.2,0.4,0.4,0.9,0.5,1.2L106.2,80.1z M106,81.6v1.3h1.9v-1.3H106z
				 M111.2,78c-0.2,0.6-0.6,1.4-0.9,2c0.6,0.6,0.8,1.2,0.8,1.6c0,0.4-0.1,0.7-0.3,0.9c-0.1,0.1-0.3,0.1-0.4,0.1c-0.2,0-0.4,0-0.6,0
				c0-0.1-0.1-0.3-0.1-0.4c0.2,0,0.4,0,0.6,0c0.1,0,0.2,0,0.3-0.1c0.1-0.1,0.2-0.3,0.2-0.5c0-0.4-0.2-0.9-0.8-1.6
				c0.3-0.6,0.5-1.3,0.7-1.8h-1.1v5.4h-0.4v-5.8h1.7l0.1,0L111.2,78z"/>
			<path class="st4" d="M115.2,80.2h-1.9v3.4h-0.4v-5.9h2.4V80.2z M113.2,78.2v0.6h1.5v-0.6H113.2z M114.8,79.9v-0.7h-1.5v0.7H114.8
				z M118.3,83c0,0.3-0.1,0.5-0.3,0.6c-0.2,0.1-0.6,0.1-1.2,0.1c0-0.1-0.1-0.3-0.2-0.5c0.5,0,0.9,0,1.1,0c0.1,0,0.2,0,0.2-0.2v-2.8
				h-2v-2.5h2.5V83z M116.3,78.2v0.6h1.6v-0.6H116.3z M117.9,79.9v-0.7h-1.6v0.7H117.9z"/>
			<path class="st4" d="M121.1,80.7l0.7-0.2l0.1,0.4c-0.3,0.1-0.5,0.2-0.8,0.3v2c0,0.3-0.1,0.4-0.2,0.5c-0.2,0.1-0.4,0.1-0.8,0.1
				c0-0.1-0.1-0.3-0.1-0.4c0.3,0,0.6,0,0.7,0c0.1,0,0.1,0,0.1-0.1v-1.8l-0.8,0.3l-0.1-0.4c0.3-0.1,0.6-0.2,0.9-0.3v-1.6h-0.9v-0.4
				h0.9v-1.4h0.4v1.4h0.8v0.4h-0.8V80.7z M125.9,83.2h-3.1v0.5h-0.4v-4c-0.2,0.3-0.4,0.6-0.6,0.8c-0.1-0.1-0.2-0.2-0.3-0.3
				c0.6-0.6,1.1-1.6,1.4-2.6l0.4,0.1c-0.1,0.4-0.3,0.7-0.4,1.1h1.4c-0.1-0.3-0.3-0.7-0.5-1l0.4-0.2c0.2,0.3,0.4,0.7,0.5,1l-0.4,0.2
				h1.4v0.4h-1.3V80h1.2v0.4h-1.2v0.9h1.2v0.4h-1.2v1h1.5V83.2z M124.1,79.1h-1.2V80h1.2V79.1z M124.1,80.4h-1.2v0.9h1.2V80.4z
				 M122.9,82.8h1.2v-1h-1.2V82.8z"/>
			<path class="st4" d="M133.2,79.3c-0.1,2.9-0.1,3.8-0.4,4.1c-0.1,0.2-0.2,0.2-0.4,0.2c-0.2,0-0.5,0-0.8,0c0-0.1-0.1-0.3-0.1-0.4
				c0.3,0,0.7,0,0.8,0c0.1,0,0.2,0,0.2-0.1c0.2-0.2,0.3-1.1,0.3-3.6h-1c-0.1,1.8-0.4,3.3-1.6,4.2c-0.1-0.1-0.2-0.3-0.3-0.3
				c0.1-0.1,0.3-0.2,0.4-0.3c-1.1,0.1-2.1,0.3-2.9,0.3l-0.1-0.4c0.4,0,0.9-0.1,1.5-0.2v-0.6h-1.3v-0.4h1.3v-0.4h-1.3v-2h1.3V79h-1.5
				v-0.4h1.5v-0.5c-0.4,0-0.9,0.1-1.3,0.1c0-0.1-0.1-0.3-0.1-0.3c1-0.1,2.2-0.2,2.9-0.3l0.2,0.3c-0.4,0.1-0.8,0.1-1.3,0.2v0.5h1.5
				V79h-1.5v0.5h1.3v2h-1.3v0.4h1.3v0.4h-1.3v0.6c0.4,0,0.9-0.1,1.4-0.2v0c0.6-0.8,0.8-1.9,0.9-3.2h-0.8V79h0.8c0-0.5,0-1,0-1.5h0.4
				c0,0.5,0,1,0,1.5h1.5V79.3z M127.7,80.3h0.9v-0.5h-0.9V80.3z M128.6,81.1v-0.5h-0.9v0.5H128.6z M129.1,79.8v0.5h0.9v-0.5H129.1z
				 M130,80.6h-0.9v0.5h0.9V80.6z"/>
			<path class="st4" d="M136.3,82.3c-0.6,0.2-1.3,0.4-1.8,0.6l-0.1-0.4c0.2-0.1,0.5-0.1,0.8-0.2v-2h-0.7v-0.4h0.7v-1.6h-0.7v-0.4
				h1.8v0.4h-0.7v1.6h0.6v0.4h-0.6v1.8l0.6-0.2L136.3,82.3z M140.5,82c-0.3,0.2-0.7,0.4-1,0.6c0.3,0.3,0.7,0.6,1.2,0.7
				c-0.1,0.1-0.2,0.2-0.3,0.4c-0.9-0.3-1.6-1-2-1.9c-0.2,0.2-0.5,0.4-0.9,0.6v0.8l1.2-0.3c0,0.1,0,0.3,0,0.3
				c-1.3,0.3-1.5,0.4-1.6,0.5v0c0-0.1-0.1-0.3-0.2-0.3c0.1,0,0.2-0.1,0.2-0.4v-0.4c-0.3,0.1-0.5,0.2-0.8,0.3
				c-0.1-0.1-0.2-0.2-0.3-0.3c0.6-0.2,1.3-0.5,1.8-0.8h-1v-1.4h3.2v1.4h-1.3c0.1,0.2,0.2,0.5,0.4,0.7c0.3-0.2,0.7-0.4,0.9-0.6
				L140.5,82z M140.6,79.9h-4.1v-0.4h4.1V79.9z M140.4,79.1h-3.6v-1.4h3.6V79.1z M137.9,78h-0.7v0.7h0.7V78z M137.4,81.3h2.3v-0.7
				h-2.3V81.3z M138.9,78h-0.7v0.7h0.7V78z M140,78h-0.7v0.7h0.7V78z"/>
			<path class="st4" d="M143.9,82c-0.7,0.3-1.4,0.6-2,0.8l-0.1-0.5c0.2-0.1,0.5-0.2,0.9-0.3v-2.4h-0.8v-0.4h0.8v-1.6h0.4v1.6h0.7
				v0.4h-0.7v2.3l0.7-0.3L143.9,82z M147.2,83.2c0.1,0,0.2,0,0.3,0c0.1,0,0.1-0.1,0.1-0.2c0-0.1,0-0.3,0-0.6
				c0.1,0.1,0.2,0.2,0.4,0.2c0,0.3,0,0.6-0.1,0.7c0,0.1-0.1,0.2-0.2,0.2c-0.1,0-0.3,0-0.4,0h-0.5c-0.2,0-0.4,0-0.5-0.1
				c-0.1-0.1-0.2-0.2-0.2-0.5v-1h-0.6c-0.1,1-0.5,1.5-1.7,1.8c0-0.1-0.2-0.3-0.2-0.4c1.1-0.2,1.4-0.6,1.5-1.4h-0.7V80h3.1v1.9h-0.9
				V83c0,0.1,0,0.2,0.1,0.2c0,0,0.1,0,0.2,0H147.2z M147.8,79.6H144v-0.4h1c0-0.2-0.1-0.5-0.2-0.7l0.4-0.1c0.1,0.2,0.2,0.5,0.3,0.7
				l-0.3,0.1h1.2c0.1-0.2,0.2-0.5,0.3-0.8l0.4,0.1c-0.1,0.2-0.2,0.5-0.3,0.7h1.1V79.6z M147.6,78.4h-3.4V78h1.5
				c-0.1-0.2-0.1-0.3-0.2-0.5l0.4-0.1c0.1,0.2,0.2,0.4,0.2,0.6h1.4V78.4z M144.8,80.8h2.2v-0.5h-2.2V80.8z M144.8,81.6h2.2v-0.5
				h-2.2V81.6z"/>
			<path class="st4" d="M151.5,80.3c-0.4,1.4-1.2,2.4-2,2.9c-0.1-0.1-0.3-0.3-0.4-0.3c0.8-0.4,1.5-1.3,1.8-2.3h-1.7v-0.4h1.9l0.1,0
				L151.5,80.3z M155.2,79.6c-0.5,0.5-1.2,1.1-1.8,1.5c0.5,0.8,1.2,1.4,2.1,1.7c-0.1,0.1-0.2,0.3-0.3,0.4c-1.2-0.5-2-1.5-2.6-2.7
				v2.6c0,0.3-0.1,0.4-0.3,0.5c-0.2,0.1-0.6,0.1-1.1,0.1c0-0.1-0.1-0.3-0.2-0.5c0.4,0,0.8,0,0.9,0c0.1,0,0.2,0,0.2-0.2v-3.8h-1.9
				v-0.4h2.4v0.5c0.2,0.5,0.4,1,0.6,1.5c0.6-0.4,1.2-1,1.6-1.5L155.2,79.6z M153.3,78.8c-0.6-0.3-1.7-0.7-2.5-0.9l0.2-0.4
				c0.8,0.2,1.9,0.6,2.5,0.9L153.3,78.8z"/>
			<path class="st4" d="M157.2,81.8c-0.1,0.6-0.2,1.3-0.4,1.8c-0.1,0-0.3-0.1-0.4-0.1c0.2-0.5,0.3-1.1,0.4-1.7L157.2,81.8z
				 M158.4,81.6c0-0.1,0-0.3-0.1-0.4c-1.3,0.2-1.5,0.3-1.7,0.3c0-0.1-0.1-0.3-0.1-0.4c0.1,0,0.3-0.2,0.5-0.5
				c0.1-0.1,0.3-0.4,0.6-0.8c-0.7,0.1-0.8,0.1-0.9,0.2c0-0.1-0.1-0.3-0.1-0.4c0.1,0,0.2-0.2,0.3-0.4c0.1-0.2,0.6-1,0.8-1.7l0.4,0.2
				c-0.3,0.7-0.6,1.3-1,1.9l0.7-0.1c0.2-0.3,0.3-0.6,0.5-0.9l0.4,0.2c-0.4,0.8-0.9,1.6-1.4,2.3l1-0.1c-0.1-0.2-0.1-0.5-0.2-0.7
				l0.3-0.1c0.2,0.5,0.3,1.1,0.4,1.4L158.4,81.6z M157.8,81.8c0.1,0.5,0.2,1.1,0.2,1.6l-0.4,0.1c0-0.4-0.1-1.1-0.2-1.6L157.8,81.8z
				 M158.4,81.6c0.1,0.4,0.3,0.9,0.4,1.3l-0.3,0.1c-0.1-0.3-0.2-0.9-0.4-1.3L158.4,81.6z M160.4,83c-0.5,0.2-1.2,0.5-1.6,0.7
				c0-0.1-0.1-0.2-0.2-0.3c0.4-0.2,1.1-0.4,1.5-0.6L160.4,83z M160.5,78.2h-1.8v-0.3h1.8v-0.4h0.4v0.4h1.7v0.3h-1.7v0.4h1.4v0.3H159
				v-0.3h1.5V78.2z M158.8,79.2h3.8v1.2h-3.8V79.2z M161.2,82.7c0.5,0.2,1.1,0.4,1.4,0.6l-0.2,0.3c-0.4-0.2-0.9-0.4-1.4-0.7
				L161.2,82.7H159v-2h3.3v2H161.2z M159.1,80.1h0.8v-0.6h-0.8V80.1z M159.4,81.3h2.5V81h-2.5V81.3z M159.4,81.8h2.5v-0.3h-2.5V81.8
				z M159.4,82.4h2.5v-0.3h-2.5V82.4z M161.1,80.1v-0.6h-0.8v0.6H161.1z M162.1,79.5h-0.7v0.6h0.7V79.5z"/>
		</g>
		<g class="st3">
			<path class="st4" d="M51.3,92.5c1.6-1.4,2.3-2.4,2.3-3.3c0-0.6-0.3-1-0.9-1c-0.4,0-0.8,0.3-1.1,0.6l-0.3-0.3
				c0.4-0.4,0.8-0.7,1.4-0.7c0.9,0,1.4,0.6,1.4,1.5c0,1-0.8,2-2,3.2c0.3,0,0.6,0,0.8,0h1.4v0.5h-3.1V92.5z"/>
			<path class="st4" d="M55.6,90.3c0-1.7,0.6-2.6,1.5-2.6c0.9,0,1.5,0.8,1.5,2.6c0,1.7-0.6,2.6-1.5,2.6
				C56.2,92.9,55.6,92.1,55.6,90.3z M58.1,90.3c0-1.5-0.4-2.1-1-2.1c-0.6,0-1,0.7-1,2.1c0,1.5,0.4,2.2,1,2.2
				C57.7,92.5,58.1,91.8,58.1,90.3z"/>
			<path class="st4" d="M59.8,92.5c1.6-1.4,2.3-2.4,2.3-3.3c0-0.6-0.3-1-0.9-1c-0.4,0-0.8,0.3-1.1,0.6l-0.3-0.3
				c0.4-0.4,0.8-0.7,1.4-0.7c0.9,0,1.4,0.6,1.4,1.5c0,1-0.8,2-2,3.2c0.3,0,0.6,0,0.8,0h1.4v0.5h-3.1V92.5z"/>
			<path class="st4" d="M64,92.2l0.3-0.4c0.3,0.3,0.7,0.6,1.3,0.6c0.6,0,1-0.4,1-1c0-0.6-0.4-1-1.6-1V90c1,0,1.4-0.4,1.4-1
				c0-0.5-0.3-0.8-0.9-0.8c-0.4,0-0.8,0.2-1,0.5l-0.3-0.4c0.4-0.3,0.8-0.6,1.4-0.6c0.8,0,1.4,0.4,1.4,1.2c0,0.6-0.4,1-0.9,1.2v0
				c0.6,0.1,1.1,0.6,1.1,1.3c0,0.9-0.7,1.4-1.6,1.4C64.8,92.9,64.3,92.6,64,92.2z"/>
			<path class="st4" d="M74.5,91.8H72v1.6h-0.5v-1.6h-3.2v-0.4h1.1v-1.8h2v-1.1h-1.7c-0.3,0.5-0.7,1-1.1,1.4
				c-0.1-0.1-0.3-0.2-0.4-0.3c0.7-0.6,1.2-1.4,1.6-2.4l0.4,0.1c-0.1,0.3-0.2,0.5-0.3,0.7h4.1v0.4H72v1.1h2v0.4h-2v1.4h2.5V91.8z
				 M71.6,91.3v-1.4H70v1.4H71.6z"/>
			<path class="st4" d="M76.5,89.7v3.7h-0.4v-5.9h2.4v2.3H76.5z M76.5,87.8v0.6h1.6v-0.6H76.5z M78.1,89.3v-0.6h-1.6v0.6H78.1z
				 M79.7,91.7v1.5h-0.4v-1.5h-1c0,0.4-0.3,1.2-0.9,1.6c-0.1-0.1-0.2-0.2-0.3-0.3c0.6-0.4,0.8-1,0.8-1.4H77v-0.4h0.9v-0.8h-0.8v-0.4
				h3.4v0.4h-0.8v0.8h1v0.4H79.7z M79.3,91.3v-0.8h-1v0.8H79.3z M81.6,92.7c0,0.3-0.1,0.4-0.3,0.5c-0.2,0.1-0.5,0.1-1,0.1
				c0-0.1-0.1-0.3-0.1-0.5c0.4,0,0.8,0,0.9,0c0.1,0,0.1,0,0.1-0.2v-3h-2.1v-2.3h2.5V92.7z M79.6,87.8v0.6h1.6v-0.6H79.6z M81.2,89.4
				v-0.6h-1.6v0.6H81.2z"/>
			<path class="st4" d="M85.6,91.4c0,0,0,0.1,0,0.2c-0.1,1-0.2,1.3-0.3,1.5c-0.1,0.1-0.2,0.1-0.4,0.2c-0.2,0-0.5,0-0.9,0
				c0-0.1-0.1-0.3-0.1-0.4c0.4,0,0.7,0,0.9,0c0.1,0,0.2,0,0.3-0.1c0.1-0.1,0.2-0.4,0.2-1.1h-1.6c0.1-0.4,0.2-1,0.2-1.5h1.4v-0.8H84
				v-0.1c-0.3,0.1-0.5,0.2-0.8,0.3c-0.1-0.1-0.2-0.3-0.3-0.3c0.5-0.1,0.9-0.4,1.4-0.7c-0.2-0.2-0.5-0.5-0.8-0.6l0.3-0.2
				c0.3,0.2,0.6,0.4,0.8,0.6c0.3-0.2,0.5-0.5,0.7-0.8h-1.6v-0.4h1.9l0.1,0l0.3,0.1c-0.3,0.7-0.8,1.2-1.4,1.6h1.1v1.5h-1.4
				c0,0.3-0.1,0.5-0.1,0.7H85.6z M89.1,88.1c-0.3,0.3-0.7,0.6-1,0.8c0.4,0.2,0.8,0.4,1.2,0.5c-0.1,0.1-0.2,0.3-0.3,0.4
				c-0.4-0.1-0.7-0.3-1-0.4v1c0,0.1,0,0.2,0.1,0.2h0.5c0.1,0,0.2,0,0.3,0c0,0.1,0,0.2,0,0.3c-0.1,0-0.2,0-0.3,0h-0.6
				c-0.4,0-0.5-0.1-0.5-0.5v-0.7h-1v0.2c0,0.4-0.1,0.9-0.7,1.3c-0.1-0.1-0.2-0.2-0.3-0.3c0.6-0.3,0.6-0.7,0.6-1v-0.5h1.6
				c-0.7-0.5-1.3-1.1-1.7-1.9l0.4-0.1c0.1,0.3,0.3,0.6,0.6,0.8c0.3-0.2,0.7-0.6,0.9-0.8l0.3,0.2c-0.3,0.3-0.7,0.6-1,0.8
				c0.2,0.1,0.3,0.3,0.5,0.4c0.3-0.2,0.7-0.6,1-0.8L89.1,88.1z M88.6,91.2c-0.2,0.5-0.5,0.9-0.9,1.2c0.4,0.2,0.7,0.4,0.9,0.6
				l-0.2,0.3c-0.3-0.2-0.6-0.4-1-0.7c-0.5,0.3-1,0.5-1.6,0.7c0-0.1-0.1-0.3-0.2-0.3c0.5-0.1,1-0.3,1.4-0.6c-0.4-0.2-0.8-0.5-1.1-0.6
				l0.2-0.2c0.4,0.2,0.8,0.4,1.2,0.7c0.3-0.2,0.5-0.5,0.7-0.8h-2.1v-0.3h2.3l0.1,0L88.6,91.2z"/>
			<path class="st4" d="M96.5,90.3c-0.9,2-3.3,2.8-5.6,3.1c0-0.1-0.1-0.3-0.2-0.4c1.1-0.1,2.3-0.4,3.2-0.8c-0.3-0.3-0.6-0.6-1-0.9
				c-0.3,0.2-0.7,0.4-1.1,0.5c-0.1-0.1-0.2-0.3-0.3-0.3c1.4-0.5,2.3-1.3,2.8-1.9l0.5,0.1c-0.1,0.2-0.3,0.3-0.5,0.5h1.7l0.1,0
				L96.5,90.3z M95.5,87.9c-0.9,1.5-2.9,2.4-4.6,2.8c0-0.1-0.1-0.3-0.2-0.4c0.8-0.1,1.6-0.4,2.3-0.8c-0.2-0.2-0.6-0.6-1-0.8
				c-0.3,0.2-0.5,0.3-0.8,0.4c-0.1-0.1-0.2-0.2-0.3-0.3c1.1-0.5,1.9-1.1,2.3-1.7l0.5,0.1c-0.1,0.2-0.3,0.3-0.5,0.5h1.8l0.1,0
				L95.5,87.9z M92.8,88.2c-0.1,0.1-0.3,0.2-0.5,0.3c0.4,0.2,0.8,0.6,1,0.8c0.6-0.3,1.1-0.7,1.4-1.2H92.8z M93.9,90.5
				c-0.2,0.2-0.4,0.3-0.7,0.5c0.4,0.3,0.8,0.6,1,0.9c0.6-0.4,1.2-0.8,1.5-1.4H93.9z"/>
			<path class="st4" d="M103.2,92.8c0.3,0,0.3-0.2,0.4-1.2c0.1,0.1,0.3,0.2,0.4,0.2c-0.1,1.2-0.2,1.5-0.7,1.5h-1
				c-0.6,0-0.7-0.1-0.7-0.7V90h-1.3c-0.1,1.5-0.5,2.7-2,3.3c-0.1-0.1-0.2-0.3-0.3-0.3c1.5-0.6,1.7-1.6,1.8-2.9h-1.8v-0.4h6V90h-1.9
				v2.5c0,0.2,0.1,0.3,0.3,0.3H103.2z M103.3,88.1h-4.8v-0.4h4.8V88.1z"/>
			<path class="st4" d="M106.2,91.1c-0.1,0.6-0.4,1.2-0.7,1.6c-0.1-0.1-0.2-0.2-0.3-0.2c0.3-0.4,0.5-0.9,0.6-1.5L106.2,91.1z
				 M108.3,88.4h-3.1V88h1.5c-0.1-0.2-0.2-0.5-0.3-0.8l0.4-0.1c0.1,0.3,0.3,0.6,0.4,0.9h1.1V88.4z M107,90.6v2.3
				c0,0.2,0,0.3-0.2,0.4c-0.1,0.1-0.4,0.1-0.7,0.1c0-0.1-0.1-0.3-0.1-0.4c0.2,0,0.5,0,0.5,0c0.1,0,0.1,0,0.1-0.1v-2.3h-1V89h2.4v1.6
				H107z M106,90.2h1.6v-0.9H106V90.2z M107.8,92.3c-0.1-0.3-0.3-0.8-0.5-1.2l0.3-0.1c0.2,0.4,0.4,0.9,0.5,1.2L107.8,92.3z
				 M109.6,89.3c-0.1,1.5-0.5,3.1-1.5,4c-0.1-0.1-0.2-0.2-0.3-0.3c1-0.9,1.3-2.3,1.4-3.8h-0.9v-0.4h0.9c0-0.6,0-1.2,0-1.7h0.4
				c0,0.6,0,1.1,0,1.7h1.6v0.4H109.6z M110.7,92.8c0.1,0,0.2,0,0.2,0c0,0,0.1-0.1,0.1-0.2c0-0.1,0-0.4,0-0.7
				c0.1,0.1,0.2,0.2,0.4,0.2c0,0.3,0,0.7-0.1,0.8c0,0.1-0.1,0.2-0.2,0.3c-0.1,0.1-0.3,0.1-0.4,0.1h-0.4c-0.1,0-0.3,0-0.4-0.1
				c-0.1-0.1-0.2-0.2-0.2-0.6v-2.6h0.4v2.6c0,0.2,0,0.2,0.1,0.3c0,0,0.1,0,0.2,0H110.7z M110.7,88.7c-0.1-0.3-0.4-0.7-0.7-1l0.3-0.2
				c0.3,0.3,0.6,0.7,0.7,1L110.7,88.7z"/>
			<path class="st4" d="M115,92.3c-0.5,0.4-1.4,0.7-2.1,0.9c-0.1-0.1-0.2-0.3-0.3-0.3c0.7-0.1,1.6-0.4,2-0.7L115,92.3z M118.5,91.3
				v0.4h-2.7v1.6h-0.4v-1.6h-2.7v-0.4h2.7v-0.5h-2.1v-0.4h2.1v-0.5h-2.4v-0.4h1.5c-0.1-0.2-0.2-0.5-0.4-0.7l0.4-0.1h-1.8v-0.4h1.1
				c-0.1-0.3-0.3-0.7-0.6-1l0.4-0.1c0.2,0.3,0.5,0.7,0.6,1l-0.4,0.1h0.9v-1.2h0.4v1.2h0.9v-1.2h0.4v1.2h0.9l-0.3-0.1
				c0.2-0.3,0.4-0.7,0.5-1l0.5,0.1c-0.2,0.4-0.4,0.7-0.6,1h1.1v0.4h-1.8l0.4,0.1c-0.2,0.2-0.3,0.5-0.5,0.7h1.6v0.4h-2.5v0.5h2.1v0.4
				h-2.1v0.5H118.5z M114.5,88.8c0.2,0.2,0.3,0.5,0.4,0.7l-0.3,0.1h1.9l-0.2-0.1c0.1-0.2,0.3-0.5,0.4-0.7H114.5z M116.5,92.1
				c0.7,0.2,1.5,0.5,2,0.8l-0.3,0.3c-0.5-0.2-1.3-0.6-2-0.8L116.5,92.1z"/>
			<path class="st4" d="M121.5,87.3c-0.1,0.4-0.3,0.9-0.5,1.3v4.8h-0.4v-3.9c-0.2,0.4-0.4,0.7-0.7,1c0-0.1-0.2-0.3-0.2-0.4
				c0.6-0.7,1.1-1.7,1.5-2.8L121.5,87.3z M124,92.7c0.3,0.1,0.5,0.1,0.8,0.1c0.2,0,1,0,1.2,0c-0.1,0.1-0.1,0.3-0.1,0.4h-1.1
				c-1.1,0-1.9-0.2-2.4-1.3c-0.2,0.6-0.4,1-0.8,1.4c-0.1-0.1-0.3-0.2-0.4-0.3c0.6-0.6,0.9-1.5,1-2.7l0.4,0c0,0.3-0.1,0.6-0.1,0.9
				c0.2,0.7,0.6,1,1,1.2v-2.8h-1.5v-2.3h3.4v2.3H124v1.1h1.6v0.4H124V92.7z M122.5,89.3h2.5v-1.5h-2.5V89.3z"/>
			<path class="st4" d="M128.8,90.4c-0.1,0.6-0.3,1.3-0.6,1.8c0.1,0.1,0.3,0.2,0.6,0.4c0.5,0.3,1.1,0.3,1.9,0.3c0.9,0,2-0.1,2.7-0.1
				c-0.1,0.1-0.1,0.3-0.1,0.5c-0.5,0-1.8,0.1-2.6,0.1c-0.9,0-1.5-0.1-2-0.4c-0.3-0.2-0.5-0.4-0.7-0.4c-0.1,0-0.4,0.4-0.6,0.9
				l-0.3-0.4c0.2-0.4,0.5-0.7,0.7-0.8c0.2-0.4,0.4-1,0.5-1.4h-0.9c0.2-0.4,0.4-1,0.6-1.5h-0.8v-0.4h1.4c-0.2,0.5-0.4,1.1-0.6,1.5
				h0.5l0.1,0L128.8,90.4z M127.9,88.4c-0.1-0.3-0.2-0.8-0.3-1.1l0.4-0.1c0.1,0.4,0.3,0.8,0.3,1.1L127.9,88.4z M129.4,89.2
				c-0.2,0.2-0.4,0.4-0.5,0.6c0-0.1-0.2-0.3-0.3-0.4c0.6-0.5,1.1-1.3,1.4-2.2l0.4,0.1c-0.1,0.3-0.3,0.7-0.5,1h1.4
				c-0.1-0.3-0.3-0.6-0.4-0.9l0.4-0.1c0.2,0.3,0.4,0.7,0.5,1h1.2v0.4h-1.5v0.7h1.3v0.4h-1.3v0.7h1.3v0.4h-1.3v0.8h1.6V92h-3.4v0.4
				h-0.4V89.2z M131.2,88.7h-1.3v0.7h1.3V88.7z M131.2,89.8h-1.3v0.7h1.3V89.8z M131.2,90.9h-1.3v0.8h1.3V90.9z"/>
			<path class="st4" d="M136.8,91.3c-0.1-0.2-0.5-0.6-0.7-0.9v3h-0.4v-2.8c-0.3,0.3-0.6,0.6-1,0.8c0-0.1-0.1-0.3-0.2-0.4
				c0.7-0.5,1.6-1.3,2-2.2h-1.8v-0.4h2.1l0.1,0l0.2,0.2c-0.2,0.5-0.5,1-0.9,1.4c0.3,0.3,0.8,0.8,0.9,1L136.8,91.3z M135.9,88.3
				c-0.1-0.2-0.4-0.6-0.6-0.9l0.3-0.2c0.3,0.3,0.5,0.6,0.7,0.9L135.9,88.3z M140.7,92.6v0.4h-3.9v-0.4h1.8v-2.9h-1.5v-0.4h1.5v-2.2
				h0.5v2.2h1.5v0.4h-1.5v2.9H140.7z"/>
			<path class="st4" d="M145.3,87.3c0,0-0.1,0.1-0.1,0.1c0.6,0.6,1.8,1.2,2.9,1.4c-0.1,0.1-0.2,0.2-0.3,0.4
				c-0.6-0.2-1.1-0.4-1.7-0.7v0.2h-2.3v-0.2c-0.5,0.3-1.1,0.5-1.7,0.7c0-0.1-0.2-0.3-0.3-0.3c1.2-0.3,2.4-0.9,3.1-1.8L145.3,87.3z
				 M142.7,89.1h4.5v1.7h-4.5V89.1z M143.1,90.5h1.7v-1h-1.7V90.5z M143.1,91.1h3.8v2.2h-0.5v-0.2h-2.9v0.2h-0.4V91.1z M143.8,89.5
				c0.2,0.2,0.4,0.6,0.4,0.8l-0.3,0.1c-0.1-0.2-0.2-0.6-0.4-0.8L143.8,89.5z M143.5,91.5v0.5h2.9v-0.5H143.5z M146.4,92.8v-0.5h-2.9
				v0.5H146.4z M145.9,88.4c-0.4-0.2-0.7-0.5-1-0.7c-0.3,0.3-0.6,0.5-0.9,0.7H145.9z M146.8,89.4h-1.7v1h1.7V89.4z M145.6,90.3
				c0.1-0.2,0.3-0.6,0.4-0.8l0.4,0.1c-0.1,0.3-0.3,0.6-0.5,0.8L145.6,90.3z"/>
			<path class="st4" d="M151.5,90c-0.4,1.4-1.2,2.4-2,2.9c-0.1-0.1-0.3-0.3-0.4-0.3c0.8-0.4,1.5-1.3,1.8-2.3h-1.7v-0.4h1.9l0.1,0
				L151.5,90z M155.2,89.3c-0.5,0.5-1.2,1.1-1.8,1.5c0.5,0.8,1.2,1.4,2.1,1.7c-0.1,0.1-0.2,0.3-0.3,0.4c-1.2-0.5-2-1.5-2.6-2.7v2.6
				c0,0.3-0.1,0.4-0.3,0.5c-0.2,0.1-0.6,0.1-1.1,0.1c0-0.1-0.1-0.3-0.2-0.5c0.4,0,0.8,0,0.9,0c0.1,0,0.2,0,0.2-0.2V89h-1.9v-0.4h2.4
				V89c0.2,0.5,0.4,1,0.6,1.5c0.6-0.4,1.2-1,1.6-1.5L155.2,89.3z M153.3,88.5c-0.6-0.3-1.7-0.7-2.5-0.9l0.2-0.4
				c0.8,0.2,1.9,0.6,2.5,0.9L153.3,88.5z"/>
			<path class="st4" d="M157.2,91.5c-0.1,0.6-0.2,1.3-0.4,1.8c-0.1,0-0.3-0.1-0.4-0.1c0.2-0.5,0.3-1.1,0.4-1.7L157.2,91.5z
				 M158.4,91.3c0-0.1,0-0.3-0.1-0.4c-1.3,0.2-1.5,0.3-1.7,0.3c0-0.1-0.1-0.3-0.1-0.4c0.1,0,0.3-0.2,0.5-0.5
				c0.1-0.1,0.3-0.4,0.6-0.8c-0.7,0.1-0.8,0.1-0.9,0.2c0-0.1-0.1-0.3-0.1-0.4c0.1,0,0.2-0.2,0.3-0.4c0.1-0.2,0.6-1,0.8-1.7l0.4,0.2
				c-0.3,0.7-0.6,1.3-1,1.9l0.7-0.1c0.2-0.3,0.3-0.6,0.5-0.9l0.4,0.2c-0.4,0.8-0.9,1.6-1.4,2.3l1-0.1c-0.1-0.2-0.1-0.5-0.2-0.7
				l0.3-0.1c0.2,0.5,0.3,1.1,0.4,1.4L158.4,91.3z M157.8,91.5c0.1,0.5,0.2,1.1,0.2,1.6l-0.4,0.1c0-0.4-0.1-1.1-0.2-1.6L157.8,91.5z
				 M158.4,91.3c0.1,0.4,0.3,0.9,0.4,1.3l-0.3,0.1c-0.1-0.3-0.2-0.9-0.4-1.3L158.4,91.3z M160.4,92.7c-0.5,0.2-1.2,0.5-1.6,0.7
				c0-0.1-0.1-0.2-0.2-0.3c0.4-0.2,1.1-0.4,1.5-0.6L160.4,92.7z M160.5,87.9h-1.8v-0.3h1.8v-0.4h0.4v0.4h1.7v0.3h-1.7v0.4h1.4v0.3
				H159v-0.3h1.5V87.9z M158.8,88.9h3.8v1.2h-3.8V88.9z M161.2,92.4c0.5,0.2,1.1,0.4,1.4,0.6l-0.2,0.3c-0.4-0.2-0.9-0.4-1.4-0.7
				L161.2,92.4H159v-2h3.3v2H161.2z M159.1,89.8h0.8v-0.6h-0.8V89.8z M159.4,91h2.5v-0.3h-2.5V91z M159.4,91.5h2.5v-0.3h-2.5V91.5z
				 M159.4,92.1h2.5v-0.3h-2.5V92.1z M161.1,89.8v-0.6h-0.8v0.6H161.1z M162.1,89.2h-0.7v0.6h0.7V89.2z"/>
		</g>
		<g class="st3">
			<path class="st4" d="M196.4,59.2c-0.1,0.7-0.3,1.5-0.4,2c-0.1-0.1-0.4-0.1-0.6-0.2c0.2-0.5,0.3-1.3,0.4-2L196.4,59.2z
				 M198.1,58.7c0-0.1-0.1-0.3-0.1-0.4c-1.8,0.3-2.1,0.3-2.2,0.4c0-0.2-0.2-0.5-0.3-0.7c0.2-0.1,0.4-0.3,0.7-0.6
				c0.1-0.1,0.4-0.5,0.6-0.9c-0.8,0.1-1,0.1-1.1,0.2c0-0.2-0.2-0.5-0.3-0.7c0.1,0,0.3-0.2,0.5-0.5c0.2-0.3,0.7-1.2,1-2.1l0.7,0.3
				c-0.3,0.8-0.8,1.6-1.2,2.2l0.8-0.1c0.2-0.4,0.5-0.8,0.7-1.2l0.7,0.4c-0.5,1-1.2,2-1.9,2.8l1.1-0.2c-0.1-0.3-0.2-0.5-0.3-0.8
				l0.5-0.2c0.2,0.5,0.5,1.3,0.6,1.7L198.1,58.7z M197.3,59.1c0.1,0.6,0.2,1.3,0.2,1.8l-0.6,0.2c0-0.5-0.1-1.3-0.2-1.9L197.3,59.1z
				 M198.1,58.8c0.2,0.5,0.4,1.2,0.5,1.7l-0.6,0.2c-0.1-0.5-0.3-1.2-0.5-1.7L198.1,58.8z M203.1,60.8c-0.4-0.3-1.1-0.9-1.8-1.3v1.2
				c0,0.4-0.1,0.6-0.3,0.7c-0.2,0.1-0.6,0.1-1.1,0.1c0-0.2-0.1-0.5-0.2-0.7c0.3,0,0.6,0,0.7,0c0.1,0,0.1,0,0.1-0.1v-1.2
				c-0.6,0.4-1.1,0.8-1.6,1.2l-0.4-0.6c0.5-0.3,1.3-0.8,2-1.3v-1.4h-2.1v-0.7h3c0-0.2,0.1-0.3,0.1-0.5H199c0.2-0.7,0.5-1.8,0.7-2.7
				l0.8,0.1c0,0.2-0.1,0.4-0.1,0.7h1.7l0.1,0l0.6,0.1c-0.1,0.7-0.3,1.7-0.5,2.4h1.3v0.7h-2.2v1.3l0.3,0.2c0.3-0.4,0.7-0.9,0.9-1.2
				l0.7,0.4c-0.3,0.4-0.7,0.9-1,1.2c0.6,0.4,1.1,0.7,1.4,1L203.1,60.8z M199.8,59.1c-0.2-0.3-0.7-0.7-1-1l0.4-0.4
				c0.4,0.3,0.8,0.7,1,1L199.8,59.1z M201.7,55.5c0.1-0.2,0.1-0.5,0.1-0.7h-1.7c-0.1,0.2-0.1,0.5-0.2,0.7H201.7z"/>
			<path class="st4" d="M211.1,60.6c0.8,0,1-0.2,1.1-1.3c0.2,0.1,0.6,0.2,0.8,0.3c-0.2,1.4-0.5,1.8-1.8,1.8h-3.2
				c-1.5,0-1.9-0.3-1.9-1.4v-3.5c-0.2,0.2-0.4,0.3-0.7,0.5c-0.1-0.2-0.3-0.6-0.4-0.8c1-0.6,2.1-1.7,2.7-2.8l0.7,0.3
				c-0.1,0.2-0.2,0.3-0.3,0.5h2.2l0.2,0l0.5,0.4c-0.3,0.4-0.7,0.9-1.1,1.3h2.3v3.2h-0.8v-0.3h-4.5V60c0,0.5,0.2,0.6,1.1,0.6H211.1z
				 M207.5,54.9c-0.3,0.3-0.5,0.7-0.8,1h2.2c0.3-0.3,0.6-0.6,0.8-1H207.5z M206.8,57.9h1.8v-1.3h-1.8V57.9z M211.3,56.6h-1.9v1.3
				h1.9V56.6z"/>
			<path class="st4" d="M217.2,58c-0.3,0.1-0.6,0.2-0.8,0.2v2.3c0,0.4-0.1,0.6-0.3,0.7c-0.3,0.1-0.6,0.1-1.2,0.1
				c0-0.2-0.1-0.5-0.2-0.7c0.4,0,0.8,0,0.9,0c0.1,0,0.2,0,0.2-0.2v-2.1l-1,0.3l-0.2-0.8c0.3-0.1,0.8-0.2,1.2-0.3v-1.7h-1.1v-0.8h1.1
				v-1.7h0.8v1.7h1v0.8h-1v1.5l0.7-0.2L217.2,58z M221.8,57.5c-0.3,1.1-0.9,1.9-1.6,2.5c0.6,0.4,1.4,0.6,2.2,0.8
				c-0.2,0.2-0.4,0.5-0.5,0.8c-0.9-0.2-1.7-0.6-2.4-1c-0.7,0.5-1.6,0.8-2.5,1c-0.1-0.2-0.3-0.6-0.4-0.7c0.8-0.2,1.6-0.4,2.2-0.8
				c-0.6-0.5-1-1.1-1.3-1.9l0.2-0.1h-0.4v-0.8h3.8l0.1,0L221.8,57.5z M218.9,54.8c0,0.8-0.2,1.8-1.4,2.4c-0.1-0.2-0.4-0.5-0.5-0.6
				c1-0.5,1.1-1.2,1.1-1.8v-0.9h2.9v2c0,0.2,0,0.3,0.2,0.3h0.6c0.1,0,0.3,0,0.5-0.1c0,0.2,0,0.5,0.1,0.7c-0.1,0-0.3,0.1-0.5,0.1
				h-0.7c-0.7,0-0.9-0.3-0.9-1v-1.2h-1.3V54.8z M218.3,58c0.3,0.6,0.7,1.1,1.2,1.5c0.5-0.4,0.9-0.9,1.2-1.5H218.3z"/>
			<path class="st4" d="M229.3,54.8c0,0.1,0,0.1,0,0.2c0.5,0.5,1.4,0.8,2.6,0.8c-0.2,0.2-0.4,0.5-0.4,0.7c-1-0.1-1.8-0.5-2.3-1
				c-0.3,0.4-1,0.8-2.5,1c-0.1-0.2-0.3-0.5-0.4-0.6h-2.2v-0.6h2.5v0.6c1.9-0.2,2.1-0.7,2.1-1.1v-0.1h-0.7c-0.2,0.3-0.4,0.6-0.6,0.8
				c-0.1-0.1-0.4-0.3-0.6-0.4c0.5-0.4,0.8-1,1-1.6l0.7,0.2c-0.1,0.1-0.1,0.3-0.2,0.4h2.7l0.1,0l0.6,0.2c-0.2,0.5-0.5,1-0.8,1.3
				l-0.6-0.2c0.1-0.2,0.2-0.4,0.4-0.6h-1.2V54.8z M229.2,60.1c0.9,0.3,1.9,0.7,2.5,1l-0.7,0.4c-0.5-0.3-1.5-0.7-2.4-1l0.5-0.4h-2.6
				l0.7,0.3c-0.7,0.4-1.8,0.8-2.7,1.1c-0.1-0.2-0.4-0.5-0.6-0.6c0.9-0.2,1.9-0.5,2.5-0.8H225v-3.5h5.7v3.5H229.2z M226.2,54.6h-2.1
				V54h2.1V54.6z M225.8,57.6h4.1v-0.5h-4.1V57.6z M225.8,58.6h4.1v-0.5h-4.1V58.6z M225.8,59.6h4.1v-0.5h-4.1V59.6z"/>
		</g>
		<g class="st3">
			<path class="st4" d="M196.1,72.4c-0.1,0.6-0.2,1.2-0.3,1.6c-0.1,0-0.3-0.1-0.4-0.1c0.1-0.4,0.3-1,0.3-1.6L196.1,72.4z M197.5,72
				c0-0.1-0.1-0.2-0.1-0.3c-1.5,0.2-1.7,0.3-1.8,0.3c0-0.1-0.1-0.3-0.1-0.4c0.1,0,0.3-0.2,0.5-0.5c0.1-0.1,0.3-0.4,0.6-0.8
				c-0.8,0.1-0.9,0.1-1,0.2c0-0.1-0.1-0.3-0.1-0.4c0.1,0,0.2-0.2,0.4-0.4c0.1-0.2,0.6-1,0.9-1.7l0.4,0.2c-0.3,0.7-0.7,1.3-1,1.8
				l0.8-0.1c0.2-0.3,0.4-0.6,0.5-0.9l0.4,0.2c-0.5,0.8-1,1.6-1.6,2.3l1.1-0.2c-0.1-0.2-0.2-0.5-0.2-0.7l0.3-0.1
				c0.2,0.4,0.4,1,0.5,1.3L197.5,72z M196.7,72.3c0.1,0.5,0.2,1,0.2,1.4l-0.4,0.1c0-0.4-0.1-1-0.2-1.4L196.7,72.3z M197.4,72.1
				c0.2,0.4,0.3,1,0.4,1.3l-0.3,0.1c-0.1-0.4-0.2-0.9-0.4-1.3L197.4,72.1z M201.4,73.7c-0.3-0.3-1-0.8-1.5-1.2v1.2
				c0,0.2,0,0.3-0.2,0.4c-0.2,0.1-0.4,0.1-0.8,0.1c0-0.1-0.1-0.3-0.1-0.4c0.3,0,0.5,0,0.6,0c0.1,0,0.1,0,0.1-0.1v-1.2
				c-0.5,0.4-1,0.8-1.4,1.1l-0.3-0.3c0.4-0.3,1-0.7,1.6-1.2v-1.2h-1.6v-0.4h2.4c0-0.2,0.1-0.4,0.1-0.5h-2.1c0.2-0.5,0.4-1.4,0.5-2
				l0.4,0c0,0.2-0.1,0.4-0.1,0.6h1.6l0.1,0l0.3,0.1c-0.1,0.5-0.2,1.3-0.4,1.9h1v0.4h-1.8V72c0.1,0.1,0.2,0.1,0.3,0.2
				c0.3-0.3,0.6-0.7,0.8-1l0.4,0.2c-0.3,0.3-0.6,0.7-0.8,1c0.5,0.3,0.9,0.7,1.2,0.9L201.4,73.7z M198.8,72.3
				c-0.2-0.2-0.5-0.6-0.8-0.9l0.3-0.2c0.3,0.2,0.6,0.6,0.8,0.8L198.8,72.3z M200.4,69.6c0-0.2,0.1-0.5,0.1-0.7H199
				c-0.1,0.2-0.1,0.5-0.2,0.7H200.4z"/>
			<path class="st4" d="M206,69.4h-2.2v1.1h-0.4V69h2.6v-0.5h-2.3v-0.3h5.1v0.3h-2.3V69h2.7v1.5h-0.4v-1.1h-2.2v1.6H206V69.4z
				 M208.5,73.7c0.4,0,0.4-0.1,0.5-0.8c0.1,0.1,0.3,0.1,0.4,0.1c-0.1,0.8-0.2,1-0.8,1H207c-0.7,0-0.9-0.1-0.9-0.6v-0.2h-1.6v0.4H204
				v-2.3h4.6v2h-2.1v0.2c0,0.2,0.1,0.3,0.5,0.3H208.5z M204,70.6c0.4-0.1,1-0.1,1.6-0.2l0,0.3c-0.5,0.1-1,0.2-1.5,0.3L204,70.6z
				 M204.3,69.5c0.4,0.1,1,0.2,1.3,0.4l-0.1,0.3c-0.3-0.1-0.9-0.3-1.3-0.4L204.3,69.5z M204.5,71.6V72h1.6v-0.5H204.5z M206,72.9
				v-0.5h-1.6v0.5H206z M208.1,71.6h-1.7V72h1.7V71.6z M208.1,72.9v-0.5h-1.7v0.5H208.1z M208.4,71c-0.4-0.1-1.1-0.3-1.6-0.4
				l0.1-0.3c0.5,0.1,1.2,0.2,1.6,0.3L208.4,71z M208.4,69.8c-0.4,0.2-1,0.3-1.4,0.4l-0.2-0.2c0.4-0.1,1-0.3,1.3-0.4L208.4,69.8z"/>
			<path class="st4" d="M213,68.1c-0.2,0.5-0.4,1-0.7,1.5v4.6h-0.4v-3.9c-0.2,0.3-0.5,0.6-0.8,0.9c0-0.1-0.2-0.3-0.3-0.4
				c0.7-0.6,1.3-1.7,1.7-2.7L213,68.1z M214.2,72.2c-0.3,0.6-0.8,1.2-1.2,1.7c-0.1-0.1-0.3-0.2-0.4-0.3c0.4-0.4,0.8-1,1.1-1.5
				L214.2,72.2z M215.2,71.7v2.5h-0.5v-2.5h-2v-0.4h2v-0.8h-1.5v-2.1h3.5v2.1h-1.5v0.8h1.9v0.4H215.2z M213.6,70h2.6v-1.3h-2.6V70z
				 M215.9,72c0.5,0.5,1,1.1,1.2,1.5l-0.4,0.2c-0.2-0.4-0.7-1.1-1.2-1.6L215.9,72z"/>
		</g>
		<g class="st3">
			<path class="st4" d="M220.7,68.4c-0.2,0.6-0.4,1.2-0.7,1.8c0.5,0.6,0.6,1.1,0.6,1.5c0,0.4-0.1,0.6-0.2,0.8
				c-0.1,0.1-0.2,0.1-0.3,0.1c-0.1,0-0.3,0-0.4,0c0-0.1,0-0.3-0.1-0.4c0.2,0,0.3,0,0.4,0c0.1,0,0.2,0,0.2-0.1
				c0.1-0.1,0.1-0.3,0.1-0.5c0-0.4-0.1-0.9-0.6-1.4c0.2-0.5,0.4-1.1,0.5-1.6h-0.9v5.5h-0.4v-5.9h1.4l0.1,0L220.7,68.4z M221.9,72.3
				c-0.1,0.2-0.1,0.4-0.2,0.5c0.3,0.2,0.6,0.4,0.8,0.6l-0.2,0.3c-0.1-0.2-0.4-0.4-0.7-0.6c-0.3,0.4-0.6,0.8-1,1.1
				c-0.1-0.1-0.2-0.2-0.3-0.3c0.6-0.4,1.1-1,1.3-1.7L221.9,72.3z M223,68.1c0,0.1-0.1,0.1-0.1,0.2c0.5,0.5,1.4,1,2.1,1.2
				c-0.1,0.1-0.2,0.3-0.2,0.4c-0.7-0.3-1.5-0.8-2.1-1.3c-0.4,0.5-1,1-1.7,1.4c-0.1-0.1-0.2-0.2-0.3-0.3c0.8-0.4,1.6-1.1,1.9-1.7
				L223,68.1z M221,70.4h1.5V72H221V70.4z M221.3,71.7h0.8v-0.9h-0.8V71.7z M223.7,69.9h-2v-0.4h2V69.9z M223.9,72.2
				c0,0.2-0.1,0.4-0.2,0.6c0.4,0.3,0.9,0.7,1.2,0.9l-0.3,0.3c-0.2-0.2-0.7-0.6-1.1-0.9c-0.2,0.4-0.5,0.7-0.8,1
				c-0.1-0.1-0.2-0.2-0.3-0.3c0.6-0.4,0.9-1,1.1-1.7L223.9,72.2z M224.4,72h-1.5v-1.6h1.5V72z M224.1,70.7h-0.8v0.9h0.8V70.7z"/>
			<path class="st4" d="M227.1,71.7l-0.4,0.4c-0.4-0.6-1-1.1-1.5-1.5l0.4-0.4C226.1,70.6,226.7,71.2,227.1,71.7z"/>
		</g>
		<g class="st3">
			<path class="st4" d="M232.9,72.5v1.1l1.3-0.3c0,0.1,0,0.3,0,0.3c-1.6,0.4-1.8,0.4-1.9,0.5c0-0.1-0.1-0.3-0.2-0.4
				c0.1,0,0.3-0.2,0.3-0.4v-0.9h-0.7c-0.1,0.6-0.3,1.2-0.6,1.7c-0.1-0.1-0.3-0.2-0.4-0.2c0.6-0.7,0.7-1.7,0.7-2.4v-0.9h5.3v0.3h-4.9
				v0.4h4.5v0.3h-4.5c0,0.1,0,0.3,0,0.4h5v0.4h-2.7c0.2,0.2,0.4,0.4,0.7,0.6c0.4-0.2,1-0.4,1.3-0.6l0.3,0.3
				c-0.4,0.2-0.9,0.4-1.3,0.5c0.5,0.2,1.1,0.4,1.8,0.5c-0.1,0.1-0.2,0.3-0.3,0.4c-1.4-0.2-2.5-0.7-3-1.7H232.9z M236.4,70.4h-4.8
				v-1.9h1.4V68h0.4v0.5h1.1V68h0.4v0.5h1.5V70.4z M231.9,69.3h1v-0.5h-1V69.3z M231.9,70h1v-0.5h-1V70z M233.4,68.8v0.5h1.1v-0.5
				H233.4z M233.4,69.6V70h1.1v-0.5H233.4z M235.9,68.8h-1.1v0.5h1.1V68.8z M235.9,69.6h-1.1V70h1.1V69.6z"/>
			<path class="st4" d="M241.1,73.1c-0.5,0.4-1.4,0.7-2.1,0.9c-0.1-0.1-0.2-0.3-0.3-0.3c0.7-0.1,1.6-0.4,2-0.7L241.1,73.1z
				 M244.6,72.2v0.4h-2.8v1.6h-0.4v-1.6h-2.7v-0.4h2.7v-0.5h-2.1v-0.4h2.1v-0.5H239v-0.4h1.5c-0.1-0.2-0.2-0.5-0.4-0.7l0.4-0.1h-1.8
				v-0.4h1.1c-0.1-0.3-0.3-0.7-0.6-1l0.4-0.1c0.2,0.3,0.5,0.7,0.6,1l-0.4,0.1h0.9V68h0.4v1.2h0.9V68h0.4v1.2h0.9l-0.3-0.1
				c0.2-0.3,0.4-0.7,0.5-1l0.5,0.1c-0.2,0.4-0.4,0.7-0.6,1h1.1v0.4h-1.8l0.4,0.1c-0.2,0.2-0.3,0.5-0.5,0.7h1.6v0.4h-2.5v0.5h2.1v0.4
				h-2.1v0.5H244.6z M240.6,69.6c0.2,0.2,0.3,0.5,0.4,0.7l-0.3,0.1h1.9l-0.2-0.1c0.1-0.2,0.3-0.5,0.4-0.7H240.6z M242.6,72.9
				c0.7,0.2,1.5,0.5,2,0.8l-0.3,0.3c-0.5-0.2-1.3-0.6-2-0.8L242.6,72.9z"/>
			<path class="st4" d="M248.3,68.1c-0.2,0.5-0.4,1-0.7,1.5v4.6h-0.4v-3.9c-0.2,0.3-0.5,0.6-0.8,0.9c0-0.1-0.2-0.3-0.3-0.4
				c0.7-0.6,1.3-1.7,1.7-2.7L248.3,68.1z M249.6,72.2c-0.3,0.6-0.8,1.2-1.2,1.7c-0.1-0.1-0.3-0.2-0.4-0.3c0.4-0.4,0.8-1,1.1-1.5
				L249.6,72.2z M250.5,71.7v2.5h-0.5v-2.5h-2v-0.4h2v-0.8h-1.5v-2.1h3.5v2.1h-1.5v0.8h1.9v0.4H250.5z M249,70h2.6v-1.3H249V70z
				 M251.3,72c0.5,0.5,1,1.1,1.2,1.5l-0.4,0.2c-0.2-0.4-0.7-1.1-1.2-1.6L251.3,72z"/>
		</g>
		<g class="st3">
			<path class="st4" d="M256.1,68.4c-0.2,0.6-0.4,1.2-0.7,1.8c0.5,0.6,0.6,1.1,0.6,1.5c0,0.4-0.1,0.6-0.2,0.8
				c-0.1,0.1-0.2,0.1-0.3,0.1c-0.1,0-0.3,0-0.4,0c0-0.1,0-0.3-0.1-0.4c0.2,0,0.3,0,0.4,0c0.1,0,0.2,0,0.2-0.1
				c0.1-0.1,0.1-0.3,0.1-0.5c0-0.4-0.1-0.9-0.6-1.4c0.2-0.5,0.4-1.1,0.5-1.6h-0.9v5.5h-0.4v-5.9h1.4l0.1,0L256.1,68.4z M257.3,72.3
				c-0.1,0.2-0.1,0.4-0.2,0.5c0.3,0.2,0.6,0.4,0.8,0.6l-0.2,0.3c-0.1-0.2-0.4-0.4-0.7-0.6c-0.3,0.4-0.6,0.8-1,1.1
				c-0.1-0.1-0.2-0.2-0.3-0.3c0.6-0.4,1.1-1,1.3-1.7L257.3,72.3z M258.3,68.1c0,0.1-0.1,0.1-0.1,0.2c0.5,0.5,1.4,1,2.1,1.2
				c-0.1,0.1-0.2,0.3-0.2,0.4c-0.7-0.3-1.5-0.8-2.1-1.3c-0.4,0.5-1,1-1.7,1.4c-0.1-0.1-0.2-0.2-0.3-0.3c0.8-0.4,1.6-1.1,1.9-1.7
				L258.3,68.1z M256.3,70.4h1.5V72h-1.5V70.4z M256.7,71.7h0.8v-0.9h-0.8V71.7z M259,69.9h-2v-0.4h2V69.9z M259.2,72.2
				c0,0.2-0.1,0.4-0.2,0.6c0.4,0.3,0.9,0.7,1.2,0.9l-0.3,0.3c-0.2-0.2-0.7-0.6-1.1-0.9c-0.2,0.4-0.5,0.7-0.8,1
				c-0.1-0.1-0.2-0.2-0.3-0.3c0.6-0.4,0.9-1,1.1-1.7L259.2,72.2z M259.8,72h-1.5v-1.6h1.5V72z M259.4,70.7h-0.8v0.9h0.8V70.7z"/>
			<path class="st4" d="M262.5,71.7l-0.4,0.4c-0.4-0.6-1-1.1-1.5-1.5l0.4-0.4C261.4,70.6,262,71.2,262.5,71.7z"/>
		</g>
		<g class="st3">
			<path class="st4" d="M267.7,69c-0.3,0.5-0.7,1-1.2,1.3c-0.1-0.1-0.2-0.3-0.3-0.3c0.6-0.5,1.2-1.2,1.5-2l0.4,0.1
				c-0.1,0.2-0.2,0.3-0.3,0.5h4.2V69H267.7z M268.1,72.7c-0.3,0.5-0.9,1.1-1.4,1.4c-0.1-0.1-0.2-0.2-0.3-0.3
				c0.5-0.2,1.1-0.7,1.4-1.2L268.1,72.7z M268.7,72.4v1.8h-0.4v-1.8h-1.9V72h1.9v-1.2h0.4V72h1.8v0.4H268.7z M271.2,70.3
				c0,2.2,0,3.5,0.6,3.5c0.1,0,0.2-0.4,0.2-1c0.1,0.1,0.2,0.2,0.3,0.3c0,0.9-0.1,1.2-0.5,1.2c-0.9,0-1-1.3-1-3.5h-3.9v-0.4H271.2z
				 M267.2,70.9c0.2,0.3,0.5,0.6,0.6,0.9l-0.4,0.2c-0.1-0.2-0.3-0.6-0.5-0.9L267.2,70.9z M267.5,69.8v-0.4h4.1v0.4H267.5z
				 M269.3,72.6c0.5,0.3,1,0.8,1.3,1.1l-0.3,0.3c-0.3-0.3-0.8-0.8-1.3-1.1L269.3,72.6z M270.1,71c-0.2,0.3-0.5,0.7-0.7,0.9l-0.3-0.1
				c0.2-0.3,0.5-0.7,0.6-0.9L270.1,71z"/>
			<path class="st4" d="M275.6,68.1c-0.1,0.5-0.4,1-0.6,1.5v4.5h-0.4v-3.7c-0.2,0.3-0.3,0.5-0.5,0.8c0-0.1-0.2-0.3-0.3-0.4
				c0.6-0.7,1-1.7,1.3-2.8L275.6,68.1z M275.6,69.5h0.4v3.4h-0.4V69.5z M278.4,72.4c-0.1,0.6-0.6,1.3-1.9,1.8
				c-0.1-0.1-0.2-0.3-0.3-0.3c1.2-0.4,1.6-1,1.8-1.5h-1.6V72h1.6c0-0.1,0-0.1,0-0.2v-0.8h-0.8c-0.1,0.3-0.3,0.6-0.5,0.8
				c-0.1-0.1-0.3-0.2-0.4-0.2c0.4-0.4,0.7-1,0.9-1.6l0.4,0.1c-0.1,0.2-0.1,0.4-0.2,0.6h2.5v0.4h-1.4v0.8c0,0,0,0.1,0,0.2h1.7v0.4
				H278.4z M280.1,70h-3.8v-0.4h2.5c0-0.3,0.1-0.6,0.1-0.9h-2.2v-0.4h2.3l0.1,0l0.3,0c0,0.4-0.1,0.9-0.2,1.2h0.8V70z M278.7,72.5
				c0.5,0.4,1.1,1,1.5,1.3l-0.3,0.3c-0.3-0.4-0.9-1-1.4-1.4L278.7,72.5z"/>
			<path class="st4" d="M287.1,68.4c0,2.5,0,5.3,0.4,5.3c0.1,0,0.1-0.5,0.1-1.1c0.1,0.1,0.2,0.2,0.3,0.3c0,0.9-0.1,1.2-0.5,1.2
				c-0.8,0-0.8-2.4-0.8-5.4h-3.7v1.7c0,1.1-0.1,2.6-0.9,3.7c-0.1-0.1-0.3-0.2-0.4-0.3c0.7-1,0.8-2.4,0.8-3.4v-2.2H287.1z
				 M285.8,72.4c0.4,0.5,0.7,1.1,0.8,1.5l-0.4,0.1c0-0.2-0.1-0.3-0.2-0.5c-1.2,0.1-2.3,0.2-3.2,0.2l0-0.4c0.4,0,1-0.1,1.6-0.1v-1
				h-1.2v-1.8h1.2v-0.7h-1.3v-0.4h3.1v0.4h-1.4v0.7h1.2v1.8h-1.2v1l1-0.1c-0.1-0.2-0.3-0.4-0.4-0.6L285.8,72.4z M284.5,71.8v-1.1
				h-0.8v1.1H284.5z M284.9,70.7v1.1h0.8v-1.1H284.9z"/>
		</g>
		<g class="st3">
			<path class="st4" d="M291.5,68.4c-0.2,0.6-0.4,1.2-0.7,1.8c0.5,0.6,0.6,1.1,0.6,1.5c0,0.4-0.1,0.6-0.2,0.8
				c-0.1,0.1-0.2,0.1-0.3,0.1c-0.1,0-0.3,0-0.4,0c0-0.1,0-0.3-0.1-0.4c0.2,0,0.3,0,0.4,0c0.1,0,0.2,0,0.2-0.1
				c0.1-0.1,0.1-0.3,0.1-0.5c0-0.4-0.1-0.9-0.6-1.4c0.2-0.5,0.4-1.1,0.5-1.6h-0.9v5.5h-0.4v-5.9h1.4l0.1,0L291.5,68.4z M292.7,72.3
				c-0.1,0.2-0.1,0.4-0.2,0.5c0.3,0.2,0.6,0.4,0.8,0.6l-0.2,0.3c-0.1-0.2-0.4-0.4-0.7-0.6c-0.3,0.4-0.6,0.8-1,1.1
				c-0.1-0.1-0.2-0.2-0.3-0.3c0.6-0.4,1.1-1,1.3-1.7L292.7,72.3z M293.7,68.1c0,0.1-0.1,0.1-0.2,0.2c0.5,0.5,1.4,1,2.1,1.2
				c-0.1,0.1-0.2,0.3-0.2,0.4c-0.7-0.3-1.5-0.8-2.1-1.3c-0.4,0.5-1,1-1.7,1.4c-0.1-0.1-0.2-0.2-0.3-0.3c0.8-0.4,1.6-1.1,1.9-1.7
				L293.7,68.1z M291.7,70.4h1.5V72h-1.5V70.4z M292,71.7h0.8v-0.9H292V71.7z M294.4,69.9h-2v-0.4h2V69.9z M294.6,72.2
				c0,0.2-0.1,0.4-0.2,0.6c0.4,0.3,0.9,0.7,1.2,0.9l-0.3,0.3c-0.2-0.2-0.7-0.6-1.1-0.9c-0.2,0.4-0.5,0.7-0.8,1
				c-0.1-0.1-0.2-0.2-0.3-0.3c0.6-0.4,0.9-1,1.1-1.7L294.6,72.2z M295.2,72h-1.5v-1.6h1.5V72z M294.8,70.7H294v0.9h0.8V70.7z"/>
			<path class="st4" d="M297.8,71.7l-0.4,0.4c-0.4-0.6-1-1.1-1.5-1.5l0.4-0.4C296.8,70.6,297.4,71.2,297.8,71.7z"/>
		</g>
		<g class="st3">
			<path class="st4" d="M301.9,71.4v-3h0.6v3c0,1.2,0.5,1.6,1.2,1.6c0.7,0,1.2-0.4,1.2-1.6v-3h0.5v3c0,1.6-0.8,2.1-1.8,2.1
				C302.7,73.5,301.9,73,301.9,71.4z"/>
			<path class="st4" d="M307.7,68.4h1.4c1,0,1.7,0.4,1.7,1.2c0,0.5-0.3,0.9-0.7,1.1v0c0.6,0.1,1,0.5,1,1.2c0,1-0.8,1.5-1.9,1.5h-1.6
				V68.4z M309.1,70.6c0.9,0,1.3-0.3,1.3-0.9c0-0.6-0.4-0.8-1.2-0.8h-0.8v1.7H309.1z M309.2,73c0.9,0,1.4-0.3,1.4-1
				c0-0.6-0.5-0.9-1.4-0.9h-0.9v2H309.2z"/>
		</g>
		<g class="st3">
			<path class="st4" d="M313.1,68.4h0.6v5h-0.6V68.4z"/>
		</g>
		<g class="st3">
			<path class="st4" d="M201.6,82.9h-2.8v1h-0.4v-1h-2.8v-0.4h2.8v-0.6h-2.1v-2.6h2.1v-0.5h-2.6v-0.4h2.6v-0.6h0.4v0.6h2.6v0.4h-2.6
				v0.5h2.1v2.6h-2.1v0.6h2.8V82.9z M196.7,80.4h1.6v-0.7h-1.6V80.4z M198.3,81.5v-0.7h-1.6v0.7H198.3z M198.7,79.6v0.7h1.7v-0.7
				H198.7z M200.4,80.8h-1.7v0.7h1.7V80.8z"/>
		</g>
		<g class="st3">
			<path class="st4" d="M205.2,78.1c-0.2,0.6-0.4,1.2-0.7,1.8c0.5,0.6,0.6,1.1,0.6,1.5c0,0.4-0.1,0.6-0.2,0.8
				c-0.1,0.1-0.2,0.1-0.3,0.1c-0.1,0-0.3,0-0.4,0c0-0.1,0-0.3-0.1-0.4c0.2,0,0.3,0,0.4,0c0.1,0,0.2,0,0.2-0.1
				c0.1-0.1,0.1-0.3,0.1-0.5c0-0.4-0.1-0.9-0.6-1.4c0.2-0.5,0.4-1.1,0.5-1.6h-0.9v5.5h-0.4V78h1.4l0.1,0L205.2,78.1z M206.4,82
				c-0.1,0.2-0.1,0.4-0.2,0.5c0.3,0.2,0.6,0.4,0.8,0.6l-0.2,0.3c-0.1-0.2-0.4-0.4-0.7-0.6c-0.3,0.4-0.6,0.8-1,1.1
				c-0.1-0.1-0.2-0.2-0.3-0.3c0.6-0.4,1.1-1,1.3-1.7L206.4,82z M207.4,77.8c0,0.1-0.1,0.1-0.1,0.2c0.5,0.5,1.4,1,2.1,1.2
				c-0.1,0.1-0.2,0.3-0.2,0.4c-0.7-0.3-1.5-0.8-2.1-1.3c-0.4,0.5-1,1-1.7,1.4c-0.1-0.1-0.2-0.2-0.3-0.3c0.8-0.4,1.6-1.1,1.9-1.7
				L207.4,77.8z M205.4,80.1h1.5v1.6h-1.5V80.1z M205.7,81.4h0.8v-0.9h-0.8V81.4z M208.1,79.6h-2v-0.4h2V79.6z M208.3,82
				c0,0.2-0.1,0.4-0.2,0.6c0.4,0.3,0.9,0.7,1.2,0.9l-0.3,0.3c-0.2-0.2-0.7-0.6-1.1-0.9c-0.2,0.4-0.5,0.7-0.8,1
				c-0.1-0.1-0.2-0.2-0.3-0.3c0.6-0.4,0.9-1,1.1-1.7L208.3,82z M208.8,81.7h-1.5v-1.6h1.5V81.7z M208.5,80.5h-0.8v0.9h0.8V80.5z"/>
			<path class="st4" d="M211.5,81.4l-0.4,0.4c-0.4-0.6-1-1.1-1.5-1.5l0.4-0.4C210.4,80.3,211,80.9,211.5,81.4z"/>
		</g>
		<g class="st3">
			<path class="st4" d="M217.9,79.1h-2.2v1.1h-0.4v-1.5h2.6v-0.5h-2.3V78h5.1v0.3h-2.3v0.5h2.7v1.5h-0.4v-1.1h-2.2v1.6h-0.4V79.1z
				 M220.4,83.4c0.4,0,0.4-0.1,0.5-0.8c0.1,0.1,0.3,0.1,0.4,0.1c-0.1,0.8-0.2,1-0.8,1h-1.6c-0.7,0-0.9-0.1-0.9-0.6v-0.2h-1.6v0.4
				h-0.4v-2.3h4.6v2h-2.1v0.2c0,0.2,0.1,0.3,0.5,0.3H220.4z M215.9,80.3c0.4-0.1,1-0.1,1.6-0.2l0,0.3c-0.5,0.1-1,0.2-1.5,0.3
				L215.9,80.3z M216.2,79.2c0.4,0.1,1,0.2,1.3,0.4l-0.1,0.3c-0.3-0.1-0.9-0.3-1.3-0.4L216.2,79.2z M216.3,81.3v0.5h1.6v-0.5H216.3z
				 M217.9,82.6v-0.5h-1.6v0.5H217.9z M220,81.3h-1.7v0.5h1.7V81.3z M220,82.6v-0.5h-1.7v0.5H220z M220.2,80.7
				c-0.4-0.1-1.1-0.3-1.6-0.4l0.1-0.3c0.5,0.1,1.2,0.2,1.6,0.3L220.2,80.7z M220.2,79.5c-0.4,0.2-1,0.3-1.4,0.4l-0.2-0.2
				c0.4-0.1,1-0.3,1.3-0.4L220.2,79.5z"/>
			<path class="st4" d="M228.8,79.5c-0.1,2.9-0.1,3.8-0.4,4.1c-0.1,0.2-0.2,0.2-0.4,0.2c-0.2,0-0.5,0-0.8,0c0-0.1-0.1-0.3-0.1-0.4
				c0.3,0,0.7,0,0.8,0c0.1,0,0.2,0,0.2-0.1c0.2-0.2,0.3-1.1,0.3-3.6h-1c-0.1,1.8-0.4,3.3-1.6,4.2c-0.1-0.1-0.2-0.3-0.3-0.3
				c0.1-0.1,0.3-0.2,0.4-0.3c-1.1,0.1-2.1,0.3-2.9,0.3l-0.1-0.4c0.4,0,0.9-0.1,1.5-0.2v-0.6h-1.3v-0.4h1.3v-0.4h-1.3v-2h1.3v-0.5
				h-1.5v-0.4h1.5v-0.5c-0.4,0-0.9,0.1-1.3,0.1c0-0.1-0.1-0.3-0.1-0.3c1-0.1,2.2-0.2,2.9-0.3l0.2,0.3c-0.4,0.1-0.8,0.1-1.3,0.2v0.5
				h1.5v0.4h-1.5v0.5h1.3v2h-1.3v0.4h1.3v0.4h-1.3V83c0.4,0,0.9-0.1,1.4-0.2v0c0.6-0.8,0.8-1.9,0.9-3.2H226v-0.4h0.8
				c0-0.5,0-1,0-1.5h0.4c0,0.5,0,1,0,1.5h1.5V79.5z M223.3,80.5h0.9V80h-0.9V80.5z M224.2,81.4v-0.5h-0.9v0.5H224.2z M224.6,80v0.5
				h0.9V80H224.6z M225.6,80.8h-0.9v0.5h0.9V80.8z"/>
			<path class="st4" d="M236.5,82.9h-2.8v1h-0.4v-1h-2.8v-0.4h2.8v-0.6h-2.1v-2.6h2.1v-0.5h-2.6v-0.4h2.6v-0.6h0.4v0.6h2.6v0.4h-2.6
				v0.5h2.1v2.6h-2.1v0.6h2.8V82.9z M231.6,80.4h1.6v-0.7h-1.6V80.4z M233.3,81.5v-0.7h-1.6v0.7H233.3z M233.7,79.6v0.7h1.7v-0.7
				H233.7z M235.4,80.8h-1.7v0.7h1.7V80.8z"/>
			<path class="st4" d="M240.1,77.8c-0.2,0.5-0.4,1-0.7,1.5v4.6H239v-3.9c-0.2,0.3-0.5,0.6-0.8,0.9c0-0.1-0.2-0.3-0.3-0.4
				c0.7-0.6,1.3-1.7,1.7-2.7L240.1,77.8z M241.4,81.9c-0.3,0.6-0.8,1.2-1.2,1.7c-0.1-0.1-0.3-0.2-0.4-0.3c0.4-0.4,0.8-1,1.1-1.5
				L241.4,81.9z M242.3,81.4v2.5h-0.5v-2.5h-2V81h2v-0.8h-1.5V78h3.5v2.1h-1.5V81h1.9v0.4H242.3z M240.8,79.7h2.6v-1.3h-2.6V79.7z
				 M243.1,81.7c0.5,0.5,1,1.1,1.2,1.5l-0.4,0.2c-0.2-0.4-0.7-1.1-1.2-1.6L243.1,81.7z"/>
		</g>
		<g class="st3">
			<path class="st4" d="M247.7,78.1c-0.2,0.6-0.4,1.2-0.7,1.8c0.5,0.6,0.6,1.1,0.6,1.5c0,0.4-0.1,0.6-0.2,0.8
				c-0.1,0.1-0.2,0.1-0.3,0.1c-0.1,0-0.3,0-0.4,0c0-0.1,0-0.3-0.1-0.4c0.2,0,0.3,0,0.4,0c0.1,0,0.2,0,0.2-0.1
				c0.1-0.1,0.1-0.3,0.1-0.5c0-0.4-0.1-0.9-0.6-1.4c0.2-0.5,0.4-1.1,0.5-1.6h-0.9v5.5h-0.4V78h1.4l0.1,0L247.7,78.1z M248.9,82
				c-0.1,0.2-0.1,0.4-0.2,0.5c0.3,0.2,0.6,0.4,0.8,0.6l-0.2,0.3c-0.1-0.2-0.4-0.4-0.7-0.6c-0.3,0.4-0.6,0.8-1,1.1
				c-0.1-0.1-0.2-0.2-0.3-0.3c0.6-0.4,1.1-1,1.3-1.7L248.9,82z M250,77.8c0,0.1-0.1,0.1-0.1,0.2c0.5,0.5,1.4,1,2.1,1.2
				c-0.1,0.1-0.2,0.3-0.2,0.4c-0.7-0.3-1.5-0.8-2.1-1.3c-0.4,0.5-1,1-1.7,1.4c-0.1-0.1-0.2-0.2-0.3-0.3c0.8-0.4,1.6-1.1,1.9-1.7
				L250,77.8z M248,80.1h1.5v1.6H248V80.1z M248.3,81.4h0.8v-0.9h-0.8V81.4z M250.7,79.6h-2v-0.4h2V79.6z M250.9,82
				c0,0.2-0.1,0.4-0.2,0.6c0.4,0.3,0.9,0.7,1.2,0.9l-0.3,0.3c-0.2-0.2-0.7-0.6-1.1-0.9c-0.2,0.4-0.5,0.7-0.8,1
				c-0.1-0.1-0.2-0.2-0.3-0.3c0.6-0.4,0.9-1,1.1-1.7L250.9,82z M251.4,81.7h-1.5v-1.6h1.5V81.7z M251.1,80.5h-0.8v0.9h0.8V80.5z"/>
			<path class="st4" d="M254,81.4l-0.4,0.4c-0.4-0.6-1-1.1-1.5-1.5l0.4-0.4C253,80.3,253.6,80.9,254,81.4z"/>
		</g>
		<g class="st3">
			<path class="st4" d="M258.3,82.1c-0.1,0.6-0.2,1.2-0.3,1.6c-0.1,0-0.3-0.1-0.4-0.1c0.1-0.4,0.3-1,0.3-1.6L258.3,82.1z
				 M259.7,81.7c0-0.1-0.1-0.2-0.1-0.3c-1.5,0.2-1.7,0.3-1.8,0.3c0-0.1-0.1-0.3-0.1-0.4c0.1,0,0.3-0.2,0.5-0.5
				c0.1-0.1,0.3-0.4,0.6-0.8c-0.8,0.1-0.9,0.1-1,0.2c0-0.1-0.1-0.3-0.1-0.4c0.1,0,0.2-0.2,0.4-0.4c0.1-0.2,0.6-1,0.9-1.7l0.4,0.2
				c-0.3,0.7-0.7,1.3-1,1.8l0.8-0.1c0.2-0.3,0.4-0.6,0.5-0.9l0.4,0.2c-0.5,0.8-1,1.6-1.6,2.3l1.1-0.2c-0.1-0.2-0.2-0.5-0.2-0.7
				l0.3-0.1c0.2,0.4,0.4,1,0.5,1.3L259.7,81.7z M258.9,82c0.1,0.5,0.2,1,0.2,1.4l-0.4,0.1c0-0.4-0.1-1-0.2-1.4L258.9,82z
				 M259.6,81.8c0.2,0.4,0.3,1,0.4,1.3l-0.3,0.1c-0.1-0.4-0.2-0.9-0.4-1.3L259.6,81.8z M263.6,83.4c-0.3-0.3-1-0.8-1.5-1.2v1.2
				c0,0.2,0,0.3-0.2,0.4c-0.2,0.1-0.4,0.1-0.8,0.1c0-0.1-0.1-0.3-0.1-0.4c0.3,0,0.5,0,0.6,0c0.1,0,0.1,0,0.1-0.1v-1.2
				c-0.5,0.4-1,0.8-1.4,1.1L260,83c0.4-0.3,1-0.7,1.6-1.2v-1.2H260v-0.4h2.4c0-0.2,0.1-0.4,0.1-0.5h-2.1c0.2-0.5,0.4-1.4,0.5-2
				l0.4,0c0,0.2-0.1,0.4-0.1,0.6h1.6l0.1,0l0.3,0.1c-0.1,0.5-0.2,1.3-0.4,1.9h1v0.4h-1.8v1.1c0.1,0.1,0.2,0.1,0.3,0.2
				c0.3-0.3,0.6-0.7,0.8-1l0.4,0.2c-0.3,0.3-0.6,0.7-0.8,1c0.5,0.3,0.9,0.7,1.2,0.9L263.6,83.4z M261,82c-0.2-0.2-0.5-0.6-0.8-0.9
				l0.3-0.2c0.3,0.2,0.6,0.6,0.8,0.8L261,82z M262.6,79.3c0-0.2,0.1-0.5,0.1-0.7h-1.5c-0.1,0.2-0.1,0.5-0.2,0.7H262.6z"/>
			<path class="st4" d="M270.2,83.4c0.7,0,0.8-0.2,0.9-1.1c0.1,0.1,0.3,0.1,0.4,0.2c-0.1,1-0.3,1.3-1.3,1.3h-2.7
				c-1,0-1.4-0.2-1.4-0.9v-3c-0.2,0.2-0.4,0.3-0.6,0.5c0-0.1-0.2-0.3-0.3-0.4c0.8-0.5,1.7-1.4,2.1-2.3l0.4,0.2
				c-0.1,0.2-0.2,0.3-0.3,0.5h1.8l0.1,0l0.3,0.2c-0.2,0.4-0.6,0.8-0.9,1.1h1.9V82h-0.4v-0.3h-3.8v1.2c0,0.4,0.1,0.5,0.9,0.5H270.2z
				 M267.3,78.7c-0.2,0.3-0.5,0.6-0.8,0.9h1.9c0.3-0.2,0.5-0.6,0.7-0.9H267.3z M266.6,81.2h1.6V80h-1.6V81.2z M270.4,80h-1.7v1.2
				h1.7V80z"/>
			<path class="st4" d="M275.1,77.8c-0.2,0.5-0.4,1-0.7,1.5v4.6H274V80c-0.2,0.3-0.5,0.6-0.7,0.9c0-0.1-0.2-0.3-0.3-0.4
				c0.7-0.7,1.3-1.7,1.7-2.7L275.1,77.8z M279.2,83.2v0.4h-4.4v-0.4h2v-1.8h-1.6V81h1.6v-1.6H275V79h4.1v0.4h-1.8V81h1.6v0.4h-1.6
				v1.8H279.2z M277,78.9c-0.1-0.3-0.4-0.8-0.6-1.1l0.4-0.2c0.2,0.3,0.5,0.8,0.6,1.1L277,78.9z"/>
			<path class="st4" d="M281.4,79.8h-0.5v-1.4h2.7c-0.1-0.2-0.2-0.4-0.3-0.6l0.4-0.1c0.1,0.2,0.3,0.5,0.4,0.8h2.5v1.4h-0.5v-1h-4.8
				V79.8z M285.7,83.3c0.4,0,0.4-0.2,0.5-1c0.1,0.1,0.3,0.2,0.4,0.2c-0.1,1-0.2,1.3-0.9,1.3h-1.6c-0.8,0-1-0.2-1-0.8v-1.3h-2.1v-0.4
				h2.1v-1c-0.6,0.1-1.2,0.2-1.7,0.2c0-0.1-0.1-0.3-0.1-0.4c1.4-0.2,3-0.4,3.8-0.8l0.4,0.3c-0.5,0.2-1.2,0.4-1.9,0.5v1.1h2.6v0.4
				h-2.6V83c0,0.3,0.1,0.3,0.5,0.3H285.7z"/>
			<path class="st4" d="M291.8,77.8c0,0.9,0,1.8-0.2,2.7c0.4,1.6,1.3,2.6,2.9,3c-0.1,0.1-0.2,0.3-0.3,0.4c-1.4-0.4-2.3-1.3-2.8-2.7
				c-0.4,1.2-1.1,2.1-2.7,2.7c-0.1-0.1-0.2-0.3-0.3-0.4c2.9-1,2.8-3.4,2.8-5.8H291.8z M289.5,81.2c-0.1-0.5-0.4-1.4-0.7-2.1l0.4-0.2
				c0.3,0.7,0.6,1.5,0.7,2L289.5,81.2z M294.2,79.2c-0.3,0.6-0.7,1.4-1,1.9l-0.4-0.2c0.3-0.5,0.7-1.3,0.9-1.9L294.2,79.2z"/>
		</g>
		<g class="st3">
			<path class="st4" d="M298,78.1c-0.2,0.6-0.4,1.2-0.7,1.8c0.5,0.6,0.6,1.1,0.6,1.5c0,0.4-0.1,0.6-0.2,0.8
				c-0.1,0.1-0.2,0.1-0.3,0.1c-0.1,0-0.3,0-0.4,0c0-0.1,0-0.3-0.1-0.4c0.2,0,0.3,0,0.4,0c0.1,0,0.2,0,0.2-0.1
				c0.1-0.1,0.1-0.3,0.1-0.5c0-0.4-0.1-0.9-0.6-1.4c0.2-0.5,0.4-1.1,0.5-1.6h-0.9v5.5h-0.4V78h1.4l0.1,0L298,78.1z M299.2,82
				c-0.1,0.2-0.1,0.4-0.2,0.5c0.3,0.2,0.6,0.4,0.8,0.6l-0.2,0.3c-0.1-0.2-0.4-0.4-0.7-0.6c-0.3,0.4-0.6,0.8-1,1.1
				c-0.1-0.1-0.2-0.2-0.3-0.3c0.6-0.4,1.1-1,1.3-1.7L299.2,82z M300.2,77.8c0,0.1-0.1,0.1-0.2,0.2c0.5,0.5,1.4,1,2.1,1.2
				c-0.1,0.1-0.2,0.3-0.2,0.4c-0.7-0.3-1.5-0.8-2.1-1.3c-0.4,0.5-1,1-1.7,1.4c-0.1-0.1-0.2-0.2-0.3-0.3c0.8-0.4,1.6-1.1,1.9-1.7
				L300.2,77.8z M298.2,80.1h1.5v1.6h-1.5V80.1z M298.6,81.4h0.8v-0.9h-0.8V81.4z M300.9,79.6h-2v-0.4h2V79.6z M301.1,82
				c0,0.2-0.1,0.4-0.2,0.6c0.4,0.3,0.9,0.7,1.2,0.9l-0.3,0.3c-0.2-0.2-0.7-0.6-1.1-0.9c-0.2,0.4-0.5,0.7-0.8,1
				c-0.1-0.1-0.2-0.2-0.3-0.3c0.6-0.4,0.9-1,1.1-1.7L301.1,82z M301.7,81.7h-1.5v-1.6h1.5V81.7z M301.3,80.5h-0.8v0.9h0.8V80.5z"/>
			<path class="st4" d="M304.3,81.4l-0.4,0.4c-0.4-0.6-1-1.1-1.5-1.5l0.4-0.4C303.3,80.3,303.9,80.9,304.3,81.4z"/>
		</g>
		<g class="st3">
			<path class="st4" d="M309,78.9c-0.3,0.3-0.6,0.6-0.8,0.9c-0.1-0.1-0.2-0.3-0.3-0.3c0.6-0.4,1.1-1.1,1.5-1.7l0.4,0.1
				c-0.1,0.2-0.3,0.5-0.4,0.7h4.4v0.4H309z M314,81.7v0.4h-6v-0.4h1.1v-1.2h-0.8v-0.4h0.8v-0.8h0.4v0.8h0.7v-0.8h0.4v0.8h0.8v-0.8
				h0.4v0.8h0.8v-0.8h0.4v0.8h0.8v0.4h-0.8v1.2H314z M308.1,83.7c0.2-0.3,0.5-0.9,0.7-1.3l0.4,0.1c-0.2,0.4-0.4,1-0.7,1.4
				L308.1,83.7z M309.5,81.7h0.7v-1.2h-0.7V81.7z M310.4,82.6c0.1,0.4,0.2,0.9,0.2,1.2l-0.4,0.1c0-0.3-0.1-0.8-0.1-1.2L310.4,82.6z
				 M310.6,80.5v1.2h0.8v-1.2H310.6z M311.8,82.5c0.2,0.4,0.4,0.9,0.4,1.2l-0.4,0.1c-0.1-0.3-0.2-0.8-0.4-1.2L311.8,82.5z
				 M311.8,80.5v1.2h0.8v-1.2H311.8z M313.2,82.4c0.3,0.4,0.6,1,0.7,1.3l-0.4,0.2c-0.1-0.3-0.4-0.9-0.7-1.3L313.2,82.4z"/>
		</g>
		<g class="st3">
			<path class="st4" d="M196.1,91.8c-0.1,0.6-0.2,1.2-0.4,1.6c-0.1,0-0.3-0.1-0.4-0.1c0.2-0.4,0.3-1,0.3-1.6L196.1,91.8z
				 M197.7,91.4c0-0.1-0.1-0.2-0.1-0.4c-1.6,0.3-1.8,0.3-2,0.4c0-0.1-0.1-0.3-0.1-0.4c0.1,0,0.3-0.2,0.5-0.4
				c0.1-0.1,0.4-0.4,0.7-0.8c-0.8,0.1-1,0.1-1.1,0.2c0-0.1-0.1-0.3-0.1-0.4c0.1,0,0.2-0.2,0.4-0.4c0.1-0.2,0.7-1,1-1.7l0.4,0.2
				c-0.3,0.7-0.7,1.3-1.2,1.8l0.9-0.1c0.2-0.3,0.4-0.6,0.6-0.9l0.4,0.2c-0.5,0.8-1.1,1.6-1.7,2.2l1.3-0.2c-0.1-0.2-0.2-0.4-0.3-0.7
				l0.4-0.1c0.2,0.4,0.4,1,0.5,1.3L197.7,91.4z M196.9,91.7c0.1,0.5,0.2,1,0.2,1.4l-0.4,0.1c0-0.4-0.1-1-0.2-1.5L196.9,91.7z
				 M197.6,91.5c0.1,0.4,0.3,0.9,0.4,1.2l-0.4,0.1c-0.1-0.3-0.2-0.8-0.4-1.2L197.6,91.5z M200.4,90.5c0.1,1.6,0.4,2.6,0.8,2.6
				c0.1,0,0.2-0.3,0.2-1.1c0.1,0.1,0.2,0.2,0.3,0.2c-0.1,1-0.2,1.3-0.6,1.3c-0.7,0-1-1.2-1.1-3h-1.3v2.5l1.2-0.4
				c0,0.1,0,0.3,0.1,0.4c-1.4,0.5-1.6,0.6-1.7,0.6c0-0.1-0.1-0.3-0.2-0.4c0.1-0.1,0.2-0.2,0.2-0.5V88h0c1-0.1,2.2-0.3,2.9-0.6
				l0.3,0.4c-0.3,0.1-0.7,0.2-1.1,0.3c0,0.7,0,1.4,0,1.9h1.2v0.4H200.4z M199.9,90.1c0-0.6-0.1-1.2-0.1-1.9
				c-0.4,0.1-0.8,0.1-1.2,0.2v1.7H199.9z"/>
			<path class="st4" d="M205.1,87.5c-0.2,0.4-0.4,0.9-0.7,1.3v4.7h-0.4v-4.1c-0.3,0.4-0.6,0.8-1,1.1c0-0.1-0.2-0.3-0.3-0.4
				c0.8-0.6,1.5-1.7,1.9-2.7L205.1,87.5z M208,92.9c0.4,0,0.4-0.3,0.5-1.5c0.1,0.1,0.3,0.2,0.4,0.2c-0.1,1.3-0.2,1.7-0.9,1.7h-1.3
				c-0.6,0-0.8-0.2-0.8-0.9v-5h0.4v1.9h2.4v0.4h-2.4v2.7c0,0.4,0.1,0.4,0.4,0.4H208z"/>
			<path class="st4" d="M216.3,91.6V92h-6.1v-0.4h0.7l-0.1-3.6c0.4-0.2,0.9-0.4,1.3-0.5l0.2,0.4c-0.3,0.1-0.7,0.3-1.1,0.4l0,0.8h0.9
				v0.4h-0.9l0,0.9h0.9v0.4h-0.9l0,0.9h3.9c0-0.3,0-0.6,0-0.9h-0.9v-0.4h0.9c0-0.3,0-0.6,0-0.9h-0.9V89h0.9c0-0.3,0-0.6,0-0.9h-1
				v-0.4h1.4c0,1.2,0,2.8-0.1,3.8H216.3z M212.6,92.4c-0.5,0.4-1.4,0.9-2,1.2c-0.1-0.1-0.2-0.2-0.3-0.3c0.6-0.3,1.5-0.7,1.9-1.1
				L212.6,92.4z M213.1,90c-0.1,0.5-0.2,1-0.4,1.3c-0.1-0.1-0.2-0.2-0.3-0.2c0.2-0.3,0.3-0.7,0.4-1.1L213.1,90z M213.6,89.6h-1.1
				v-2.2h0.4v0.7h1.1v0.4h-1.1v0.8h0.9v0h0.2v1.8c0,0.2,0,0.3-0.2,0.3c-0.1,0.1-0.4,0.1-0.7,0.1c0-0.1-0.1-0.2-0.1-0.3
				c0.3,0,0.5,0,0.5,0c0.1,0,0.1,0,0.1-0.1V89.6z M214.1,92.1c0.7,0.3,1.5,0.8,2,1.1l-0.3,0.3c-0.5-0.3-1.2-0.8-1.9-1.1L214.1,92.1z
				"/>
			<path class="st4" d="M220.5,91.8c-0.1,0.3-0.2,0.6-0.6,0.9c0.3,0.1,0.6,0.3,0.8,0.4l-0.3,0.3c-0.2-0.1-0.5-0.3-0.8-0.4
				c-0.4,0.2-1,0.4-1.9,0.6c0-0.1-0.1-0.2-0.2-0.3c0.7-0.1,1.3-0.3,1.7-0.5c-0.4-0.1-0.7-0.3-1.1-0.4c0.1-0.1,0.2-0.3,0.3-0.5
				l-0.8,0l0-0.3c0.3,0,0.7,0,1.1,0c0.1-0.2,0.2-0.4,0.3-0.6h-1.1V90h1.3v-0.3H218v-0.7h-0.4v-0.4h0.4v-0.7h1.1v-0.5h0.4v0.5h1.2
				v0.7h0.5v0.4h-0.5v0.7h-1.2V90h1.3V91h-1.5c-0.1,0.2-0.2,0.4-0.3,0.5l1.1-0.1c0,0,0-0.1,0-0.1v-0.2h0.4v0.3v0.1l0.4,0l0,0.3
				L220.5,91.8z M218.2,90.7h0.9v-0.5h-0.9V90.7z M218.4,88.2v0.4h0.7v-0.4H218.4z M219.1,89.3v-0.4h-0.7v0.4H219.1z M218.8,91.9
				c-0.1,0.1-0.2,0.2-0.2,0.3c0.3,0.1,0.6,0.2,0.9,0.3c0.3-0.2,0.5-0.5,0.6-0.7L218.8,91.9z M219.4,88.2v0.4h0.8v-0.4H219.4z
				 M220.2,89.3v-0.4h-0.8v0.4H220.2z M219.4,90.3v0.5h0.9v-0.5H219.4z M223.2,89.1c-0.1,1-0.3,1.9-0.6,2.6c0.3,0.6,0.7,1.1,1.2,1.5
				c-0.1,0.1-0.2,0.2-0.3,0.3c-0.4-0.3-0.8-0.8-1.1-1.3c-0.3,0.6-0.7,1.1-1.2,1.4c0-0.1-0.2-0.3-0.3-0.3c0.6-0.4,1-0.9,1.3-1.6
				c-0.2-0.6-0.4-1.2-0.5-1.9c-0.1,0.3-0.2,0.6-0.4,0.8c-0.1-0.1-0.2-0.2-0.3-0.3c0.4-0.7,0.7-1.8,0.9-2.9l0.4,0.1
				c-0.1,0.4-0.1,0.8-0.2,1.2h1.7v0.4H223.2z M221.8,89.1c0.1,0.7,0.3,1.5,0.5,2.1c0.2-0.6,0.3-1.3,0.4-2.1H221.8z"/>
			<path class="st4" d="M226.9,87.5c-0.2,0.5-0.4,1-0.7,1.5v4.6h-0.4v-3.9c-0.2,0.3-0.5,0.6-0.7,0.9c0-0.1-0.2-0.3-0.3-0.4
				c0.7-0.7,1.3-1.7,1.7-2.7L226.9,87.5z M231,92.9v0.4h-4.2v-0.4h2.4c0.3-0.9,0.5-2.4,0.7-3.4l0.5,0.1c-0.2,1-0.5,2.4-0.7,3.3H231z
				 M230.7,89.1H227v-0.4h3.7V89.1z M228,92.5c-0.1-0.7-0.3-2-0.5-2.9l0.4-0.1c0.2,1,0.4,2.2,0.5,2.9L228,92.5z M228.7,88.5
				c-0.1-0.3-0.2-0.7-0.3-1.1l0.4-0.1c0.1,0.3,0.3,0.8,0.3,1.1L228.7,88.5z"/>
			<path class="st4" d="M234.4,87.5c-0.2,0.4-0.4,0.9-0.7,1.3v4.7h-0.4v-4.1c-0.3,0.4-0.6,0.8-1,1.1c0-0.1-0.2-0.3-0.3-0.4
				c0.8-0.6,1.5-1.7,1.9-2.7L234.4,87.5z M237.3,92.9c0.4,0,0.4-0.3,0.5-1.5c0.1,0.1,0.3,0.2,0.4,0.2c-0.1,1.3-0.2,1.7-0.9,1.7H236
				c-0.6,0-0.8-0.2-0.8-0.9v-5h0.4v1.9h2.4v0.4h-2.4v2.7c0,0.4,0.1,0.4,0.4,0.4H237.3z"/>
			<path class="st4" d="M240.6,90.3c-0.2-0.2-0.7-0.5-1.1-0.7l0.3-0.3c0.4,0.2,0.9,0.4,1.1,0.6L240.6,90.3z M240.9,91.2
				c-0.3,0.7-0.6,1.6-0.9,2.3l-0.4-0.2c0.3-0.5,0.7-1.5,1-2.3L240.9,91.2z M240.9,88.5c-0.2-0.2-0.7-0.5-1.1-0.7l0.3-0.3
				c0.4,0.2,0.9,0.5,1.1,0.7L240.9,88.5z M245.5,89.6c-0.2,0.9-0.5,1.7-0.9,2.3c0.2,0.7,0.4,1.1,0.6,1.1c0.1,0,0.2-0.4,0.3-1.1
				c0.1,0.1,0.3,0.2,0.3,0.2c-0.1,1.1-0.4,1.4-0.6,1.4c-0.4,0-0.7-0.5-0.9-1.2c-0.3,0.5-0.8,0.8-1.2,1.2c-0.1-0.1-0.2-0.2-0.3-0.3
				c0.6-0.3,1.1-0.8,1.4-1.4c-0.2-0.8-0.3-1.8-0.3-3h-2.1v1.4c0,1-0.1,2.4-0.8,3.3c-0.1-0.1-0.2-0.2-0.3-0.2
				c0.6-0.9,0.7-2.2,0.7-3.1v-1.8h2.5c0-0.3,0-0.7,0-1h0.4c0,0.4,0,0.7,0,1h1.4v0.4h-1.4c0.1,0.9,0.1,1.7,0.2,2.4
				c0.3-0.5,0.5-1.1,0.6-1.8L245.5,89.6z M243.7,89.8H242v-0.4h1.7V89.8z M242.4,92.2v0.4h-0.3v-2.2h1.5v1.8H242.4z M242.4,90.7v1.1
				h0.9v-1.1H242.4z M245.3,88.4c-0.2-0.2-0.6-0.6-0.9-0.8l0.3-0.2c0.3,0.2,0.7,0.5,0.9,0.7L245.3,88.4z"/>
			<path class="st4" d="M247.8,92.7v0.6h-0.4v-2.5c-0.1,0.2-0.2,0.4-0.4,0.6c0-0.1-0.1-0.3-0.2-0.5c0.5-0.7,0.8-1.6,1-2.7h-0.9v-0.4
				h2.3v0.4h-1c-0.1,0.6-0.3,1.2-0.4,1.7h1.2v2.9H247.8z M248.6,90.2h-0.9v2.1h0.9V90.2z M253,89.8h-3.2v1c0,0.8-0.1,2-0.6,2.8
				c-0.1-0.1-0.3-0.2-0.3-0.2c0.5-0.8,0.5-1.8,0.5-2.6v-1.4h3.6V89.8z M252.7,89h-3.2v-1.4h0.4v1h1v-1.2h0.4v1.2h1v-1h0.4V89z
				 M251.6,90.1c0,0.4,0,0.8-0.1,1.1c0.3,0.9,0.8,1.7,1.5,2c-0.1,0.1-0.2,0.2-0.3,0.3c-0.6-0.3-1-0.9-1.3-1.7
				c-0.2,0.7-0.6,1.3-1.3,1.7c-0.1-0.1-0.2-0.2-0.3-0.3c1.2-0.6,1.4-1.7,1.4-3.2H251.6z M250.5,91.9c-0.1-0.3-0.4-0.8-0.6-1.2
				l0.3-0.2c0.2,0.4,0.5,0.9,0.6,1.2L250.5,91.9z M251.9,91.7c0.2-0.3,0.5-0.8,0.7-1.2l0.4,0.2c-0.3,0.4-0.5,0.8-0.8,1.1L251.9,91.7
				z"/>
			<path class="st4" d="M255.4,90.4c-0.3-0.2-0.8-0.6-1.2-0.8l0.2-0.3c0.4,0.2,1,0.5,1.2,0.7L255.4,90.4z M256,91.3
				c-0.4,0.7-0.8,1.6-1.2,2.2l-0.4-0.3c0.4-0.5,0.9-1.4,1.3-2.2L256,91.3z M255.6,88.7c-0.2-0.3-0.7-0.6-1.1-0.9l0.3-0.3
				c0.4,0.2,0.9,0.6,1.1,0.9L255.6,88.7z M256.6,90.6h0.4v0.7c0,0.7-0.1,1.6-1,2.3c-0.1-0.1-0.2-0.2-0.3-0.3c0.8-0.6,0.9-1.3,0.9-2
				V90.6z M259.9,90.5c-0.1-0.1-0.2-0.3-0.4-0.5c-2.8,0.2-3.1,0.2-3.3,0.3c0-0.1-0.1-0.3-0.1-0.4c0.1,0,0.3-0.2,0.5-0.4
				c0.1-0.1,0.3-0.4,0.6-0.8H256v-0.4h1.5c0.2-0.3,0.4-0.6,0.5-0.9l0.4,0.2c-0.1,0.2-0.3,0.5-0.4,0.7h2.2v0.4h-2.5
				c-0.3,0.4-0.6,0.8-0.9,1.1l2.4-0.1c-0.2-0.2-0.4-0.4-0.5-0.6l0.3-0.2c0.4,0.5,0.9,1.1,1.2,1.5L259.9,90.5z M257.8,90.6h0.4v2.7
				h-0.4V90.6z M260,93.1c0.1,0,0.2,0,0.3,0c0,0.1,0,0.3,0,0.4c-0.1,0-0.2,0-0.3,0h-0.5c-0.4,0-0.5-0.2-0.5-0.6v-2.3h0.4v2.3
				c0,0.2,0,0.2,0.1,0.2H260z"/>
			<path class="st4" d="M263.6,91.4c-0.1-0.2-0.3-0.6-0.5-1v3.1h-0.4v-3.1c-0.3,0.7-0.6,1.5-0.9,1.9c0-0.1-0.2-0.3-0.2-0.4
				c0.4-0.5,0.8-1.4,1.1-2.2h-1v-0.4h1.1v-1.2c-0.3,0.1-0.6,0.1-0.8,0.2c0-0.1-0.1-0.3-0.1-0.4c0.7-0.1,1.5-0.3,1.9-0.5l0.3,0.4
				c-0.2,0.1-0.5,0.2-0.8,0.3v1.3h0.9v0.4h-0.9v0.2c0.2,0.2,0.7,0.9,0.8,1.1L263.6,91.4z M267.7,93v0.4h-3.9V93h1.8v-1h-1.4v-0.4
				h1.4v-0.9c-0.4,0-0.8,0.1-1.2,0.1c0-0.1-0.1-0.3-0.1-0.4c0.9-0.1,2.1-0.2,2.7-0.4l0.3,0.3c-0.3,0.1-0.8,0.2-1.3,0.3v0.9h1.4V92
				H266v1H267.7z M267.3,89.9h-3.1v-2.1h3.1V89.9z M266.9,88.1h-2.2v1.3h2.2V88.1z"/>
			<path class="st4" d="M271.5,91.8c0,0.1,0,0.3,0.1,0.4c-2,0.8-2.2,0.9-2.4,1c0-0.1-0.1-0.3-0.2-0.5c0.1,0,0.2-0.1,0.2-0.4v-2.6
				h1.8v-1.5h-1.9v-0.4h2.4v2.4h-1.8v2.2L271.5,91.8z M274.5,89.1c-0.2,1.1-0.5,2-0.9,2.8c0.4,0.6,0.9,1,1.5,1.3
				c-0.1,0.1-0.2,0.3-0.3,0.4c-0.6-0.3-1.1-0.7-1.4-1.3c-0.4,0.6-1,1-1.7,1.4c0-0.1-0.2-0.3-0.3-0.4c0.7-0.3,1.3-0.8,1.7-1.4
				c-0.3-0.6-0.6-1.3-0.8-2c-0.2,0.3-0.3,0.6-0.5,0.9c-0.1-0.1-0.3-0.2-0.4-0.3c0.6-0.7,0.9-1.8,1.2-3l0.4,0.1
				c-0.1,0.4-0.2,0.8-0.3,1.2h2.2v0.4H274.5z M272.6,89.1c0.2,0.8,0.4,1.6,0.7,2.3c0.3-0.6,0.6-1.4,0.7-2.3L272.6,89.1L272.6,89.1z"
				/>
			<path class="st4" d="M278,90.6c-0.2,0.6-0.4,1.3-0.7,1.8c0.1,0.1,0.3,0.2,0.5,0.3c0.5,0.3,1.1,0.3,1.9,0.3c0.9,0,2-0.1,2.7-0.1
				c-0.1,0.1-0.1,0.3-0.1,0.5c-0.5,0-1.8,0.1-2.6,0.1c-0.9,0-1.5-0.1-2-0.4c-0.3-0.2-0.5-0.4-0.7-0.4c-0.2,0-0.4,0.4-0.6,0.9
				l-0.3-0.4c0.3-0.4,0.6-0.7,0.8-0.8c0.2-0.4,0.4-0.9,0.6-1.4h-1c0.2-0.4,0.4-1,0.6-1.5h-0.9V89h1.5c-0.2,0.5-0.4,1.1-0.6,1.5h0.6
				l0.1,0L278,90.6z M277,88.7c-0.1-0.3-0.2-0.7-0.3-1.1l0.4-0.1c0.1,0.3,0.3,0.8,0.4,1.1L277,88.7z M278.9,88.7
				c-0.2,0.3-0.4,0.5-0.5,0.7c-0.1-0.1-0.3-0.2-0.4-0.2c0.4-0.4,0.8-1,1-1.7l0.4,0.1c-0.1,0.2-0.2,0.5-0.3,0.7h0.8v-0.9h0.4v0.9h1.7
				v0.4h-1.7v0.9h2V90H278v-0.4h1.9v-0.9H278.9z M281.4,92.6v-0.2H279v0.3h-0.4v-2.1h3.2v2.1H281.4z M281.4,92v-1.1H279V92H281.4z"
				/>
			<path class="st4" d="M289.7,92.6v0.5h-6.1v-0.5h2.8v-4H284v-0.5h5.4v0.5h-2.5v4H289.7z"/>
			<path class="st4" d="M293,91.4c-0.1-0.2-0.3-0.6-0.5-1v3.1H292v-3.1c-0.3,0.7-0.6,1.5-0.9,1.9c0-0.1-0.2-0.3-0.2-0.4
				c0.4-0.5,0.8-1.4,1.1-2.2h-1v-0.4h1.1v-1.2c-0.3,0.1-0.6,0.1-0.8,0.2c0-0.1-0.1-0.3-0.1-0.4c0.7-0.1,1.5-0.3,1.9-0.5l0.3,0.4
				c-0.2,0.1-0.5,0.2-0.8,0.3v1.3h0.9v0.4h-0.9v0.2c0.2,0.2,0.7,0.9,0.8,1.1L293,91.4z M297.1,93v0.4h-3.9V93h1.8v-1h-1.4v-0.4h1.4
				v-0.9c-0.4,0-0.8,0.1-1.2,0.1c0-0.1-0.1-0.3-0.1-0.4c0.9-0.1,2.1-0.2,2.7-0.4l0.3,0.3c-0.3,0.1-0.8,0.2-1.3,0.3v0.9h1.4V92h-1.4
				v1H297.1z M296.7,89.9h-3.1v-2.1h3.1V89.9z M296.3,88.1h-2.2v1.3h2.2V88.1z"/>
		</g>
		<g class="st3">
			<path class="st5" d="M30.8,27.2v9.2h-1.1v-0.7h-7.4v0.8h-1.1v-9.3H30.8z M29.6,34.7V33c-0.2,0.1-0.5,0.1-0.7,0.1h-1.1
				c-0.9,0-1.1-0.4-1.1-1.5v-3.4h-1.4c-0.1,3-0.3,4.7-2.2,5.7c-0.1-0.3-0.4-0.7-0.7-0.8c1.6-0.8,1.8-2.2,1.8-4.8h-1.9v6.4H29.6z
				 M29.6,28.3h-2v3.4c0,0.4,0,0.5,0.3,0.5h1c0.2,0,0.5,0,0.7-0.1c0,0.2,0,0.4,0,0.6V28.3z"/>
			<path class="st5" d="M26.8,43.2c0.8,2.4,2.3,4.4,4.5,5.3c-0.3,0.2-0.6,0.7-0.8,1c-2.2-1-3.6-2.9-4.5-5.4
				c-0.6,2.1-1.9,4.1-4.5,5.4c-0.2-0.3-0.5-0.7-0.8-0.9c2.8-1.2,3.9-3.3,4.4-5.4h-4.1V42h4.3c0.1-1.2,0.1-2.3,0.1-3.2h1.2
				c0,0.9,0,2.1-0.2,3.2h4.7v1.1H26.8z"/>
			<path class="st5" d="M30.6,54.5c-0.3,1.9-0.7,3.4-1.4,4.6c0.6,0.9,1.4,1.6,2.3,2c-0.2,0.2-0.6,0.6-0.7,0.9
				c-0.9-0.5-1.6-1.1-2.2-2c-0.7,0.8-1.5,1.5-2.5,2c-0.1-0.2-0.4-0.7-0.6-1c1.1-0.5,1.9-1.2,2.5-2c-0.5-0.9-0.8-1.9-1.1-2.9
				c-0.2,0.3-0.4,0.6-0.6,0.9c-0.1-0.2-0.4-0.4-0.7-0.6h-1.3v2.7l1.8-0.4l0.1,1c-1.9,0.5-3.9,0.9-5.4,1.2L20.6,60l0.7-0.1v-5.1h1
				v4.9l1-0.2v-6.2h-2.4v-1h5.3v1h-1.9v2.3h1.5v0.4c0.8-1.2,1.2-2.8,1.5-4.5l1.1,0.2c-0.1,0.7-0.3,1.3-0.5,2h3.5v1H30.6z M27.4,54.7
				c0.2,1.2,0.6,2.4,1.1,3.3c0.5-1,0.8-2.2,1-3.5h-2L27.4,54.7z"/>
			<path class="st5" d="M26.6,71c0.9,1,2.7,1.9,4.8,2.3c-0.2,0.2-0.5,0.7-0.7,1c-1.7-0.4-3.1-1.3-4.1-2.1v2.5h-1.2v-2.6
				c-1.1,1-2.6,1.8-4.1,2.2c-0.1-0.3-0.5-0.7-0.7-0.9c1.9-0.4,3.8-1.4,4.8-2.6v-0.9h-2.6v2.1h-1.1V69h3.7v-0.8H21v-0.9h4.5v-0.7h0.9
				c-0.2-0.2-0.5-0.4-0.7-0.6c0.6-0.5,1.2-1.3,1.4-2.2l1,0.2c-0.1,0.2-0.2,0.4-0.2,0.6h3.3v0.9H29c0.4,0.3,0.8,0.6,1,0.9l-0.7,0.6
				c-0.3-0.3-0.8-0.8-1.2-1.1l0.5-0.4h-1.1c-0.3,0.4-0.5,0.7-0.8,1h0v0.7H31v0.9h-4.3V69h3.7v2c0,0.5-0.1,0.7-0.4,0.8
				C29.5,72,29,72,28.4,72c-0.1-0.3-0.2-0.6-0.4-0.9c0.4,0,0.9,0,1,0c0.1,0,0.2,0,0.2-0.2v-1.1h-2.6V71z M22.6,65.6
				c-0.4,0.6-0.8,1.1-1.2,1.5c-0.2-0.2-0.5-0.5-0.7-0.7c0.7-0.6,1.3-1.6,1.7-2.5l1,0.3c-0.1,0.2-0.2,0.4-0.3,0.6h2.8v0.9h-2
				c0.3,0.3,0.7,0.7,0.9,0.9l-0.7,0.6c-0.2-0.3-0.7-0.8-1.1-1.2l0.4-0.4H22.6z"/>
		</g>
		<g class="st3">
			<path class="st5" d="M11.2,31.1c-0.6,2.4-1.9,4.2-3.3,5.1C7.7,36,7.3,35.6,7,35.4c1.2-0.7,2.2-2,2.8-3.5H7.3v-1h3l0.2,0
				L11.2,31.1z M17.4,30.2c-0.9,0.8-2,1.8-3,2.4c0.8,1.2,1.9,2.1,3.4,2.7c-0.2,0.2-0.6,0.7-0.8,1c-1.8-0.8-3.1-2.2-4-4.1v3.5
				c0,0.6-0.1,0.9-0.6,1.1c-0.4,0.2-1.1,0.2-2,0.2c0-0.3-0.2-0.8-0.4-1.1c0.6,0,1.4,0,1.5,0c0.2,0,0.3-0.1,0.3-0.3v-6H8.8v-1H13v0.9
				c0.2,0.8,0.5,1.6,0.9,2.2c0.9-0.7,1.9-1.6,2.5-2.3L17.4,30.2z M14,28.7c-0.9-0.5-2.8-1.2-4.2-1.6l0.5-0.9
				c1.4,0.3,3.3,0.9,4.3,1.5L14,28.7z"/>
			<path class="st5" d="M8.4,46.5c-0.1,1.1-0.3,2.2-0.6,3c-0.2-0.1-0.6-0.2-0.8-0.3c0.3-0.7,0.4-1.8,0.5-2.9L8.4,46.5z M10.3,46
				c0-0.2-0.1-0.4-0.1-0.6c-2.2,0.3-2.5,0.4-2.8,0.5c0-0.2-0.2-0.7-0.3-0.9c0.2-0.1,0.5-0.3,0.8-0.8C8.1,44,8.4,43.6,8.7,43
				c-1,0.1-1.3,0.2-1.4,0.3c0-0.2-0.2-0.6-0.3-0.9c0.2,0,0.4-0.3,0.6-0.6c0.2-0.3,0.9-1.7,1.3-2.9l0.9,0.4c-0.4,1-1,2.1-1.5,3l1-0.1
				c0.3-0.5,0.5-1,0.8-1.6l0.8,0.5c-0.7,1.3-1.5,2.6-2.4,3.7l1.4-0.2c-0.1-0.3-0.2-0.7-0.3-1l0.7-0.2c0.3,0.8,0.5,1.8,0.6,2.4
				L10.3,46z M9.4,46.3c0.2,0.9,0.3,1.9,0.3,2.7l-0.8,0.2c0-0.7-0.1-1.8-0.2-2.7L9.4,46.3z M10.4,46c0.2,0.7,0.5,1.5,0.6,2.1
				l-0.7,0.2c-0.1-0.6-0.3-1.5-0.6-2.2L10.4,46z M15.4,47.8c0.8,0.3,1.7,0.6,2.3,0.9l-0.4,0.8c-0.6-0.3-1.6-0.7-2.5-1.1l0.3-0.6
				h-1.9l0.6,0.6c-0.9,0.4-2,0.8-2.8,1.1c-0.1-0.2-0.3-0.5-0.4-0.8c0.7-0.2,1.7-0.7,2.4-1h-1.7v-3.4h5.8v3.4H15.4z M13.7,40.1h-2.9
				v-0.7h2.9v-0.6h1.1v0.6h2.7v0.7h-2.7v0.5h2.3v0.7h-5.8v-0.7h2.4V40.1z M10.9,41.7h6.5V44h-6.5V41.7z M11.8,43.3h1.1v-0.8h-1.1
				V43.3z M12.3,45.4h3.8V45h-3.8V45.4z M12.3,46.3h3.8v-0.4h-3.8V46.3z M12.3,47.2h3.8v-0.5h-3.8V47.2z M14.8,43.3v-0.8h-1v0.8
				H14.8z M16.5,42.4h-0.9v0.8h0.9V42.4z"/>
			<path class="st5" d="M12.9,55.8v1.4h3.9v1h-3.9v2.6h4.5v1h-10v-1h4.4v-2.6H7.9v-1h3.8v-1.4H9.4v-0.6c-0.5,0.3-1.1,0.5-1.7,0.7
				c-0.2-0.3-0.5-0.7-0.7-1c2.2-0.7,4.3-1.9,5.4-3.7l1,0.5c-0.1,0.2-0.2,0.3-0.3,0.4c1.1,1.1,3.1,2.2,4.8,2.8
				c-0.2,0.2-0.6,0.7-0.7,0.9c-0.6-0.2-1.2-0.5-1.7-0.8v0.7H12.9z M9.7,58.3c0.4,0.6,0.9,1.5,1.1,2l-0.9,0.4c-0.2-0.5-0.6-1.4-1-2.1
				L9.7,58.3z M14.9,54.8c-0.9-0.5-1.8-1.2-2.5-1.9c-0.7,0.7-1.5,1.4-2.3,1.9H14.9z M13.8,60.4c0.4-0.6,0.9-1.4,1.1-2.1l1,0.4
				c-0.4,0.7-1,1.5-1.4,2L13.8,60.4z"/>
			<path class="st5" d="M7.2,64.5h5.6v0.9H7.2V64.5z M12.6,73.6c0,0.4-0.1,0.7-0.3,0.8c-0.3,0.1-0.7,0.1-1.3,0.1
				c0-0.2-0.1-0.6-0.3-0.8c0.4,0,0.7,0,0.8,0c0.1,0,0.2,0,0.2-0.2v-3.8H8.2v4.9H7.4v-5.8h5.2V73.6z M12.2,68.4H7.8v-2.4h4.5V68.4z
				 M10.3,72.2v2.1H9.6v-2.1h-1v-0.7H10c0.3-0.5,0.6-1.1,0.7-1.6l0.7,0.3c-0.2,0.4-0.5,0.9-0.7,1.3h0.7v0.7H10.3z M9.2,70
				c0.3,0.4,0.5,0.9,0.6,1.3l-0.6,0.2c-0.1-0.3-0.3-0.9-0.6-1.3L9.2,70z M11.2,66.7H8.7v0.9h2.6V66.7z M17,74.7
				c0-0.3-0.1-0.6-0.2-0.9c-1.3,0.3-2.6,0.5-3.7,0.7l-0.2-1c0.5-0.1,1.2-0.2,1.8-0.3v-2.4h-1.6v-4.5h1.6v-2.1h1v2.1h1.6v4.5h-1.6V73
				l0.9-0.1c-0.1-0.5-0.3-0.9-0.4-1.4l0.8-0.2c0.4,1,0.8,2.3,0.9,3.1L17,74.7z M13.9,69.8h0.9v-2.7h-0.9V69.8z M16.5,67.2h-0.9v2.7
				h0.9V67.2z"/>
		</g>
	</g>
</g>
</svg>
