<?xml version="1.0" encoding="utf-8"?>
<!-- Generator: Adobe Illustrator 26.3.1, SVG Export Plug-In . SVG Version: 6.00 Build 0)  -->
<svg version="1.1" id="圖層_2" xmlns="http://www.w3.org/2000/svg" xmlns:xlink="http://www.w3.org/1999/xlink" x="0px" y="0px"
	 viewBox="0 0 324.4 105.2" style="enable-background:new 0 0 324.4 105.2;" xml:space="preserve">
<style type="text/css">
	.st0{opacity:0.35;fill:#EEEEEE;stroke:#4D4949;stroke-width:0.5;stroke-miterlimit:10;}
	.st1{opacity:0.35;fill:#139811;}
	.st2{opacity:0.35;fill:#91CF50;}
	.st3{fill:#4E4949;}
	.st4{fill:#888888;}
</style>
<g>
	<rect class="st0" width="38" height="99.9"/>
	<g>
		<rect x="184.7" class="st1" width="139.5" height="42.6"/>
		<rect x="41.8" class="st2" width="139.5" height="42.6"/>
		<rect x="184.7" y="46.1" class="st2" width="139.5" height="53.8"/>
		<rect x="41.8" y="46.1" class="st1" width="139.5" height="53.8"/>
		<g>
			<g>
				<path class="st3" d="M52,17.5c-0.1,0.7-0.3,1.5-0.4,2c-0.1-0.1-0.4-0.1-0.6-0.2c0.2-0.5,0.3-1.3,0.4-2L52,17.5z M53.7,17
					c0-0.1-0.1-0.3-0.1-0.4c-1.8,0.3-2.1,0.3-2.2,0.4c0-0.2-0.2-0.5-0.3-0.7c0.2-0.1,0.4-0.3,0.7-0.6c0.1-0.1,0.4-0.5,0.6-0.9
					c-0.8,0.1-1,0.1-1.1,0.2c0-0.2-0.2-0.5-0.3-0.7c0.1,0,0.3-0.2,0.5-0.5c0.2-0.3,0.7-1.2,1-2.1l0.7,0.3c-0.3,0.8-0.8,1.6-1.2,2.2
					l0.8-0.1c0.2-0.4,0.5-0.8,0.7-1.2l0.7,0.4c-0.5,1-1.2,2-1.9,2.8l1.1-0.2c-0.1-0.3-0.2-0.5-0.3-0.8l0.5-0.2
					c0.2,0.5,0.5,1.3,0.6,1.7L53.7,17z M52.8,17.3c0.1,0.6,0.2,1.3,0.2,1.8l-0.6,0.2c0-0.5-0.1-1.3-0.2-1.9L52.8,17.3z M53.7,17.1
					c0.2,0.5,0.4,1.2,0.5,1.7l-0.6,0.2c-0.1-0.5-0.3-1.2-0.5-1.7L53.7,17.1z M58.7,19c-0.4-0.3-1.1-0.9-1.8-1.3v1.2
					c0,0.4-0.1,0.6-0.3,0.7c-0.2,0.1-0.6,0.1-1.1,0.1c0-0.2-0.1-0.5-0.2-0.7c0.3,0,0.6,0,0.7,0c0.1,0,0.1,0,0.1-0.1v-1.2
					c-0.6,0.4-1.1,0.8-1.6,1.2l-0.4-0.6c0.5-0.3,1.3-0.8,2-1.3v-1.4h-2.1v-0.7h3c0-0.2,0.1-0.3,0.1-0.5h-2.6
					c0.2-0.7,0.5-1.8,0.7-2.7l0.8,0.1c0,0.2-0.1,0.4-0.1,0.7h1.7l0.1,0l0.6,0.1c-0.1,0.7-0.3,1.7-0.5,2.4h1.3v0.7h-2.2v1.3l0.3,0.2
					c0.3-0.4,0.7-0.9,0.9-1.2l0.7,0.4c-0.3,0.4-0.7,0.9-1,1.2c0.6,0.4,1.1,0.7,1.4,1L58.7,19z M55.3,17.3c-0.2-0.3-0.7-0.7-1-1
					l0.4-0.4c0.3,0.3,0.8,0.7,1,1L55.3,17.3z M57.3,13.8c0.1-0.2,0.1-0.5,0.1-0.7h-1.7c-0.1,0.2-0.1,0.5-0.2,0.7H57.3z"/>
				<path class="st3" d="M66.7,18.8c0.8,0,1-0.2,1.1-1.3c0.2,0.1,0.6,0.2,0.8,0.3c-0.2,1.4-0.5,1.8-1.8,1.8h-3.2
					c-1.5,0-1.9-0.3-1.9-1.4v-3.5c-0.2,0.2-0.4,0.3-0.7,0.5c-0.1-0.2-0.3-0.6-0.4-0.8c1-0.6,2.1-1.7,2.7-2.8l0.7,0.3
					c-0.1,0.2-0.2,0.3-0.3,0.5h2.2l0.2,0l0.5,0.4c-0.3,0.4-0.7,0.9-1.1,1.3h2.3v3.2h-0.8v-0.3h-4.5v1.3c0,0.5,0.2,0.6,1.1,0.6H66.7z
					 M63.1,13.2c-0.3,0.3-0.5,0.7-0.8,1h2.2c0.3-0.3,0.6-0.6,0.8-1H63.1z M62.4,16.2h1.8v-1.3h-1.8V16.2z M66.9,14.9H65v1.3h1.9
					V14.9z"/>
				<path class="st3" d="M72.5,16.5c-0.1-0.3-0.3-0.7-0.5-1.1v4.3h-0.8V16c-0.3,0.8-0.6,1.6-0.9,2.1c-0.1-0.2-0.3-0.6-0.4-0.8
					c0.5-0.7,1-2,1.3-3.1h-1.1v-0.8h1.1v-1.6H72v1.6h0.9v0.8H72v0.3c0.2,0.3,0.9,1.3,1,1.5L72.5,16.5z M77.8,16.1
					c-0.3,0.6-0.8,1.2-1.3,1.7c0.6,0.4,1.2,1,1.5,1.4l-0.6,0.5c-0.3-0.4-0.9-0.9-1.5-1.4c-0.8,0.6-1.8,1.1-2.9,1.5
					c-0.1-0.2-0.3-0.5-0.5-0.7c2-0.6,3.7-1.8,4.4-3.3L77.8,16.1z M77.2,14.5c-0.8,1.4-2.1,2.6-3.7,3.3c-0.1-0.2-0.3-0.5-0.4-0.6
					c0.8-0.4,1.6-0.9,2.2-1.5c-1.4,0.1-1.7,0.2-1.9,0.2c0-0.2-0.2-0.6-0.2-0.7c0.2,0,0.5-0.1,0.6-0.3c0.1-0.2,0.6-0.8,0.9-1.3h-1.6
					v-0.7h2.2c-0.1-0.3-0.2-0.6-0.4-0.9l0.8-0.2c0.2,0.4,0.4,0.8,0.5,1.2h1.8v0.7h-2.4c-0.3,0.5-0.6,1-0.9,1.5l1.3-0.1
					c0.2-0.2,0.4-0.5,0.5-0.8L77.2,14.5z"/>
				<path class="st3" d="M82.1,12c-0.3,0.6-0.6,1.2-0.9,1.8v5.9h-0.8V15c-0.2,0.3-0.5,0.6-0.8,0.9c-0.1-0.2-0.3-0.6-0.5-0.8
					c0.8-0.8,1.7-2.1,2.1-3.3L82.1,12z M83.7,17.2c-0.4,0.7-0.9,1.6-1.4,2.1c-0.1-0.1-0.4-0.4-0.6-0.5c0.5-0.5,1-1.2,1.3-1.9
					L83.7,17.2z M85,16.6v3.1h-0.8v-3.1h-2.4v-0.7h2.4V15h-1.8v-2.9h4.5V15H85v0.9h2.4v0.7H85z M83.1,14.2h2.9v-1.4h-2.9V14.2z
					 M86,17c0.5,0.6,1.1,1.4,1.4,1.9l-0.7,0.4c-0.3-0.5-0.9-1.4-1.4-2L86,17z"/>
				<path class="st3" d="M51,31.3c1.6-1.4,2.3-2.4,2.3-3.3c0-0.6-0.3-1-0.9-1c-0.4,0-0.8,0.3-1.1,0.6L51,27.3
					c0.4-0.4,0.8-0.7,1.4-0.7c0.9,0,1.4,0.6,1.4,1.5c0,1-0.8,2-2,3.2c0.3,0,0.6,0,0.8,0h1.4v0.5H51V31.3z"/>
				<path class="st3" d="M55.3,29.2c0-1.7,0.6-2.6,1.5-2.6c0.9,0,1.5,0.8,1.5,2.6c0,1.7-0.6,2.6-1.5,2.6
					C55.9,31.8,55.3,30.9,55.3,29.2z M57.8,29.2c0-1.5-0.4-2.1-1-2.1c-0.6,0-1,0.7-1,2.1c0,1.5,0.4,2.1,1,2.1
					C57.4,31.3,57.8,30.6,57.8,29.2z"/>
				<path class="st3" d="M59.6,31.3c1.6-1.4,2.3-2.4,2.3-3.3c0-0.6-0.3-1-0.9-1c-0.4,0-0.8,0.3-1.1,0.6l-0.3-0.3
					c0.4-0.4,0.8-0.7,1.4-0.7c0.9,0,1.4,0.6,1.4,1.5c0,1-0.8,2-2,3.2c0.3,0,0.6,0,0.8,0h1.4v0.5h-3.1V31.3z"/>
				<path class="st3" d="M63.8,31.3c1.6-1.4,2.3-2.4,2.3-3.3c0-0.6-0.3-1-0.9-1c-0.4,0-0.8,0.3-1.1,0.6l-0.3-0.3
					c0.4-0.4,0.8-0.7,1.4-0.7c0.9,0,1.4,0.6,1.4,1.5c0,1-0.8,2-2,3.2c0.3,0,0.6,0,0.8,0h1.4v0.5h-3.1V31.3z"/>
				<path class="st3" d="M74.3,30.6h-2.5v1.6h-0.5v-1.6h-3.2v-0.4h1.1v-1.8h2v-1.1h-1.7c-0.3,0.5-0.7,1-1.1,1.4
					c-0.1-0.1-0.3-0.2-0.4-0.3c0.7-0.6,1.2-1.4,1.6-2.4l0.4,0.1c-0.1,0.3-0.2,0.5-0.3,0.7h4.1v0.4h-2.2v1.1h2v0.4h-2v1.4h2.5V30.6z
					 M71.3,30.2v-1.4h-1.6v1.4H71.3z"/>
				<path class="st3" d="M77.3,31.4c0.4,0.2,0.9,0.2,1.6,0.2c0.3,0,2.4,0,2.8,0c-0.1,0.1-0.2,0.3-0.2,0.4h-2.6
					c-1.5,0-2.3-0.2-2.8-1.2c-0.1,0.6-0.2,1-0.4,1.4c-0.1-0.1-0.3-0.2-0.4-0.2c0.4-0.7,0.5-1.8,0.5-3l0.4,0c0,0.3,0,0.7,0,1
					c0.2,0.5,0.4,0.9,0.7,1.1v-2.6h-1.4v-0.4h1.3v-0.9h-1.1v-0.4h1.1V26h0.4v0.8h1v0.4h-1v0.9h1.2v0.4h-1.1v1.1h1v0.4h-1V31.4z
					 M79.6,31.1c-0.6,0-0.8-0.2-0.8-0.8v-4h2.5v2.4h-2.1v1.6c0,0.3,0.1,0.4,0.4,0.4h1.3c0.3,0,0.4-0.2,0.4-1
					c0.1,0.1,0.3,0.1,0.4,0.2c-0.1,0.9-0.2,1.2-0.8,1.2H79.6z M79.2,26.7v1.6h1.6v-1.6H79.2z"/>
				<path class="st3" d="M85.1,26.4c-0.2,0.5-0.5,1.2-0.7,1.8c0.5,0.6,0.6,1.1,0.6,1.5c0,0.3-0.1,0.6-0.3,0.8
					c-0.1,0.1-0.2,0.1-0.3,0.1c-0.1,0-0.3,0-0.5,0c0-0.1,0-0.3-0.1-0.4c0.2,0,0.3,0,0.4,0c0.1,0,0.2,0,0.2-0.1
					c0.1-0.1,0.1-0.3,0.1-0.5c0-0.4-0.1-0.8-0.6-1.4c0.2-0.5,0.4-1.1,0.6-1.5h-1v5.5h-0.4v-5.9h1.6l0.1,0L85.1,26.4z M88.9,29.8
					c-0.3,0.3-0.8,0.6-1.2,0.8c0.3,0.5,0.8,0.9,1.4,1.1c-0.1,0.1-0.2,0.3-0.3,0.4c-1.1-0.5-1.7-1.5-2.1-2.9h-0.7v2.3l1.2-0.3
					c0,0.1,0,0.3,0,0.4c-1.4,0.4-1.6,0.5-1.7,0.5c0-0.1-0.1-0.3-0.2-0.4c0.1-0.1,0.2-0.2,0.2-0.5v-5.1h3v2.9H87
					c0.1,0.4,0.2,0.7,0.4,1.1c0.4-0.2,0.8-0.6,1.1-0.8L88.9,29.8z M85.9,26.7v0.9H88v-0.9H85.9z M85.9,28.8H88v-0.9h-2.1V28.8z"/>
				<path class="st3" d="M92.3,28.1h1.7v0.4h-1.7v0.7h1.4v1.9c0,0.2,0,0.3-0.2,0.4c-0.1,0.1-0.4,0.1-0.8,0.1c0-0.1-0.1-0.3-0.1-0.4
					c0.3,0,0.5,0,0.6,0c0.1,0,0.1,0,0.1-0.1v-1.5h-1v2.5h-0.4v-2.5h-0.9v1.9h-0.4v-2.3h1.4v-0.7h-1.7v-0.4h1.7v-0.8h-0.9
					c-0.1,0.3-0.2,0.5-0.4,0.7c-0.1-0.1-0.3-0.1-0.4-0.2c0.3-0.5,0.5-1.1,0.7-1.8l0.4,0.1c-0.1,0.2-0.1,0.5-0.2,0.7h0.8v-1h0.4v1
					h1.4v0.4h-1.4V28.1z M94.9,30.3h-0.4v-3.7h0.4V30.3z M96.1,26.1v5.5c0,0.3-0.1,0.5-0.3,0.5c-0.2,0.1-0.6,0.1-1.1,0.1
					c0-0.1-0.1-0.3-0.1-0.5c0.4,0,0.8,0,0.9,0c0.1,0,0.1,0,0.1-0.2v-5.5H96.1z"/>
				<path class="st3" d="M103.5,26.7v0.4h-5.9v-0.4h2.8c-0.1-0.2-0.1-0.4-0.2-0.6l0.4-0.1c0.1,0.2,0.2,0.5,0.3,0.7H103.5z
					 M103.3,31.7c0,0.2-0.1,0.3-0.2,0.4c-0.2,0.1-0.4,0.1-0.9,0.1c0-0.1-0.1-0.2-0.1-0.3c0.3,0,0.6,0,0.7,0c0.1,0,0.1,0,0.1-0.1
					v-2.1h-4.5v2.5h-0.4v-2.9h5.4V31.7z M102.5,27.5v1.3h-3.9v-1.3H102.5z M102.1,27.9h-3v0.7h3V27.9z M101.9,31.4h-2.4v0.3h-0.4
					v-1.7h2.8V31.4z M99.5,30.4v0.7h2v-0.7H99.5z"/>
				<path class="st3" d="M106,28.9c-0.3-0.2-0.8-0.5-1.2-0.7l0.2-0.3c0.4,0.2,1,0.5,1.3,0.7L106,28.9z M105,31.8
					c0.3-0.5,0.8-1.4,1.2-2.2l0.3,0.3c-0.3,0.7-0.8,1.6-1.2,2.2L105,31.8z M105.4,26.1c0.4,0.2,1,0.5,1.2,0.7l-0.3,0.4
					c-0.3-0.2-0.8-0.6-1.2-0.8L105.4,26.1z M111,29h-1.9v2.5c0,0.3-0.1,0.5-0.3,0.6c-0.2,0.1-0.6,0.1-1.2,0.1c0-0.1-0.1-0.4-0.2-0.5
					c0.5,0,0.9,0,1,0c0.1,0,0.2,0,0.2-0.2V29h-1.9v-0.4h1.9v-1.7H107v-0.4h3.8v0.4h-1.7v1.7h1.9V29z"/>
				<path class="st3" d="M114.6,30.4c-0.5,0.7-1.4,1.2-2.2,1.5c-0.1-0.1-0.2-0.3-0.3-0.4c0.8-0.2,1.7-0.7,2.2-1.3L114.6,30.4z
					 M113.3,27.8c-0.3-0.2-0.8-0.4-1.1-0.5l0.2-0.3c0.4,0.1,0.9,0.3,1.2,0.5L113.3,27.8z M115.5,30.1v2.1H115v-2.1h-2.8v-0.4h2.8V29
					h0.5v0.7h2.8v0.4H115.5z M112.4,29.1c0.3-0.3,0.8-0.8,1.2-1.2l0.3,0.3c-0.4,0.4-0.8,0.9-1.2,1.3L112.4,29.1z M113.8,26.9
					c-0.3-0.2-0.8-0.4-1.2-0.5l0.2-0.3c0.4,0.1,0.9,0.3,1.2,0.5L113.8,26.9z M115.7,27.2c-0.2,1.1-0.7,1.7-1.7,2.1
					c-0.1-0.1-0.2-0.3-0.3-0.3c0.9-0.3,1.4-0.9,1.6-1.8h-1.1v-0.4h1.1c0-0.2,0-0.5,0.1-0.8l0.5,0c0,0.3,0,0.5-0.1,0.8h1.4v1.7
					c0,0.1,0,0.2,0.1,0.3c0,0,0.1,0,0.1,0h0.3c0.1,0,0.2,0,0.2,0c0,0,0.1-0.1,0.1-0.2c0-0.1,0-0.4,0-0.7c0.1,0.1,0.3,0.2,0.4,0.2
					c0,0.3,0,0.6-0.1,0.8s-0.1,0.2-0.2,0.2c-0.1,0-0.2,0.1-0.4,0.1h-0.4c-0.1,0-0.3,0-0.4-0.1c-0.1-0.1-0.1-0.2-0.1-0.6v-1.3H115.7z
					 M116.1,30.2c0.7,0.4,1.7,1,2.1,1.4L118,32c-0.4-0.4-1.3-1.1-2.1-1.5L116.1,30.2z"/>
				<path class="st3" d="M121.7,27.6c-0.2,0.4-0.5,0.7-0.8,1v3.6h-0.4v-3.1c-0.3,0.3-0.5,0.5-0.8,0.7c-0.1-0.1-0.2-0.3-0.3-0.4
					c0.7-0.5,1.4-1.3,1.9-2.1L121.7,27.6z M121.5,26.2c-0.4,0.6-1.1,1.2-1.7,1.7c-0.1-0.1-0.2-0.3-0.3-0.4c0.6-0.4,1.2-1,1.6-1.5
					L121.5,26.2z M125.6,28.7h-1v2.9c0,0.3-0.1,0.4-0.3,0.5c-0.2,0.1-0.6,0.1-1.3,0.1c0-0.1-0.1-0.3-0.1-0.4c0.5,0,1,0,1.1,0
					c0.1,0,0.2,0,0.2-0.1v-2.9h-2.3v-0.4h3.8V28.7z M125.4,26.8h-3.3v-0.4h3.3V26.8z"/>
				<path class="st3" d="M129.3,31.1c-0.5,0.4-1.4,0.7-2.1,0.9c-0.1-0.1-0.2-0.3-0.3-0.3c0.7-0.1,1.6-0.4,2-0.7L129.3,31.1z
					 M132.9,30.2v0.4h-2.7v1.6h-0.4v-1.6H127v-0.4h2.7v-0.5h-2.1v-0.4h2.1v-0.5h-2.4v-0.4h1.5c-0.1-0.2-0.2-0.5-0.4-0.7l0.4-0.1H127
					v-0.4h1.1c-0.1-0.3-0.3-0.7-0.6-1l0.4-0.1c0.2,0.3,0.5,0.7,0.6,1l-0.4,0.1h0.9V26h0.4v1.2h0.9V26h0.4v1.2h0.9l-0.3-0.1
					c0.2-0.3,0.4-0.7,0.5-1l0.5,0.1c-0.2,0.4-0.4,0.7-0.6,1h1.1v0.4h-1.8l0.4,0.1c-0.2,0.2-0.3,0.5-0.5,0.7h1.6v0.4h-2.5v0.5h2.1
					v0.4h-2.1v0.5H132.9z M128.9,27.6c0.2,0.2,0.3,0.5,0.4,0.7l-0.3,0.1h1.9l-0.2-0.1c0.1-0.2,0.3-0.5,0.4-0.7H128.9z M130.9,30.9
					c0.7,0.2,1.5,0.5,2,0.8l-0.3,0.3c-0.5-0.2-1.3-0.6-2-0.8L130.9,30.9z"/>
				<path class="st3" d="M136.2,27.8c-0.3,1.7-0.9,3-1.7,3.7c-0.1-0.1-0.2-0.3-0.3-0.3c0.7-0.6,1.3-1.7,1.5-3.1h-1.3v-0.4h1.5l0.1,0
					L136.2,27.8z M137.5,30.3h1.2v0.4h-1.2v0.8c0,0.3-0.1,0.4-0.3,0.5c-0.2,0.1-0.6,0.1-1.2,0.1c0-0.1-0.1-0.3-0.2-0.4
					c0.5,0,0.9,0,1,0c0.1,0,0.2,0,0.2-0.2v-0.8h-1.3v-0.4h1.3v-0.7h-1v-0.4h1v-0.6h-0.8v-0.4h0.8v-0.6c0.5-0.2,1-0.5,1.4-0.9h-3.3
					v-0.4h3.7l0.1,0l0.3,0.2c-0.5,0.5-1.2,1-1.9,1.3v0.4h0.8v0.4h-0.8v0.6h0.9v0.4h-0.9V30.3z M140.1,27.7c-0.3,0.3-0.7,0.7-1.1,0.9
					c0.2,1.1,0.7,2.1,1.4,2.6c-0.1,0.1-0.2,0.3-0.3,0.4c-0.8-0.6-1.2-1.8-1.5-3.1c0.4-0.3,0.9-0.7,1.2-1.1L140.1,27.7z"/>
				<path class="st3" d="M143.5,26.1c-0.2,0.5-0.4,1-0.7,1.4v4.6h-0.4v-3.9c-0.2,0.3-0.5,0.6-0.8,0.9c0-0.1-0.2-0.3-0.3-0.4
					c0.7-0.6,1.3-1.7,1.7-2.7L143.5,26.1z M144.8,30.2c-0.3,0.6-0.8,1.2-1.2,1.7c-0.1-0.1-0.3-0.2-0.4-0.3c0.4-0.4,0.8-1,1.1-1.5
					L144.8,30.2z M145.7,29.7v2.5h-0.5v-2.5h-2v-0.4h2v-0.8h-1.5v-2.1h3.5v2.1h-1.5v0.8h1.9v0.4H145.7z M144.2,28h2.6v-1.3h-2.6V28z
					 M146.5,30c0.5,0.5,1,1.1,1.2,1.5l-0.4,0.2c-0.2-0.4-0.7-1.1-1.2-1.6L146.5,30z"/>
				<path class="st3" d="M152.3,28.2c0,0.1-0.1,0.1-0.1,0.2c0.8,0.9,1.7,1.4,2.8,1.9c-0.1,0.1-0.2,0.3-0.3,0.4
					c-0.3-0.1-0.6-0.3-0.9-0.4v2h-0.5v-0.2h-2.9v0.2h-0.4v-2c-0.3,0.2-0.6,0.3-0.9,0.5c-0.1-0.1-0.2-0.3-0.3-0.4
					c1.2-0.5,2.4-1.3,3.1-2.3L152.3,28.2z M149.6,27.8h-0.4v-1.2h2.7c-0.1-0.2-0.2-0.4-0.3-0.6l0.5-0.1c0.1,0.2,0.3,0.5,0.4,0.7h2.4
					v1.2h-0.5V27h-4.7V27.8z M151.2,27.5c-0.5,0.6-1.1,1.1-1.8,1.5c-0.1-0.1-0.2-0.3-0.3-0.3c0.6-0.3,1.3-0.8,1.7-1.3L151.2,27.5z
					 M153.4,31.5v-1.2h-2.9v1.2H153.4z M153.5,29.9c-0.6-0.3-1.1-0.8-1.5-1.3c-0.4,0.5-0.9,0.9-1.4,1.3H153.5z M152.8,27.4
					c0.6,0.4,1.4,0.9,1.8,1.3l-0.3,0.3c-0.4-0.4-1.1-1-1.8-1.4L152.8,27.4z"/>
				<path class="st3" d="M162.3,31.7V32h-6.1v-0.4h2.8v-0.4h-2.3v-0.3h2.3v-0.4H157v-1.7h4.7v1.7h-2.2v0.4h2.3v0.3h-2.3v0.4H162.3z
					 M162.3,28.5h-6v-0.3h6V28.5z M161.4,27.8h-4.3v-1.6h4.3V27.8z M157.4,29.5h1.6v-0.4h-1.6V29.5z M159,30.2v-0.4h-1.6v0.4H159z
					 M161,26.5h-3.5v0.4h3.5V26.5z M161,27.2h-3.5v0.4h3.5V27.2z M161.2,29.1h-1.7v0.4h1.7V29.1z M161.2,29.8h-1.7v0.4h1.7V29.8z"/>
			</g>
		</g>
		<g>
			<g>
				<path class="st3" d="M196.2,17.5c-0.1,0.7-0.3,1.5-0.4,2c-0.1-0.1-0.4-0.1-0.6-0.2c0.2-0.5,0.3-1.3,0.4-2L196.2,17.5z M197.8,17
					c0-0.1-0.1-0.3-0.1-0.4c-1.8,0.3-2.1,0.3-2.2,0.4c0-0.2-0.2-0.5-0.3-0.7c0.2-0.1,0.4-0.3,0.7-0.6c0.1-0.1,0.4-0.5,0.6-0.9
					c-0.8,0.1-1,0.1-1.1,0.2c0-0.2-0.2-0.5-0.3-0.7c0.1,0,0.3-0.2,0.5-0.5c0.2-0.3,0.7-1.2,1-2.1l0.7,0.3c-0.3,0.8-0.8,1.6-1.2,2.2
					l0.8-0.1c0.2-0.4,0.5-0.8,0.7-1.2l0.7,0.4c-0.5,1-1.2,2-1.9,2.8l1.1-0.2c-0.1-0.3-0.2-0.5-0.3-0.8l0.5-0.2
					c0.2,0.5,0.5,1.3,0.6,1.7L197.8,17z M197,17.3c0.1,0.6,0.2,1.3,0.2,1.8l-0.6,0.2c0-0.5-0.1-1.3-0.2-1.9L197,17.3z M197.9,17.1
					c0.2,0.5,0.4,1.2,0.5,1.7l-0.6,0.2c-0.1-0.5-0.3-1.2-0.5-1.7L197.9,17.1z M202.9,19c-0.4-0.3-1.1-0.9-1.8-1.3v1.2
					c0,0.4-0.1,0.6-0.3,0.7c-0.2,0.1-0.6,0.1-1.1,0.1c0-0.2-0.1-0.5-0.2-0.7c0.3,0,0.6,0,0.7,0c0.1,0,0.1,0,0.1-0.1v-1.2
					c-0.6,0.4-1.1,0.8-1.6,1.2l-0.4-0.6c0.5-0.3,1.3-0.8,2-1.3v-1.4h-2.1v-0.7h3c0-0.2,0.1-0.3,0.1-0.5h-2.6
					c0.2-0.7,0.5-1.8,0.7-2.7l0.8,0.1c0,0.2-0.1,0.4-0.1,0.7h1.7l0.1,0l0.6,0.1c-0.1,0.7-0.3,1.7-0.5,2.4h1.3v0.7h-2.2v1.3l0.3,0.2
					c0.3-0.4,0.7-0.9,0.9-1.2l0.7,0.4c-0.3,0.4-0.7,0.9-1,1.2c0.6,0.4,1.1,0.7,1.4,1L202.9,19z M199.5,17.3c-0.2-0.3-0.7-0.7-1-1
					l0.4-0.4c0.3,0.3,0.8,0.7,1,1L199.5,17.3z M201.5,13.8c0.1-0.2,0.1-0.5,0.1-0.7h-1.7c-0.1,0.2-0.1,0.5-0.2,0.7H201.5z"/>
				<path class="st3" d="M210.9,18.8c0.8,0,1-0.2,1.1-1.3c0.2,0.1,0.6,0.2,0.8,0.3c-0.2,1.4-0.5,1.8-1.8,1.8h-3.2
					c-1.5,0-1.9-0.3-1.9-1.4v-3.5c-0.2,0.2-0.4,0.3-0.7,0.5c-0.1-0.2-0.3-0.6-0.4-0.8c1-0.6,2.1-1.7,2.7-2.8l0.7,0.3
					c-0.1,0.2-0.2,0.3-0.3,0.5h2.2l0.2,0l0.5,0.4c-0.3,0.4-0.7,0.9-1.1,1.3h2.3v3.2H211v-0.3h-4.5v1.3c0,0.5,0.2,0.6,1.1,0.6H210.9z
					 M207.3,13.2c-0.3,0.3-0.5,0.7-0.8,1h2.2c0.3-0.3,0.6-0.6,0.8-1H207.3z M206.5,16.2h1.8v-1.3h-1.8V16.2z M211,14.9h-1.9v1.3h1.9
					V14.9z"/>
				<path class="st3" d="M216.9,16.2c-0.3,0.1-0.6,0.2-0.8,0.2v2.3c0,0.4-0.1,0.6-0.3,0.7c-0.3,0.1-0.6,0.1-1.2,0.1
					c0-0.2-0.1-0.5-0.2-0.7c0.4,0,0.8,0,0.9,0c0.1,0,0.2,0,0.2-0.2v-2.1l-1,0.3l-0.2-0.8c0.3-0.1,0.8-0.2,1.2-0.3v-1.7h-1.1v-0.8
					h1.1v-1.7h0.8v1.7h1v0.8h-1v1.5l0.7-0.2L216.9,16.2z M221.6,15.7c-0.3,1.1-0.9,1.9-1.6,2.5c0.6,0.4,1.4,0.6,2.2,0.8
					c-0.2,0.2-0.4,0.5-0.5,0.8c-0.9-0.2-1.7-0.6-2.4-1c-0.7,0.5-1.6,0.8-2.5,1c-0.1-0.2-0.3-0.6-0.4-0.7c0.8-0.2,1.6-0.4,2.2-0.8
					c-0.6-0.5-1-1.1-1.3-1.9l0.2-0.1H217v-0.8h3.8l0.1,0L221.6,15.7z M218.6,13c0,0.8-0.2,1.8-1.4,2.4c-0.1-0.2-0.4-0.5-0.5-0.6
					c1-0.5,1.1-1.2,1.1-1.8V12h2.9v2c0,0.2,0,0.3,0.2,0.3h0.6c0.1,0,0.3,0,0.5-0.1c0,0.2,0,0.5,0.1,0.7c-0.1,0-0.3,0.1-0.5,0.1h-0.7
					c-0.7,0-0.9-0.3-0.9-1v-1.2h-1.3V13z M218.1,16.3c0.3,0.6,0.7,1.1,1.2,1.5c0.5-0.4,0.9-0.9,1.2-1.5H218.1z"/>
				<path class="st3" d="M229,13c0,0.1,0,0.1,0,0.2c0.5,0.5,1.4,0.8,2.6,0.8c-0.2,0.2-0.4,0.5-0.4,0.7c-1-0.1-1.8-0.5-2.3-1
					c-0.3,0.4-1,0.8-2.5,1c-0.1-0.2-0.3-0.5-0.4-0.6h-2.2v-0.6h2.5v0.6c1.9-0.2,2.1-0.7,2.1-1.1v-0.1h-0.7c-0.2,0.3-0.4,0.6-0.6,0.8
					c-0.1-0.1-0.4-0.3-0.6-0.4c0.5-0.4,0.8-1,1-1.6l0.7,0.2c-0.1,0.1-0.1,0.3-0.2,0.4h2.7l0.1,0l0.6,0.2c-0.2,0.5-0.5,1-0.8,1.3
					l-0.6-0.2c0.1-0.2,0.2-0.4,0.4-0.6H229V13z M228.9,18.3c0.9,0.3,1.9,0.7,2.5,1l-0.7,0.4c-0.5-0.3-1.5-0.7-2.4-1l0.5-0.4h-2.6
					l0.7,0.3c-0.7,0.4-1.8,0.8-2.7,1.1c-0.1-0.2-0.4-0.5-0.6-0.6c0.9-0.2,1.9-0.5,2.5-0.8h-1.4v-3.5h5.7v3.5H228.9z M226,12.8h-2.1
					v-0.6h2.1V12.8z M225.5,15.8h4.1v-0.5h-4.1V15.8z M225.5,16.8h4.1v-0.5h-4.1V16.8z M225.5,17.8h4.1v-0.5h-4.1V17.8z"/>
				<path class="st3" d="M195.2,31.3c1.6-1.4,2.3-2.4,2.3-3.3c0-0.6-0.3-1-0.9-1c-0.4,0-0.8,0.3-1.1,0.6l-0.3-0.3
					c0.4-0.4,0.8-0.7,1.4-0.7c0.9,0,1.4,0.6,1.4,1.5c0,1-0.8,2-2,3.2c0.3,0,0.6,0,0.8,0h1.4v0.5h-3.1V31.3z"/>
				<path class="st3" d="M199.5,29.2c0-1.7,0.6-2.6,1.5-2.6c0.9,0,1.5,0.8,1.5,2.6c0,1.7-0.6,2.6-1.5,2.6
					C200.1,31.8,199.5,30.9,199.5,29.2z M202,29.2c0-1.5-0.4-2.1-1-2.1c-0.6,0-1,0.7-1,2.1c0,1.5,0.4,2.1,1,2.1
					C201.6,31.3,202,30.6,202,29.2z"/>
				<path class="st3" d="M203.7,31.3c1.6-1.4,2.3-2.4,2.3-3.3c0-0.6-0.3-1-0.9-1c-0.4,0-0.8,0.3-1.1,0.6l-0.3-0.3
					c0.4-0.4,0.8-0.7,1.4-0.7c0.9,0,1.4,0.6,1.4,1.5c0,1-0.8,2-2,3.2c0.3,0,0.6,0,0.8,0h1.4v0.5h-3.1V31.3z"/>
				<path class="st3" d="M208,31.3c1.6-1.4,2.3-2.4,2.3-3.3c0-0.6-0.3-1-0.9-1c-0.4,0-0.8,0.3-1.1,0.6l-0.3-0.3
					c0.4-0.4,0.8-0.7,1.4-0.7c0.9,0,1.4,0.6,1.4,1.5c0,1-0.8,2-2,3.2c0.3,0,0.6,0,0.8,0h1.4v0.5H208V31.3z"/>
				<path class="st3" d="M218.4,30.6h-2.5v1.6h-0.5v-1.6h-3.2v-0.4h1.1v-1.8h2v-1.1h-1.7c-0.3,0.5-0.7,1-1.1,1.4
					c-0.1-0.1-0.3-0.2-0.4-0.3c0.7-0.6,1.2-1.4,1.6-2.4l0.4,0.1c-0.1,0.3-0.2,0.5-0.3,0.7h4.1v0.4h-2.2v1.1h2v0.4h-2v1.4h2.5V30.6z
					 M215.5,30.2v-1.4h-1.6v1.4H215.5z"/>
				<path class="st3" d="M221.5,31.4c0.4,0.2,0.9,0.2,1.6,0.2c0.3,0,2.4,0,2.8,0c-0.1,0.1-0.2,0.3-0.2,0.4h-2.6
					c-1.5,0-2.3-0.2-2.8-1.2c-0.1,0.6-0.2,1-0.4,1.4c-0.1-0.1-0.3-0.2-0.4-0.2c0.4-0.7,0.5-1.8,0.5-3l0.4,0c0,0.3,0,0.7,0,1
					c0.2,0.5,0.4,0.9,0.7,1.1v-2.6h-1.4v-0.4h1.3v-0.9h-1.1v-0.4h1.1V26h0.4v0.8h1v0.4h-1v0.9h1.2v0.4h-1.1v1.1h1v0.4h-1V31.4z
					 M223.7,31.1c-0.6,0-0.8-0.2-0.8-0.8v-4h2.5v2.4h-2.1v1.6c0,0.3,0.1,0.4,0.4,0.4h1.3c0.3,0,0.4-0.2,0.4-1
					c0.1,0.1,0.3,0.1,0.4,0.2c-0.1,0.9-0.2,1.2-0.8,1.2H223.7z M223.3,26.7v1.6h1.6v-1.6H223.3z"/>
				<path class="st3" d="M228.4,29.6v2c0,0.3-0.1,0.4-0.2,0.5c-0.2,0.1-0.4,0.1-0.9,0.1c0-0.1-0.1-0.3-0.1-0.4c0.3,0,0.6,0,0.7,0
					c0.1,0,0.1,0,0.1-0.1v-1.8c-0.3,0.1-0.6,0.2-0.9,0.3l-0.1-0.4c0.3-0.1,0.6-0.2,1-0.3v-1.5H227v-0.4h0.9V26h0.4v1.4h0.9v0.4h-0.9
					v1.4c0.2-0.1,0.4-0.1,0.7-0.2l0.1,0.4L228.4,29.6z M232.6,29.1c-0.3,0.8-0.8,1.5-1.3,1.9c0.5,0.3,1.1,0.6,1.8,0.7
					c-0.1,0.1-0.2,0.3-0.3,0.4c-0.7-0.2-1.4-0.5-1.9-0.9c-0.6,0.4-1.3,0.7-2,0.9c0-0.1-0.1-0.3-0.2-0.4c0.7-0.1,1.3-0.4,1.9-0.8
					c-0.5-0.4-0.9-1-1.1-1.6l0,0h-0.2V29h3.1l0.1,0L232.6,29.1z M230.3,27c0,0.6-0.2,1.3-1,1.8c-0.1-0.1-0.2-0.3-0.3-0.3
					c0.7-0.4,0.9-1,0.9-1.5v-0.7h2.1v1.6c0,0.2,0,0.3,0.1,0.3h0.6c0.1,0,0.2,0,0.3,0c0,0.1,0,0.3,0,0.4c-0.1,0-0.2,0-0.4,0h-0.6
					c-0.4,0-0.5-0.2-0.5-0.7v-1.1h-1.2V27z M229.8,29.4c0.2,0.5,0.6,1,1.1,1.4c0.5-0.4,0.8-0.8,1.1-1.4H229.8z"/>
				<path class="st3" d="M236.3,27.8h-1.9v-0.4h1.9V27.8z M236.8,31.4c-0.6,0.3-1.4,0.6-2.1,0.8c-0.1-0.1-0.2-0.3-0.3-0.3
					c0.7-0.1,1.5-0.4,2-0.7L236.8,31.4z M236.1,26.8h-1.6v-0.4h1.6V26.8z M239.6,31.1h-4.4v-2.7h4.4V31.1z M239.2,28.7h-3.5v0.5h3.5
					V28.7z M239.2,29.5h-3.5V30h3.5V29.5z M239.2,30.3h-3.5v0.5h3.5V30.3z M238.5,26.9c0,0.1,0,0.2,0,0.3c0.3,0.4,1.1,0.7,2,0.8
					c-0.1,0.1-0.2,0.3-0.3,0.4c-0.8-0.1-1.4-0.4-1.9-0.8c-0.2,0.3-0.7,0.7-2,0.8c0-0.1-0.2-0.3-0.2-0.3c1.8-0.3,1.9-0.7,1.9-1.1
					v-0.1h-0.8c-0.1,0.3-0.3,0.5-0.5,0.7c-0.1-0.1-0.2-0.2-0.3-0.2c0.3-0.3,0.6-0.8,0.8-1.3l0.4,0.1c0,0.1-0.1,0.3-0.1,0.4h2.3
					l0.1,0l0.3,0.1c-0.2,0.3-0.4,0.7-0.6,1l-0.4-0.1c0.1-0.1,0.2-0.4,0.3-0.6L238.5,26.9L238.5,26.9z M238.4,31.2
					c0.7,0.2,1.5,0.5,2,0.7l-0.4,0.3c-0.4-0.2-1.2-0.5-1.9-0.7L238.4,31.2z"/>
				<path class="st3" d="M243.7,29.6c-0.1-0.2-0.3-0.6-0.5-1v3.5h-0.4v-3.5c-0.2,0.8-0.6,1.6-0.9,2.1c0-0.1-0.2-0.3-0.2-0.4
					c0.4-0.6,0.9-1.7,1.1-2.6h-0.9v-0.4h1V26h0.4v1.3h0.8v0.4h-0.8v0.4c0.2,0.2,0.7,1,0.8,1.2L243.7,29.6z M245,30.7
					c-0.3,0.5-0.6,0.9-1,1.2c-0.1-0.1-0.3-0.2-0.4-0.2c0.4-0.3,0.7-0.7,1-1.1L245,30.7z M245.1,26.7h-1.2v-0.4h3.8v0.4h-1.2v0.5h1.1
					v1.6h-3.5v-1.6h1V26.7z M246,30.4v1.8h-0.4v-1.8h-1.6V30h3.8v0.4H246z M244.3,29.5v-0.4h2.9v0.4H244.3z M244.4,28.4h0.7v-0.9
					h-0.7V28.4z M246.1,26.7h-0.7v0.5h0.7V26.7z M245.4,28.4h0.7v-0.9h-0.7V28.4z M246.4,27.5v0.9h0.7v-0.9H246.4z M246.8,30.6
					c0.4,0.3,0.8,0.8,0.9,1.1l-0.4,0.2c-0.2-0.3-0.6-0.8-0.9-1.1L246.8,30.6z"/>
				<path class="st3" d="M250.8,26.1c-0.1,0.3-0.2,0.7-0.4,1h1.1v4.4h-1.9V32h-0.4v-4.9h0.8c0.1-0.3,0.2-0.8,0.3-1.1L250.8,26.1z
					 M251.2,27.5h-1.5V29h1.5V27.5z M251.2,31.1v-1.7h-1.5v1.7H251.2z M254.9,27.3c-0.1,3.1-0.2,4.2-0.5,4.5
					c-0.1,0.2-0.3,0.2-0.5,0.3c-0.2,0-0.6,0-1,0c0-0.1-0.1-0.3-0.1-0.4c0.4,0,0.8,0,1,0c0.1,0,0.2,0,0.3-0.1c0.2-0.2,0.3-1.3,0.4-4
					h-1.8c-0.2,0.5-0.4,0.9-0.6,1.2c-0.1-0.1-0.3-0.2-0.4-0.3c0.5-0.6,0.8-1.5,1-2.5l0.4,0.1c-0.1,0.3-0.2,0.7-0.3,1h2.1V27.3z
					 M253.5,30.4c-0.2-0.4-0.7-1.1-1.1-1.6l0.3-0.2c0.4,0.5,0.9,1.1,1.1,1.5L253.5,30.4z"/>
				<path class="st3" d="M256.7,26.7h2.8v0.5h-2.3v1.6h1.9v0.5h-1.9v1.9h2.3v0.5h-2.9V26.7z"/>
				<path class="st3" d="M260.8,31l0.3-0.4c0.4,0.4,0.9,0.6,1.4,0.6c0.7,0,1.1-0.3,1.1-0.9c0-0.5-0.4-0.7-0.8-0.9l-0.7-0.3
					c-0.5-0.2-1-0.5-1-1.3c0-0.8,0.7-1.3,1.5-1.3c0.6,0,1.1,0.3,1.4,0.6l-0.3,0.4c-0.3-0.3-0.7-0.5-1.1-0.5c-0.6,0-1,0.3-1,0.8
					c0,0.5,0.4,0.7,0.8,0.9l0.7,0.3c0.6,0.3,1,0.6,1,1.3c0,0.8-0.6,1.4-1.7,1.4C261.9,31.8,261.3,31.5,260.8,31z"/>
				<path class="st3" d="M265.5,29.2c0-1.6,0.9-2.6,2.3-2.6c0.7,0,1.1,0.3,1.4,0.6l-0.3,0.4c-0.3-0.3-0.6-0.5-1.1-0.5
					c-1,0-1.7,0.8-1.7,2.1c0,1.3,0.6,2.1,1.7,2.1c0.4,0,0.7-0.1,0.9-0.3v-1.4h-1.1v-0.5h1.6v2.1c-0.3,0.3-0.9,0.6-1.5,0.6
					C266.4,31.8,265.5,30.8,265.5,29.2z"/>
				<path class="st3" d="M270.7,26.4h3.4v0.4h-1.8c-0.1,0.4-0.2,0.7-0.3,1.1h1.6l0.1,0l0.3,0.1c-0.3,2.3-1.4,3.6-2.8,4.3
					c-0.1-0.1-0.2-0.3-0.3-0.4c0.7-0.3,1.3-0.8,1.8-1.4c-0.3-0.3-0.8-0.7-1.3-1c-0.1,0.2-0.2,0.3-0.3,0.5c-0.1-0.1-0.2-0.3-0.3-0.4
					c0.5-0.6,0.9-1.6,1.2-2.7h-1.1V26.4z M271.8,28.3c-0.1,0.2-0.2,0.5-0.3,0.7c0.5,0.3,1,0.7,1.3,1c0.3-0.5,0.5-1.1,0.6-1.7H271.8z
					 M275.1,30.6h-0.4v-3.8h0.4V30.6z M276.5,26v5.6c0,0.3-0.1,0.4-0.3,0.5c-0.2,0.1-0.5,0.1-1,0.1c0-0.1-0.1-0.3-0.2-0.4
					c0.4,0,0.7,0,0.8,0c0.1,0,0.1,0,0.1-0.1V26H276.5z"/>
				<path class="st3" d="M283.9,29.6c0,0,0,0.1,0,0.2c-0.1,1.4-0.3,2-0.5,2.2c-0.1,0.1-0.2,0.2-0.4,0.2c-0.2,0-0.5,0-0.8,0
					c0-0.1,0-0.3-0.1-0.4c0.3,0,0.7,0,0.8,0c0.1,0,0.2,0,0.2-0.1c0.1-0.1,0.3-0.6,0.4-1.7h-4.1c-0.4,0.3-0.8,0.6-1.2,0.8
					c-0.1-0.1-0.2-0.3-0.2-0.4c1.3-0.7,2.2-1.7,2.9-2.9h-2.5v-0.4h1.4c-0.1-0.3-0.3-0.7-0.5-1l0.4-0.1c0.2,0.3,0.5,0.7,0.6,1
					l-0.4,0.2h1.2c0.2-0.4,0.4-0.8,0.5-1.2l0.4,0.1c-0.1,0.4-0.3,0.7-0.4,1.1h1.4c-0.1,0.4-0.1,0.9-0.2,1.2h0.8
					c-0.1,0.4-0.1,0.9-0.2,1.2H283.9z M278.2,31.9c0.4-0.3,0.7-0.9,0.8-1.4l0.4,0.1c-0.1,0.6-0.4,1.2-0.8,1.5L278.2,31.9z
					 M282.8,29.6c0-0.2,0.1-0.5,0.1-0.8h-2.5c-0.2,0.3-0.5,0.6-0.7,0.8H282.8z M280.3,30.6c0.1,0.4,0.2,0.9,0.2,1.2l-0.4,0.1
					c0-0.3-0.1-0.8-0.2-1.2L280.3,30.6z M281.3,27.6c-0.1,0.3-0.3,0.5-0.5,0.8h1.5c0.1-0.2,0.1-0.5,0.2-0.8H281.3z M281.3,30.5
					c0.2,0.3,0.3,0.8,0.4,1.1l-0.4,0.1c0-0.3-0.2-0.8-0.4-1.1L281.3,30.5z M282.4,31.4c-0.1-0.3-0.3-0.6-0.5-0.9l0.3-0.1
					c0.2,0.3,0.4,0.7,0.5,0.9L282.4,31.4z"/>
				<path class="st3" d="M286.7,29.6v2c0,0.3-0.1,0.4-0.2,0.5c-0.2,0.1-0.4,0.1-0.9,0.1c0-0.1-0.1-0.3-0.1-0.4c0.3,0,0.6,0,0.7,0
					c0.1,0,0.1,0,0.1-0.1v-1.8c-0.3,0.1-0.6,0.2-0.9,0.3l-0.1-0.4c0.3-0.1,0.6-0.2,1-0.3v-1.5h-0.9v-0.4h0.9V26h0.4v1.4h0.9v0.4
					h-0.9v1.4c0.2-0.1,0.4-0.1,0.7-0.2l0.1,0.4L286.7,29.6z M290.9,29.1c-0.3,0.8-0.8,1.5-1.3,1.9c0.5,0.3,1.1,0.6,1.8,0.7
					c-0.1,0.1-0.2,0.3-0.3,0.4c-0.7-0.2-1.4-0.5-1.9-0.9c-0.6,0.4-1.3,0.7-2,0.9c0-0.1-0.1-0.3-0.2-0.4c0.7-0.1,1.3-0.4,1.9-0.8
					c-0.5-0.4-0.9-1-1.1-1.6l0,0h-0.2V29h3.1l0.1,0L290.9,29.1z M288.6,27c0,0.6-0.2,1.3-1,1.8c-0.1-0.1-0.2-0.3-0.3-0.3
					c0.7-0.4,0.9-1,0.9-1.5v-0.7h2.1v1.6c0,0.2,0,0.3,0.1,0.3h0.6c0.1,0,0.2,0,0.3,0c0,0.1,0,0.3,0,0.4c-0.1,0-0.2,0-0.4,0h-0.6
					c-0.4,0-0.5-0.2-0.5-0.7v-1.1h-1.2V27z M288.1,29.4c0.2,0.5,0.6,1,1.1,1.4c0.5-0.4,0.8-0.8,1.1-1.4H288.1z"/>
				<path class="st3" d="M294.6,27.8h-1.9v-0.4h1.9V27.8z M295.1,31.4c-0.6,0.3-1.4,0.6-2.1,0.8c-0.1-0.1-0.2-0.3-0.3-0.3
					c0.7-0.1,1.5-0.4,2-0.7L295.1,31.4z M294.4,26.8h-1.6v-0.4h1.6V26.8z M297.9,31.1h-4.4v-2.7h4.4V31.1z M297.5,28.7H294v0.5h3.5
					V28.7z M297.5,29.5H294V30h3.5V29.5z M297.5,30.3H294v0.5h3.5V30.3z M296.8,26.9c0,0.1,0,0.2,0,0.3c0.3,0.4,1.1,0.7,2,0.8
					c-0.1,0.1-0.2,0.3-0.3,0.4c-0.8-0.1-1.4-0.4-1.9-0.8c-0.2,0.3-0.7,0.7-2,0.8c0-0.1-0.2-0.3-0.2-0.3c1.8-0.3,1.9-0.7,1.9-1.1
					v-0.1h-0.8c-0.1,0.3-0.3,0.5-0.5,0.7c-0.1-0.1-0.2-0.2-0.3-0.2c0.3-0.3,0.6-0.8,0.8-1.3l0.4,0.1c0,0.1-0.1,0.3-0.1,0.4h2.3
					l0.1,0l0.3,0.1c-0.2,0.3-0.4,0.7-0.6,1l-0.4-0.1c0.1-0.1,0.2-0.4,0.3-0.6L296.8,26.9L296.8,26.9z M296.7,31.2
					c0.7,0.2,1.5,0.5,2,0.7l-0.4,0.3c-0.4-0.2-1.2-0.5-1.9-0.7L296.7,31.2z"/>
				<path class="st3" d="M301,28c-0.3-0.2-0.7-0.4-1.1-0.5l0.2-0.3c0.4,0.1,0.9,0.3,1.1,0.4L301,28z M306.1,30.8h-2.8v1.4h-0.5v-1.4
					H300v-0.4h2.8v-0.5h0.5v0.5h2.8L306.1,30.8z M300.1,29.7c0.4-0.3,0.9-0.9,1.3-1.4l0.2,0.3c-0.4,0.5-0.8,1-1.2,1.4L300.1,29.7z
					 M301.5,26.9c-0.3-0.2-0.7-0.4-1.1-0.6l0.2-0.3c0.4,0.1,0.9,0.3,1.1,0.5L301.5,26.9z M302.1,27.5c-0.1,0.2-0.3,0.3-0.4,0.4
					c-0.1-0.1-0.3-0.2-0.4-0.3c0.5-0.4,1.1-1,1.4-1.7l0.4,0.1c-0.1,0.2-0.2,0.4-0.4,0.7h1.2c-0.1-0.2-0.2-0.4-0.3-0.5l0.4-0.1
					c0.1,0.2,0.3,0.5,0.4,0.7h1.4v0.4h-1.5v0.5h1.3V28h-1.3v0.5h1.3v0.3h-1.3v0.6h1.6v0.4h-3.4V30h-0.4V27.5z M303.8,27.1h-1.3v0.5
					h1.3V27.1z M303.8,28h-1.3v0.5h1.3V28z M303.8,28.8h-1.3v0.6h1.3V28.8z"/>
				<path class="st3" d="M308.6,30.8c-0.2,0.5-0.6,1-1,1.3c-0.1-0.1-0.3-0.2-0.4-0.3c0.4-0.3,0.7-0.7,0.9-1.2L308.6,30.8z
					 M310.2,26.3v4.2h-2.6v-4.2H310.2z M308.1,27.5h1.7v-0.9h-1.7V27.5z M308.1,28.8h1.7v-0.9h-1.7V28.8z M308.1,30.1h1.7v-0.9h-1.7
					V30.1z M309.7,30.7c0.3,0.4,0.6,0.8,0.8,1.1l-0.4,0.2c-0.1-0.3-0.5-0.8-0.8-1.2L309.7,30.7z M311.5,26.8v3.7H311v-3.7H311.5z
					 M313.1,26.1v5.4c0,0.3-0.1,0.5-0.3,0.5c-0.2,0.1-0.6,0.1-1.2,0.1c0-0.1-0.1-0.3-0.2-0.4c0.5,0,0.9,0,1,0c0.1,0,0.2,0,0.2-0.2
					v-5.4H313.1z"/>
			</g>
		</g>
		<g>
			<g>
				<path class="st3" d="M52,59c-0.1,0.7-0.3,1.5-0.4,2c-0.1-0.1-0.4-0.1-0.6-0.2c0.2-0.5,0.3-1.3,0.4-2L52,59z M53.7,58.5
					c0-0.1-0.1-0.3-0.1-0.4c-1.8,0.3-2.1,0.3-2.2,0.4c0-0.2-0.2-0.5-0.3-0.7c0.2-0.1,0.4-0.3,0.7-0.6c0.1-0.1,0.4-0.5,0.6-0.9
					c-0.8,0.1-1,0.1-1.1,0.2c0-0.2-0.2-0.5-0.3-0.7c0.1,0,0.3-0.2,0.5-0.5c0.2-0.3,0.7-1.2,1-2.1l0.7,0.3c-0.3,0.8-0.8,1.6-1.2,2.2
					l0.8-0.1c0.2-0.4,0.5-0.8,0.7-1.2l0.7,0.4c-0.5,1-1.2,2-1.9,2.8l1.1-0.2c-0.1-0.3-0.2-0.5-0.3-0.8l0.5-0.2
					c0.2,0.5,0.5,1.3,0.6,1.7L53.7,58.5z M52.8,58.8c0.1,0.6,0.2,1.3,0.2,1.8l-0.6,0.2c0-0.5-0.1-1.3-0.2-1.9L52.8,58.8z M53.7,58.6
					c0.2,0.5,0.4,1.2,0.5,1.7l-0.6,0.2c-0.1-0.5-0.3-1.2-0.5-1.7L53.7,58.6z M58.7,60.5c-0.4-0.3-1.1-0.9-1.8-1.3v1.2
					c0,0.4-0.1,0.6-0.3,0.7c-0.2,0.1-0.6,0.1-1.1,0.1c0-0.2-0.1-0.5-0.2-0.7c0.3,0,0.6,0,0.7,0c0.1,0,0.1,0,0.1-0.1v-1.2
					c-0.6,0.4-1.1,0.8-1.6,1.2l-0.4-0.6c0.5-0.3,1.3-0.8,2-1.3v-1.4h-2.1v-0.7h3c0-0.2,0.1-0.3,0.1-0.5h-2.6
					c0.2-0.7,0.5-1.8,0.7-2.7l0.8,0.1c0,0.2-0.1,0.4-0.1,0.7h1.7l0.1,0l0.6,0.1c-0.1,0.7-0.3,1.7-0.5,2.4h1.3v0.7h-2.2v1.3l0.3,0.2
					c0.3-0.4,0.7-0.9,0.9-1.2l0.7,0.4c-0.3,0.4-0.7,0.9-1,1.2c0.6,0.4,1.1,0.7,1.4,1L58.7,60.5z M55.3,58.9c-0.2-0.3-0.7-0.7-1-1
					l0.4-0.4c0.3,0.3,0.8,0.7,1,1L55.3,58.9z M57.3,55.3c0.1-0.2,0.1-0.5,0.1-0.7h-1.7c-0.1,0.2-0.1,0.5-0.2,0.7H57.3z"/>
				<path class="st3" d="M66.7,60.4c0.8,0,1-0.2,1.1-1.3c0.2,0.1,0.6,0.2,0.8,0.3c-0.2,1.4-0.5,1.8-1.8,1.8h-3.2
					c-1.5,0-1.9-0.3-1.9-1.4v-3.5c-0.2,0.2-0.4,0.3-0.7,0.5c-0.1-0.2-0.3-0.6-0.4-0.8c1-0.6,2.1-1.7,2.7-2.8l0.7,0.3
					c-0.1,0.2-0.2,0.3-0.3,0.5h2.2l0.2,0l0.5,0.4c-0.3,0.4-0.7,0.9-1.1,1.3h2.3v3.2h-0.8v-0.3h-4.5v1.3c0,0.5,0.2,0.6,1.1,0.6H66.7z
					 M63.1,54.7c-0.3,0.3-0.5,0.7-0.8,1h2.2c0.3-0.3,0.6-0.6,0.8-1H63.1z M62.4,57.7h1.8v-1.3h-1.8V57.7z M66.9,56.4H65v1.3h1.9
					V56.4z"/>
				<path class="st3" d="M76.2,53.2c0,0.5-0.1,1-0.2,1.4c0.6,0.3,1.3,0.7,1.7,1L77.3,56h0.3v1.6h-0.8v-1h-5.7v1h-0.8V56h0.1
					c-0.1-0.2-0.3-0.4-0.4-0.5c1.5-0.3,1.7-1,1.8-2.3h0.7c0,0.6-0.1,1-0.2,1.4c0.4,0.3,1,0.6,1.3,0.8L73.1,56
					c-0.3-0.2-0.7-0.5-1.1-0.8c-0.3,0.4-0.7,0.6-1.4,0.8h3.5c-0.1-0.2-0.3-0.5-0.4-0.6c1.5-0.3,1.7-0.9,1.8-2.2H76.2z M70.9,54.6
					c-0.1-0.2-0.4-0.6-0.7-0.9l0.5-0.4c0.2,0.3,0.5,0.6,0.7,0.8L70.9,54.6z M73.7,59.2h3.4v2.1h-0.8V61h-4.5v0.2H71v-2.1h2
					c0.1-0.1,0.1-0.3,0.2-0.4h-1.5v-1.7h4.7v1.7h-2.4L73.7,59.2z M76.3,59.8h-4.5v0.7h4.5V59.8z M72.4,58.2h3.1v-0.6h-3.1V58.2z
					 M73.9,53.9c-0.3,0.3-0.6,0.7-0.8,0.9l-0.5-0.2c0.2-0.3,0.5-0.6,0.6-0.9L73.9,53.9z M74.6,54.6c-0.1-0.2-0.4-0.6-0.7-0.9
					l0.5-0.4c0.2,0.3,0.5,0.6,0.7,0.8L74.6,54.6z M77.1,56c-0.4-0.2-0.9-0.6-1.4-0.8c-0.3,0.4-0.8,0.6-1.5,0.8H77.1z M77.8,53.9
					c-0.3,0.3-0.6,0.7-0.8,0.9l-0.5-0.2c0.2-0.3,0.5-0.7,0.6-0.9L77.8,53.9z"/>
				<path class="st3" d="M81.6,57.4c-0.1,0.7-0.3,1.5-0.6,2.2c0.1,0.1,0.3,0.2,0.6,0.4c0.6,0.4,1.4,0.4,2.4,0.4
					c1.1,0,2.5-0.1,3.5-0.2c-0.1,0.2-0.2,0.6-0.2,0.8c-0.7,0-2.3,0.1-3.3,0.1c-1.1,0-1.9-0.1-2.5-0.5c-0.3-0.2-0.7-0.5-0.9-0.5
					c-0.2,0-0.5,0.6-0.7,1.1l-0.6-0.8c0.3-0.4,0.6-0.8,0.9-0.9c0.2-0.5,0.4-1.1,0.5-1.7h-1.1c0.2-0.5,0.5-1.2,0.7-1.9h-0.9v-0.7h1.9
					c-0.2,0.6-0.5,1.3-0.7,1.9H81l0.1,0L81.6,57.4z M80.4,54.9c-0.1-0.4-0.3-1-0.5-1.5l0.7-0.2c0.2,0.5,0.4,1,0.5,1.4L80.4,54.9z
					 M82.4,55.2h-0.7v-1.6h5.5v1.6h-0.8v-1h-3.9v0.7h1.6v-0.4h0.8v0.4h1.5v0.6h-1.5v0.4h1.9v2.5h-1.9v0.4h2.3v0.6h-2.3v0.7h-0.8
					v-0.7h-2.3v-0.6h2.3v-0.4h-1.9v-2.5h1.9v-0.4h-1.7V55.2z M82.9,56.9h1.2v-0.5h-1.2V56.9z M84.1,57.8v-0.5h-1.2v0.5H84.1z
					 M84.9,56.4v0.5H86v-0.5H84.9z M86,57.4h-1.1v0.5H86V57.4z"/>
				<path class="st3" d="M51,72.9c1.6-1.4,2.3-2.4,2.3-3.3c0-0.6-0.3-1-0.9-1c-0.4,0-0.8,0.3-1.1,0.6L51,68.9
					c0.4-0.4,0.8-0.7,1.4-0.7c0.9,0,1.4,0.6,1.4,1.5c0,1-0.8,2-2,3.2c0.3,0,0.6,0,0.8,0h1.4v0.5H51V72.9z"/>
				<path class="st3" d="M55.3,70.7c0-1.7,0.6-2.6,1.5-2.6c0.9,0,1.5,0.8,1.5,2.6c0,1.7-0.6,2.6-1.5,2.6
					C55.9,73.3,55.3,72.4,55.3,70.7z M57.8,70.7c0-1.5-0.4-2.1-1-2.1c-0.6,0-1,0.7-1,2.1c0,1.5,0.4,2.1,1,2.1
					C57.4,72.8,57.8,72.2,57.8,70.7z"/>
				<path class="st3" d="M59.6,72.9c1.6-1.4,2.3-2.4,2.3-3.3c0-0.6-0.3-1-0.9-1c-0.4,0-0.8,0.3-1.1,0.6l-0.3-0.3
					c0.4-0.4,0.8-0.7,1.4-0.7c0.9,0,1.4,0.6,1.4,1.5c0,1-0.8,2-2,3.2c0.3,0,0.6,0,0.8,0h1.4v0.5h-3.1V72.9z"/>
				<path class="st3" d="M63.8,72.9c1.6-1.4,2.3-2.4,2.3-3.3c0-0.6-0.3-1-0.9-1c-0.4,0-0.8,0.3-1.1,0.6l-0.3-0.3
					c0.4-0.4,0.8-0.7,1.4-0.7c0.9,0,1.4,0.6,1.4,1.5c0,1-0.8,2-2,3.2c0.3,0,0.6,0,0.8,0h1.4v0.5h-3.1V72.9z"/>
				<path class="st3" d="M74.3,72.1h-2.5v1.6h-0.5v-1.6h-3.2v-0.4h1.1v-1.8h2v-1.1h-1.7c-0.3,0.5-0.7,1-1.1,1.4
					c-0.1-0.1-0.3-0.2-0.4-0.3c0.7-0.6,1.2-1.4,1.6-2.4l0.4,0.1c-0.1,0.3-0.2,0.5-0.3,0.7h4.1v0.4h-2.2v1.1h2v0.4h-2v1.4h2.5V72.1z
					 M71.3,71.7v-1.4h-1.6v1.4H71.3z"/>
				<path class="st3" d="M80.9,73.2c0.3,0,0.3-0.1,0.3-0.9c0.1,0.1,0.3,0.1,0.4,0.2c-0.1,0.9-0.2,1.1-0.7,1.1h-1.1
					c-0.6,0-0.8-0.1-0.8-0.6v-1.8h-1.2c-0.1,1.4-0.5,2.2-2.1,2.5c0-0.1-0.1-0.3-0.2-0.4c1.5-0.3,1.8-0.9,1.9-2.2h-1.8v-0.4h6v0.4h-2
					v1.8c0,0.2,0.1,0.2,0.3,0.2H80.9z M76.2,69.8h-0.4v-1.5h2.7c-0.1-0.2-0.2-0.5-0.4-0.7l0.4-0.1c0.2,0.3,0.3,0.6,0.4,0.8h2.4v1.5
					h-0.5v-1h-4.7V69.8z M76.7,69.9v-0.4h3.7v0.4H76.7z"/>
				<path class="st3" d="M88.5,69.8c-0.3,0.9-0.7,1.7-1.2,2.3c0.3,0.7,0.6,1.1,1,1.1c0.2,0,0.3-0.4,0.3-1.3c0.1,0.1,0.3,0.2,0.4,0.2
					c-0.1,1.1-0.3,1.5-0.7,1.5c-0.5,0-0.9-0.4-1.3-1.1c-0.4,0.5-0.9,0.8-1.5,1.2c-0.1-0.1-0.2-0.3-0.3-0.4c0.6-0.3,1.2-0.8,1.6-1.3
					c-0.3-0.8-0.4-1.8-0.5-2.9h-2.4V70h1.7v0.2c0,1.5-0.1,2.1-0.2,2.3c-0.1,0.1-0.2,0.2-0.4,0.2c-0.2,0-0.5,0-0.8,0
					c0-0.1-0.1-0.3-0.1-0.4c0.3,0,0.6,0,0.7,0c0.1,0,0.2,0,0.2-0.1c0.1-0.1,0.1-0.6,0.2-1.8h-1.3v0.1c0,0.9-0.1,2.3-0.7,3.2
					c-0.1-0.1-0.3-0.3-0.4-0.3c0.6-0.8,0.6-2,0.6-2.9v-1.9h2.9c0-0.4,0-0.8,0-1.2h0.5c0,0.4,0,0.8,0,1.2h2.2v0.4h-2.2
					c0.1,0.9,0.2,1.8,0.4,2.4c0.4-0.5,0.7-1.2,0.9-1.9L88.5,69.8z M88.3,68.6c-0.3-0.2-0.8-0.6-1.2-0.8l0.3-0.3
					c0.4,0.2,1,0.5,1.2,0.8L88.3,68.6z"/>
				<path class="st3" d="M91.3,70.4c-0.2-0.2-0.7-0.5-1.2-0.7l0.3-0.3c0.4,0.2,0.9,0.5,1.2,0.7L91.3,70.4z M91.7,71.4
					c-0.3,0.7-0.7,1.6-1.1,2.2l-0.4-0.3c0.3-0.5,0.8-1.4,1.1-2.2L91.7,71.4z M91.6,68.7c-0.2-0.2-0.7-0.6-1.1-0.8l0.3-0.3
					c0.4,0.2,0.9,0.5,1.1,0.7L91.6,68.7z M96.3,73.1v0.4h-4.8v-0.4h0.6V71h3.7v2.1H96.3z M95.6,70.5h-3.2v-2.6h3.2V70.5z M92.6,73.1
					h0.7v-1.7h-0.7V73.1z M95.2,68.2h-2.4v1.9h2.4V68.2z M94.7,69.9c-0.2-0.2-0.5-0.5-0.8-0.8c-0.2,0.3-0.4,0.6-0.8,0.8
					c0-0.1-0.1-0.2-0.2-0.2c0.5-0.3,0.8-0.8,0.9-1.4l0.3,0c0,0.2-0.1,0.4-0.2,0.6c0.3,0.3,0.7,0.6,0.9,0.8L94.7,69.9z M93.6,71.4
					v1.7h0.7v-1.7H93.6z M94.7,71.4v1.7h0.7v-1.7H94.7z"/>
				<path class="st3" d="M103.6,73.1v0.4h-6v-0.4h2.7v-1h-2.1v-0.4h2.1V71h0.5v0.8h2.2v0.4h-2.2v1H103.6z M98.1,69.3h-0.4v-1.2h2.8
					c-0.1-0.2-0.2-0.4-0.3-0.5l0.4-0.1c0.1,0.2,0.3,0.5,0.4,0.7h2.5v1.2H103v-0.8h-4.9V69.3z M102.6,71.2c-0.1-0.1-0.2-0.3-0.4-0.4
					C99,71,98.7,71,98.5,71.1c0-0.1-0.1-0.3-0.1-0.4c0.1,0,0.3-0.1,0.5-0.2c0.1-0.1,0.6-0.4,1-0.9h-1.4v-0.4h4.5v0.4h-2.5
					c-0.4,0.4-0.8,0.7-1.2,1l2.7-0.2c-0.2-0.2-0.4-0.4-0.6-0.5l0.3-0.2c0.5,0.4,1,0.9,1.3,1.2L102.6,71.2z"/>
				<path class="st3" d="M106.3,68.5c-0.3,0.5-0.7,1-1.2,1.3c-0.1-0.1-0.2-0.3-0.3-0.3c0.6-0.5,1.2-1.2,1.5-2l0.4,0.1
					c-0.1,0.2-0.2,0.3-0.3,0.5h4.2v0.4H106.3z M106.7,72.3c-0.3,0.5-0.9,1.1-1.4,1.4c-0.1-0.1-0.2-0.2-0.3-0.3
					c0.5-0.2,1.1-0.7,1.4-1.2L106.7,72.3z M107.3,71.9v1.8h-0.4v-1.8h-1.8v-0.4h1.8v-1.2h0.4v1.2h1.8v0.4H107.3z M109.9,69.8
					c0,2.2,0,3.5,0.6,3.5c0.1,0,0.2-0.4,0.2-1c0.1,0.1,0.2,0.2,0.3,0.3c0,0.9-0.1,1.2-0.5,1.2c-0.9,0-1-1.3-1-3.5h-3.9v-0.4H109.9z
					 M105.9,70.4c0.2,0.3,0.5,0.6,0.6,0.9l-0.4,0.2c-0.1-0.2-0.3-0.6-0.5-0.9L105.9,70.4z M106.2,69.3V69h4v0.4H106.2z M107.9,72.1
					c0.5,0.3,1,0.8,1.3,1.1l-0.3,0.3c-0.3-0.3-0.8-0.8-1.3-1.1L107.9,72.1z M108.8,70.6c-0.2,0.3-0.5,0.7-0.7,0.9l-0.3-0.1
					c0.2-0.3,0.5-0.7,0.6-0.9L108.8,70.6z"/>
				<path class="st3" d="M114.5,69.6h0.3v1h-0.3v2.6c0,0.2,0,0.3-0.2,0.4c-0.1,0.1-0.4,0.1-0.8,0.1c0-0.1-0.1-0.3-0.1-0.4
					c0.3,0,0.5,0,0.6,0c0.1,0,0.1,0,0.1-0.1v-0.9c-0.3,0.2-0.7,0.4-1,0.6l-0.2-0.3c0.3-0.1,0.7-0.3,1.1-0.6v-1.2H113v0.9
					c0,0.6-0.1,1.4-0.5,2c-0.1-0.1-0.2-0.2-0.3-0.2c0.4-0.5,0.4-1.2,0.4-1.8v-1.1h-0.3v-1h0.3v-1.9h2V69.6z M114.4,70h-1.8v0.5h1.8
					V70z M112.9,69.6h0.5v-1.1h0.8v-0.5h-1.2V69.6z M113.8,71.9c-0.2-0.2-0.5-0.4-0.7-0.6l0.2-0.2c0.3,0.2,0.6,0.4,0.8,0.6
					L113.8,71.9z M114.1,69.6v-0.8h-0.5v0.8H114.1z M118.3,73.2v0.4h-3.5v-0.4h1c-0.1-0.2-0.2-0.5-0.2-0.7l0.4-0.1
					c0.1,0.2,0.2,0.5,0.3,0.8h0.7c0.1-0.2,0.2-0.6,0.3-0.8l0.4,0.1c-0.1,0.2-0.2,0.5-0.3,0.7H118.3z M118.3,70.8h-3.4v-0.4h3.4V70.8
					z M118.1,70.1h-3v-2h0.8v-0.5h0.4V68h0.5v-0.5h0.4V68h0.9V70.1z M115.2,72.4v-1.2h2.7v1.2H115.2z M115.4,68.9h0.5v-0.5h-0.5
					V68.9z M115.4,69.7h0.5v-0.5h-0.5V69.7z M115.6,72.1h1.9v-0.6h-1.9V72.1z M116.8,68.9v-0.5h-0.5v0.5H116.8z M116.3,69.2v0.5h0.5
					v-0.5H116.3z M117.7,68.4h-0.6v0.5h0.6V68.4z M117.7,69.2h-0.6v0.5h0.6V69.2z"/>
				<path class="st3" d="M120.8,71.1v2.1c0,0.3-0.1,0.4-0.2,0.5c-0.1,0.1-0.4,0.1-0.8,0.1c0-0.1-0.1-0.3-0.1-0.4c0.3,0,0.6,0,0.6,0
					c0.1,0,0.1,0,0.1-0.1v-2c-0.3,0.1-0.6,0.2-0.8,0.3l-0.1-0.4c0.3-0.1,0.6-0.2,1-0.3v-1.4h-0.9v-0.4h0.9v-1.4h0.4v1.4h0.8v0.4
					h-0.8v1.3c0.2-0.1,0.5-0.1,0.7-0.2l0.1,0.4L120.8,71.1z M122.8,67.5h0.4v2.8c0,1.3-0.1,2.5-1.4,3.3c-0.1-0.1-0.2-0.2-0.3-0.3
					c0.7-0.4,1-1,1.2-1.6c-0.4,0.1-0.8,0.3-1.1,0.4l-0.2-0.4c0.4-0.1,0.9-0.3,1.4-0.4c0-0.3,0.1-0.6,0.1-0.9h-1.1v-0.4h1.1v-1h-1.1
					v-0.4h1.1V67.5z M125.7,72h-1.3v1.7h-0.4v-6.2h0.4v1.2h1.2v0.4h-1.2v1h1.1v0.4h-1.1v1.1h1.3V72z"/>
				<path class="st3" d="M129.5,70c0,0,0,0.1,0,0.2c0,2.2-0.1,3-0.3,3.2c-0.1,0.1-0.2,0.2-0.4,0.2c-0.2,0-0.4,0-0.7,0
					c0-0.1-0.1-0.3-0.1-0.4c0.3,0,0.6,0,0.7,0c0.1,0,0.1,0,0.2-0.1c0.1-0.1,0.2-0.8,0.2-2.7h-1v0.1c0,1.1-0.1,2.3-1,3.2
					c-0.1-0.1-0.2-0.2-0.3-0.3c0.8-0.9,0.9-2,0.9-2.9V69h-0.8v-0.4h3V69h-1.7V70H129.5z M128.3,68.5c-0.1-0.3-0.2-0.6-0.4-0.9
					l0.4-0.1c0.1,0.3,0.3,0.7,0.4,0.9L128.3,68.5z M132.5,69.2c-0.2,1.1-0.5,2-0.9,2.8c0.4,0.6,0.8,1.1,1.4,1.4
					c-0.1,0.1-0.2,0.3-0.3,0.4c-0.6-0.3-1-0.8-1.4-1.3c-0.4,0.6-0.9,1-1.6,1.4c0-0.1-0.2-0.3-0.3-0.4c0.7-0.3,1.3-0.8,1.7-1.4
					c-0.3-0.6-0.5-1.2-0.7-2c-0.1,0.3-0.3,0.6-0.5,0.9c-0.1-0.1-0.3-0.3-0.4-0.3c0.5-0.7,0.9-1.9,1.1-3l0.5,0.1
					c-0.1,0.4-0.2,0.8-0.3,1.2h2.1v0.4H132.5z M130.7,69.3c0.1,0.8,0.4,1.6,0.7,2.2c0.3-0.6,0.6-1.4,0.7-2.3L130.7,69.3L130.7,69.3z
					"/>
				<path class="st3" d="M139.9,69.6c-0.2,0.4-0.5,0.8-0.9,1.1c0.4,0.2,0.9,0.4,1.4,0.5c-0.1,0.1-0.2,0.2-0.3,0.4
					c-0.6-0.1-1.1-0.3-1.5-0.6c-0.4,0.2-0.9,0.4-1.4,0.5c0-0.1-0.1-0.2-0.2-0.3c0,0.1-0.1,0.2-0.2,0.2c-0.2,0.1-0.4,0.1-0.8,0.1
					c0-0.1-0.1-0.3-0.1-0.4c0.3,0,0.5,0,0.6,0c0.1,0,0.1,0,0.1-0.1v-1.2c-0.5,0-1,0.1-1.5,0.1c-0.1,0.6-0.2,1.3-0.7,1.8
					c-0.1-0.1-0.2-0.2-0.3-0.3c0.4-0.4,0.6-1,0.6-1.5l-0.6,0l0-0.4c0.2,0,0.4,0,0.6,0c0-0.1,0-0.2,0-0.2V68h0.7
					c0.1-0.2,0.2-0.4,0.2-0.5l0.4,0.1c-0.1,0.2-0.1,0.3-0.2,0.4h1.1v1.4l0.2,0l0,0.3l-0.2,0v1.3c0,0.1,0,0.1,0,0.1
					c0.5-0.1,0.9-0.2,1.3-0.4c-0.3-0.2-0.5-0.5-0.7-0.8l0.3-0.1h-0.5v-0.3h2.2l0.1,0L139.9,69.6z M139.5,73.1h0.8v0.4h-6.1v-0.4h0.8
					v-1.5h4.5V73.1z M135.2,69.3c0,0.1,0,0.1,0,0.2c0.4,0,0.9,0,1.4-0.1v-1.1h-1.4V69.3z M135.9,70.7c-0.1-0.2-0.3-0.4-0.5-0.6
					l0.2-0.2c0.2,0.1,0.4,0.4,0.5,0.6L135.9,70.7z M135.4,73.1h0.9V72h-0.9V73.1z M135.7,68.6c0.2,0.1,0.4,0.4,0.5,0.5l-0.3,0.2
					c-0.1-0.2-0.3-0.4-0.5-0.6L135.7,68.6z M136.8,72v1.2h0.9V72H136.8z M138.1,68.2c0,0.4-0.1,0.9-0.7,1.2c0-0.1-0.2-0.2-0.3-0.3
					c0.5-0.3,0.6-0.6,0.6-0.9v-0.5h1.7v0.9c0,0.1,0,0.2,0.1,0.2h0.4c0.1,0,0.2,0,0.3,0c0,0.1,0,0.2,0,0.3c-0.1,0-0.2,0-0.3,0h-0.5
					c-0.4,0-0.5-0.1-0.5-0.5v-0.5h-1V68.2z M137.9,69.8c0.2,0.2,0.4,0.5,0.7,0.7c0.3-0.2,0.5-0.4,0.7-0.7H137.9z M138.1,72v1.2h0.9
					V72H138.1z"/>
				<path class="st3" d="M141.5,73.5c0.3-0.3,0.4-0.8,0.4-1.2l0.3,0.1c-0.1,0.5-0.2,1-0.5,1.3L141.5,73.5z M141.6,71.6
					c0.4,0,0.8,0,1.3-0.1V71h-1.1v-0.4h1.1v-0.5h-1.1v-2.3h2.6v2.3h-1.1v0.5h1.2V71h-1.2v0.5l1.3-0.1l0,0.4c-1.1,0.1-2.2,0.2-3,0.2
					L141.6,71.6z M142.1,69.8h0.8v-1.7h-0.8V69.8z M142.5,68.4c0.1,0.3,0.2,0.8,0.2,1l-0.3,0.1c0-0.3-0.1-0.7-0.2-1L142.5,68.4z
					 M142.8,72.3c0.1,0.4,0.2,0.9,0.2,1.2l-0.3,0c0-0.3-0.1-0.8-0.2-1.2L142.8,72.3z M143.4,72.2c0.2,0.3,0.3,0.8,0.4,1.1l-0.3,0.1
					c0-0.3-0.2-0.7-0.3-1.1L143.4,72.2z M144,68.1h-0.8v1.7h0.8V68.1z M143.3,69.5c0.1-0.3,0.2-0.8,0.3-1.1l0.3,0.1
					c-0.1,0.4-0.3,0.8-0.4,1.1L143.3,69.5z M144,72.1c0.3,0.3,0.5,0.7,0.6,1l-0.3,0.1c-0.1-0.3-0.3-0.7-0.6-1L144,72.1z M146.2,69.4
					v1.3h1.2v2.9H147v-0.3h-1.8v0.3h-0.4v-3h1v-3.2h0.4V69h1.5v0.4H146.2z M147,71.1h-1.8V73h1.8V71.1z"/>
				<path class="st3" d="M151.2,69h-2.4v-0.4h2.4V69z M151.1,69.9h-2v-0.4h2V69.9z M149,70.4h2v0.4h-2V70.4z M151,73.3h-1.6v0.3H149
					v-2.3h2V73.3z M149.4,71.7v1.2h1.2v-1.2H149.4z M150,68.6c-0.1-0.2-0.3-0.6-0.4-0.9l0.4-0.1c0.2,0.3,0.4,0.7,0.5,0.9L150,68.6z
					 M151.1,72.9c0.2-0.4,0.4-1,0.5-1.4l0.3,0.1c-0.1,0.5-0.2,1.1-0.5,1.5L151.1,72.9z M153.3,68.2c-0.1,1.2-0.5,2.2-1.7,2.8
					c0-0.1-0.2-0.3-0.3-0.3c0.6-0.3,1-0.6,1.2-1.1c-0.3-0.3-0.7-0.6-1-0.9l0.2-0.3c0.3,0.2,0.7,0.5,0.9,0.8c0.1-0.3,0.1-0.6,0.2-1
					h-1.4v-0.4h3.3c0,0,0,0.1,0,0.2c-0.1,1.7-0.1,2.3-0.3,2.5c-0.1,0.1-0.2,0.2-0.4,0.2c-0.2,0-0.5,0-0.8,0c0-0.1-0.1-0.3-0.1-0.4
					c0.3,0,0.6,0,0.7,0c0.1,0,0.2,0,0.2-0.1c0.1-0.1,0.2-0.7,0.2-2.1H153.3z M153.6,73.2c0.2,0,0.3-0.1,0.3-0.9
					c0.1,0.1,0.3,0.1,0.4,0.2c0,0.9-0.2,1.1-0.6,1.1h-0.9c-0.5,0-0.6-0.1-0.6-0.6v-1.7h0.4V73c0,0.2,0,0.2,0.3,0.2H153.6z
					 M152.9,70.8c0.3,0.3,0.6,0.7,0.7,1l-0.3,0.2c-0.1-0.3-0.5-0.7-0.7-1L152.9,70.8z M154.5,71.2c0.2,0.4,0.5,1,0.6,1.4l-0.3,0.1
					c-0.1-0.4-0.3-1-0.6-1.4L154.5,71.2z"/>
				<path class="st3" d="M158.4,69h-2.3v-0.4h2.3V69z M156.4,69.9v-0.4h1.8v0.4H156.4z M158.2,70.8h-1.8v-0.4h1.8V70.8z M158.3,73.3
					h-1.5v0.3h-0.4v-2.3h1.8V73.3z M156.8,71.7v1.2h1.1v-1.2H156.8z M157.4,68.6c-0.1-0.2-0.3-0.6-0.5-0.9l0.3-0.2
					c0.2,0.3,0.4,0.6,0.5,0.9L157.4,68.6z M159.5,69.5c-0.3,0.3-0.5,0.6-0.8,0.8c-0.1-0.1-0.2-0.2-0.3-0.3c0.3-0.2,0.6-0.5,0.8-0.8
					c-0.2-0.2-0.4-0.4-0.6-0.5l0.3-0.3c0.2,0.1,0.4,0.3,0.6,0.4c0.1-0.2,0.2-0.5,0.3-0.8h-1v-0.4h1.2l0.1,0l0.3,0.1
					C160.1,68.5,159.9,69,159.5,69.5l1.8-0.1v0.4h-1.8V69.5z M161.6,72.1c-0.2,0.3-0.4,0.7-0.5,1h1.3v0.4h-3.8v-0.4h2.1
					c0.2-0.3,0.4-0.8,0.5-1.2L161.6,72.1z M161.7,71.9h-2.6v-1.6h2.6V71.9z M159.7,73.1c0-0.3-0.2-0.7-0.4-1l0.4-0.1
					c0.2,0.3,0.4,0.7,0.4,1L159.7,73.1z M161.3,70.7h-1.8v0.9h1.8V70.7z M162.3,68.7c-0.2,0.2-0.5,0.4-0.7,0.5
					c0.2,0.3,0.5,0.6,0.8,0.8c-0.1,0.1-0.2,0.2-0.3,0.3c-0.8-0.5-1.4-1.5-1.7-2.6l0.4-0.1c0.1,0.2,0.1,0.4,0.2,0.6
					c0.2-0.2,0.4-0.4,0.5-0.5l0.3,0.2c-0.2,0.2-0.5,0.4-0.7,0.6c0.1,0.1,0.2,0.3,0.2,0.4c0.2-0.1,0.5-0.3,0.6-0.5L162.3,68.7z"/>
				<path class="st3" d="M51,82.6c1.6-1.4,2.3-2.4,2.3-3.3c0-0.6-0.3-1-0.9-1c-0.4,0-0.8,0.3-1.1,0.6L51,78.6
					c0.4-0.4,0.8-0.7,1.4-0.7c0.9,0,1.4,0.6,1.4,1.5c0,1-0.8,2-2,3.2c0.3,0,0.6,0,0.8,0h1.4v0.5H51V82.6z"/>
				<path class="st3" d="M55.3,80.4c0-1.7,0.6-2.6,1.5-2.6c0.9,0,1.5,0.8,1.5,2.6c0,1.7-0.6,2.6-1.5,2.6
					C55.9,83,55.3,82.1,55.3,80.4z M57.8,80.4c0-1.5-0.4-2.1-1-2.1c-0.6,0-1,0.7-1,2.1c0,1.5,0.4,2.1,1,2.1
					C57.4,82.5,57.8,81.9,57.8,80.4z"/>
				<path class="st3" d="M59.6,82.6c1.6-1.4,2.3-2.4,2.3-3.3c0-0.6-0.3-1-0.9-1c-0.4,0-0.8,0.3-1.1,0.6l-0.3-0.3
					c0.4-0.4,0.8-0.7,1.4-0.7c0.9,0,1.4,0.6,1.4,1.5c0,1-0.8,2-2,3.2c0.3,0,0.6,0,0.8,0h1.4v0.5h-3.1V82.6z"/>
				<path class="st3" d="M63.7,82.3l0.3-0.4c0.3,0.3,0.7,0.6,1.3,0.6c0.6,0,1-0.4,1-1c0-0.6-0.4-1-1.6-1v-0.4c1,0,1.4-0.4,1.4-1
					c0-0.5-0.3-0.8-0.9-0.8c-0.4,0-0.8,0.2-1,0.5l-0.3-0.4c0.4-0.3,0.8-0.6,1.4-0.6c0.8,0,1.4,0.4,1.4,1.2c0,0.6-0.4,1-0.9,1.2v0
					c0.6,0.1,1.1,0.6,1.1,1.3c0,0.9-0.7,1.4-1.6,1.4C64.5,83,64.1,82.6,63.7,82.3z"/>
				<path class="st3" d="M74.3,81.8h-2.5v1.6h-0.5v-1.6h-3.2v-0.4h1.1v-1.8h2v-1.1h-1.7c-0.3,0.5-0.7,1-1.1,1.4
					c-0.1-0.1-0.3-0.2-0.4-0.3c0.7-0.6,1.2-1.4,1.6-2.4l0.4,0.1c-0.1,0.3-0.2,0.5-0.3,0.7h4.1v0.4h-2.2v1.1h2V80h-2v1.4h2.5V81.8z
					 M71.3,81.4V80h-1.6v1.4H71.3z"/>
				<path class="st3" d="M81.2,79.5c-0.3,0.9-0.7,1.7-1.2,2.3c0.3,0.7,0.6,1.1,1,1.1c0.2,0,0.3-0.4,0.3-1.3c0.1,0.1,0.3,0.2,0.4,0.2
					c-0.1,1.1-0.3,1.5-0.7,1.5c-0.5,0-0.9-0.4-1.3-1.1c-0.4,0.5-0.9,0.8-1.5,1.2c-0.1-0.1-0.2-0.3-0.3-0.4c0.6-0.3,1.2-0.8,1.6-1.3
					c-0.3-0.8-0.4-1.8-0.5-2.9h-2.4v0.9h1.7V80c0,1.5-0.1,2.1-0.2,2.3c-0.1,0.1-0.2,0.2-0.4,0.2c-0.2,0-0.5,0-0.8,0
					c0-0.1-0.1-0.3-0.1-0.4c0.3,0,0.6,0,0.7,0c0.1,0,0.2,0,0.2-0.1c0.1-0.1,0.1-0.6,0.2-1.8h-1.3v0.1c0,0.9-0.1,2.3-0.7,3.2
					c-0.1-0.1-0.3-0.3-0.4-0.3c0.6-0.8,0.6-2,0.6-2.9v-1.9h2.9c0-0.4,0-0.8,0-1.2h0.5c0,0.4,0,0.8,0,1.2h2.2v0.4h-2.2
					c0.1,0.9,0.2,1.8,0.4,2.4c0.4-0.5,0.7-1.2,0.9-1.9L81.2,79.5z M80.9,78.4c-0.3-0.2-0.8-0.6-1.2-0.8l0.3-0.3
					c0.4,0.2,1,0.5,1.2,0.8L80.9,78.4z"/>
				<path class="st3" d="M88.9,82.7v0.5h-6v-0.5h3.3c0.4-0.9,0.8-2.3,1-3.3l0.5,0.1c-0.3,1-0.7,2.3-1.1,3.2H88.9z M88.6,79h-5.5
					v-0.4h5.5V79z M84.8,82.3c-0.1-0.8-0.4-2-0.7-2.9l0.4-0.1c0.3,0.9,0.6,2.1,0.7,2.9L84.8,82.3z M85.8,78.4
					c-0.1-0.3-0.2-0.7-0.3-1.1l0.4-0.1c0.1,0.3,0.3,0.8,0.4,1.1L85.8,78.4z"/>
				<path class="st3" d="M92.5,80c-0.4,1.4-1.2,2.4-2,2.9c-0.1-0.1-0.3-0.3-0.4-0.3c0.8-0.4,1.5-1.3,1.8-2.3h-1.7v-0.4h1.9l0.1,0
					L92.5,80z M96.1,79.4c-0.5,0.5-1.2,1.1-1.8,1.5c0.5,0.8,1.2,1.4,2.1,1.7c-0.1,0.1-0.2,0.3-0.3,0.4c-1.2-0.5-2-1.5-2.6-2.7v2.6
					c0,0.3-0.1,0.4-0.3,0.5c-0.2,0.1-0.6,0.1-1.1,0.1c0-0.1-0.1-0.3-0.2-0.5c0.4,0,0.8,0,0.9,0c0.1,0,0.2,0,0.2-0.2V79h-1.9v-0.4
					h2.4v0.5c0.2,0.5,0.4,1,0.6,1.5c0.5-0.4,1.2-1,1.6-1.5L96.1,79.4z M94.2,78.5c-0.6-0.3-1.7-0.7-2.5-0.9l0.2-0.4
					c0.8,0.2,1.9,0.6,2.5,0.9L94.2,78.5z"/>
				<path class="st3" d="M98.1,81.6c-0.1,0.6-0.2,1.3-0.4,1.8c-0.1,0-0.3-0.1-0.4-0.1c0.2-0.5,0.3-1.1,0.4-1.7L98.1,81.6z
					 M99.4,81.3c0-0.1,0-0.3-0.1-0.4c-1.3,0.2-1.5,0.3-1.6,0.3c0-0.1-0.1-0.3-0.1-0.4c0.1,0,0.3-0.2,0.5-0.5
					c0.1-0.1,0.3-0.4,0.6-0.8c-0.7,0.1-0.8,0.1-0.9,0.2c0-0.1-0.1-0.3-0.1-0.4c0.1,0,0.2-0.2,0.3-0.4c0.1-0.2,0.6-1,0.8-1.7l0.4,0.2
					c-0.3,0.7-0.6,1.3-1,1.9l0.7-0.1c0.2-0.3,0.3-0.6,0.5-0.9l0.4,0.2c-0.4,0.8-0.9,1.6-1.4,2.3l1-0.1c-0.1-0.2-0.1-0.5-0.2-0.7
					l0.3-0.1c0.2,0.5,0.3,1.1,0.4,1.4L99.4,81.3z M98.7,81.5c0.1,0.5,0.2,1.1,0.2,1.6l-0.4,0.1c0-0.4-0.1-1.1-0.2-1.6L98.7,81.5z
					 M99.3,81.4c0.1,0.4,0.3,0.9,0.4,1.3l-0.3,0.1c-0.1-0.3-0.2-0.9-0.4-1.3L99.3,81.4z M101.3,82.7c-0.5,0.2-1.2,0.5-1.6,0.7
					c0-0.1-0.1-0.2-0.2-0.3c0.4-0.2,1.1-0.4,1.5-0.6L101.3,82.7z M101.4,77.9h-1.8v-0.3h1.8v-0.4h0.4v0.4h1.7v0.3h-1.7v0.4h1.4v0.3
					H100v-0.3h1.5V77.9z M99.7,78.9h3.8v1.2h-3.8V78.9z M102.2,82.4c0.5,0.2,1.1,0.4,1.4,0.6l-0.2,0.3c-0.4-0.2-0.9-0.4-1.4-0.7
					L102.2,82.4h-2.3v-2h3.3v2H102.2z M100.1,79.8h0.8v-0.6h-0.8V79.8z M100.3,81.1h2.5v-0.3h-2.5V81.1z M100.3,81.6h2.5v-0.3h-2.5
					V81.6z M100.3,82.2h2.5v-0.3h-2.5V82.2z M102,79.8v-0.6h-0.8v0.6H102z M103.1,79.2h-0.7v0.6h0.7V79.2z"/>
				<path class="st3" d="M108,78.6c-0.2,0.4-0.4,0.9-0.5,1.2h1v0.4h-3.5v-0.4h2.1c0.2-0.4,0.4-1,0.5-1.4L108,78.6z M108.3,78.4h-3.2
					V78h1.4c-0.1-0.2-0.2-0.5-0.3-0.7l0.4-0.1c0.1,0.3,0.3,0.6,0.4,0.8h1.3V78.4z M105.3,80.9h2.8v2.4h-0.4V83h-1.9v0.3h-0.4V80.9z
					 M105.9,79.8c-0.1-0.3-0.2-0.8-0.4-1.2l0.4-0.1c0.2,0.4,0.4,0.9,0.5,1.2L105.9,79.8z M105.7,81.3v1.3h1.9v-1.3H105.7z
					 M110.9,77.8c-0.2,0.6-0.6,1.4-0.9,2c0.6,0.6,0.8,1.2,0.8,1.6c0,0.4-0.1,0.7-0.3,0.8c-0.1,0.1-0.3,0.1-0.4,0.1
					c-0.2,0-0.4,0-0.6,0c0-0.1-0.1-0.3-0.1-0.4c0.2,0,0.4,0,0.6,0c0.1,0,0.2,0,0.3-0.1c0.1-0.1,0.2-0.3,0.2-0.5
					c0-0.4-0.2-0.9-0.8-1.6c0.3-0.6,0.5-1.3,0.7-1.8h-1.1v5.4h-0.4v-5.8h1.7l0.1,0L110.9,77.8z"/>
				<path class="st3" d="M114.9,80h-1.9v3.4h-0.4v-5.9h2.4V80z M112.9,77.9v0.6h1.5v-0.6H112.9z M114.5,79.6v-0.7h-1.5v0.7H114.5z
					 M118,82.8c0,0.3-0.1,0.5-0.3,0.5c-0.2,0.1-0.6,0.1-1.2,0.1c0-0.1-0.1-0.3-0.2-0.5c0.5,0,0.9,0,1.1,0c0.1,0,0.2,0,0.2-0.2V80h-2
					v-2.5h2.5V82.8z M116,77.9v0.6h1.6v-0.6H116z M117.6,79.6v-0.7H116v0.7H117.6z"/>
				<path class="st3" d="M120.8,80.4l0.7-0.2l0.1,0.4c-0.3,0.1-0.5,0.2-0.8,0.3v2c0,0.3-0.1,0.4-0.2,0.5c-0.2,0.1-0.4,0.1-0.8,0.1
					c0-0.1-0.1-0.3-0.1-0.4c0.3,0,0.6,0,0.7,0c0.1,0,0.1,0,0.1-0.1V81l-0.8,0.3l-0.1-0.4c0.3-0.1,0.6-0.2,0.9-0.3V79h-0.9v-0.4h0.9
					v-1.4h0.4v1.4h0.8V79h-0.8V80.4z M125.6,82.9h-3.1v0.5h-0.4v-4c-0.2,0.3-0.4,0.6-0.6,0.8c-0.1-0.1-0.2-0.2-0.3-0.3
					c0.6-0.6,1.1-1.6,1.4-2.6l0.4,0.1c-0.1,0.4-0.3,0.7-0.4,1.1h1.4c-0.1-0.3-0.3-0.7-0.5-1l0.4-0.2c0.2,0.3,0.4,0.7,0.5,1l-0.4,0.2
					h1.4v0.4h-1.3v0.9h1.2v0.4h-1.2v0.9h1.2v0.4h-1.2v1h1.5V82.9z M123.7,78.9h-1.2v0.9h1.2V78.9z M123.7,80.2h-1.2v0.9h1.2V80.2z
					 M122.5,82.5h1.2v-1h-1.2V82.5z"/>
				<path class="st3" d="M132.9,79c-0.1,2.9-0.1,3.8-0.4,4.1c-0.1,0.2-0.2,0.2-0.4,0.2c-0.2,0-0.5,0-0.8,0c0-0.1-0.1-0.3-0.1-0.4
					c0.3,0,0.7,0,0.8,0c0.1,0,0.2,0,0.2-0.1c0.2-0.2,0.3-1.1,0.3-3.6h-1c-0.1,1.8-0.4,3.3-1.6,4.2c-0.1-0.1-0.2-0.3-0.3-0.3
					c0.1-0.1,0.3-0.2,0.4-0.3c-1.1,0.1-2.1,0.3-2.9,0.3l-0.1-0.4c0.4,0,0.9-0.1,1.5-0.1V82H127v-0.4h1.3v-0.4H127v-2h1.3v-0.5h-1.5
					v-0.4h1.5v-0.5c-0.4,0-0.9,0.1-1.3,0.1c0-0.1-0.1-0.3-0.1-0.3c1-0.1,2.2-0.2,2.9-0.3l0.2,0.3c-0.4,0.1-0.8,0.1-1.3,0.2v0.5h1.5
					v0.4h-1.5v0.5h1.3v2h-1.3v0.4h1.3V82h-1.3v0.6c0.4,0,0.9-0.1,1.4-0.1v0c0.6-0.8,0.8-1.9,0.8-3.2h-0.8v-0.4h0.8c0-0.5,0-1,0-1.5
					h0.4c0,0.5,0,1,0,1.5h1.5V79z M127.4,80h0.9v-0.5h-0.9V80z M128.3,80.9v-0.5h-0.9v0.5H128.3z M128.7,79.5V80h0.9v-0.5H128.7z
					 M129.7,80.3h-0.9v0.5h0.9V80.3z"/>
				<path class="st3" d="M136,82.1c-0.6,0.2-1.3,0.4-1.8,0.6l-0.1-0.4c0.2-0.1,0.5-0.1,0.8-0.2v-1.9h-0.7v-0.4h0.7v-1.6h-0.7v-0.4
					h1.8v0.4h-0.7v1.6h0.6v0.4h-0.6v1.8l0.6-0.2L136,82.1z M140.2,81.8c-0.3,0.2-0.7,0.4-1,0.5c0.3,0.3,0.7,0.5,1.2,0.7
					c-0.1,0.1-0.2,0.2-0.3,0.4c-0.9-0.3-1.6-1-1.9-1.9c-0.2,0.2-0.5,0.4-0.9,0.6v0.8l1.2-0.3c0,0.1,0,0.3,0,0.3
					c-1.3,0.3-1.5,0.4-1.6,0.5v0c0-0.1-0.1-0.3-0.2-0.3c0.1,0,0.2-0.1,0.2-0.4v-0.4c-0.3,0.1-0.5,0.2-0.8,0.3
					c-0.1-0.1-0.2-0.2-0.3-0.3c0.6-0.2,1.3-0.5,1.8-0.8h-1V80h3.2v1.4h-1.3c0.1,0.2,0.2,0.5,0.4,0.7c0.3-0.2,0.7-0.4,0.9-0.6
					L140.2,81.8z M140.3,79.6h-4.1v-0.4h4.1V79.6z M140,78.9h-3.6v-1.4h3.6V78.9z M137.5,77.8h-0.7v0.7h0.7V77.8z M137.1,81h2.3
					v-0.7h-2.3V81z M138.6,77.8h-0.7v0.7h0.7V77.8z M139.6,77.8h-0.7v0.7h0.7V77.8z"/>
				<path class="st3" d="M143.6,81.7c-0.7,0.3-1.4,0.6-2,0.8l-0.1-0.5c0.2-0.1,0.5-0.2,0.9-0.3v-2.4h-0.8v-0.4h0.8v-1.6h0.4v1.6h0.7
					v0.4h-0.7v2.3l0.7-0.3L143.6,81.7z M146.9,83c0.1,0,0.2,0,0.3,0c0.1,0,0.1-0.1,0.1-0.1c0-0.1,0-0.3,0-0.6
					c0.1,0.1,0.2,0.2,0.4,0.2c0,0.3,0,0.6-0.1,0.7c0,0.1-0.1,0.2-0.2,0.2c-0.1,0-0.3,0-0.4,0h-0.5c-0.2,0-0.4,0-0.5-0.1
					c-0.1-0.1-0.2-0.2-0.2-0.5v-1h-0.6c-0.1,1-0.5,1.5-1.7,1.8c0-0.1-0.2-0.3-0.2-0.4c1.1-0.2,1.4-0.6,1.5-1.4H144v-1.9h3.1v1.9
					h-0.8v1.1c0,0.1,0,0.2,0.1,0.2c0,0,0.1,0,0.2,0H146.9z M147.5,79.4h-3.8V79h1c0-0.2-0.1-0.5-0.2-0.7l0.4-0.1
					c0.1,0.2,0.2,0.5,0.3,0.7l-0.3,0.1h1.2c0.1-0.2,0.2-0.5,0.3-0.8l0.4,0.1c-0.1,0.2-0.2,0.5-0.3,0.7h1.1V79.4z M147.3,78.1h-3.4
					v-0.4h1.5c-0.1-0.2-0.1-0.3-0.2-0.5l0.4-0.1c0.1,0.2,0.2,0.4,0.2,0.6h1.4V78.1z M144.5,80.5h2.2v-0.5h-2.2V80.5z M144.5,81.3
					h2.2v-0.5h-2.2V81.3z"/>
				<path class="st3" d="M151.2,80c-0.4,1.4-1.2,2.4-2,2.9c-0.1-0.1-0.3-0.3-0.4-0.3c0.8-0.4,1.5-1.3,1.8-2.3h-1.7v-0.4h1.9l0.1,0
					L151.2,80z M154.8,79.4c-0.5,0.5-1.2,1.1-1.8,1.5c0.5,0.8,1.2,1.4,2.1,1.7c-0.1,0.1-0.2,0.3-0.3,0.4c-1.2-0.5-2-1.5-2.6-2.7v2.6
					c0,0.3-0.1,0.4-0.3,0.5c-0.2,0.1-0.6,0.1-1.1,0.1c0-0.1-0.1-0.3-0.2-0.5c0.4,0,0.8,0,0.9,0c0.1,0,0.2,0,0.2-0.2V79h-1.9v-0.4
					h2.4v0.5c0.2,0.5,0.4,1,0.6,1.5c0.5-0.4,1.2-1,1.6-1.5L154.8,79.4z M152.9,78.5c-0.6-0.3-1.7-0.7-2.5-0.9l0.2-0.4
					c0.8,0.2,1.9,0.6,2.5,0.9L152.9,78.5z"/>
				<path class="st3" d="M156.9,81.6c-0.1,0.6-0.2,1.3-0.4,1.8c-0.1,0-0.3-0.1-0.4-0.1c0.2-0.5,0.3-1.1,0.4-1.7L156.9,81.6z
					 M158.1,81.3c0-0.1,0-0.3-0.1-0.4c-1.3,0.2-1.5,0.3-1.6,0.3c0-0.1-0.1-0.3-0.1-0.4c0.1,0,0.3-0.2,0.5-0.5
					c0.1-0.1,0.3-0.4,0.6-0.8c-0.7,0.1-0.8,0.1-0.9,0.2c0-0.1-0.1-0.3-0.1-0.4c0.1,0,0.2-0.2,0.3-0.4c0.1-0.2,0.6-1,0.8-1.7l0.4,0.2
					c-0.3,0.7-0.6,1.3-1,1.9l0.7-0.1c0.2-0.3,0.3-0.6,0.5-0.9l0.4,0.2c-0.4,0.8-0.9,1.6-1.4,2.3l1-0.1c-0.1-0.2-0.1-0.5-0.2-0.7
					l0.3-0.1c0.2,0.5,0.3,1.1,0.4,1.4L158.1,81.3z M157.5,81.5c0.1,0.5,0.2,1.1,0.2,1.6l-0.4,0.1c0-0.4-0.1-1.1-0.2-1.6L157.5,81.5z
					 M158,81.4c0.1,0.4,0.3,0.9,0.4,1.3l-0.3,0.1c-0.1-0.3-0.2-0.9-0.4-1.3L158,81.4z M160,82.7c-0.5,0.2-1.2,0.5-1.6,0.7
					c0-0.1-0.1-0.2-0.2-0.3c0.4-0.2,1.1-0.4,1.5-0.6L160,82.7z M160.1,77.9h-1.8v-0.3h1.8v-0.4h0.4v0.4h1.7v0.3h-1.7v0.4h1.4v0.3
					h-3.3v-0.3h1.5V77.9z M158.4,78.9h3.8v1.2h-3.8V78.9z M160.9,82.4c0.5,0.2,1.1,0.4,1.4,0.6l-0.2,0.3c-0.4-0.2-0.9-0.4-1.4-0.7
					L160.9,82.4h-2.3v-2h3.3v2H160.9z M158.8,79.8h0.8v-0.6h-0.8V79.8z M159,81.1h2.5v-0.3H159V81.1z M159,81.6h2.5v-0.3H159V81.6z
					 M159,82.2h2.5v-0.3H159V82.2z M160.7,79.8v-0.6H160v0.6H160.7z M161.8,79.2h-0.7v0.6h0.7V79.2z"/>
				<path class="st3" d="M51,92.3c1.6-1.4,2.3-2.4,2.3-3.3c0-0.6-0.3-1-0.9-1c-0.4,0-0.8,0.3-1.1,0.6L51,88.3
					c0.4-0.4,0.8-0.7,1.4-0.7c0.9,0,1.4,0.6,1.4,1.5c0,1-0.8,2-2,3.2c0.3,0,0.6,0,0.8,0h1.4v0.5H51V92.3z"/>
				<path class="st3" d="M55.3,90.1c0-1.7,0.6-2.6,1.5-2.6c0.9,0,1.5,0.8,1.5,2.6c0,1.7-0.6,2.6-1.5,2.6
					C55.9,92.7,55.3,91.8,55.3,90.1z M57.8,90.1c0-1.5-0.4-2.1-1-2.1c-0.6,0-1,0.7-1,2.1c0,1.5,0.4,2.1,1,2.1
					C57.4,92.2,57.8,91.6,57.8,90.1z"/>
				<path class="st3" d="M59.6,92.3c1.6-1.4,2.3-2.4,2.3-3.3c0-0.6-0.3-1-0.9-1c-0.4,0-0.8,0.3-1.1,0.6l-0.3-0.3
					c0.4-0.4,0.8-0.7,1.4-0.7c0.9,0,1.4,0.6,1.4,1.5c0,1-0.8,2-2,3.2c0.3,0,0.6,0,0.8,0h1.4v0.5h-3.1V92.3z"/>
				<path class="st3" d="M63.7,92l0.3-0.4c0.3,0.3,0.7,0.6,1.3,0.6c0.6,0,1-0.4,1-1c0-0.6-0.4-1-1.6-1v-0.4c1,0,1.4-0.4,1.4-1
					c0-0.5-0.3-0.8-0.9-0.8c-0.4,0-0.8,0.2-1,0.5l-0.3-0.4c0.4-0.3,0.8-0.6,1.4-0.6c0.8,0,1.4,0.4,1.4,1.2c0,0.6-0.4,1-0.9,1.2v0
					c0.6,0.1,1.1,0.6,1.1,1.3c0,0.9-0.7,1.4-1.6,1.4C64.5,92.7,64.1,92.4,63.7,92z"/>
				<path class="st3" d="M74.3,91.5h-2.5v1.6h-0.5v-1.6h-3.2v-0.4h1.1v-1.8h2v-1.1h-1.7c-0.3,0.5-0.7,1-1.1,1.4
					c-0.1-0.1-0.3-0.2-0.4-0.3c0.7-0.6,1.2-1.4,1.6-2.4l0.4,0.1c-0.1,0.3-0.2,0.5-0.3,0.7h4.1v0.4h-2.2v1.1h2v0.4h-2v1.4h2.5V91.5z
					 M71.3,91.1v-1.4h-1.6v1.4H71.3z"/>
				<path class="st3" d="M76.2,89.5v3.6h-0.4v-5.9h2.4v2.2H76.2z M76.2,87.6v0.6h1.6v-0.6H76.2z M77.8,89.1v-0.6h-1.6v0.6H77.8z
					 M79.4,91.4V93H79v-1.5h-1c0,0.4-0.3,1.2-0.9,1.6c-0.1-0.1-0.2-0.2-0.3-0.3c0.6-0.4,0.8-1,0.8-1.4h-0.9v-0.4h0.9v-0.8h-0.8v-0.4
					h3.4v0.4h-0.8v0.8h1v0.4H79.4z M79,91.1v-0.8h-1v0.8H79z M81.3,92.5c0,0.3-0.1,0.4-0.3,0.5c-0.2,0.1-0.5,0.1-1,0.1
					c0-0.1-0.1-0.3-0.1-0.5c0.4,0,0.8,0,0.9,0c0.1,0,0.1,0,0.1-0.1v-3h-2.1v-2.3h2.5V92.5z M79.3,87.6v0.6h1.6v-0.6H79.3z
					 M80.9,89.1v-0.6h-1.6v0.6H80.9z"/>
				<path class="st3" d="M85.3,91.2c0,0,0,0.1,0,0.2c-0.1,1-0.2,1.3-0.3,1.5C84.8,93,84.7,93,84.5,93c-0.2,0-0.5,0-0.9,0
					c0-0.1-0.1-0.3-0.1-0.4c0.4,0,0.7,0,0.9,0c0.1,0,0.2,0,0.3-0.1c0.1-0.1,0.2-0.4,0.2-1.1h-1.6c0.1-0.4,0.2-1,0.2-1.5h1.4v-0.8
					h-1.2v-0.1c-0.3,0.1-0.5,0.2-0.8,0.3c-0.1-0.1-0.2-0.3-0.3-0.3c0.5-0.1,0.9-0.4,1.4-0.7c-0.2-0.2-0.5-0.5-0.8-0.6l0.3-0.2
					c0.3,0.2,0.6,0.4,0.8,0.6c0.3-0.2,0.5-0.5,0.7-0.8h-1.6v-0.4h1.9l0.1,0l0.3,0.1c-0.3,0.7-0.8,1.2-1.4,1.6h1.1v1.5h-1.4
					c0,0.3-0.1,0.5-0.1,0.7H85.3z M88.8,87.9c-0.3,0.3-0.7,0.6-1,0.8c0.4,0.2,0.8,0.4,1.2,0.5c-0.1,0.1-0.2,0.3-0.3,0.4
					c-0.4-0.1-0.7-0.3-1-0.4v1c0,0.1,0,0.2,0.1,0.2h0.5c0.1,0,0.2,0,0.3,0c0,0.1,0,0.2,0,0.3c-0.1,0-0.2,0-0.3,0h-0.6
					c-0.4,0-0.5-0.1-0.5-0.5v-0.7h-1v0.2c0,0.4-0.1,0.9-0.7,1.3c-0.1-0.1-0.2-0.2-0.3-0.3c0.6-0.3,0.6-0.7,0.6-1V89h1.6
					c-0.7-0.5-1.3-1.1-1.7-1.9l0.4-0.1c0.1,0.3,0.3,0.6,0.5,0.8c0.3-0.2,0.7-0.6,0.9-0.8l0.3,0.2c-0.3,0.3-0.7,0.6-1,0.8
					c0.2,0.1,0.3,0.3,0.5,0.4c0.3-0.2,0.7-0.6,1-0.8L88.8,87.9z M88.3,91c-0.2,0.5-0.5,0.9-0.9,1.2c0.4,0.2,0.7,0.4,0.9,0.6
					l-0.2,0.3c-0.3-0.2-0.6-0.4-1-0.7c-0.5,0.3-1,0.5-1.6,0.7c0-0.1-0.1-0.3-0.2-0.3c0.5-0.1,1-0.3,1.4-0.6
					c-0.4-0.2-0.8-0.5-1.1-0.6l0.2-0.2c0.4,0.2,0.8,0.4,1.2,0.7c0.3-0.2,0.5-0.5,0.7-0.8h-2.1v-0.3H88l0.1,0L88.3,91z"/>
				<path class="st3" d="M96.2,90c-0.9,2-3.3,2.8-5.6,3.1c0-0.1-0.1-0.3-0.2-0.4c1.1-0.1,2.3-0.4,3.2-0.8c-0.3-0.3-0.6-0.6-1-0.9
					c-0.3,0.2-0.7,0.4-1.1,0.5c-0.1-0.1-0.2-0.3-0.3-0.3c1.4-0.5,2.3-1.3,2.8-1.9l0.5,0.1c-0.1,0.2-0.3,0.3-0.5,0.5h1.7l0.1,0
					L96.2,90z M95.2,87.7c-0.9,1.5-2.9,2.4-4.6,2.8c0-0.1-0.1-0.3-0.2-0.4c0.8-0.1,1.6-0.4,2.3-0.8c-0.2-0.2-0.6-0.6-1-0.8
					c-0.3,0.2-0.5,0.3-0.8,0.4c-0.1-0.1-0.2-0.2-0.3-0.3c1.1-0.5,1.9-1.1,2.3-1.7l0.5,0.1c-0.1,0.2-0.3,0.3-0.5,0.5h1.8l0.1,0
					L95.2,87.7z M92.6,87.9c-0.1,0.1-0.3,0.2-0.5,0.3c0.4,0.2,0.8,0.6,1,0.8c0.6-0.3,1.1-0.7,1.4-1.2H92.6z M93.6,90.3
					c-0.2,0.2-0.4,0.3-0.7,0.5c0.4,0.3,0.8,0.6,1,0.9c0.6-0.4,1.2-0.8,1.5-1.4H93.6z"/>
				<path class="st3" d="M102.9,92.6c0.3,0,0.3-0.2,0.4-1.2c0.1,0.1,0.3,0.2,0.4,0.2c-0.1,1.1-0.2,1.5-0.7,1.5h-1
					c-0.6,0-0.7-0.1-0.7-0.7v-2.5h-1.3c-0.1,1.5-0.5,2.7-2,3.3c-0.1-0.1-0.2-0.3-0.3-0.3c1.5-0.5,1.7-1.6,1.8-2.9h-1.8v-0.4h5.9v0.4
					h-1.9v2.5c0,0.2,0.1,0.3,0.3,0.3H102.9z M103,87.9h-4.8v-0.4h4.8V87.9z"/>
				<path class="st3" d="M105.9,90.8c-0.1,0.6-0.4,1.2-0.7,1.6c-0.1-0.1-0.2-0.2-0.3-0.2c0.3-0.4,0.5-0.9,0.6-1.5L105.9,90.8z
					 M108,88.2h-3.1v-0.4h1.5c-0.1-0.2-0.2-0.5-0.3-0.8l0.4-0.1c0.1,0.3,0.3,0.6,0.4,0.9h1.1V88.2z M106.7,90.4v2.3
					c0,0.2,0,0.3-0.2,0.4c-0.1,0.1-0.4,0.1-0.7,0.1c0-0.1-0.1-0.3-0.1-0.4c0.2,0,0.5,0,0.5,0c0.1,0,0.1,0,0.1-0.1v-2.2h-1v-1.6h2.4
					v1.6H106.7z M105.7,90h1.6v-0.9h-1.6V90z M107.5,92c-0.1-0.3-0.3-0.8-0.5-1.2l0.3-0.1c0.2,0.4,0.4,0.9,0.5,1.2L107.5,92z
					 M109.3,89.1c-0.1,1.5-0.5,3.1-1.5,4c-0.1-0.1-0.2-0.2-0.3-0.3c1-0.9,1.3-2.3,1.4-3.8H108v-0.4h0.9c0-0.6,0-1.2,0-1.7h0.4
					c0,0.5,0,1.1,0,1.7h1.6v0.4H109.3z M110.4,92.6c0.1,0,0.2,0,0.2,0c0,0,0.1-0.1,0.1-0.2c0-0.1,0-0.4,0-0.7
					c0.1,0.1,0.2,0.1,0.4,0.2c0,0.3,0,0.7-0.1,0.8c0,0.1-0.1,0.2-0.2,0.3c-0.1,0.1-0.3,0.1-0.4,0.1H110c-0.1,0-0.3,0-0.4-0.1
					c-0.1-0.1-0.2-0.2-0.2-0.6v-2.6h0.4v2.6c0,0.2,0,0.2,0.1,0.3s0.1,0,0.2,0H110.4z M110.4,88.4c-0.1-0.3-0.4-0.7-0.7-1l0.3-0.2
					c0.3,0.3,0.6,0.7,0.7,1L110.4,88.4z"/>
				<path class="st3" d="M114.7,92c-0.5,0.4-1.4,0.7-2.1,0.9c-0.1-0.1-0.2-0.3-0.3-0.3c0.7-0.1,1.6-0.4,2-0.7L114.7,92z M118.2,91.1
					v0.4h-2.7v1.6H115v-1.6h-2.7v-0.4h2.7v-0.5h-2.1v-0.4h2.1v-0.5h-2.4v-0.4h1.5c-0.1-0.2-0.2-0.5-0.4-0.7l0.4-0.1h-1.8v-0.4h1.1
					c-0.1-0.3-0.3-0.7-0.6-1l0.4-0.1c0.2,0.3,0.5,0.7,0.6,1l-0.4,0.1h0.9v-1.2h0.4v1.2h0.9v-1.2h0.4v1.2h0.9l-0.3-0.1
					c0.2-0.3,0.4-0.7,0.5-1l0.5,0.1c-0.2,0.4-0.4,0.7-0.6,1h1.1v0.4h-1.8l0.4,0.1c-0.2,0.2-0.3,0.5-0.5,0.7h1.6v0.4h-2.5v0.5h2.1
					v0.4h-2.1v0.5H118.2z M114.2,88.5c0.2,0.2,0.3,0.5,0.4,0.7l-0.3,0.1h1.9l-0.2-0.1c0.1-0.2,0.3-0.5,0.4-0.7H114.2z M116.2,91.8
					c0.7,0.2,1.5,0.5,2,0.8l-0.3,0.3c-0.5-0.2-1.3-0.6-2-0.8L116.2,91.8z"/>
				<path class="st3" d="M121.2,87.1c-0.1,0.4-0.3,0.9-0.5,1.3v4.7h-0.4v-3.9c-0.2,0.4-0.4,0.7-0.7,1c0-0.1-0.2-0.3-0.2-0.4
					c0.6-0.7,1.1-1.7,1.5-2.8L121.2,87.1z M123.7,92.5c0.3,0.1,0.5,0.1,0.8,0.1c0.2,0,1,0,1.2,0c-0.1,0.1-0.1,0.3-0.1,0.4h-1.1
					c-1.1,0-1.9-0.2-2.4-1.2c-0.2,0.6-0.4,1-0.8,1.4c-0.1-0.1-0.3-0.2-0.4-0.3c0.6-0.6,0.9-1.5,1-2.7l0.4,0c0,0.3-0.1,0.6-0.1,0.9
					c0.2,0.7,0.6,1,1,1.2v-2.8h-1.5v-2.3h3.4v2.3h-1.5v1.1h1.6V91h-1.6V92.5z M122.2,89.1h2.5v-1.5h-2.5V89.1z"/>
				<path class="st3" d="M128.4,90.2c-0.1,0.6-0.3,1.3-0.6,1.8c0.1,0.1,0.3,0.2,0.6,0.4c0.5,0.3,1.1,0.3,1.9,0.3
					c0.9,0,2-0.1,2.7-0.1c-0.1,0.1-0.1,0.3-0.1,0.5c-0.5,0-1.8,0.1-2.6,0.1c-0.9,0-1.5-0.1-2-0.4c-0.3-0.2-0.5-0.4-0.7-0.4
					c-0.1,0-0.4,0.4-0.6,0.9l-0.3-0.4c0.2-0.4,0.5-0.7,0.7-0.8c0.2-0.4,0.4-1,0.5-1.4h-0.9c0.2-0.4,0.4-1,0.6-1.5h-0.8v-0.4h1.4
					c-0.2,0.5-0.4,1.1-0.6,1.5h0.5l0.1,0L128.4,90.2z M127.6,88.2c-0.1-0.3-0.2-0.8-0.3-1.1l0.4-0.1c0.1,0.4,0.3,0.8,0.3,1.1
					L127.6,88.2z M129.1,88.9c-0.2,0.2-0.4,0.4-0.5,0.6c0-0.1-0.2-0.3-0.3-0.4c0.6-0.5,1.1-1.3,1.4-2.2l0.4,0.1
					c-0.1,0.3-0.3,0.7-0.5,1h1.4c-0.1-0.3-0.3-0.6-0.4-0.8l0.4-0.1c0.2,0.3,0.4,0.7,0.5,1h1.2v0.4h-1.5v0.7h1.3v0.4h-1.3v0.7h1.3
					v0.4h-1.3v0.8h1.6v0.4h-3.4v0.4h-0.4V88.9z M130.9,88.5h-1.3v0.7h1.3V88.5z M130.9,89.5h-1.3v0.7h1.3V89.5z M130.9,90.7h-1.3
					v0.8h1.3V90.7z"/>
				<path class="st3" d="M136.4,91c-0.1-0.2-0.5-0.6-0.7-0.9v3h-0.4v-2.8c-0.3,0.3-0.6,0.6-1,0.8c0-0.1-0.1-0.3-0.2-0.4
					c0.7-0.5,1.6-1.3,2-2.2h-1.8v-0.4h2.1l0.1,0l0.2,0.2c-0.2,0.5-0.5,1-0.9,1.4c0.3,0.3,0.8,0.8,0.9,1L136.4,91z M135.6,88
					c-0.1-0.2-0.4-0.6-0.6-0.9l0.3-0.2c0.3,0.3,0.5,0.6,0.7,0.9L135.6,88z M140.4,92.4v0.4h-3.9v-0.4h1.8v-2.9h-1.5v-0.4h1.5v-2.2
					h0.5v2.2h1.5v0.4h-1.5v2.9H140.4z"/>
				<path class="st3" d="M145,87.1c0,0-0.1,0.1-0.1,0.1c0.6,0.6,1.8,1.2,2.9,1.4c-0.1,0.1-0.2,0.2-0.3,0.4c-0.5-0.2-1.1-0.4-1.7-0.7
					v0.2h-2.3v-0.2c-0.5,0.3-1.1,0.5-1.7,0.7c0-0.1-0.2-0.3-0.3-0.3c1.2-0.3,2.4-0.9,3.1-1.8L145,87.1z M142.3,88.9h4.5v1.7h-4.5
					V88.9z M142.7,90.2h1.7v-1h-1.7V90.2z M142.7,90.9h3.8v2.2h-0.5v-0.2h-2.9v0.2h-0.4V90.9z M143.5,89.3c0.2,0.2,0.4,0.6,0.4,0.8
					l-0.3,0.1c-0.1-0.2-0.2-0.6-0.4-0.8L143.5,89.3z M143.2,91.2v0.5h2.9v-0.5H143.2z M146.1,92.5V92h-2.9v0.5H146.1z M145.6,88.2
					c-0.4-0.2-0.7-0.5-1-0.7c-0.3,0.3-0.6,0.5-0.9,0.7H145.6z M146.4,89.2h-1.7v1h1.7V89.2z M145.2,90.1c0.1-0.2,0.3-0.6,0.4-0.8
					l0.4,0.1c-0.1,0.3-0.3,0.6-0.5,0.8L145.2,90.1z"/>
				<path class="st3" d="M151.2,89.7c-0.4,1.4-1.2,2.4-2,2.9c-0.1-0.1-0.3-0.3-0.4-0.3c0.8-0.4,1.5-1.3,1.8-2.3h-1.7v-0.4h1.9l0.1,0
					L151.2,89.7z M154.8,89.1c-0.5,0.5-1.2,1.1-1.8,1.5c0.5,0.8,1.2,1.4,2.1,1.7c-0.1,0.1-0.2,0.3-0.3,0.4c-1.2-0.5-2-1.5-2.6-2.7
					v2.6c0,0.3-0.1,0.4-0.3,0.5c-0.2,0.1-0.6,0.1-1.1,0.1c0-0.1-0.1-0.3-0.2-0.5c0.4,0,0.8,0,0.9,0c0.1,0,0.2,0,0.2-0.2v-3.7h-1.9
					v-0.4h2.4v0.5c0.2,0.5,0.4,1,0.6,1.5c0.5-0.4,1.2-1,1.6-1.5L154.8,89.1z M152.9,88.2c-0.6-0.3-1.7-0.7-2.5-0.9l0.2-0.4
					c0.8,0.2,1.9,0.6,2.5,0.9L152.9,88.2z"/>
				<path class="st3" d="M156.9,91.3c-0.1,0.6-0.2,1.3-0.4,1.8c-0.1,0-0.3-0.1-0.4-0.1c0.2-0.5,0.3-1.1,0.4-1.7L156.9,91.3z
					 M158.1,91c0-0.1,0-0.3-0.1-0.4c-1.3,0.2-1.5,0.3-1.6,0.3c0-0.1-0.1-0.3-0.1-0.4c0.1,0,0.3-0.2,0.5-0.5c0.1-0.1,0.3-0.4,0.6-0.8
					c-0.7,0.1-0.8,0.1-0.9,0.2c0-0.1-0.1-0.3-0.1-0.4c0.1,0,0.2-0.2,0.3-0.4c0.1-0.2,0.6-1,0.8-1.7l0.4,0.2c-0.3,0.7-0.6,1.3-1,1.9
					l0.7-0.1c0.2-0.3,0.3-0.6,0.5-0.9l0.4,0.2c-0.4,0.8-0.9,1.6-1.4,2.3l1-0.1c-0.1-0.2-0.1-0.5-0.2-0.7l0.3-0.1
					c0.2,0.5,0.3,1.1,0.4,1.4L158.1,91z M157.5,91.2c0.1,0.5,0.2,1.1,0.2,1.6l-0.4,0.1c0-0.4-0.1-1.1-0.2-1.6L157.5,91.2z M158,91.1
					c0.1,0.4,0.3,0.9,0.4,1.3l-0.3,0.1c-0.1-0.3-0.2-0.9-0.4-1.3L158,91.1z M160,92.4c-0.5,0.2-1.2,0.5-1.6,0.7
					c0-0.1-0.1-0.2-0.2-0.3c0.4-0.2,1.1-0.4,1.5-0.6L160,92.4z M160.1,87.6h-1.8v-0.3h1.8v-0.4h0.4v0.4h1.7v0.3h-1.7V88h1.4v0.3
					h-3.3V88h1.5V87.6z M158.4,88.6h3.8v1.2h-3.8V88.6z M160.9,92.2c0.5,0.2,1.1,0.4,1.4,0.6l-0.2,0.3c-0.4-0.2-0.9-0.4-1.4-0.7
					L160.9,92.2h-2.3v-2h3.3v2H160.9z M158.8,89.5h0.8V89h-0.8V89.5z M159,90.8h2.5v-0.3H159V90.8z M159,91.3h2.5V91H159V91.3z
					 M159,91.9h2.5v-0.3H159V91.9z M160.7,89.5V89H160v0.6H160.7z M161.8,89h-0.7v0.6h0.7V89z"/>
			</g>
		</g>
		<g>
			<g>
				<path class="st3" d="M196.2,59c-0.1,0.7-0.3,1.5-0.4,2c-0.1-0.1-0.4-0.1-0.6-0.2c0.2-0.5,0.3-1.3,0.4-2L196.2,59z M197.8,58.5
					c0-0.1-0.1-0.3-0.1-0.4c-1.8,0.3-2.1,0.3-2.2,0.4c0-0.2-0.2-0.5-0.3-0.7c0.2-0.1,0.4-0.3,0.7-0.6c0.1-0.1,0.4-0.5,0.6-0.9
					c-0.8,0.1-1,0.1-1.1,0.2c0-0.2-0.2-0.5-0.3-0.7c0.1,0,0.3-0.2,0.5-0.5c0.2-0.3,0.7-1.2,1-2.1l0.7,0.3c-0.3,0.8-0.8,1.6-1.2,2.2
					l0.8-0.1c0.2-0.4,0.5-0.8,0.7-1.2l0.7,0.4c-0.5,1-1.2,2-1.9,2.8l1.1-0.2c-0.1-0.3-0.2-0.5-0.3-0.8l0.5-0.2
					c0.2,0.5,0.5,1.3,0.6,1.7L197.8,58.5z M197,58.8c0.1,0.6,0.2,1.3,0.2,1.8l-0.6,0.2c0-0.5-0.1-1.3-0.2-1.9L197,58.8z M197.9,58.6
					c0.2,0.5,0.4,1.2,0.5,1.7l-0.6,0.2c-0.1-0.5-0.3-1.2-0.5-1.7L197.9,58.6z M202.9,60.5c-0.4-0.3-1.1-0.9-1.8-1.3v1.2
					c0,0.4-0.1,0.6-0.3,0.7c-0.2,0.1-0.6,0.1-1.1,0.1c0-0.2-0.1-0.5-0.2-0.7c0.3,0,0.6,0,0.7,0c0.1,0,0.1,0,0.1-0.1v-1.2
					c-0.6,0.4-1.1,0.8-1.6,1.2l-0.4-0.6c0.5-0.3,1.3-0.8,2-1.3v-1.4h-2.1v-0.7h3c0-0.2,0.1-0.3,0.1-0.5h-2.6
					c0.2-0.7,0.5-1.8,0.7-2.7l0.8,0.1c0,0.2-0.1,0.4-0.1,0.7h1.7l0.1,0l0.6,0.1c-0.1,0.7-0.3,1.7-0.5,2.4h1.3v0.7h-2.2v1.3l0.3,0.2
					c0.3-0.4,0.7-0.9,0.9-1.2l0.7,0.4c-0.3,0.4-0.7,0.9-1,1.2c0.6,0.4,1.1,0.7,1.4,1L202.9,60.5z M199.5,58.9c-0.2-0.3-0.7-0.7-1-1
					l0.4-0.4c0.3,0.3,0.8,0.7,1,1L199.5,58.9z M201.5,55.3c0.1-0.2,0.1-0.5,0.1-0.7h-1.7c-0.1,0.2-0.1,0.5-0.2,0.7H201.5z"/>
				<path class="st3" d="M210.9,60.4c0.8,0,1-0.2,1.1-1.3c0.2,0.1,0.6,0.2,0.8,0.3c-0.2,1.4-0.5,1.8-1.8,1.8h-3.2
					c-1.5,0-1.9-0.3-1.9-1.4v-3.5c-0.2,0.2-0.4,0.3-0.7,0.5c-0.1-0.2-0.3-0.6-0.4-0.8c1-0.6,2.1-1.7,2.7-2.8l0.7,0.3
					c-0.1,0.2-0.2,0.3-0.3,0.5h2.2l0.2,0l0.5,0.4c-0.3,0.4-0.7,0.9-1.1,1.3h2.3v3.2H211v-0.3h-4.5v1.3c0,0.5,0.2,0.6,1.1,0.6H210.9z
					 M207.3,54.7c-0.3,0.3-0.5,0.7-0.8,1h2.2c0.3-0.3,0.6-0.6,0.8-1H207.3z M206.5,57.7h1.8v-1.3h-1.8V57.7z M211,56.4h-1.9v1.3h1.9
					V56.4z"/>
				<path class="st3" d="M216.9,57.8c-0.3,0.1-0.6,0.2-0.8,0.2v2.3c0,0.4-0.1,0.6-0.3,0.7c-0.3,0.1-0.6,0.1-1.2,0.1
					c0-0.2-0.1-0.5-0.2-0.7c0.4,0,0.8,0,0.9,0c0.1,0,0.2,0,0.2-0.2v-2.1l-1,0.3l-0.2-0.8c0.3-0.1,0.8-0.2,1.2-0.3v-1.7h-1.1v-0.8
					h1.1v-1.7h0.8v1.7h1v0.8h-1v1.5l0.7-0.2L216.9,57.8z M221.6,57.2c-0.3,1.1-0.9,1.9-1.6,2.5c0.6,0.4,1.4,0.6,2.2,0.8
					c-0.2,0.2-0.4,0.5-0.5,0.8c-0.9-0.2-1.7-0.6-2.4-1c-0.7,0.5-1.6,0.8-2.5,1c-0.1-0.2-0.3-0.6-0.4-0.7c0.8-0.2,1.6-0.4,2.2-0.8
					c-0.6-0.5-1-1.1-1.3-1.9l0.2-0.1H217V57h3.8l0.1,0L221.6,57.2z M218.6,54.5c0,0.8-0.2,1.8-1.4,2.4c-0.1-0.2-0.4-0.5-0.5-0.6
					c1-0.5,1.1-1.2,1.1-1.8v-0.9h2.9v2c0,0.2,0,0.3,0.2,0.3h0.6c0.1,0,0.3,0,0.5-0.1c0,0.2,0,0.5,0.1,0.7c-0.1,0-0.3,0.1-0.5,0.1
					h-0.7c-0.7,0-0.9-0.3-0.9-1v-1.2h-1.3V54.5z M218.1,57.8c0.3,0.6,0.7,1.1,1.2,1.5c0.5-0.4,0.9-0.9,1.2-1.5H218.1z"/>
				<path class="st3" d="M229,54.5c0,0.1,0,0.1,0,0.2c0.5,0.5,1.4,0.8,2.6,0.8c-0.2,0.2-0.4,0.5-0.4,0.7c-1-0.1-1.8-0.5-2.3-1
					c-0.3,0.4-1,0.8-2.5,1c-0.1-0.2-0.3-0.5-0.4-0.6h-2.2V55h2.5v0.6c1.9-0.2,2.1-0.7,2.1-1.1v-0.1h-0.7c-0.2,0.3-0.4,0.6-0.6,0.8
					c-0.1-0.1-0.4-0.3-0.6-0.4c0.5-0.4,0.8-1,1-1.6l0.7,0.2c-0.1,0.1-0.1,0.3-0.2,0.4h2.7l0.1,0l0.6,0.2c-0.2,0.5-0.5,1-0.8,1.3
					l-0.6-0.2c0.1-0.2,0.2-0.4,0.4-0.6H229V54.5z M228.9,59.8c0.9,0.3,1.9,0.7,2.5,1l-0.7,0.4c-0.5-0.3-1.5-0.7-2.4-1l0.5-0.4h-2.6
					l0.7,0.3c-0.7,0.4-1.8,0.8-2.7,1.1c-0.1-0.2-0.4-0.5-0.6-0.6c0.9-0.2,1.9-0.5,2.5-0.8h-1.4v-3.5h5.7v3.5H228.9z M226,54.3h-2.1
					v-0.6h2.1V54.3z M225.5,57.3h4.1v-0.5h-4.1V57.3z M225.5,58.3h4.1v-0.5h-4.1V58.3z M225.5,59.3h4.1v-0.5h-4.1V59.3z"/>
				<path class="st3" d="M195.8,71.9c-0.1,0.5-0.2,1.2-0.3,1.6c-0.1,0-0.3-0.1-0.4-0.1c0.1-0.4,0.3-1,0.3-1.6L195.8,71.9z
					 M197.2,71.5c0-0.1-0.1-0.2-0.1-0.3c-1.5,0.2-1.7,0.3-1.8,0.3c0-0.1-0.1-0.3-0.1-0.4c0.1,0,0.3-0.2,0.5-0.5
					c0.1-0.1,0.3-0.4,0.6-0.8c-0.8,0.1-0.9,0.1-1,0.2c0-0.1-0.1-0.3-0.1-0.4c0.1,0,0.2-0.2,0.4-0.4c0.1-0.2,0.6-1,0.9-1.7l0.4,0.2
					c-0.3,0.7-0.7,1.3-1,1.8l0.8-0.1c0.2-0.3,0.4-0.6,0.5-0.9l0.4,0.2c-0.5,0.8-1,1.6-1.6,2.3l1.1-0.2c-0.1-0.2-0.2-0.5-0.2-0.7
					l0.3-0.1c0.2,0.4,0.4,1,0.5,1.3L197.2,71.5z M196.5,71.8c0.1,0.5,0.2,1,0.2,1.4l-0.4,0.1c0-0.4-0.1-1-0.2-1.4L196.5,71.8z
					 M197.1,71.6c0.2,0.4,0.3,1,0.4,1.3l-0.3,0.1c-0.1-0.4-0.2-0.9-0.4-1.3L197.1,71.6z M201.1,73.2c-0.3-0.3-1-0.8-1.5-1.2v1.2
					c0,0.2,0,0.3-0.2,0.4c-0.2,0.1-0.4,0.1-0.8,0.1c0-0.1-0.1-0.3-0.1-0.4c0.3,0,0.5,0,0.6,0c0.1,0,0.1,0,0.1-0.1v-1.2
					c-0.5,0.4-1,0.8-1.4,1.1l-0.3-0.3c0.4-0.3,1-0.7,1.6-1.2v-1.1h-1.6v-0.4h2.4c0-0.2,0.1-0.4,0.1-0.5H198c0.2-0.5,0.4-1.4,0.5-2
					l0.4,0c0,0.2-0.1,0.4-0.1,0.6h1.6l0.1,0l0.3,0.1c-0.1,0.5-0.2,1.3-0.4,1.9h1v0.4h-1.8v1.1c0.1,0.1,0.2,0.1,0.3,0.2
					c0.3-0.3,0.6-0.7,0.8-1L201,71c-0.3,0.3-0.6,0.7-0.8,1c0.5,0.3,0.9,0.7,1.2,0.9L201.1,73.2z M198.5,71.9
					c-0.2-0.2-0.5-0.6-0.8-0.9l0.3-0.2c0.3,0.2,0.6,0.6,0.8,0.8L198.5,71.9z M200.1,69.2c0-0.2,0.1-0.5,0.1-0.7h-1.5
					c-0.1,0.2-0.1,0.5-0.2,0.7H200.1z"/>
				<path class="st3" d="M205.8,68.9h-2.2V70h-0.4v-1.4h2.6v-0.5h-2.3v-0.3h5.1v0.3h-2.3v0.5h2.7V70h-0.4v-1.1h-2.2v1.6h-0.4V68.9z
					 M208.3,73.2c0.4,0,0.4-0.1,0.5-0.8c0.1,0.1,0.3,0.1,0.4,0.1c-0.1,0.8-0.2,1-0.8,1h-1.6c-0.7,0-0.9-0.1-0.9-0.6v-0.2h-1.6v0.4
					h-0.4v-2.3h4.6v2h-2.1V73c0,0.2,0.1,0.3,0.5,0.3H208.3z M203.8,70.1c0.4-0.1,1-0.1,1.6-0.2l0,0.3c-0.5,0.1-1,0.2-1.5,0.3
					L203.8,70.1z M204.1,69.1c0.4,0.1,1,0.2,1.3,0.4l-0.1,0.3c-0.3-0.1-0.9-0.3-1.3-0.4L204.1,69.1z M204.2,71.1v0.5h1.6v-0.5H204.2
					z M205.8,72.4v-0.5h-1.6v0.5H205.8z M207.9,71.1h-1.7v0.5h1.7V71.1z M207.9,72.4v-0.5h-1.7v0.5H207.9z M208.1,70.5
					c-0.4-0.1-1.1-0.3-1.6-0.4l0.1-0.3c0.5,0.1,1.2,0.2,1.6,0.3L208.1,70.5z M208.1,69.3c-0.4,0.2-1,0.3-1.4,0.4l-0.2-0.2
					c0.4-0.1,1-0.3,1.3-0.4L208.1,69.3z"/>
				<path class="st3" d="M212.7,67.7c-0.2,0.5-0.4,1-0.7,1.4v4.6h-0.4v-3.9c-0.2,0.3-0.5,0.6-0.8,0.9c0-0.1-0.2-0.3-0.3-0.4
					c0.7-0.6,1.3-1.7,1.7-2.7L212.7,67.7z M213.9,71.7c-0.3,0.6-0.8,1.2-1.2,1.7c-0.1-0.1-0.3-0.2-0.4-0.3c0.4-0.4,0.8-1,1.1-1.5
					L213.9,71.7z M214.9,71.2v2.5h-0.5v-2.5h-2v-0.4h2V70H213v-2.1h3.5V70h-1.5v0.8h1.9v0.4H214.9z M213.4,69.5h2.6v-1.3h-2.6V69.5z
					 M215.6,71.6c0.5,0.5,1,1.1,1.2,1.5l-0.4,0.2c-0.2-0.4-0.7-1.1-1.2-1.6L215.6,71.6z"/>
				<path class="st3" d="M220.5,67.9c-0.2,0.5-0.4,1.2-0.7,1.8c0.5,0.6,0.6,1.1,0.6,1.5c0,0.4-0.1,0.6-0.2,0.8
					c-0.1,0.1-0.2,0.1-0.3,0.1c-0.1,0-0.3,0-0.4,0c0-0.1,0-0.3-0.1-0.4c0.2,0,0.3,0,0.4,0c0.1,0,0.2,0,0.2-0.1
					c0.1-0.1,0.1-0.3,0.1-0.5c0-0.4-0.1-0.8-0.6-1.4c0.2-0.5,0.4-1.1,0.5-1.5h-0.9v5.5h-0.4v-5.9h1.4l0.1,0L220.5,67.9z M221.7,71.8
					c-0.1,0.2-0.1,0.4-0.2,0.5c0.3,0.2,0.6,0.4,0.8,0.6l-0.2,0.3c-0.1-0.2-0.4-0.4-0.7-0.6c-0.3,0.4-0.6,0.8-1,1.1
					c-0.1-0.1-0.2-0.2-0.3-0.3c0.6-0.4,1.1-1,1.3-1.7L221.7,71.8z M222.7,67.6c0,0.1-0.1,0.1-0.1,0.2c0.5,0.5,1.4,1,2.1,1.2
					c-0.1,0.1-0.2,0.3-0.2,0.4c-0.7-0.3-1.5-0.8-2.1-1.3c-0.4,0.5-1,1-1.7,1.4c-0.1-0.1-0.2-0.2-0.3-0.3c0.8-0.4,1.6-1.1,1.9-1.7
					L222.7,67.6z M220.7,69.9h1.5v1.6h-1.5V69.9z M221,71.2h0.8v-0.9H221V71.2z M223.4,69.4h-2V69h2V69.4z M223.6,71.8
					c0,0.2-0.1,0.4-0.2,0.6c0.4,0.3,0.9,0.7,1.2,0.9l-0.3,0.3c-0.2-0.2-0.7-0.6-1.1-0.9c-0.2,0.4-0.5,0.7-0.8,1
					c-0.1-0.1-0.2-0.2-0.3-0.3c0.5-0.4,0.9-1,1.1-1.7L223.6,71.8z M224.2,71.5h-1.5v-1.6h1.5V71.5z M223.8,70.3H223v0.9h0.8V70.3z"
					/>
				<path class="st3" d="M228.5,71.2l-0.4,0.4c-0.4-0.5-1-1.1-1.5-1.5l0.4-0.4C227.5,70.1,228.1,70.7,228.5,71.2z"/>
				<path class="st3" d="M232.7,72v1.1l1.3-0.3c0,0.1,0,0.3,0,0.3c-1.6,0.4-1.8,0.4-1.9,0.5c0-0.1-0.1-0.3-0.2-0.4
					c0.1,0,0.3-0.2,0.3-0.4V72h-0.7c-0.1,0.6-0.3,1.2-0.6,1.7c-0.1-0.1-0.3-0.2-0.4-0.2c0.6-0.7,0.7-1.7,0.7-2.4v-0.9h5.3v0.3h-4.9
					V71h4.5v0.3h-4.5c0,0.1,0,0.3,0,0.4h5V72h-2.7c0.2,0.2,0.4,0.4,0.7,0.6c0.4-0.2,1-0.4,1.3-0.6l0.3,0.3c-0.4,0.2-0.9,0.4-1.3,0.5
					c0.5,0.2,1.1,0.4,1.8,0.5c-0.1,0.1-0.2,0.3-0.3,0.4c-1.4-0.2-2.4-0.7-3-1.7H232.7z M236.1,69.9h-4.8V68h1.4v-0.5h0.4V68h1.1
					v-0.5h0.4V68h1.5V69.9z M231.7,68.8h1v-0.5h-1V68.8z M231.7,69.6h1v-0.5h-1V69.6z M233.1,68.3v0.5h1.1v-0.5H233.1z M233.1,69.1
					v0.5h1.1v-0.5H233.1z M235.7,68.3h-1.1v0.5h1.1V68.3z M235.7,69.1h-1.1v0.5h1.1V69.1z"/>
				<path class="st3" d="M240.8,72.6c-0.5,0.4-1.4,0.7-2.1,0.9c-0.1-0.1-0.2-0.3-0.3-0.3c0.7-0.1,1.6-0.4,2-0.7L240.8,72.6z
					 M244.3,71.7v0.4h-2.7v1.6h-0.4v-1.6h-2.7v-0.4h2.7v-0.5h-2.1v-0.4h2.1v-0.5h-2.4v-0.4h1.5c-0.1-0.2-0.2-0.5-0.4-0.7l0.4-0.1
					h-1.8v-0.4h1.1c-0.1-0.3-0.3-0.7-0.6-1l0.4-0.1c0.2,0.3,0.5,0.7,0.6,1l-0.4,0.1h0.9v-1.2h0.4v1.2h0.9v-1.2h0.4v1.2h0.9l-0.3-0.1
					c0.2-0.3,0.4-0.7,0.5-1l0.5,0.1c-0.2,0.4-0.4,0.7-0.6,1h1.1v0.4h-1.8l0.4,0.1c-0.2,0.2-0.3,0.5-0.5,0.7h1.6v0.4h-2.5v0.5h2.1
					v0.4h-2.1v0.5H244.3z M240.3,69.1c0.2,0.2,0.3,0.5,0.4,0.7l-0.3,0.1h1.9l-0.2-0.1c0.1-0.2,0.3-0.5,0.4-0.7H240.3z M242.3,72.4
					c0.7,0.2,1.5,0.5,2,0.8l-0.3,0.3c-0.5-0.2-1.3-0.6-2-0.8L242.3,72.4z"/>
				<path class="st3" d="M248.1,67.7c-0.2,0.5-0.4,1-0.7,1.4v4.6h-0.4v-3.9c-0.2,0.3-0.5,0.6-0.8,0.9c0-0.1-0.2-0.3-0.3-0.4
					c0.7-0.6,1.3-1.7,1.7-2.7L248.1,67.7z M249.3,71.7c-0.3,0.6-0.8,1.2-1.2,1.7c-0.1-0.1-0.3-0.2-0.4-0.3c0.4-0.4,0.8-1,1.1-1.5
					L249.3,71.7z M250.3,71.2v2.5h-0.5v-2.5h-2v-0.4h2V70h-1.5v-2.1h3.5V70h-1.5v0.8h1.9v0.4H250.3z M248.7,69.5h2.6v-1.3h-2.6V69.5
					z M251,71.6c0.5,0.5,1,1.1,1.2,1.5l-0.4,0.2c-0.2-0.4-0.7-1.1-1.2-1.6L251,71.6z"/>
				<path class="st3" d="M255.8,67.9c-0.2,0.5-0.4,1.2-0.7,1.8c0.5,0.6,0.6,1.1,0.6,1.5c0,0.4-0.1,0.6-0.2,0.8
					c-0.1,0.1-0.2,0.1-0.3,0.1c-0.1,0-0.3,0-0.4,0c0-0.1,0-0.3-0.1-0.4c0.2,0,0.3,0,0.4,0c0.1,0,0.2,0,0.2-0.1
					c0.1-0.1,0.1-0.3,0.1-0.5c0-0.4-0.1-0.8-0.6-1.4c0.2-0.5,0.4-1.1,0.5-1.5h-0.9v5.5H254v-5.9h1.4l0.1,0L255.8,67.9z M257,71.8
					c-0.1,0.2-0.1,0.4-0.2,0.5c0.3,0.2,0.6,0.4,0.8,0.6l-0.2,0.3c-0.1-0.2-0.4-0.4-0.7-0.6c-0.3,0.4-0.6,0.8-1,1.1
					c-0.1-0.1-0.2-0.2-0.3-0.3c0.6-0.4,1.1-1,1.3-1.7L257,71.8z M258.1,67.6c0,0.1-0.1,0.1-0.1,0.2c0.5,0.5,1.4,1,2.1,1.2
					c-0.1,0.1-0.2,0.3-0.2,0.4c-0.7-0.3-1.5-0.8-2.1-1.3c-0.4,0.5-1,1-1.7,1.4c-0.1-0.1-0.2-0.2-0.3-0.3c0.8-0.4,1.6-1.1,1.9-1.7
					L258.1,67.6z M256.1,69.9h1.5v1.6h-1.5V69.9z M256.4,71.2h0.8v-0.9h-0.8V71.2z M258.8,69.4h-2V69h2V69.4z M258.9,71.8
					c0,0.2-0.1,0.4-0.2,0.6c0.4,0.3,0.9,0.7,1.2,0.9l-0.3,0.3c-0.2-0.2-0.7-0.6-1.1-0.9c-0.2,0.4-0.5,0.7-0.8,1
					c-0.1-0.1-0.2-0.2-0.3-0.3c0.5-0.4,0.9-1,1.1-1.7L258.9,71.8z M259.5,71.5H258v-1.6h1.5V71.5z M259.1,70.3h-0.8v0.9h0.8V70.3z"
					/>
				<path class="st3" d="M263.9,71.2l-0.4,0.4c-0.4-0.5-1-1.1-1.5-1.5l0.4-0.4C262.9,70.1,263.5,70.7,263.9,71.2z"/>
				<path class="st3" d="M267.4,68.5c-0.3,0.5-0.7,1-1.2,1.3c-0.1-0.1-0.2-0.3-0.3-0.3c0.6-0.5,1.2-1.2,1.5-2l0.4,0.1
					c-0.1,0.2-0.2,0.3-0.3,0.5h4.2v0.4H267.4z M267.8,72.3c-0.3,0.5-0.9,1.1-1.4,1.4c-0.1-0.1-0.2-0.2-0.3-0.3
					c0.5-0.2,1.1-0.7,1.4-1.2L267.8,72.3z M268.4,71.9v1.8H268v-1.8h-1.8v-0.4h1.8v-1.2h0.4v1.2h1.8v0.4H268.4z M271,69.8
					c0,2.2,0,3.5,0.6,3.5c0.1,0,0.2-0.4,0.2-1c0.1,0.1,0.2,0.2,0.3,0.3c0,0.9-0.1,1.2-0.5,1.2c-0.9,0-1-1.3-1-3.5h-3.9v-0.4H271z
					 M267,70.4c0.2,0.3,0.5,0.6,0.6,0.9l-0.4,0.2c-0.1-0.2-0.3-0.6-0.5-0.9L267,70.4z M267.3,69.3V69h4v0.4H267.3z M269,72.1
					c0.5,0.3,1,0.8,1.3,1.1l-0.3,0.3c-0.3-0.3-0.8-0.8-1.3-1.1L269,72.1z M269.9,70.6c-0.2,0.3-0.5,0.7-0.7,0.9l-0.3-0.1
					c0.2-0.3,0.5-0.7,0.6-0.9L269.9,70.6z"/>
				<path class="st3" d="M275.4,67.7c-0.1,0.5-0.4,1-0.6,1.5v4.5h-0.4V70c-0.2,0.3-0.3,0.5-0.5,0.8c0-0.1-0.2-0.3-0.3-0.4
					c0.6-0.7,1-1.7,1.3-2.8L275.4,67.7z M275.4,69h0.4v3.4h-0.4V69z M278.1,71.9c-0.1,0.6-0.6,1.3-1.9,1.8c-0.1-0.1-0.2-0.3-0.3-0.3
					c1.2-0.4,1.6-1,1.8-1.5h-1.6v-0.4h1.6c0-0.1,0-0.1,0-0.2v-0.8h-0.8c-0.1,0.3-0.3,0.6-0.5,0.8c-0.1-0.1-0.3-0.2-0.4-0.2
					c0.4-0.4,0.7-1,0.9-1.6l0.4,0.1c-0.1,0.2-0.1,0.4-0.2,0.6h2.5v0.4h-1.4v0.8c0,0,0,0.1,0,0.2h1.7v0.4H278.1z M279.8,69.5h-3.7
					v-0.4h2.5c0-0.3,0.1-0.6,0.1-0.9h-2.2v-0.4h2.3l0.1,0l0.3,0c0,0.4-0.1,0.8-0.2,1.2h0.8V69.5z M278.5,72.1c0.5,0.4,1.1,1,1.5,1.3
					l-0.3,0.3c-0.3-0.4-0.9-1-1.4-1.4L278.5,72.1z"/>
				<path class="st3" d="M286.8,67.9c0,2.5,0,5.3,0.4,5.3c0.1,0,0.1-0.5,0.1-1.1c0.1,0.1,0.2,0.2,0.3,0.3c0,0.9-0.1,1.2-0.5,1.2
					c-0.8,0-0.8-2.4-0.8-5.4h-3.7V70c0,1.1-0.1,2.6-0.9,3.7c-0.1-0.1-0.3-0.2-0.4-0.3c0.7-1,0.8-2.4,0.8-3.4v-2.2H286.8z
					 M285.5,71.9c0.4,0.5,0.7,1.1,0.8,1.5l-0.4,0.1c0-0.2-0.1-0.3-0.2-0.5c-1.2,0.1-2.3,0.2-3.2,0.2l0-0.4c0.4,0,1-0.1,1.6-0.1v-1
					H283v-1.8h1.2v-0.7h-1.3v-0.4h3.1v0.4h-1.4v0.7h1.2v1.8h-1.2v1l1-0.1c-0.1-0.2-0.3-0.4-0.4-0.6L285.5,71.9z M284.2,71.3v-1.1
					h-0.8v1.1H284.2z M284.6,70.2v1.1h0.8v-1.1H284.6z"/>
				<path class="st3" d="M291.2,67.9c-0.2,0.5-0.4,1.2-0.7,1.8c0.5,0.6,0.6,1.1,0.6,1.5c0,0.4-0.1,0.6-0.2,0.8
					c-0.1,0.1-0.2,0.1-0.3,0.1c-0.1,0-0.3,0-0.4,0c0-0.1,0-0.3-0.1-0.4c0.2,0,0.3,0,0.4,0c0.1,0,0.2,0,0.2-0.1
					c0.1-0.1,0.1-0.3,0.1-0.5c0-0.4-0.1-0.8-0.6-1.4c0.2-0.5,0.4-1.1,0.5-1.5h-0.9v5.5h-0.4v-5.9h1.4l0.1,0L291.2,67.9z M292.4,71.8
					c-0.1,0.2-0.1,0.4-0.2,0.5c0.3,0.2,0.6,0.4,0.8,0.6l-0.2,0.3c-0.1-0.2-0.4-0.4-0.7-0.6c-0.3,0.4-0.6,0.8-1,1.1
					c-0.1-0.1-0.2-0.2-0.3-0.3c0.6-0.4,1.1-1,1.3-1.7L292.4,71.8z M293.4,67.6c0,0.1-0.1,0.1-0.1,0.2c0.5,0.5,1.4,1,2.1,1.2
					c-0.1,0.1-0.2,0.3-0.2,0.4c-0.7-0.3-1.5-0.8-2.1-1.3c-0.4,0.5-1,1-1.7,1.4c-0.1-0.1-0.2-0.2-0.3-0.3c0.8-0.4,1.6-1.1,1.9-1.7
					L293.4,67.6z M291.4,69.9h1.5v1.6h-1.5V69.9z M291.8,71.2h0.8v-0.9h-0.8V71.2z M294.1,69.4h-2V69h2V69.4z M294.3,71.8
					c0,0.2-0.1,0.4-0.2,0.6c0.4,0.3,0.9,0.7,1.2,0.9l-0.3,0.3c-0.2-0.2-0.7-0.6-1.1-0.9c-0.2,0.4-0.5,0.7-0.8,1
					c-0.1-0.1-0.2-0.2-0.3-0.3c0.5-0.4,0.9-1,1.1-1.7L294.3,71.8z M294.9,71.5h-1.5v-1.6h1.5V71.5z M294.5,70.3h-0.8v0.9h0.8V70.3z"
					/>
				<path class="st3" d="M299.3,71.2l-0.4,0.4c-0.4-0.5-1-1.1-1.5-1.5l0.4-0.4C298.2,70.1,298.8,70.7,299.3,71.2z"/>
				<path class="st3" d="M301.6,71.2v-3h0.6v3c0,1.2,0.5,1.6,1.2,1.6c0.7,0,1.2-0.4,1.2-1.6v-3h0.5v3c0,1.6-0.8,2.1-1.8,2.1
					S301.6,72.7,301.6,71.2z"/>
				<path class="st3" d="M307.5,68.2h1.4c1,0,1.7,0.4,1.7,1.2c0,0.5-0.3,0.9-0.7,1.1v0c0.6,0.1,1,0.5,1,1.2c0,1-0.8,1.5-1.9,1.5
					h-1.5V68.2z M308.8,70.3c0.9,0,1.3-0.3,1.3-0.8c0-0.6-0.4-0.8-1.2-0.8H308v1.7H308.8z M308.9,72.7c0.9,0,1.4-0.3,1.4-1
					c0-0.6-0.5-0.9-1.4-0.9H308v2H308.9z"/>
				<path class="st3" d="M312.9,68.2h0.6v5h-0.6V68.2z"/>
				<path class="st3" d="M201.3,82.4h-2.8v1H198v-1h-2.8V82h2.8v-0.6H196v-2.6h2.1v-0.5h-2.6v-0.4h2.6v-0.6h0.4v0.6h2.6v0.4h-2.6
					v0.5h2.1v2.6h-2.1V82h2.8V82.4z M196.4,79.9h1.6v-0.7h-1.6V79.9z M198,81v-0.7h-1.6V81H198z M198.5,79.2v0.7h1.7v-0.7H198.5z
					 M200.1,80.3h-1.7V81h1.7V80.3z"/>
				<path class="st3" d="M204.9,77.6c-0.2,0.5-0.4,1.2-0.7,1.8c0.5,0.6,0.6,1.1,0.6,1.5c0,0.4-0.1,0.6-0.2,0.8
					c-0.1,0.1-0.2,0.1-0.3,0.1c-0.1,0-0.3,0-0.4,0c0-0.1,0-0.3-0.1-0.4c0.2,0,0.3,0,0.4,0c0.1,0,0.2,0,0.2-0.1
					c0.1-0.1,0.1-0.3,0.1-0.5c0-0.4-0.1-0.8-0.6-1.4c0.2-0.5,0.4-1.1,0.5-1.5h-0.9v5.5h-0.4v-5.9h1.4l0.1,0L204.9,77.6z M206.1,81.5
					c-0.1,0.2-0.1,0.4-0.2,0.5c0.3,0.2,0.6,0.4,0.8,0.6l-0.2,0.3c-0.1-0.2-0.4-0.4-0.7-0.6c-0.3,0.4-0.6,0.8-1,1.1
					c-0.1-0.1-0.2-0.2-0.3-0.3c0.6-0.4,1.1-1,1.3-1.7L206.1,81.5z M207.1,77.3c0,0.1-0.1,0.1-0.1,0.2c0.5,0.5,1.4,1,2.1,1.2
					c-0.1,0.1-0.2,0.3-0.2,0.4c-0.7-0.3-1.5-0.8-2.1-1.3c-0.4,0.5-1,1-1.7,1.4c-0.1-0.1-0.2-0.2-0.3-0.3c0.8-0.4,1.6-1.1,1.9-1.7
					L207.1,77.3z M205.1,79.6h1.5v1.6h-1.5V79.6z M205.5,80.9h0.8V80h-0.8V80.9z M207.8,79.1h-2v-0.4h2V79.1z M208,81.5
					c0,0.2-0.1,0.4-0.2,0.6c0.4,0.3,0.9,0.7,1.2,0.9l-0.3,0.3c-0.2-0.2-0.7-0.6-1.1-0.9c-0.2,0.4-0.5,0.7-0.8,1
					c-0.1-0.1-0.2-0.2-0.3-0.3c0.5-0.4,0.9-1,1.1-1.7L208,81.5z M208.6,81.3H207v-1.6h1.5V81.3z M208.2,80h-0.8v0.9h0.8V80z"/>
				<path class="st3" d="M212.9,80.9l-0.4,0.4c-0.4-0.5-1-1.1-1.5-1.5l0.4-0.4C211.8,79.8,212.4,80.4,212.9,80.9z"/>
				<path class="st3" d="M217.6,78.6h-2.2v1.1H215v-1.4h2.6v-0.5h-2.3v-0.3h5.1v0.3h-2.3v0.5h2.7v1.4h-0.4v-1.1h-2.2v1.6h-0.4V78.6z
					 M220.1,82.9c0.4,0,0.4-0.1,0.5-0.8c0.1,0.1,0.3,0.1,0.4,0.1c-0.1,0.8-0.2,1-0.8,1h-1.6c-0.7,0-0.9-0.1-0.9-0.6v-0.2H216v0.4
					h-0.4v-2.3h4.6v2H218v0.2c0,0.2,0.1,0.3,0.5,0.3H220.1z M215.6,79.8c0.4-0.1,1-0.1,1.6-0.2l0,0.3c-0.5,0.1-1,0.2-1.5,0.3
					L215.6,79.8z M215.9,78.8c0.4,0.1,1,0.2,1.3,0.4l-0.1,0.3c-0.3-0.1-0.9-0.3-1.3-0.4L215.9,78.8z M216,80.8v0.5h1.6v-0.5H216z
					 M217.6,82.1v-0.5H216v0.5H217.6z M219.7,80.8H218v0.5h1.7V80.8z M219.7,82.1v-0.5H218v0.5H219.7z M220,80.2
					c-0.4-0.1-1.1-0.3-1.6-0.4l0.1-0.3c0.5,0.1,1.2,0.2,1.6,0.3L220,80.2z M220,79c-0.4,0.2-1,0.3-1.4,0.4l-0.2-0.2
					c0.4-0.1,1-0.3,1.3-0.4L220,79z"/>
				<path class="st3" d="M228.5,79c-0.1,2.9-0.1,3.8-0.4,4.1c-0.1,0.2-0.2,0.2-0.4,0.2c-0.2,0-0.5,0-0.8,0c0-0.1-0.1-0.3-0.1-0.4
					c0.3,0,0.7,0,0.8,0c0.1,0,0.2,0,0.2-0.1c0.2-0.2,0.3-1.1,0.3-3.6h-1c-0.1,1.8-0.4,3.3-1.6,4.2c-0.1-0.1-0.2-0.3-0.3-0.3
					c0.1-0.1,0.3-0.2,0.4-0.3c-1.1,0.1-2.1,0.3-2.9,0.3l-0.1-0.4c0.4,0,0.9-0.1,1.5-0.1V82h-1.3v-0.4h1.3v-0.4h-1.3v-2h1.3v-0.5
					h-1.5v-0.4h1.5v-0.5c-0.4,0-0.9,0.1-1.3,0.1c0-0.1-0.1-0.3-0.1-0.3c1-0.1,2.2-0.2,2.9-0.3l0.2,0.3c-0.4,0.1-0.8,0.1-1.3,0.2v0.5
					h1.5v0.4h-1.5v0.5h1.3v2h-1.3v0.4h1.3V82h-1.3v0.6c0.4,0,0.9-0.1,1.4-0.1v0c0.6-0.8,0.8-1.9,0.8-3.2h-0.8v-0.4h0.8
					c0-0.5,0-1,0-1.5h0.4c0,0.5,0,1,0,1.5h1.5V79z M223,80h0.9v-0.5H223V80z M223.9,80.9v-0.5H223v0.5H223.9z M224.4,79.5V80h0.9
					v-0.5H224.4z M225.3,80.3h-0.9v0.5h0.9V80.3z"/>
				<path class="st3" d="M236.2,82.4h-2.8v1H233v-1h-2.8V82h2.8v-0.6h-2.1v-2.6h2.1v-0.5h-2.6v-0.4h2.6v-0.6h0.4v0.6h2.6v0.4h-2.6
					v0.5h2.1v2.6h-2.1V82h2.8V82.4z M231.3,79.9h1.6v-0.7h-1.6V79.9z M233,81v-0.7h-1.6V81H233z M233.4,79.2v0.7h1.7v-0.7H233.4z
					 M235.1,80.3h-1.7V81h1.7V80.3z"/>
				<path class="st3" d="M239.8,77.4c-0.2,0.5-0.4,1-0.7,1.4v4.6h-0.4v-3.9c-0.2,0.3-0.5,0.6-0.8,0.9c0-0.1-0.2-0.3-0.3-0.4
					c0.7-0.6,1.3-1.7,1.7-2.7L239.8,77.4z M241,81.4c-0.3,0.6-0.8,1.2-1.2,1.7c-0.1-0.1-0.3-0.2-0.4-0.3c0.4-0.4,0.8-1,1.1-1.5
					L241,81.4z M242,80.9v2.5h-0.5v-2.5h-2v-0.4h2v-0.8H240v-2.1h3.5v2.1H242v0.8h1.9v0.4H242z M240.5,79.3h2.6v-1.3h-2.6V79.3z
					 M242.7,81.3c0.5,0.5,1,1.1,1.2,1.5l-0.4,0.2c-0.2-0.4-0.7-1.1-1.2-1.6L242.7,81.3z"/>
				<path class="st3" d="M247.5,77.6c-0.2,0.5-0.4,1.2-0.7,1.8c0.5,0.6,0.6,1.1,0.6,1.5c0,0.4-0.1,0.6-0.2,0.8
					c-0.1,0.1-0.2,0.1-0.3,0.1c-0.1,0-0.3,0-0.4,0c0-0.1,0-0.3-0.1-0.4c0.2,0,0.3,0,0.4,0c0.1,0,0.2,0,0.2-0.1
					c0.1-0.1,0.1-0.3,0.1-0.5c0-0.4-0.1-0.8-0.6-1.4c0.2-0.5,0.4-1.1,0.5-1.5h-0.9v5.5h-0.4v-5.9h1.4l0.1,0L247.5,77.6z M248.7,81.5
					c-0.1,0.2-0.1,0.4-0.2,0.5c0.3,0.2,0.6,0.4,0.8,0.6l-0.2,0.3c-0.1-0.2-0.4-0.4-0.7-0.6c-0.3,0.4-0.6,0.8-1,1.1
					c-0.1-0.1-0.2-0.2-0.3-0.3c0.6-0.4,1.1-1,1.3-1.7L248.7,81.5z M249.7,77.3c0,0.1-0.1,0.1-0.1,0.2c0.5,0.5,1.4,1,2.1,1.2
					c-0.1,0.1-0.2,0.3-0.2,0.4c-0.7-0.3-1.5-0.8-2.1-1.3c-0.4,0.5-1,1-1.7,1.4c-0.1-0.1-0.2-0.2-0.3-0.3c0.8-0.4,1.6-1.1,1.9-1.7
					L249.7,77.3z M247.7,79.6h1.5v1.6h-1.5V79.6z M248,80.9h0.8V80H248V80.9z M250.4,79.1h-2v-0.4h2V79.1z M250.6,81.5
					c0,0.2-0.1,0.4-0.2,0.6c0.4,0.3,0.9,0.7,1.2,0.9l-0.3,0.3c-0.2-0.2-0.7-0.6-1.1-0.9c-0.2,0.4-0.5,0.7-0.8,1
					c-0.1-0.1-0.2-0.2-0.3-0.3c0.5-0.4,0.9-1,1.1-1.7L250.6,81.5z M251.2,81.3h-1.5v-1.6h1.5V81.3z M250.8,80H250v0.9h0.8V80z"/>
				<path class="st3" d="M255.5,80.9l-0.4,0.4c-0.4-0.5-1-1.1-1.5-1.5l0.4-0.4C254.4,79.8,255,80.4,255.5,80.9z"/>
				<path class="st3" d="M258,81.6c-0.1,0.5-0.2,1.2-0.3,1.6c-0.1,0-0.3-0.1-0.4-0.1c0.1-0.4,0.3-1,0.3-1.6L258,81.6z M259.4,81.2
					c0-0.1-0.1-0.2-0.1-0.3c-1.5,0.2-1.7,0.3-1.8,0.3c0-0.1-0.1-0.3-0.1-0.4c0.1,0,0.3-0.2,0.5-0.5c0.1-0.1,0.3-0.4,0.6-0.8
					c-0.8,0.1-0.9,0.1-1,0.2c0-0.1-0.1-0.3-0.1-0.4c0.1,0,0.2-0.2,0.4-0.4c0.1-0.2,0.6-1,0.9-1.7l0.4,0.2c-0.3,0.7-0.7,1.3-1,1.8
					l0.8-0.1c0.2-0.3,0.4-0.6,0.5-0.9l0.4,0.2c-0.5,0.8-1,1.6-1.6,2.3l1.1-0.2c-0.1-0.2-0.2-0.5-0.2-0.7l0.3-0.1
					c0.2,0.4,0.4,1,0.5,1.3L259.4,81.2z M258.7,81.5c0.1,0.5,0.2,1,0.2,1.4l-0.4,0.1c0-0.4-0.1-1-0.2-1.4L258.7,81.5z M259.3,81.4
					c0.2,0.4,0.3,1,0.4,1.3l-0.3,0.1c-0.1-0.4-0.2-0.9-0.4-1.3L259.3,81.4z M263.3,82.9c-0.3-0.3-1-0.8-1.5-1.2v1.2
					c0,0.2,0,0.3-0.2,0.4c-0.2,0.1-0.4,0.1-0.8,0.1c0-0.1-0.1-0.3-0.1-0.4c0.3,0,0.5,0,0.6,0c0.1,0,0.1,0,0.1-0.1v-1.2
					c-0.5,0.4-1,0.8-1.4,1.1l-0.3-0.3c0.4-0.3,1-0.7,1.6-1.2v-1.1h-1.6v-0.4h2.4c0-0.2,0.1-0.4,0.1-0.5h-2.1c0.2-0.5,0.4-1.4,0.5-2
					l0.4,0c0,0.2-0.1,0.4-0.1,0.6h1.6l0.1,0l0.3,0.1c-0.1,0.5-0.2,1.3-0.4,1.9h1v0.4h-1.8v1.1c0.1,0.1,0.2,0.1,0.3,0.2
					c0.3-0.3,0.6-0.7,0.8-1l0.4,0.2c-0.3,0.3-0.6,0.7-0.8,1c0.5,0.3,0.9,0.7,1.2,0.9L263.3,82.9z M260.7,81.6
					c-0.2-0.2-0.5-0.6-0.8-0.9l0.3-0.2c0.3,0.2,0.6,0.6,0.8,0.8L260.7,81.6z M262.3,78.9c0-0.2,0.1-0.5,0.1-0.7h-1.5
					c-0.1,0.2-0.1,0.5-0.2,0.7H262.3z"/>
				<path class="st3" d="M269.9,82.9c0.7,0,0.8-0.2,0.9-1.1c0.1,0.1,0.3,0.1,0.4,0.2c-0.1,1-0.3,1.3-1.3,1.3h-2.7
					c-1,0-1.4-0.2-1.4-0.9v-3c-0.2,0.2-0.4,0.3-0.6,0.5c0-0.1-0.2-0.3-0.3-0.4c0.8-0.5,1.7-1.4,2.1-2.3l0.4,0.1
					c-0.1,0.2-0.2,0.3-0.3,0.5h1.8l0.1,0l0.3,0.2c-0.2,0.4-0.5,0.8-0.9,1.1h1.9v2.4h-0.4v-0.3h-3.7v1.2c0,0.4,0.1,0.5,0.9,0.5H269.9
					z M267,78.2c-0.2,0.3-0.5,0.6-0.8,0.9h1.8c0.3-0.2,0.5-0.6,0.7-0.9H267z M266.4,80.8h1.6v-1.2h-1.6V80.8z M270.1,79.5h-1.7v1.2
					h1.7V79.5z"/>
				<path class="st3" d="M274.8,77.4c-0.2,0.5-0.4,1-0.7,1.5v4.6h-0.5v-3.9c-0.2,0.3-0.5,0.6-0.7,0.9c0-0.1-0.2-0.3-0.3-0.4
					c0.7-0.7,1.3-1.7,1.7-2.7L274.8,77.4z M278.9,82.7v0.4h-4.4v-0.4h2V81h-1.6v-0.4h1.6V79h-1.8v-0.4h4.1V79H277v1.5h1.6V81H277
					v1.8H278.9z M276.7,78.5c-0.1-0.3-0.4-0.8-0.6-1.1l0.4-0.1c0.2,0.3,0.5,0.8,0.6,1.1L276.7,78.5z"/>
				<path class="st3" d="M281.1,79.3h-0.5v-1.4h2.7c-0.1-0.2-0.2-0.4-0.3-0.6l0.4-0.1c0.1,0.2,0.3,0.5,0.4,0.8h2.5v1.4h-0.5v-1h-4.7
					V79.3z M285.4,82.9c0.4,0,0.4-0.2,0.5-1c0.1,0.1,0.3,0.2,0.4,0.2c-0.1,1-0.2,1.2-0.9,1.2h-1.6c-0.8,0-1-0.2-1-0.8v-1.3h-2.1
					v-0.4h2.1v-1c-0.6,0.1-1.1,0.2-1.7,0.2c0-0.1-0.1-0.3-0.1-0.4c1.4-0.2,3-0.4,3.8-0.8l0.4,0.3c-0.5,0.2-1.2,0.4-1.9,0.5v1.1h2.6
					v0.4h-2.6v1.3c0,0.3,0.1,0.3,0.5,0.3H285.4z"/>
				<path class="st3" d="M291.4,77.3c0,0.9,0,1.8-0.2,2.6c0.4,1.5,1.3,2.6,2.9,3c-0.1,0.1-0.2,0.3-0.3,0.4c-1.4-0.4-2.3-1.3-2.8-2.7
					c-0.4,1.2-1.1,2.1-2.7,2.7c-0.1-0.1-0.2-0.3-0.3-0.4c2.9-1,2.8-3.3,2.8-5.7H291.4z M289.2,80.7c-0.1-0.5-0.4-1.4-0.7-2.1
					l0.4-0.1c0.3,0.7,0.6,1.5,0.7,2L289.2,80.7z M293.9,78.8c-0.3,0.6-0.7,1.4-1,1.9l-0.4-0.2c0.3-0.5,0.7-1.3,0.9-1.9L293.9,78.8z"
					/>
				<path class="st3" d="M297.7,77.6c-0.2,0.5-0.4,1.2-0.7,1.8c0.5,0.6,0.6,1.1,0.6,1.5c0,0.4-0.1,0.6-0.2,0.8
					c-0.1,0.1-0.2,0.1-0.3,0.1c-0.1,0-0.3,0-0.4,0c0-0.1,0-0.3-0.1-0.4c0.2,0,0.3,0,0.4,0c0.1,0,0.2,0,0.2-0.1
					c0.1-0.1,0.1-0.3,0.1-0.5c0-0.4-0.1-0.8-0.6-1.4c0.2-0.5,0.4-1.1,0.5-1.5h-0.9v5.5H296v-5.9h1.4l0.1,0L297.7,77.6z M298.9,81.5
					c-0.1,0.2-0.1,0.4-0.2,0.5c0.3,0.2,0.6,0.4,0.8,0.6l-0.2,0.3c-0.1-0.2-0.4-0.4-0.7-0.6c-0.3,0.4-0.6,0.8-1,1.1
					c-0.1-0.1-0.2-0.2-0.3-0.3c0.6-0.4,1.1-1,1.3-1.7L298.9,81.5z M300,77.3c0,0.1-0.1,0.1-0.1,0.2c0.5,0.5,1.4,1,2.1,1.2
					c-0.1,0.1-0.2,0.3-0.2,0.4c-0.7-0.3-1.5-0.8-2.1-1.3c-0.4,0.5-1,1-1.7,1.4c-0.1-0.1-0.2-0.2-0.3-0.3c0.8-0.4,1.6-1.1,1.9-1.7
					L300,77.3z M298,79.6h1.5v1.6H298V79.6z M298.3,80.9h0.8V80h-0.8V80.9z M300.7,79.1h-2v-0.4h2V79.1z M300.8,81.5
					c0,0.2-0.1,0.4-0.2,0.6c0.4,0.3,0.9,0.7,1.2,0.9l-0.3,0.3c-0.2-0.2-0.7-0.6-1.1-0.9c-0.2,0.4-0.5,0.7-0.8,1
					c-0.1-0.1-0.2-0.2-0.3-0.3c0.5-0.4,0.9-1,1.1-1.7L300.8,81.5z M301.4,81.3h-1.5v-1.6h1.5V81.3z M301.1,80h-0.8v0.9h0.8V80z"/>
				<path class="st3" d="M305.7,80.9l-0.4,0.4c-0.4-0.5-1-1.1-1.5-1.5l0.4-0.4C304.7,79.8,305.3,80.4,305.7,80.9z"/>
				<path class="st3" d="M308.8,78.4c-0.3,0.3-0.5,0.6-0.8,0.9c-0.1-0.1-0.2-0.3-0.3-0.3c0.6-0.4,1.1-1.1,1.5-1.7l0.4,0.1
					c-0.1,0.2-0.3,0.5-0.4,0.7h4.4v0.4H308.8z M313.7,81.2v0.4h-6v-0.4h1.1V80H308v-0.4h0.8v-0.8h0.4v0.8h0.7v-0.8h0.4v0.8h0.8v-0.8
					h0.4v0.8h0.8v-0.8h0.4v0.8h0.8V80h-0.8v1.2H313.7z M307.9,83.2c0.2-0.3,0.5-0.8,0.7-1.3l0.4,0.1c-0.2,0.4-0.4,1-0.7,1.4
					L307.9,83.2z M309.2,81.2h0.7V80h-0.7V81.2z M310.1,82.1c0.1,0.4,0.2,0.9,0.2,1.2l-0.4,0.1c0-0.3-0.1-0.8-0.1-1.2L310.1,82.1z
					 M310.3,80v1.2h0.8V80H310.3z M311.5,82c0.2,0.4,0.4,0.9,0.4,1.2l-0.4,0.1c-0.1-0.3-0.2-0.8-0.4-1.2L311.5,82z M311.6,80v1.2
					h0.8V80H311.6z M312.9,81.9c0.3,0.4,0.6,1,0.7,1.3l-0.4,0.2c-0.1-0.3-0.4-0.9-0.7-1.3L312.9,81.9z"/>
				<path class="st3" d="M195.9,91.3c-0.1,0.6-0.2,1.2-0.4,1.6c-0.1,0-0.3-0.1-0.4-0.1c0.2-0.4,0.3-1,0.3-1.6L195.9,91.3z
					 M197.4,90.9c0-0.1-0.1-0.2-0.1-0.4c-1.6,0.3-1.8,0.3-2,0.4c0-0.1-0.1-0.3-0.1-0.4c0.1,0,0.3-0.2,0.5-0.4
					c0.1-0.1,0.4-0.4,0.7-0.8c-0.8,0.1-1,0.1-1.1,0.2c0-0.1-0.1-0.3-0.1-0.4c0.1,0,0.2-0.2,0.4-0.4c0.1-0.2,0.7-1,1-1.7l0.4,0.2
					c-0.3,0.7-0.7,1.3-1.2,1.8l0.9-0.1c0.2-0.3,0.4-0.6,0.6-0.9l0.4,0.2c-0.5,0.8-1.1,1.6-1.7,2.2l1.2-0.2c-0.1-0.2-0.2-0.4-0.3-0.7
					l0.4-0.1c0.2,0.4,0.4,1,0.5,1.3L197.4,90.9z M196.6,91.2c0.1,0.5,0.2,1,0.2,1.4l-0.4,0.1c0-0.4-0.1-1-0.2-1.5L196.6,91.2z
					 M197.4,91c0.1,0.4,0.3,0.9,0.4,1.2l-0.4,0.1c-0.1-0.3-0.2-0.8-0.4-1.2L197.4,91z M200.1,90c0.1,1.6,0.4,2.6,0.8,2.6
					c0.1,0,0.2-0.3,0.2-1.1c0.1,0.1,0.2,0.2,0.3,0.2c-0.1,1-0.2,1.3-0.6,1.3c-0.7,0-1-1.2-1.1-3h-1.3v2.5l1.2-0.4
					c0,0.1,0,0.3,0.1,0.4c-1.4,0.5-1.6,0.5-1.7,0.6c0-0.1-0.1-0.3-0.2-0.4c0.1-0.1,0.2-0.2,0.2-0.5v-4.7h0c1-0.1,2.2-0.3,2.8-0.6
					l0.3,0.4c-0.3,0.1-0.7,0.2-1.1,0.3c0,0.7,0,1.4,0,1.9h1.2V90H200.1z M199.7,89.6c0-0.6-0.1-1.2-0.1-1.9
					c-0.4,0.1-0.8,0.1-1.2,0.2v1.7H199.7z"/>
				<path class="st3" d="M204.8,87.1c-0.2,0.4-0.4,0.9-0.7,1.3v4.7h-0.4V89c-0.3,0.4-0.6,0.8-1,1.1c0-0.1-0.2-0.3-0.3-0.4
					c0.8-0.6,1.5-1.7,1.9-2.7L204.8,87.1z M207.7,92.5c0.4,0,0.4-0.3,0.5-1.5c0.1,0.1,0.3,0.2,0.4,0.2c-0.1,1.3-0.2,1.7-0.9,1.7
					h-1.3c-0.6,0-0.8-0.2-0.8-0.9v-5h0.4v1.9h2.4v0.4H206V92c0,0.4,0.1,0.4,0.4,0.4H207.7z"/>
				<path class="st3" d="M216,91.1v0.4h-6.1v-0.4h0.7l-0.1-3.6c0.4-0.1,0.9-0.4,1.2-0.5l0.2,0.4c-0.3,0.1-0.7,0.3-1.1,0.4l0,0.8h0.9
					v0.4h-0.9l0,0.9h0.9v0.4H211l0,0.9h3.9c0-0.3,0-0.5,0-0.9H214v-0.4h0.9c0-0.3,0-0.6,0-0.9h-0.9v-0.4h0.9c0-0.3,0-0.6,0-0.9h-1
					v-0.4h1.4c0,1.2,0,2.8-0.1,3.8H216z M212.3,91.9c-0.5,0.4-1.4,0.9-2,1.2c-0.1-0.1-0.2-0.2-0.3-0.3c0.6-0.3,1.5-0.7,1.9-1.1
					L212.3,91.9z M212.8,89.5c-0.1,0.5-0.2,1-0.4,1.3c-0.1-0.1-0.2-0.2-0.3-0.2c0.2-0.3,0.3-0.7,0.4-1.1L212.8,89.5z M213.3,89.2
					h-1.1V87h0.4v0.7h1.1V88h-1.1v0.8h0.9v0h0.2v1.8c0,0.2,0,0.3-0.2,0.3c-0.1,0.1-0.4,0.1-0.7,0.1c0-0.1-0.1-0.2-0.1-0.3
					c0.3,0,0.5,0,0.5,0c0.1,0,0.1,0,0.1-0.1V89.2z M213.9,91.6c0.7,0.3,1.5,0.8,2,1.1l-0.3,0.3c-0.5-0.3-1.2-0.8-1.9-1.1L213.9,91.6
					z"/>
				<path class="st3" d="M220.2,91.4c-0.1,0.3-0.2,0.6-0.6,0.9c0.3,0.1,0.6,0.3,0.8,0.4l-0.3,0.3c-0.2-0.1-0.5-0.3-0.8-0.4
					c-0.4,0.2-1,0.4-1.9,0.6c0-0.1-0.1-0.2-0.2-0.3c0.7-0.1,1.3-0.3,1.7-0.5c-0.4-0.1-0.7-0.3-1.1-0.4c0.1-0.1,0.2-0.3,0.3-0.5
					l-0.8,0l0-0.3c0.3,0,0.7,0,1.1,0c0.1-0.2,0.2-0.4,0.3-0.6h-1.1v-1.1h1.3v-0.3h-1.1v-0.7h-0.4v-0.4h0.4v-0.7h1.1v-0.5h0.4v0.5
					h1.2v0.7h0.5v0.4h-0.5v0.7h-1.2v0.3h1.3v1.1h-1.4c-0.1,0.2-0.2,0.4-0.3,0.5l1.1-0.1c0,0,0-0.1,0-0.1v-0.2h0.4V91V91l0.4,0l0,0.3
					L220.2,91.4z M217.9,90.3h0.9v-0.5h-0.9V90.3z M218.1,87.7v0.4h0.7v-0.4H218.1z M218.8,88.9v-0.4h-0.7v0.4H218.8z M218.5,91.5
					c-0.1,0.1-0.2,0.2-0.2,0.3c0.3,0.1,0.6,0.2,0.9,0.3c0.3-0.2,0.5-0.5,0.6-0.7L218.5,91.5z M219.2,87.7v0.4h0.8v-0.4H219.2z
					 M219.9,88.9v-0.4h-0.8v0.4H219.9z M219.2,89.8v0.5h0.9v-0.5H219.2z M222.9,88.6c-0.1,1-0.3,1.9-0.6,2.6
					c0.3,0.6,0.7,1.1,1.2,1.5c-0.1,0.1-0.2,0.2-0.3,0.3c-0.4-0.3-0.8-0.8-1.1-1.3c-0.3,0.6-0.7,1.1-1.2,1.4c0-0.1-0.2-0.3-0.3-0.3
					c0.6-0.4,1-0.9,1.3-1.6c-0.2-0.6-0.4-1.2-0.5-1.9c-0.1,0.3-0.2,0.6-0.4,0.8c-0.1-0.1-0.2-0.2-0.3-0.3c0.4-0.7,0.7-1.8,0.9-2.9
					l0.4,0.1c-0.1,0.4-0.1,0.8-0.2,1.2h1.7v0.4H222.9z M221.6,88.6c0.1,0.7,0.3,1.5,0.5,2.1c0.2-0.6,0.3-1.3,0.4-2.1H221.6z"/>
				<path class="st3" d="M226.6,87.1c-0.2,0.5-0.4,1-0.7,1.5v4.6h-0.4v-3.9c-0.2,0.3-0.5,0.6-0.7,0.9c0-0.1-0.2-0.3-0.3-0.4
					c0.7-0.7,1.3-1.7,1.7-2.7L226.6,87.1z M230.7,92.4v0.4h-4.2v-0.4h2.4c0.3-0.9,0.5-2.4,0.7-3.4l0.5,0.1c-0.2,1-0.5,2.4-0.7,3.3
					H230.7z M230.4,88.6h-3.7v-0.4h3.7V88.6z M227.7,92.1c-0.1-0.7-0.3-2-0.5-2.9l0.4-0.1c0.2,1,0.4,2.2,0.5,2.9L227.7,92.1z
					 M228.4,88.1c-0.1-0.3-0.2-0.7-0.3-1.1l0.4-0.1c0.1,0.3,0.3,0.8,0.3,1.1L228.4,88.1z"/>
				<path class="st3" d="M234.1,87.1c-0.2,0.4-0.4,0.9-0.7,1.3v4.7H233V89c-0.3,0.4-0.6,0.8-1,1.1c0-0.1-0.2-0.3-0.3-0.4
					c0.8-0.6,1.5-1.7,1.9-2.7L234.1,87.1z M237.1,92.5c0.4,0,0.4-0.3,0.5-1.5c0.1,0.1,0.3,0.2,0.4,0.2c-0.1,1.3-0.2,1.7-0.9,1.7
					h-1.3c-0.6,0-0.8-0.2-0.8-0.9v-5h0.4v1.9h2.4v0.4h-2.4V92c0,0.4,0.1,0.4,0.4,0.4H237.1z"/>
				<path class="st3" d="M240.3,89.8c-0.2-0.2-0.7-0.5-1.1-0.7l0.3-0.3c0.4,0.2,0.9,0.4,1.1,0.6L240.3,89.8z M240.6,90.7
					c-0.3,0.7-0.6,1.6-0.9,2.3l-0.4-0.2c0.3-0.5,0.7-1.5,1-2.3L240.6,90.7z M240.6,88c-0.2-0.2-0.7-0.5-1.1-0.7l0.3-0.3
					c0.4,0.2,0.9,0.5,1.1,0.7L240.6,88z M245.2,89.1c-0.2,0.9-0.5,1.7-0.9,2.3c0.2,0.7,0.4,1.1,0.6,1.1c0.1,0,0.2-0.4,0.3-1.1
					c0.1,0.1,0.3,0.2,0.3,0.2c-0.1,1.1-0.4,1.4-0.6,1.4c-0.4,0-0.7-0.5-0.9-1.2c-0.3,0.5-0.8,0.8-1.2,1.1c-0.1-0.1-0.2-0.2-0.3-0.3
					c0.6-0.3,1.1-0.8,1.4-1.4c-0.2-0.8-0.3-1.8-0.3-3h-2.1v1.4c0,1-0.1,2.4-0.8,3.3c-0.1-0.1-0.2-0.2-0.3-0.2
					c0.6-0.9,0.7-2.1,0.7-3.1V88h2.5c0-0.3,0-0.7,0-1h0.4c0,0.4,0,0.7,0,1h1.4v0.4h-1.4c0.1,0.9,0.1,1.7,0.2,2.4
					c0.3-0.5,0.5-1.1,0.6-1.8L245.2,89.1z M243.4,89.4h-1.6V89h1.6V89.4z M242.1,91.7v0.4h-0.3v-2.2h1.5v1.8H242.1z M242.1,90.3v1.1
					h0.9v-1.1H242.1z M245,88c-0.2-0.2-0.6-0.6-0.9-0.8l0.3-0.2c0.3,0.2,0.7,0.5,0.9,0.7L245,88z"/>
				<path class="st3" d="M247.5,92.3v0.6h-0.4v-2.5c-0.1,0.2-0.2,0.4-0.4,0.6c0-0.1-0.1-0.3-0.2-0.5c0.5-0.7,0.8-1.6,1-2.7h-0.8
					v-0.4h2.2v0.4h-1c-0.1,0.6-0.3,1.1-0.4,1.7h1.2v2.9H247.5z M248.3,89.8h-0.9v2.1h0.9V89.8z M252.7,89.4h-3.2v1
					c0,0.8-0.1,2-0.6,2.8c-0.1-0.1-0.3-0.2-0.3-0.2c0.5-0.8,0.5-1.8,0.5-2.6V89h3.6V89.4z M252.4,88.5h-3.2v-1.4h0.4v1h1v-1.2h0.4
					v1.2h1v-1h0.4V88.5z M251.3,89.6c0,0.4,0,0.8-0.1,1.1c0.3,0.9,0.8,1.6,1.5,2c-0.1,0.1-0.2,0.2-0.3,0.3c-0.6-0.3-1-0.9-1.3-1.7
					c-0.2,0.7-0.6,1.3-1.3,1.7c-0.1-0.1-0.2-0.2-0.3-0.3c1.2-0.6,1.4-1.7,1.4-3.2H251.3z M250.2,91.4c-0.1-0.3-0.4-0.8-0.6-1.2
					l0.3-0.2c0.2,0.4,0.5,0.9,0.6,1.2L250.2,91.4z M251.6,91.2c0.2-0.3,0.5-0.8,0.7-1.2l0.4,0.2c-0.3,0.4-0.5,0.8-0.8,1.1
					L251.6,91.2z"/>
				<path class="st3" d="M255.1,89.9c-0.3-0.2-0.8-0.6-1.2-0.8l0.2-0.3c0.4,0.2,1,0.5,1.2,0.7L255.1,89.9z M255.7,90.8
					c-0.4,0.7-0.8,1.6-1.2,2.2l-0.4-0.3c0.4-0.5,0.9-1.4,1.3-2.2L255.7,90.8z M255.3,88.2c-0.2-0.3-0.7-0.6-1.1-0.9l0.3-0.3
					c0.4,0.2,0.9,0.6,1.1,0.8L255.3,88.2z M256.3,90.1h0.4v0.7c0,0.7-0.1,1.6-1,2.3c-0.1-0.1-0.2-0.2-0.3-0.3c0.8-0.6,0.9-1.3,0.9-2
					V90.1z M259.6,90.1c-0.1-0.1-0.2-0.3-0.4-0.5c-2.8,0.2-3.1,0.2-3.3,0.3c0-0.1-0.1-0.3-0.1-0.4c0.1,0,0.3-0.2,0.5-0.4
					c0.1-0.1,0.3-0.4,0.6-0.8h-1.2v-0.4h1.5c0.2-0.3,0.4-0.6,0.5-0.9l0.4,0.2c-0.1,0.2-0.3,0.5-0.4,0.7h2.2v0.4h-2.5
					c-0.3,0.4-0.6,0.8-0.9,1.1l2.4-0.1c-0.2-0.2-0.4-0.4-0.5-0.6l0.3-0.2c0.4,0.5,0.9,1.1,1.2,1.5L259.6,90.1z M257.5,90.1h0.4v2.7
					h-0.4V90.1z M259.7,92.6c0.1,0,0.2,0,0.3,0c0,0.1,0,0.3,0,0.4c-0.1,0-0.2,0-0.3,0h-0.5c-0.4,0-0.5-0.2-0.5-0.6v-2.3h0.4v2.3
					c0,0.2,0,0.2,0.1,0.2H259.7z"/>
				<path class="st3" d="M263.3,90.9c-0.1-0.2-0.3-0.6-0.5-1v3.1h-0.4V90c-0.3,0.7-0.6,1.5-0.9,1.9c0-0.1-0.2-0.3-0.2-0.4
					c0.4-0.5,0.8-1.4,1.1-2.2h-1v-0.4h1.1v-1.1c-0.3,0.1-0.6,0.1-0.8,0.2c0-0.1-0.1-0.3-0.1-0.4c0.7-0.1,1.5-0.3,1.9-0.5l0.3,0.4
					c-0.2,0.1-0.5,0.2-0.8,0.3v1.3h0.9v0.4h-0.9v0.2c0.2,0.2,0.7,0.9,0.8,1.1L263.3,90.9z M267.4,92.5v0.4h-3.9v-0.4h1.8v-1h-1.4
					v-0.4h1.4v-0.9c-0.4,0-0.8,0.1-1.2,0.1c0-0.1-0.1-0.3-0.1-0.4c0.9-0.1,2.1-0.2,2.7-0.4L267,90c-0.3,0.1-0.8,0.2-1.3,0.3v0.9h1.4
					v0.4h-1.4v1H267.4z M267,89.4H264v-2.1h3.1V89.4z M266.6,87.7h-2.2V89h2.2V87.7z"/>
				<path class="st3" d="M271.2,91.3c0,0.1,0,0.3,0.1,0.4c-2,0.8-2.2,0.9-2.4,1c0-0.1-0.1-0.3-0.2-0.5c0.1,0,0.2-0.1,0.2-0.4v-2.6
					h1.8v-1.5h-1.9v-0.4h2.4v2.4h-1.8V92L271.2,91.3z M274.2,88.6c-0.2,1.1-0.5,2-0.9,2.8c0.4,0.6,0.9,1,1.5,1.3
					c-0.1,0.1-0.2,0.3-0.3,0.4c-0.6-0.3-1.1-0.7-1.4-1.3c-0.4,0.6-1,1-1.7,1.4c0-0.1-0.2-0.3-0.3-0.4c0.7-0.3,1.3-0.8,1.7-1.4
					c-0.3-0.6-0.6-1.3-0.8-2c-0.2,0.3-0.3,0.6-0.5,0.9c-0.1-0.1-0.3-0.2-0.4-0.3c0.6-0.7,0.9-1.8,1.2-2.9l0.4,0.1
					c-0.1,0.4-0.2,0.8-0.3,1.2h2.2v0.4H274.2z M272.3,88.7c0.2,0.8,0.4,1.6,0.7,2.3c0.3-0.6,0.6-1.4,0.7-2.3L272.3,88.7L272.3,88.7z
					"/>
				<path class="st3" d="M277.7,90.2c-0.2,0.6-0.4,1.3-0.7,1.8c0.1,0.1,0.3,0.2,0.5,0.3c0.5,0.3,1.1,0.3,1.9,0.3
					c0.9,0,2-0.1,2.7-0.1c-0.1,0.1-0.1,0.3-0.1,0.5c-0.5,0-1.8,0.1-2.6,0.1c-0.9,0-1.5-0.1-2-0.4c-0.3-0.2-0.5-0.4-0.7-0.4
					c-0.2,0-0.4,0.4-0.6,0.9l-0.3-0.4c0.3-0.4,0.6-0.7,0.8-0.8c0.2-0.4,0.4-0.9,0.5-1.4h-1c0.2-0.4,0.4-1,0.6-1.5h-0.9v-0.4h1.5
					c-0.2,0.5-0.4,1.1-0.6,1.5h0.6l0.1,0L277.7,90.2z M276.7,88.2c-0.1-0.3-0.2-0.7-0.3-1.1l0.4-0.1c0.1,0.3,0.3,0.8,0.4,1.1
					L276.7,88.2z M278.6,88.2c-0.2,0.3-0.4,0.5-0.5,0.7c-0.1-0.1-0.3-0.2-0.4-0.2c0.4-0.4,0.8-1,1-1.7l0.4,0.1
					c-0.1,0.2-0.2,0.5-0.3,0.7h0.8v-0.9h0.4v0.9h1.7v0.4h-1.7v0.9h1.9v0.4h-4.3v-0.4h1.9v-0.9H278.6z M281,92.1v-0.2h-2.3v0.3h-0.4
					v-2.1h3.2v2.1H281z M281,91.5v-1.1h-2.3v1.1H281z"/>
				<path class="st3" d="M289.4,92.1v0.5h-6.1v-0.5h2.8v-4h-2.4v-0.5h5.4v0.5h-2.5v4H289.4z"/>
				<path class="st3" d="M292.6,90.9c-0.1-0.2-0.3-0.6-0.5-1v3.1h-0.4V90c-0.3,0.7-0.6,1.5-0.9,1.9c0-0.1-0.2-0.3-0.2-0.4
					c0.4-0.5,0.8-1.4,1.1-2.2h-1v-0.4h1.1v-1.1c-0.3,0.1-0.6,0.1-0.8,0.2c0-0.1-0.1-0.3-0.1-0.4c0.7-0.1,1.5-0.3,1.9-0.5l0.3,0.4
					c-0.2,0.1-0.5,0.2-0.8,0.3v1.3h0.9v0.4h-0.9v0.2c0.2,0.2,0.7,0.9,0.8,1.1L292.6,90.9z M296.7,92.5v0.4h-3.9v-0.4h1.8v-1h-1.4
					v-0.4h1.4v-0.9c-0.4,0-0.8,0.1-1.2,0.1c0-0.1-0.1-0.3-0.1-0.4c0.9-0.1,2.1-0.2,2.7-0.4l0.3,0.3c-0.3,0.1-0.8,0.2-1.3,0.3v0.9
					h1.4v0.4h-1.4v1H296.7z M296.4,89.4h-3.1v-2.1h3.1V89.4z M295.9,87.7h-2.2V89h2.2V87.7z"/>
			</g>
		</g>
	</g>
	<g>
		<path class="st4" d="M30.5,27v9.2h-1.1v-0.7H22v0.8h-1.1V27H30.5z M29.4,34.4v-1.6c-0.2,0.1-0.5,0.1-0.7,0.1h-1.1
			c-0.9,0-1.1-0.4-1.1-1.5V28H25c-0.1,3-0.3,4.7-2.2,5.7c-0.1-0.3-0.4-0.7-0.7-0.8c1.6-0.8,1.8-2.2,1.8-4.8H22v6.4H29.4z M29.4,28
			h-2v3.4c0,0.4,0,0.5,0.3,0.5h1c0.2,0,0.5,0,0.7-0.1c0,0.2,0,0.4,0,0.6V28z"/>
		<path class="st4" d="M26.6,42.9c0.8,2.4,2.3,4.4,4.5,5.3c-0.3,0.2-0.6,0.7-0.8,1c-2.2-1-3.6-2.9-4.5-5.4c-0.6,2.1-1.9,4.1-4.5,5.4
			c-0.2-0.3-0.5-0.7-0.8-0.9c2.8-1.2,3.9-3.3,4.4-5.4h-4.1v-1.1H25c0.1-1.2,0.1-2.3,0.1-3.2h1.2c0,0.9,0,2.1-0.2,3.2h4.7v1.1H26.6z"
			/>
		<path class="st4" d="M30.3,54.3c-0.3,1.9-0.7,3.4-1.4,4.6c0.6,0.9,1.4,1.6,2.3,2c-0.2,0.2-0.6,0.6-0.7,0.9c-0.9-0.5-1.6-1.1-2.2-2
			c-0.7,0.8-1.5,1.5-2.5,2c-0.1-0.2-0.4-0.7-0.6-1c1.1-0.5,1.9-1.2,2.5-2c-0.5-0.9-0.8-1.9-1.1-2.9c-0.2,0.3-0.4,0.6-0.6,0.9
			c-0.1-0.2-0.4-0.4-0.7-0.6H24V59l1.8-0.4l0.1,1C24,60,22,60.5,20.5,60.8l-0.2-1.1l0.7-0.1v-5.1h1v4.9l1-0.2v-6.2h-2.4v-1h5.3v1H24
			v2.3h1.5v0.4c0.8-1.2,1.2-2.8,1.5-4.5l1.1,0.2c-0.1,0.7-0.3,1.3-0.5,2h3.5v1H30.3z M27.2,54.5c0.2,1.2,0.6,2.4,1.1,3.3
			c0.5-1,0.8-2.2,1-3.5h-2L27.2,54.5z"/>
		<path class="st4" d="M26.4,70.7c0.9,1,2.7,1.9,4.8,2.3c-0.2,0.2-0.5,0.7-0.7,1c-1.7-0.4-3.1-1.3-4.1-2.1v2.5h-1.2v-2.6
			c-1.1,1-2.6,1.8-4.1,2.2c-0.1-0.3-0.5-0.7-0.7-0.9c1.9-0.4,3.8-1.4,4.8-2.6v-0.9h-2.6v2.1h-1.1v-3.1h3.7V68h-4.5V67h4.5v-0.7h0.9
			c-0.2-0.2-0.5-0.4-0.7-0.6c0.6-0.5,1.2-1.3,1.4-2.2l1,0.2c-0.1,0.2-0.2,0.4-0.2,0.6H31v0.9h-2.3c0.4,0.3,0.8,0.6,1,0.9L29,66.9
			c-0.3-0.3-0.8-0.8-1.2-1.1l0.5-0.4h-1.1c-0.3,0.4-0.5,0.7-0.8,1h0V67h4.3V68h-4.3v0.8h3.7v2c0,0.5-0.1,0.7-0.4,0.8
			c-0.4,0.1-0.9,0.2-1.5,0.2c-0.1-0.3-0.2-0.6-0.4-0.9c0.4,0,0.9,0,1,0c0.1,0,0.2,0,0.2-0.2v-1.1h-2.6V70.7z M22.4,65.3
			c-0.4,0.6-0.8,1.1-1.2,1.5c-0.2-0.2-0.5-0.5-0.7-0.7c0.7-0.6,1.3-1.6,1.7-2.5l1,0.3c-0.1,0.2-0.2,0.4-0.3,0.6h2.8v0.9h-2
			c0.3,0.3,0.7,0.7,0.9,0.9l-0.7,0.6c-0.2-0.3-0.7-0.8-1.1-1.2l0.4-0.4H22.4z"/>
		<path class="st4" d="M10.9,30.9C10.3,33.3,9.1,35,7.6,36c-0.2-0.2-0.6-0.7-0.9-0.8c1.2-0.7,2.2-2,2.8-3.5H7v-1h3l0.2,0L10.9,30.9z
			 M17.1,29.9c-0.9,0.8-2,1.8-3,2.4c0.8,1.2,1.9,2.1,3.4,2.7c-0.2,0.2-0.6,0.7-0.8,1c-1.8-0.8-3.1-2.2-4-4.1v3.5
			c0,0.6-0.1,0.9-0.6,1.1c-0.4,0.2-1.1,0.2-2,0.2c0-0.3-0.2-0.8-0.4-1.1c0.6,0,1.4,0,1.5,0c0.2,0,0.3-0.1,0.3-0.3v-6H8.5v-1h4.2v0.9
			c0.2,0.8,0.5,1.6,0.9,2.2c0.9-0.7,1.9-1.6,2.5-2.3L17.1,29.9z M13.8,28.5c-0.9-0.5-2.8-1.2-4.2-1.6l0.5-0.9
			c1.4,0.3,3.3,0.9,4.3,1.5L13.8,28.5z"/>
		<path class="st4" d="M8.1,46.2c-0.1,1.1-0.3,2.2-0.6,3C7.4,49.1,7,49,6.7,48.9c0.3-0.7,0.4-1.8,0.5-2.9L8.1,46.2z M10,45.7
			c0-0.2-0.1-0.4-0.1-0.6c-2.2,0.3-2.5,0.4-2.8,0.5c0-0.2-0.2-0.7-0.3-0.9c0.2-0.1,0.5-0.3,0.8-0.8c0.2-0.2,0.5-0.6,0.8-1.2
			c-1,0.1-1.3,0.2-1.4,0.3c0-0.2-0.2-0.6-0.3-0.9c0.2,0,0.4-0.3,0.6-0.6c0.2-0.3,0.9-1.7,1.3-2.9l0.9,0.4c-0.4,1-1,2.1-1.5,3l1-0.1
			c0.3-0.5,0.5-1,0.8-1.6l0.8,0.5C10,42,9.2,43.4,8.3,44.4l1.4-0.2c-0.1-0.3-0.2-0.7-0.3-1l0.7-0.2c0.3,0.8,0.5,1.8,0.6,2.4L10,45.7
			z M9.2,46c0.2,0.9,0.3,1.9,0.3,2.7l-0.8,0.2c0-0.7-0.1-1.8-0.2-2.7L9.2,46z M10.2,45.7c0.2,0.7,0.5,1.5,0.6,2.1L10,48.1
			c-0.1-0.6-0.3-1.5-0.6-2.2L10.2,45.7z M15.2,47.6c0.8,0.3,1.7,0.6,2.3,0.9L17,49.2c-0.6-0.3-1.6-0.7-2.5-1.1l0.3-0.6H13l0.6,0.6
			c-0.9,0.4-2,0.8-2.8,1.1c-0.1-0.2-0.3-0.5-0.4-0.8c0.7-0.2,1.7-0.7,2.4-1h-1.7v-3.4h5.8v3.4H15.2z M13.5,39.9h-2.9v-0.7h2.9v-0.6
			h1.1v0.6h2.7v0.7h-2.7v0.5h2.3v0.7h-5.8v-0.7h2.4V39.9z M10.7,41.5h6.5v2.2h-6.5V41.5z M11.6,43h1.1v-0.8h-1.1V43z M12,45.2h3.8
			v-0.4H12V45.2z M12,46.1h3.8v-0.4H12V46.1z M12,47h3.8v-0.5H12V47z M14.5,43v-0.8h-1V43H14.5z M16.3,42.2h-0.9V43h0.9V42.2z"/>
		<path class="st4" d="M12.7,55.6V57h3.9v1h-3.9v2.6h4.5v1h-10v-1h4.4v-2.6H7.7v-1h3.8v-1.4H9.1V55c-0.5,0.3-1.1,0.5-1.7,0.7
			c-0.2-0.3-0.5-0.7-0.7-1C8.9,54,11,52.8,12.1,51l1,0.5c-0.1,0.2-0.2,0.3-0.3,0.4c1.1,1.1,3.1,2.2,4.8,2.8
			c-0.2,0.2-0.6,0.7-0.7,0.9c-0.6-0.2-1.2-0.5-1.7-0.8v0.7H12.7z M9.5,58.1c0.4,0.6,0.9,1.5,1.1,2l-0.9,0.4c-0.2-0.5-0.6-1.4-1-2.1
			L9.5,58.1z M14.6,54.6c-0.9-0.5-1.8-1.2-2.5-1.9c-0.7,0.7-1.5,1.4-2.3,1.9H14.6z M13.6,60.1c0.4-0.6,0.9-1.4,1.1-2.1l1,0.4
			c-0.4,0.7-1,1.5-1.4,2L13.6,60.1z"/>
		<path class="st4" d="M6.9,64.2h5.6v0.9H6.9V64.2z M12.3,73.3c0,0.4-0.1,0.7-0.3,0.8c-0.3,0.1-0.7,0.1-1.3,0.1
			c0-0.2-0.1-0.6-0.3-0.8c0.4,0,0.7,0,0.8,0c0.1,0,0.2,0,0.2-0.2v-3.8H8v4.9H7.1v-5.8h5.2V73.3z M12,68.1H7.5v-2.4H12V68.1z
			 M10.1,71.9v2.1H9.3v-2.1h-1v-0.7h1.4c0.3-0.5,0.6-1.1,0.7-1.6l0.7,0.3c-0.2,0.4-0.5,0.9-0.7,1.3h0.7v0.7H10.1z M8.9,69.7
			c0.3,0.4,0.5,0.9,0.6,1.3l-0.6,0.2c-0.1-0.3-0.3-0.9-0.6-1.3L8.9,69.7z M11,66.5H8.4v0.9H11V66.5z M16.7,74.4
			c0-0.3-0.1-0.6-0.2-0.9c-1.3,0.3-2.6,0.5-3.7,0.7l-0.2-1c0.5-0.1,1.2-0.2,1.8-0.3v-2.4h-1.6V66h1.6v-2.1h1V66H17v4.5h-1.6v2.2
			l0.9-0.1c-0.1-0.5-0.3-0.9-0.4-1.4l0.8-0.2c0.4,1,0.8,2.3,0.9,3.1L16.7,74.4z M13.6,69.6h0.9v-2.7h-0.9V69.6z M16.2,66.9h-0.9v2.7
			h0.9V66.9z"/>
	</g>
</g>
</svg>
