<svg xmlns="http://www.w3.org/2000/svg" viewBox="0 0 324.44 105.18"><defs><style>.cls-1{fill:#efefef;stroke:#4c4949;stroke-miterlimit:10;stroke-width:0.5px;}.cls-1,.cls-2,.cls-3{opacity:0.35;}.cls-2{fill:#4a962f;}.cls-3{fill:#a1ce63;}.cls-4{font-size:8.74px;fill:#4d4949;letter-spacing:0.08em;}.cls-13,.cls-4{font-family:NotoSansCJKtc-Medium-B5pc-H, Noto Sans CJK TC;}.cls-5,.cls-6,.cls-9{font-size:6.8px;font-family:NotoSansCJKtc-DemiLight-B5pc-H, Noto Sans CJK TC;}.cls-5,.cls-8{letter-spacing:0.08em;}.cls-6{letter-spacing:0.14em;}.cls-7{letter-spacing:-0.11em;}.cls-9{letter-spacing:0.13em;}.cls-10{letter-spacing:-0.12em;}.cls-11{letter-spacing:0.13em;}.cls-12{letter-spacing:-0.12em;}.cls-13{writing-mode:tb;text-orientation:upright;glyph-orientation-vertical:0deg;font-size:11.65px;fill:#898989;letter-spacing:0.08em;}.cls-14{letter-spacing:0.08em;}</style></defs><g id="圖層_2" data-name="圖層 2"><g id="圖層_1-2" data-name="圖層 1"><rect class="cls-1" x="0.25" y="0.25" width="37.96" height="99.86"/><rect class="cls-2" x="184.98" y="0.25" width="139.46" height="42.62"/><rect class="cls-3" x="42.08" y="0.25" width="139.46" height="42.62"/><rect class="cls-3" x="184.98" y="46.33" width="139.46" height="53.77"/><rect class="cls-2" x="42.08" y="46.33" width="139.46" height="53.77"/><text class="cls-4" transform="translate(50.97 19.29)">綠色核保<tspan class="cls-5"><tspan x="0" y="12.62">2022年起限制高汙染行業承保容量</tspan></tspan></text><text class="cls-4" transform="translate(195.13 19.29)">綠色投資<tspan class="cls-5"><tspan x="0" y="12.62">2022年起投資標的ESG列為投資準則</tspan></tspan></text><text class="cls-4" transform="translate(50.97 60.81)">綠色營運<tspan class="cls-5"><tspan x="0" y="12.62">2022年完成溫室氣體排放盤點認證</tspan><tspan x="0" y="22.33">2023年成立永續部門推動環境永續</tspan><tspan x="0" y="32.03">2023年開發多元就業促進社會永續</tspan></tspan></text><text class="cls-4" transform="translate(195.13 60.81)">綠色投資<tspan class="cls-6"><tspan x="0" y="12.62">綠電保</tspan><tspan class="cls-7" x="23.26" y="12.62">險、</tspan><tspan x="35.36" y="12.62">農業保</tspan><tspan class="cls-7" x="58.62" y="12.62">險、</tspan><tspan x="70.73" y="12.62">氣候風</tspan><tspan class="cls-7" x="93.98" y="12.62">險、</tspan><tspan x="106.09" y="12.62">UB</tspan><tspan class="cls-8" x="117.3" y="12.62">I</tspan></tspan><tspan class="cls-9"><tspan x="0" y="22.33">車</tspan><tspan class="cls-10" x="7.67" y="22.33">險、</tspan><tspan class="cls-11" x="19.6" y="22.33">電動車保</tspan><tspan class="cls-12" x="50.26" y="22.33">險、</tspan><tspan x="62.19" y="22.33">綠色住宅火</tspan><tspan class="cls-10" x="100.52" y="22.33">險、</tspan><tspan class="cls-8" x="112.45" y="22.33">無</tspan></tspan><tspan class="cls-5"><tspan x="0" y="32.03">紙化與數位化減碳流程改造工程</tspan></tspan></text><text class="cls-13" transform="translate(25.99 25.75)">四大政策<tspan class="cls-14" x="0" y="50.32"> </tspan><tspan x="-13.59" y="0">永續金融</tspan></text></g></g></svg>