<?xml version="1.0" encoding="utf-8"?>
<!-- Generator: Adobe Illustrator 25.0.0, SVG Export Plug-In . SVG Version: 6.00 Build 0)  -->
<svg version="1.1" id="レイヤー_1" xmlns="http://www.w3.org/2000/svg" xmlns:xlink="http://www.w3.org/1999/xlink" x="0px"
	 y="0px" viewBox="0 0 128 15" style="enable-background:new 0 0 128 15;" xml:space="preserve">
<style type="text/css">
	.st0{fill:#00655A;}
	.st1{fill:#FFFFFF;}
	.st2{fill:#231815;}
</style>
<path class="st0" d="M102,5.6v1.7h1.4v0.3H102v1.7h1.8v0.3h-2.3V5.3h2.3v0.3L102,5.6z M73.9,5.3h-0.4v4.4h0.4V5.3z M75.5,9.7V5.8
	l0,0l1.8,3.9h0.6V5.3h-0.4v3.9l0,0l-1.8-3.9h-0.6v4.4L75.5,9.7z M94.2,9.7V5.8l0,0L96,9.7h0.6V5.3h-0.4v3.9l0,0l-1.8-3.9h-0.6v4.4
	L94.2,9.7z M81.5,6.4c0-0.6-0.2-1.2-1.1-1.2c-0.7,0-1.2,0.3-1.2,1.1c0,0.4,0,0.7,0.9,1.2c0.6,0.4,1,0.6,1,1.2
	c0.1,0.4-0.2,0.7-0.6,0.8c-0.1,0-0.1,0-0.2,0c-0.8,0-0.8-0.5-0.8-1h-0.4c0,0.9,0.4,1.4,1.2,1.4c0.6,0.1,1.1-0.3,1.2-0.9
	c0-0.1,0-0.2,0-0.3c0-0.9-0.6-1-1.1-1.4c-0.6-0.4-0.8-0.4-0.8-1s0.3-0.7,0.8-0.7s0.8,0.3,0.8,0.9L81.5,6.4z M115,5.2
	c1.4,0,1.4,1.1,1.4,2.3s0,2.3-1.4,2.3s-1.4-1.1-1.4-2.3S113.6,5.2,115,5.2 M115,9.5c0.9,0,1-0.8,1-2s0-2-1-2s-1,0.8-1,2
	S114,9.5,115,9.5 M108.3,9.4c-0.3,0.1-0.6,0.1-0.8,0.1c-1,0-0.9-0.8-0.9-2s0-2,0.9-2c0.6,0,0.9,0.3,0.9,0.9h0.4
	c0-0.9-0.4-1.2-1.3-1.2c-1.4,0-1.4,1.4-1.4,2.3c0,0.9-0.1,2.3,1.4,2.3c0.4,0,0.8-0.1,1.2-0.2V7.4h-1.2v0.3h0.9L108.3,9.4z M85,5.3
	v2.2c0,1.2,0,2-1,2s-1-0.8-1-2V5.3h-0.4v2.2l0,0c0,1.2,0,2.3,1.4,2.3c1.4,0,1.4-1.1,1.4-2.3V5.3H85z M119.8,5.3v2.2c0,1.2,0,2-0.9,2
	c-0.9,0-1-0.8-1-2V5.3h-0.4v2.2c0,1.2,0,2.3,1.4,2.3c1.4,0,1.4-1.1,1.4-2.3V5.3H119.8z M124,6.7c0,0.4-0.1,0.7-0.4,1
	c-0.3,0.3-0.7,0.4-1.1,0.4h-0.7v1.7h-0.4V5.3h1.1c0.4,0,0.8,0.1,1.1,0.4C123.8,6,124,6.3,124,6.7L124,6.7z M123.6,6.7
	c0-0.3-0.1-0.5-0.3-0.8c-0.2-0.2-0.5-0.3-0.8-0.3h-0.7v2.1h0.7c0.3,0,0.6-0.1,0.8-0.3C123.5,7.2,123.6,6.9,123.6,6.7L123.6,6.7z
	 M89.3,9.7h-0.4L88.2,8c0-0.2-0.2-0.3-0.5-0.3h-0.8v2h-0.3V5.3h1.2c0.9,0,1.4,0.5,1.4,1.2c0,0.5-0.3,0.9-0.7,1.1
	c0.1,0.1,0.1,0.2,0.2,0.3L89.3,9.7z M87.7,7.4c0.5,0.1,0.9-0.3,1-0.8c0,0,0-0.1,0-0.1c0-0.5-0.4-0.9-0.9-0.9c0,0-0.1,0-0.1,0h-0.8
	v1.8H87.7z M112.6,9.7h-0.4L111.6,8c0-0.2-0.2-0.3-0.5-0.3h-0.8v2h-0.4V5.3h1.2c0.9,0,1.4,0.5,1.4,1.2c0,0.5-0.3,0.9-0.7,1.1
	c0.1,0.1,0.1,0.2,0.2,0.3L112.6,9.7z M111.1,7.4c0.5,0.1,1-0.3,1-0.8c0,0,0-0.1,0-0.1c0-0.8-0.6-0.9-1-0.9h-0.8v1.8H111.1z M100,8.6
	c-0.1,0.6-0.3,0.9-0.9,0.9c-0.9,0-1-0.8-1-2s0-2,1-2c0.6,0,0.8,0.3,0.9,0.9h0.5c-0.1-0.7-0.4-1.2-1.3-1.2c-1.4,0-1.4,1.1-1.4,2.3
	s0,2.3,1.4,2.3c0.9,0,1.2-0.5,1.3-1.2H100z M91.6,5.3l1.2,4.4h-0.4l-0.3-1.2h-1.5l-0.3,1.2h-0.4l1.2-4.4H91.6z M92.2,8.2l-0.7-2.4
	l-0.7,2.4H92.2z"/>
<rect x="42.6" y="2.7" class="st0" width="28.4" height="9.5"/>
<path class="st1" d="M52.1,6.2c0-0.4,0.4-0.6,0.8-0.6c0.5,0,1,0.2,1.4,0.4V5.4c-0.4-0.1-0.8-0.2-1.3-0.2c-1,0-1.6,0.4-1.6,1.2
	c0,1.5,2.4,1.4,2.4,2.4c0,0.5-0.3,0.7-0.9,0.7c-0.5,0-1-0.2-1.4-0.5v0.5c0.4,0.2,0.8,0.2,1.3,0.2c1,0,1.8-0.3,1.8-1.3
	C54.5,7.1,52.1,7.2,52.1,6.2z M47.8,8.8L47.8,8.8l-1.3-3.5h-1.6c0.4,0.2,0.6,0.5,0.6,1v3.4h0.5V5.8l0,0l1.4,3.9h0.5l1.4-3.9l0,0v3.9
	h0.8V5.3h-1L47.8,8.8z M59.2,7.6h-0.5l-0.3,0.8l-1.1-1.1c0.4-0.3,1.1-0.5,1.1-1.2c0-0.4-0.3-0.9-1.2-0.9c-0.5,0-1,0.4-1.1,0.9
	c0,0.3,0.1,0.7,0.4,0.9l0.2,0.2c-0.7,0.4-1.1,0.8-1.1,1.4c0,0.6,0.5,1.2,1.4,1.2c0.6,0,1.1-0.3,1.4-0.8l0.6,0.7h0.6
	c-0.3-0.3-0.7-0.6-1-1C58.8,8.5,59,8.2,59.2,7.6z M56.6,6.1c0-0.4,0.2-0.7,0.6-0.7c0,0,0,0,0.1,0c0.4,0,0.7,0.2,0.7,0.6c0,0,0,0,0,0
	c0,0.5-0.3,0.7-0.9,1c0,0,0-0.1-0.1-0.1C56.7,6.7,56.6,6.5,56.6,6.1z M58.2,8.8c-0.2,0.5-0.5,0.8-1,0.8c-0.5,0-1-0.3-1-0.8
	c0-0.1,0-0.1,0-0.2c0.1-0.5,0.4-0.9,0.8-1.1L58.2,8.8L58.2,8.8z M66.5,5.3h-2c0.4,0.1,0.6,0.5,0.6,1v3.4h1.3c1.4,0,2.4-0.3,2.4-2.2
	S67.9,5.3,66.5,5.3L66.5,5.3z M66.5,9.4h-0.6V5.6h0.6c1.2,0,1.5,0.7,1.5,1.9S67.7,9.4,66.5,9.4L66.5,9.4z M61.1,5.3L61.1,5.3
	c0.3,0.1,0.6,0.4,0.5,0.7l-1.5,3.7h0.5l0.5-1.4h1.9l0.6,1.4h0.8l-1.9-4.4H61.1z M61.3,8.1l0.8-2L63,8L61.3,8.1z"/>
<path class="st2" d="M4,9.7l1.7-4.4h0.5l1.8,4.4H7.5L7.1,8.5H4.9L4.4,9.7H4z M6.9,8.2l-1-2.5L5,8.2H6.9z"/>
<polygon class="st2" points="10.3,9.7 10.3,5.3 10.9,5.3 12.6,9.1 14.3,5.3 14.9,5.3 14.9,9.7 14.5,9.7 14.5,5.6 14.5,5.6 12.8,9.7 
	12.4,9.7 10.7,5.7 10.7,5.7 10.7,9.7 "/>
<path class="st2" d="M16,8.3c0,0.7,0.3,1.2,1.1,1.2c0.4,0,0.8-0.3,0.9-0.7h0.4c-0.1,0.7-0.7,1.1-1.4,1.1c-0.9,0-1.4-0.8-1.4-1.6
	c-0.1-0.8,0.4-1.5,1.1-1.6c0.1,0,0.2,0,0.3,0c1,0,1.4,0.8,1.4,1.7L16,8.3z M17.9,7.9c0-0.5-0.4-1-0.9-1c0,0-0.1,0-0.1,0
	c-0.6,0-1,0.5-1,1H17.9z"/>
<path class="st2" d="M19.5,7.1L19.5,7.1c0.2-0.3,0.6-0.6,0.9-0.6c0.4,0,0.8,0.2,1,0.7c0.2-0.4,0.6-0.6,1-0.7c0.6,0,1.1,0.5,1.1,1.1
	c0,0.1,0,0.1,0,0.2v1.9h-0.4v-2c0-0.4-0.2-0.8-0.7-0.8c0,0-0.1,0-0.1,0c-0.6,0-0.9,0.5-0.9,1.1v1.8h-0.3v-2c0-0.4-0.2-0.8-0.7-0.8
	c0,0-0.1,0-0.1,0c-0.6,0-0.9,0.5-0.9,1.1v1.8h-0.4V7.3c0-0.2,0-0.5,0-0.7h0.4L19.5,7.1z"/>
<path class="st2" d="M24.8,9.7h-0.4c0-0.2,0-0.5,0-0.7V5.3h0.4v1.8l0,0c0.2-0.4,0.6-0.6,1-0.6c0.9,0,1.3,0.8,1.3,1.6
	s-0.3,1.6-1.2,1.6c-0.4,0-0.8-0.2-1.1-0.6L24.8,9.7L24.8,9.7z M24.8,8.1c0,0.7,0.3,1.4,1,1.4s0.9-0.8,0.9-1.3S26.6,7,25.9,7
	S24.9,7.5,24.8,8.1L24.8,8.1z"/>
<path class="st2" d="M28.2,8.3c0,0.7,0.3,1.2,1.1,1.2c0.4,0,0.8-0.3,0.9-0.7h0.4c-0.1,0.7-0.7,1.1-1.4,1.1c-0.9,0-1.4-0.8-1.4-1.6
	c-0.1-0.8,0.4-1.5,1.1-1.6c0.1,0,0.2,0,0.3,0c1,0,1.4,0.8,1.4,1.7L28.2,8.3z M30.2,7.9c0-0.5-0.4-1-0.9-1c0,0,0,0-0.1,0
	c-0.6,0-0.9,0.5-1,1H30.2z"/>
<path class="st2" d="M31.7,9.7h-0.4V7.3c0-0.2,0-0.5,0-0.7h0.4v0.4l0,0c0.1-0.3,0.3-0.5,0.7-0.5h0.4v0.4h-0.2c-0.5,0-0.8,0.4-0.8,1
	L31.7,9.7z"/>
<path class="st2" d="M37.7,8.2c0,0.8-0.6,1.4-1.4,1.4c-0.8,0-1.4-0.6-1.4-1.4s0.6-1.4,1.4-1.4C37,6.8,37.7,7.4,37.7,8.2z M36.3,6.9
	c-0.7,0-1,0.7-1,1.3s0.3,1.3,1,1.3c0.7,0,1-0.7,1-1.3S37,6.9,36.3,6.9L36.3,6.9z"/>
<path class="st2" d="M38.7,9.7V6.9h-0.6V6.7h0.6V6c0-0.5,0.2-0.8,0.7-0.8c0.1,0,0.2,0,0.3,0v0.3h-0.2c-0.5,0-0.5,0.3-0.5,0.7v0.4
	h0.7v0.3h-0.7v2.8L38.7,9.7z"/>
</svg>
