<svg xmlns="http://www.w3.org/2000/svg" xmlns:xlink="http://www.w3.org/1999/xlink" viewBox="0 0 777.39 375.01"><defs><style>.cls-1,.cls-49,.cls-51,.cls-52{fill:none;}.cls-2{clip-path:url(#clip-path);}.cls-3,.cls-37,.cls-45{fill:#48acbe;}.cls-16,.cls-28,.cls-3,.cls-40,.cls-42{opacity:0.14;}.cls-4{font-size:9.01px;fill:gray;letter-spacing:0.08em;}.cls-22,.cls-27,.cls-4{font-family:NotoSansCJKtc-Medium-B5pc-H, Noto Sans CJK TC;}.cls-12,.cls-5{fill:#c8647f;}.cls-12,.cls-6,.cls-9{font-size:12.18px;}.cls-18,.cls-48,.cls-6,.cls-9{fill:#fff;}.cls-12,.cls-19,.cls-29,.cls-37,.cls-41,.cls-43,.cls-6,.cls-9{font-family:NotoSansCJKtc-Bold-B5pc-H, Noto Sans CJK TC;}.cls-6{letter-spacing:0.12em;}.cls-7{letter-spacing:0.12em;}.cls-8{letter-spacing:0em;}.cls-10{letter-spacing:0.18em;}.cls-11{fill:#ffd2dc;}.cls-13,.cls-48{font-size:9.05px;font-family:NotoSansCJKtc-Regular-B5pc-H, Noto Sans CJK TC;}.cls-13{fill:#c88090;}.cls-14{letter-spacing:0.02em;}.cls-15,.cls-48{letter-spacing:0.02em;}.cls-16{fill:#689acb;}.cls-17,.cls-19{fill:#5e8fcf;}.cls-19,.cls-29,.cls-37,.cls-41,.cls-43{font-size:10.83px;}.cls-20{letter-spacing:0.02em;}.cls-21{letter-spacing:0.02em;}.cls-22,.cls-27{font-size:8.05px;}.cls-22,.cls-27,.cls-30,.cls-34{fill:#595757;}.cls-23,.cls-27{letter-spacing:0.02em;}.cls-24{letter-spacing:0.02em;}.cls-25{letter-spacing:0.02em;}.cls-26{letter-spacing:0.02em;}.cls-28,.cls-29,.cls-47{fill:#eca048;}.cls-30,.cls-34{font-size:9.06px;}.cls-30{font-family:AcuminConcept-Medium, Acumin Variable Concept;font-weight:500;}.cls-31{letter-spacing:0.05em;}.cls-32{letter-spacing:0.04em;}.cls-33{letter-spacing:0.04em;}.cls-34{font-family:AcuminConcept-Light, Acumin Variable Concept;font-weight:300;}.cls-35{letter-spacing:0.04em;}.cls-36{letter-spacing:0.03em;}.cls-38{letter-spacing:0.02em;}.cls-39{letter-spacing:0.02em;}.cls-40,.cls-41,.cls-44{fill:#f69fa8;}.cls-42,.cls-43,.cls-46{fill:#7fad4e;}.cls-49,.cls-51{stroke:#bb375b;}.cls-49,.cls-51,.cls-52{stroke-miterlimit:10;}.cls-49{stroke-width:1.24px;}.cls-50{fill:#bb375b;}.cls-51{stroke-width:1.43px;}.cls-52{stroke:#d6adb8;stroke-dasharray:6;}.cls-53{fill:#dfe4fc;}.cls-54{fill:#cbd4fa;}.cls-55{fill:#f5cfc9;}.cls-56{fill:#3d4b5f;}.cls-57{fill:#d38a40;}.cls-58{fill:#f1b1a8;}.cls-59{fill:#f5ccc6;}.cls-60{fill:#efa89d;}.cls-61{fill:#2a3341;}.cls-62{fill:#e9705b;}.cls-63{fill:#9247f5;}.cls-64{fill:#232b37;}.cls-65{fill:#4e6cf5;}.cls-66{fill:#eea95e;}.cls-67{fill:#ee9f92;}.cls-68{fill:#4059c9;}.cls-69{fill:#2c3544;}.cls-70{fill:#48576c;}.cls-71{fill:#ce543f;}.cls-72{fill:#8a9ef7;}.cls-73{fill:#e3e8fc;}.cls-74{fill:#a9b8f8;}.cls-75{fill:#e74a31;}.cls-76{fill:#f0aea3;}.cls-77{fill:#3455f4;}.cls-78{fill:#4362f5;}.cls-79{fill:#f3c2bb;}.cls-80{fill:#e8624b;}.cls-81{fill:#576982;}.cls-82{fill:#ec8e7f;}.cls-83{fill:#57413b;}</style><clipPath id="clip-path"><rect class="cls-1" width="777.39" height="375.01"/></clipPath></defs><g id="圖層_2" data-name="圖層 2"><g id="圖層_1-2" data-name="圖層 1"><g class="cls-2"><path class="cls-3" d="M393.82,361.32H321.67a5.47,5.47,0,0,1-5.47-5.48V233.68a5.48,5.48,0,0,1,5.47-5.48h72.15a5.48,5.48,0,0,1,5.48,5.48V355.84a5.48,5.48,0,0,1-5.48,5.48"/><text class="cls-4" transform="translate(498.15 93.5)">訂定永續發展策略及目標<tspan x="0" y="10.82">督導永續發展業務之執行</tspan><tspan x="0" y="21.64">每半年召開會議</tspan></text><rect class="cls-5" x="295.8" y="11.31" width="123.89" height="39.49" rx="15.33"/><text class="cls-6" transform="translate(337.29 36.46)">董<tspan class="cls-7" x="13.64" y="0">事</tspan><tspan class="cls-8" x="27.27" y="0">會</tspan></text><rect class="cls-5" x="279.61" y="75.44" width="156.28" height="50.98" rx="19.79"/><text class="cls-9" transform="translate(323.38 100.21)"><tspan class="cls-10">永續委員</tspan><tspan x="57.49" y="0">會</tspan></text><path class="cls-11" d="M245,165.72H151.74c-8.47,0-15.34-6.22-15.34-13.89v-8c0-7.67,6.87-13.88,15.34-13.88H245c8.47,0,15.33,6.21,15.33,13.88v8C260.29,159.5,253.43,165.72,245,165.72Z"/><text class="cls-12" transform="translate(153.31 151.94)"><tspan class="cls-7">事務</tspan><tspan x="27.26" y="0">局</tspan></text><text class="cls-13" transform="translate(198.8 151.03)"><tspan class="cls-14">經</tspan><tspan class="cls-15" x="9.22" y="0">營</tspan><tspan class="cls-14" x="18.45" y="0">企</tspan><tspan class="cls-15" x="27.67" y="0">劃</tspan><tspan x="36.9" y="0">部</tspan></text><path class="cls-16" d="M198.13,361.32H126a5.48,5.48,0,0,1-5.48-5.48V233.68A5.48,5.48,0,0,1,126,228.2h72.15a5.49,5.49,0,0,1,5.48,5.48V355.84a5.48,5.48,0,0,1-5.48,5.48"/><path class="cls-17" d="M144.55,228.59a17.51,17.51,0,1,1,17.5,17.51A17.51,17.51,0,0,1,144.55,228.59Z"/><path class="cls-18" d="M174.86,226.54v6.05h-.08l-7.23,3.62-.13.22a1.26,1.26,0,0,1-1.07,1.21l-.18.18a1.26,1.26,0,0,1-1.07,1.07l-.16.13a1.25,1.25,0,0,1-1.13,1.12,5.4,5.4,0,0,1-.5.87,2.25,2.25,0,0,1-.6.37h-.55c-.27-.16-.55-.31-.8-.49a.3.3,0,0,0-.37-.05,1.26,1.26,0,0,1-1.78-.92c0-.15-.09-.2-.24-.23a1.15,1.15,0,0,1-.87-.64c-.08-.16-.07-.41-.19-.52s-.37-.12-.55-.21a6.05,6.05,0,0,0-1.9-2.23l-.07-.12-1.12-.68c-.11.12-.19.29-.27.29a2.63,2.63,0,0,1-.93-.08c-1.2-.37-2.39-.78-3.58-1.17a.29.29,0,0,1-.24-.33q0-4,0-8v-.26a2.78,2.78,0,0,1,2,.38c.17.15.42.22.59.36a1.49,1.49,0,0,0,1.68.23l.25-.13-.16-.25a2.91,2.91,0,0,1-.95-1.41,5,5,0,0,1-.12-1.76,2.77,2.77,0,0,1,1.7-2.53,9.57,9.57,0,0,1,1.28-.34c-.1-.24-.23-.53-.34-.82l0-.24c.68-.7,1.38-1.39,2.08-2.1.39.25.76.5,1.15.73l.3,0c.4-.15.8-.34,1.2-.49a.31.31,0,0,0,.24-.27c.08-.43.18-.86.27-1.28h3.15c.1.44.18.87.28,1.3l.21.23c.4.19.81.34,1.21.52a.27.27,0,0,0,.32,0l1.14-.74c.71.71,1.41,1.41,2.1,2.12v.24c-.11.29-.24.57-.36.87a2.92,2.92,0,0,1,2.76,1.77,4.18,4.18,0,0,1,.26,2,2.92,2.92,0,0,1-1.08,2.2l-.16.23.23.14,1.94.54.21,0,1.06-.55.28-.09C174.31,226.52,174.58,226.53,174.86,226.54Zm-.85.88-.29.14-7.06,3.73a1.35,1.35,0,0,1-.83.18,4.26,4.26,0,0,1-.49-.1l-2.13-.61a1.94,1.94,0,0,0-1.44.08L159.52,232a.63.63,0,0,0-.28.87.58.58,0,0,0,.85.16l1.32-.79a1.68,1.68,0,0,1,2.22.21l3.27,3a.3.3,0,0,0,.4,0l6.5-3.25a.36.36,0,0,0,.23-.38c0-1.36,0-2.73,0-4.1C174,227.61,174,227.53,174,227.42Zm-12.86,2.81a4.35,4.35,0,0,0-2.3-.37c-1.06.17-2.1.43-3.15.66l-.18.16c-.35,1.21-.7,2.42-1,3.63l0,.18,1.16.71c.32-.32.59-.63.91-.9a1.26,1.26,0,0,1,2.1.71.26.26,0,0,0,.25.22,1.23,1.23,0,0,1,.87.65c.08.17.12.36.19.55a1.32,1.32,0,0,1,1.21,1.24,1.69,1.69,0,0,1,1.09.67,5.28,5.28,0,0,0,1.09.9.44.44,0,0,0,.64-.12.45.45,0,0,0-.14-.6c-.15-.14-.32-.27-.48-.4l-1.64-1.37.53-.63.11.09,2.06,1.71a.53.53,0,0,0,.76,0c.18-.22.13-.46-.16-.7l-1.21-1-.85-.71.53-.63,2.12,1.76.2.15a.5.5,0,0,0,.61-.11.44.44,0,0,0-.05-.61l-.14-.14-3.18-2.86a.94.94,0,0,0-1.33-.13c-.47.28-.93.58-1.42.84a1.41,1.41,0,1,1-1.21-2.55Zm-3.2-1.08.26,0a5.19,5.19,0,0,1,2.35.07l2.88.79,2.23.63a1.64,1.64,0,0,0,.32.05c.15,0,.2-.07.2-.21,0-.45,0-.9,0-1.35a1.23,1.23,0,0,0-1-1.26c-.7-.18-1.41-.36-2.11-.52-.14,0-.19-.09-.19-.24s0-.6,0-.9a.3.3,0,0,1,.19-.33,2,2,0,0,0,1-1.47,4.19,4.19,0,0,0,0-1.12,3,3,0,0,0-.29-1,2,2,0,0,0-3.7.37,6.32,6.32,0,0,0-.11,1.31,2.05,2.05,0,0,0,1.07,2l.15.27c0,.29,0,.59,0,.88s-.06.27-.25.31l-2.08.52A1.21,1.21,0,0,0,158,229.15Zm13.53-1.34v-.06l-1.74-.43c-.18,0-.25-.11-.24-.29s0-.55,0-.83a.36.36,0,0,1,.2-.38,1.82,1.82,0,0,0,.95-1.23,3.85,3.85,0,0,0,0-2,2.08,2.08,0,0,0-1.9-1.41,2,2,0,0,0-2,1.46,6.66,6.66,0,0,0-.1,1.48,1.67,1.67,0,0,0,.73,1.49,1,1,0,0,1,.5,1.16v.3c0,.17-.05.23-.21.26l-1.22.31c.75.73.58,1.64.6,2.54Zm-13.79-.19c-.44-.12-.84-.23-1.25-.32a.19.19,0,0,1-.17-.22q0-.44,0-.87a.36.36,0,0,1,.2-.38,2,2,0,0,0,1-1.5,4.35,4.35,0,0,0,0-1,3.76,3.76,0,0,0-.3-1.09,2,2,0,0,0-3.69.37,7.26,7.26,0,0,0-.11,1.55,1.66,1.66,0,0,0,.72,1.45,1,1,0,0,1,.5,1.15v.3c0,.16,0,.24-.2.27s-.45.11-.68.17l0,.06a12.83,12.83,0,0,0,1.43.82,1,1,0,0,1,.64,1.22l0,0,1.09-.25.14-.15A2.2,2.2,0,0,1,157.69,227.62Zm1.48-4c0-.18,0-.36,0-.53a2.81,2.81,0,0,1,1.72-2.52,2.75,2.75,0,0,1,2.94.39c1.29,1,1.33,3,.89,4.17a2.69,2.69,0,0,1-.9,1.18c-.16.13-.16.27,0,.31.5.14,1,.26,1.5.38l.2,0,1.3-.33.19-.12-.11-.22a5.14,5.14,0,0,1-.66-.75,4.21,4.21,0,0,1-.25-3.42l0-.32a4.53,4.53,0,0,0-7.86-.07.45.45,0,0,0,0,.42,4.23,4.23,0,0,1,0,3.09,2.64,2.64,0,0,1-.82,1l-.12.23.12.09c.48.12,1,.25,1.45.36h.22l1.33-.34.16-.1-.11-.23c-.15-.16-.33-.3-.47-.47A3.07,3.07,0,0,1,159.17,223.63Zm7.41-2.48.89-.56.09-.12c.13-.29.25-.58.37-.87l0-.2c-.4-.42-.82-.83-1.24-1.25-.35.22-.68.45-1,.65h-.28a6.63,6.63,0,0,0-2-.8.26.26,0,0,1-.22-.23c-.06-.33-.14-.65-.19-1a.2.2,0,0,0-.24-.19h-1.45a.19.19,0,0,0-.21.18c-.06.33-.14.65-.2,1a.27.27,0,0,1-.23.24,6.41,6.41,0,0,0-1.93.8.23.23,0,0,1-.31,0l-.85-.56c-.11-.08-.18-.06-.28,0l-1.06,1.06a.23.23,0,0,0-.06.31c.12.26.22.53.34.8l.11.16.88.58a5.38,5.38,0,0,1,9.06,0Zm-16.5,5.37v5.94c0,.34,0,.68,0,1l.11.21,1.65.56,1.5-6c-1-.56-1.93-1.13-2.9-1.68A1,1,0,0,0,150.08,226.52Zm3.39,8.27.09-.25c.17-.61.35-1.23.52-1.85.31-1.05.61-2.11.9-3.16l0-.33c-.26-.18-.55-.33-.86-.51-.48,2-1,3.88-1.45,5.82Zm7,5.35.19-.06c.31-.29.62-.58.9-.9a.39.39,0,0,0-.07-.54.38.38,0,0,0-.54-.06,6.38,6.38,0,0,0-.9.9C159.86,239.74,160.1,240.13,160.48,240.14Zm-3.79-3.68a1,1,0,0,0,.25-.08c.31-.31.64-.61.92-.94a.38.38,0,0,0-.1-.54.4.4,0,0,0-.55,0,8.33,8.33,0,0,0-.84.84.53.53,0,0,0,0,.46C156.41,236.31,156.59,236.38,156.69,236.46Zm3.77,1.24a1.74,1.74,0,0,0-.32-.38.39.39,0,0,0-.5.07c-.25.22-.48.46-.71.7a.46.46,0,0,0,0,.69.48.48,0,0,0,.69-.05c.22-.21.43-.42.63-.64A3,3,0,0,0,160.46,237.7Zm-2.45,0,.2-.08a12.18,12.18,0,0,0,.88-.88.44.44,0,0,0-.59-.62,5.78,5.78,0,0,0-.92.93C157.38,237.28,157.65,237.67,158,237.67Zm3.79,2.52c.22.22.45.47.79.33a.54.54,0,0,0,.27-.37c0-.35-.3-.45-.48-.64Z"/><text class="cls-19" transform="translate(139.34 262.54)"><tspan class="cls-20">公</tspan><tspan class="cls-21" x="11.04" y="0">司</tspan><tspan class="cls-20" x="22.09" y="0">治</tspan><tspan x="33.13" y="0">理</tspan></text><text class="cls-22" transform="translate(136.24 280.25)"><tspan class="cls-23">▪</tspan><tspan class="cls-24" x="8.21" y="0">董</tspan><tspan class="cls-23" x="16.41" y="0">事</tspan><tspan class="cls-25" x="24.62" y="0">會</tspan><tspan class="cls-26" x="32.83" y="0">運</tspan><tspan x="41.04" y="0">作</tspan></text><text class="cls-22" transform="translate(136.24 294.25)"><tspan class="cls-23">▪</tspan><tspan class="cls-24" x="8.21" y="0">誠</tspan><tspan class="cls-23" x="16.41" y="0">信</tspan><tspan class="cls-25" x="24.62" y="0">經</tspan><tspan x="32.83" y="0">營</tspan></text><text class="cls-22" transform="translate(136.24 308.26)"><tspan class="cls-23">▪</tspan><tspan class="cls-24" x="8.21" y="0">風</tspan><tspan class="cls-23" x="16.41" y="0">險</tspan><tspan class="cls-25" x="24.62" y="0">管</tspan><tspan x="32.83" y="0">理</tspan></text><text class="cls-27" transform="translate(136.24 322.27)">▪<tspan class="cls-24" x="8.21" y="0">法令遵循</tspan></text><text class="cls-27" transform="translate(328.61 280.25)">▪多元共融<tspan class="cls-25" x="41.05" y="0">(D&amp;I)</tspan></text><text class="cls-27" transform="translate(328.61 294.25)">▪育才留才</text><text class="cls-27" transform="translate(328.61 308.26)">▪<tspan class="cls-24" x="8.21" y="0">健康安全</tspan></text><text class="cls-27" transform="translate(328.61 322.27)">▪<tspan class="cls-24" x="8.21" y="0">員工照顧</tspan></text><text class="cls-22" transform="translate(136.24 336.27)"><tspan class="cls-23">▪</tspan><tspan class="cls-24" x="8.21" y="0">資</tspan><tspan class="cls-23" x="16.41" y="0">訊</tspan><tspan class="cls-25" x="24.62" y="0">安</tspan><tspan x="32.83" y="0">全</tspan></text><text class="cls-27" transform="translate(136.24 350.28)">▪<tspan class="cls-24" x="8.21" y="0">責任投資</tspan></text><path class="cls-28" d="M296,361.32H223.83a5.48,5.48,0,0,1-5.48-5.48V233.68a5.48,5.48,0,0,1,5.48-5.48H296a5.48,5.48,0,0,1,5.47,5.48V355.84a5.47,5.47,0,0,1-5.47,5.48"/><text class="cls-29" transform="translate(237.75 262.54)"><tspan class="cls-20">商</tspan><tspan class="cls-21" x="11.04" y="0">品</tspan><tspan class="cls-20" x="22.09" y="0">服</tspan><tspan x="33.13" y="0">務</tspan></text><text class="cls-22" transform="translate(234.82 279.9)">▪</text><text class="cls-30" transform="translate(243.03 279.9)"><tspan class="cls-31">C</tspan><tspan class="cls-32" x="6.67" y="0">S</tspan><tspan class="cls-33" x="12.59" y="0">V</tspan><tspan x="18.8" y="0"> </tspan></text><text class="cls-34" transform="translate(264.5 278.89) scale(1.25 1)">x</text><text class="cls-30" transform="translate(269.91 279.9)"><tspan class="cls-35"> </tspan><tspan class="cls-36" x="2.63" y="0">D</tspan><tspan x="9.42" y="0">X</tspan></text><text class="cls-22" transform="translate(234.82 295.19)"><tspan class="cls-23">▪</tspan><tspan class="cls-24" x="8.21" y="0">綠</tspan><tspan class="cls-23" x="16.41" y="0">色</tspan><tspan class="cls-25" x="24.62" y="0">商</tspan><tspan x="32.83" y="0">品</tspan></text><text class="cls-22" transform="translate(234.82 310.49)"><tspan class="cls-23">▪</tspan><tspan class="cls-24" x="8.21" y="0">客</tspan><tspan class="cls-23" x="16.41" y="0">戶</tspan><tspan class="cls-25" x="24.62" y="0">服</tspan><tspan x="32.83" y="0">務</tspan></text><text class="cls-37" transform="translate(334.99 262.54)"><tspan class="cls-38">員</tspan><tspan class="cls-39" x="11.05" y="0">工</tspan><tspan class="cls-38" x="22.09" y="0">幸</tspan><tspan x="33.14" y="0">福</tspan></text><path class="cls-40" d="M491.67,361.32H419.52a5.48,5.48,0,0,1-5.48-5.48V233.68a5.49,5.49,0,0,1,5.48-5.48h72.15a5.48,5.48,0,0,1,5.48,5.48V355.84a5.48,5.48,0,0,1-5.48,5.48"/><text class="cls-41" transform="translate(433.26 262.54)"><tspan class="cls-38">社</tspan><tspan class="cls-39" x="11.05" y="0">會</tspan><tspan class="cls-38" x="22.09" y="0">關</tspan><tspan x="33.14" y="0">懷</tspan></text><text class="cls-22" transform="translate(434.07 280.38)"><tspan class="cls-23">▪社</tspan><tspan class="cls-24" x="16.42" y="0">會</tspan><tspan class="cls-23" x="24.62" y="0">參</tspan><tspan x="32.83" y="0">與</tspan></text><text class="cls-22" transform="translate(434.07 295.67)"><tspan class="cls-23">▪體</tspan><tspan class="cls-24" x="16.42" y="0">育</tspan><tspan class="cls-23" x="24.62" y="0">支</tspan><tspan x="32.83" y="0">援</tspan></text><path class="cls-42" d="M589.52,361.32H517.37a5.48,5.48,0,0,1-5.48-5.48V233.68a5.48,5.48,0,0,1,5.48-5.48h72.15a5.48,5.48,0,0,1,5.47,5.48V355.84a5.47,5.47,0,0,1-5.47,5.48"/><text class="cls-43" transform="translate(531.11 262.54)"><tspan class="cls-38">綠</tspan><tspan class="cls-39" x="11.05" y="0">色</tspan><tspan class="cls-38" x="22.09" y="0">營</tspan><tspan x="33.14" y="0">運</tspan></text><text class="cls-22" transform="translate(531.95 280.38)"><tspan class="cls-23">▪能</tspan><tspan class="cls-24" x="16.42" y="0">源</tspan><tspan class="cls-23" x="24.62" y="0">管</tspan><tspan x="32.83" y="0">理</tspan></text><text class="cls-22" transform="translate(531.95 295.67)"><tspan class="cls-23">▪節</tspan><tspan class="cls-24" x="16.42" y="0">能</tspan><tspan class="cls-23" x="24.62" y="0">減</tspan><tspan x="32.83" y="0">碳</tspan></text><text class="cls-22" transform="translate(531.95 310.97)"><tspan class="cls-23">▪綠</tspan><tspan class="cls-24" x="16.42" y="0">色</tspan><tspan class="cls-23" x="24.62" y="0">採</tspan><tspan x="32.83" y="0">購</tspan></text><path class="cls-44" d="M438.59,229.09a17,17,0,1,1,17,17A17,17,0,0,1,438.59,229.09Z"/><path class="cls-18" d="M466.46,223.87a1.2,1.2,0,0,1-.74.84,1.47,1.47,0,0,1-.42.06h-1.59a1.08,1.08,0,0,1-1-.56c-.06-.11-.13-.15-.24-.12a3.42,3.42,0,0,0-.72.26,4.7,4.7,0,0,1-2.83.79,8.93,8.93,0,0,1-2.16-.45l-1.13-.34a1.57,1.57,0,0,1-1.15-1l-.05-.09-1,.51-2.33,1.16a1.77,1.77,0,0,1-1.25.2,1.48,1.48,0,0,1-.59-2.59c.54-.45,1.13-.84,1.71-1.24a.42.42,0,0,1,.47.7L450,223l-.14.1a.68.68,0,0,0-.23.91.67.67,0,0,0,.9.22c.38-.17.75-.36,1.13-.55.9-.44,1.81-.89,2.71-1.35l.24-.22a1.56,1.56,0,0,1,1.78-.73l2.28.66c.29.09.42.3.34.54a.42.42,0,0,1-.57.28l-2.28-.66a.69.69,0,0,0-.89.73.62.62,0,0,0,.45.59,16.29,16.29,0,0,0,3.07.79,3.53,3.53,0,0,0,2.31-.52,2.6,2.6,0,0,1,1.45-.51v-2.65a10.42,10.42,0,0,1-1.38-.19c-1.1-.28-2.19-.61-3.29-.92l-1.22-.33a1.91,1.91,0,0,0-1.48.18c-.21.11-.41.25-.61.38a.44.44,0,0,1-.62-.07.41.41,0,0,1,.11-.61,3.23,3.23,0,0,1,2.23-.79,8.58,8.58,0,0,1,1.42.32c1.19.32,2.36.68,3.55,1a9,9,0,0,0,1.27.18l.05-.11a1.13,1.13,0,0,1,1.24-1h1.27a1.19,1.19,0,0,1,1.38.92Zm-3-2.16v1.84c0,.29.08.37.36.37h1.48c.28,0,.36-.08.36-.37v-3.67c0-.28-.08-.36-.37-.36h-1.46c-.29,0-.37.09-.37.38Z"/><path class="cls-18" d="M454.75,240l-3.81-1.07a8.29,8.29,0,0,0-2-.39h-.33l-.05.2a1.05,1.05,0,0,1-.94.81c-.64,0-1.3,0-1.95,0a1,1,0,0,1-1-1q0-2,0-4a1.07,1.07,0,0,1,1.05-1.05h1.78a1,1,0,0,1,.89.53c.08.13.17.18.3.14a3.36,3.36,0,0,0,.71-.27,4.67,4.67,0,0,1,2.81-.77,8.16,8.16,0,0,1,2,.41l1.26.37a1.59,1.59,0,0,1,1.17,1.06l0,.09,1.71-.85,1.83-.9a1.55,1.55,0,0,1,1.83.31,1.5,1.5,0,0,1-.19,2.19c-.54.43-1.11.81-1.67,1.2a.42.42,0,0,1-.59-.09.42.42,0,0,1,.11-.6c.47-.35.95-.68,1.43-1l.2-.15a.67.67,0,0,0,.16-.83.66.66,0,0,0-.79-.28l-.26.11-3.72,1.84-.22.21a1.54,1.54,0,0,1-1.78.73c-.77-.21-1.53-.44-2.3-.66a.43.43,0,1,1,.24-.82c.76.22,1.53.45,2.3.66a.68.68,0,0,0,.88-.73.62.62,0,0,0-.44-.59,18.54,18.54,0,0,0-3.1-.79,3.49,3.49,0,0,0-2.19.47,2.91,2.91,0,0,1-1.55.57v2.62c.65.11,1.3.18,1.92.34,1.18.31,2.36.65,3.52,1a2.47,2.47,0,0,0,2.39-.34l.19-.13a.42.42,0,1,1,.49.69l-.24.17a4.27,4.27,0,0,1-1.54.64Zm-7-3.49v-1.86c0-.26-.09-.34-.35-.35h-1.5c-.28,0-.36.09-.36.36v3.69c0,.27.09.35.35.36h1.49c.28,0,.36-.09.37-.37Z"/><path class="cls-18" d="M456.66,226.41a2.39,2.39,0,0,1,2-.54,2.3,2.3,0,0,1,1.79,2.16,2.6,2.6,0,0,1-.83,2.12l-2.49,2.4c-.35.33-.61.34-.95,0-.86-.82-1.73-1.64-2.57-2.48a2.49,2.49,0,0,1-.63-2.71,2.2,2.2,0,0,1,3.29-1.21C456.41,226.23,456.52,226.32,456.66,226.41Zm0,5.27.09,0c.83-.8,1.65-1.58,2.46-2.39a1.5,1.5,0,0,0,.42-1.38,1.23,1.23,0,0,0-1.49-1.12,2.06,2.06,0,0,0-.76.4c-.56.47-.83.48-1.37,0l-.23-.19a1.24,1.24,0,0,0-2,.66,1.46,1.46,0,0,0,.3,1.56C454.91,230,455.78,230.86,456.63,231.68Z"/><path class="cls-18" d="M453.14,220.48a.42.42,0,0,1-.84,0,.42.42,0,0,1,.42-.43A.41.41,0,0,1,453.14,220.48Z"/><path class="cls-18" d="M458.47,237.28a.42.42,0,0,1,.43.4.45.45,0,0,1-.43.44.43.43,0,0,1-.42-.44A.41.41,0,0,1,458.47,237.28Z"/><path class="cls-45" d="M340.74,229.09a17,17,0,1,1,17,17A17,17,0,0,1,340.74,229.09Z"/><path class="cls-18" d="M366.69,231.13a3,3,0,0,0-2.58.68l-.42-.29a2.85,2.85,0,0,0-2.83-.15l-.4-.15c-.51-.18-.5-.18-.51-.73a.47.47,0,0,1,.2-.45,2.46,2.46,0,0,0,.39-.4,5.18,5.18,0,0,0,1-2.64,5.72,5.72,0,0,1,.69-2.2,1.82,1.82,0,0,0,.2-.8c0-.72,0-1.45,0-2.18a2.2,2.2,0,0,0-1.2-2.07l-.1-.17a1.25,1.25,0,0,0-1.3-1.31q-2.42,0-4.83,0a3.49,3.49,0,0,0-3.39,3.21c-.05.66,0,1.33,0,2a2.35,2.35,0,0,0,.5,1.57,1.56,1.56,0,0,1,.32.85c0,.51,0,1,.12,1.52a4.21,4.21,0,0,0,1.22,2.5,1,1,0,0,1,.37.94v0c0,.13-.05.18-.16.22l-1.3.46c-1.36.5-2.73,1-4.09,1.49a2.35,2.35,0,0,0-1.61,1.89c-.15.8-.28,1.61-.4,2.42a2.65,2.65,0,0,0-.07.79,1.29,1.29,0,0,0,1.37,1.11h15.22l.33.32c.49.47.8.47,1.29,0,1.05-1,2.09-2,3.14-3a3.42,3.42,0,0,0,1.05-2.07A3,3,0,0,0,366.69,231.13Zm-14.21-7.68a4.14,4.14,0,0,0,0,.61h-.08a3.42,3.42,0,0,1,0-.44v-1.79a2.78,2.78,0,0,1,2.75-2.85c1.57,0,3.14,0,4.71,0,.51,0,.78.29.61.81a.34.34,0,0,0,.26.5,1.55,1.55,0,0,1,1.1,1.53c0,.7,0,1.4,0,2.1a3.59,3.59,0,0,1,0,.46h-.07v-.55a2.07,2.07,0,0,0-1.3-2,17.77,17.77,0,0,0-2-.7,1.41,1.41,0,0,0-1,0,5.67,5.67,0,0,1-2.7.45A2.17,2.17,0,0,0,352.48,223.45Zm.89,4.2a6.07,6.07,0,0,1-.17-1.34c0-.86,0-1.73,0-2.59a1.48,1.48,0,0,1,1.38-1.39,9.41,9.41,0,0,0,1.68-.05,6.89,6.89,0,0,0,1.29-.41,1.1,1.1,0,0,1,.78,0l1.62.57a1.46,1.46,0,0,1,1,1l0,.24v1.4h0c0,.68-.05,1.37-.13,2a4.18,4.18,0,0,1-.65,1.76,2.81,2.81,0,0,1-.79.82c-.3.21-.57.46-.86.67a2.24,2.24,0,0,1-2.75.13c-.44-.3-.89-.6-1.31-.93A3.3,3.3,0,0,1,353.37,227.65Zm5.85,3.14a.35.35,0,0,1-.19.45c-.62.4-1.22.81-1.83,1.22a.2.2,0,0,1-.28,0c-.61-.41-1.23-.83-1.85-1.23a.34.34,0,0,1-.17-.44A3.13,3.13,0,0,0,359.22,230.79Zm-6.05,1.76c.84,1.52,1.66,3,2.48,4.52l0,0-2.23-2c.12-.23.24-.44.35-.66a.36.36,0,0,0-.35-.57l-.76,0-.07,0Zm2.75,6h-8a.61.61,0,0,1-.68-.79c.14-.91.29-1.81.45-2.72a1.62,1.62,0,0,1,1-1.28c1.19-.45,2.38-.86,3.57-1.3h.1l-.13.26c-.2.4-.41.8-.61,1.21s0,.56.35.58h.83l-.17.33c-.15.3-.14.4.11.63l3.16,2.89.18.16Zm.14-2.33H356l-.34-.62,0-.14c.16-.22.32-.44.53-.71a1.29,1.29,0,0,1,0,.25Zm-.81-1.37c-.54-1-1.05-1.91-1.58-2.87.25-.09.47-.18.7-.25l.17,0,2,1.33C356.11,233.66,355.69,234.24,355.25,234.85Zm2.23,2.52-.42.78a4.64,4.64,0,0,1-.43-.82,1.8,1.8,0,0,1,.07-.64L357,235a.57.57,0,0,0-.13-.53c-.07-.08-.12-.18-.2-.29l.42-.56a5.1,5.1,0,0,1,.36.49v.17a1.05,1.05,0,0,0-.21,1.05c.12.61.21,1.22.3,1.84Zm1.74-5.4a.76.76,0,0,1,.93-.1h0a2.87,2.87,0,0,0-.69,1.13,3.74,3.74,0,0,0-.21,1.15l-.38.7-1.29-1.77C358.14,232.71,358.7,232.36,359.22,232Zm.55,3.91c-.38.36-.92.89-1.28,1.22l0,0c.3-.55.7-1.19,1-1.73h0A2.7,2.7,0,0,0,359.77,235.88Zm-1.83-1.07c.17.23.34.45.5.69v.14a4.88,4.88,0,0,1-.34.58,11.15,11.15,0,0,1-.22-1.39Zm.27,3.74H358v-.05l1.44-1.32.76-.74.06.06c.69.69,1.4,1.37,2.11,2.05Zm9.82-3.82a1.92,1.92,0,0,1-.42.75c-1.14,1.15-2.31,2.26-3.5,3.42-1.18-1.14-2.34-2.24-3.46-3.36a2.14,2.14,0,0,1-.37-2.41,1.7,1.7,0,0,1,2.69-.75c.87.79,1.41.82,2.27,0a1.67,1.67,0,0,1,2.07,0A2.14,2.14,0,0,1,368,234.73Z"/><path class="cls-18" d="M571.79,204.34v-.62h2v.62Z"/><path class="cls-18" d="M570.48,200.59l-.36-.37,1.42-1.42.35.41Z"/><path class="cls-18" d="M571.93,208.86l-.4.38-1.42-1.42.4-.39Z"/><path class="cls-46" d="M536.44,229.09a17,17,0,1,1,17,17A17,17,0,0,1,536.44,229.09Z"/><path class="cls-18" d="M551.74,241.52c0-.36,0-.72,0-1.09l-.12-.21-1.66-.66-.8.87L546.7,238l.85-.81-.65-1.65-.22-.12c-.35,0-.71,0-1.08,0V232h1.08c.11,0,.18,0,.23-.15.19-.53.41-1.05.64-1.64l-.86-.79,2.45-2.46c.22.23.47.47.7.72a.25.25,0,0,0,.36.07c.43-.2.88-.38,1.32-.54a.27.27,0,0,0,.21-.3c0-.33,0-.67,0-1h1.34v-2.06c-.34,0-.68,0-1,0a4.63,4.63,0,0,1-4.46-5.15,3.74,3.74,0,0,1,.15-.74l.23-.19a4.61,4.61,0,0,1,5.24,2.18l.06.1c.12-.26.21-.51.33-.75a4.62,4.62,0,0,1,5.36-2.38l.22.21a4.64,4.64,0,0,1-3,5.65,5,5,0,0,1-2.3.16v3h1.33c0,.38,0,.72,0,1.07,0,.16,0,.23.2.29.46.16.9.35,1.34.55.13.06.21.07.31,0,.24-.27.49-.52.73-.75l2.44,2.44-.86.81c.19.45.38.85.54,1.27s.19.51.74.51h.69v3.44c-.35,0-.7,0-1,0-.18,0-.24.05-.3.22-.18.5-.39,1-.59,1.5l.84.83-2.47,2.46-.79-.83c-.59.23-1.13.43-1.65.65l-.12.21c0,.37,0,.73,0,1.09Zm8.82-6.86v-2c-.3,0-.59,0-.87,0s-.25-.05-.31-.23c-.16-.53-.34-1.06-.55-1.57a8.28,8.28,0,0,0-.47-.82l.79-.73c-.47-.46-.92-.92-1.42-1.42l-.74.83a6.58,6.58,0,0,0-2.55-1.07c0-.32,0-.62,0-.93,0-.16-.05-.21-.21-.21h-1.58c-.16,0-.21.05-.2.21,0,.31,0,.61,0,.89-.47.15-.91.27-1.34.44s-.81.41-1.25.64l-.72-.76c-.48.47-.94.93-1.42,1.42l.79.75a6.76,6.76,0,0,0-1,2.42l-.2.13c-.31,0-.62,0-.94,0v2h.91c.15,0,.23,0,.26.2a3.58,3.58,0,0,0,.23.79c.22.53.48,1,.76,1.65l-.75.68,1.41,1.42.75-.81a5.94,5.94,0,0,0,2.31,1c.22.05.26.14.25.34s0,.56,0,.84h2c0-.32,0-.63,0-.94l.13-.2a6.65,6.65,0,0,0,2.44-1l.72.81,1.46-1.46-.8-.74a6.29,6.29,0,0,0,1-2.34c0-.17.11-.2.26-.2Zm-12.19-16.33a3.86,3.86,0,0,0,4.14,4.66L550,220.44l.54-.59,2.56,2.56A3.88,3.88,0,0,0,548.37,218.33Zm6,3.84a3.9,3.9,0,0,0,4.13-4.7,3.8,3.8,0,0,0-3.57,1.09,3.76,3.76,0,0,0-1.11,3l.07,0,2.88-2.89.52.51Z"/><path class="cls-18" d="M543.31,234h-2.24v-.7h2.24Z"/><path class="cls-18" d="M545.19,229.42l-.43.42-1.59-1.59.45-.41Z"/><path class="cls-18" d="M544.76,237.48l.43.45-1.58,1.59-.43-.46Z"/><path class="cls-18" d="M548.75,233.66a4.7,4.7,0,1,1,4.69,4.7A4.7,4.7,0,0,1,548.75,233.66Zm8.66,0a4,4,0,1,0-4,4A4,4,0,0,0,557.41,233.66Z"/><path class="cls-18" d="M553.44,237a3.31,3.31,0,1,1,3.31-3.3A3.31,3.31,0,0,1,553.44,237Zm0-.73a2.58,2.58,0,1,0-2.58-2.56A2.58,2.58,0,0,0,553.45,236.24Z"/><path class="cls-47" d="M242.9,229.09a17,17,0,1,1,17,17A17,17,0,0,1,242.9,229.09Z"/><path class="cls-18" d="M268.58,239.39h-20v-17.9h16.63l0-.15a3,3,0,0,1,6,.49c0,4.85,0,9.69,0,14.54v.11a2.93,2.93,0,0,1-1.45,2.45A8,8,0,0,1,268.58,239.39Zm-19.34-.67h18.83a2.42,2.42,0,0,0,2-.88,2.34,2.34,0,0,0-2.61-3.69v4.11a2.18,2.18,0,0,1-1.14-.18,1.93,1.93,0,0,1-1.11-1.87c0-4.58,0-9.17,0-13.75v-.28H249.24Zm21.33-4.27V222c0-.1,0-.21,0-.31a2.36,2.36,0,0,0-4.71.21c0,4.1,0,8.21,0,12.31v.2a3.05,3.05,0,0,1,4.71,0Zm-3.83.1a2.2,2.2,0,0,0-.85,2.1,1.13,1.13,0,0,0,.85.86Z"/><path class="cls-18" d="M251.5,232.48h1.87v.66H251.5v2.47h1.88v.67h-2.56v-9.37h4.64v-.67h-3.11v-2.92h6.93v2.91h-3.11v.67h4.52v1.35h3.13v2.91h-6.93v-2.89H260v-.68h-8.5Zm7.11-8.49H253v1.56h5.59Zm4.53,6.49V229h-5.57v1.53Z"/><path class="cls-18" d="M260.89,230.31v.57H255.3v-.57Z"/><path class="cls-18" d="M260.89,233.12v.57H255.3v-.57Z"/><path class="cls-18" d="M256.89,231.5v.59h-1.58v-.59Z"/><path class="cls-18" d="M256.88,234.9H255.3v-.59h1.58Z"/><path class="cls-18" d="M257.5,232.09v-.58h.58v.58Z"/><path class="cls-18" d="M259.3,231.51v.58h-.58v-.58Z"/><path class="cls-18" d="M257.51,234.31h.57v.58h-.57Z"/><path class="cls-18" d="M258.72,234.31h.57v.58h-.57Z"/><text class="cls-48" transform="translate(330.52 115.65)">主席：總經理</text><line class="cls-49" x1="358.39" y1="70.83" x2="358.39" y2="55.09"/><polygon class="cls-50" points="363.48 66.71 362.57 65.86 358.39 70.36 354.21 65.86 353.3 66.71 358.39 72.18 363.48 66.71"/><line class="cls-51" x1="358.07" y1="130.96" x2="358.07" y2="178.13"/><path class="cls-49" d="M163.2,199.55v-12.9a10.48,10.48,0,0,1,10.48-10.47H349.56a8.51,8.51,0,0,0,8.51-8.51V131"/><polygon class="cls-50" points="168.29 195.43 167.38 194.58 163.2 199.07 159.03 194.58 158.11 195.43 163.2 200.9 168.29 195.43"/><line class="cls-49" x1="259.9" y1="199.6" x2="259.9" y2="176.18"/><polygon class="cls-50" points="264.99 195.48 264.08 194.63 259.9 199.12 255.73 194.63 254.82 195.48 259.9 200.95 264.99 195.48"/><line class="cls-49" x1="358.07" y1="199.6" x2="358.07" y2="176.18"/><polygon class="cls-50" points="363.16 195.48 362.25 194.63 358.07 199.12 353.89 194.63 352.98 195.48 358.07 200.95 363.16 195.48"/><line class="cls-49" x1="455.6" y1="199.6" x2="455.6" y2="176.18"/><polygon class="cls-50" points="460.68 195.48 459.77 194.63 455.6 199.12 451.42 194.63 450.51 195.48 455.6 200.95 460.68 195.48"/><path class="cls-49" d="M552.94,199.55v-12.9a10.48,10.48,0,0,0-10.48-10.47H366.57a8.51,8.51,0,0,1-8.5-8.51V131"/><polygon class="cls-50" points="558.02 195.43 557.11 194.58 552.94 199.07 548.76 194.58 547.85 195.43 552.94 200.9 558.02 195.43"/><line class="cls-52" x1="440.41" y1="100.21" x2="489.25" y2="100.21"/><rect class="cls-52" x="489.01" y="75.43" width="123.71" height="49.56"/><line class="cls-49" x1="271.16" y1="148.63" x2="358.25" y2="148.63"/><polygon class="cls-50" points="275.28 153.72 276.13 152.81 271.64 148.63 276.13 144.46 275.28 143.54 269.81 148.63 275.28 153.72"/><circle class="cls-53" cx="622.31" cy="303.17" r="0.81"/><circle class="cls-53" cx="628.11" cy="303.17" r="0.81"/><circle class="cls-53" cx="633.9" cy="303.17" r="0.81"/><circle class="cls-53" cx="639.69" cy="303.17" r="0.81"/><circle class="cls-53" cx="622.31" cy="307.75" r="0.81"/><circle class="cls-53" cx="628.11" cy="307.75" r="0.81"/><circle class="cls-53" cx="633.9" cy="307.75" r="0.81"/><circle class="cls-53" cx="639.69" cy="307.75" r="0.81"/><circle class="cls-53" cx="622.31" cy="312.34" r="0.81"/><circle class="cls-53" cx="628.11" cy="312.34" r="0.81"/><circle class="cls-53" cx="633.9" cy="312.34" r="0.81"/><circle class="cls-53" cx="639.69" cy="312.34" r="0.81"/><circle class="cls-53" cx="622.31" cy="316.92" r="0.81"/><circle class="cls-53" cx="628.11" cy="316.92" r="0.81"/><circle class="cls-53" cx="633.9" cy="316.92" r="0.81"/><circle class="cls-53" cx="639.69" cy="316.92" r="0.81"/><path class="cls-54" d="M676.59,235.61l3.41-1.78v.76a.29.29,0,0,1,0,.16.58.58,0,0,1-.14.12l-1.56.8-.21.09-.24.06a2.18,2.18,0,0,1,.45.16l1.56.8a.33.33,0,0,1,.14.12.29.29,0,0,1,0,.16v.76L676.59,236Z"/><path class="cls-54" d="M682.19,238.73a.53.53,0,0,1-.23.3.7.7,0,0,1-.33.1h-.45l2.51-6.43a.58.58,0,0,1,.21-.27.56.56,0,0,1,.33-.1h.46Z"/><path class="cls-54" d="M689.27,236l-3.4,1.78v-.76a.29.29,0,0,1,0-.16.28.28,0,0,1,.14-.12l1.56-.8a1.75,1.75,0,0,1,.44-.16l-.23-.06-.21-.09-1.56-.8a.43.43,0,0,1-.14-.12.29.29,0,0,1,0-.16v-.76l3.4,1.78Z"/><path class="cls-54" d="M738.12,237.32H692.6a.39.39,0,1,1,0-.78h45.52a.39.39,0,0,1,0,.78Z"/><path class="cls-54" d="M714.31,242.33H676.82a.39.39,0,1,1,0-.77h37.49a.39.39,0,1,1,0,.77Z"/><path class="cls-54" d="M738.12,242.33H721.44a.39.39,0,1,1,0-.77h16.68a.39.39,0,0,1,0,.77Z"/><path class="cls-54" d="M738.12,246.57h-61.3a.39.39,0,1,1,0-.77h61.3a.39.39,0,0,1,0,.77Z"/><path class="cls-54" d="M697,251.29H676.82a.39.39,0,1,1,0-.78H697a.39.39,0,0,1,0,.78Z"/><path class="cls-54" d="M738.12,251.29H703.91a.39.39,0,1,1,0-.78h34.21a.39.39,0,0,1,0,.78Z"/><path class="cls-54" d="M715.36,255.23H676.82a.39.39,0,1,1,0-.78h38.54a.39.39,0,1,1,0,.78Z"/><path class="cls-54" d="M738.12,255.23H721a.39.39,0,1,1,0-.78h17.11a.39.39,0,0,1,0,.78Z"/><path class="cls-54" d="M738.12,258.63h-61.3a.39.39,0,1,1,0-.77h61.3a.39.39,0,0,1,0,.77Z"/><path class="cls-54" d="M665.64,277.24H605a.4.4,0,0,1-.4-.41V232.74a.4.4,0,0,1,.4-.41h60.6a.41.41,0,0,1,.41.41v44.09A.41.41,0,0,1,665.64,277.24Zm-60.19-.81h59.79V233.14H605.45Z"/><rect class="cls-54" x="605.04" y="232.74" width="60.6" height="3.94"/><path class="cls-18" d="M608.56,234.71a.85.85,0,1,1-.85-.85A.85.85,0,0,1,608.56,234.71Z"/><path class="cls-18" d="M611.1,234.71a.85.85,0,1,1-.85-.85A.85.85,0,0,1,611.1,234.71Z"/><path class="cls-18" d="M613.61,234.71a.85.85,0,1,1-.85-.85A.85.85,0,0,1,613.61,234.71Z"/><path class="cls-54" d="M635.06,275.3a15.26,15.26,0,0,1-15.24-15.08,15.26,15.26,0,0,1,15.08-15.4h.16a15.24,15.24,0,0,1,.16,30.48Zm-.15-29.67a14.43,14.43,0,1,0,14.58,14.28,14.44,14.44,0,0,0-14.58-14.28Z"/><path class="cls-18" d="M635.52,260.87l-.19-18a18,18,0,0,0-17.51,18.22Z"/><path class="cls-54" d="M617.82,261.46a.41.41,0,0,1-.28-.11.4.4,0,0,1-.12-.29,18.52,18.52,0,0,1,17.9-18.62.44.44,0,0,1,.29.11.4.4,0,0,1,.12.29l.19,18a.44.44,0,0,1-.11.29.45.45,0,0,1-.29.12l-17.69.18Zm17.11-18.19a17.71,17.71,0,0,0-16.7,17.38l16.88-.18Z"/><polygon class="cls-55" points="670.98 358.34 670.38 352.82 675.84 352.34 675.87 359.49 670.98 358.34"/><path class="cls-56" d="M681.54,360.76a.56.56,0,0,1-.5.32l-8.66.12h-.07a1.3,1.3,0,0,1-.86-.39,1.1,1.1,0,0,1-.22-.31,1,1,0,0,1-.11-.29,1.52,1.52,0,0,1,0-.21l-.05-1-.12-1.32s1.68,1.62,2.18.37,2.45-.43,2.45-.43l.86.35.28.12.27.11.29.11,2,.81.49.19,1.65.67A.58.58,0,0,1,681.54,360.76Z"/><polygon class="cls-55" points="657.39 358.34 657.99 352.82 652.53 352.34 652.5 359.49 657.39 358.34"/><path class="cls-56" d="M646.83,360.76a.56.56,0,0,0,.5.32l8.66.12h.08a1.3,1.3,0,0,0,.85-.39,1.1,1.1,0,0,0,.22-.31,1,1,0,0,0,.11-.29,1.52,1.52,0,0,0,0-.21l.05-1,.12-1.32s-1.68,1.62-2.18.37-2.45-.43-2.45-.43L652,358l-.29.12-.27.11-.29.11-2,.81-.49.19L647,360A.58.58,0,0,0,646.83,360.76Z"/><polygon class="cls-56" points="660.8 329.33 663.09 305.96 665.06 306.13 667.19 329.13 676.44 329.43 675.48 294.32 653.41 294.32 652.13 329.23 660.8 329.33"/><polygon class="cls-56" points="667.19 329.13 669.19 356.42 677.1 355.91 676.44 329.23 667.19 329.13"/><polygon class="cls-56" points="652.13 329.23 651.12 355.91 658.94 356.48 660.8 329.33 652.13 329.23"/><path class="cls-18" d="M678.93,268.28l-.72-.62a7.6,7.6,0,0,0-3-1.58l-5.54-1.22c-1.18,2-4.09,1.81-4.09,1.81-3.12-.38-3.09-2.64-3.09-2.64l-7.52,7h-.32l1.16,1.74-1.85,24.43c6.25-2.61,8.64-1.26,12.79.43s9-4.23,9-4.23l0-14.84,2.75,2.18.76.57Z"/><path class="cls-57" d="M675.73,278.84a.3.3,0,0,1-.3-.28l-.4-4.8a.3.3,0,0,1,.28-.33.31.31,0,0,1,.34.28l.39,4.8a.3.3,0,0,1-.28.33Z"/><path class="cls-56" d="M676.67,293.8l1.92,8.47-3.42,1a2.46,2.46,0,0,1-3.08-1.78l-1.29-5.25Z"/><path class="cls-56" d="M681.22,274.69l-.8-2.95a10,10,0,0,0-2.21-4.08h0a7.86,7.86,0,0,0-3-1.58l-4.8-1.07a195.66,195.66,0,0,0-.54,25.29l-3.54,4.47,4.24,3.49,9.65-6.85a6.2,6.2,0,0,0,2.26-3,6.07,6.07,0,0,0,.36-2l-1.35-10.44A8.62,8.62,0,0,0,681.22,274.69Z"/><path class="cls-58" d="M667.35,295.63l2.77,2.27-3.51,4.27a.4.4,0,0,1-.42.05.29.29,0,0,1-.19-.37l-.79,1a.53.53,0,0,1-.41.05.41.41,0,0,1-.28-.42l-.27.36a.66.66,0,0,1-.64,0,.39.39,0,0,1-.21-.46c.15-.17.28-.35.41-.53l.88-1.14-1.21.86a.47.47,0,0,1-.59,0,.33.33,0,0,1,0-.51c.78-.79,1.43-1.67,2.21-2.48l-.67.31a.91.91,0,0,1-.49.11,1,1,0,0,1-.66-.25l1.32-.84,1.31-.82c.28-.17.26-.28.62-.25Z"/><path class="cls-59" d="M661.75,256.11s-.75,5.59.94,6.14l-.27,1.62s-.93,3.58,3,3.31,4.13-2.66,4.13-2.66l-.18-4.11a1.7,1.7,0,0,0,1.66-1.88s.22-1.43-1.43-1.22l0-4-6.49-.14Z"/><path class="cls-56" d="M672.06,255.28a.87.87,0,0,0-.74-.08,3.59,3.59,0,0,0,.71-2.45.56.56,0,0,0-.11-.26c-.2-.24-.59-.12-.84.07l.06-.56a1.51,1.51,0,0,0,0-.6.53.53,0,0,0-.41-.39c-.25,0-.46.18-.62.38a2.06,2.06,0,0,0-.09-1.51.52.52,0,0,0-.18-.18.43.43,0,0,0-.47.05,1,1,0,0,0-.3.39,1.84,1.84,0,0,0,0-.81.67.67,0,0,0-.56-.53.7.7,0,0,0-.39.11,1.24,1.24,0,0,0-.59.91,2.22,2.22,0,0,0-.33-.85c-.18-.26-.54-.5-.81-.32s-.21.35-.36.49a.82.82,0,0,0-.85-.79,1.14,1.14,0,0,0-.85.65,7.69,7.69,0,0,0-.37,1.05c-.07-.22-.21-.48-.43-.46a.45.45,0,0,0-.3.24,2,2,0,0,0-.31,1.55c-.23-.09-.37-.38-.62-.37s-.32.24-.38.43a2.77,2.77,0,0,0-.07,1.11.39.39,0,0,0-.58,0,.94.94,0,0,0-.16.62c0,.3,0,.78,0,.78a6.48,6.48,0,0,0,.64,2.12,2.77,2.77,0,0,0,.5-1.08c.15-.69,1-.54,1.31-.17a.54.54,0,0,0,.94-.07.63.63,0,0,1,1.06,0c.35.43.37.45,1.09.21s1.23-.05,1.42,1.29a1.23,1.23,0,0,0,1.53,1.06c1,0,1.29.45,1.29.45a3,3,0,0,0,1.42-2A.81.81,0,0,0,672.06,255.28Z"/><path class="cls-60" d="M662.69,262.25a4.65,4.65,0,0,0,4.06-.76s-.92,1.58-4.15,1.49Z"/><path class="cls-56" d="M653.66,292l-1.94,10.28,3.42,1a2.47,2.47,0,0,0,3.09-1.78l1.28-5.25Z"/><path class="cls-56" d="M660.57,290.43A41.23,41.23,0,0,0,662,278.38c-.23-4.94.19-14,.19-14a10.85,10.85,0,0,0-5,1.15l-1.84.94a8.48,8.48,0,0,0-4,4.14l-1.32,2.95a12.54,12.54,0,0,0-1,3.16l-1.65,9.62a6.07,6.07,0,0,0,.36,2,6.26,6.26,0,0,0,2.26,3l9.65,6.85,4.24-3.49Z"/><path class="cls-59" d="M663.27,295.39l-2.94,2.41,5.41,3.61a.39.39,0,0,0,.41-.07.28.28,0,0,0,.08-.41l1,.7a.47.47,0,0,0,.4-.07.4.4,0,0,0,.16-.48l.36.28a.7.7,0,0,0,.61-.19.4.4,0,0,0,.07-.5c-.19-.12-.36-.26-.54-.39l-1.17-.86,1.41.49a.47.47,0,0,0,.57-.15.32.32,0,0,0-.11-.5c-1-.55-1.83-1.21-2.8-1.77l.72.11a.86.86,0,0,0,.5,0,1,1,0,0,0,.56-.42l-1.5-.44-1.49-.43c-.31-.08-.32-.19-.66-.06Z"/><polygon class="cls-18" points="664.95 267.18 669.49 263.31 670.38 265.01 668.96 267.26 664.95 267.18"/><path class="cls-18" d="M665.42,267.18l-2.89-4-.37,2.09a7.84,7.84,0,0,0,1.85,2.9Z"/><polygon class="cls-56" points="662.24 263.85 664.95 287.3 657.95 302.18 662.24 263.85"/><polygon class="cls-56" points="670.38 265.28 664.95 287.3 672.98 302.87 670.38 265.28"/><path class="cls-61" d="M662,292.5a.25.25,0,0,1-.18-.08l-5.65-7.14a.26.26,0,0,1-.05-.17l1.34-11.4a.23.23,0,0,1,.26-.2.24.24,0,0,1,.21.26l-1.33,11.3,5.58,7.06a.22.22,0,0,1-.18.37Z"/><path class="cls-61" d="M659,297.92a.27.27,0,0,1-.14-.05l-5-3.72a.24.24,0,0,1,0-.33.25.25,0,0,1,.33-.05l5,3.73a.23.23,0,0,1,0,.32A.26.26,0,0,1,659,297.92Z"/><path class="cls-61" d="M668.3,292.71a.24.24,0,0,1-.19-.38l5.58-7.26-1.33-11.3a.22.22,0,0,1,.2-.26.23.23,0,0,1,.26.2l1.34,11.4a.22.22,0,0,1,0,.17l-5.63,7.34A.21.21,0,0,1,668.3,292.71Z"/><path class="cls-61" d="M671.28,298.13a.21.21,0,0,1-.18-.09.22.22,0,0,1,0-.32l5.1-3.94a.24.24,0,1,1,.29.37l-5.11,3.93A.19.19,0,0,1,671.28,298.13Z"/><polygon class="cls-56" points="664.95 287.3 669.81 274.34 669.63 272.93 670.82 273.81 671.26 265.28 669.41 262.69 669.64 265.28 664.95 287.3 664.95 287.3"/><polygon class="cls-56" points="664.95 287.3 662.3 264.39 662.6 262.98 660.79 264.46 660.5 273.11 662.03 272.5 661.45 273.74 664.95 287.3"/><polygon class="cls-62" points="665.24 266.93 664.01 268.18 664.67 269.23 665.71 269.23 666.42 268.18 665.24 266.93"/><polygon class="cls-62" points="664.67 269.23 664.29 281.94 664.95 287.3 666.08 281.99 665.71 269.23 664.67 269.23"/><polygon class="cls-62" points="663.79 289.76 665.04 291.51 666.3 289.92 664.95 287.3 663.79 289.76"/><path class="cls-63" d="M699.46,295.82v0S699.49,295.82,699.46,295.82Z"/><path class="cls-55" d="M729.91,352.74l1.87,3.46,2.85-1.62-1.17-3.39A7.74,7.74,0,0,1,729.91,352.74Z"/><path class="cls-62" d="M734.45,354.07l1.15,1.49a.83.83,0,0,1-.12,1.17l-6,4.82a.42.42,0,0,1-.65-.48l2.44-4.44Z"/><path class="cls-55" d="M734.45,354.07l-.48,1.26a4.59,4.59,0,0,1-3.57,2.85l1.13-2.43Z"/><path class="cls-55" d="M702,354.32l-.71,3.93,3.28.52.92-3.68A5.74,5.74,0,0,1,702,354.32Z"/><path class="cls-62" d="M704.76,358.25l0,1.91a.86.86,0,0,1-.85.85h-7.82a.43.43,0,0,1-.21-.79l4.75-2Z"/><path class="cls-55" d="M704.76,358.25l-1.17.69a4.69,4.69,0,0,1-4.64,0l2.44-1.21Z"/><path class="cls-55" d="M721.71,330.83c1.77-4.61,2.3-10.92,2.75-13.45s-.18-10.32-.18-10.32l-1.6-4.66-2.35-2.2-6.74,11.43.26-.13s-.39,10.16-.36,13.22,2.32,8.28,2.32,8.28l15.72,22.75c1.84.47,2.05-3.07,2.05-3.07C732.74,338,722.76,331.54,721.71,330.83Z"/><path class="cls-55" d="M713.3,312.43s-2.67,15.15-2.66,18c0,4.84-1.92,18.49-5.43,25.43l-.26,1.38-3.56.47.23-9.47S710.44,309.34,713.3,312.43Z"/><path class="cls-18" d="M711,292a14.16,14.16,0,0,1-6.22-1.38.24.24,0,0,1-.11-.31.25.25,0,0,1,.31-.11,15.1,15.1,0,0,0,11.77.26.23.23,0,0,1,.3.12.23.23,0,0,1-.11.31A16.32,16.32,0,0,1,711,292Z"/><path class="cls-56" d="M704.87,291.09l-2.63,25.56-.62,31.61,6.48.49s6.19-28.33,4.8-41.26c0,0-.82,19.05,2.91,25.51l10.31,15.26,6.19-2.85s-2.8-10.21-10.6-14.58c0,0,8.92-22.33-3.53-39.64Z"/><path class="cls-64" d="M712.91,316.88a.25.25,0,0,1-.23-.17c0-.09-2.45-8.82-2-15.3l-2.11-2a.22.22,0,0,1,0-.32.24.24,0,0,1,.33,0l2.19,2.06a.21.21,0,0,1,.07.18c-.42,6.41,2,15.17,2,15.26a.22.22,0,0,1-.16.28Z"/><path class="cls-55" d="M694.86,270.9l-2.21-2.13-.18-1.69,0-2.36a.7.7,0,0,0-.63.55l-.29,1.37a.27.27,0,0,1-.2.2h0a.32.32,0,0,1-.24-.06l-2.9-2.34a.24.24,0,0,0-.27,0,.21.21,0,0,0,0,.34l1.83,1.85a.58.58,0,0,0-.39.19.61.61,0,0,0-.17.36.47.47,0,0,0-.27.06.46.46,0,0,0-.2.36.5.5,0,0,0-.32.19.41.41,0,0,0-.07.32,2.4,2.4,0,0,0,.36.59,3.78,3.78,0,0,0,1.68,1l1,3.31Z"/><path class="cls-65" d="M704.06,269.18l-3.18,9.6-7-10.33-3.65,3,6.32,11.24a6.41,6.41,0,0,0,6.5,3.42l.8,0Z"/><path class="cls-55" d="M707.74,268.44l.06,1.31-.86.07s0,2.89,1.87,2.78c1.66-.1,3.78-2.2,4.21-2.92.06-.11-.69-.33-.66-.42l-.22-3.62s1.9-1,1.28-2.07c-.89-1.61-1.73-.43-2.17-.16l-.39-3.2-4.63,0L703.86,262l.75,4.36a2.67,2.67,0,0,0,3.08,2.13h0Z"/><path class="cls-65" d="M713.16,269.33l7.1,2.09s3.71.6,2.6,7.33a48.92,48.92,0,0,1-3.34,11.55,2.6,2.6,0,0,1-2.22,1.35,18.49,18.49,0,0,1-12.43-.56L705,290l-2.58-6.71.56-7.21a6.93,6.93,0,0,1-.18-5,1.37,1.37,0,0,1,.87-.81,13.62,13.62,0,0,1,3.24-.57,1.66,1.66,0,0,0,1.92,1.9S712.24,271.6,713.16,269.33Z"/><path class="cls-66" d="M706.26,260.8s.52,2.59,5,2.61a1,1,0,0,1,1.6.12s1,1.1-.71,2.11l.16,3.83,6,1.77s3.4,1,4.21,3.47c0,0,1.34,2.9-1.42,11.34,0,0,2.48.61,3.42-3.29a2.92,2.92,0,0,0,3-2,4.93,4.93,0,0,0-.83-5.17,23.7,23.7,0,0,0-6-5.22c-4.61-2.73-6.26-5.2-6.41-7,0,0-1.24-7.14-6.79-6.16-3.33.58-4.22,2.54-4.4,4a5.51,5.51,0,0,0,.24,2.24,7.84,7.84,0,0,1-.18,5.21,2.62,2.62,0,0,0-.45,2.67,3.4,3.4,0,0,1,1.94-1.34s2.12-.22,3.13-.28l-.06-1.31s-2,.05-2.65-1a8.32,8.32,0,0,1-.78-2.84l-.37-2.16A2.72,2.72,0,0,0,706.26,260.8Z"/><path class="cls-67" d="M707.74,268.44s2-.25,2.5-1.5a3.15,3.15,0,0,1-2.47,2.08Z"/><path class="cls-68" d="M704.78,280.29h0a.3.3,0,0,1-.26-.35l.74-5.31a.31.31,0,0,1,.35-.26.3.3,0,0,1,.26.35l-.74,5.31A.31.31,0,0,1,704.78,280.29Z"/><path class="cls-68" d="M704,287.48h0a.31.31,0,0,1-.27-.35l.18-1.53a.31.31,0,1,1,.62.08l-.18,1.53A.31.31,0,0,1,704,287.48Z"/><path class="cls-69" d="M711,283.32l-6.07-.14,0-1.15,4.9.11a1.16,1.16,0,0,1,1.14,1.18Z"/><path class="cls-69" d="M705.61,283.2l-17.49-.4L685.53,274a1.22,1.22,0,0,1,1.19-1.55l15,.34a1.21,1.21,0,0,1,1.14.87Z"/><path class="cls-70" d="M693.64,278.19a.89.89,0,1,0,.3-1.29A.95.95,0,0,0,693.64,278.19Z"/><path class="cls-68" d="M715.89,284.3l-.1,0-2.48-.86a.31.31,0,1,1,.2-.58l2.48.85a.32.32,0,0,1,.19.4A.3.3,0,0,1,715.89,284.3Z"/><polygon class="cls-65" points="719.05 290.11 705.64 286.16 707.84 281.34 713.96 282.48 714.59 276.15 719.05 290.11"/><path class="cls-68" d="M719.05,290.42H719l-13.42-4a.3.3,0,0,1-.19-.43l2.2-4.82a.32.32,0,0,1,.34-.17l5.78,1.07.6-6a.3.3,0,0,1,.34-.27.29.29,0,0,1,.27.33l-.63,6.33a.29.29,0,0,1-.12.22.3.3,0,0,1-.24,0L708,281.69,706.07,286l13.07,3.84a.31.31,0,0,1,.21.39A.31.31,0,0,1,719.05,290.42Z"/><path class="cls-55" d="M705.4,286.06l-1.93-1-1.52-.6-1.9-.24a.09.09,0,0,1,0-.13.09.09,0,0,1,.09-.05l-.9-.07a.2.2,0,0,1-.12-.16.22.22,0,0,1,.17-.2h-.16a.19.19,0,0,1-.16-.2h0a.19.19,0,0,1,.14-.15l.2,0a.15.15,0,0,1,0-.29c.86-.17,3.36-.54,3.36-.54a.26.26,0,0,0,.23-.36l-.45-.93a.06.06,0,0,1,0-.06h0a.25.25,0,0,1,.43-.09l1.64,2.17,2.13.19Z"/><path class="cls-55" d="M614.67,258.72l-.46,5.61a2.79,2.79,0,0,0,1.92,2.57c1.65.63,3.8.27,4.4-1.74l-.65,0,.22-3,2.44-1.68.43-5.31-8-.64-.16,1.93s-1.12-.29-1.33.63A1.33,1.33,0,0,0,614.67,258.72Z"/><path class="cls-66" d="M613.84,256.59h0l.35-4.26a2.65,2.65,0,0,1,3-1.43c2.16.44,3.73,2.59,7.06,1.85a2.34,2.34,0,0,1-1.31,3.17,17.4,17.4,0,0,1-4.6-.64s-1.19-.14-.93,2.14,0,3.42,1.3,3.3a2.33,2.33,0,0,1,3.86-.25l0,.49a3.25,3.25,0,0,1-3.49,3h0a3.26,3.26,0,0,1-3-3.5l.15-1.83a2.06,2.06,0,0,0-.86-1.84l-.13-.08A1.29,1.29,0,0,0,613.84,256.59Z"/><polygon class="cls-55" points="591.99 355.12 593.71 348.91 598.73 350.55 596.44 357.33 591.99 355.12"/><path class="cls-55" d="M592.23,354.25l.92-3.33,4.89,1.67-1.6,4.74-2-.08A2.37,2.37,0,0,1,592.23,354.25Z"/><path class="cls-56" d="M601.86,361.05a.61.61,0,0,1-.62.12L592.48,358l-.08,0a1.41,1.41,0,0,1-.72-.72,1.35,1.35,0,0,1,0-.95l.31-1,.39-1.38s1.07,2.28,2,1.2,2.63.51,2.63.51l5,4.59A.63.63,0,0,1,601.86,361.05Z"/><polygon class="cls-55" points="623.28 358.74 622.71 352.33 627.98 352.09 628.23 359.25 623.28 358.74"/><polygon class="cls-55" points="622.92 354.68 623.28 358.74 628.23 359.25 628.09 355.1 622.92 354.68"/><path class="cls-56" d="M634.61,360.82a.62.62,0,0,1-.54.33l-9.31.13h-.09a1.37,1.37,0,0,1-1.3-1.29l0-1-.12-1.43s1.8,1.76,2.33.4,2.64-.44,2.64-.44l6.25,2.55A.62.62,0,0,1,634.61,360.82Z"/><path class="cls-65" d="M604.07,294.24l-2.53,21.26L600.13,326l10.32,1.5,5.88-24,.15.29,1-9.45A47.07,47.07,0,0,1,604.07,294.24Z"/><polygon class="cls-65" points="599.24 328.36 599.13 328.63 595.83 338.68 591.57 352.4 598.52 355.13 604.68 340.36 610.45 327.48 600.29 325.35 599.24 328.36"/><path class="cls-65" d="M629.34,355.44l-2.45-58.92s-5-.61-9.42-1.53l-2.92,10.89,7,49.86Z"/><path class="cls-68" d="M615.16,309.35h-.08a.32.32,0,0,1-.22-.38l1.19-4.11a.3.3,0,0,1,.16-.19l1.16-.59a.33.33,0,0,1,.42.14.31.31,0,0,1-.14.41l-1,.54-1.15,4A.31.31,0,0,1,615.16,309.35Z"/><path class="cls-55" d="M629.14,281.48l3.63,3.68a5.49,5.49,0,0,0,2.86,1.53h0a5.38,5.38,0,0,0,4.84-1.48l.19-.19a5.53,5.53,0,0,0,1.12-1.58l6.81-14.38-2.75-2.69-9.31,12L634,276.27s-.11.75-3.57,1.5A6.09,6.09,0,0,0,629.14,281.48Z"/><path class="cls-62" d="M635.14,276.42l-5.34,7.13-.41-.37-.68-.62-.59-.54-.4-.36-.55-.5c0,.15,0,.33.07.55s0,.26,0,.4.05.56.07.88,0,.54,0,.83l0,.39c0,.13,0,.27,0,.4q0,.78.09,1.62c0,.13,0,.27,0,.41s0,.53,0,.8,0,.55,0,.83,0,.43,0,.65,0,.27,0,.41c0,.58.05,1.16.07,1.72l0,.85h0v.41c0,.94.07,1.8.09,2.54a1.09,1.09,0,0,0,0,.18v.23c0,.22,0,.43,0,.61,0,.86,0,1.38,0,1.38a128.59,128.59,0,0,1-26.19-.68l.37-1.86.08-.4h0l.15-.81.33-1.68.09-.4.23-1.16h0l.15-.78h0l.12-.59.08-.4.41-2.11,0-.14.08-.39.05-.28.37-1.86.08-.4.23-1.16.16-.8.1-.5.08-.4.3-1.51.09-.49.07-.31,0-.17,0-.22.13-.58.05-.21.18-.8.16-.7.09-.4.19-.83h0l.14-.61,0-.19.12-.51,0-.11.07-.29.43-1.89.07-.34.09-.4,0-.05.41-1.83.09-.4.13-.56.18-.8.07-.33.09-.39.28-1.22c.5.1,2.07.22,3.82.33h0c2.92.18,6.35.34,6.35.34l5.81,1.17a5.6,5.6,0,0,1,1.08.41h0a5.64,5.64,0,0,1,.67.4,5.75,5.75,0,0,1,.56.41c.26.2.51.42.76.65l.66.67.36.39h0l.44.5.67.77.51.57.07.09.25.29h0l1.15,1.32.58.66.12.14.33.37.86,1,.54.61.32.36.31.36Z"/><path class="cls-55" d="M645.84,266.37l.31-1,1.36-.75.27.2,1.54-1.13a.78.78,0,0,1,.4.33,1.19,1.19,0,0,1,.17.68l-.32.26a.46.46,0,0,1,.45.19.69.69,0,0,1,0,.64.5.5,0,0,1,.4.18.8.8,0,0,1,.08.7l-.33.27a.37.37,0,0,1,.42.19.63.63,0,0,1-.07.64c-.49.26-1.45,1-1.94,1.28l-3.5,2Z"/><path class="cls-56" d="M646.62,269.09l2.19.5a.37.37,0,0,0,.44-.36l.06-6.87A.37.37,0,0,0,649,262l-2-.25a.36.36,0,0,0-.41.35l-.21,6.63A.37.37,0,0,0,646.62,269.09Z"/><path class="cls-56" d="M646.91,268.29l1.67.37a.28.28,0,0,0,.34-.27l0-5.25a.28.28,0,0,0-.25-.29l-1.55-.19a.29.29,0,0,0-.32.27l-.15,5.07A.27.27,0,0,0,646.91,268.29Z"/><path class="cls-55" d="M649.57,265l-1.19.95h0a.75.75,0,0,0-.13,1l.21.27.1-.19.73-.62Z"/><path class="cls-55" d="M650,265.8l-1.34,1.07a.63.63,0,0,0-.17.81h0a.43.43,0,0,0,.63.06l1-.79Z"/><path class="cls-55" d="M649.31,267.61l-.31.24a.34.34,0,0,0-.11.41h0a.37.37,0,0,0,.21.18.47.47,0,0,0,.3,0Z"/><path class="cls-55" d="M649.32,263.7l-2,1.48.13.22a.87.87,0,0,0,1.19.31l.93-.74Z"/><path class="cls-55" d="M588.57,296.71l8.86-14.54,1.62-6.33,7.35.93L604,284.16a2.67,2.67,0,0,1-.47.84l-11.64,13.86Z"/><path class="cls-55" d="M590.54,294l4,1.55-6,7.49a.43.43,0,0,1-.45.06.3.3,0,0,1-.22-.39l-.84,1a.51.51,0,0,1-.44.07.44.44,0,0,1-.32-.45l-.29.41a.73.73,0,0,1-.69,0,.42.42,0,0,1-.24-.49c.16-.2.3-.4.44-.59l.93-1.27-1.3,1a.51.51,0,0,1-.65,0,.36.36,0,0,1,0-.56c.83-.89,1.51-1.86,2.34-2.75l-.72.35a1,1,0,0,1-.53.13,1.14,1.14,0,0,1-.73-.26l1.42-.94,1.41-.93c.29-.2.27-.31.66-.29Z"/><path class="cls-62" d="M612.43,264.62l-.55,1.27-.16.39-.32.75-.33.76L611,268l-.17.39-.79,1.85-.14.31,0,.08-.29.68-.64,1.51-.17.39-.35.81-.33.78-.22.51-.16.39-.82,1.9-.14.35-.17.39v0l-.67,1.55c-.11-.19-8.44-3.41-8.63-3.39h0l1.43-2.11.09-.13L599,274l.3-.45,1-1.55.26-.37.16-.24.47-.7.77-1.14.26-.37.13-.19.46-.69.59-.87h0a4.33,4.33,0,0,1,.27-.37,8.41,8.41,0,0,1,1-1,7.68,7.68,0,0,1,.61-.49l.16-.11.34-.23a5.4,5.4,0,0,1,3.56-.91l3.06.33Z"/><path class="cls-71" d="M627.17,281.3a.3.3,0,0,1-.31-.3l-.25-7.7a.31.31,0,0,1,.3-.32.28.28,0,0,1,.32.3l.25,7.7a.32.32,0,0,1-.3.32Z"/><path class="cls-71" d="M605.91,280.18a.23.23,0,0,1-.11,0,.3.3,0,0,1-.17-.4l3.1-7.77a.31.31,0,0,1,.58.24L606.2,280A.3.3,0,0,1,605.91,280.18Z"/><path class="cls-55" d="M613.67,264.64l0,1.44a1.67,1.67,0,0,0,.33.84,3.25,3.25,0,0,0,5.84-.85,1.33,1.33,0,0,0,0-.91l-.43-.13-2.15-.79Z"/><polygon class="cls-65" points="616.87 268.1 617.77 269.81 617.15 270.67 616.66 270.63 616.64 270.62 616.16 270.57 615.72 269.61 616.89 268.11 616.87 268.1"/><polygon class="cls-65" points="614.56 293.21 616.31 291.72 617.17 270.68 616.67 270.63 616.63 270.96 616.66 270.63 616.16 270.57 612.87 291.38 614.45 293.21 614.44 293.31 614.5 293.26 614.55 293.33 614.56 293.21"/><polygon class="cls-18" points="619.86 264.63 616.87 268.1 618.32 270.98 620.64 268.07 622.22 265.66 619.86 264.63"/><polygon class="cls-18" points="613.88 264.11 616.92 268.11 614.93 270.64 612.76 267.21 611.7 264.57 613.88 264.11"/><path class="cls-65" d="M753.28,312.29a3,3,0,0,1-.62-2.22c0-.15,0-.29,0-.44a4.83,4.83,0,0,0-.68-2.48,8.1,8.1,0,0,1-1.23-3.64,3.24,3.24,0,0,0-.07-.52,3,3,0,0,0-5.9,1,3.23,3.23,0,0,1-.75,2.46,4.86,4.86,0,0,0-1.17,3.18c0,.15,0,.29,0,.44a3,3,0,0,1-.61,2.19,7,7,0,0,0-1.54,4.61,7,7,0,0,0,14.06-.21A7,7,0,0,0,753.28,312.29Z"/><path class="cls-18" d="M740.91,333.15h13.74L754,356.33a4.69,4.69,0,0,1-4.69,4.68h-2.54a4.69,4.69,0,0,1-4.68-4.68Z"/><path class="cls-72" d="M749.35,361.24h-2.54a4.92,4.92,0,0,1-4.92-4.91l-1.21-23.17a.22.22,0,0,1,.06-.17.24.24,0,0,1,.17-.07h13.74a.24.24,0,0,1,.23.24l-.61,23.17A4.91,4.91,0,0,1,749.35,361.24Zm-8.2-27.86,1.21,22.93a4.46,4.46,0,0,0,4.45,4.47h2.54a4.46,4.46,0,0,0,4.46-4.45l.6-22.95Z"/><path class="cls-72" d="M747.78,333.38a.23.23,0,0,1-.23-.23v-19.1a.23.23,0,1,1,.46,0v19.1A.23.23,0,0,1,747.78,333.38Z"/><path class="cls-18" d="M747.78,323.93a.23.23,0,0,1-.23-.24V303.53a.23.23,0,0,1,.46,0v20.16A.23.23,0,0,1,747.78,323.93Z"/><path class="cls-18" d="M747.78,316.31l-.09,0a.22.22,0,0,1-.12-.3l3.23-7.42a.23.23,0,0,1,.31-.12.23.23,0,0,1,.12.3L748,316.17A.23.23,0,0,1,747.78,316.31Z"/><path class="cls-18" d="M747.78,320.33a.23.23,0,0,1-.2-.13L744,313.72a.22.22,0,0,1,.1-.31.23.23,0,0,1,.31.09L748,320a.24.24,0,0,1-.09.32A.23.23,0,0,1,747.78,320.33Z"/><path class="cls-18" d="M755,333.15H740.6a.76.76,0,0,1-.76-.76h0a.76.76,0,0,1,.76-.76H755a.76.76,0,0,1,.76.76h0A.76.76,0,0,1,755,333.15Z"/><path class="cls-72" d="M755,333.38H740.6a1,1,0,0,1,0-2H755a1,1,0,0,1,0,2Zm-14.43-1.52a.53.53,0,1,0,0,1.06H755a.53.53,0,1,0,0-1.06Z"/><path class="cls-54" d="M730.52,295.32h-.21a2.61,2.61,0,0,1-2-4l13-20.26c-1.72-2.72-2.61-6.9-.55-9.91a8.67,8.67,0,0,1,7.87-3.73.4.4,0,0,1,.32.22.39.39,0,0,1,0,.39l-4,5.8,1.53,2.93a1.61,1.61,0,0,0,1.24.85l3.29.36,4-5.8a.38.38,0,0,1,.66.05,8.65,8.65,0,0,1-.61,8.69c-2,2.93-6.23,3.81-9.47,3.18L732.7,294.12A2.56,2.56,0,0,1,730.52,295.32Zm17.41-37.19a7.9,7.9,0,0,0-6.49,3.43c-1.91,2.79-1,6.76.69,9.25a.39.39,0,0,1,0,.43L729,291.71a1.85,1.85,0,0,0-.13,1.74,1.84,1.84,0,0,0,3.22.25h0l13.05-20.28a.38.38,0,0,1,.41-.17c3,.67,7.07-.08,8.93-2.81a7.85,7.85,0,0,0,.83-7.29l-3.7,5.42a.38.38,0,0,1-.36.17l-3.53-.39a2.38,2.38,0,0,1-1.83-1.26L744.2,264a.37.37,0,0,1,0-.39Z"/><path class="cls-54" d="M777,361.86H571.06a.39.39,0,1,1,0-.78H777a.39.39,0,1,1,0,.78Z"/><circle class="cls-53" cx="130.12" cy="91.93" r="0.62"/><circle class="cls-53" cx="134.58" cy="91.93" r="0.62"/><circle class="cls-53" cx="139.04" cy="91.93" r="0.62"/><circle class="cls-53" cx="143.5" cy="91.93" r="0.62"/><circle class="cls-53" cx="130.12" cy="95.46" r="0.62"/><circle class="cls-53" cx="134.58" cy="95.46" r="0.62"/><circle class="cls-53" cx="139.04" cy="95.46" r="0.62"/><circle class="cls-53" cx="143.5" cy="95.46" r="0.62"/><path class="cls-53" d="M130.74,99a.62.62,0,1,1-.62-.62A.62.62,0,0,1,130.74,99Z"/><path class="cls-53" d="M135.2,99a.62.62,0,0,1-.62.62.62.62,0,0,1,0-1.24A.62.62,0,0,1,135.2,99Z"/><path class="cls-53" d="M139.66,99a.63.63,0,1,1-.62-.62A.62.62,0,0,1,139.66,99Z"/><path class="cls-53" d="M144.12,99a.63.63,0,1,1-.62-.62A.62.62,0,0,1,144.12,99Z"/><circle class="cls-53" cx="130.12" cy="102.52" r="0.62"/><circle class="cls-53" cx="134.58" cy="102.52" r="0.62"/><circle class="cls-53" cx="139.04" cy="102.52" r="0.62"/><circle class="cls-53" cx="143.5" cy="102.52" r="0.62"/><path class="cls-54" d="M126.4,124.61H42.07a.3.3,0,0,1-.3-.3V76.76a.3.3,0,0,1,.3-.3H126.4a.29.29,0,0,1,.29.3v47.55A.29.29,0,0,1,126.4,124.61Zm-84-.6H126.1V77.06H42.37Z"/><path class="cls-54" d="M127,127H41.45a1.51,1.51,0,0,1,0-3H127a1.51,1.51,0,0,1,0,3Zm-85.57-2.41a.91.91,0,1,0,0,1.81H127a.91.91,0,1,0,0-1.81Z"/><path class="cls-73" d="M49.31,88.29a9,9,0,0,1,11-2.25l-4,7.92h-.06a.12.12,0,0,0-.1,0Z"/><path class="cls-54" d="M47.2,94.08h8.89a.14.14,0,0,0,.07.12l-4.06,7.9A9,9,0,0,1,47.2,94.08Z"/><path class="cls-54" d="M56.22,103.1V94.21a.13.13,0,0,0,.13-.13.08.08,0,0,0,0-.07L63.65,89A9,9,0,0,1,57.21,103,8.22,8.22,0,0,1,56.22,103.1Z"/><path class="cls-53" d="M59.06,106H50.59a.31.31,0,0,1-.3-.3.3.3,0,0,1,.3-.3h8.47a.3.3,0,0,1,.3.3A.31.31,0,0,1,59.06,106Z"/><path class="cls-53" d="M62.36,108.29H50.59a.3.3,0,1,1,0-.59H62.36a.3.3,0,1,1,0,.59Z"/><path class="cls-53" d="M58.2,110.63H50.59a.31.31,0,0,1-.3-.3.3.3,0,0,1,.3-.3H58.2a.29.29,0,0,1,.29.3A.3.3,0,0,1,58.2,110.63Z"/><path class="cls-54" d="M91.84,113.3a.64.64,0,1,1-1.27,0,.64.64,0,0,1,1.27,0Z"/><path class="cls-73" d="M105.33,113.3a.64.64,0,0,1-.64.64.64.64,0,0,1-.63-.64.63.63,0,0,1,.63-.63A.64.64,0,0,1,105.33,113.3Z"/><path class="cls-74" d="M115.71,105.62H87a.12.12,0,0,1-.12-.12.12.12,0,0,1,.12-.11h28.67a.11.11,0,0,1,.11.11A.11.11,0,0,1,115.71,105.62Z"/><path class="cls-74" d="M115.71,100.69H87a.12.12,0,0,1-.12-.11.12.12,0,0,1,.12-.12h28.67a.11.11,0,0,1,.11.12A.11.11,0,0,1,115.71,100.69Z"/><path class="cls-74" d="M115.71,96.11H87a.12.12,0,0,1-.12-.12.13.13,0,0,1,.12-.12h28.67a.12.12,0,0,1,.11.12A.11.11,0,0,1,115.71,96.11Z"/><path class="cls-74" d="M115.71,92H87a.13.13,0,0,1-.12-.12.12.12,0,0,1,.12-.12h28.67a.11.11,0,0,1,.11.12A.12.12,0,0,1,115.71,92Z"/><path class="cls-74" d="M115.71,87.05H87a.13.13,0,0,1-.12-.12.12.12,0,0,1,.12-.12h28.67a.11.11,0,0,1,.11.12A.12.12,0,0,1,115.71,87.05Z"/><rect class="cls-54" x="88.64" y="95.96" width="2.56" height="13.83"/><rect class="cls-73" x="92.96" y="93.75" width="2.56" height="16.04"/><rect class="cls-54" x="97.27" y="90.51" width="2.56" height="19.28"/><rect class="cls-73" x="101.59" y="99.99" width="2.56" height="9.81"/><rect class="cls-54" x="105.9" y="90.98" width="2.56" height="18.81"/><rect class="cls-54" x="110.22" y="101.04" width="2.56" height="8.75"/><path class="cls-74" d="M115.71,109.91H87a.12.12,0,0,1-.12-.12.13.13,0,0,1,.12-.12h28.67a.12.12,0,0,1,.11.12A.11.11,0,0,1,115.71,109.91Z"/><path class="cls-74" d="M99.86,113.6H93a.29.29,0,0,1-.3-.3.3.3,0,0,1,.3-.3h6.9a.3.3,0,0,1,.29.3A.29.29,0,0,1,99.86,113.6Z"/><path class="cls-74" d="M113.19,113.6h-6.9a.3.3,0,0,1-.3-.3.31.31,0,0,1,.3-.3h6.9a.3.3,0,0,1,.3.3A.29.29,0,0,1,113.19,113.6Z"/><polygon class="cls-55" points="78.37 170.81 78.37 169.21 81.41 169.21 81.41 169.89 81.41 170.81 80.34 171.43 79.39 171.43 78.37 170.81"/><path class="cls-65" d="M78.37,170.81v1.28l7.73,0V172a.63.63,0,0,0-.43-.61l-4.26-1.47-.65.76A2.56,2.56,0,0,1,78.37,170.81Z"/><polygon class="cls-65" points="86.1 172.07 86.1 172.54 78.37 172.54 78.37 172.09 86.1 172.07"/><path class="cls-65" d="M63.65,119.59l.2,22.95,1.22,26.68h4.56L71.43,128a.62.62,0,0,1,.61-.62h0a.64.64,0,0,1,.62.57l5,41.27H82V119.59Z"/><path class="cls-55" d="M73.79,98.63s1.84.19,2-1.42.25-3.9.25-3.9H69.13v6.62h4.66Z"/><path class="cls-56" d="M74.25,96a.87.87,0,0,1-1.19-.9s.17-.76,1-.38c0,0-.11-1.18,2-.76.18,0,.43-.69.45-.79a2.91,2.91,0,0,0-1.84-3.31,4.93,4.93,0,0,0-2.4-.28,3,3,0,0,0-.94.29c-.18.1-.75.45-.75.69v-.88a2,2,0,0,0-2,2v5.92h3.13a2.63,2.63,0,0,0,2-1Z"/><path class="cls-62" d="M61.68,100.74a4.5,4.5,0,0,1,3.42-1.33l15.13.81,10.54.91,4.52-8.67,3.24,1.22-4,10a5.1,5.1,0,0,1-2.8,2.84h0a5,5,0,0,1-2,.39h-7.5l.2,15.79H63.09v-7.17h0a2.69,2.69,0,0,1-2.69-2.69v-9a4.48,4.48,0,0,1,1.28-3.13Z"/><polygon class="cls-75" points="63.09 115.53 63.09 104.33 62.47 115.46 63.09 115.53"/><polygon class="cls-62" points="69.13 99.63 69.13 99.13 73.79 99.38 73.79 99.93 69.13 99.63"/><rect class="cls-55" x="65.82" y="169.22" width="3.1" height="1.21"/><polygon class="cls-65" points="69.55 171.8 65.33 171.8 65.66 170.43 69.04 170.43 69.55 171.8"/><path class="cls-65" d="M65.42,171.64h4a.37.37,0,0,1,.37.37v.53a0,0,0,0,1,0,0H65a0,0,0,0,1,0,0V172A.37.37,0,0,1,65.42,171.64Z"/><polygon class="cls-65" points="69.83 172.07 69.83 172.54 65.04 172.54 65.04 172.09 69.83 172.07"/><path class="cls-55" d="M97.81,93.41l.16-.67.93-1.8a.27.27,0,0,0,0-.4.28.28,0,0,0-.36.06.36.36,0,0,0-.12-.45.33.33,0,0,0-.31,0l.18-.6a.34.34,0,0,0-.07-.25.33.33,0,0,0-.33-.11c.21-.45.43-.9.65-1.36a.19.19,0,0,0,0-.26.2.2,0,0,0-.27,0L96.7,90l-.39.57-.25,1.15-.47.85Z"/><path class="cls-76" d="M97.53,90h0a.07.07,0,0,1,0-.08l.34-.67a.05.05,0,0,1,.08,0,.06.06,0,0,1,0,.08l-.34.66A.06.06,0,0,1,97.53,90Z"/><path class="cls-67" d="M73.79,98.63s-.43.2-1.51-.7a1.83,1.83,0,0,0,1.51,1.15Z"/><polygon class="cls-77" points="63.67 122.7 82 122.7 63.68 123.44 63.67 122.7"/><path class="cls-66" d="M122.8,112.82a4.45,4.45,0,0,0-1.64,3.4c0,2.17.18,2.53-1.43,3.15a2.76,2.76,0,0,0-2,2.81c.12.85.48,1.88,3.11,1.73a5,5,0,0,1,.64-2A7.06,7.06,0,0,1,125.1,120l.14-1.72a2.3,2.3,0,0,1-2.18-1.44Z"/><path class="cls-55" d="M123,116.22c-.06-2.12-.19-3.87-.19-3.87s4.85-1.32,6,1.92c0,0,1-.1,1,.85a1.1,1.1,0,0,1-1,1l.28,3.45a2.55,2.55,0,0,1-2.44,1.76s-2.2,0-1.86-1.28l.41,0,.14-1.72A2.18,2.18,0,0,1,123,116.22Z"/><path class="cls-66" d="M128.73,114.27a3.11,3.11,0,0,1-4.4-1.71s-.6,1.26-1.55,1.26c0,0-.06-2.12-.06-2.13,0-1.07,1.07-1.66,2-1.89a4.27,4.27,0,0,1,3.57.52,4.53,4.53,0,0,1,1.37,2.81,2.4,2.4,0,0,1,2.3,2.11L132,117s4.09-.65,4.82,2c.45,1.61.14,3.54-1.58,3.68l-.32-.77a3.54,3.54,0,0,0-1.47-1.72,4.31,4.31,0,0,0-2-.57H129l-.28-3.45a1.19,1.19,0,0,0,1-1A.92.92,0,0,0,128.73,114.27Z"/><path class="cls-67" d="M125.24,118.31a2.05,2.05,0,0,0,1.88-1,2.2,2.2,0,0,1-1.94,1.69Z"/><path class="cls-65" d="M132.53,171a1.48,1.48,0,1,0,1.48-1.48A1.48,1.48,0,0,0,132.53,171Z"/><path class="cls-65" d="M134.18,170.05H122.07a.3.3,0,0,1,0-.6h12.11a.3.3,0,1,1,0,.6Z"/><path class="cls-65" d="M128.12,169.83a.29.29,0,0,1-.29-.3V144.77a.3.3,0,1,1,.59,0v24.76A.29.29,0,0,1,128.12,169.83Z"/><path class="cls-65" d="M120.63,171a1.48,1.48,0,1,0,1.48-1.48A1.47,1.47,0,0,0,120.63,171Z"/><polygon class="cls-78" points="136.74 148.76 118.54 148.76 118.54 146.87 137.25 146.87 136.74 148.76"/><polygon class="cls-65" points="137.23 146.93 143.65 125.33 123.61 125.33 127.86 146.93 137.23 146.93"/><path class="cls-79" d="M120,146.87h-1.72l-2.93,23.26-4.41.49,1.36-1.06-1.12-21.13c0-.19,0-.39,0-.58-.37-4.81,3.73-7.79,3.73-7.79S120.47,139.07,120,146.87Z"/><path class="cls-80" d="M115.66,167.9l.42,1.59a.75.75,0,0,1-.51.91l-6.5,1.79a.37.37,0,0,1-.36-.61l3.78-2.78Z"/><path class="cls-79" d="M115.66,167.9l-.82.84a3.76,3.76,0,0,1-3.75,1.09l1.4-1Z"/><polygon class="cls-55" points="127.4 133.27 124.56 134.63 121.84 135.95 128.19 136.01 127.4 133.27"/><path class="cls-62" d="M134.76,137.91s2.7,6.26-1,9H121.84s-.27-7.09-7-6.81l3.63-2.15Z"/><path class="cls-55" d="M121.84,146.87h-1.72l-2.93,23.26-4.62.89,1.29-1.41-.87-20.9a9.37,9.37,0,0,1,.61-4,9.51,9.51,0,0,1,1.31-2.27l1.68-2.22S121.53,140.55,121.84,146.87Z"/><polygon class="cls-56" points="133.75 134.51 134.37 136.13 128.91 136.01 133.75 134.51"/><path class="cls-66" d="M101.11,138.51h47a1.19,1.19,0,0,0,1.19-1.19h0a1.19,1.19,0,0,0-1.19-1.19h-47a1.19,1.19,0,0,0-1.19,1.19h0A1.19,1.19,0,0,0,101.11,138.51Z"/><path class="cls-65" d="M101.57,172.22h0a.3.3,0,0,1-.24-.35l5.63-33.24a.29.29,0,0,1,.34-.24.29.29,0,0,1,.24.34L101.87,172A.3.3,0,0,1,101.57,172.22Z"/><path class="cls-65" d="M148.29,172.22A.29.29,0,0,1,148,172l-5.63-33.24a.29.29,0,0,1,.24-.34.29.29,0,0,1,.34.24l5.63,33.24a.3.3,0,0,1-.24.35Z"/><path class="cls-56" d="M129,119.66h2.65a4.15,4.15,0,0,1,3.1,1.39h0a4.21,4.21,0,0,1,.87,1.54l2.27,7.4a3.44,3.44,0,0,1-.61,3.15h0a3.48,3.48,0,0,1-1.89,1.19l-7.2,1.68-1.41-2.44-2.22,1.06L122,135.88l-.42-2.89-.77,2.95h-8.5l-.07-.66,5.28-1.76,1.57-9.33a4.73,4.73,0,0,1,.91-2.09h0a4.71,4.71,0,0,1,3.37-1.84l1.24-.1a3.64,3.64,0,0,0,2.3.59A3,3,0,0,0,129,119.66Z"/><path class="cls-64" d="M126.78,133.75a.19.19,0,0,1-.16-.1.18.18,0,0,1,.09-.24l5.9-2.82-1.88-6.13a.18.18,0,0,1,.11-.22.18.18,0,0,1,.23.12l1.93,6.28a.19.19,0,0,1-.1.21l-6,2.88Z"/><path class="cls-64" d="M121.57,133.16a.19.19,0,0,1-.18-.14l-.55-3.12a.17.17,0,0,1,.14-.2.17.17,0,0,1,.21.14l.56,3.11a.19.19,0,0,1-.15.21Z"/><path class="cls-64" d="M122.13,130.46a1.91,1.91,0,0,1-1.22-.44,2,2,0,0,1-.68-1.75l.67-5a.18.18,0,0,1,.2-.16.19.19,0,0,1,.15.2l-.67,5a1.61,1.61,0,0,0,.56,1.44,1.55,1.55,0,0,0,1.46.28l.08.16.06.17-.06-.17,0,.18A2,2,0,0,1,122.13,130.46Z"/><path class="cls-64" d="M128.45,136.13a.19.19,0,0,1-.18-.14.18.18,0,0,1,.14-.21l5.18-1.22a.18.18,0,0,1,.22.14.18.18,0,0,1-.13.21l-5.19,1.22Z"/><path class="cls-69" d="M126,136.13h-5.63v-1.08H125a1.07,1.07,0,0,1,1.07,1.08Z"/><path class="cls-69" d="M121.07,136.13H104.81L102.23,128a1.13,1.13,0,0,1,1.07-1.47h13.9a1.13,1.13,0,0,1,1.07.79Z"/><path class="cls-81" d="M109.85,131.73a.82.82,0,1,0,.25-1.2A.87.87,0,0,0,109.85,131.73Z"/><path class="cls-62" d="M117.47,168.3l.34,1.62a.74.74,0,0,1-.51.9l-6.5,1.79a.36.36,0,0,1-.35-.6l3.49-2.73Z"/><path class="cls-55" d="M117.39,168.32l-.81.85a4,4,0,0,1-3.86,1.06l1.22-.95Z"/><path class="cls-55" d="M34.13,143.31c-1.79,6.53.78,14.13,2,21l3.79-.42s.7-23.16.48-23.86c-2.12.78-4.3.6-6.47,1.1Z"/><path class="cls-55" d="M22,163l-2.35,5.94-2.44-.65,1.2-6.07S20.48,162.56,22,163Z"/><path class="cls-56" d="M17.27,167.84l-.57,1.41a.69.69,0,0,0,.33.89l5.44,2.46a.34.34,0,0,0,.39-.51l-2.7-2.94Z"/><path class="cls-55" d="M17.27,167.84l.61.87a3.46,3.46,0,0,0,3.23,1.47l-1.33-1.66Z"/><path class="cls-55" d="M39.9,163.69l.11,6.52-2.5.4-1.4-6.3S38.31,163.92,39.9,163.69Z"/><path class="cls-56" d="M37.38,170.2l0,1.52a.66.66,0,0,0,.64.68l6,0a.34.34,0,0,0,.16-.63l-3.62-1.59Z"/><path class="cls-55" d="M37.38,170.2l.89.55a3.43,3.43,0,0,0,3.53,0l-1.86-1Z"/><path class="cls-55" d="M34,123.62l1.55,1.87-6.32,20.37-4.09-1.25-2.91-.88c1.06-8.3,1.29-13.9,2.35-18.78a7.47,7.47,0,0,1,4.42-5.4l1.5-.62Z"/><path class="cls-55" d="M29.24,145.86l-7.33,17.41-3.47-1.06c1.44-6.05,2.54-11.41,4.32-18.61h3.49Z"/><path class="cls-62" d="M40.05,134.51a26.42,26.42,0,0,1,1,5.35,12.36,12.36,0,0,1-.63,5.82c-1.59-1.29-8.29-2.78-10-2a12.24,12.24,0,0,1-7,1.11c-3-.44-5.53-1.53-7.29-4.13a11.22,11.22,0,0,1-2.06-6.3,2.4,2.4,0,0,0,1.77.17c1.2-.47,2-1.72,3-2.46a11.79,11.79,0,0,0,3.55-5.44,22,22,0,0,1,2.85-5.91,2.73,2.73,0,0,1,1-.85,3.58,3.58,0,0,1,2.44-.45c1.9.67,3.63-1.36,5,.32a15.27,15.27,0,0,1,1.71,3.06c.5,1.07,1.12,2.1,1.56,3.18,1,2.6,2.16,5.19,3,7.87Z"/><path class="cls-55" d="M36.08,98.31c-.68-.23-1-1.32-1-1.32a3.18,3.18,0,0,0-.4-2l-5-.2-.13,3.74L29,103.33l4.16.14L33,101.25h.07l1.38.18h0l.29.06a.69.69,0,0,0,.4-.08h0c.49-.21.46-2.1.46-2.1l0-.34C36.23,98.76,36.08,98.31,36.08,98.31Z"/><polygon class="cls-82" points="33.01 101.25 31.11 100.82 33.03 101.73 33.01 101.25"/><path class="cls-83" d="M31.77,97.54a3.16,3.16,0,0,0,1.47-1.21,2.39,2.39,0,0,0,.42-1.26s1.09.15,1.45,1.81a2.88,2.88,0,0,0-.68-2.83c-.92-.92-5.77-1.7-7,2.27-.73,2.4,2.07,4,1.84,4.6,0,0,1.89-.29,1.45-2Z"/><path class="cls-83" d="M33.66,95.07s.4,2.85-1.9,3.81a1.61,1.61,0,0,0-1-1.47Z"/><path class="cls-55" d="M31.89,99.41c-.5.35-1,.47-1.43-.12s-.58-1.7-.08-2.05a1.34,1.34,0,0,1,1.51,2.17Z"/><path class="cls-83" d="M29.93,99.81a2.32,2.32,0,1,1-2.22-2.4A2.32,2.32,0,0,1,29.93,99.81Z"/><path class="cls-18" d="M29.16,98.09a.09.09,0,0,1-.07,0,1.86,1.86,0,0,0-1.62-.56.09.09,0,0,1-.12-.07.11.11,0,0,1,.08-.12,2,2,0,0,1,1.8.62.1.1,0,0,1,0,.14A.1.1,0,0,1,29.16,98.09Z"/><polygon class="cls-55" points="35.66 111.14 41.57 124.95 40.07 125.94 33.36 118.97 35.66 111.14"/><path class="cls-55" d="M40.27,123.62l-1,1.5,3.6,4a.25.25,0,0,0,.37-.31l.69.74a.3.3,0,0,0,.29,0,.32.32,0,0,0,.13-.37l.24.29a.38.38,0,0,0,.43,0,.32.32,0,0,0,.08-.39l-.37-.42-.78-.89,1,.64c.15.09.3.11.41,0a.33.33,0,0,0,0-.43c-.67-.6-1.25-1.29-1.91-1.91l.51.22a.72.72,0,0,0,.36.06.63.63,0,0,0,.41-.25l-1-.62-1-.6a1.07,1.07,0,0,0-.7-.12l-.48.1Z"/><path class="cls-56" d="M28.11,104.43l-1.6,15.69,7.11-.34c-.08-1.41,1.65-7.32,1.65-7.32l1.31-1.52a2.9,2.9,0,0,0,.32-1.09,2.54,2.54,0,0,0-1.1-2.26c-.91-.67-1.5-2.68-2.51-4h0c-3.91-.14-4.2-1-4.2-1A5.52,5.52,0,0,1,28.11,104.43Z"/><path class="cls-55" d="M30.09,103.19a15.55,15.55,0,0,0,2,1.89c.46.37,1.56,1.23,2.3,1.08l.31,0a9.9,9.9,0,0,0-1.53-2.65Z"/><rect class="cls-18" x="23.29" y="125.74" width="9.75" height="7.54" transform="translate(23.57 -2.95) rotate(10.28)"/><rect class="cls-56" x="18.99" y="124.9" width="13.01" height="8.27" rx="0.43" transform="matrix(0.98, 0.18, -0.18, 0.98, 23.44, -2.48)"/><path class="cls-55" d="M30.68,104.06l-.41-.21a2.27,2.27,0,0,0-1.84,0,2.84,2.84,0,0,0-1.15,1.38,9.58,9.58,0,0,0-.55,2.48c-.24,1.53-.49,3.06-.73,4.6-.15,1-.3,1.92-.46,2.88v0l-1.43,14.38,2.15.23s2.93-8.71,3.78-11.22a9,9,0,0,0,.34-1.36c.27-1.54.53-3.08.79-4.63L32,107.7a4.36,4.36,0,0,0-.13-2.43A2.85,2.85,0,0,0,30.68,104.06Z"/><path class="cls-56" d="M31.66,111.47c.21-1.25.42-2.49.64-3.74a4.76,4.76,0,0,0-.15-2.67,3.13,3.13,0,0,0-1.32-1.33c-.15-.09-.31-.16-.45-.23a2.49,2.49,0,0,0-2,0A3.31,3.31,0,0,0,27.09,105a11,11,0,0,0-.6,2.73l-.6,3.76Z"/><path class="cls-55" d="M24.33,128.84l-.19.64-1,1.62a6.1,6.1,0,0,0-.4,1.11.75.75,0,0,0,.22.74l.65.34a.81.81,0,0,0,.51,0l.82-.21-.71-.25.47-.43.64-.63.11.09-.09.57a1.07,1.07,0,0,0,.06.56.42.42,0,0,0,.51.27l0-.78s.15-.9.16-.94.22-1.42.22-1.42l.25-1Z"/><path class="cls-56" d="M31.73,111.17h0a.13.13,0,0,1-.1-.16,30.94,30.94,0,0,0,.69-5,.13.13,0,0,1,.12-.15.13.13,0,0,1,.15.11,30,30,0,0,1-.7,5.1A.13.13,0,0,1,31.73,111.17Z"/><path class="cls-54" d="M162,172.93H3.5a.31.31,0,0,1-.3-.3.3.3,0,0,1,.3-.3H162a.29.29,0,0,1,.3.3A.3.3,0,0,1,162,172.93Z"/></g></g></g></svg>