<svg xmlns="http://www.w3.org/2000/svg" xmlns:xlink="http://www.w3.org/1999/xlink" viewBox="0 0 604.24 375.01"><defs><style>.cls-1,.cls-49,.cls-51,.cls-52{fill:none;}.cls-2{clip-path:url(#clip-path);}.cls-3,.cls-37,.cls-45{fill:#48acbe;}.cls-16,.cls-28,.cls-3,.cls-40,.cls-42{opacity:0.14;}.cls-4{font-size:9.01px;fill:gray;letter-spacing:0.08em;}.cls-22,.cls-27,.cls-4{font-family:NotoSansCJKtc-Medium-B5pc-H, Noto Sans CJK TC;}.cls-12,.cls-5{fill:#c8647f;}.cls-12,.cls-6,.cls-9{font-size:12.18px;}.cls-18,.cls-48,.cls-6,.cls-9{fill:#fff;}.cls-12,.cls-19,.cls-29,.cls-37,.cls-41,.cls-43,.cls-6,.cls-9{font-family:NotoSansCJKtc-Bold-B5pc-H, Noto Sans CJK TC;}.cls-6{letter-spacing:0.12em;}.cls-7{letter-spacing:0.12em;}.cls-8{letter-spacing:0em;}.cls-10{letter-spacing:0.18em;}.cls-11{fill:#ffd2dc;}.cls-13,.cls-48{font-size:9.05px;font-family:NotoSansCJKtc-Regular-B5pc-H, Noto Sans CJK TC;}.cls-13{fill:#c88090;}.cls-14{letter-spacing:0.02em;}.cls-15,.cls-48{letter-spacing:0.02em;}.cls-16{fill:#689acb;}.cls-17,.cls-19{fill:#5e8fcf;}.cls-19,.cls-29,.cls-37,.cls-41,.cls-43{font-size:10.83px;}.cls-20{letter-spacing:0.02em;}.cls-21{letter-spacing:0.02em;}.cls-22,.cls-27{font-size:8.05px;}.cls-22,.cls-27,.cls-30,.cls-34{fill:#595757;}.cls-23,.cls-27{letter-spacing:0.02em;}.cls-24{letter-spacing:0.02em;}.cls-25{letter-spacing:0.02em;}.cls-26{letter-spacing:0.02em;}.cls-28,.cls-29,.cls-47{fill:#eca048;}.cls-30,.cls-34{font-size:9.06px;}.cls-30{font-family:AcuminConcept-Medium, Acumin Variable Concept;font-weight:500;}.cls-31{letter-spacing:0.05em;}.cls-32{letter-spacing:0.04em;}.cls-33{letter-spacing:0.04em;}.cls-34{font-family:AcuminConcept-Light, Acumin Variable Concept;font-weight:300;}.cls-35{letter-spacing:0.04em;}.cls-36{letter-spacing:0.03em;}.cls-38{letter-spacing:0.02em;}.cls-39{letter-spacing:0.02em;}.cls-40,.cls-41,.cls-44{fill:#f69fa8;}.cls-42,.cls-43,.cls-46{fill:#7fad4e;}.cls-49,.cls-51{stroke:#bb375b;}.cls-49,.cls-51,.cls-52{stroke-miterlimit:10;}.cls-49{stroke-width:1.24px;}.cls-50{fill:#bb375b;}.cls-51{stroke-width:1.43px;}.cls-52{stroke:#d6adb8;stroke-dasharray:6;}.cls-53{fill:#dfe4fc;}.cls-54{fill:#cbd4fa;}.cls-55{fill:#f5cfc9;}.cls-56{fill:#3d4b5f;}.cls-57{fill:#d38a40;}.cls-58{fill:#f1b1a8;}.cls-59{fill:#f5ccc6;}.cls-60{fill:#efa89d;}.cls-61{fill:#2a3341;}.cls-62{fill:#e9705b;}.cls-63{fill:#9247f5;}.cls-64{fill:#232b37;}.cls-65{fill:#4e6cf5;}.cls-66{fill:#eea95e;}.cls-67{fill:#ee9f92;}.cls-68{fill:#4059c9;}.cls-69{fill:#2c3544;}.cls-70{fill:#48576c;}.cls-71{fill:#ce543f;}.cls-72{fill:#8a9ef7;}.cls-73{fill:#e3e8fc;}.cls-74{fill:#a9b8f8;}.cls-75{fill:#e74a31;}.cls-76{fill:#f0aea3;}.cls-77{fill:#3455f4;}.cls-78{fill:#4362f5;}.cls-79{fill:#f3c2bb;}.cls-80{fill:#e8624b;}.cls-81{fill:#576982;}.cls-82{fill:#ec8e7f;}.cls-83{fill:#57413b;}</style><clipPath id="clip-path"><rect class="cls-1" width="604.24" height="375.01"/></clipPath></defs><g id="圖層_2" data-name="圖層 2"><g id="圖層_1-2" data-name="圖層 1"><g class="cls-2"><path class="cls-3" d="M330.58,361.32H258.43a5.47,5.47,0,0,1-5.47-5.48V233.68a5.48,5.48,0,0,1,5.47-5.48h72.15a5.48,5.48,0,0,1,5.48,5.48V355.84a5.48,5.48,0,0,1-5.48,5.48"/><text class="cls-4" transform="translate(434.91 93.5)">訂定永續發展策略及目標<tspan x="0" y="10.82">督導永續發展業務之執行</tspan><tspan x="0" y="21.64">每半年召開會議</tspan></text><rect class="cls-5" x="232.57" y="11.31" width="123.89" height="39.49" rx="15.33"/><text class="cls-6" transform="translate(274.05 36.46)">董<tspan class="cls-7" x="13.64" y="0">事</tspan><tspan class="cls-8" x="27.27" y="0">會</tspan></text><rect class="cls-5" x="216.37" y="75.44" width="156.28" height="50.98" rx="19.79"/><text class="cls-9" transform="translate(260.14 100.21)"><tspan class="cls-10">永續委員</tspan><tspan x="57.49" y="0">會</tspan></text><path class="cls-11" d="M181.72,165.72H88.5c-8.47,0-15.34-6.22-15.34-13.89v-8C73.16,136.17,80,130,88.5,130h93.22c8.47,0,15.33,6.21,15.33,13.88v8C197.05,159.5,190.19,165.72,181.72,165.72Z"/><text class="cls-12" transform="translate(90.07 151.94)"><tspan class="cls-7">事務</tspan><tspan x="27.26" y="0">局</tspan></text><text class="cls-13" transform="translate(135.56 151.03)"><tspan class="cls-14">經</tspan><tspan class="cls-15" x="9.22" y="0">營</tspan><tspan class="cls-14" x="18.45" y="0">企</tspan><tspan class="cls-15" x="27.67" y="0">劃</tspan><tspan x="36.9" y="0">部</tspan></text><path class="cls-16" d="M134.89,361.32H62.74a5.48,5.48,0,0,1-5.48-5.48V233.68a5.48,5.48,0,0,1,5.48-5.48h72.15a5.49,5.49,0,0,1,5.48,5.48V355.84a5.48,5.48,0,0,1-5.48,5.48"/><path class="cls-17" d="M81.31,228.59a17.51,17.51,0,1,1,17.5,17.51A17.51,17.51,0,0,1,81.31,228.59Z"/><path class="cls-18" d="M111.62,226.54v6.05h-.08l-7.23,3.62-.13.22a1.26,1.26,0,0,1-1.07,1.21l-.18.18a1.26,1.26,0,0,1-1.07,1.07l-.16.13a1.25,1.25,0,0,1-1.12,1.12,6.25,6.25,0,0,1-.51.87,2.25,2.25,0,0,1-.6.37h-.55c-.27-.16-.55-.31-.8-.49a.3.3,0,0,0-.37-.05,1.26,1.26,0,0,1-1.78-.92.25.25,0,0,0-.23-.23,1.15,1.15,0,0,1-.88-.64c-.08-.16-.07-.41-.19-.52s-.37-.12-.54-.21a1.26,1.26,0,0,1-.68-1.07,1.3,1.3,0,0,1-1.23-1.16l-.07-.12L91,235.3c-.11.12-.19.29-.27.29a2.63,2.63,0,0,1-.93-.08c-1.2-.37-2.39-.78-3.58-1.17A.29.29,0,0,1,86,234q0-4,0-8v-.26a2.77,2.77,0,0,1,2,.38c.17.15.42.22.6.36a1.49,1.49,0,0,0,1.68.23l.24-.13-.16-.25a2.91,2.91,0,0,1-1-1.41,5,5,0,0,1-.12-1.76,2.77,2.77,0,0,1,1.7-2.53,9.57,9.57,0,0,1,1.28-.34c-.1-.24-.23-.53-.34-.82l0-.24,2.09-2.1c.38.25.76.5,1.14.73l.3,0c.41-.15.8-.34,1.2-.49a.31.31,0,0,0,.24-.27c.08-.43.18-.86.27-1.28h3.15c.1.44.18.87.29,1.3l.2.23c.4.19.81.34,1.21.52a.27.27,0,0,0,.32,0l1.14-.74c.71.71,1.41,1.41,2.1,2.12v.24c-.11.29-.24.57-.36.87a2.92,2.92,0,0,1,2.76,1.77,4.18,4.18,0,0,1,.26,2,2.92,2.92,0,0,1-1.08,2.2l-.16.23.23.14,1.94.54.21,0,1.06-.55.28-.09C111.07,226.52,111.34,226.53,111.62,226.54Zm-.84.88-.29.14q-3.54,1.86-7.07,3.73a1.35,1.35,0,0,1-.83.18,4.26,4.26,0,0,1-.49-.1l-2.13-.61a1.94,1.94,0,0,0-1.44.08L96.28,232a.63.63,0,0,0-.28.87.58.58,0,0,0,.85.16l1.33-.79a1.67,1.67,0,0,1,2.21.21l3.27,3a.3.3,0,0,0,.4,0l6.5-3.25a.36.36,0,0,0,.23-.38c0-1.36,0-2.73,0-4.1C110.79,227.61,110.78,227.53,110.78,227.42Zm-12.87,2.81a4.35,4.35,0,0,0-2.3-.37c-1.06.17-2.1.43-3.15.66l-.18.16c-.35,1.21-.69,2.42-1,3.63l0,.18,1.16.71c.32-.32.59-.63.91-.9a1.26,1.26,0,0,1,2.11.71.24.24,0,0,0,.24.22,1.21,1.21,0,0,1,.87.65c.08.17.12.36.19.55A1.34,1.34,0,0,1,98,237.67a1.69,1.69,0,0,1,1.08.67,5.56,5.56,0,0,0,1.09.9.44.44,0,0,0,.64-.12.45.45,0,0,0-.14-.6c-.15-.14-.32-.27-.48-.4l-1.64-1.37.53-.63.11.09,2.06,1.71a.53.53,0,0,0,.76,0c.18-.22.13-.46-.16-.7l-1.21-1-.85-.71.53-.63,2.12,1.76.2.15a.5.5,0,0,0,.61-.11.44.44,0,0,0,0-.61l-.14-.14-3.18-2.86a.94.94,0,0,0-1.33-.13c-.47.28-.93.58-1.41.84a1.41,1.41,0,1,1-1.22-2.55Zm-3.2-1.08.26,0a5.18,5.18,0,0,1,2.35.07l2.88.79,2.23.63a1.64,1.64,0,0,0,.32.05c.15,0,.2-.07.2-.21,0-.45,0-.9,0-1.35a1.25,1.25,0,0,0-1-1.26c-.7-.18-1.41-.36-2.11-.52-.14,0-.19-.09-.19-.24s0-.6,0-.9a.32.32,0,0,1,.19-.33,2,2,0,0,0,1-1.47,4.66,4.66,0,0,0,0-1.12,3.22,3.22,0,0,0-.28-1,2,2,0,0,0-3.71.37,7.09,7.09,0,0,0-.11,1.31,2.07,2.07,0,0,0,1.07,2l.15.27c0,.29,0,.59,0,.88s-.06.27-.25.31l-2.08.52A1.21,1.21,0,0,0,94.71,229.15Zm13.53-1.34v-.06l-1.74-.43c-.18,0-.25-.11-.24-.29a7.66,7.66,0,0,0,0-.83.36.36,0,0,1,.2-.38,1.79,1.79,0,0,0,1-1.23,3.85,3.85,0,0,0-.05-2,2.07,2.07,0,0,0-1.9-1.41,2,2,0,0,0-2,1.46,6.66,6.66,0,0,0-.1,1.48,1.67,1.67,0,0,0,.73,1.49,1,1,0,0,1,.5,1.16v.3c0,.17,0,.23-.21.26l-1.22.31c.75.73.58,1.64.6,2.54Zm-13.79-.19c-.44-.12-.84-.23-1.25-.32a.19.19,0,0,1-.17-.22q0-.44,0-.87a.36.36,0,0,1,.2-.38,2,2,0,0,0,1-1.5,3.87,3.87,0,0,0,0-1,3.76,3.76,0,0,0-.3-1.09,2,2,0,0,0-3.69.37,7.26,7.26,0,0,0-.11,1.55,1.66,1.66,0,0,0,.72,1.45,1,1,0,0,1,.5,1.15v.3c0,.16,0,.24-.2.27s-.45.11-.68.17l0,.06a11.87,11.87,0,0,0,1.42.82,1,1,0,0,1,.64,1.22l0,0,1.09-.25.14-.15A2.2,2.2,0,0,1,94.45,227.62Zm1.48-4c0-.18,0-.36,0-.53a2.81,2.81,0,0,1,1.73-2.52,2.73,2.73,0,0,1,2.93.39c1.29,1,1.33,3,.89,4.17a2.67,2.67,0,0,1-.89,1.18c-.17.13-.17.27,0,.31.5.14,1,.26,1.5.38l.2,0,1.3-.33.19-.12-.11-.22a5.81,5.81,0,0,1-.66-.75,4.21,4.21,0,0,1-.25-3.42l0-.32a4.53,4.53,0,0,0-7.86-.07.42.42,0,0,0,0,.42,4.28,4.28,0,0,1-.06,3.09,2.64,2.64,0,0,1-.82,1l-.12.23.12.09,1.45.36h.22l1.33-.34.16-.1-.1-.23c-.16-.16-.34-.3-.48-.47A3.07,3.07,0,0,1,95.93,223.63Zm7.41-2.48.89-.56.09-.12c.13-.29.25-.58.37-.87l0-.2c-.4-.42-.82-.83-1.24-1.25-.35.22-.67.45-1,.65h-.28a6.63,6.63,0,0,0-1.95-.8.24.24,0,0,1-.21-.23c-.07-.33-.14-.65-.2-1a.2.2,0,0,0-.23-.19H98.09a.2.2,0,0,0-.22.18c-.06.33-.14.65-.2,1a.25.25,0,0,1-.23.24,6.25,6.25,0,0,0-1.92.8.24.24,0,0,1-.32,0l-.85-.56c-.11-.08-.18-.06-.28,0-.34.36-.7.71-1.06,1.06a.25.25,0,0,0-.06.31c.12.26.22.53.34.8l.11.16.88.58a5.38,5.38,0,0,1,9.06,0Zm-16.5,5.37v5.94c0,.34,0,.68,0,1l.12.21,1.64.56c.51-2,1-4,1.5-6-1-.56-1.93-1.13-2.9-1.68A1,1,0,0,0,86.84,226.52Zm3.4,8.27.08-.25c.17-.61.35-1.23.52-1.85.31-1.05.61-2.11.91-3.16l0-.33c-.26-.18-.55-.33-.85-.51-.49,2-1,3.88-1.46,5.82Zm7,5.35.19-.06c.31-.29.62-.58.9-.9a.39.39,0,0,0-.07-.54.38.38,0,0,0-.54-.06,6.38,6.38,0,0,0-.9.9C96.62,239.74,96.86,240.13,97.24,240.14Zm-3.79-3.68c.12,0,.21,0,.25-.08.31-.31.64-.61.92-.94a.38.38,0,0,0-.1-.54.4.4,0,0,0-.55,0,9.51,9.51,0,0,0-.84.84.56.56,0,0,0,0,.46C93.17,236.31,93.35,236.38,93.45,236.46Zm3.77,1.24a1.74,1.74,0,0,0-.32-.38.39.39,0,0,0-.5.07c-.25.22-.48.46-.71.7a.46.46,0,0,0,0,.69.48.48,0,0,0,.69-.05c.22-.21.43-.42.63-.64A3,3,0,0,0,97.22,237.7Zm-2.45,0,.2-.08a12.18,12.18,0,0,0,.88-.88.44.44,0,0,0-.59-.62,5.78,5.78,0,0,0-.92.93C94.14,237.28,94.41,237.67,94.77,237.67Zm3.79,2.52c.23.22.45.47.79.33a.51.51,0,0,0,.27-.37c0-.35-.3-.45-.48-.64Z"/><text class="cls-19" transform="translate(76.1 262.54)"><tspan class="cls-20">公</tspan><tspan class="cls-21" x="11.04" y="0">司</tspan><tspan class="cls-20" x="22.09" y="0">治</tspan><tspan x="33.13" y="0">理</tspan></text><text class="cls-22" transform="translate(73 280.25)"><tspan class="cls-23">▪</tspan><tspan class="cls-24" x="8.21" y="0">董</tspan><tspan class="cls-23" x="16.41" y="0">事</tspan><tspan class="cls-25" x="24.62" y="0">會</tspan><tspan class="cls-26" x="32.83" y="0">運</tspan><tspan x="41.04" y="0">作</tspan></text><text class="cls-22" transform="translate(73 294.25)"><tspan class="cls-23">▪</tspan><tspan class="cls-24" x="8.21" y="0">誠</tspan><tspan class="cls-23" x="16.41" y="0">信</tspan><tspan class="cls-25" x="24.62" y="0">經</tspan><tspan x="32.83" y="0">營</tspan></text><text class="cls-22" transform="translate(73 308.26)"><tspan class="cls-23">▪</tspan><tspan class="cls-24" x="8.21" y="0">風</tspan><tspan class="cls-23" x="16.41" y="0">險</tspan><tspan class="cls-25" x="24.62" y="0">管</tspan><tspan x="32.83" y="0">理</tspan></text><text class="cls-27" transform="translate(73 322.27)">▪<tspan class="cls-24" x="8.21" y="0">法令遵循</tspan></text><text class="cls-27" transform="translate(265.37 280.25)">▪多元共融<tspan class="cls-25" x="41.05" y="0">(D&amp;I)</tspan></text><text class="cls-27" transform="translate(265.37 294.25)">▪育才留才</text><text class="cls-27" transform="translate(265.37 308.26)">▪<tspan class="cls-24" x="8.21" y="0">健康安全</tspan></text><text class="cls-27" transform="translate(265.37 322.27)">▪<tspan class="cls-24" x="8.21" y="0">員工照顧</tspan></text><text class="cls-22" transform="translate(73 336.27)"><tspan class="cls-23">▪</tspan><tspan class="cls-24" x="8.21" y="0">資</tspan><tspan class="cls-23" x="16.41" y="0">訊</tspan><tspan class="cls-25" x="24.62" y="0">安</tspan><tspan x="32.83" y="0">全</tspan></text><text class="cls-27" transform="translate(73 350.28)">▪<tspan class="cls-24" x="8.21" y="0">責任投資</tspan></text><path class="cls-28" d="M232.74,361.32H160.59a5.48,5.48,0,0,1-5.48-5.48V233.68a5.48,5.48,0,0,1,5.48-5.48h72.15a5.48,5.48,0,0,1,5.47,5.48V355.84a5.47,5.47,0,0,1-5.47,5.48"/><text class="cls-29" transform="translate(174.51 262.54)"><tspan class="cls-20">商</tspan><tspan class="cls-21" x="11.04" y="0">品</tspan><tspan class="cls-20" x="22.09" y="0">服</tspan><tspan x="33.13" y="0">務</tspan></text><text class="cls-22" transform="translate(171.58 279.9)">▪</text><text class="cls-30" transform="translate(179.8 279.9)"><tspan class="cls-31">C</tspan><tspan class="cls-32" x="6.67" y="0">S</tspan><tspan class="cls-33" x="12.59" y="0">V</tspan><tspan x="18.8" y="0"> </tspan></text><text class="cls-34" transform="translate(201.26 278.89) scale(1.25 1)">x</text><text class="cls-30" transform="translate(206.67 279.9)"><tspan class="cls-35"> </tspan><tspan class="cls-36" x="2.63" y="0">D</tspan><tspan x="9.42" y="0">X</tspan></text><text class="cls-22" transform="translate(171.58 295.19)"><tspan class="cls-23">▪</tspan><tspan class="cls-24" x="8.21" y="0">綠</tspan><tspan class="cls-23" x="16.41" y="0">色</tspan><tspan class="cls-25" x="24.62" y="0">商</tspan><tspan x="32.83" y="0">品</tspan></text><text class="cls-22" transform="translate(171.58 310.49)"><tspan class="cls-23">▪</tspan><tspan class="cls-24" x="8.21" y="0">客</tspan><tspan class="cls-23" x="16.41" y="0">戶</tspan><tspan class="cls-25" x="24.62" y="0">服</tspan><tspan x="32.83" y="0">務</tspan></text><text class="cls-37" transform="translate(271.76 262.54)"><tspan class="cls-38">員</tspan><tspan class="cls-39" x="11.05" y="0">工</tspan><tspan class="cls-38" x="22.09" y="0">幸</tspan><tspan x="33.14" y="0">福</tspan></text><path class="cls-40" d="M428.43,361.32H356.28a5.48,5.48,0,0,1-5.48-5.48V233.68a5.49,5.49,0,0,1,5.48-5.48h72.15a5.48,5.48,0,0,1,5.48,5.48V355.84a5.48,5.48,0,0,1-5.48,5.48"/><text class="cls-41" transform="translate(370.02 262.54)"><tspan class="cls-38">社</tspan><tspan class="cls-39" x="11.05" y="0">會</tspan><tspan class="cls-38" x="22.09" y="0">關</tspan><tspan x="33.14" y="0">懷</tspan></text><text class="cls-22" transform="translate(370.83 280.38)"><tspan class="cls-23">▪社</tspan><tspan class="cls-24" x="16.42" y="0">會</tspan><tspan class="cls-23" x="24.62" y="0">參</tspan><tspan x="32.83" y="0">與</tspan></text><text class="cls-22" transform="translate(370.83 295.67)"><tspan class="cls-23">▪體</tspan><tspan class="cls-24" x="16.42" y="0">育</tspan><tspan class="cls-23" x="24.62" y="0">支</tspan><tspan x="32.83" y="0">援</tspan></text><path class="cls-42" d="M526.28,361.32H454.13a5.48,5.48,0,0,1-5.48-5.48V233.68a5.48,5.48,0,0,1,5.48-5.48h72.15a5.49,5.49,0,0,1,5.48,5.48V355.84a5.48,5.48,0,0,1-5.48,5.48"/><text class="cls-43" transform="translate(467.87 262.54)"><tspan class="cls-38">綠</tspan><tspan class="cls-39" x="11.05" y="0">色</tspan><tspan class="cls-38" x="22.09" y="0">營</tspan><tspan x="33.14" y="0">運</tspan></text><text class="cls-22" transform="translate(468.71 280.38)"><tspan class="cls-23">▪能</tspan><tspan class="cls-24" x="16.42" y="0">源</tspan><tspan class="cls-23" x="24.62" y="0">管</tspan><tspan x="32.83" y="0">理</tspan></text><text class="cls-22" transform="translate(468.71 295.67)"><tspan class="cls-23">▪節</tspan><tspan class="cls-24" x="16.42" y="0">能</tspan><tspan class="cls-23" x="24.62" y="0">減</tspan><tspan x="32.83" y="0">碳</tspan></text><text class="cls-22" transform="translate(468.71 310.97)"><tspan class="cls-23">▪綠</tspan><tspan class="cls-24" x="16.42" y="0">色</tspan><tspan class="cls-23" x="24.62" y="0">採</tspan><tspan x="32.83" y="0">購</tspan></text><path class="cls-44" d="M375.35,229.09a17,17,0,1,1,17,17A17,17,0,0,1,375.35,229.09Z"/><path class="cls-18" d="M403.22,223.87a1.2,1.2,0,0,1-.74.84,1.47,1.47,0,0,1-.42.06h-1.59a1.08,1.08,0,0,1-1-.56c-.06-.11-.13-.15-.23-.12a3.32,3.32,0,0,0-.73.26,4.68,4.68,0,0,1-2.83.79,8.93,8.93,0,0,1-2.16-.45l-1.13-.34a1.57,1.57,0,0,1-1.15-1l-.05-.09-1,.51-2.33,1.16a1.77,1.77,0,0,1-1.25.2,1.48,1.48,0,0,1-.59-2.59c.54-.45,1.13-.84,1.72-1.24a.4.4,0,0,1,.57.12.41.41,0,0,1-.11.58l-1.42,1-.14.1a.66.66,0,1,0,.68,1.13c.38-.17.75-.36,1.12-.55.9-.44,1.81-.89,2.71-1.35l.24-.22a1.56,1.56,0,0,1,1.78-.73l2.28.66c.29.09.42.3.34.54a.42.42,0,0,1-.57.28l-2.28-.66a.69.69,0,0,0-.89.73.64.64,0,0,0,.45.59,16.29,16.29,0,0,0,3.07.79,3.53,3.53,0,0,0,2.31-.52,2.6,2.6,0,0,1,1.45-.51v-2.65a10.42,10.42,0,0,1-1.38-.19c-1.1-.28-2.19-.61-3.29-.92l-1.22-.33a1.91,1.91,0,0,0-1.48.18c-.21.11-.41.25-.61.38a.44.44,0,0,1-.62-.07.41.41,0,0,1,.11-.61,3.23,3.23,0,0,1,2.23-.79,8.58,8.58,0,0,1,1.42.32c1.19.32,2.36.68,3.55,1a9,9,0,0,0,1.27.18l.05-.11a1.13,1.13,0,0,1,1.24-1h1.27a1.19,1.19,0,0,1,1.38.92Zm-3.05-2.16v1.84c0,.29.08.37.36.37H402c.28,0,.36-.08.36-.37v-3.67c0-.28-.08-.36-.37-.36h-1.46c-.29,0-.37.09-.37.38Z"/><path class="cls-18" d="M391.51,240l-3.81-1.07a8.29,8.29,0,0,0-2-.39h-.33l0,.2a1.05,1.05,0,0,1-.93.81c-.65,0-1.31,0-1.95,0a1,1,0,0,1-1-1q0-2,0-4a1.08,1.08,0,0,1,1.05-1.05h1.78a1,1,0,0,1,.89.53.25.25,0,0,0,.31.14,3.49,3.49,0,0,0,.7-.27,4.67,4.67,0,0,1,2.81-.77,8.16,8.16,0,0,1,2,.41l1.26.37a1.57,1.57,0,0,1,1.17,1.06l0,.09,1.71-.85,1.83-.9a1.55,1.55,0,0,1,1.83.31,1.5,1.5,0,0,1-.19,2.19c-.54.43-1.11.81-1.67,1.2a.42.42,0,0,1-.59-.09.42.42,0,0,1,.11-.6c.47-.35.95-.68,1.43-1l.2-.15a.67.67,0,0,0,.16-.83.66.66,0,0,0-.79-.28l-.26.11-3.71,1.84-.22.21a1.56,1.56,0,0,1-1.79.73c-.77-.21-1.53-.44-2.3-.66a.43.43,0,1,1,.24-.82c.76.22,1.53.45,2.3.66a.68.68,0,0,0,.88-.73.62.62,0,0,0-.44-.59,18.3,18.3,0,0,0-3.1-.79,3.49,3.49,0,0,0-2.19.47,2.91,2.91,0,0,1-1.55.57v2.62c.65.11,1.3.18,1.92.34,1.18.31,2.36.65,3.52,1a2.47,2.47,0,0,0,2.39-.34l.19-.13a.42.42,0,1,1,.49.69l-.24.17a4.3,4.3,0,0,1-1.53.64Zm-7-3.49v-1.86c0-.26-.09-.34-.35-.35h-1.5c-.27,0-.36.09-.36.36v3.69c0,.27.09.35.36.36h1.48c.28,0,.37-.09.37-.37Z"/><path class="cls-18" d="M393.43,226.41a2.36,2.36,0,0,1,2-.54,2.3,2.3,0,0,1,1.79,2.16,2.6,2.6,0,0,1-.83,2.12l-2.49,2.4c-.35.33-.61.34-.95,0-.86-.82-1.72-1.64-2.57-2.48a2.49,2.49,0,0,1-.63-2.71,2.2,2.2,0,0,1,3.29-1.21C393.17,226.23,393.28,226.32,393.43,226.41Zm0,5.27.1,0c.82-.8,1.64-1.58,2.46-2.39a1.52,1.52,0,0,0,.41-1.38,1.22,1.22,0,0,0-1.49-1.12,2.06,2.06,0,0,0-.76.4c-.56.47-.83.48-1.37,0l-.23-.19a1.24,1.24,0,0,0-2,.66,1.46,1.46,0,0,0,.3,1.56C391.67,230,392.54,230.86,393.39,231.68Z"/><path class="cls-18" d="M389.9,220.48a.41.41,0,0,1-.42.43.41.41,0,0,1-.42-.41.42.42,0,0,1,.42-.43A.41.41,0,0,1,389.9,220.48Z"/><path class="cls-18" d="M395.23,237.28a.41.41,0,0,1,.43.4.45.45,0,0,1-.43.44.43.43,0,0,1-.42-.44A.41.41,0,0,1,395.23,237.28Z"/><path class="cls-45" d="M277.51,229.09a17,17,0,1,1,17,17A17,17,0,0,1,277.51,229.09Z"/><path class="cls-18" d="M303.45,231.13a3,3,0,0,0-2.58.68l-.42-.29a2.85,2.85,0,0,0-2.83-.15l-.4-.15c-.51-.18-.5-.18-.51-.73a.47.47,0,0,1,.2-.45,2.46,2.46,0,0,0,.39-.4,5.18,5.18,0,0,0,1.05-2.64,6.08,6.08,0,0,1,.69-2.2,1.82,1.82,0,0,0,.2-.8c0-.72,0-1.45,0-2.18a2.2,2.2,0,0,0-1.2-2.07l-.1-.17a1.25,1.25,0,0,0-1.3-1.31q-2.41,0-4.83,0a3.49,3.49,0,0,0-3.39,3.21c-.05.66,0,1.33,0,2a2.4,2.4,0,0,0,.5,1.57,1.49,1.49,0,0,1,.32.85c0,.51,0,1,.12,1.52a4.21,4.21,0,0,0,1.22,2.5,1,1,0,0,1,.37.94v0c0,.13-.05.18-.16.22l-1.3.46c-1.36.5-2.73,1-4.09,1.49a2.35,2.35,0,0,0-1.61,1.89c-.15.8-.28,1.61-.4,2.42a2.65,2.65,0,0,0-.07.79,1.29,1.29,0,0,0,1.37,1.11h15.22l.33.32c.49.47.8.47,1.29,0,1.05-1,2.09-2,3.14-3a3.37,3.37,0,0,0,1.05-2.07A3,3,0,0,0,303.45,231.13Zm-14.21-7.68a4.14,4.14,0,0,0,0,.61h-.08a3.42,3.42,0,0,1,0-.44v-1.79a2.78,2.78,0,0,1,2.75-2.85c1.57,0,3.14,0,4.71,0,.52,0,.79.29.61.81a.34.34,0,0,0,.26.5,1.54,1.54,0,0,1,1.1,1.53c0,.7,0,1.4,0,2.1a3.59,3.59,0,0,1-.05.46h-.07v-.55a2.07,2.07,0,0,0-1.3-2,17.07,17.07,0,0,0-2-.7,1.38,1.38,0,0,0-1,0,5.71,5.71,0,0,1-2.7.45A2.17,2.17,0,0,0,289.24,223.45Zm.89,4.2a6.73,6.73,0,0,1-.17-1.34c0-.86,0-1.73,0-2.59a1.48,1.48,0,0,1,1.38-1.39,9.55,9.55,0,0,0,1.69-.05,7,7,0,0,0,1.28-.41,1.1,1.1,0,0,1,.78,0l1.62.57a1.46,1.46,0,0,1,1,1l0,.24v1.4h0c0,.68-.05,1.37-.13,2a4.18,4.18,0,0,1-.65,1.76,2.81,2.81,0,0,1-.79.82c-.3.21-.57.46-.86.67a2.23,2.23,0,0,1-2.75.13c-.44-.3-.89-.6-1.31-.93A3.3,3.3,0,0,1,290.13,227.65Zm5.85,3.14a.35.35,0,0,1-.19.45c-.62.4-1.22.81-1.83,1.22a.2.2,0,0,1-.28,0c-.61-.41-1.23-.83-1.85-1.23a.34.34,0,0,1-.17-.44A3.13,3.13,0,0,0,296,230.79Zm-6.05,1.76c.84,1.52,1.66,3,2.48,4.52l0,0-2.23-2c.12-.23.24-.44.35-.66a.36.36,0,0,0-.35-.57l-.76,0-.07,0Zm2.75,6h-8a.61.61,0,0,1-.68-.79c.15-.91.29-1.81.45-2.72a1.62,1.62,0,0,1,1-1.28c1.19-.45,2.38-.86,3.57-1.3h.1l-.13.26c-.2.4-.41.8-.6,1.21s0,.56.34.58h.83l-.17.33c-.15.3-.14.4.11.63l3.16,2.89.18.16Zm.14-2.33h-.05l-.34-.62,0-.14c.15-.22.32-.44.52-.71a1.29,1.29,0,0,1,0,.25Zm-.81-1.37c-.54-1-1.05-1.91-1.58-2.87.25-.09.47-.18.7-.25l.17,0,2,1.33C292.87,233.66,292.45,234.24,292,234.85Zm2.23,2.52c-.12.25-.26.49-.42.78a4.64,4.64,0,0,1-.43-.82,1.8,1.8,0,0,1,.07-.64c.09-.57.18-1.13.28-1.69a.61.61,0,0,0-.14-.53c-.07-.08-.12-.18-.2-.29l.42-.56a5.1,5.1,0,0,1,.36.49v.17a1.08,1.08,0,0,0-.21,1.05c.12.61.21,1.22.3,1.84ZM296,232a.76.76,0,0,1,.93-.1h0a3.12,3.12,0,0,0-.69,1.13,3.74,3.74,0,0,0-.21,1.15l-.38.7-1.29-1.77C294.9,232.71,295.46,232.36,296,232Zm.55,3.91c-.38.36-.92.89-1.28,1.22l0,0c.3-.55.7-1.19,1-1.73h0A3.29,3.29,0,0,0,296.53,235.88Zm-1.83-1.07c.17.23.34.45.5.69v.14a6.65,6.65,0,0,1-.33.58,9.56,9.56,0,0,1-.22-1.39Zm.27,3.74h-.17l0-.05,1.44-1.32.76-.74.06.06c.69.69,1.41,1.37,2.11,2.05Zm9.82-3.82a1.92,1.92,0,0,1-.42.75c-1.14,1.15-2.31,2.26-3.5,3.42-1.18-1.14-2.34-2.24-3.46-3.36a2.14,2.14,0,0,1-.37-2.41,1.7,1.7,0,0,1,2.69-.75c.87.79,1.41.82,2.28,0a1.65,1.65,0,0,1,2.06,0A2.14,2.14,0,0,1,304.79,234.73Z"/><path class="cls-18" d="M508.55,204.34v-.62h2v.62Z"/><path class="cls-18" d="M507.24,200.59l-.36-.37,1.42-1.42.35.41Z"/><path class="cls-18" d="M508.69,208.86l-.39.38-1.43-1.42.4-.39Z"/><path class="cls-46" d="M473.2,229.09a17,17,0,1,1,17,17A17,17,0,0,1,473.2,229.09Z"/><path class="cls-18" d="M488.5,241.52c0-.36,0-.72,0-1.09l-.12-.21-1.66-.66-.8.87L483.47,238l.84-.81-.65-1.65-.22-.12c-.35,0-.7,0-1.08,0V232h1.08c.11,0,.18,0,.23-.15.19-.53.41-1.05.64-1.64l-.86-.79,2.45-2.46c.22.23.47.47.7.72a.26.26,0,0,0,.37.07c.43-.2.87-.38,1.31-.54a.26.26,0,0,0,.21-.3c0-.33,0-.67,0-1h1.34v-2.06c-.34,0-.68,0-1,0a4.61,4.61,0,0,1-4.31-5.89l.23-.19a4.61,4.61,0,0,1,5.24,2.18l.07.1c.11-.26.2-.51.32-.75a4.62,4.62,0,0,1,5.36-2.38l.22.21a4.64,4.64,0,0,1-3,5.65,5,5,0,0,1-2.3.16v3h1.33c0,.38,0,.72,0,1.07,0,.16,0,.23.2.29.46.16.9.35,1.34.55.13.06.21.07.31,0,.24-.27.5-.52.73-.75l2.44,2.44-.86.81c.19.45.38.85.54,1.27s.19.51.74.51h.69v3.44c-.35,0-.69,0-1,0-.17,0-.24.05-.3.22-.18.5-.39,1-.59,1.5l.84.83-2.47,2.46-.79-.83c-.59.23-1.12.43-1.65.65l-.12.21c0,.37,0,.73,0,1.09Zm8.82-6.86v-2c-.3,0-.58,0-.87,0s-.25-.05-.31-.23c-.16-.53-.34-1.06-.55-1.57a8.28,8.28,0,0,0-.47-.82l.79-.73-1.42-1.42-.74.83a6.58,6.58,0,0,0-2.55-1.07c0-.32,0-.62,0-.93,0-.16-.05-.21-.21-.21h-1.57c-.17,0-.22.05-.21.21,0,.31,0,.61,0,.89-.47.15-.91.27-1.34.44s-.81.41-1.25.64l-.72-.76c-.48.47-.94.93-1.42,1.42l.79.75a6.57,6.57,0,0,0-1,2.42l-.2.13c-.32,0-.63,0-.94,0v2h.9c.16,0,.23,0,.26.2a3.58,3.58,0,0,0,.23.79c.22.53.48,1,.76,1.65l-.75.68,1.41,1.42.75-.81a5.94,5.94,0,0,0,2.31,1c.22.05.26.14.26.34s0,.56,0,.84h2c0-.32,0-.63,0-.94l.13-.2a6.58,6.58,0,0,0,2.44-1l.72.81,1.46-1.46-.8-.74a6.31,6.31,0,0,0,1-2.34c0-.17.1-.2.25-.2Zm-12.19-16.33a3.86,3.86,0,0,0,4.14,4.66l-2.56-2.55.55-.59,2.55,2.56A3.88,3.88,0,0,0,485.13,218.33Zm6,3.84a3.9,3.9,0,0,0,4.13-4.7,3.8,3.8,0,0,0-3.57,1.09,3.76,3.76,0,0,0-1.11,3l.07,0,2.88-2.89.53.51Z"/><path class="cls-18" d="M480.07,234h-2.24v-.7h2.24Z"/><path class="cls-18" d="M482,229.42c-.12.13-.28.28-.43.42l-1.59-1.59.45-.41Z"/><path class="cls-18" d="M481.52,237.48l.43.45-1.58,1.59-.43-.46Z"/><path class="cls-18" d="M485.51,233.66a4.7,4.7,0,1,1,4.69,4.7A4.7,4.7,0,0,1,485.51,233.66Zm8.66,0a4,4,0,1,0-4,4A4,4,0,0,0,494.17,233.66Z"/><path class="cls-18" d="M490.2,237a3.31,3.31,0,1,1,3.31-3.3A3.31,3.31,0,0,1,490.2,237Zm0-.73a2.58,2.58,0,1,0-2.58-2.56A2.58,2.58,0,0,0,490.21,236.24Z"/><path class="cls-47" d="M179.66,229.09a17,17,0,1,1,17,17A17,17,0,0,1,179.66,229.09Z"/><path class="cls-18" d="M205.35,239.39h-20v-17.9H202l0-.15a3,3,0,0,1,6,.49c0,4.85,0,9.69,0,14.54v.11a2.93,2.93,0,0,1-1.45,2.45A8.26,8.26,0,0,1,205.35,239.39ZM186,238.72h18.83a2.42,2.42,0,0,0,2-.88,2.34,2.34,0,0,0-2.61-3.69v4.11a2.18,2.18,0,0,1-1.14-.18,1.93,1.93,0,0,1-1.1-1.87v-14H186Zm21.33-4.27V222c0-.1,0-.21,0-.31a2.36,2.36,0,0,0-4.71.21v12.31l0,.2a3,3,0,0,1,2.33-1.1A3.05,3.05,0,0,1,207.33,234.45Zm-3.83.1a2.22,2.22,0,0,0-.85,2.1,1.15,1.15,0,0,0,.85.86Z"/><path class="cls-18" d="M188.26,232.48h1.87v.66h-1.87v2.47h1.88v.67h-2.56v-9.37h4.64v-.67h-3.11v-2.92H196v2.91h-3.11v.67h4.52v1.35h3.13v2.91h-6.93v-2.89h3.11v-.68h-8.5Zm7.11-8.49h-5.59v1.56h5.59Zm4.53,6.49V229h-5.57v1.53Z"/><path class="cls-18" d="M197.65,230.31v.57h-5.59v-.57Z"/><path class="cls-18" d="M197.65,233.12v.57h-5.59v-.57Z"/><path class="cls-18" d="M193.65,231.5v.59h-1.58v-.59Z"/><path class="cls-18" d="M193.64,234.9h-1.58v-.59h1.58Z"/><path class="cls-18" d="M194.26,232.09v-.58h.59v.58Z"/><path class="cls-18" d="M196.06,231.51v.58h-.58v-.58Z"/><path class="cls-18" d="M194.27,234.31h.58v.58h-.58Z"/><path class="cls-18" d="M195.48,234.31h.57v.58h-.57Z"/><text class="cls-48" transform="translate(267.28 115.65)">主席：總經理</text><line class="cls-49" x1="295.15" y1="70.83" x2="295.15" y2="55.09"/><polygon class="cls-50" points="300.24 66.71 299.33 65.86 295.15 70.36 290.97 65.86 290.06 66.71 295.15 72.18 300.24 66.71"/><line class="cls-51" x1="294.83" y1="130.96" x2="294.83" y2="178.13"/><path class="cls-49" d="M100,199.55v-12.9a10.48,10.48,0,0,1,10.48-10.47H286.33a8.51,8.51,0,0,0,8.5-8.51V131"/><polygon class="cls-50" points="105.05 195.43 104.14 194.58 99.96 199.07 95.78 194.58 94.87 195.43 99.96 200.9 105.05 195.43"/><line class="cls-49" x1="196.66" y1="199.6" x2="196.66" y2="176.18"/><polygon class="cls-50" points="201.75 195.48 200.84 194.63 196.67 199.12 192.49 194.63 191.58 195.48 196.67 200.95 201.75 195.48"/><line class="cls-49" x1="294.83" y1="199.6" x2="294.83" y2="176.18"/><polygon class="cls-50" points="299.92 195.48 299.01 194.63 294.83 199.12 290.65 194.63 289.74 195.48 294.83 200.95 299.92 195.48"/><line class="cls-49" x1="392.36" y1="199.6" x2="392.36" y2="176.18"/><polygon class="cls-50" points="397.44 195.48 396.53 194.63 392.36 199.12 388.18 194.63 387.27 195.48 392.36 200.95 397.44 195.48"/><path class="cls-49" d="M489.7,199.55v-12.9a10.48,10.48,0,0,0-10.48-10.47H303.33a8.51,8.51,0,0,1-8.5-8.51V131"/><polygon class="cls-50" points="494.79 195.43 493.88 194.58 489.7 199.07 485.52 194.58 484.61 195.43 489.7 200.9 494.79 195.43"/><line class="cls-52" x1="377.17" y1="100.21" x2="426.01" y2="100.21"/><rect class="cls-52" x="425.77" y="75.43" width="123.71" height="49.56"/><line class="cls-49" x1="207.92" y1="148.63" x2="295.01" y2="148.63"/><polygon class="cls-50" points="212.04 153.72 212.89 152.81 208.4 148.63 212.89 144.46 212.04 143.54 206.57 148.63 212.04 153.72"/><circle class="cls-53" cx="536.75" cy="330.82" r="0.39"/><circle class="cls-53" cx="539.56" cy="330.82" r="0.39"/><circle class="cls-53" cx="542.38" cy="330.82" r="0.39"/><circle class="cls-53" cx="545.19" cy="330.82" r="0.39"/><circle class="cls-53" cx="536.75" cy="333.04" r="0.39"/><circle class="cls-53" cx="539.56" cy="333.04" r="0.39"/><circle class="cls-53" cx="542.38" cy="333.04" r="0.39"/><circle class="cls-53" cx="545.19" cy="333.04" r="0.39"/><circle class="cls-53" cx="536.75" cy="335.27" r="0.39"/><circle class="cls-53" cx="539.56" cy="335.27" r="0.39"/><circle class="cls-53" cx="542.38" cy="335.27" r="0.39"/><circle class="cls-53" cx="545.19" cy="335.27" r="0.39"/><circle class="cls-53" cx="536.75" cy="337.5" r="0.39"/><circle class="cls-53" cx="539.56" cy="337.5" r="0.39"/><circle class="cls-53" cx="542.38" cy="337.5" r="0.39"/><circle class="cls-53" cx="545.19" cy="337.5" r="0.39"/><path class="cls-54" d="M563.13,298l1.65-.86v.36a.11.11,0,0,1,0,.08.14.14,0,0,1-.07.06l-.75.39-.11,0-.11,0,.22.08.75.39a.14.14,0,0,1,.07.06.11.11,0,0,1,0,.08v.36l-1.65-.86Z"/><path class="cls-54" d="M565.85,299.5a.26.26,0,0,1-.11.14.37.37,0,0,1-.16.05h-.22l1.22-3.12a.28.28,0,0,1,.26-.18h.22Z"/><path class="cls-54" d="M569.29,298.19l-1.66.86v-.36a.19.19,0,0,1,0-.08l.07-.06.76-.39a.93.93,0,0,1,.22-.08l-.12,0-.1,0-.76-.39-.07-.06a.19.19,0,0,1,0-.08v-.36l1.66.86Z"/><path class="cls-54" d="M593,298.81H570.91a.18.18,0,0,1-.19-.19.19.19,0,0,1,.19-.19H593a.2.2,0,0,1,.19.19A.19.19,0,0,1,593,298.81Z"/><path class="cls-54" d="M581.46,301.25H563.24a.19.19,0,1,1,0-.38h18.22a.19.19,0,1,1,0,.38Z"/><path class="cls-54" d="M593,301.25h-8.11a.19.19,0,0,1,0-.38H593a.19.19,0,0,1,0,.38Z"/><path class="cls-54" d="M593,303.31H563.24a.18.18,0,0,1-.19-.19.19.19,0,0,1,.19-.19H593a.2.2,0,0,1,.19.19A.19.19,0,0,1,593,303.31Z"/><path class="cls-54" d="M573,305.6h-9.8a.18.18,0,0,1-.19-.19.19.19,0,0,1,.19-.19H573a.19.19,0,0,1,.19.19A.18.18,0,0,1,573,305.6Z"/><path class="cls-54" d="M593,305.6H576.4a.19.19,0,0,1-.19-.19.2.2,0,0,1,.19-.19H593a.2.2,0,0,1,.19.19A.19.19,0,0,1,593,305.6Z"/><path class="cls-54" d="M582,307.52H563.24a.19.19,0,0,1-.19-.19.18.18,0,0,1,.19-.19H582a.19.19,0,0,1,.19.19A.2.2,0,0,1,582,307.52Z"/><path class="cls-54" d="M593,307.52h-8.32a.19.19,0,0,1-.18-.19.18.18,0,0,1,.18-.19H593a.19.19,0,0,1,.19.19A.2.2,0,0,1,593,307.52Z"/><path class="cls-54" d="M593,309.17H563.24a.18.18,0,0,1-.19-.19.19.19,0,0,1,.19-.19H593a.2.2,0,0,1,.19.19A.19.19,0,0,1,593,309.17Z"/><path class="cls-54" d="M557.81,318.21H528.35a.19.19,0,0,1-.19-.19V296.59a.19.19,0,0,1,.19-.2h29.46a.2.2,0,0,1,.19.2V318A.2.2,0,0,1,557.81,318.21Zm-29.26-.39h29.06v-21H528.55Z"/><rect class="cls-54" x="528.35" y="296.59" width="29.45" height="1.92"/><path class="cls-18" d="M530.06,297.54a.41.41,0,0,1-.41.42.42.42,0,0,1-.42-.42.41.41,0,0,1,.42-.41A.41.41,0,0,1,530.06,297.54Z"/><path class="cls-18" d="M531.3,297.54a.42.42,0,1,1-.83,0,.42.42,0,0,1,.83,0Z"/><path class="cls-18" d="M532.52,297.54a.42.42,0,1,1-.83,0,.42.42,0,0,1,.83,0Z"/><path class="cls-54" d="M542.94,317.27a7.41,7.41,0,0,1-.08-14.81h.08a7.41,7.41,0,0,1,.08,14.81Zm-.07-14.42a7,7,0,1,0,7.08,6.94,7,7,0,0,0-7.08-6.94Z"/><path class="cls-18" d="M543.16,310.26l-.09-8.76a8.77,8.77,0,0,0-8.51,8.85Z"/><path class="cls-54" d="M534.56,310.55a.16.16,0,0,1-.13-.06.2.2,0,0,1-.06-.14,9,9,0,0,1,8.7-9.05.2.2,0,0,1,.14.06.17.17,0,0,1,.06.14l.09,8.76a.21.21,0,0,1-.19.2l-8.6.09Zm8.32-8.85a8.62,8.62,0,0,0-8.12,8.45l8.2-.09Z"/><polygon class="cls-55" points="560.4 357.63 560.11 354.95 562.76 354.71 562.78 358.19 560.4 357.63"/><path class="cls-56" d="M565.53,358.81a.27.27,0,0,1-.24.15l-4.21.06h0a.53.53,0,0,1-.41-.19.49.49,0,0,1-.11-.14.88.88,0,0,1,0-.15.36.36,0,0,1,0-.1l0-.47-.06-.64s.82.79,1.06.18,1.19-.21,1.19-.21l.42.17.13.06.14.05.14.06,1,.39.23.09.81.33A.28.28,0,0,1,565.53,358.81Z"/><polygon class="cls-55" points="553.8 357.63 554.08 354.95 551.43 354.71 551.42 358.19 553.8 357.63"/><path class="cls-56" d="M548.66,358.81a.28.28,0,0,0,.25.15l4.2.06h0a.57.57,0,0,0,.42-.19.45.45,0,0,0,.1-.14.47.47,0,0,0,.06-.15s0-.07,0-.1l0-.47.05-.64s-.81.79-1.05.18-1.19-.21-1.19-.21l-.42.17-.14.06-.13.05-.14.06-1,.39-.24.09-.8.33A.28.28,0,0,0,548.66,358.81Z"/><polygon class="cls-56" points="555.45 343.53 556.57 332.17 557.52 332.25 558.56 343.43 563.05 343.58 562.59 326.51 551.86 326.51 551.24 343.48 555.45 343.53"/><polygon class="cls-56" points="558.56 343.43 559.53 356.69 563.37 356.45 563.05 343.48 558.56 343.43"/><polygon class="cls-56" points="551.24 343.48 550.75 356.45 554.55 356.72 555.45 343.53 551.24 343.48"/><path class="cls-18" d="M564.26,313.86l-.35-.3a3.71,3.71,0,0,0-1.47-.77l-2.69-.59a2.29,2.29,0,0,1-2,.88c-1.52-.19-1.5-1.29-1.5-1.29l-3.66,3.39h-.15l.56.85-.9,11.87c3-1.27,4.2-.61,6.22.21s4.39-2.06,4.39-2.06v-7.21L564,319.9l.37.28Z"/><path class="cls-57" d="M562.71,319a.15.15,0,0,1-.15-.14l-.19-2.32a.15.15,0,0,1,.13-.17.16.16,0,0,1,.17.14l.19,2.33a.15.15,0,0,1-.14.16Z"/><path class="cls-56" d="M563.16,326.26l.94,4.12-1.67.49a1.19,1.19,0,0,1-1.49-.86l-.63-2.56Z"/><path class="cls-56" d="M565.38,317l-.39-1.43a4.93,4.93,0,0,0-1.08-2h0a3.71,3.71,0,0,0-1.47-.77l-2.33-.52a94.27,94.27,0,0,0-.27,12.29l-1.72,2.18,2.07,1.69,4.69-3.33a3.09,3.09,0,0,0,1.1-1.47,2.94,2.94,0,0,0,.17-1l-.66-5.07A4.21,4.21,0,0,0,565.38,317Z"/><path class="cls-58" d="M558.63,327.15l1.35,1.11-1.71,2.07a.2.2,0,0,1-.2,0,.14.14,0,0,1-.09-.18l-.39.46a.22.22,0,0,1-.19,0,.18.18,0,0,1-.14-.2l-.13.18a.31.31,0,0,1-.31,0,.19.19,0,0,1-.1-.22c.07-.08.13-.17.2-.26l.42-.56-.59.43a.23.23,0,0,1-.28,0,.16.16,0,0,1,0-.25c.38-.38.69-.81,1.07-1.2l-.32.15a.49.49,0,0,1-.24,0,.48.48,0,0,1-.32-.12l.64-.41.64-.4c.13-.08.12-.13.29-.12Z"/><path class="cls-59" d="M555.92,307.94s-.37,2.72.45,3l-.13.79a1.23,1.23,0,0,0,1.46,1.6c1.9-.13,2-1.29,2-1.29l-.08-2a.81.81,0,0,0,.8-.91s.11-.7-.69-.59l0-1.93-3.15-.07Z"/><path class="cls-56" d="M560.92,307.54a.43.43,0,0,0-.35,0,1.75,1.75,0,0,0,.34-1.19.29.29,0,0,0,0-.13c-.1-.11-.29-.05-.41,0l0-.27a.93.93,0,0,0,0-.29.26.26,0,0,0-.2-.19c-.12,0-.22.08-.3.18a1,1,0,0,0-.05-.73.24.24,0,0,0-.08-.09.23.23,0,0,0-.23,0,.55.55,0,0,0-.15.19.86.86,0,0,0,0-.39.29.29,0,0,0-.46-.2.59.59,0,0,0-.29.44.86.86,0,0,0-.16-.41c-.09-.13-.26-.25-.39-.16s-.1.17-.18.24a.41.41,0,0,0-.41-.39.56.56,0,0,0-.41.32,3.09,3.09,0,0,0-.18.51c0-.11-.1-.23-.21-.22s-.11.06-.15.11a1,1,0,0,0-.15.76c-.11,0-.18-.19-.3-.18s-.15.11-.18.21a1.36,1.36,0,0,0,0,.53.19.19,0,0,0-.28,0,.47.47,0,0,0-.08.31c0,.14,0,.38,0,.38a3,3,0,0,0,.32,1,1.28,1.28,0,0,0,.23-.52c.08-.33.47-.26.64-.08a.27.27,0,0,0,.46,0,.31.31,0,0,1,.52,0c.16.21.17.22.52.1s.6,0,.69.63a.61.61,0,0,0,.75.52c.48,0,.63.22.63.22a1.48,1.48,0,0,0,.69-1A.47.47,0,0,0,560.92,307.54Z"/><path class="cls-60" d="M556.37,310.93a2.25,2.25,0,0,0,2-.37s-.44.77-2,.72Z"/><path class="cls-56" d="M552,325.38l-.94,5,1.66.49a1.2,1.2,0,0,0,1.5-.86l.62-2.56Z"/><path class="cls-56" d="M555.34,324.62a20.14,20.14,0,0,0,.71-5.85c-.12-2.4.09-6.8.09-6.8a5.32,5.32,0,0,0-2.42.56l-.9.46a4.17,4.17,0,0,0-1.92,2l-.65,1.44a6.28,6.28,0,0,0-.46,1.53l-.8,4.67a2.94,2.94,0,0,0,.17,1,3,3,0,0,0,1.1,1.47l4.69,3.33,2.06-1.69Z"/><path class="cls-59" d="M556.65,327l-1.43,1.18,2.63,1.75a.21.21,0,0,0,.2,0,.14.14,0,0,0,0-.2l.5.34a.27.27,0,0,0,.2,0,.21.21,0,0,0,.07-.24l.18.14a.32.32,0,0,0,.29-.1.19.19,0,0,0,0-.24l-.26-.19-.57-.42.68.24a.22.22,0,0,0,.28-.07.16.16,0,0,0,0-.25c-.47-.26-.89-.58-1.37-.85l.36.05a.49.49,0,0,0,.24,0,.49.49,0,0,0,.27-.21l-.73-.21-.72-.21c-.15,0-.16-.09-.32,0Z"/><polygon class="cls-18" points="557.47 313.32 559.68 311.44 560.11 312.27 559.42 313.37 557.47 313.32"/><path class="cls-18" d="M557.7,313.32l-1.41-1.94-.18,1a3.73,3.73,0,0,0,.9,1.41Z"/><polygon class="cls-56" points="556.15 311.71 557.47 323.1 554.07 330.34 556.15 311.71"/><polygon class="cls-56" points="560.11 312.4 557.47 323.1 561.37 330.67 560.11 312.4"/><path class="cls-61" d="M556.05,325.63a.11.11,0,0,1-.09,0l-2.74-3.47a.11.11,0,0,1,0-.08l.65-5.54a.12.12,0,0,1,.13-.1.11.11,0,0,1,.1.13l-.65,5.49,2.72,3.43a.11.11,0,0,1,0,.16Z"/><path class="cls-61" d="M554.55,328.26a.07.07,0,0,1-.06,0L552,326.43a.11.11,0,0,1,.14-.18l2.44,1.81a.11.11,0,0,1,0,.16A.1.1,0,0,1,554.55,328.26Z"/><path class="cls-61" d="M559.1,325.73l-.07,0a.11.11,0,0,1,0-.16l2.7-3.53-.64-5.49a.11.11,0,0,1,.1-.13.11.11,0,0,1,.12.1l.65,5.54a.08.08,0,0,1,0,.08l-2.73,3.57A.12.12,0,0,1,559.1,325.73Z"/><path class="cls-61" d="M560.55,328.37a.11.11,0,0,1-.09-.05.1.1,0,0,1,0-.15l2.48-1.92a.1.1,0,0,1,.15,0,.11.11,0,0,1,0,.16l-2.47,1.91Z"/><polygon class="cls-56" points="557.47 323.1 559.83 316.81 559.74 316.12 560.32 316.55 560.54 312.4 559.64 311.14 559.75 312.4 557.47 323.1 557.47 323.1"/><polygon class="cls-56" points="557.47 323.1 556.18 311.97 556.33 311.29 555.45 312 555.3 316.21 556.05 315.91 555.77 316.51 557.47 323.1"/><polygon class="cls-62" points="557.61 313.2 557.01 313.81 557.34 314.32 557.84 314.32 558.18 313.81 557.61 313.2"/><polygon class="cls-62" points="557.34 314.32 557.15 320.5 557.47 323.1 558.02 320.52 557.84 314.32 557.34 314.32"/><polygon class="cls-62" points="556.9 324.3 557.51 325.15 558.12 324.38 557.47 323.1 556.9 324.3"/><path class="cls-63" d="M574.24,327.24h0S574.26,327.24,574.24,327.24Z"/><path class="cls-55" d="M589,354.91l.91,1.68,1.38-.79-.57-1.64A3.76,3.76,0,0,1,589,354.91Z"/><path class="cls-62" d="M591.24,355.55l.57.73a.41.41,0,0,1-.06.57l-2.93,2.34a.2.2,0,0,1-.31-.23l1.18-2.16Z"/><path class="cls-55" d="M591.24,355.55l-.23.61a2.24,2.24,0,0,1-1.73,1.39l.55-1.18Z"/><path class="cls-55" d="M575.48,355.67l-.35,1.91,1.6.26.44-1.79A2.73,2.73,0,0,1,575.48,355.67Z"/><path class="cls-62" d="M576.82,357.58l0,.93a.41.41,0,0,1-.41.42h-3.8a.21.21,0,0,1-.1-.39l2.31-1Z"/><path class="cls-55" d="M576.82,357.58l-.57.34a2.27,2.27,0,0,1-2.26,0l1.19-.59Z"/><path class="cls-55" d="M585.05,344.26a34.55,34.55,0,0,0,1.34-6.54,33.8,33.8,0,0,0-.08-5l-.78-2.27-1.15-1.06-3.27,5.55.12-.07s-.18,4.95-.17,6.43a14,14,0,0,0,1.13,4l7.64,11.06c.89.23,1-1.49,1-1.49A13.44,13.44,0,0,0,585.05,344.26Z"/><path class="cls-55" d="M581,335.32s-1.3,7.36-1.29,8.75c0,2.36-.94,9-2.65,12.36l-.12.68-1.73.22.11-4.6S579.58,333.81,581,335.32Z"/><path class="cls-18" d="M579.85,325.38a6.92,6.92,0,0,1-3-.67.12.12,0,0,1-.05-.15.11.11,0,0,1,.15-.05,7.37,7.37,0,0,0,5.72.12.11.11,0,0,1,.15.06.12.12,0,0,1-.06.15A8,8,0,0,1,579.85,325.38Z"/><path class="cls-56" d="M576.87,324.94l-1.28,12.43-.3,15.36,3.15.24s3-13.77,2.33-20.05c0,0-.4,9.25,1.42,12.39l5,7.42,3-1.38s-1.36-5-5.15-7.09c0,0,4.34-10.85-1.71-19.26Z"/><path class="cls-64" d="M580.78,337.48a.11.11,0,0,1-.11-.08,28,28,0,0,1-1-7.44l-1-1a.12.12,0,0,1,0-.16.11.11,0,0,1,.16,0l1.06,1a.12.12,0,0,1,0,.09,26.92,26.92,0,0,0,1,7.42.12.12,0,0,1-.08.14Z"/><path class="cls-55" d="M572,315.13l-1.08-1-.09-.82,0-1.15a.33.33,0,0,0-.31.27l-.14.66a.13.13,0,0,1-.1.1h0a.11.11,0,0,1-.11,0L568.79,312a.12.12,0,0,0-.13,0,.1.1,0,0,0,0,.16l.89.9a.31.31,0,0,0-.19.09.26.26,0,0,0-.08.18.24.24,0,0,0-.13,0,.22.22,0,0,0-.11.18.2.2,0,0,0-.15.09.22.22,0,0,0,0,.15,1.92,1.92,0,0,0,.18.29,1.8,1.8,0,0,0,.82.5l.48,1.61Z"/><path class="cls-65" d="M576.47,314.3,574.93,319l-3.39-5-1.78,1.46,3.07,5.46a3.14,3.14,0,0,0,3.16,1.67l.39,0Z"/><path class="cls-55" d="M578.27,313.94l0,.63-.41,0s0,1.4.9,1.35a3.6,3.6,0,0,0,2.05-1.42c0-.05-.34-.16-.32-.2l-.1-1.76s.91-.47.62-1c-.44-.78-.85-.21-1.06-.08l-.19-1.55h-2.25l-1.15.85.36,2.12a1.31,1.31,0,0,0,1.5,1h0Z"/><path class="cls-65" d="M580.9,314.37l3.45,1s1.8.3,1.26,3.57a23.57,23.57,0,0,1-1.62,5.61,1.27,1.27,0,0,1-1.08.66,9,9,0,0,1-6-.28l.08-.52-1.25-3.26.27-3.5a3.39,3.39,0,0,1-.09-2.44.67.67,0,0,1,.43-.39,7,7,0,0,1,1.57-.28.81.81,0,0,0,.94.93S580.45,315.47,580.9,314.37Z"/><path class="cls-66" d="M577.54,310.22s.26,1.26,2.43,1.27a.48.48,0,0,1,.78.06s.47.53-.34,1l.07,1.86,2.93.86s1.65.5,2,1.68c0,0,.66,1.41-.69,5.52,0,0,1.21.29,1.66-1.6a1.43,1.43,0,0,0,1.46-1,2.38,2.38,0,0,0-.4-2.51,11.47,11.47,0,0,0-2.91-2.54c-2.24-1.33-3-2.53-3.11-3.4,0,0-.61-3.47-3.3-3a2.24,2.24,0,0,0-2.14,1.95,2.86,2.86,0,0,0,.11,1.09,3.79,3.79,0,0,1-.08,2.54,1.26,1.26,0,0,0-.22,1.29,1.6,1.6,0,0,1,.94-.65s1-.11,1.52-.14l0-.63s-.95,0-1.29-.5a3.87,3.87,0,0,1-.38-1.38l-.18-1.05A1.29,1.29,0,0,0,577.54,310.22Z"/><path class="cls-67" d="M578.27,313.94s1-.12,1.21-.73a1.53,1.53,0,0,1-1.2,1Z"/><path class="cls-68" d="M576.83,319.7h0a.15.15,0,0,1-.13-.17L577,317a.15.15,0,0,1,.17-.13.15.15,0,0,1,.13.17l-.36,2.58A.16.16,0,0,1,576.83,319.7Z"/><path class="cls-68" d="M576.42,323.19h0a.15.15,0,0,1-.13-.17l.09-.74a.16.16,0,0,1,.17-.13.15.15,0,0,1,.13.17l-.09.74A.14.14,0,0,1,576.42,323.19Z"/><path class="cls-69" d="M579.82,321.17l-2.94-.07v-.56l2.38,0a.57.57,0,0,1,.55.58Z"/><path class="cls-69" d="M577.23,321.11l-8.5-.19-1.26-4.29a.59.59,0,0,1,.58-.76l7.27.17a.57.57,0,0,1,.55.42Z"/><path class="cls-70" d="M571.41,318.68a.43.43,0,1,0,.15-.63A.47.47,0,0,0,571.41,318.68Z"/><path class="cls-68" d="M582.23,321.64h-.05l-1.21-.42a.14.14,0,0,1-.09-.19.14.14,0,0,1,.19-.09l1.2.41a.15.15,0,0,1,0,.29Z"/><polygon class="cls-65" points="583.76 324.47 577.24 322.55 578.31 320.21 581.29 320.76 581.59 317.69 583.76 324.47"/><path class="cls-68" d="M583.76,324.62h0l-6.52-1.91a.16.16,0,0,1-.09-.09.13.13,0,0,1,0-.12l1.07-2.34a.14.14,0,0,1,.16-.09l2.81.52.29-2.91a.15.15,0,0,1,.17-.13.14.14,0,0,1,.13.16l-.3,3.08a.17.17,0,0,1-.06.1.14.14,0,0,1-.12,0l-2.86-.53-.95,2.08,6.36,1.86a.16.16,0,0,1,.1.19A.15.15,0,0,1,583.76,324.62Z"/><path class="cls-55" d="M577.13,322.5l-.94-.47-.74-.3-.92-.12a0,0,0,0,1,0-.06l0,0-.44,0a.08.08,0,0,1-.05-.07.11.11,0,0,1,.08-.1h-.08a.08.08,0,0,1-.08-.09h0a.08.08,0,0,1,.07-.07l.1,0a.07.07,0,0,1,0-.08s0-.05.06-.06c.41-.08,1.63-.26,1.63-.26a.13.13,0,0,0,.11-.18l-.22-.45s0,0,0,0h0a.12.12,0,0,1,.21,0l.8,1.05,1,.09Z"/><path class="cls-55" d="M533,309.21l-.22,2.73a1.36,1.36,0,0,0,.93,1.25,1.54,1.54,0,0,0,2.14-.84s-.32,0-.32,0l.11-1.47,1.19-.82.21-2.58-3.87-.31-.08.93s-.55-.14-.65.31A.65.65,0,0,0,533,309.21Z"/><path class="cls-66" d="M532.63,308.18h0l.17-2.07a1.28,1.28,0,0,1,1.45-.69c1,.21,1.81,1.25,3.44.89a1.15,1.15,0,0,1-.64,1.55,8.49,8.49,0,0,1-2.24-.31s-.58-.07-.45,1,0,1.66.63,1.6a.94.94,0,0,1,1.16-.55,1,1,0,0,1,.72.43l0,.24a1.57,1.57,0,0,1-1.7,1.44h0a1.58,1.58,0,0,1-1.45-1.7l.08-.88a1,1,0,0,0-.42-.9l-.07,0A.63.63,0,0,0,532.63,308.18Z"/><polygon class="cls-55" points="522.01 356.06 522.85 353.05 525.29 353.84 524.17 357.14 522.01 356.06"/><path class="cls-55" d="M522.13,355.64l.45-1.62,2.37.81-.78,2.31-1,0A1.15,1.15,0,0,1,522.13,355.64Z"/><path class="cls-56" d="M526.81,359a.35.35,0,0,1-.31.06l-4.25-1.54,0,0a.63.63,0,0,1-.35-.35.66.66,0,0,1,0-.46l.15-.48.19-.67s.52,1.11,1,.58,1.28.25,1.28.25l2.41,2.23A.32.32,0,0,1,526.81,359Z"/><polygon class="cls-55" points="537.22 357.83 536.94 354.71 539.5 354.59 539.62 358.07 537.22 357.83"/><polygon class="cls-55" points="537.04 355.85 537.22 357.83 539.62 358.07 539.55 356.06 537.04 355.85"/><path class="cls-56" d="M542.72,358.83a.3.3,0,0,1-.26.17l-4.53.06h0a.66.66,0,0,1-.45-.21.7.7,0,0,1-.18-.42l0-.5-.05-.7s.87.85,1.13.2,1.28-.22,1.28-.22l3,1.24A.3.3,0,0,1,542.72,358.83Z"/><path class="cls-65" d="M527.88,326.48l-1.23,10.33L526,341.9l5,.73L533.84,331l.07.14.5-4.59A23.11,23.11,0,0,1,527.88,326.48Z"/><polygon class="cls-65" points="525.53 343.06 525.48 343.19 523.88 348.08 521.81 354.75 525.18 356.07 528.18 348.89 530.98 342.63 526.04 341.6 525.53 343.06"/><path class="cls-65" d="M540.16,356.22,539,327.58s-2.41-.29-4.58-.74L533,332.13l3.41,24.24Z"/><path class="cls-68" d="M533.27,333.82h0a.15.15,0,0,1-.1-.19l.57-2a.14.14,0,0,1,.08-.09l.56-.28a.16.16,0,0,1,.21.06.16.16,0,0,1-.07.2l-.51.26-.55,1.93A.15.15,0,0,1,533.27,333.82Z"/><path class="cls-55" d="M540.07,320.27l1.76,1.79a2.61,2.61,0,0,0,1.39.75h0a2.63,2.63,0,0,0,2.35-.72l.1-.09a3,3,0,0,0,.54-.77l3.31-7-1.34-1.31-4.52,5.85-1.22-1s-.06.37-1.74.73A3,3,0,0,0,540.07,320.27Z"/><path class="cls-62" d="M543,317.82l-2.6,3.46-.19-.18-.33-.3-.29-.26-.2-.18-.26-.24q0,.11,0,.27c0,.06,0,.12,0,.19s0,.27,0,.43,0,.26,0,.4v.39c0,.25,0,.51,0,.78a1.27,1.27,0,0,0,0,.2c0,.13,0,.26,0,.39s0,.27,0,.41,0,.21,0,.31a1.34,1.34,0,0,0,0,.2l0,.84c0,.14,0,.27,0,.41h0v.2c0,.46,0,.88,0,1.24a.19.19,0,0,0,0,.08V327a2.71,2.71,0,0,0,0,.29c0,.42,0,.67,0,.67a61.76,61.76,0,0,1-12.73-.33l.18-.9,0-.19h0l.08-.39.16-.82,0-.19.11-.57h0l.07-.38h0l.06-.29,0-.19.2-1v-.06l0-.2,0-.13.18-.9,0-.2.11-.56.08-.39,0-.25,0-.19.15-.73,0-.24,0-.15,0-.08,0-.11.06-.29,0-.1.09-.39.07-.34,0-.19.09-.4h0l.07-.3,0-.09.05-.25,0-.05,0-.14.21-.92,0-.16.05-.2v0l.2-.89.05-.2.06-.27.09-.38,0-.16,0-.2.13-.59c.25.05,1,.11,1.86.16h0c1.42.09,3.09.17,3.09.17l2.82.57a2,2,0,0,1,.53.2h0a2.17,2.17,0,0,1,.33.19l.27.2a2.73,2.73,0,0,1,.37.32c.11.1.21.21.32.32l.18.19h0l.21.24.33.38.24.27,0,.05.12.14h0c.19.21.38.42.56.64l.29.32.05.07a1.37,1.37,0,0,1,.16.18l.42.48.27.3.15.17.15.18Z"/><path class="cls-55" d="M548.18,312.93l.15-.48.66-.36.13.09.75-.55a.43.43,0,0,1,.2.16.57.57,0,0,1,.08.34l-.16.12a.22.22,0,0,1,.22.1.32.32,0,0,1,0,.3.28.28,0,0,1,.19.09.36.36,0,0,1,0,.34l-.16.13a.19.19,0,0,1,.21.1.3.3,0,0,1,0,.3c-.24.13-.7.5-.94.63l-1.7,1Z"/><path class="cls-56" d="M548.56,314.26l1.06.23a.17.17,0,0,0,.22-.17l0-3.34a.18.18,0,0,0-.16-.18l-1-.12a.18.18,0,0,0-.2.17l-.1,3.23A.19.19,0,0,0,548.56,314.26Z"/><path class="cls-56" d="M548.7,313.86l.81.19a.14.14,0,0,0,.17-.14l0-2.55a.14.14,0,0,0-.12-.14l-.76-.09a.13.13,0,0,0-.15.13l-.08,2.47A.13.13,0,0,0,548.7,313.86Z"/><path class="cls-55" d="M550,312.25l-.58.46h0a.37.37,0,0,0-.06.49l.1.14,0-.1.36-.3Z"/><path class="cls-55" d="M550.22,312.65l-.66.52a.33.33,0,0,0-.08.4h0a.21.21,0,0,0,.31,0l.5-.38Z"/><path class="cls-55" d="M549.87,313.53l-.15.12a.17.17,0,0,0-.06.2h0a.19.19,0,0,0,.1.08.2.2,0,0,0,.15,0Z"/><path class="cls-55" d="M549.87,311.63l-1,.73.06.1a.43.43,0,0,0,.58.15l.45-.36Z"/><path class="cls-55" d="M520.35,327.68l4.3-7.07.79-3.08L529,318l-1.19,3.59a1.23,1.23,0,0,1-.23.4l-5.65,6.74Z"/><path class="cls-55" d="M521.3,326.34l2,.75-2.92,3.64a.22.22,0,0,1-.22,0,.15.15,0,0,1-.1-.19l-.41.51a.23.23,0,0,1-.22,0,.22.22,0,0,1-.15-.22l-.14.2a.34.34,0,0,1-.34,0,.2.2,0,0,1-.11-.24l.21-.28.45-.62-.63.47a.26.26,0,0,1-.31,0,.17.17,0,0,1,0-.27c.4-.44.73-.91,1.14-1.34l-.35.17a.58.58,0,0,1-.26.06.57.57,0,0,1-.35-.12l.69-.46.68-.45c.14-.1.13-.15.32-.14Z"/><path class="cls-62" d="M531.94,312.08l-.26.62-.08.19-.16.36-.16.37,0,.08-.08.19-.38.9-.07.15v0l-.15.33-.31.73-.08.19-.17.4-.16.37-.11.25-.08.19-.39.93-.07.16-.08.19v0l-.32.75c-.06-.09-4.11-1.66-4.2-1.64h0l.7-1,0-.06.08-.12.15-.22.51-.75.12-.18.08-.12.23-.34.38-.55.12-.18.06-.1.23-.33.28-.42h0l.13-.18a5.47,5.47,0,0,1,.47-.5,3.4,3.4,0,0,1,.3-.23l.08-.06.16-.11a2.67,2.67,0,0,1,1.73-.44l1.49.16Z"/><path class="cls-71" d="M539.11,320.19A.15.15,0,0,1,539,320l-.12-3.74a.14.14,0,0,1,.14-.16.14.14,0,0,1,.16.15l.12,3.74a.16.16,0,0,1-.15.16Z"/><path class="cls-71" d="M528.78,319.65l-.06,0a.14.14,0,0,1-.08-.19l1.51-3.78a.15.15,0,0,1,.19-.08.16.16,0,0,1,.09.2l-1.51,3.77A.16.16,0,0,1,528.78,319.65Z"/><path class="cls-55" d="M532.55,312.09l0,.7a.82.82,0,0,0,.16.41,1.58,1.58,0,0,0,2.84-.42.65.65,0,0,0,0-.44l-.21-.06-1-.38Z"/><polygon class="cls-65" points="534.1 313.77 534.54 314.61 534.24 315.02 534 315 533.99 315 533.75 314.98 533.54 314.51 534.11 313.77 534.1 313.77"/><polygon class="cls-65" points="532.98 325.98 533.83 325.25 534.25 315.02 534 315 533.99 315.16 534 315 533.75 314.98 532.16 325.08 532.92 325.97 532.92 326.03 532.95 326 532.98 326.03 532.98 325.98"/><polygon class="cls-18" points="535.55 312.09 534.1 313.77 534.81 315.17 535.93 313.76 536.7 312.58 535.55 312.09"/><polygon class="cls-18" points="532.64 311.83 534.12 313.78 533.16 315.01 532.11 313.34 531.59 312.06 532.64 311.83"/><path class="cls-65" d="M600.4,335.25a1.49,1.49,0,0,1-.3-1.08c0-.07,0-.14,0-.22a2.32,2.32,0,0,0-.33-1.2,3.93,3.93,0,0,1-.6-1.77c0-.08,0-.16,0-.25a1.45,1.45,0,0,0-2.87.33.81.81,0,0,0,0,.16,1.57,1.57,0,0,1-.37,1.19,2.37,2.37,0,0,0-.57,1.54c0,.08,0,.15,0,.22a1.46,1.46,0,0,1-.29,1.07,3.37,3.37,0,0,0-.75,2.24,3.42,3.42,0,1,0,6.09-2.23Z"/><path class="cls-18" d="M594.38,345.39h6.68l-.29,11.26a2.28,2.28,0,0,1-2.28,2.28h-1.24a2.28,2.28,0,0,1-2.27-2.28Z"/><path class="cls-72" d="M598.49,359h-1.24a2.4,2.4,0,0,1-2.39-2.39l-.59-11.26a.1.1,0,0,1,.11-.11h6.68a.11.11,0,0,1,.08,0,.09.09,0,0,1,0,.08l-.3,11.26A2.39,2.39,0,0,1,598.49,359Zm-4-13.54.59,11.14a2.17,2.17,0,0,0,2.16,2.17h1.24a2.16,2.16,0,0,0,2.16-2.16l.3-11.15Z"/><path class="cls-72" d="M597.72,345.5a.11.11,0,0,1-.11-.11V336.1a.11.11,0,0,1,.11-.11.11.11,0,0,1,.12.11v9.29A.11.11,0,0,1,597.72,345.5Z"/><path class="cls-18" d="M597.72,340.9a.11.11,0,0,1-.11-.11V331a.11.11,0,0,1,.11-.11.11.11,0,0,1,.12.11v9.8A.11.11,0,0,1,597.72,340.9Z"/><path class="cls-18" d="M597.72,337.2h0a.11.11,0,0,1-.06-.15l1.57-3.6a.12.12,0,0,1,.15-.06.11.11,0,0,1,.06.15l-1.57,3.61A.11.11,0,0,1,597.72,337.2Z"/><path class="cls-18" d="M597.72,339.15a.11.11,0,0,1-.09,0l-1.74-3.16a.11.11,0,0,1,0-.15.12.12,0,0,1,.16,0l1.73,3.15a.11.11,0,0,1,0,.15Z"/><path class="cls-18" d="M601.25,345.39h-7a.38.38,0,0,1-.37-.37h0a.37.37,0,0,1,.37-.37h7a.37.37,0,0,1,.37.37h0A.38.38,0,0,1,601.25,345.39Z"/><path class="cls-72" d="M601.25,345.5h-7a.49.49,0,0,1,0-1h7a.49.49,0,0,1,0,1Zm-7-.74a.26.26,0,0,0,0,.52h7a.26.26,0,0,0,0-.52Z"/><path class="cls-54" d="M589.33,327h-.1a1.23,1.23,0,0,1-1.06-.74,1.3,1.3,0,0,1,.09-1.21l6.34-9.84a4.56,4.56,0,0,1-.27-4.82,4.2,4.2,0,0,1,3.83-1.81.16.16,0,0,1,.15.1.18.18,0,0,1,0,.19l-1.93,2.82.75,1.43a.77.77,0,0,0,.6.41l1.6.18,1.93-2.83a.19.19,0,0,1,.17-.08.21.21,0,0,1,.15.11,4.2,4.2,0,0,1-.3,4.22,4.63,4.63,0,0,1-4.6,1.55l-6.27,9.75A1.25,1.25,0,0,1,589.33,327Zm8.47-18.07a3.84,3.84,0,0,0-3.16,1.66,4.24,4.24,0,0,0,.34,4.5.2.2,0,0,1,0,.21l-6.4,9.95a.89.89,0,1,0,1.5,1h0l6.34-9.85a.2.2,0,0,1,.2-.09,4.26,4.26,0,0,0,4.34-1.36,3.85,3.85,0,0,0,.41-3.54l-1.8,2.63a.18.18,0,0,1-.18.08l-1.71-.19a1.13,1.13,0,0,1-.89-.61l-.8-1.52a.18.18,0,0,1,0-.2Z"/><path class="cls-54" d="M611.93,359.34H511.84a.19.19,0,0,1,0-.38H611.93a.19.19,0,0,1,0,.38Z"/><circle class="cls-53" cx="76.75" cy="86.53" r="0.4"/><circle class="cls-53" cx="79.65" cy="86.53" r="0.4"/><circle class="cls-53" cx="82.55" cy="86.53" r="0.4"/><circle class="cls-53" cx="85.45" cy="86.53" r="0.4"/><circle class="cls-53" cx="76.75" cy="88.82" r="0.4"/><circle class="cls-53" cx="79.65" cy="88.82" r="0.4"/><circle class="cls-53" cx="82.55" cy="88.82" r="0.4"/><circle class="cls-53" cx="85.45" cy="88.82" r="0.4"/><path class="cls-53" d="M77.16,91.12a.41.41,0,0,1-.41.4.4.4,0,0,1-.4-.4.41.41,0,0,1,.4-.41A.42.42,0,0,1,77.16,91.12Z"/><path class="cls-53" d="M80.06,91.12a.41.41,0,0,1-.81,0,.41.41,0,1,1,.81,0Z"/><path class="cls-53" d="M83,91.12a.41.41,0,0,1-.81,0,.41.41,0,1,1,.81,0Z"/><path class="cls-53" d="M85.86,91.12a.41.41,0,0,1-.81,0,.41.41,0,1,1,.81,0Z"/><circle class="cls-53" cx="76.75" cy="93.41" r="0.4"/><circle class="cls-53" cx="79.65" cy="93.41" r="0.4"/><circle class="cls-53" cx="82.55" cy="93.41" r="0.4"/><circle class="cls-53" cx="85.45" cy="93.41" r="0.4"/><path class="cls-54" d="M74.33,107.79H19.46a.2.2,0,0,1-.19-.2V76.65a.2.2,0,0,1,.19-.19H74.33a.19.19,0,0,1,.19.19v30.94A.19.19,0,0,1,74.33,107.79Zm-54.67-.39H74.13V76.85H19.66Z"/><path class="cls-54" d="M74.73,109.35H19.06a1,1,0,1,1,0-1.95H74.73a1,1,0,1,1,0,1.95Zm-55.67-1.56a.58.58,0,0,0-.59.59.59.59,0,0,0,.59.59H74.73a.59.59,0,0,0,.59-.59.58.58,0,0,0-.59-.59Z"/><path class="cls-73" d="M24.17,84.16a5.84,5.84,0,0,1,4.5-2.1,6,6,0,0,1,2.66.63l-2.62,5.16h0a.09.09,0,0,0-.07,0Z"/><path class="cls-54" d="M22.8,87.92h5.79a.1.1,0,0,0,0,.08L26,93.14A5.84,5.84,0,0,1,22.8,87.92Z"/><path class="cls-54" d="M28.67,93.79V88a.09.09,0,0,0,.09-.09.05.05,0,0,0,0,0L33.5,84.6a5.8,5.8,0,0,1,1,3.32,5.87,5.87,0,0,1-5.22,5.84Z"/><path class="cls-53" d="M30.52,95.65H25a.19.19,0,0,1-.2-.19.2.2,0,0,1,.2-.2h5.51a.2.2,0,0,1,.19.2A.19.19,0,0,1,30.52,95.65Z"/><path class="cls-53" d="M32.66,97.17H25a.2.2,0,1,1,0-.39h7.65a.2.2,0,1,1,0,.39Z"/><path class="cls-53" d="M30,98.69H25a.2.2,0,1,1,0-.39H30a.2.2,0,0,1,.19.2A.2.2,0,0,1,30,98.69Z"/><path class="cls-54" d="M51.85,100.43a.41.41,0,0,1-.42.41.41.41,0,0,1,0-.82A.41.41,0,0,1,51.85,100.43Z"/><path class="cls-73" d="M60.62,100.43a.41.41,0,0,1-.41.41.41.41,0,1,1,0-.82A.41.41,0,0,1,60.62,100.43Z"/><path class="cls-74" d="M67.37,95.44H48.72a.08.08,0,0,1-.07-.08.07.07,0,0,1,.07-.08H67.37a.07.07,0,0,1,.08.08A.08.08,0,0,1,67.37,95.44Z"/><path class="cls-74" d="M67.37,92.23H48.72a.08.08,0,0,1,0-.16H67.37a.08.08,0,0,1,0,.16Z"/><path class="cls-74" d="M67.37,89.25H48.72a.08.08,0,0,1,0-.16H67.37a.08.08,0,0,1,0,.16Z"/><path class="cls-74" d="M67.37,86.56H48.72a.08.08,0,0,1,0-.16H67.37a.08.08,0,0,1,0,.16Z"/><path class="cls-74" d="M67.37,83.35H48.72a.08.08,0,0,1,0-.16H67.37a.08.08,0,0,1,0,.16Z"/><rect class="cls-54" x="49.76" y="89.15" width="1.66" height="9"/><rect class="cls-73" x="52.57" y="87.71" width="1.66" height="10.44"/><rect class="cls-54" x="55.38" y="85.6" width="1.66" height="12.55"/><rect class="cls-73" x="58.19" y="91.77" width="1.66" height="6.38"/><rect class="cls-54" x="61" y="85.91" width="1.66" height="12.24"/><rect class="cls-54" x="63.8" y="92.45" width="1.66" height="5.7"/><path class="cls-74" d="M67.37,98.22H48.72a.07.07,0,0,1-.07-.07.07.07,0,0,1,.07-.08H67.37a.07.07,0,0,1,.08.08A.07.07,0,0,1,67.37,98.22Z"/><path class="cls-74" d="M57.06,100.62H52.57a.19.19,0,0,1,0-.38h4.49a.19.19,0,1,1,0,.38Z"/><path class="cls-74" d="M65.74,100.62H61.25a.19.19,0,1,1,0-.38h4.49a.19.19,0,0,1,0,.38Z"/><polygon class="cls-55" points="43.08 137.85 43.08 136.81 45.06 136.81 45.06 137.25 45.06 137.85 44.36 138.25 43.74 138.25 43.08 137.85"/><path class="cls-65" d="M43.08,137.85v.83h5v-.07a.42.42,0,0,0-.28-.4l-2.77-.95-.42.49A1.67,1.67,0,0,1,43.08,137.85Z"/><polygon class="cls-65" points="48.11 138.67 48.11 138.97 43.08 138.97 43.08 138.68 48.11 138.67"/><path class="cls-65" d="M33.5,104.52l.13,14.93.8,17.36h3L38.57,110a.4.4,0,0,1,.4-.4h0a.4.4,0,0,1,.39.37l3.25,26.85h2.83V104.52Z"/><path class="cls-55" d="M40.1,90.89s1.2.12,1.32-.93.17-2.54.17-2.54H37.07v4.31h3Z"/><path class="cls-56" d="M40.4,89.15a.56.56,0,0,1-.77-.59s.11-.49.65-.25c0,0-.07-.76,1.29-.49.12,0,.28-.45.3-.51a1.92,1.92,0,0,0-1.2-2.16A3.23,3.23,0,0,0,39.1,85a1.76,1.76,0,0,0-.6.19c-.12.07-.49.29-.49.45V85a1.28,1.28,0,0,0-1.29,1.28v3.85h2a1.73,1.73,0,0,0,1.32-.62Z"/><path class="cls-62" d="M32.22,92.26a3,3,0,0,1,2.23-.87l9.84.53,6.86.59,2.94-5.64,2.11.79-2.58,6.51A3.34,3.34,0,0,1,51.8,96h0a3.32,3.32,0,0,1-1.28.25H45.64l.13,10.28H33.14v-4.67h0a1.75,1.75,0,0,1-1.75-1.75V94.29a2.9,2.9,0,0,1,.83-2Z"/><polygon class="cls-75" points="33.14 101.88 33.14 94.59 32.74 101.83 33.14 101.88"/><polygon class="cls-62" points="37.07 91.53 37.07 91.21 40.1 91.37 40.1 91.73 37.07 91.53"/><rect class="cls-55" x="34.92" y="136.81" width="2.02" height="0.79"/><polygon class="cls-65" points="37.34 138.49 34.59 138.49 34.81 137.6 37.01 137.6 37.34 138.49"/><path class="cls-65" d="M34.65,138.39h2.63a.24.24,0,0,1,.24.24V139a0,0,0,0,1,0,0H34.41a0,0,0,0,1,0,0v-.35A.24.24,0,0,1,34.65,138.39Z"/><polygon class="cls-65" points="37.52 138.67 37.52 138.97 34.41 138.97 34.41 138.68 37.52 138.67"/><path class="cls-55" d="M55.73,87.49l.1-.44.61-1.17a.18.18,0,0,0,0-.26.17.17,0,0,0-.23,0,.24.24,0,0,0-.08-.3.25.25,0,0,0-.2,0L56,85a.16.16,0,0,0,0-.16.22.22,0,0,0-.22-.07l.43-.89a.14.14,0,0,0,0-.17.14.14,0,0,0-.17,0l-1,1.6-.26.37-.16.75-.31.55Z"/><path class="cls-76" d="M55.55,85.25h0s0,0,0,0l.22-.44a0,0,0,0,1,0,0,0,0,0,0,1,0,0l-.23.43S55.56,85.25,55.55,85.25Z"/><path class="cls-67" d="M40.1,90.89s-.28.12-1-.46a1.18,1.18,0,0,0,1,.75Z"/><polygon class="cls-77" points="33.52 106.55 45.44 106.55 33.52 107.03 33.52 106.55"/><path class="cls-66" d="M72,100.12a2.9,2.9,0,0,0-1.07,2.21c0,1.41.12,1.64-.93,2a1.79,1.79,0,0,0-1.28,1.83c.08.55.31,1.22,2,1.12a3.32,3.32,0,0,1,.41-1.33,4.6,4.6,0,0,1,2.33-1.19l.09-1.12a1.48,1.48,0,0,1-1.41-.94Z"/><path class="cls-55" d="M72.09,102.33c0-1.38-.12-2.52-.12-2.52s3.15-.86,3.88,1.25c0,0,.67-.07.66.56a.71.71,0,0,1-.67.67l.17,2.24a1.66,1.66,0,0,1-1.58,1.15s-1.43,0-1.21-.84l.26,0,.09-1.12A1.42,1.42,0,0,1,72.09,102.33Z"/><path class="cls-66" d="M75.85,101.06A2,2,0,0,1,73,100s-.38.81-1,.82l0-1.39c0-.7.69-1.08,1.26-1.23a2.81,2.81,0,0,1,2.33.34,3,3,0,0,1,.89,1.83,1.57,1.57,0,0,1,1.5,1.37l.08,1.14s2.66-.42,3.14,1.29c.29,1,.09,2.31-1,2.4l-.21-.5a2.33,2.33,0,0,0-1-1.12,2.68,2.68,0,0,0-1.27-.37H76l-.17-2.24a.79.79,0,0,0,.67-.67A.6.6,0,0,0,75.85,101.06Z"/><path class="cls-67" d="M73.57,103.69A1.36,1.36,0,0,0,74.8,103a1.43,1.43,0,0,1-1.26,1.1Z"/><path class="cls-65" d="M78.32,138a1,1,0,1,0,1-1A1,1,0,0,0,78.32,138Z"/><path class="cls-65" d="M79.39,137.35H71.51a.2.2,0,0,1-.19-.19.2.2,0,0,1,.19-.2h7.88a.2.2,0,1,1,0,.39Z"/><path class="cls-65" d="M75.45,137.21a.2.2,0,0,1-.19-.19V120.91a.2.2,0,1,1,.39,0V137A.2.2,0,0,1,75.45,137.21Z"/><path class="cls-65" d="M70.58,138a1,1,0,1,0,1-1A1,1,0,0,0,70.58,138Z"/><polygon class="cls-78" points="81.06 123.5 69.22 123.5 69.22 122.27 81.39 122.27 81.06 123.5"/><polygon class="cls-65" points="81.38 122.31 85.55 108.25 72.52 108.25 75.28 122.31 81.38 122.31"/><path class="cls-79" d="M70.17,122.27H69.05L67.14,137.4l-2.87.32.89-.69-.73-13.74c0-.13,0-.26,0-.38a6.21,6.21,0,0,1,2.43-5.07S70.48,117.2,70.17,122.27Z"/><path class="cls-80" d="M67.34,136l.27,1a.48.48,0,0,1-.33.59l-4.22,1.17a.25.25,0,0,1-.24-.4l2.46-1.81Z"/><path class="cls-79" d="M67.34,136l-.53.55a2.45,2.45,0,0,1-2.44.71l.91-.67Z"/><polygon class="cls-55" points="74.98 113.42 73.13 114.31 71.36 115.17 75.5 115.2 74.98 113.42"/><path class="cls-62" d="M79.77,116.44s1.76,4.07-.67,5.83H71.36s-.17-4.61-4.52-4.43l2.36-1.4Z"/><path class="cls-55" d="M71.36,122.27H70.24l-1.9,15.13-3,.58.84-.91-.57-13.6a6.13,6.13,0,0,1,.4-2.62,5.91,5.91,0,0,1,.86-1.48L68,117.93S71.16,118.16,71.36,122.27Z"/><polygon class="cls-56" points="79.11 114.23 79.52 115.28 75.96 115.2 79.11 114.23"/><path class="cls-66" d="M57.88,116.83H88.44a.78.78,0,0,0,.77-.77h0a.78.78,0,0,0-.77-.78H57.88a.78.78,0,0,0-.78.78h0A.78.78,0,0,0,57.88,116.83Z"/><path class="cls-65" d="M58.18,138.76h0a.19.19,0,0,1-.16-.22l3.66-21.63a.2.2,0,0,1,.22-.16A.2.2,0,0,1,62,117L58.37,138.6A.19.19,0,0,1,58.18,138.76Z"/><path class="cls-65" d="M88.57,138.76a.19.19,0,0,1-.19-.16L84.72,117a.2.2,0,0,1,.16-.23.2.2,0,0,1,.22.16l3.66,21.63a.19.19,0,0,1-.16.22Z"/><path class="cls-56" d="M76,104.57h1.73a2.74,2.74,0,0,1,2,.9h0a2.79,2.79,0,0,1,.56,1l1.47,4.81a2.23,2.23,0,0,1-.39,2h0a2.22,2.22,0,0,1-1.23.77l-4.68,1.1-.92-1.59-1.45.69-1.67.81-.27-1.88-.5,1.92H65.16l0-.43,3.44-1.14,1-6.08a3,3,0,0,1,.59-1.36h0A3.08,3.08,0,0,1,72.35,105l.81-.07a2.36,2.36,0,0,0,1.5.39A1.91,1.91,0,0,0,76,104.57Z"/><path class="cls-64" d="M74.58,113.73a.11.11,0,0,1-.1-.06.12.12,0,0,1,0-.16l3.84-1.83-1.22-4a.1.1,0,0,1,.07-.14.12.12,0,0,1,.15.07l1.25,4.09a.12.12,0,0,1-.06.14l-3.93,1.87Z"/><path class="cls-64" d="M71.19,113.35a.12.12,0,0,1-.12-.09l-.36-2a.11.11,0,0,1,.1-.13.11.11,0,0,1,.13.09l.36,2a.11.11,0,0,1-.09.13Z"/><path class="cls-64" d="M71.55,111.6a1.24,1.24,0,0,1-.79-.29,1.28,1.28,0,0,1-.45-1.14l.44-3.28a.12.12,0,0,1,.13-.1.12.12,0,0,1,.1.13l-.43,3.28a1,1,0,0,0,.36.93,1,1,0,0,0,1,.18l0,.11,0,.11,0-.11,0,.11A1,1,0,0,1,71.55,111.6Z"/><path class="cls-64" d="M75.66,115.28a.11.11,0,0,1-.11-.09.11.11,0,0,1,.09-.14l3.37-.79a.12.12,0,0,1,.14.09.11.11,0,0,1-.09.14l-3.37.79Z"/><path class="cls-69" d="M74.08,115.28H70.42v-.7h3a.69.69,0,0,1,.69.7Z"/><path class="cls-69" d="M70.86,115.28H60.29L58.6,110a.74.74,0,0,1,.7-1h9a.73.73,0,0,1,.7.51Z"/><path class="cls-81" d="M63.56,112.42a.54.54,0,1,0,.17-.78A.56.56,0,0,0,63.56,112.42Z"/><path class="cls-62" d="M68.52,136.22l.22,1.05a.47.47,0,0,1-.33.58L64.18,139a.24.24,0,0,1-.23-.4l2.28-1.77Z"/><path class="cls-55" d="M68.47,136.23l-.53.55a2.64,2.64,0,0,1-2.51.69l.8-.62Z"/><path class="cls-55" d="M14.3,120c-1.17,4.26.5,9.2,1.29,13.67l2.46-.28s.46-15.06.31-15.52c-1.37.5-2.79.39-4.21.72C14.16,118.54,14.3,120,14.3,120Z"/><path class="cls-55" d="M6.43,132.76,4.9,136.62l-1.59-.42.78-3.95S5.42,132.48,6.43,132.76Z"/><path class="cls-56" d="M3.33,135.91l-.37.92a.45.45,0,0,0,.21.58L6.71,139a.22.22,0,0,0,.26-.33l-1.76-1.92Z"/><path class="cls-55" d="M3.33,135.91l.39.57a2.25,2.25,0,0,0,2.1,1L5,136.36Z"/><path class="cls-55" d="M18.05,133.21l.07,4.25-1.62.26-.91-4.1S17,133.36,18.05,133.21Z"/><path class="cls-56" d="M16.41,137.45v1a.44.44,0,0,0,.42.44l3.88,0a.22.22,0,0,0,.1-.41l-2.36-1Z"/><path class="cls-55" d="M16.41,137.45l.58.36a2.23,2.23,0,0,0,2.3,0l-1.21-.63Z"/><path class="cls-55" d="M14.22,107.14l1,1.22-4.11,13.25-2.67-.81-1.89-.58c.69-5.4.84-9,1.53-12.21A4.88,4.88,0,0,1,11,104.49l1-.4Z"/><path class="cls-55" d="M11.12,121.61,6.35,132.94l-2.26-.69c.93-3.93,1.65-7.42,2.81-12.11H9.17Z"/><path class="cls-62" d="M18.15,114.23a17.22,17.22,0,0,1,.65,3.48,7.94,7.94,0,0,1-.41,3.78c-1-.84-5.39-1.8-6.52-1.27a7.9,7.9,0,0,1-4.54.72,6.4,6.4,0,0,1-4.74-2.68,7.34,7.34,0,0,1-1.34-4.1,1.58,1.58,0,0,0,1.15.11c.79-.31,1.28-1.12,1.93-1.61a7.62,7.62,0,0,0,2.32-3.53,14.26,14.26,0,0,1,1.85-3.85,1.81,1.81,0,0,1,.65-.55,2.34,2.34,0,0,1,1.59-.29c1.23.44,2.36-.89,3.22.21a9.9,9.9,0,0,1,1.12,2c.32.7.73,1.37,1,2.08.68,1.69,1.4,3.37,1.93,5.12Z"/><path class="cls-55" d="M15.57,90.68c-.44-.15-.64-.86-.64-.86a2,2,0,0,0-.26-1.32l-3.26-.13-.08,2.43L11,93.94l2.71.09-.12-1.44h0l.89.11h0l.19,0a.47.47,0,0,0,.26,0h0c.32-.14.3-1.37.3-1.37l0-.22C15.66,91,15.57,90.68,15.57,90.68Z"/><polygon class="cls-82" points="13.57 92.59 12.33 92.31 13.58 92.91 13.57 92.59"/><path class="cls-83" d="M12.76,90.17a2.06,2.06,0,0,0,1-.78,1.49,1.49,0,0,0,.27-.82s.71.1.95,1.17a1.88,1.88,0,0,0-.44-1.83c-.61-.6-3.76-1.11-4.54,1.47-.47,1.57,1.34,2.61,1.2,3,0,0,1.22-.19.94-1.28Z"/><path class="cls-83" d="M14,88.57a2.39,2.39,0,0,1-1.24,2.48,1,1,0,0,0-.66-1Z"/><path class="cls-55" d="M12.84,91.39c-.32.23-.66.31-.93-.08s-.38-1.1-.05-1.33a.81.81,0,0,1,1.08.3A.79.79,0,0,1,12.84,91.39Z"/><path class="cls-83" d="M11.56,91.65a1.51,1.51,0,1,1-1.44-1.56A1.51,1.51,0,0,1,11.56,91.65Z"/><path class="cls-18" d="M11.06,90.54l0,0A1.21,1.21,0,0,0,10,90.15s-.06,0-.07-.05,0-.06,0-.07a1.28,1.28,0,0,1,1.17.4.07.07,0,0,1,0,.09Z"/><polygon class="cls-55" points="15.29 99.02 19.14 108.01 18.16 108.65 13.79 104.12 15.29 99.02"/><path class="cls-55" d="M18.29,107.14l-.62,1L20,110.75a.15.15,0,0,0,.19,0,.16.16,0,0,0,.05-.21l.45.49a.25.25,0,0,0,.19,0,.22.22,0,0,0,.08-.24l.16.18a.24.24,0,0,0,.28,0,.2.2,0,0,0,.05-.25l-.24-.27-.51-.58.63.41c.1.06.2.07.27,0a.2.2,0,0,0,0-.28c-.43-.4-.81-.85-1.24-1.25l.33.14a.37.37,0,0,0,.23,0,.4.4,0,0,0,.27-.16l-.68-.4-.67-.39a.67.67,0,0,0-.46-.08l-.3.06Z"/><path class="cls-56" d="M10.38,94.66l-1,10.21,4.62-.22A32.36,32.36,0,0,1,15,99.88l.85-1a1.77,1.77,0,0,0,.21-.71,1.66,1.66,0,0,0-.72-1.47c-.59-.43-1-1.74-1.63-2.58h0C11.21,94,11,93.48,11,93.48A3.74,3.74,0,0,1,10.38,94.66Z"/><path class="cls-55" d="M11.67,93.85A10.55,10.55,0,0,0,13,95.08c.3.24,1,.8,1.5.7l.2,0a6.47,6.47,0,0,0-1-1.73Z"/><rect class="cls-18" x="7.24" y="108.52" width="6.34" height="4.91" transform="translate(19.97 -0.08) rotate(10.28)"/><rect class="cls-56" x="4.45" y="107.98" width="8.47" height="5.38" rx="0.28" transform="translate(19.89 0.23) rotate(10.28)"/><path class="cls-55" d="M12.05,94.42l-.27-.14a1.45,1.45,0,0,0-1.19,0,1.89,1.89,0,0,0-.75.9,6.36,6.36,0,0,0-.36,1.61c-.15,1-.31,2-.47,3l-.3,1.88h0L7.78,111l1.4.15,2.46-7.3a6.8,6.8,0,0,0,.22-.89c.17-1,.34-2,.52-3l.54-3.18a2.83,2.83,0,0,0-.09-1.58A1.78,1.78,0,0,0,12.05,94.42Z"/><path class="cls-56" d="M12.69,99.24c.14-.81.28-1.62.41-2.44A3,3,0,0,0,13,95.07a2,2,0,0,0-.86-.87l-.29-.14a1.6,1.6,0,0,0-1.32,0,2.1,2.1,0,0,0-.82,1,6.76,6.76,0,0,0-.39,1.77l-.39,2.45Z"/><path class="cls-55" d="M7.92,110.54,7.8,111,7.12,112a3.68,3.68,0,0,0-.26.73.49.49,0,0,0,.15.48l.42.22a.53.53,0,0,0,.33,0l.53-.13-.46-.17.31-.28.41-.41.07.06,0,.37a.73.73,0,0,0,0,.36.28.28,0,0,0,.34.18l0-.5s.1-.59.1-.62.15-.92.15-.92l.16-.67Z"/><path class="cls-56" d="M12.74,99h0a.08.08,0,0,1-.07-.1,19.94,19.94,0,0,0,.45-3.26.1.1,0,0,1,.08-.1.09.09,0,0,1,.1.07A20.05,20.05,0,0,1,12.82,99,.08.08,0,0,1,12.74,99Z"/><path class="cls-54" d="M97.51,139.22H-5.63a.18.18,0,0,1-.19-.19.18.18,0,0,1,.19-.19H97.51a.19.19,0,1,1,0,.38Z"/></g></g></g></svg>