<svg xmlns="http://www.w3.org/2000/svg" xmlns:xlink="http://www.w3.org/1999/xlink" viewBox="0 0 525.35 375.01"><defs><style>.cls-1,.cls-49,.cls-51,.cls-52{fill:none;}.cls-2{clip-path:url(#clip-path);}.cls-3,.cls-37,.cls-45{fill:#48acbe;}.cls-16,.cls-28,.cls-3,.cls-40,.cls-42{opacity:0.14;}.cls-4{font-size:9.01px;fill:gray;letter-spacing:0.08em;}.cls-22,.cls-27,.cls-4{font-family:NotoSansCJKtc-Medium-B5pc-H, Noto Sans CJK TC;}.cls-12,.cls-5{fill:#c8647f;}.cls-12,.cls-6,.cls-9{font-size:12.18px;}.cls-18,.cls-48,.cls-6,.cls-9{fill:#fff;}.cls-12,.cls-19,.cls-29,.cls-37,.cls-41,.cls-43,.cls-6,.cls-9{font-family:NotoSansCJKtc-Bold-B5pc-H, Noto Sans CJK TC;}.cls-6{letter-spacing:0.12em;}.cls-7{letter-spacing:0.12em;}.cls-8{letter-spacing:0em;}.cls-10{letter-spacing:0.18em;}.cls-11{fill:#ffd2dc;}.cls-13,.cls-48{font-size:9.05px;font-family:NotoSansCJKtc-Regular-B5pc-H, Noto Sans CJK TC;}.cls-13{fill:#c88090;}.cls-14{letter-spacing:0.02em;}.cls-15,.cls-48{letter-spacing:0.02em;}.cls-16{fill:#689acb;}.cls-17,.cls-19{fill:#5e8fcf;}.cls-19,.cls-29,.cls-37,.cls-41,.cls-43{font-size:10.83px;}.cls-20{letter-spacing:0.02em;}.cls-21{letter-spacing:0.02em;}.cls-22,.cls-27{font-size:8.05px;}.cls-22,.cls-27,.cls-30,.cls-34{fill:#595757;}.cls-23,.cls-27{letter-spacing:0.02em;}.cls-24{letter-spacing:0.02em;}.cls-25{letter-spacing:0.02em;}.cls-26{letter-spacing:0.02em;}.cls-28,.cls-29,.cls-47{fill:#eca048;}.cls-30,.cls-34{font-size:9.06px;}.cls-30{font-family:AcuminConcept-Medium, Acumin Variable Concept;font-weight:500;}.cls-31{letter-spacing:0.05em;}.cls-32{letter-spacing:0.04em;}.cls-33{letter-spacing:0.04em;}.cls-34{font-family:AcuminConcept-Light, Acumin Variable Concept;font-weight:300;}.cls-35{letter-spacing:0.04em;}.cls-36{letter-spacing:0.03em;}.cls-38{letter-spacing:0.02em;}.cls-39{letter-spacing:0.02em;}.cls-40,.cls-41,.cls-44{fill:#f69fa8;}.cls-42,.cls-43,.cls-46{fill:#7fad4e;}.cls-49,.cls-51{stroke:#bb375b;}.cls-49,.cls-51,.cls-52{stroke-miterlimit:10;}.cls-49{stroke-width:1.24px;}.cls-50{fill:#bb375b;}.cls-51{stroke-width:1.43px;}.cls-52{stroke:#d6adb8;stroke-dasharray:6;}</style><clipPath id="clip-path"><rect class="cls-1" width="525.35" height="375.01"/></clipPath></defs><g id="圖層_2" data-name="圖層 2"><g id="圖層_1-2" data-name="圖層 1"><g class="cls-2"><path class="cls-3" d="M289.89,361.32H217.74a5.48,5.48,0,0,1-5.48-5.48V233.68a5.48,5.48,0,0,1,5.48-5.48h72.15a5.48,5.48,0,0,1,5.47,5.48V355.84a5.47,5.47,0,0,1-5.47,5.48"/><text class="cls-4" transform="translate(394.21 93.5)">訂定永續發展策略及目標<tspan x="0" y="10.82">督導永續發展業務之執行</tspan><tspan x="0" y="21.64">每半年召開會議</tspan></text><rect class="cls-5" x="191.87" y="11.31" width="123.89" height="39.49" rx="15.33"/><text class="cls-6" transform="translate(233.35 36.46)">董<tspan class="cls-7" x="13.64" y="0">事</tspan><tspan class="cls-8" x="27.27" y="0">會</tspan></text><rect class="cls-5" x="175.67" y="75.44" width="156.28" height="50.98" rx="19.79"/><text class="cls-9" transform="translate(219.44 100.21)"><tspan class="cls-10">永續委員</tspan><tspan x="57.49" y="0">會</tspan></text><path class="cls-11" d="M141,165.72H47.8c-8.47,0-15.33-6.22-15.33-13.89v-8c0-7.67,6.86-13.88,15.33-13.88H141c8.47,0,15.34,6.21,15.34,13.88v8C156.36,159.5,149.49,165.72,141,165.72Z"/><text class="cls-12" transform="translate(49.38 151.94)"><tspan class="cls-7">事務</tspan><tspan x="27.26" y="0">局</tspan></text><text class="cls-13" transform="translate(94.86 151.03)"><tspan class="cls-14">經</tspan><tspan class="cls-15" x="9.22" y="0">營</tspan><tspan class="cls-14" x="18.45" y="0">企</tspan><tspan class="cls-15" x="27.67" y="0">劃</tspan><tspan x="36.9" y="0">部</tspan></text><path class="cls-16" d="M94.19,361.32H22a5.47,5.47,0,0,1-5.47-5.48V233.68A5.48,5.48,0,0,1,22,228.2H94.19a5.48,5.48,0,0,1,5.48,5.48V355.84a5.48,5.48,0,0,1-5.48,5.48"/><path class="cls-17" d="M40.61,228.59A17.51,17.51,0,1,1,58.12,246.1,17.51,17.51,0,0,1,40.61,228.59Z"/><path class="cls-18" d="M70.92,226.54v6.05h-.07l-7.23,3.62-.14.22a1.26,1.26,0,0,1-1.06,1.21l-.19.18a1.25,1.25,0,0,1-1.07,1.07L61,239a1.25,1.25,0,0,1-1.12,1.12,5.4,5.4,0,0,1-.5.87,2.31,2.31,0,0,1-.61.37h-.55c-.27-.16-.55-.31-.8-.49a.3.3,0,0,0-.37-.05,1.26,1.26,0,0,1-1.78-.92.25.25,0,0,0-.23-.23,1.14,1.14,0,0,1-.87-.64c-.09-.16-.08-.41-.2-.52s-.37-.12-.54-.21a1.26,1.26,0,0,1-.68-1.07,1.32,1.32,0,0,1-1.23-1.16l-.06-.12-1.13-.68c-.1.12-.18.29-.26.29a2.67,2.67,0,0,1-.94-.08c-1.2-.37-2.38-.78-3.58-1.17a.28.28,0,0,1-.23-.33V225.7a2.77,2.77,0,0,1,2,.38c.18.15.42.22.6.36a1.49,1.49,0,0,0,1.68.23l.24-.13-.16-.25a3,3,0,0,1-1-1.41,5,5,0,0,1-.12-1.76,2.77,2.77,0,0,1,1.71-2.53,9.57,9.57,0,0,1,1.28-.34c-.1-.24-.23-.53-.34-.82l0-.24,2.09-2.1c.39.25.76.5,1.14.73l.31,0c.4-.15.79-.34,1.2-.49a.32.32,0,0,0,.24-.27c.08-.43.18-.86.27-1.28H59.7c.09.44.17.87.28,1.3l.2.23c.4.19.82.34,1.22.52a.26.26,0,0,0,.31,0c.37-.25.75-.49,1.15-.74.7.71,1.4,1.41,2.09,2.12v.24c-.11.29-.24.57-.37.87a2.93,2.93,0,0,1,2.77,1.77,4.18,4.18,0,0,1,.25,2,2.88,2.88,0,0,1-1.08,2.2l-.15.23.23.14c.64.19,1.29.37,1.94.54l.2,0,1.07-.55.28-.09C70.37,226.52,70.65,226.53,70.92,226.54Zm-.84.88-.29.14-7.07,3.73a1.34,1.34,0,0,1-.83.18,4.1,4.1,0,0,1-.48-.1l-2.14-.61a1.91,1.91,0,0,0-1.43.08L55.58,232a.62.62,0,0,0-.27.87.57.57,0,0,0,.84.16l1.33-.79a1.67,1.67,0,0,1,2.21.21c1.09,1,2.19,2,3.27,3a.31.31,0,0,0,.41,0l6.49-3.25a.36.36,0,0,0,.24-.38c0-1.36,0-2.73,0-4.1C70.09,227.61,70.09,227.53,70.08,227.42Zm-12.87,2.81a4.35,4.35,0,0,0-2.3-.37c-1,.17-2.1.43-3.14.66l-.19.16c-.35,1.21-.69,2.42-1,3.63l.05.18,1.17.71c.31-.32.59-.63.9-.9a1.26,1.26,0,0,1,2.11.71.24.24,0,0,0,.24.22,1.21,1.21,0,0,1,.87.65,4.44,4.44,0,0,1,.19.55,1.32,1.32,0,0,1,1.22,1.24,1.67,1.67,0,0,1,1.08.67,5.62,5.62,0,0,0,1.1.9.43.43,0,0,0,.63-.12.44.44,0,0,0-.13-.6l-.48-.4-1.64-1.37.52-.63.12.09,2,1.71a.53.53,0,0,0,.76,0c.19-.22.13-.46-.16-.7l-1.21-1-.84-.71.53-.63,2.11,1.76.2.15a.51.51,0,0,0,.62-.11.45.45,0,0,0-.05-.61l-.15-.14-3.18-2.86a.93.93,0,0,0-1.32-.13c-.47.28-.94.58-1.42.84a1.41,1.41,0,1,1-1.21-2.55ZM54,229.15l.26,0a5.18,5.18,0,0,1,2.35.07l2.88.79,2.23.63a1.92,1.92,0,0,0,.32.05c.15,0,.21-.07.21-.21,0-.45,0-.9,0-1.35a1.24,1.24,0,0,0-1-1.26c-.7-.18-1.4-.36-2.1-.52-.15,0-.2-.09-.19-.24s0-.6,0-.9a.33.33,0,0,1,.19-.33,2,2,0,0,0,1-1.47,4.2,4.2,0,0,0,0-1.12,3.22,3.22,0,0,0-.28-1,2,2,0,0,0-3.7.37,6.32,6.32,0,0,0-.12,1.31,2.07,2.07,0,0,0,1.07,2l.16.27c0,.29,0,.59,0,.88s-.07.27-.25.31l-2.08.52A1.21,1.21,0,0,0,54,229.15Zm13.54-1.34,0-.06-1.74-.43c-.18,0-.25-.11-.24-.29a5.75,5.75,0,0,0,0-.83.37.37,0,0,1,.21-.38,1.85,1.85,0,0,0,.95-1.23,4,4,0,0,0-.06-2,2.07,2.07,0,0,0-1.9-1.41,2,2,0,0,0-2,1.46,6.11,6.11,0,0,0-.1,1.48,1.64,1.64,0,0,0,.72,1.49,1,1,0,0,1,.51,1.16v.3c0,.17-.06.23-.22.26l-1.22.31c.75.73.58,1.64.61,2.54Zm-13.79-.19c-.45-.12-.85-.23-1.25-.32-.14,0-.18-.09-.17-.22,0-.29,0-.58,0-.87a.36.36,0,0,1,.21-.38,2,2,0,0,0,1-1.5,3.48,3.48,0,0,0,0-1,3.74,3.74,0,0,0-.29-1.09,2,2,0,0,0-2.05-1,2,2,0,0,0-1.64,1.41,6.67,6.67,0,0,0-.11,1.55,1.65,1.65,0,0,0,.71,1.45,1,1,0,0,1,.51,1.15v.3c0,.16,0,.24-.21.27s-.45.11-.68.17l0,.06a11.87,11.87,0,0,0,1.42.82,1,1,0,0,1,.65,1.22l0,0,1.09-.25.14-.15A2.21,2.21,0,0,1,53.76,227.62Zm1.47-4c0-.18,0-.36,0-.53A2.81,2.81,0,0,1,57,220.58a2.73,2.73,0,0,1,2.93.39c1.29,1,1.33,3,.89,4.17a2.6,2.6,0,0,1-.89,1.18c-.16.13-.17.27,0,.31.5.14,1,.26,1.5.38l.19,0,1.31-.33.18-.12-.11-.22a5.73,5.73,0,0,1-.65-.75,4.17,4.17,0,0,1-.25-3.42l0-.32a4.54,4.54,0,0,0-7.87-.07.45.45,0,0,0,0,.42,4.28,4.28,0,0,1-.05,3.09,2.66,2.66,0,0,1-.83,1l-.11.23.11.09,1.45.36H55l1.33-.34.17-.1-.11-.23c-.15-.16-.33-.3-.48-.47A3.07,3.07,0,0,1,55.23,223.63Zm7.42-2.48.89-.56.08-.12c.13-.29.26-.58.37-.87v-.2c-.41-.42-.82-.83-1.25-1.25-.34.22-.67.45-1,.65h-.28a6.69,6.69,0,0,0-2-.8.25.25,0,0,1-.21-.23c-.06-.33-.14-.65-.2-1,0-.14-.08-.19-.23-.19H57.39a.18.18,0,0,0-.21.18c-.07.33-.15.65-.2,1a.27.27,0,0,1-.24.24,6.36,6.36,0,0,0-1.92.8.23.23,0,0,1-.31,0l-.86-.56c-.11-.08-.18-.06-.27,0l-1.06,1.06a.24.24,0,0,0-.07.31c.13.26.23.53.34.8l.12.16.87.58a5.39,5.39,0,0,1,9.07,0Zm-16.5,5.37v5.94c0,.34,0,.68,0,1l.12.21,1.65.56,1.5-6-2.9-1.68A1,1,0,0,0,46.15,226.52Zm3.39,8.27.08-.25c.18-.61.35-1.23.53-1.85.3-1.05.61-2.11.9-3.16l0-.33c-.26-.18-.55-.33-.86-.51-.49,2-1,3.88-1.46,5.82Zm7,5.35.19-.06a12.6,12.6,0,0,0,.89-.9.44.44,0,0,0-.61-.6,6.31,6.31,0,0,0-.89.9C55.92,239.74,56.17,240.13,56.55,240.14Zm-3.8-3.68c.13,0,.21,0,.25-.08.32-.31.65-.61.93-.94a.39.39,0,0,0-.1-.54.4.4,0,0,0-.55,0,7.4,7.4,0,0,0-.84.84.53.53,0,0,0,0,.46C52.48,236.31,52.65,236.38,52.75,236.46Zm3.77,1.24a2,2,0,0,0-.31-.38.4.4,0,0,0-.51.07c-.24.22-.48.46-.71.7a.47.47,0,0,0,0,.69.48.48,0,0,0,.69-.05c.22-.21.44-.42.64-.64A2.23,2.23,0,0,0,56.52,237.7Zm-2.45,0,.21-.08a12,12,0,0,0,.87-.88.44.44,0,0,0-.58-.62,5.84,5.84,0,0,0-.93.93C53.44,237.28,53.71,237.67,54.07,237.67Zm3.8,2.52c.22.22.44.47.79.33a.53.53,0,0,0,.26-.37c0-.35-.29-.45-.47-.64Z"/><text class="cls-19" transform="translate(35.4 262.54)"><tspan class="cls-20">公</tspan><tspan class="cls-21" x="11.04" y="0">司</tspan><tspan class="cls-20" x="22.09" y="0">治</tspan><tspan x="33.13" y="0">理</tspan></text><text class="cls-22" transform="translate(32.31 280.25)"><tspan class="cls-23">▪</tspan><tspan class="cls-24" x="8.21" y="0">董</tspan><tspan class="cls-23" x="16.41" y="0">事</tspan><tspan class="cls-25" x="24.62" y="0">會</tspan><tspan class="cls-26" x="32.83" y="0">運</tspan><tspan x="41.04" y="0">作</tspan></text><text class="cls-22" transform="translate(32.31 294.25)"><tspan class="cls-23">▪</tspan><tspan class="cls-24" x="8.21" y="0">誠</tspan><tspan class="cls-23" x="16.41" y="0">信</tspan><tspan class="cls-25" x="24.62" y="0">經</tspan><tspan x="32.83" y="0">營</tspan></text><text class="cls-22" transform="translate(32.31 308.26)"><tspan class="cls-23">▪</tspan><tspan class="cls-24" x="8.21" y="0">風</tspan><tspan class="cls-23" x="16.41" y="0">險</tspan><tspan class="cls-25" x="24.62" y="0">管</tspan><tspan x="32.83" y="0">理</tspan></text><text class="cls-27" transform="translate(32.31 322.27)">▪<tspan class="cls-24" x="8.21" y="0">法令遵循</tspan></text><text class="cls-27" transform="translate(224.67 280.25)">▪多元共融<tspan class="cls-25" x="41.05" y="0">(D&amp;I)</tspan></text><text class="cls-27" transform="translate(224.67 294.25)">▪育才留才</text><text class="cls-27" transform="translate(224.67 308.26)">▪<tspan class="cls-24" x="8.21" y="0">健康安全</tspan></text><text class="cls-27" transform="translate(224.67 322.27)">▪<tspan class="cls-24" x="8.21" y="0">員工照顧</tspan></text><text class="cls-22" transform="translate(32.31 336.27)"><tspan class="cls-23">▪</tspan><tspan class="cls-24" x="8.21" y="0">資</tspan><tspan class="cls-23" x="16.41" y="0">訊</tspan><tspan class="cls-25" x="24.62" y="0">安</tspan><tspan x="32.83" y="0">全</tspan></text><text class="cls-27" transform="translate(32.31 350.28)">▪<tspan class="cls-24" x="8.21" y="0">責任投資</tspan></text><path class="cls-28" d="M192,361.32H119.89a5.48,5.48,0,0,1-5.48-5.48V233.68a5.49,5.49,0,0,1,5.48-5.48H192a5.48,5.48,0,0,1,5.48,5.48V355.84a5.48,5.48,0,0,1-5.48,5.48"/><text class="cls-29" transform="translate(133.82 262.54)"><tspan class="cls-20">商</tspan><tspan class="cls-21" x="11.04" y="0">品</tspan><tspan class="cls-20" x="22.09" y="0">服</tspan><tspan x="33.13" y="0">務</tspan></text><text class="cls-22" transform="translate(130.89 279.9)">▪</text><text class="cls-30" transform="translate(139.1 279.9)"><tspan class="cls-31">C</tspan><tspan class="cls-32" x="6.67" y="0">S</tspan><tspan class="cls-33" x="12.59" y="0">V</tspan><tspan x="18.8" y="0"> </tspan></text><text class="cls-34" transform="translate(160.56 278.89) scale(1.25 1)">x</text><text class="cls-30" transform="translate(165.97 279.9)"><tspan class="cls-35"> </tspan><tspan class="cls-36" x="2.63" y="0">D</tspan><tspan x="9.42" y="0">X</tspan></text><text class="cls-22" transform="translate(130.89 295.19)"><tspan class="cls-23">▪</tspan><tspan class="cls-24" x="8.21" y="0">綠</tspan><tspan class="cls-23" x="16.41" y="0">色</tspan><tspan class="cls-25" x="24.62" y="0">商</tspan><tspan x="32.83" y="0">品</tspan></text><text class="cls-22" transform="translate(130.89 310.49)"><tspan class="cls-23">▪</tspan><tspan class="cls-24" x="8.21" y="0">客</tspan><tspan class="cls-23" x="16.41" y="0">戶</tspan><tspan class="cls-25" x="24.62" y="0">服</tspan><tspan x="32.83" y="0">務</tspan></text><text class="cls-37" transform="translate(231.06 262.54)"><tspan class="cls-38">員</tspan><tspan class="cls-39" x="11.05" y="0">工</tspan><tspan class="cls-38" x="22.09" y="0">幸</tspan><tspan x="33.14" y="0">福</tspan></text><path class="cls-40" d="M387.74,361.32H315.59a5.48,5.48,0,0,1-5.48-5.48V233.68a5.48,5.48,0,0,1,5.48-5.48h72.15a5.48,5.48,0,0,1,5.47,5.48V355.84a5.47,5.47,0,0,1-5.47,5.48"/><text class="cls-41" transform="translate(329.33 262.54)"><tspan class="cls-38">社</tspan><tspan class="cls-39" x="11.05" y="0">會</tspan><tspan class="cls-38" x="22.09" y="0">關</tspan><tspan x="33.14" y="0">懷</tspan></text><text class="cls-22" transform="translate(330.13 280.38)"><tspan class="cls-23">▪社</tspan><tspan class="cls-24" x="16.42" y="0">會</tspan><tspan class="cls-23" x="24.62" y="0">參</tspan><tspan x="32.83" y="0">與</tspan></text><text class="cls-22" transform="translate(330.13 295.67)"><tspan class="cls-23">▪體</tspan><tspan class="cls-24" x="16.42" y="0">育</tspan><tspan class="cls-23" x="24.62" y="0">支</tspan><tspan x="32.83" y="0">援</tspan></text><path class="cls-42" d="M485.58,361.32H413.43a5.48,5.48,0,0,1-5.48-5.48V233.68a5.49,5.49,0,0,1,5.48-5.48h72.15a5.48,5.48,0,0,1,5.48,5.48V355.84a5.48,5.48,0,0,1-5.48,5.48"/><text class="cls-43" transform="translate(427.17 262.54)"><tspan class="cls-38">綠</tspan><tspan class="cls-39" x="11.05" y="0">色</tspan><tspan class="cls-38" x="22.09" y="0">營</tspan><tspan x="33.14" y="0">運</tspan></text><text class="cls-22" transform="translate(428.01 280.38)"><tspan class="cls-23">▪能</tspan><tspan class="cls-24" x="16.42" y="0">源</tspan><tspan class="cls-23" x="24.62" y="0">管</tspan><tspan x="32.83" y="0">理</tspan></text><text class="cls-22" transform="translate(428.01 295.67)"><tspan class="cls-23">▪節</tspan><tspan class="cls-24" x="16.42" y="0">能</tspan><tspan class="cls-23" x="24.62" y="0">減</tspan><tspan x="32.83" y="0">碳</tspan></text><text class="cls-22" transform="translate(428.01 310.97)"><tspan class="cls-23">▪綠</tspan><tspan class="cls-24" x="16.42" y="0">色</tspan><tspan class="cls-23" x="24.62" y="0">採</tspan><tspan x="32.83" y="0">購</tspan></text><path class="cls-44" d="M334.66,229.09a17,17,0,1,1,17,17A17,17,0,0,1,334.66,229.09Z"/><path class="cls-18" d="M362.53,223.87a1.2,1.2,0,0,1-.75.84,1.4,1.4,0,0,1-.41.06h-1.59a1.07,1.07,0,0,1-1-.56c-.07-.11-.14-.15-.24-.12a3.32,3.32,0,0,0-.73.26,4.66,4.66,0,0,1-2.83.79,8.76,8.76,0,0,1-2.15-.45l-1.14-.34a1.59,1.59,0,0,1-1.15-1l0-.09-1,.51-2.33,1.16a1.77,1.77,0,0,1-1.25.2,1.39,1.39,0,0,1-1.1-1.07,1.42,1.42,0,0,1,.5-1.52c.55-.45,1.14-.84,1.72-1.24a.41.41,0,0,1,.58.12.41.41,0,0,1-.12.58l-1.41,1-.14.1a.66.66,0,1,0,.67,1.13c.38-.17.75-.36,1.12-.55.91-.44,1.81-.89,2.72-1.35l.23-.22a1.58,1.58,0,0,1,1.79-.73l2.28.66a.43.43,0,1,1-.24.82l-2.28-.66a.7.7,0,0,0-.89.73.64.64,0,0,0,.45.59,16.39,16.39,0,0,0,3.08.79,3.54,3.54,0,0,0,2.31-.52,2.57,2.57,0,0,1,1.45-.51v-2.65a10.57,10.57,0,0,1-1.39-.19c-1.1-.28-2.19-.61-3.28-.92l-1.23-.33a1.89,1.89,0,0,0-1.47.18c-.21.11-.41.25-.62.38a.44.44,0,0,1-.62-.07.42.42,0,0,1,.12-.61,3.19,3.19,0,0,1,2.22-.79,8.7,8.7,0,0,1,1.43.32c1.18.32,2.36.68,3.55,1a8.83,8.83,0,0,0,1.27.18l0-.11a1.13,1.13,0,0,1,1.24-1h1.27a1.2,1.2,0,0,1,1.39.92Zm-3.06-2.16v1.84c0,.29.08.37.36.37h1.49c.28,0,.36-.08.36-.37v-3.67c0-.28-.09-.36-.37-.36h-1.47c-.29,0-.37.09-.37.38Z"/><path class="cls-18" d="M350.81,240l-3.8-1.07a8.39,8.39,0,0,0-2-.39h-.33l0,.2a1.06,1.06,0,0,1-.94.81c-.65,0-1.3,0-2,0a1.05,1.05,0,0,1-1-1q0-2,0-4a1.09,1.09,0,0,1,1.06-1.05h1.78a1,1,0,0,1,.89.53c.08.13.17.18.3.14a3.28,3.28,0,0,0,.7-.27,4.68,4.68,0,0,1,2.82-.77,8.08,8.08,0,0,1,2,.41l1.26.37a1.56,1.56,0,0,1,1.17,1.06l.05.09,1.71-.85c.61-.3,1.21-.61,1.82-.9a1.56,1.56,0,0,1,1.84.31,1.5,1.5,0,0,1-.2,2.19c-.54.43-1.11.81-1.67,1.2a.42.42,0,1,1-.48-.69l1.44-1,.2-.15a.65.65,0,0,0-.64-1.11l-.25.11-3.72,1.84-.22.21a1.55,1.55,0,0,1-1.79.73l-2.29-.66a.43.43,0,1,1,.23-.82c.77.22,1.53.45,2.3.66a.69.69,0,0,0,.89-.73.65.65,0,0,0-.45-.59,18.19,18.19,0,0,0-3.09-.79,3.52,3.52,0,0,0-2.2.47,2.91,2.91,0,0,1-1.55.57v2.62c.66.11,1.3.18,1.93.34,1.18.31,2.35.65,3.52,1a2.45,2.45,0,0,0,2.38-.34l.19-.13a.42.42,0,0,1,.59.09.41.41,0,0,1-.1.6l-.24.17a4.3,4.3,0,0,1-1.53.64Zm-7-3.49v-1.86c0-.26-.09-.34-.34-.35H342c-.27,0-.35.09-.35.36v3.69c0,.27.08.35.35.36h1.48c.28,0,.37-.09.37-.37Z"/><path class="cls-18" d="M352.73,226.41a2.36,2.36,0,0,1,2-.54,2.31,2.31,0,0,1,1.8,2.16,2.63,2.63,0,0,1-.83,2.12c-.84.79-1.67,1.6-2.5,2.4-.35.33-.61.34-.95,0-.86-.82-1.72-1.64-2.56-2.48a2.46,2.46,0,0,1-.63-2.71,2.2,2.2,0,0,1,3.29-1.21Zm0,5.27.09,0c.82-.8,1.65-1.58,2.46-2.39a1.52,1.52,0,0,0,.41-1.38,1.22,1.22,0,0,0-1.48-1.12,2.06,2.06,0,0,0-.76.4c-.57.47-.84.48-1.38,0l-.23-.19a1.24,1.24,0,0,0-2,.66,1.48,1.48,0,0,0,.3,1.56C351,230,351.85,230.86,352.7,231.68Z"/><path class="cls-18" d="M349.21,220.48a.41.41,0,0,1-.43.43.42.42,0,0,1-.42-.41.44.44,0,0,1,.43-.43A.42.42,0,0,1,349.21,220.48Z"/><path class="cls-18" d="M354.54,237.28a.41.41,0,0,1,.42.4.44.44,0,0,1-.42.44.42.42,0,0,1-.42-.44A.4.4,0,0,1,354.54,237.28Z"/><path class="cls-45" d="M236.81,229.09a17,17,0,1,1,17,17A17,17,0,0,1,236.81,229.09Z"/><path class="cls-18" d="M262.75,231.13a3,3,0,0,0-2.57.68l-.43-.29a2.85,2.85,0,0,0-2.83-.15l-.39-.15c-.51-.18-.51-.18-.52-.73a.5.5,0,0,1,.2-.45,2.46,2.46,0,0,0,.39-.4,5,5,0,0,0,1-2.64,5.91,5.91,0,0,1,.7-2.2,1.82,1.82,0,0,0,.2-.8c0-.72,0-1.45,0-2.18a2.2,2.2,0,0,0-1.21-2.07l-.09-.17a1.25,1.25,0,0,0-1.3-1.31c-1.61,0-3.23,0-4.84,0a3.49,3.49,0,0,0-3.39,3.21c0,.66,0,1.33,0,2a2.35,2.35,0,0,0,.51,1.57,1.55,1.55,0,0,1,.31.85c0,.51,0,1,.13,1.52a4.15,4.15,0,0,0,1.22,2.5,1,1,0,0,1,.36.94v0c0,.13,0,.18-.16.22l-1.29.46c-1.37.5-2.74,1-4.1,1.49a2.37,2.37,0,0,0-1.61,1.89c-.15.8-.27,1.61-.4,2.42a2.64,2.64,0,0,0-.06.79,1.28,1.28,0,0,0,1.36,1.11h15.22l.34.32c.48.47.8.47,1.29,0,1-1,2.08-2,3.13-3a3.37,3.37,0,0,0,1.05-2.07A3,3,0,0,0,262.75,231.13Zm-14.2-7.68a3.11,3.11,0,0,0,0,.61h-.08c0-.15,0-.3,0-.44,0-.6,0-1.2,0-1.79a2.79,2.79,0,0,1,2.76-2.85c1.57,0,3.14,0,4.71,0,.51,0,.78.29.6.81a.34.34,0,0,0,.27.5,1.54,1.54,0,0,1,1.09,1.53c0,.7,0,1.4,0,2.1a3.59,3.59,0,0,1,0,.46h-.06v-.55a2.08,2.08,0,0,0-1.31-2,16.92,16.92,0,0,0-2-.7,1.41,1.41,0,0,0-1,0,5.69,5.69,0,0,1-2.7.45A2.16,2.16,0,0,0,248.55,223.45Zm.88,4.2a6.73,6.73,0,0,1-.17-1.34c0-.86,0-1.73,0-2.59a1.49,1.49,0,0,1,1.39-1.39,9.41,9.41,0,0,0,1.68-.05,6.58,6.58,0,0,0,1.28-.41,1.1,1.1,0,0,1,.78,0c.55.19,1.09.37,1.63.57a1.47,1.47,0,0,1,.95,1l0,.24c0,.47,0,.93,0,1.4h0c0,.68,0,1.37-.13,2a4.16,4.16,0,0,1-.64,1.76,2.84,2.84,0,0,1-.8.82c-.3.21-.56.46-.86.67a2.22,2.22,0,0,1-2.74.13c-.45-.3-.89-.6-1.31-.93A3.32,3.32,0,0,1,249.43,227.65Zm5.86,3.14c.07.23,0,.34-.2.45l-1.82,1.22a.22.22,0,0,1-.29,0c-.61-.41-1.22-.83-1.84-1.23a.34.34,0,0,1-.18-.44A3.14,3.14,0,0,0,255.29,230.79Zm-6.06,1.76,2.49,4.52,0,0-2.23-2,.34-.66c.16-.32,0-.56-.35-.57l-.76,0-.07,0Zm2.75,6h-8a.61.61,0,0,1-.68-.79c.15-.91.3-1.81.46-2.72a1.6,1.6,0,0,1,1-1.28c1.18-.45,2.38-.86,3.57-1.3h.09l-.13.26-.6,1.21c-.16.32,0,.56.34.58h.84l-.17.33c-.16.3-.14.4.1.63l3.16,2.89.18.16Zm.14-2.33h-.05c-.11-.2-.23-.41-.33-.62l0-.14.52-.71a.87.87,0,0,1,0,.25C252.25,235.41,252.18,235.81,252.12,236.22Zm-.81-1.37L249.73,232l.7-.25.17,0c.67.43,1.33.87,2,1.33C252.17,233.66,251.75,234.24,251.31,234.85Zm2.24,2.52c-.13.25-.27.49-.43.78a4.56,4.56,0,0,1-.42-.82,1.44,1.44,0,0,1,.07-.64c.08-.57.17-1.13.27-1.69a.63.63,0,0,0-.13-.53,2.43,2.43,0,0,1-.2-.29c.14-.19.27-.37.42-.56.13.17.25.32.36.49v.17a1,1,0,0,0-.21,1.05c.12.61.2,1.22.3,1.84Zm1.74-5.4a.74.74,0,0,1,.92-.1h0a3,3,0,0,0-.7,1.13,3.71,3.71,0,0,0-.2,1.15l-.38.7-1.3-1.77C254.2,232.71,254.76,232.36,255.29,232Zm.55,3.91c-.39.36-.93.89-1.28,1.22l0,0c.3-.55.7-1.19,1-1.73h0A2.75,2.75,0,0,0,255.84,235.88ZM254,234.81c.17.23.34.45.5.69v.14a4.88,4.88,0,0,1-.34.58,11.15,11.15,0,0,1-.22-1.39Zm.27,3.74h-.18l0-.05,1.44-1.32c.19-.17.55-.54.76-.74l.06.06c.7.69,1.41,1.37,2.12,2.05Zm9.81-3.82a2,2,0,0,1-.41.75c-1.15,1.15-2.32,2.26-3.51,3.42-1.18-1.14-2.34-2.24-3.46-3.36a2.14,2.14,0,0,1-.36-2.41,1.69,1.69,0,0,1,2.68-.75c.87.79,1.41.82,2.28,0a1.67,1.67,0,0,1,2.07,0A2.15,2.15,0,0,1,264.09,234.73Z"/><path class="cls-18" d="M467.86,204.34v-.62h2v.62Z"/><path class="cls-18" d="M466.55,200.59l-.36-.37,1.41-1.42.36.41Z"/><path class="cls-18" d="M468,208.86l-.39.38-1.42-1.42.39-.39Z"/><path class="cls-46" d="M432.5,229.09a17,17,0,1,1,17,17A17,17,0,0,1,432.5,229.09Z"/><path class="cls-18" d="M447.81,241.52c0-.36,0-.72,0-1.09l-.12-.21c-.52-.22-1.06-.42-1.66-.66l-.8.87L442.77,238l.84-.81c-.23-.59-.43-1.12-.65-1.65l-.21-.12c-.36,0-.71,0-1.08,0V232h1.07c.12,0,.19,0,.24-.15.19-.53.4-1.05.63-1.64l-.86-.79,2.46-2.46c.22.23.46.47.69.72a.26.26,0,0,0,.37.07q.64-.3,1.32-.54a.25.25,0,0,0,.2-.3c0-.33,0-.67,0-1h1.33v-2.06c-.34,0-.68,0-1,0a4.61,4.61,0,0,1-4.32-5.89l.23-.19a4.61,4.61,0,0,1,5.24,2.18l.07.1c.11-.26.21-.51.33-.75a4.62,4.62,0,0,1,5.36-2.38l.21.21a4.64,4.64,0,0,1-3,5.65,5,5,0,0,1-2.3.16v3h1.34c0,.38,0,.72,0,1.07a.26.26,0,0,0,.21.29c.45.16.9.35,1.34.55.13.06.2.07.31,0,.24-.27.49-.52.72-.75.83.82,1.63,1.62,2.44,2.44l-.86.81c.2.45.38.85.54,1.27s.19.51.74.51h.69v3.44c-.34,0-.69,0-1,0-.18,0-.25.05-.31.22-.18.5-.38,1-.58,1.5l.84.83-2.47,2.46-.8-.83c-.59.23-1.12.43-1.65.65l-.12.21c0,.37,0,.73,0,1.09Zm8.81-6.86v-2c-.3,0-.58,0-.86,0s-.25-.05-.31-.23c-.16-.53-.35-1.06-.56-1.57a8,8,0,0,0-.46-.82l.78-.73-1.41-1.42-.74.83a6.56,6.56,0,0,0-2.56-1.07c0-.32,0-.62,0-.93,0-.16,0-.21-.2-.21h-1.58c-.16,0-.21.05-.21.21,0,.31,0,.61,0,.89-.47.15-.92.27-1.34.44s-.82.41-1.26.64l-.72-.76-1.42,1.42.8.75a6.59,6.59,0,0,0-1.05,2.42l-.2.13c-.31,0-.62,0-.94,0v2h.91c.15,0,.22,0,.26.2a3.56,3.56,0,0,0,.22.79c.23.53.49,1,.77,1.65l-.76.68,1.41,1.42.76-.81a5.9,5.9,0,0,0,2.3,1c.23.05.27.14.26.34s0,.56,0,.84h2c0-.32,0-.63,0-.94l.13-.2a6.61,6.61,0,0,0,2.43-1l.72.81,1.47-1.46-.81-.74a6.31,6.31,0,0,0,1-2.34c0-.17.11-.2.26-.2Zm-12.19-16.33a3.87,3.87,0,0,0,4.15,4.66L446,220.44l.54-.59,2.56,2.56A3.89,3.89,0,0,0,444.43,218.33Zm6,3.84a3.9,3.9,0,0,0,4.14-4.7,3.92,3.92,0,0,0-4.69,4.12l.07,0,2.88-2.89.53.51Z"/><path class="cls-18" d="M439.38,234h-2.25v-.7h2.25Z"/><path class="cls-18" d="M441.26,229.42l-.43.42-1.6-1.59.45-.41Z"/><path class="cls-18" d="M440.83,237.48l.43.45-1.59,1.59c-.13-.14-.28-.31-.43-.46Z"/><path class="cls-18" d="M444.81,233.66a4.7,4.7,0,1,1,4.7,4.7A4.71,4.71,0,0,1,444.81,233.66Zm8.67,0a4,4,0,1,0-4,4A4,4,0,0,0,453.48,233.66Z"/><path class="cls-18" d="M449.51,237a3.31,3.31,0,1,1,3.3-3.3A3.31,3.31,0,0,1,449.51,237Zm0-.73a2.58,2.58,0,1,0-2.59-2.56A2.57,2.57,0,0,0,449.52,236.24Z"/><path class="cls-47" d="M139,229.09a17,17,0,1,1,17,17A17,17,0,0,1,139,229.09Z"/><path class="cls-18" d="M164.65,239.39h-20v-17.9h16.63l0-.15a3,3,0,0,1,6,.49q0,7.28,0,14.54v.11a2.93,2.93,0,0,1-1.45,2.45A7.84,7.84,0,0,1,164.65,239.39Zm-19.34-.67h18.82a2.42,2.42,0,0,0,2-.88,2.34,2.34,0,0,0-2.61-3.69v4.11a2.2,2.2,0,0,1-1.15-.18,1.94,1.94,0,0,1-1.1-1.87v-14H145.31Zm21.32-4.27V221.71a2.36,2.36,0,0,0-4.72.21v12.31l0,.2a3,3,0,0,1,4.7,0Zm-3.82.1a2.23,2.23,0,0,0-.86,2.1,1.16,1.16,0,0,0,.86.86Z"/><path class="cls-18" d="M147.56,232.48h1.88v.66h-1.88v2.47h1.88v.67h-2.55v-9.37h4.64v-.67h-3.12v-2.92h6.94v2.91h-3.12v.67h4.52v1.35h3.14v2.91H153v-2.89h3.1v-.68h-8.5Zm7.11-8.49h-5.58v1.56h5.58Zm4.54,6.49V229h-5.58v1.53Z"/><path class="cls-18" d="M157,230.31v.57h-5.6v-.57Z"/><path class="cls-18" d="M157,233.12v.57h-5.6v-.57Z"/><path class="cls-18" d="M153,231.5v.59h-1.58v-.59Z"/><path class="cls-18" d="M153,234.9h-1.58v-.59H153Z"/><path class="cls-18" d="M153.57,232.09v-.58h.58v.58Z"/><path class="cls-18" d="M155.36,231.51v.58h-.58v-.58Z"/><path class="cls-18" d="M153.57,234.31h.58v.58h-.58Z"/><path class="cls-18" d="M154.79,234.31h.57v.58h-.57Z"/><text class="cls-48" transform="translate(226.58 115.65)">主席：總經理</text><line class="cls-49" x1="254.45" y1="70.83" x2="254.45" y2="55.09"/><polygon class="cls-50" points="259.54 66.71 258.63 65.86 254.46 70.36 250.28 65.86 249.37 66.71 254.46 72.18 259.54 66.71"/><line class="cls-51" x1="254.13" y1="130.96" x2="254.13" y2="178.13"/><path class="cls-49" d="M59.27,199.55v-12.9a10.47,10.47,0,0,1,10.47-10.47H245.63a8.5,8.5,0,0,0,8.5-8.51V131"/><polygon class="cls-50" points="64.35 195.43 63.44 194.58 59.27 199.07 55.09 194.58 54.18 195.43 59.27 200.9 64.35 195.43"/><line class="cls-49" x1="155.97" y1="199.6" x2="155.97" y2="176.18"/><polygon class="cls-50" points="161.06 195.48 160.15 194.63 155.97 199.12 151.79 194.63 150.88 195.48 155.97 200.95 161.06 195.48"/><line class="cls-49" x1="254.13" y1="199.6" x2="254.13" y2="176.18"/><polygon class="cls-50" points="259.22 195.48 258.31 194.63 254.13 199.12 249.96 194.63 249.05 195.48 254.13 200.95 259.22 195.48"/><line class="cls-49" x1="351.66" y1="199.6" x2="351.66" y2="176.18"/><polygon class="cls-50" points="356.75 195.48 355.84 194.63 351.66 199.12 347.49 194.63 346.57 195.48 351.66 200.95 356.75 195.48"/><path class="cls-49" d="M449,199.55v-12.9a10.47,10.47,0,0,0-10.47-10.47H262.64a8.51,8.51,0,0,1-8.51-8.51V131"/><polygon class="cls-50" points="454.09 195.43 453.18 194.58 449 199.07 444.83 194.58 443.92 195.43 449 200.9 454.09 195.43"/><line class="cls-52" x1="336.47" y1="100.21" x2="385.32" y2="100.21"/><rect class="cls-52" x="385.07" y="75.43" width="123.71" height="49.56"/><line class="cls-49" x1="167.23" y1="148.63" x2="254.31" y2="148.63"/><polygon class="cls-50" points="171.35 153.72 172.2 152.81 167.7 148.63 172.2 144.46 171.35 143.54 165.88 148.63 171.35 153.72"/></g></g></g></svg>